<?xml version="1.0" ?><svg id="Icons" viewBox="0 0 24 24" xmlns="http://www.w3.org/2000/svg" xmlns:xlink="http://www.w3.org/1999/xlink"><defs><style>.cls-1{fill:url(#linear-gradient);}.cls-2{fill:url(#linear-gradient-2);}.cls-3{fill:#cffeff;}</style><linearGradient gradientUnits="userSpaceOnUse" id="linear-gradient" x1="12" x2="12" y1="4.787" y2="19.489"><stop offset="0" stop-color="#a6f9ff"/><stop offset="1" stop-color="#3ed0f7"/></linearGradient><linearGradient gradientUnits="userSpaceOnUse" id="linear-gradient-2" x1="12" x2="12" y1="0.511" y2="21.868"><stop offset="0" stop-color="#766cff"/><stop offset="1" stop-color="#3c3cef"/></linearGradient></defs><rect class="cls-1" height="14" rx="2" width="14" x="5" y="5"/><path class="cls-2" d="M10,1h4a2,2,0,0,1,2,2V5a0,0,0,0,1,0,0H8A0,0,0,0,1,8,5V3A2,2,0,0,1,10,1Z"/><path class="cls-2" d="M8,19h8a0,0,0,0,1,0,0v2a2,2,0,0,1-2,2H10a2,2,0,0,1-2-2V19A0,0,0,0,1,8,19Z"/><path class="cls-3" d="M14,15a1,1,0,0,1-.707-.293l-2-2A1,1,0,0,1,11,12V9a1,1,0,0,1,2,0v2.586l1.707,1.707A1,1,0,0,1,14,15Z"/></svg>