<?xml version="1.0" encoding="UTF-8" standalone="no"?>
<svg
   xmlns:dc="http://purl.org/dc/elements/1.1/"
   xmlns:cc="http://creativecommons.org/ns#"
   xmlns:rdf="http://www.w3.org/1999/02/22-rdf-syntax-ns#"
   xmlns:svg="http://www.w3.org/2000/svg"
   xmlns="http://www.w3.org/2000/svg"
   xmlns:sodipodi="http://sodipodi.sourceforge.net/DTD/sodipodi-0.dtd"
   xmlns:inkscape="http://www.inkscape.org/namespaces/inkscape"
   version="1.1"
   id="Capa_1"
   x="0px"
   y="0px"
   viewBox="0 0 128 128"
   xml:space="preserve"
   width="128"
   height="128"
   class=""
   sodipodi:docname="album-default-cover.svg"
   inkscape:version="0.92.3 (2405546, 2018-03-11)"><metadata
   id="metadata15"><rdf:RDF><cc:Work
       rdf:about=""><dc:format>image/svg+xml</dc:format><dc:type
         rdf:resource="http://purl.org/dc/dcmitype/StillImage" /><dc:title /></cc:Work></rdf:RDF></metadata><defs
   id="defs13" /><sodipodi:namedview
   pagecolor="#ffffff"
   bordercolor="#666666"
   borderopacity="1"
   objecttolerance="10"
   gridtolerance="10"
   guidetolerance="10"
   inkscape:pageopacity="0"
   inkscape:pageshadow="2"
   inkscape:window-width="1366"
   inkscape:window-height="705"
   id="namedview11"
   showgrid="false"
   inkscape:zoom="4.078125"
   inkscape:cx="57.37931"
   inkscape:cy="121.87692"
   inkscape:window-x="0"
   inkscape:window-y="30"
   inkscape:window-maximized="1"
   inkscape:current-layer="Capa_1" /> <rect
   style="opacity:1;fill:#fe2850;fill-opacity:1;fill-rule:evenodd;stroke:none;stroke-width:0.7497772;stroke-miterlimit:4;stroke-dasharray:none;stroke-opacity:1"
   id="rect817"
   width="128"
   height="128"
   x="0"
   y="0"
   ry="0" /><g
   id="g831"
   transform="matrix(0.15384615,0,0,0.15384615,24.615385,24.615386)"
   style="fill:#ffffff;fill-opacity:1"><path
     id="path817"
     d="m 256,165.8 c -49.9,0 -90.3,40.4 -90.3,90.3 0,49.9 40.4,90.2 90.3,90.2 49.9,0 90.3,-40.4 90.3,-90.2 0,-49.9 -40.4,-90.3 -90.3,-90.3 z m 0,130.6 c -22.3,0 -40.4,-18.1 -40.4,-40.4 0,-22.3 18.1,-40.4 40.4,-40.4 22.3,0 40.4,18.1 40.4,40.4 0,22.3 -18.1,40.4 -40.4,40.4 z"
     inkscape:connector-curvature="0"
     style="fill:#ffffff;fill-opacity:1" /><path
     id="path819"
     d="M 256,48 C 141.1,48 48,141.1 48,256 48,370.9 141.1,464 256,464 370.9,464 464,370.9 464,256 464,141.1 370.9,48 256,48 Z m 0,322 c -63,0 -114,-51.1 -114,-114 0,-63 51.1,-114 114,-114 62.9,0 114,51 114,114 0,63 -51,114 -114,114 z"
     inkscape:connector-curvature="0"
     style="fill:#ffffff;fill-opacity:1" /></g></svg>