<?xml version="1.0" encoding="UTF-8" standalone="no"?>
<svg
   xmlns:dc="http://purl.org/dc/elements/1.1/"
   xmlns:cc="http://creativecommons.org/ns#"
   xmlns:rdf="http://www.w3.org/1999/02/22-rdf-syntax-ns#"
   xmlns:svg="http://www.w3.org/2000/svg"
   xmlns="http://www.w3.org/2000/svg"
   xmlns:sodipodi="http://sodipodi.sourceforge.net/DTD/sodipodi-0.dtd"
   xmlns:inkscape="http://www.inkscape.org/namespaces/inkscape"
   viewBox="0 0 16 16"
   version="1.1"
   id="svg8"
   sodipodi:docname="planner-radio-symbolic.svg"
   width="16"
   height="16"
   inkscape:version="0.92.3 (2405546, 2018-03-11)">
  <metadata
     id="metadata14">
    <rdf:RDF>
      <cc:Work
         rdf:about="">
        <dc:format>image/svg+xml</dc:format>
        <dc:type
           rdf:resource="http://purl.org/dc/dcmitype/StillImage" />
        <dc:title />
      </cc:Work>
    </rdf:RDF>
  </metadata>
  <defs
     id="defs12" />
  <sodipodi:namedview
     pagecolor="#ffffff"
     bordercolor="#666666"
     borderopacity="1"
     objecttolerance="10"
     gridtolerance="10"
     guidetolerance="10"
     inkscape:pageopacity="0"
     inkscape:pageshadow="2"
     inkscape:window-width="1366"
     inkscape:window-height="705"
     id="namedview10"
     showgrid="false"
     inkscape:zoom="10.429825"
     inkscape:cx="-15.781977"
     inkscape:cy="4.8834878"
     inkscape:window-x="0"
     inkscape:window-y="30"
     inkscape:window-maximized="1"
     inkscape:current-layer="svg8" />
  <g
     id="g819"
     transform="translate(0,-0.5)">
    <g
       style="fill:#666666;fill-opacity:1"
       id="g817">
      <path
         d="M 1.875,8.5 C 1.875,6.90625 2.45625,5.440625 3.5625,4.2625 3.728125,4.084375 3.725,3.8 3.55,3.628125 3.46875,3.546875 3.359375,3.5 3.246875,3.5 3.128125,3.5 3.015625,3.55 2.93125,3.6375 1.665625,4.990625 1,6.66875 1,8.5 1,10.328125 1.665625,12.009375 2.928125,13.359375 3.0125,13.45 3.125,13.5 3.246875,13.5 3.359375,13.5 3.46875,13.45625 3.55,13.378125 3.63438,13.296875 3.684375,13.184375 3.6875,13.065625 3.6906,12.94375 3.64688,12.828125 3.5625,12.74375 2.45625,11.559375 1.875,10.09375 1.875,8.5 Z M 13.06875,3.6375 C 12.9875,3.55 12.875,3.5 12.75625,3.5 c -0.1125,0 -0.221875,0.04375 -0.303125,0.121875 -0.08438,0.08125 -0.134375,0.19375 -0.1375,0.3125 -0.0031,0.121875 0.04063,0.2375 0.125,0.321875 1.103125,1.18125 1.6875,2.646875 1.6875,4.240625 0,1.59375 -0.58125,3.059375 -1.6875,4.240625 -0.165625,0.175 -0.1625,0.459375 0.0094,0.63125 0.07813,0.08125 0.1875,0.125 0.303125,0.125 0.121875,0 0.2375,-0.05 0.31875,-0.14375 C 14.334375,12.00625 15,10.328125 15,8.5 15,6.671875 14.334375,4.9875 13.06875,3.6375 Z"
         id="path2"
         inkscape:connector-curvature="0"
         style="fill:#666666;fill-opacity:1;stroke-width:0.03125" />
      <path
         d="M 4.975,11.365625 C 4.221875,10.60625 3.809375,9.596875 3.809375,8.525 c 0,-1.09375 0.43125,-2.121875 1.2125,-2.8875 0.171875,-0.165625 0.175,-0.44375 0.0063,-0.61875 -0.08125,-0.08437 -0.19375,-0.13125 -0.3125,-0.13125 -0.115625,0 -0.225,0.04375 -0.30625,0.125 -0.95,0.93125 -1.471875,2.178125 -1.471875,3.5125 0,1.3 0.503125,2.528125 1.415625,3.45625 0.08438,0.08437 0.19375,0.13125 0.309375,0.13125 0.115625,0 0.225,-0.04687 0.30625,-0.13125 C 5.05005,11.9 5.096925,11.790625 5.096925,11.675 5.103225,11.559375 5.059425,11.45 4.97505,11.365625 Z m 6.61875,-6.35 c -0.08125,-0.08125 -0.1875,-0.125 -0.30625,-0.125 -0.11875,0 -0.228125,0.04687 -0.3125,0.128125 -0.16875,0.16875 -0.16875,0.446875 0.0031,0.61875 0.78125,0.765625 1.209375,1.765625 1.209375,2.859375 0,1.06875 -0.409375,2.10625 -1.159375,2.86875 -0.16875,0.16875 -0.165625,0.446875 0.0031,0.615625 0.08125,0.08125 0.19375,0.128125 0.30625,0.128125 0.11875,0 0.23125,-0.04687 0.309375,-0.128125 C 12.5625,11.053125 13.0625,9.8 13.0625,8.5 c 0,-1.328125 -0.521875,-2.546875 -1.46875,-3.484375 z"
         id="path4"
         inkscape:connector-curvature="0"
         style="fill:#666666;fill-opacity:1;stroke-width:0.03125" />
      <path
         d="M 6.471875,6.23125 C 6.390625,6.14687 6.278125,6.1 6.159375,6.1 c -0.115625,0 -0.225,0.04375 -0.30625,0.128125 -0.61875,0.609375 -0.9625,1.425 -0.9625,2.290625 0,0.846875 0.328125,1.646875 0.921875,2.253125 0.08438,0.08438 0.19375,0.13125 0.3125,0.13125 0.115625,0 0.225,-0.04375 0.30625,-0.125 C 6.51563,10.696875 6.5625,10.5875 6.5625,10.46875 6.5625,10.35 6.51875,10.240625 6.434375,10.15625 6.003125,9.71875 5.765625,9.1375 5.765625,8.515625 c 0,-0.634375 0.25,-1.225 0.7,-1.66875 0.16875,-0.1625 0.171875,-0.440625 0.0062,-0.615625 z m 3.70625,-0.0063 c -0.08125,-0.08125 -0.1875,-0.125 -0.30625,-0.125 -0.11875,0 -0.228125,0.04687 -0.3125,0.128125 -0.16875,0.16875 -0.16875,0.446875 0.0031,0.61875 0.453125,0.446875 0.7,1.040625 0.7,1.671875 0,0.61875 -0.2375,1.203125 -0.671875,1.640625 -0.08125,0.08125 -0.128125,0.19375 -0.125,0.309375 0,0.115625 0.04687,0.225 0.128125,0.30625 0.08125,0.08125 0.19375,0.128125 0.30625,0.128125 0.115625,0 0.228125,-0.04687 0.309375,-0.13125 0.596875,-0.60625 0.925,-1.40625 0.925,-2.253125 0.0031,-0.86875 -0.3375,-1.68125 -0.95625,-2.29375 z M 8,7.3125 C 7.34375,7.3125 6.8125,7.84375 6.8125,8.5 6.8125,9.15625 7.34375,9.6875 8,9.6875 8.65625,9.6875 9.1875,9.15625 9.1875,8.5 9.1875,7.84375 8.653125,7.3125 8,7.3125 Z"
         id="path6"
         inkscape:connector-curvature="0"
         style="fill:#666666;fill-opacity:1;stroke-width:0.03125" />
    </g>
  </g>
</svg>
