<svg width="119" height="103" viewBox="0 0 119 103" fill="none" xmlns="http://www.w3.org/2000/svg">
<path d="M117.943 58.9096C122.599 48.465 99.5804 19.2851 77.5896 7.12814C63.7284 -2.2898 49.2849 -0.995962 46.3595 3.1392C39.9396 12.2142 67.6173 19.9039 86.1273 28.8772C82.1484 30.6123 78.3989 33.7264 76.1938 37.709C69.2931 30.1443 54.147 23.6299 36.3744 28.8772C24.3979 32.4134 14.4446 40.7499 10.5976 53.3413C9.66282 52.9243 8.62803 52.6923 7.5392 52.6923C3.37539 52.6923 0 56.0816 0 60.2623C0 64.4433 3.37539 67.8322 7.5392 67.8322C8.311 67.8322 10.7239 67.3126 10.7239 67.3126L49.2849 67.5931C33.8634 92.1581 21.6762 95.749 21.6762 100.005C21.6762 104.26 33.3374 103.107 37.7157 101.521C58.6758 93.9269 81.1878 70.2599 85.051 63.447C101.273 65.4792 114.907 65.7197 117.943 58.9096Z" fill="url(#paint0_linear_1099_34906)"/>
<path fill-rule="evenodd" clip-rule="evenodd" d="M86.129 28.8803C86.987 28.5411 86.8482 27.2685 86.6126 26.2695C86.0711 23.9727 76.7284 14.7092 67.9549 10.5598C56.0008 4.90643 47.1979 5.19741 45.8965 7.80295C48.3313 12.8145 59.6209 17.5198 71.412 22.4341C76.4424 24.5305 81.5648 26.6677 86.129 28.8803Z" fill="url(#paint1_linear_1099_34906)"/>
<path fill-rule="evenodd" clip-rule="evenodd" d="M70.9556 79.3176C68.5379 78.3898 65.8069 77.5387 62.7019 76.7664C66.0128 70.8182 66.7075 62.0122 63.5807 56.4448C59.1927 48.6315 53.6845 44.4727 40.8849 44.4727C33.8451 44.4727 14.8905 46.8537 14.5541 62.7413C14.5189 64.4082 14.5533 65.936 14.6736 67.3411L49.2854 67.593C44.6192 75.0258 40.2489 80.5383 36.4229 84.7301C41.0168 85.9121 44.8077 86.9045 48.2878 87.8154C51.5903 88.6797 54.6129 89.4709 57.7763 90.2815C62.5487 86.7903 67.0353 82.9834 70.9556 79.3176Z" fill="url(#paint2_linear_1099_34906)"/>
<path d="M10.1357 65.7086C11.5496 77.7777 18.3808 82.5077 32.3396 83.9074C46.2981 85.3072 54.3051 84.368 64.9648 85.3418C73.868 86.1552 81.8173 90.7109 84.7662 89.1365C87.4205 87.7198 85.9357 82.6011 82.3843 79.3171C77.7807 75.0602 71.4096 72.1005 60.199 71.0499C62.4329 64.9077 61.8069 56.2957 58.3373 51.6101C53.3202 44.8352 44.0598 41.7721 32.3396 43.1104C20.0945 44.5088 8.36129 50.562 10.1357 65.7086Z" fill="url(#paint3_linear_1099_34906)"/>
<defs>
<linearGradient id="paint0_linear_1099_34906" x1="34.9799" y1="49.6606" x2="116.99" y2="72.8219" gradientUnits="userSpaceOnUse">
<stop stop-color="white"/>
<stop offset="1" stop-color="white"/>
</linearGradient>
<linearGradient id="paint1_linear_1099_34906" x1="103.139" y1="48.0965" x2="43.7582" y2="-11.186" gradientUnits="userSpaceOnUse">
<stop stop-color="#8697FF"/>
<stop offset="1" stop-color="#8697FF" stop-opacity="0"/>
</linearGradient>
<linearGradient id="paint2_linear_1099_34906" x1="72.6011" y1="81.3911" x2="15.6768" y2="48.7978" gradientUnits="userSpaceOnUse">
<stop stop-color="#8697FF"/>
<stop offset="1" stop-color="#8697FF" stop-opacity="0"/>
</linearGradient>
<linearGradient id="paint3_linear_1099_34906" x1="39.873" y1="49.0464" x2="78.466" y2="97.882" gradientUnits="userSpaceOnUse">
<stop stop-color="white"/>
<stop offset="0.983895" stop-color="#D1D8FF"/>
</linearGradient>
</defs>
</svg>
