<svg width="26" height="26" viewBox="0 0 26 26" fill="none" xmlns="http://www.w3.org/2000/svg">
<path d="M25.35 19.25H15.5001C15.47 20.0238 14.9025 20.5 14.17 20.5H11.7C10.9407 20.5 10.3586 19.8176 10.3687 19.25H0.65C0.2925 19.25 0 19.5312 0 19.875V20.5C0 21.875 1.17 23 2.6 23H23.4C24.83 23 26 21.875 26 20.5V19.875C26 19.5312 25.7075 19.25 25.35 19.25ZM23.4 4.875C23.4 3.84375 22.5225 3 21.45 3H4.55C3.4775 3 2.6 3.84375 2.6 4.875V18H23.4V4.875ZM20.8 15.5H5.2V5.5H20.8V15.5Z" fill="#333333"/>
</svg>
