<svg width="47" height="47" viewBox="0 0 47 47" fill="none" xmlns="http://www.w3.org/2000/svg">
<path d="M29.603 0C26.8545 0.00246361 24.1455 0.654685 21.6973 1.90341C19.2491 3.15214 17.1311 4.96197 15.5161 7.18513C13.9011 9.40829 12.8349 11.9818 12.4047 14.6954C11.9745 17.409 12.1923 20.1859 13.0405 22.7994L0.509346 35.324C0.347688 35.4858 0.219501 35.6778 0.132106 35.8891C0.0447106 36.1004 -0.000179334 36.3269 5.38423e-07 36.5556V45.2593C5.38423e-07 45.7209 0.183464 46.1637 0.51003 46.4902C0.836597 46.8166 1.27952 47 1.74135 47H10.4481C10.9099 47 11.3529 46.8166 11.6794 46.4902C12.006 46.1637 12.1895 45.7209 12.1895 45.2593V41.7778H15.6722C16.134 41.7778 16.5769 41.5944 16.9035 41.2679C17.23 40.9415 17.4135 40.4987 17.4135 40.037V36.5556H20.8962C21.1249 36.5557 21.3515 36.5109 21.5629 36.4235C21.7743 36.3361 21.9664 36.208 22.1282 36.0464L24.2091 33.964C26.6024 34.7408 29.1357 34.9898 31.6346 34.694C34.1334 34.3981 36.5384 33.5644 38.684 32.2503C40.8296 30.9361 42.6648 29.1727 44.0632 27.0815C45.4616 24.9904 46.3901 22.621 46.7846 20.1367C47.1792 17.6524 47.0304 15.1121 46.3486 12.6908C45.6668 10.2695 44.4682 8.02465 42.8352 6.11084C41.2023 4.19703 39.1738 2.65974 36.8895 1.60481C34.6051 0.549881 32.1193 0.00237765 29.603 0ZM33.9563 16.537C33.2675 16.537 32.5942 16.3329 32.0214 15.9503C31.4487 15.5678 31.0023 15.024 30.7387 14.3879C30.4751 13.7517 30.4062 13.0517 30.5405 12.3764C30.6749 11.701 31.0066 11.0807 31.4937 10.5938C31.9808 10.1069 32.6013 9.7753 33.2769 9.64097C33.9525 9.50664 34.6527 9.57558 35.2891 9.83909C35.9255 10.1026 36.4694 10.5488 36.8521 11.1213C37.2348 11.6939 37.439 12.367 37.439 13.0556C37.439 13.9789 37.0721 14.8644 36.419 15.5173C35.7658 16.1702 34.88 16.537 33.9563 16.537Z" fill="black"/>
</svg>
