<svg width="26" height="26" viewBox="0 0 26 26" fill="none" xmlns="http://www.w3.org/2000/svg">
<g clip-path="url(#clip0_1484_6432)">
<path d="M11.8506 22.4427C12.1552 22.747 12.5683 22.918 12.9989 22.918C13.4295 22.918 13.8425 22.747 14.1472 22.4427L20.2778 16.3154C20.5826 16.0106 20.7539 15.5971 20.7539 15.166C20.7539 14.7349 20.5826 14.3214 20.2778 14.0166C19.973 13.7117 19.5595 13.5405 19.1284 13.5405C18.6973 13.5405 18.2838 13.7117 17.979 14.0166L14.6239 17.3706L14.6239 4.87432C14.6239 4.44334 14.4527 4.03002 14.1479 3.72527C13.8432 3.42052 13.4299 3.24932 12.9989 3.24932C12.5679 3.24932 12.1546 3.42052 11.8498 3.72527C11.5451 4.03002 11.3739 4.44334 11.3739 4.87432L11.3739 17.3706L8.01989 14.0166C7.86894 13.8656 7.68975 13.7459 7.49253 13.6642C7.29531 13.5825 7.08394 13.5405 6.87047 13.5405C6.65701 13.5405 6.44563 13.5825 6.24841 13.6642C6.05119 13.7459 5.872 13.8656 5.72105 14.0166C5.57011 14.1675 5.45038 14.3467 5.36869 14.5439C5.287 14.7411 5.24495 14.9525 5.24495 15.166C5.24495 15.3794 5.287 15.5908 5.36869 15.788C5.45038 15.9853 5.57011 16.1645 5.72105 16.3154L11.8506 22.4427Z" fill="white"/>
</g>
<defs>
<clipPath id="clip0_1484_6432">
<rect width="26" height="26" fill="white"/>
</clipPath>
</defs>
</svg>
