<svg width="26" height="26" viewBox="0 0 26 26" fill="none" xmlns="http://www.w3.org/2000/svg">
<path d="M14.0784 3C14.3724 3 14.6354 3.183 14.7344 3.457L15.4404 5.414C15.6934 5.477 15.9104 5.54 16.0944 5.606C16.2954 5.678 16.5544 5.787 16.8744 5.936L18.5184 5.066C18.6526 4.99491 18.8062 4.96925 18.9562 4.99287C19.1062 5.01649 19.2445 5.08811 19.3504 5.197L20.7964 6.692C20.9884 6.891 21.0424 7.182 20.9344 7.436L20.1634 9.243C20.2914 9.478 20.3934 9.679 20.4714 9.847C20.5554 10.03 20.6594 10.282 20.7834 10.607L22.5804 11.377C22.8504 11.492 23.0174 11.762 22.9994 12.051L22.8674 14.126C22.8583 14.2608 22.8099 14.39 22.7282 14.4975C22.6464 14.6051 22.5349 14.6863 22.4074 14.731L20.7054 15.336C20.6564 15.571 20.6054 15.772 20.5514 15.942C20.4643 16.2045 20.3648 16.4628 20.2534 16.716L21.1084 18.606C21.1687 18.7388 21.185 18.8874 21.1547 19.0301C21.1245 19.1728 21.0494 19.3021 20.9404 19.399L19.3144 20.851C19.2073 20.9462 19.0737 21.0064 18.9314 21.0236C18.7891 21.0408 18.645 21.014 18.5184 20.947L16.8424 20.059C16.5802 20.1978 16.3096 20.3204 16.0324 20.426L15.3004 20.7L14.6504 22.5C14.6022 22.6318 14.5153 22.746 14.4011 22.8276C14.2869 22.9091 14.1507 22.9542 14.0104 22.957L12.1104 23C11.9663 23.0038 11.8247 22.9628 11.7049 22.8828C11.5851 22.8027 11.493 22.6875 11.4414 22.553L10.6754 20.526C10.414 20.4367 10.1552 20.34 9.89937 20.236C9.69008 20.1454 9.48396 20.0477 9.28137 19.943L7.38137 20.755C7.25618 20.8084 7.11816 20.8243 6.98411 20.8007C6.85006 20.7771 6.72577 20.715 6.62637 20.622L5.22037 19.303C5.11569 19.2052 5.0444 19.077 5.01658 18.9365C4.98877 18.796 5.00583 18.6503 5.06537 18.52L5.88237 16.74C5.77371 16.5292 5.67297 16.3144 5.58037 16.096C5.47227 15.8287 5.37222 15.5583 5.28037 15.285L3.49037 14.74C3.34487 14.696 3.21796 14.6052 3.12936 14.4817C3.04075 14.3582 2.99541 14.2089 3.00037 14.057L3.07037 12.136C3.07535 12.0107 3.1145 11.8891 3.1836 11.7844C3.25269 11.6797 3.34909 11.5959 3.46237 11.542L5.34037 10.64C5.42737 10.321 5.50337 10.073 5.57037 9.892C5.66471 9.65025 5.76947 9.41269 5.88437 9.18L5.07037 7.46C5.00859 7.32938 4.98983 7.18254 5.01679 7.04059C5.04374 6.89864 5.11502 6.76889 5.22037 6.67L6.62437 5.344C6.72279 5.25117 6.84594 5.18876 6.979 5.16428C7.11205 5.1398 7.24935 5.15429 7.37437 5.206L9.27237 5.99C9.48237 5.85 9.67237 5.737 9.84437 5.646C10.0494 5.537 10.3234 5.423 10.6684 5.3L11.3284 3.459C11.3772 3.32427 11.4664 3.20788 11.5838 3.12573C11.7012 3.04358 11.8411 2.99967 11.9844 3H14.0784ZM13.0244 10.019C11.3574 10.019 10.0064 11.354 10.0064 13.002C10.0064 14.65 11.3574 15.986 13.0244 15.986C14.6904 15.986 16.0414 14.65 16.0414 13.002C16.0414 11.354 14.6914 10.019 13.0244 10.019Z" fill="white"/>
</svg>
