<svg width="26" height="26" viewBox="0 0 26 26" fill="none" xmlns="http://www.w3.org/2000/svg">
<path d="M1.5099 19.5466L6.99866 14.0581C8.08141 12.9754 9.69851 12.7645 11.0016 13.4066L15.9982 8.41021V5.49956L21.9978 1L24.9977 3.99971L20.4979 9.99912H17.5871L12.5905 14.9955C13.228 16.2985 13.0218 17.9155 11.939 18.9982L6.45025 24.4868C5.76591 25.1711 4.65973 25.1711 3.98008 24.4868L1.5099 22.0167C0.830252 21.3324 0.830252 20.2262 1.5099 19.5466ZM9.45008 11.5458C8.12359 11.5458 6.87679 12.0614 5.93934 12.9988L5.03002 13.9081C4.28943 13.5847 3.58635 13.1348 2.97701 12.5254C1.23804 10.7865 0.647449 8.33991 1.20054 6.11825C1.30366 5.69642 1.83332 5.55112 2.14268 5.86046L5.62998 9.34762L8.81262 8.81799L9.34228 5.63549L5.85497 2.14833C5.54561 1.83898 5.6956 1.30934 6.12214 1.20154C8.34389 0.653159 10.7906 1.24373 12.5249 2.97793C13.8608 4.31374 14.4889 6.07607 14.4561 7.83371L10.6078 11.6818C10.2282 11.5927 9.83444 11.5458 9.45008 11.5458ZM14.3201 15.3892L16.9778 12.7317L24.1211 19.8794C25.293 21.0512 25.293 22.9494 24.1211 24.1212C22.9493 25.2929 21.051 25.2929 19.8792 24.1212L14.0858 18.328C14.442 17.3953 14.5498 16.3782 14.3201 15.3892ZM21.9978 23.1228C22.6165 23.1228 23.1228 22.6166 23.1228 21.998C23.1228 21.3746 22.6212 20.8731 21.9978 20.8731C21.3744 20.8731 20.8729 21.3746 20.8729 21.998C20.8729 22.6166 21.3744 23.1228 21.9978 23.1228Z" fill="white"/>
</svg>
