<?xml version="1.0" encoding="UTF-8"?>
<!DOCTYPE svg PUBLIC "-//W3C//DTD SVG 1.1//EN" "http://www.w3.org/Graphics/SVG/1.1/DTD/svg11.dtd">
<svg xmlns="http://www.w3.org/2000/svg" version="1.1" width="64px" height="48px" style="shape-rendering:geometricPrecision; text-rendering:geometricPrecision; image-rendering:optimizeQuality; fill-rule:evenodd; clip-rule:evenodd" xmlns:xlink="http://www.w3.org/1999/xlink">
<g><path style="opacity:0.099" fill="#fefffe" d="M 43.5,-0.5 C 44.1667,-0.5 44.8333,-0.5 45.5,-0.5C 44.8333,2.16667 44.1667,2.16667 43.5,-0.5 Z"/></g>
<g><path style="opacity:0.017" fill="#fefffe" d="M 49.5,-0.5 C 49.8333,-0.5 50.1667,-0.5 50.5,-0.5C 51.463,0.3635 51.463,1.03017 50.5,1.5C 49.7025,1.04311 49.3691,0.376442 49.5,-0.5 Z"/></g>
<g><path style="opacity:0.033" fill="#fefffe" d="M 34.5,3.5 C 34.1667,3.5 33.8333,3.5 33.5,3.5C 32.1294,-0.058252 32.796,-0.391585 35.5,2.5C 35.3764,3.10667 35.0431,3.44001 34.5,3.5 Z"/></g>
<g><path style="opacity:0.024" fill="#fefefe" d="M 48.5,3.5 C 48.8966,2.47498 49.5632,2.30831 50.5,3C 49.9056,3.46434 49.2389,3.63101 48.5,3.5 Z"/></g>
<g><path style="opacity:0.28" fill="#f9b71e" d="M 33.5,3.5 C 33.8333,3.5 34.1667,3.5 34.5,3.5C 35.2341,4.70792 35.5674,6.04125 35.5,7.5C 34.5,7.5 33.5,7.5 32.5,7.5C 32.5,6.83333 32.1667,6.5 31.5,6.5C 31.5,6.16667 31.5,5.83333 31.5,5.5C 32.1667,4.83333 32.8333,4.16667 33.5,3.5 Z"/></g>
<g><path style="opacity:0.05" fill="#fef8ed" d="M 31.5,5.5 C 31.5,5.83333 31.5,6.16667 31.5,6.5C 30.4246,7.56236 29.4246,7.56236 28.5,6.5C 29.325,5.61432 30.325,5.28099 31.5,5.5 Z"/></g>
<g><path style="opacity:0.394" fill="#106cd5" d="M 56.5,9.5 C 56.1667,9.5 55.8333,9.5 55.5,9.5C 54.596,8.79105 54.2627,7.79105 54.5,6.5C 52.901,6.76781 51.5676,6.43448 50.5,5.5C 52.3792,4.65859 54.3792,4.32526 56.5,4.5C 56.5,6.16667 56.5,7.83333 56.5,9.5 Z"/></g>
<g><path style="opacity:0.111" fill="#fefffe" d="M 59.5,6.5 C 61.337,6.63945 61.6704,7.30612 60.5,8.5C 59.7025,8.04311 59.3691,7.37644 59.5,6.5 Z"/></g>
<g><path style="opacity:0.81" fill="#e4e4e3" d="M 48.5,3.5 C 49.1667,4.16667 49.8333,4.83333 50.5,5.5C 45.9274,6.38775 41.594,7.72108 37.5,9.5C 36.6618,9.84171 36.3284,10.5084 36.5,11.5C 35.596,10.791 35.2627,9.79105 35.5,8.5C 32.5131,8.99782 29.5131,9.49782 26.5,10C 25.5769,12.0408 25.2436,14.2075 25.5,16.5C 26.5,16.5 27.5,16.5 28.5,16.5C 28.5,17.8333 28.5,19.1667 28.5,20.5C 28.5,21.1667 28.5,21.8333 28.5,22.5C 27.5655,23.5676 27.2322,24.901 27.5,26.5C 24.7837,25.7987 22.4504,24.4654 20.5,22.5C 20.3433,21.1266 20.51,19.7932 21,18.5C 21.8928,19.7112 22.7261,19.7112 23.5,18.5C 21.8489,16.5979 21.5155,14.5979 22.5,12.5C 22.1667,12.1667 21.8333,11.8333 21.5,11.5C 20.1667,14.1667 18.8333,14.1667 17.5,11.5C 16.795,14.089 16.795,16.7557 17.5,19.5C 16.4168,19.5394 15.4168,19.8728 14.5,20.5C 13.8302,22.2914 13.1635,23.9581 12.5,25.5C 12.762,24.0222 12.4287,22.6888 11.5,21.5C 9.45887,20.293 8.12554,18.6263 7.5,16.5C 7.5,15.8333 7.5,15.1667 7.5,14.5C 8.27748,11.8878 9.94415,10.0545 12.5,9C 19.2464,8.79533 25.9131,8.29533 32.5,7.5C 33.5,7.5 34.5,7.5 35.5,7.5C 37.6365,6.59735 39.6365,5.43069 41.5,4C 43.8098,3.50335 46.1432,3.33669 48.5,3.5 Z"/></g>
<g><path style="opacity:1" fill="#4981a0" d="M 50.5,5.5 C 51.5676,6.43448 52.901,6.76781 54.5,6.5C 54.2627,7.79105 54.596,8.79105 55.5,9.5C 55.1103,12.8394 54.6103,16.1727 54,19.5C 52.9887,20.3366 51.8221,20.67 50.5,20.5C 51.1654,16.8632 51.8321,13.1965 52.5,9.5C 47.3499,9.29331 42.3499,9.29331 37.5,9.5C 41.594,7.72108 45.9274,6.38775 50.5,5.5 Z"/></g>
<g><path style="opacity:1" fill="#206bba" d="M 50.5,20.5 C 50.634,22.2915 50.3007,23.9582 49.5,25.5C 49.1667,25.5 48.8333,25.5 48.5,25.5C 48.5,25.1667 48.5,24.8333 48.5,24.5C 49.1185,20.3384 49.7852,16.1717 50.5,12C 50.1667,11.1667 49.8333,10.3333 49.5,9.5C 45.7721,10.377 42.1055,11.377 38.5,12.5C 37.8333,12.5 37.1667,12.5 36.5,12.5C 36.5,12.1667 36.5,11.8333 36.5,11.5C 36.3284,10.5084 36.6618,9.84171 37.5,9.5C 42.3499,9.29331 47.3499,9.29331 52.5,9.5C 51.8321,13.1965 51.1654,16.8632 50.5,20.5 Z"/></g>
<g><path style="opacity:0.246" fill="#f6b511" d="M 7.5,14.5 C 7.5,15.1667 7.5,15.8333 7.5,16.5C 7.5,18.5 7.5,20.5 7.5,22.5C 6.16667,22.5 4.83333,22.5 3.5,22.5C 2.83333,22.1667 2.16667,21.8333 1.5,21.5C 1.06795,20.2905 0.40128,19.2905 -0.5,18.5C -0.5,16.8333 -0.5,15.1667 -0.5,13.5C 2.32095,12.2 4.98762,12.5333 7.5,14.5 Z"/></g>
<g><path style="opacity:1" fill="#4688a1" d="M 36.5,11.5 C 36.5,11.8333 36.5,12.1667 36.5,12.5C 34.1667,12.5 31.8333,12.5 29.5,12.5C 29.8064,15.3854 29.4731,18.0521 28.5,20.5C 28.5,19.1667 28.5,17.8333 28.5,16.5C 27.5,16.5 26.5,16.5 25.5,16.5C 25.2436,14.2075 25.5769,12.0408 26.5,10C 29.5131,9.49782 32.5131,8.99782 35.5,8.5C 35.2627,9.79105 35.596,10.791 36.5,11.5 Z"/></g>
<g><path style="opacity:0.999" fill="#ececeb" d="M 55.5,9.5 C 55.8333,9.5 56.1667,9.5 56.5,9.5C 57.3984,10.1577 58.3984,10.8243 59.5,11.5C 58.9478,13.0026 58.9478,14.6693 59.5,16.5C 56.4731,18.529 54.1398,21.1956 52.5,24.5C 51.5832,25.1272 50.5832,25.4606 49.5,25.5C 50.3007,23.9582 50.634,22.2915 50.5,20.5C 51.8221,20.67 52.9887,20.3366 54,19.5C 54.6103,16.1727 55.1103,12.8394 55.5,9.5 Z"/></g>
<g><path style="opacity:0.328" fill="#f7b50e" d="M 59.5,16.5 C 60.8333,16.5 62.1667,16.5 63.5,16.5C 63.5,18.5 63.5,20.5 63.5,22.5C 62.6618,22.8417 62.3284,23.5084 62.5,24.5C 61.8333,24.8333 61.1667,25.1667 60.5,25.5C 59.6236,25.6309 58.9569,25.2975 58.5,24.5C 59.3928,21.9159 59.7261,19.2492 59.5,16.5 Z"/></g>
<g><path style="opacity:1" fill="#e6a927" d="M 20.5,22.5 C 19.5,22.5 18.5,22.5 17.5,22.5C 17.5,21.5 17.5,20.5 17.5,19.5C 16.795,16.7557 16.795,14.089 17.5,11.5C 18.8333,14.1667 20.1667,14.1667 21.5,11.5C 21.8333,11.8333 22.1667,12.1667 22.5,12.5C 21.5155,14.5979 21.8489,16.5979 23.5,18.5C 22.7261,19.7112 21.8928,19.7112 21,18.5C 20.51,19.7932 20.3433,21.1266 20.5,22.5 Z"/></g>
<g><path style="opacity:1" fill="#e8d6a5" d="M 59.5,16.5 C 59.7261,19.2492 59.3928,21.9159 58.5,24.5C 58.9569,25.2975 59.6236,25.6309 60.5,25.5C 60.1583,26.3382 59.4916,26.6716 58.5,26.5C 57.448,26.3505 56.448,26.5172 55.5,27C 53.9825,28.6851 52.3159,30.1851 50.5,31.5C 49.2638,30.7542 47.9305,30.4208 46.5,30.5C 47.3984,29.8423 48.3984,29.1757 49.5,28.5C 46.9135,27.52 44.2469,27.1866 41.5,27.5C 44.1667,26.8333 46.8333,26.1667 49.5,25.5C 50.5832,25.4606 51.5832,25.1272 52.5,24.5C 54.1398,21.1956 56.4731,18.529 59.5,16.5 Z"/></g>
<g><path style="opacity:1" fill="#0c768f" d="M 36.5,12.5 C 37.1667,12.5 37.8333,12.5 38.5,12.5C 40.2641,16.8663 43.5974,18.6996 48.5,18C 44.011,18.9732 43.6777,20.3065 47.5,22C 45.5273,22.4955 43.5273,22.6621 41.5,22.5C 41.8719,19.9783 41.0386,17.9783 39,16.5C 38.7265,18.3289 37.8932,19.8289 36.5,21C 37.056,21.3826 37.3893,21.8826 37.5,22.5C 36.1667,22.5 34.8333,22.5 33.5,22.5C 32.7304,18.2488 34.3971,15.7488 38.5,15C 37.6195,14.2917 36.9528,13.4584 36.5,12.5 Z"/></g>
<g><path style="opacity:1" fill="#024b60" d="M 48.5,24.5 C 44.351,25.0803 40.6843,24.4136 37.5,22.5C 37.3893,21.8826 37.056,21.3826 36.5,21C 37.8932,19.8289 38.7265,18.3289 39,16.5C 41.0386,17.9783 41.8719,19.9783 41.5,22.5C 43.5273,22.6621 45.5273,22.4955 47.5,22C 43.6777,20.3065 44.011,18.9732 48.5,18C 43.5974,18.6996 40.2641,16.8663 38.5,12.5C 42.1055,11.377 45.7721,10.377 49.5,9.5C 49.8333,10.3333 50.1667,11.1667 50.5,12C 49.7852,16.1717 49.1185,20.3384 48.5,24.5 Z"/></g>
<g><path style="opacity:0.241" fill="#2da8ed" d="M 1.5,21.5 C 2.16667,21.8333 2.83333,22.1667 3.5,22.5C 4.56764,23.4345 5.90097,23.7678 7.5,23.5C 7.44805,25.9029 7.78138,28.2362 8.5,30.5C 8.16667,30.5 7.83333,30.5 7.5,30.5C 7.15829,29.6618 6.49162,29.3284 5.5,29.5C 1.41419,27.998 0.0808546,25.3314 1.5,21.5 Z"/></g>
<g><path style="opacity:1" fill="#e3d3a0" d="M 7.5,16.5 C 8.12554,18.6263 9.45887,20.293 11.5,21.5C 12.4287,22.6888 12.762,24.0222 12.5,25.5C 12.5,26.1667 12.5,26.8333 12.5,27.5C 10.8333,26.1667 9.16667,24.8333 7.5,23.5C 5.90097,23.7678 4.56764,23.4345 3.5,22.5C 4.83333,22.5 6.16667,22.5 7.5,22.5C 7.5,20.5 7.5,18.5 7.5,16.5 Z"/></g>
<g><path style="opacity:1" fill="#0a4e67" d="M 36.5,12.5 C 36.9528,13.4584 37.6195,14.2917 38.5,15C 34.3971,15.7488 32.7304,18.2488 33.5,22.5C 34.8333,22.5 36.1667,22.5 37.5,22.5C 40.6843,24.4136 44.351,25.0803 48.5,24.5C 48.5,24.8333 48.5,25.1667 48.5,25.5C 45.5,25.5 42.5,25.5 39.5,25.5C 38.1667,25.5 36.8333,25.5 35.5,25.5C 33.1667,25.5 30.8333,25.5 28.5,25.5C 28.5,24.5 28.5,23.5 28.5,22.5C 28.5,21.8333 28.5,21.1667 28.5,20.5C 29.4731,18.0521 29.8064,15.3854 29.5,12.5C 31.8333,12.5 34.1667,12.5 36.5,12.5 Z"/></g>
<g><path style="opacity:1" fill="#a6c8d3" d="M 7.5,23.5 C 9.16667,24.8333 10.8333,26.1667 12.5,27.5C 11.9717,28.7206 11.305,29.8873 10.5,31C 11.7375,31.2321 12.7375,31.7321 13.5,32.5C 12.1667,32.8333 10.8333,33.1667 9.5,33.5C 9.5,32.8333 9.16667,32.5 8.5,32.5C 8.5,32.1667 8.5,31.8333 8.5,31.5C 8.5,31.1667 8.5,30.8333 8.5,30.5C 7.78138,28.2362 7.44805,25.9029 7.5,23.5 Z"/></g>
<g><path style="opacity:1" fill="#62a2d1" d="M 17.5,22.5 C 18.5,22.5 19.5,22.5 20.5,22.5C 22.4504,24.4654 24.7837,25.7987 27.5,26.5C 27.2322,24.901 27.5655,23.5676 28.5,22.5C 28.5,23.5 28.5,24.5 28.5,25.5C 30.8333,25.5 33.1667,25.5 35.5,25.5C 35.7911,26.6491 36.6244,27.3158 38,27.5C 40.3595,27.676 40.8595,27.0093 39.5,25.5C 42.5,25.5 45.5,25.5 48.5,25.5C 48.8333,25.5 49.1667,25.5 49.5,25.5C 46.8333,26.1667 44.1667,26.8333 41.5,27.5C 33.6871,27.8568 25.6871,27.8568 17.5,27.5C 16.506,26.0011 16.506,24.3344 17.5,22.5 Z"/></g>
<g><path style="opacity:1" fill="#1b71e0" d="M 35.5,25.5 C 36.8333,25.5 38.1667,25.5 39.5,25.5C 40.8595,27.0093 40.3595,27.676 38,27.5C 36.6244,27.3158 35.7911,26.6491 35.5,25.5 Z"/></g>
<g><path style="opacity:1" fill="#2f85c8" d="M 17.5,19.5 C 17.5,20.5 17.5,21.5 17.5,22.5C 16.506,24.3344 16.506,26.0011 17.5,27.5C 18.0998,28.8999 19.0998,29.8999 20.5,30.5C 18.412,31.9395 16.0786,32.6061 13.5,32.5C 12.7375,31.7321 11.7375,31.2321 10.5,31C 11.305,29.8873 11.9717,28.7206 12.5,27.5C 12.5,26.8333 12.5,26.1667 12.5,25.5C 13.1635,23.9581 13.8302,22.2914 14.5,20.5C 15.4168,19.8728 16.4168,19.5394 17.5,19.5 Z"/></g>
<g><path style="opacity:0.216" fill="#2da8ee" d="M 62.5,24.5 C 63.1776,28.2727 61.8442,31.106 58.5,33C 56.0844,33.6614 54.4177,35.1614 53.5,37.5C 51.5914,38.3482 49.5914,38.6816 47.5,38.5C 48.9575,36.9892 50.7908,35.9892 53,35.5C 54.6618,32.3507 56.4952,29.3507 58.5,26.5C 59.4916,26.6716 60.1583,26.3382 60.5,25.5C 61.1667,25.1667 61.8333,24.8333 62.5,24.5 Z"/></g>
<g><path style="opacity:0.945" fill="#e4e4e4" d="M 41.5,41.5 C 33.5,41.8333 33.5,42.1667 41.5,42.5C 42.1667,43.8333 42.8333,43.8333 43.5,42.5C 43.8333,42.5 44.1667,42.5 44.5,42.5C 45.1614,43.7175 45.8281,45.0508 46.5,46.5C 47.4287,45.3112 47.762,43.9778 47.5,42.5C 53.1385,41.2395 57.4718,42.9061 60.5,47.5C 40.1667,47.5 19.8333,47.5 -0.5,47.5C -0.5,47.1667 -0.5,46.8333 -0.5,46.5C 4.45631,42.8158 10.123,41.4825 16.5,42.5C 16.4226,43.7498 15.756,44.5831 14.5,45C 17.2538,45.2724 19.9205,45.7724 22.5,46.5C 25.8294,46.7363 28.8294,45.903 31.5,44C 30.0993,43.5899 28.766,43.0899 27.5,42.5C 27.5,42.1667 27.5,41.8333 27.5,41.5C 27.5,38.5 27.5,35.5 27.5,32.5C 27.5,31.5 27.5,30.5 27.5,29.5C 32.1667,29.5 36.8333,29.5 41.5,29.5C 41.5,33.5 41.5,37.5 41.5,41.5 Z"/></g>
<g><path style="opacity:1" fill="#160f5d" d="M 20.5,30.5 C 20.8333,30.5 21.1667,30.5 21.5,30.5C 21.5,34.1667 21.5,37.8333 21.5,41.5C 21.1583,42.3382 20.4916,42.6716 19.5,42.5C 19.5,41.8333 19.5,41.1667 19.5,40.5C 21.5045,35.1641 19.5045,33.1641 13.5,34.5C 13.5,33.8333 13.5,33.1667 13.5,32.5C 16.0786,32.6061 18.412,31.9395 20.5,30.5 Z"/></g>
<g><path style="opacity:1" fill="#adc8bf" d="M 58.5,26.5 C 56.4952,29.3507 54.6618,32.3507 53,35.5C 50.7908,35.9892 48.9575,36.9892 47.5,38.5C 46.5269,36.0521 46.1936,33.3854 46.5,30.5C 47.9305,30.4208 49.2638,30.7542 50.5,31.5C 52.3159,30.1851 53.9825,28.6851 55.5,27C 56.448,26.5172 57.448,26.3505 58.5,26.5 Z"/></g>
<g><path style="opacity:0.881" fill="#eaac10" d="M 5.5,29.5 C 6.49162,29.3284 7.15829,29.6618 7.5,30.5C 7.5,31.1667 7.83333,31.5 8.5,31.5C 8.5,31.8333 8.5,32.1667 8.5,32.5C 7.44272,33.206 7.77606,33.5393 9.5,33.5C 10.8333,33.1667 12.1667,32.8333 13.5,32.5C 13.5,33.1667 13.5,33.8333 13.5,34.5C 12.6618,34.8417 12.3284,35.5084 12.5,36.5C 8.16667,36.5 3.83333,36.5 -0.5,36.5C -0.5,35.8333 -0.5,35.1667 -0.5,34.5C 1.85684,34.6633 4.19018,34.4966 6.5,34C 4.45232,32.7741 4.11899,31.2741 5.5,29.5 Z"/></g>
<g><path style="opacity:1" fill="#7f6e6e" d="M 21.5,30.5 C 22.3213,33.6414 22.8213,36.9748 23,40.5C 23.1805,37.3054 23.6805,34.3054 24.5,31.5C 24.5,34.8333 24.5,38.1667 24.5,41.5C 25.5,41.5 26.5,41.5 27.5,41.5C 27.5,41.8333 27.5,42.1667 27.5,42.5C 26.5,42.5 25.5,42.5 24.5,42.5C 23.8826,42.6107 23.3826,42.944 23,43.5C 22.7216,42.5842 22.2216,41.9175 21.5,41.5C 21.5,37.8333 21.5,34.1667 21.5,30.5 Z"/></g>
<g><path style="opacity:1" fill="#1a1363" d="M 24.5,31.5 C 25.609,31.5569 26.609,31.8902 27.5,32.5C 27.5,35.5 27.5,38.5 27.5,41.5C 26.5,41.5 25.5,41.5 24.5,41.5C 24.5,38.1667 24.5,34.8333 24.5,31.5 Z"/></g>
<g><path style="opacity:0.78" fill="#a48f68" d="M 17.5,27.5 C 25.6871,27.8568 33.6871,27.8568 41.5,27.5C 44.2469,27.1866 46.9135,27.52 49.5,28.5C 48.3984,29.1757 47.3984,29.8423 46.5,30.5C 46.1936,33.3854 46.5269,36.0521 47.5,38.5C 47.5,39.8333 47.5,41.1667 47.5,42.5C 47.762,43.9778 47.4287,45.3112 46.5,46.5C 45.8281,45.0508 45.1614,43.7175 44.5,42.5C 44.1667,39.8333 43.8333,39.8333 43.5,42.5C 42.8333,43.8333 42.1667,43.8333 41.5,42.5C 41.5,42.1667 41.5,41.8333 41.5,41.5C 41.5,37.5 41.5,33.5 41.5,29.5C 36.8333,29.5 32.1667,29.5 27.5,29.5C 27.5,30.5 27.5,31.5 27.5,32.5C 26.609,31.8902 25.609,31.5569 24.5,31.5C 23.6805,34.3054 23.1805,37.3054 23,40.5C 22.8213,36.9748 22.3213,33.6414 21.5,30.5C 21.1667,30.5 20.8333,30.5 20.5,30.5C 19.0998,29.8999 18.0998,28.8999 17.5,27.5 Z"/></g>
<g><path style="opacity:1" fill="#beaa88" d="M 13.5,34.5 C 19.5045,33.1641 21.5045,35.1641 19.5,40.5C 18.1667,41.1667 18.1667,41.8333 19.5,42.5C 20.4916,42.6716 21.1583,42.3382 21.5,41.5C 22.2216,41.9175 22.7216,42.5842 23,43.5C 23.3826,42.944 23.8826,42.6107 24.5,42.5C 23.8333,43.8333 23.1667,45.1667 22.5,46.5C 19.9205,45.7724 17.2538,45.2724 14.5,45C 15.756,44.5831 16.4226,43.7498 16.5,42.5C 16.3426,39.6824 15.0092,37.6824 12.5,36.5C 12.3284,35.5084 12.6618,34.8417 13.5,34.5 Z"/></g>
<g><path style="opacity:1" fill="#efbc3e" d="M 24.5,42.5 C 25.5,42.5 26.5,42.5 27.5,42.5C 28.766,43.0899 30.0993,43.5899 31.5,44C 28.8294,45.903 25.8294,46.7363 22.5,46.5C 23.1667,45.1667 23.8333,43.8333 24.5,42.5 Z"/></g>
</svg>
