<?xml version="1.0" encoding="UTF-8"?>
<!DOCTYPE svg PUBLIC "-//W3C//DTD SVG 1.1//EN" "http://www.w3.org/Graphics/SVG/1.1/DTD/svg11.dtd">
<svg xmlns="http://www.w3.org/2000/svg" version="1.1" width="375px" height="375px" style="shape-rendering:geometricPrecision; text-rendering:geometricPrecision; image-rendering:optimizeQuality; fill-rule:evenodd; clip-rule:evenodd" xmlns:xlink="http://www.w3.org/1999/xlink">
<g><path style="opacity:0.995" fill="#393d45" d="M 144.5,-0.5 C 172.833,-0.5 201.167,-0.5 229.5,-0.5C 251.41,1.15304 273.077,4.98638 294.5,11C 326.407,21.5766 348.574,42.4099 361,73.5C 368.317,96.7526 372.817,120.419 374.5,144.5C 374.5,172.833 374.5,201.167 374.5,229.5C 372.817,253.581 368.317,277.247 361,300.5C 348.574,331.59 326.407,352.423 294.5,363C 273.077,369.014 251.41,372.847 229.5,374.5C 201.167,374.5 172.833,374.5 144.5,374.5C 122.59,372.847 100.923,369.014 79.5,363C 47.593,352.423 25.4263,331.59 13,300.5C 5.68284,277.247 1.18284,253.581 -0.5,229.5C -0.5,201.167 -0.5,172.833 -0.5,144.5C 1.18284,120.419 5.68284,96.7526 13,73.5C 25.4263,42.4099 47.593,21.5766 79.5,11C 100.923,4.98638 122.59,1.15304 144.5,-0.5 Z"/></g>
<g><path style="opacity:1" fill="#f6b301" d="M 222.5,182.5 C 221.207,181.842 219.707,181.508 218,181.5C 215.179,181.408 212.679,182.074 210.5,183.5C 205.356,185.467 200.856,188.467 197,192.5C 185.604,209.475 181.604,228.141 185,248.5C 187.841,263.846 194.175,277.512 204,289.5C 206.288,298.152 203.121,301.985 194.5,301C 180.079,290.555 170.245,276.722 165,259.5C 157.152,234.583 157.819,209.916 167,185.5C 168.829,181.172 171.162,177.172 174,173.5C 174.49,172.207 174.657,170.873 174.5,169.5C 165.142,170.002 155.808,170.835 146.5,172C 125.66,175.166 106.327,171.166 88.5,160C 67.5423,146.05 48.709,129.55 32,110.5C 29.3786,105.271 30.2119,100.771 34.5,97C 37.634,96.2099 40.634,96.5432 43.5,98C 62.9788,111.408 83.6455,122.741 105.5,132C 115.471,135.808 125.137,135.141 134.5,130C 147.294,120.546 160.627,111.879 174.5,104C 186.341,98.9221 198.674,97.2554 211.5,99C 232.131,102.869 250.131,111.869 265.5,126C 270.199,128.602 275.032,130.769 280,132.5C 280.833,132.167 281.667,131.833 282.5,131.5C 275.759,124.111 272.926,115.444 274,105.5C 278.693,103.947 283.193,104.447 287.5,107C 291.868,111.033 295.868,115.366 299.5,120C 304.446,121.806 309.112,124.139 313.5,127C 321.333,136.167 329.833,144.667 339,152.5C 339.26,166.912 332.427,172.412 318.5,169C 291.409,164.709 272.243,175.209 261,200.5C 260.145,206.877 258.145,212.877 255,218.5C 249.204,224.636 243.204,230.303 237,235.5C 234.812,235.646 233.479,234.646 233,232.5C 232.333,228.833 232.333,225.167 233,221.5C 234.888,216.055 237.555,211.055 241,206.5C 240.486,197.306 236.653,189.806 229.5,184C 227.26,183.023 224.927,182.523 222.5,182.5 Z"/></g>
<g><path style="opacity:1" fill="#8a6f2a" d="M 222.5,182.5 C 218.466,182.505 214.466,182.838 210.5,183.5C 212.679,182.074 215.179,181.408 218,181.5C 219.707,181.508 221.207,181.842 222.5,182.5 Z"/></g>
</svg>
