<?xml version="1.0" encoding="UTF-8"?>
<!DOCTYPE svg PUBLIC "-//W3C//DTD SVG 1.1//EN" "http://www.w3.org/Graphics/SVG/1.1/DTD/svg11.dtd">
<svg xmlns="http://www.w3.org/2000/svg" version="1.1" width="200px" height="236px" style="shape-rendering:geometricPrecision; text-rendering:geometricPrecision; image-rendering:optimizeQuality; fill-rule:evenodd; clip-rule:evenodd" xmlns:xlink="http://www.w3.org/1999/xlink">
<g><path style="opacity:1" fill="#ebebeb" d="M 139.5,33.5 C 112.833,34.8333 86.1667,34.8333 59.5,33.5C 86.1667,32.1667 112.833,32.1667 139.5,33.5 Z"/></g>
<g><path style="opacity:1" fill="#ededed" d="M 59.5,33.5 C 86.1667,34.8333 112.833,34.8333 139.5,33.5C 146.335,34.8328 150.835,38.8328 153,45.5C 153.667,93.1667 153.667,140.833 153,188.5C 150.835,195.167 146.335,199.167 139.5,200.5C 112.833,199.167 86.1667,199.167 59.5,200.5C 52.6653,199.167 48.1653,195.167 46,188.5C 45.3333,140.833 45.3333,93.1667 46,45.5C 48.1653,38.8328 52.6653,34.8328 59.5,33.5 Z"/></g>
<g><path style="opacity:1" fill="#fefefe" d="M 51.5,58.5 C 83.74,58.1709 115.907,58.5042 148,59.5C 148.83,98.0712 148.663,136.571 147.5,175C 115.262,175.829 83.095,175.662 51,174.5C 50.1734,135.762 50.34,97.0955 51.5,58.5 Z"/></g>
<g><path style="opacity:1" fill="#ebebeb" d="M 139.5,200.5 C 112.833,201.833 86.1667,201.833 59.5,200.5C 86.1667,199.167 112.833,199.167 139.5,200.5 Z"/></g>
</svg>
