<?xml version="1.0" encoding="UTF-8" standalone="no"?>
<svg
   xmlns:dc="http://purl.org/dc/elements/1.1/"
   xmlns:cc="http://creativecommons.org/ns#"
   xmlns:rdf="http://www.w3.org/1999/02/22-rdf-syntax-ns#"
   xmlns:svg="http://www.w3.org/2000/svg"
   xmlns="http://www.w3.org/2000/svg"
   xmlns:xlink="http://www.w3.org/1999/xlink"
   xmlns:sodipodi="http://sodipodi.sourceforge.net/DTD/sodipodi-0.dtd"
   xmlns:inkscape="http://www.inkscape.org/namespaces/inkscape"
   id="svg6333"
   height="64"
   width="64"
   version="1.1"
   sodipodi:docname="software-update-available.svg"
   inkscape:version="0.92.3 (2405546, 2018-03-11)">
  <sodipodi:namedview
     pagecolor="#ffffff"
     bordercolor="#666666"
     borderopacity="1"
     objecttolerance="10"
     gridtolerance="10"
     guidetolerance="10"
     inkscape:pageopacity="0"
     inkscape:pageshadow="2"
     inkscape:window-width="640"
     inkscape:window-height="480"
     id="namedview42"
     showgrid="false"
     inkscape:zoom="2"
     inkscape:cx="32"
     inkscape:cy="32"
     inkscape:current-layer="svg6333" />
  <defs
     id="defs6335">
    <linearGradient
       id="linearGradient872">
      <stop
         id="stop868"
         offset="0"
         style="stop-color:#ffa154;stop-opacity:1" />
      <stop
         id="stop870"
         offset="1"
         style="stop-color:#f37329;stop-opacity:1" />
    </linearGradient>
    <radialGradient
       r="62.769119"
       fy="185.29727"
       fx="99.189415"
       cy="185.29727"
       cx="99.189415"
       gradientTransform="matrix(0.3823536,7.5555777e-8,-1.8372241e-8,0.1115198,-5.9254271,36.335849)"
       gradientUnits="userSpaceOnUse"
       id="radialGradient3300"
       xlink:href="#linearGradient3820-7-2" />
    <linearGradient
       id="linearGradient3820-7-2">
      <stop
         offset="0"
         style="stop-color:#000000;stop-opacity:1"
         id="stop3822-2-6" />
      <stop
         offset="1"
         style="stop-color:#000000;stop-opacity:0"
         id="stop3824-1-2" />
    </linearGradient>
    <radialGradient
       r="62.769119"
       fy="185.29727"
       fx="99.189415"
       cy="185.29727"
       cx="99.189415"
       gradientTransform="matrix(0.2549024,5.3967361e-8,-1.2248161e-8,0.07965545,6.7163816,44.240666)"
       gradientUnits="userSpaceOnUse"
       id="radialGradient4192"
       xlink:href="#linearGradient3820-7-2" />
    <linearGradient
       x1="2035.1652"
       y1="3208.0737"
       x2="2035.1652"
       y2="3241.9966"
       id="linearGradient11527-6-5"
       xlink:href="#linearGradient872"
       gradientUnits="userSpaceOnUse"
       gradientTransform="matrix(2.2981394,0,0,1.7180801,-4653.4902,-5508.052)" />
    <linearGradient
       y2="40.495617"
       x2="71.204407"
       y1="15.100456"
       x1="71.204407"
       gradientTransform="matrix(2.3268746,0,0,2.3268746,-135.94475,-32.842783)"
       gradientUnits="userSpaceOnUse"
       id="linearGradient3293"
       xlink:href="#linearGradient4806" />
    <linearGradient
       id="linearGradient4806">
      <stop
         offset="0"
         style="stop-color:#ffffff;stop-opacity:1"
         id="stop4808" />
      <stop
         offset="0.42447853"
         style="stop-color:#ffffff;stop-opacity:0.23529412"
         id="stop4810" />
      <stop
         offset="0.82089913"
         style="stop-color:#ffffff;stop-opacity:0.15686275"
         id="stop4812" />
      <stop
         offset="1"
         style="stop-color:#ffffff;stop-opacity:0.39215687"
         id="stop4814" />
    </linearGradient>
  </defs>
  <metadata
     id="metadata6338">
    <rdf:RDF>
      <cc:Work
         rdf:about="">
        <dc:format>image/svg+xml</dc:format>
        <dc:type
           rdf:resource="http://purl.org/dc/dcmitype/StillImage" />
        <dc:title />
      </cc:Work>
    </rdf:RDF>
  </metadata>
  <g
     id="g4198">
    <path
       inkscape:connector-curvature="0"
       style="opacity:0.2;fill:url(#radialGradient3300);fill-opacity:1;stroke:none"
       id="path3818-0"
       d="m 55.999998,57.0017 a 24,6.9985714 0 1 1 -47.9999991,0 24,6.9985714 0 1 1 47.9999991,0 z" />
    <path
       inkscape:connector-curvature="0"
       d="m 47.999998,59.0017 a 16,4.9988822 0 1 1 -31.999999,0 16,4.9988822 0 1 1 31.999999,0 z"
       id="path4190"
       style="opacity:0.4;fill:url(#radialGradient4192);fill-opacity:1;stroke:none" />
  </g>
  <path
     sodipodi:type="star"
     style="opacity:0.98999999;vector-effect:none;fill:url(#linearGradient11527-6-5);fill-opacity:1;stroke:none;stroke-width:0.99999994;stroke-linecap:butt;stroke-linejoin:miter;stroke-miterlimit:4;stroke-dasharray:none;stroke-dashoffset:0;stroke-opacity:1;marker:none;paint-order:normal"
     id="path981-5"
     sodipodi:sides="20"
     sodipodi:cx="32"
     sodipodi:cy="32"
     sodipodi:r1="30.999998"
     sodipodi:r2="26.846785"
     sodipodi:arg1="0.52359878"
     sodipodi:arg2="0.68067841"
     inkscape:flatsided="false"
     inkscape:rounded="0"
     inkscape:randomized="0"
     d="m 58.846786,47.499999 -5.982916,1.39523 -0.120823,6.142259 -6.12124,-0.52188 -2.012972,5.804299 -5.660376,-2.387904 -3.708077,4.898174 -4.645434,-4.020185 -5.04021,3.512582 -3.175765,-5.258941 -5.878972,1.783153 -1.39523,-5.982916 -6.1422593,-0.120823 0.5218802,-6.12124 -5.8042994,-2.012972 2.3879049,-5.660376 -4.8981743,-3.708077 4.0201849,-4.645434 -3.5125817,-5.04021 5.2589411,-3.175765 -1.7831532,-5.878972 5.9829158,-1.39523 0.120823,-6.1422593 6.12124,0.5218802 2.012972,-5.8042994 5.660376,2.3879049 3.708077,-4.8981743 4.645434,4.0201849 5.04021,-3.5125817 3.175765,5.2589411 5.878972,-1.7831532 1.39523,5.9829158 6.142259,0.120823 -0.52188,6.12124 5.804299,2.012972 -2.387904,5.660376 4.898174,3.708077 -4.020185,4.645434 3.512582,5.04021 -5.258941,3.175765 z" />
  <path
     style="color:#000000;display:inline;overflow:visible;visibility:visible;opacity:0.05;fill:#a62100;fill-opacity:1;fill-rule:nonzero;stroke:none;stroke-width:1.00000012px;marker:none;enable-background:accumulate"
     id="path4244"
     d="m 32,14.03125 c -8.62952,0 -15.901079,5.784032 -18.187499,13.6875 a 0.95694401,0.95694401 0 0 0 0.90625,1.25 h 4.21875 a 0.95694401,0.95694401 0 0 0 0.90625,-0.625 c 1.879412,-4.893391 6.593493,-8.375 12.156249,-8.375 3.248719,0 6.156986,1.244945 8.4375,3.21875 l -4.125,4.125 A 0.95694401,0.95694401 0 0 0 37,28.96875 H 45.0625 49.28125 50 A 0.95694401,0.95694401 0 0 0 50.96875,28 V 15 A 0.95694401,0.95694401 0 0 0 49.3125,14.3125 l -4.65625,4.65625 C 41.299408,15.934387 36.8778,14.03125 32,14.03125 Z m -17.999999,23 A 0.95694401,0.95694401 0 0 0 13.03125,38 v 13 a 0.95694401,0.95694401 0 0 0 1.656251,0.6875 l 4.65625,-4.65625 c 3.356842,3.034363 7.778449,4.9375 12.656249,4.9375 8.62952,0 15.90108,-5.784032 18.1875,-13.6875 a 0.95694401,0.95694401 0 0 0 -0.90625,-1.25 H 45.0625 a 0.95694401,0.95694401 0 0 0 -0.90625,0.625 c -1.879412,4.893391 -6.593494,8.375 -12.15625,8.375 -3.248719,0 -6.156986,-1.244945 -8.4375,-3.21875 l 4.125,-4.125 A 0.95694401,0.95694401 0 0 0 27,37.03125 Z" />
  <path
     style="color:#000000;display:inline;overflow:visible;visibility:visible;opacity:0.15;fill:#a62100;fill-opacity:1;fill-rule:nonzero;stroke:none;stroke-width:1.00000012px;marker:none;enable-background:accumulate"
     id="path3178-4"
     d="m 32,15 c -8.201968,0 -15.110788,5.497368 -17.281249,13 h 4.21875 C 20.955105,22.746801 26.036462,19 32,19 c 3.862133,0 7.34544,1.590602 9.875,4.125 L 37,28 H 45.0625 49.28125 50 V 15 l -5.28125,5.28125 C 41.465141,17.022881 36.968537,15 32,15 Z M 14.000001,38 v 13 l 5.28125,-5.28125 C 22.53486,48.977119 27.031463,51 32,51 40.201968,51 47.110789,45.502632 49.28125,38 H 45.0625 C 43.044896,43.253199 37.963538,47 32,47 28.137867,47 24.65456,45.409398 22.125001,42.875 L 27,38 Z" />
  <path
     style="color:#000000;display:inline;overflow:visible;visibility:visible;opacity:1;fill:#fafafa;fill-opacity:1;fill-rule:nonzero;stroke:none;stroke-width:1.00000012px;marker:none;enable-background:accumulate"
     id="path3178"
     d="m 32,14 c -8.201968,0 -15.110788,5.497368 -17.281249,13 h 4.21875 C 20.955105,21.746801 26.036462,18 32,18 c 3.862133,0 7.34544,1.590602 9.875,4.125 L 37,27 H 45.0625 49.28125 50 V 14 l -5.28125,5.28125 C 41.465141,16.022881 36.968537,14 32,14 Z M 14.000001,37 v 13 l 5.28125,-5.28125 C 22.53486,47.977119 27.031463,50 32,50 40.201968,50 47.110789,44.502632 49.28125,37 H 45.0625 C 43.044896,42.253199 37.963538,46 32,46 28.137867,46 24.65456,44.409398 22.125001,41.875 L 27,37 Z" />
  <path
     sodipodi:type="star"
     style="opacity:0.5;vector-effect:none;fill:none;fill-opacity:1;stroke:#a62100;stroke-width:1;stroke-linecap:round;stroke-linejoin:round;stroke-miterlimit:4;stroke-dasharray:none;stroke-dashoffset:0;stroke-opacity:1;marker:none;paint-order:normal"
     id="path981"
     sodipodi:sides="20"
     sodipodi:cx="32"
     sodipodi:cy="32"
     sodipodi:r1="31.000031"
     sodipodi:r2="26.846811"
     sodipodi:arg1="0.52359878"
     sodipodi:arg2="0.68067841"
     inkscape:flatsided="false"
     inkscape:rounded="0"
     inkscape:randomized="0"
     d="m 58.846814,47.500015 -5.982923,1.395231 -0.120822,6.142266 -6.121248,-0.521881 -2.012973,5.804306 -5.660382,-2.387909 -3.708081,4.898181 -4.645439,-4.02019 -5.040215,3.512586 -3.175768,-5.258947 -5.878978,1.783156 L 15.104754,52.863891 8.9624876,52.743069 9.4843695,46.621821 3.6800629,44.608848 6.0679716,38.948466 1.1697909,35.240385 5.1899813,30.594946 1.6773946,25.554731 6.9363425,22.378963 5.1531861,16.499985 l 5.9829229,-1.395231 0.120822,-6.1422664 6.121248,0.5218819 2.012973,-5.8043066 5.660382,2.3879087 3.708081,-4.8981807 4.645439,4.0201904 5.040215,-3.5125867 3.175768,5.2589479 5.878978,-1.7831564 1.395231,5.9829229 6.142266,0.120822 -0.521881,6.121248 5.804306,2.012973 -2.387909,5.660382 4.898181,3.708081 -4.02019,4.645439 3.512586,5.040215 -5.258947,3.175768 z" />
  <path
     sodipodi:type="inkscape:offset"
     inkscape:radius="-1.0051395"
     inkscape:original="M 28.759766 1.1699219 L 25.050781 6.0683594 L 19.390625 3.6796875 L 17.378906 9.484375 L 11.257812 8.9628906 L 11.136719 15.105469 L 5.1523438 16.5 L 6.9355469 22.378906 L 1.6777344 25.554688 L 5.1894531 30.595703 L 1.1699219 35.240234 L 6.0683594 38.949219 L 3.6796875 44.609375 L 9.484375 46.621094 L 8.9628906 52.742188 L 15.105469 52.863281 L 16.5 58.847656 L 22.378906 57.064453 L 25.554688 62.322266 L 30.595703 58.810547 L 35.240234 62.830078 L 38.949219 57.931641 L 44.609375 60.320312 L 46.621094 54.515625 L 52.742188 55.037109 L 52.863281 48.894531 L 58.847656 47.5 L 57.064453 41.621094 L 62.322266 38.445312 L 58.810547 33.404297 L 62.830078 28.759766 L 57.931641 25.050781 L 60.320312 19.390625 L 54.515625 17.378906 L 55.037109 11.257812 L 48.894531 11.136719 L 47.5 5.1523438 L 41.621094 6.9355469 L 38.445312 1.6777344 L 33.404297 5.1894531 L 28.759766 1.1699219 z "
     style="opacity:0.3;vector-effect:none;fill:none;fill-opacity:1;stroke:url(#linearGradient3293);stroke-width:0.99999997;stroke-linecap:round;stroke-linejoin:round;stroke-miterlimit:4;stroke-dasharray:none;stroke-dashoffset:0;stroke-opacity:1;marker:none;paint-order:normal;font-variant-east_asian:normal"
     id="path981-9"
     d="m 28.914062,2.6328125 -3.0625,4.0429687 A 1.00524,1.00524 0 0 1 24.660156,6.9941406 L 19.988281,5.0234375 18.328125,9.8144531 A 1.00524,1.00524 0 0 1 17.292969,10.486328 L 12.242188,10.056641 12.142578,15.125 a 1.00524,1.00524 0 0 1 -0.777344,0.958984 l -4.9414059,1.150391 1.4726563,4.853516 a 1.00524,1.00524 0 0 1 -0.4414063,1.152343 l -4.3398437,2.621094 2.8984375,4.160156 a 1.00524,1.00524 0 0 1 -0.064453,1.232422 l -3.3164063,3.832032 4.0429687,3.0625 a 1.00524,1.00524 0 0 1 0.3183594,1.191406 l -1.9707031,4.671875 4.7910156,1.660156 a 1.00524,1.00524 0 0 1 0.6718749,1.035156 l -0.429687,5.050781 5.068359,0.09961 a 1.00524,1.00524 0 0 1 0.958984,0.777344 l 1.150391,4.941406 4.853516,-1.472656 a 1.00524,1.00524 0 0 1 1.152343,0.441406 l 2.621094,4.339844 4.160156,-2.898438 a 1.00524,1.00524 0 0 1 1.232422,0.06445 l 3.832032,3.316407 3.0625,-4.042969 a 1.00524,1.00524 0 0 1 1.191406,-0.31836 l 4.671875,1.970703 1.660156,-4.791015 a 1.00524,1.00524 0 0 1 1.035156,-0.671875 l 5.050781,0.429687 0.09961,-5.068359 a 1.00524,1.00524 0 0 1 0.777344,-0.958984 l 4.941406,-1.150391 -1.472656,-4.853516 a 1.00524,1.00524 0 0 1 0.441406,-1.152343 l 4.339844,-2.621094 -2.898438,-4.160156 a 1.00524,1.00524 0 0 1 0.06445,-1.232422 l 3.316407,-3.832032 -4.042969,-3.0625 a 1.00524,1.00524 0 0 1 -0.31836,-1.191406 l 1.970703,-4.671875 -4.791015,-1.660156 A 1.00524,1.00524 0 0 1 53.513672,17.292969 L 53.943359,12.242188 48.875,12.142578 A 1.00524,1.00524 0 0 1 47.916016,11.365234 L 46.765625,6.4238281 41.912109,7.8964844 A 1.00524,1.00524 0 0 1 40.759766,7.4550781 L 38.138672,3.1152344 33.978516,6.0136719 a 1.00524,1.00524 0 0 1 -1.232422,-0.064453 z" />
</svg>
