<?xml version="1.0" encoding="UTF-8" standalone="no"?>
<svg
   xmlns:dc="http://purl.org/dc/elements/1.1/"
   xmlns:cc="http://creativecommons.org/ns#"
   xmlns:rdf="http://www.w3.org/1999/02/22-rdf-syntax-ns#"
   xmlns:svg="http://www.w3.org/2000/svg"
   xmlns="http://www.w3.org/2000/svg"
   version="1.1"
   width="16"
   height="16"
   id="svg4372">
  <defs
     id="defs4374" />
  <metadata
     id="metadata4377">
    <rdf:RDF>
      <cc:Work
         rdf:about="">
        <dc:format>image/svg+xml</dc:format>
        <dc:type
           rdf:resource="http://purl.org/dc/dcmitype/StillImage" />
        <dc:title />
      </cc:Work>
    </rdf:RDF>
  </metadata>
  <path
     style="color:#000000;display:inline;overflow:visible;visibility:visible;opacity:1;fill:none;stroke:#666666;stroke-width:1;stroke-linecap:round;stroke-linejoin:round;stroke-miterlimit:4;stroke-dasharray:none;stroke-dashoffset:0;stroke-opacity:1;marker:none;enable-background:accumulate"
     d="m 2.5,1.5 c -0.554,0 -1,0.446 -1,1 v 8 h 13 v -8 c 0,-0.554 -0.446,-1 -1,-1 z"
     id="rect5505-21-2-8" />
  <path
     style="color:#000000;clip-rule:nonzero;display:inline;overflow:visible;visibility:visible;opacity:0.25;isolation:auto;mix-blend-mode:normal;color-interpolation:sRGB;color-interpolation-filters:linearRGB;solid-color:#000000;solid-opacity:1;fill:#666666;fill-opacity:1;fill-rule:nonzero;stroke:none;stroke-width:1;stroke-linecap:round;stroke-linejoin:round;stroke-miterlimit:4;stroke-dasharray:none;stroke-dashoffset:0;stroke-opacity:1;marker:none;color-rendering:auto;image-rendering:auto;shape-rendering:auto;text-rendering:auto;enable-background:accumulate"
     d="m 1.5,10.5 13,0 c 0.300901,0.642857 0.613819,1.142857 1,2 l 0,1.5 c 0,0.422041 -2.190347,0.5 -3.5,0.5 l -8,0 C 2.697554,14.5 0.5,14.420846 0.5,14 l 0,-1.5 c 0.36988102,-0.857143 0.6826593,-1.357143 1,-2 z"
     id="path4232" />
  <path
     style="color:#000000;clip-rule:nonzero;display:inline;overflow:visible;visibility:visible;opacity:1;isolation:auto;mix-blend-mode:normal;color-interpolation:sRGB;color-interpolation-filters:linearRGB;solid-color:#000000;solid-opacity:1;fill:#666666;fill-opacity:1;fill-rule:nonzero;stroke:none;stroke-width:0.99999988;stroke-linecap:butt;stroke-linejoin:miter;stroke-miterlimit:4;stroke-dasharray:none;stroke-dashoffset:0;stroke-opacity:1;marker:none;color-rendering:auto;image-rendering:auto;shape-rendering:auto;text-rendering:auto;enable-background:accumulate"
     d="m 3.5,11 h 9 L 13,13 H 3 Z"
     id="rect4393" />
  <path
     id="rect5505-21-3-8-9-1-1"
     d="m 1.5,10.5 h 13 c 0.316022,0.642857 0.614726,1.642857 1,2.5 l 0.0058,1.21339 C 15.5066,14.448406 13.428344,14.5 12.118691,14.5 H 3.8928548 c -1.302446,0 -3.38631665,-0.0504 -3.38710901,-0.285415 L 0.5,13 c 0.41435376,-0.86166 0.6732325,-1.857143 1,-2.5 z"
     style="color:#000000;clip-rule:nonzero;display:inline;overflow:visible;visibility:visible;opacity:1;isolation:auto;mix-blend-mode:normal;color-interpolation:sRGB;color-interpolation-filters:linearRGB;solid-color:#000000;solid-opacity:1;fill:none;fill-opacity:1;fill-rule:nonzero;stroke:#666666;stroke-width:1;stroke-linecap:round;stroke-linejoin:round;stroke-miterlimit:4;stroke-dasharray:none;stroke-dashoffset:0;stroke-opacity:1;marker:none;color-rendering:auto;image-rendering:auto;shape-rendering:auto;text-rendering:auto;enable-background:accumulate" />
  <rect
     style="opacity:0.25;fill:#666666;fill-opacity:1;stroke:none;stroke-width:0.5;stroke-linecap:square;stroke-opacity:1"
     id="rect856"
     width="4"
     height="1"
     x="6"
     y="13"
     rx="0.5"
     ry="0.5" />
</svg>
