<?xml version="1.0" encoding="UTF-8" standalone="no"?>
<!-- Created with Inkscape (http://www.inkscape.org/) -->
<svg id="svg2" xmlns:rdf="http://www.w3.org/1999/02/22-rdf-syntax-ns#" xmlns="http://www.w3.org/2000/svg" height="128" width="128" version="1.0" xmlns:cc="http://web.resource.org/cc/" xmlns:xlink="http://www.w3.org/1999/xlink" xmlns:dc="http://purl.org/dc/elements/1.1/">
 <metadata id="metadata170">
  <rdf:RDF>
   <cc:Work rdf:about="">
    <dc:format>image/svg+xml</dc:format>
    <dc:type rdf:resource="http://purl.org/dc/dcmitype/StillImage"/>
   </cc:Work>
  </rdf:RDF>
 </metadata>
 <defs id="defs4">
  <linearGradient id="linearGradient3377">
   <stop id="stop3379" stop-color="#00339e" offset="0"/>
   <stop id="stop3387" stop-color="#0062c8" offset=".32431"/>
   <stop id="stop3381" stop-color="#4fb0ec" offset="1"/>
  </linearGradient>
  <filter id="filter3210">
   <feGaussianBlur id="feGaussianBlur3212" stdDeviation="0.48975825"/>
  </filter>
  <filter id="filter3283">
   <feGaussianBlur id="feGaussianBlur3285" stdDeviation="0.29866253"/>
  </filter>
  <filter id="filter3425">
   <feGaussianBlur id="feGaussianBlur3427" stdDeviation="0.30246456"/>
  </filter>
  <filter id="filter3437">
   <feGaussianBlur id="feGaussianBlur3439" stdDeviation="0.90128066"/>
  </filter>
  <linearGradient id="linearGradient3947" y2="307.61" gradientUnits="userSpaceOnUse" x2="127.95" gradientTransform="matrix(.38177 0 0 .38177 445.32 231.28)" y1="77.207" x1="127.95">
   <stop id="stop563" stop-color="#3c3" offset="0"/>
   <stop id="stop564" stop-color="#366" offset="1"/>
  </linearGradient>
  <linearGradient id="linearGradient3949" y2="307.36" gradientUnits="userSpaceOnUse" x2="127.95" gradientTransform="matrix(.38177 0 0 .38177 445.32 231.28)" y1="77.367" x1="127.95">
   <stop id="stop570" stop-color="#cf6" offset=".0056"/>
   <stop id="stop571" stop-color="#090" offset="1"/>
  </linearGradient>
  <radialGradient id="radialGradient2330" gradientUnits="userSpaceOnUse" cy="19.631" cx="36.255" gradientTransform="matrix(1.0733 -6.0093e-8 6.8393e-8 1.2215 -2.656 -4.3434)" r="7.3534">
   <stop id="stop3255" stop-color="#fff" offset="0"/>
   <stop id="stop3257" stop-color="#fff" stop-opacity=".5" offset="1"/>
  </radialGradient>
  <linearGradient id="linearGradient2333" y2="244.68" gradientUnits="userSpaceOnUse" x2="352.78" gradientTransform="translate(-304.57 -234.08)" y1="258.97" x1="351.29">
   <stop id="stop3240" stop-color="#21b933" offset="0"/>
   <stop id="stop3246" stop-color="#35cd35" offset=".15053"/>
   <stop id="stop3242" stop-color="#d2ffd1" offset="1"/>
  </linearGradient>
  <linearGradient id="linearGradient2336" y2="249.71" gradientUnits="userSpaceOnUse" x2="350.66" gradientTransform="translate(-304.57 -234.08)" y1="264.18" x1="350.66">
   <stop id="stop3230" stop-color="#037806" offset="0"/>
   <stop id="stop3232" stop-color="#39b71d" offset="1"/>
  </linearGradient>
  <linearGradient id="linearGradient2339" y2="16.662" gradientUnits="userSpaceOnUse" x2="63.776" y1="16.662" x1="30.422">
   <stop id="stop3218" stop-color="#306266" offset="0"/>
   <stop id="stop3224" stop-color="#026404" offset=".5"/>
   <stop id="stop3220" stop-color="#002931" offset="1"/>
  </linearGradient>
  <linearGradient id="linearGradient2343" y2="305.46" gradientUnits="userSpaceOnUse" x2="405.43" gradientTransform="matrix(1.1788 0 0 1.1788 -376.91 -289.07)" y1="317.2" x1="409.9">
   <stop id="stop3348" stop-color="#fff" offset="0"/>
   <stop id="stop3350" stop-color="#b5daff" offset="1"/>
  </linearGradient>
  <linearGradient id="linearGradient2346" y2="257.7" xlink:href="#linearGradient3377" gradientUnits="userSpaceOnUse" x2="385.93" gradientTransform="translate(-304.57 -234.08)" y1="339.33" x1="350.34"/>
  <linearGradient id="linearGradient2352" y2="70.443" gradientUnits="userSpaceOnUse" x2="100.08" y1="85.691" x1="105.23">
   <stop id="stop3340" stop-color="#fff" offset="0"/>
   <stop id="stop3342" stop-color="#d0e9ff" offset="1"/>
  </linearGradient>
  <linearGradient id="linearGradient2355" y2="28.459" gradientUnits="userSpaceOnUse" x2="55.679" y1="94.561" x1="55.679">
   <stop id="stop3610" stop-color="#a166d7" offset="0"/>
   <stop id="stop3612" stop-color="#fc76fd" offset="1"/>
  </linearGradient>
  <linearGradient id="linearGradient2360" y2="264.79" gradientUnits="userSpaceOnUse" x2="366.64" gradientTransform="translate(-304.57 -234.08)" y1="332.65" x1="354.4">
   <stop id="stop3332" stop-color="#badeff" offset="0"/>
   <stop id="stop3334" stop-color="#fff" offset="1"/>
  </linearGradient>
  <linearGradient id="linearGradient2363" y2="28.659" gradientUnits="userSpaceOnUse" x2="47.893" y1="101.58" x1="47.893">
   <stop id="stop3326" stop-color="#e3effa" offset="0"/>
   <stop id="stop3328" stop-color="#fff" offset="1"/>
  </linearGradient>
  <linearGradient id="linearGradient2367" y2="25.053" gradientUnits="userSpaceOnUse" x2="62.709" y1="95.051" x1="80.626">
   <stop id="stop3642" stop-color="#ffdc8b" offset="0"/>
   <stop id="stop3644" stop-color="#ffecb8" offset="1"/>
  </linearGradient>
  <linearGradient id="linearGradient2370" y2="22.031" gradientUnits="userSpaceOnUse" x2="12.753" y1="107.47" x1="42.926">
   <stop id="stop3204" stop-color="#fff" offset="0"/>
   <stop id="stop3206" stop-color="#fff" stop-opacity=".5" offset="1"/>
  </linearGradient>
  <linearGradient id="linearGradient2373" y2="245.74" gradientUnits="userSpaceOnUse" x2="365.23" gradientTransform="translate(-304.57 -234.08)" y1="319.77" x1="399.44">
   <stop id="stop3196" stop-color="#febf2d" offset="0"/>
   <stop id="stop3198" stop-color="#fff0c3" offset="1"/>
  </linearGradient>
  <linearGradient id="linearGradient2376" y2="291.78" gradientUnits="userSpaceOnUse" x2="362.7" gradientTransform="translate(-304.57 -234.08)" y1="347.77" x1="342.52">
   <stop id="stop3188" stop-color="#ffec2d" offset="0"/>
   <stop id="stop3190" stop-color="#ff6d00" offset="1"/>
  </linearGradient>
  <linearGradient id="linearGradient2379" y2="17.886" gradientUnits="userSpaceOnUse" x2="77.453" y1="117.11" x1="40.437">
   <stop id="stop3172" stop-color="#820000" offset="0"/>
   <stop id="stop3174" stop-color="#fe3200" offset="1"/>
  </linearGradient>
  <radialGradient id="radialGradient3362" gradientUnits="userSpaceOnUse" cy="258.95" cx="515.44" gradientTransform="matrix(-.68912 0 .0000012875 -.66403 464.01 207.53)" r="30.028">
   <stop id="stop3931" stop-color="#ceff67" offset="0"/>
   <stop id="stop3933" stop-color="#ceff67" stop-opacity="0" offset="1"/>
  </radialGradient>
  <radialGradient id="radialGradient3365" gradientUnits="userSpaceOnUse" cy="101.16" cx="57.085" gradientTransform="matrix(.32762 0 0 .24565 50.307 15.987)" r="120.81">
   <stop id="stop3917" stop-color="#fff" offset="0"/>
   <stop id="stop3919" stop-color="#82d655" offset="1"/>
  </radialGradient>
  <linearGradient id="linearGradient3370" y2="212.99" gradientUnits="userSpaceOnUse" x2="127.95" gradientTransform="matrix(.31444 0 0 .31444 51.06 9.0285)" y1="47.327" x1="127.95">
   <stop id="stop556" stop-color="#090" offset="0"/>
   <stop id="stop557" stop-color="#334966" offset="1"/>
  </linearGradient>
  <filter id="filter3315">
   <feGaussianBlur id="feGaussianBlur3317" stdDeviation="0.32406465"/>
  </filter>
  <filter id="filter5261">
   <feGaussianBlur id="feGaussianBlur5263" stdDeviation="0.30019291"/>
  </filter>
  <filter id="filter6238">
   <feGaussianBlur id="feGaussianBlur6240" stdDeviation="1.9093925"/>
  </filter>
 </defs>
 <path id="path3441" opacity=".5" d="m4.7992 37.98l26.614 74.64c1.789 5.02 6.689 7.86 13.687 6.69l68.43-11.38c7.66-1.27 11.04-14.323 8.44-19.723l-30.211-62.678c-3.436-7.128-9.801-11.791-20.841-10.732l-55.913 5.366c-2.554 0.245-6.6322 2.155-8.0249 6.029l-1.621 4.508c-1.0641 2.959-1.5053 4.628-0.5599 7.28z" fill-rule="evenodd"/>
 <path id="path2396" d="m3.8693 36.247l26.615 74.643c1.788 5.02 6.688 7.85 13.686 6.69l68.43-11.38c7.66-1.27 11.04-14.326 8.44-19.726l-30.211-62.678c-3.436-7.128-9.801-11.791-20.841-10.732l-55.913 5.366c-2.554 0.245-6.6321 2.155-8.0248 6.029l-1.621 4.508c-1.0641 2.96-1.5053 4.628-0.5599 7.28z" fill-rule="evenodd" fill="url(#linearGradient2379)"/>
 <path id="path3168" d="m7.565 38.079l25.096 71.191c1.659 4.71 4.483 6.14 11.037 5.03l68.252-11.6c6.4-1.09 7.73-11.998 6.35-14.831l-31.422-64.646c-2.116-4.354-6.475-8.535-16.822-7.555l-53.367 5.055c-2.515 0.238-6.7731 0.614-8.2625 4.66l-1.8489 5.022c-1.0182 2.766 0.1104 5.186 0.9874 7.674z" fill-rule="evenodd" fill="url(#linearGradient2376)"/>
 <path id="path3178" d="m34.861 101.14c1.878 6.68 6.412 7.24 14.886 5.79l63.963-10.939c6.39-1.094 5.97-5.289 4.59-8.122l-31.422-64.646c-1.933-3.348-6.475-8.535-16.822-7.555l-53.367 5.055c-1.86 0.176-4.675 0.428-6.617 2.185-0.6828 0.618-1.8391 2.693-0.9856 5.114l25.775 73.118z" fill-rule="evenodd" fill="url(#linearGradient2373)"/>
 <path id="path3182" d="m11.312 22.031c-0.438 0.241-0.865 0.528-1.25 0.875-0.6826 0.618-1.8217 2.704-0.9682 5.125l25.781 73.089c1.879 6.69 6.401 7.27 14.875 5.82l63.97-10.94c4.38-0.749 5.54-2.965 5.4-5.188-0.8 1.001-2.21 1.822-4.53 2.219l-63.965 10.939c-8.473 1.45-12.996 0.87-14.875-5.814l-25.125-71.344c-0.7363-2.092 0.026-3.922 0.687-4.781z" fill-rule="evenodd" filter="url(#filter3210)" fill="url(#linearGradient2370)"/>
 <path id="path3630" d="m113.42 89.888l-35.527-69.086-61.95 5.314 24.902 75.614 72.575-11.842z" fill-rule="evenodd" fill="url(#linearGradient2367)"/>
 <path id="path3433" opacity=".5" d="m82.117 23.733l-62.343 2.375c-0.473 0.016-0.917 0.237-1.188 0.625-0.27 0.387-0.335 0.895-0.187 1.344l25.687 77.123c0.765 2.3 3.092 3.73 5.25 3.13l58.934-16.472c0.53-0.159 0.92-0.59 1.03-1.125l4.5-20.875c0.1-0.423 0.01-0.868-0.25-1.219-10.33-14.33-20.027-29.655-30.12-44.281-0.301-0.421-0.797-0.657-1.313-0.625z" fill-rule="evenodd" filter="url(#filter3437)"/>
 <path id="path3287" d="m20.374 26.284l60.345-2.799c10.071 14.593 19.781 29.186 29.511 43.779l-4.7 20.136-58.716 15.72-26.44-76.836z" fill-rule="evenodd" fill="url(#linearGradient2363)"/>
 <path id="path3312" d="m22.656 26.562l57.502-2.165c9.466 13.717 18.75 28.679 27.902 42.396l-3.8 18.15-55.195 14.773-26.409-73.154z" fill-rule="evenodd" fill="url(#linearGradient2360)"/>
 <path id="path3557" d="m25.068 33.201l58.418-3.612m-56.006 9.94l59.333-5.06m-57.076 11.388l60.249-6.507m-57.838 13.302l61.165-7.955m-56.185 21.7l62.992-10.85m-60.114 18.423l63.914-12.298m-58.547 20.492l56.117-11.897m-53.004 21.287l57.554-14.367m-71.324-17.896l62.081-9.402" stroke="#3769e6" stroke-width=".5" fill="none"/>
 <path id="path3398" opacity=".25" d="m109.44 65.539l-16.47 3.219c-0.176 0.031-0.332 0.119-0.406 0.281-0.075 0.162-0.059 0.377 0.031 0.531l11.435 19.156 0.94-0.531 4.69-21.562-0.22-1.094z" fill-rule="evenodd" filter="url(#filter3425)"/>
 <path id="path3598" d="m30.875 28.125l-2.031 0.063-0.063 0.031 26.938 68.062 1.906-0.531-26.75-67.625z" fill-rule="evenodd" fill="url(#linearGradient2355)"/>
 <path id="path3293" d="m94.872 70.143l15.358-2.879-4.88 20.853-10.478-17.974z" fill-rule="evenodd" fill="url(#linearGradient2352)"/>
 <path id="path3375" d="m81.188 22l-62.344 2.375c-0.473 0.016-0.917 0.238-1.188 0.625-0.27 0.387-0.335 0.895-0.187 1.344l25.687 77.126c0.765 2.3 3.092 3.73 5.25 3.12l58.934-16.465c0.53-0.159 0.92-0.59 1.04-1.125l4.5-20.875c0.09-0.423 0-0.868-0.26-1.219-10.33-14.33-20.026-29.655-30.12-44.281-0.301-0.421-0.797-0.657-1.312-0.625zm-0.469 1.5c10.07 14.593 19.801 29.157 29.531 43.75l-4.72 20.156h-0.03l-0.16 0.719-0.34-0.594-58.188 15.589-26.437-76.839 60.344-2.781z" fill-rule="evenodd" fill="url(#linearGradient2346)"/>
 <path id="path3393" d="m110.38 66l-16.474 3.219c-0.175 0.031-0.331 0.119-0.406 0.281s-0.059 0.377 0.031 0.531l11.439 19.157 0.94-0.532-11.035-18.531 15.715-3.031-0.21-1.094z" fill-rule="evenodd" fill="url(#linearGradient2346)"/>
 <path id="path3299" d="m109.95 68.465l-13.044 2.504 8.964 14.965 4.08-17.469z" fill-rule="evenodd" fill="url(#linearGradient2343)"/>
 <path id="path3279" opacity=".5" d="m30.13 16.961c7.052-8.4096 17.965-9.9958 25.103-5.547 1.557 0.959 13.561 8.62 9.665 15.783-2.266 4.166-8.884 4.801-15.362 5.608-8.868 1.105-10.209-0.445-11.753-1.703-3.391-2.766-6.435-9.472-7.653-14.141z" fill-rule="evenodd" filter="url(#filter3283)"/>
 <path id="path3214" d="m29.507 16.205c7.052-8.4099 17.965-9.996 25.104-5.547 1.557 0.959 13.561 8.619 9.664 15.783-2.266 4.166-8.884 4.801-15.361 5.608-8.869 1.105-10.21-0.445-11.753-1.704-3.392-2.765-6.436-9.471-7.654-14.14z" fill-rule="evenodd" fill="url(#linearGradient2339)"/>
 <path id="path3226" d="m31.123 15.947c6.267-7.4733 16.365-8.5397 22.708-4.586 1.384 0.852 11.546 8.034 8.588 14.025-2.296 4.652-20.155 6.693-24.007 3.773-4.57-3.464-6.207-9.063-7.289-13.212z" fill-rule="evenodd" fill="url(#linearGradient2336)"/>
 <path id="path3236" d="m33.539 14.895c4.474-4.712 12.393-6.9233 20.007-3.248 1.383 0.852 10.402 8.187 5.099 12.252-3.382 2.594-14.836 4.496-18.357 2.449-4.199-2.441-6.932-7.661-6.749-11.453z" fill-rule="evenodd" fill="url(#linearGradient2333)"/>
 <path id="path3248" d="m34.938 13.594c-0.285 0.234-0.579 0.468-0.844 0.718-0.19 0.231-0.372 0.455-0.563 0.594-0.034 0.711 0.027 1.467 0.188 2.25 0.215 1.045 0.602 2.129 1.125 3.188 0.392 0.794 0.863 1.575 1.406 2.312 0.905 1.227 1.997 2.322 3.25 3.188 0.007 0.005 0.024-0.005 0.031 0 0.244 0.167 0.495 0.352 0.75 0.5 0.203 0.117 0.436 0.22 0.688 0.312 0.135 0.05 0.289 0.083 0.437 0.125 0.405 0.115 0.825 0.217 1.313 0.281 0.095 0.014 0.183 0.021 0.281 0.032 0.251 0.028 0.514 0.046 0.781 0.062 0.728 0.045 1.497 0.066 2.313 0.032 0.816-0.035 1.677-0.116 2.531-0.219-1.768-0.277-3.709-0.268-4.781-0.657-8.722-4.056-8.625-9.863-8.906-12.718z" fill-rule="evenodd" fill="url(#radialGradient2330)"/>
 <path id="path554" opacity=".5" d="m758.49 359.91s-130.56 89.47-132.58 90.86c-1.69-1.68-41.78-41.6-41.78-41.6-2.98-2.96-6.89-4.06-10.47-2.94-3.89 1.23-6.4 4.01-7.08 7.81l-0.42 2.36c-0.13 0.77-0.12 1.53 0.04 2.29l0.59 2.8 0.41 1.25 46.25 101.69c1.45 3.18 4.38 5.43 7.83 6 3.44 0.58 6.94-0.6 9.35-3.14l141.23-149.29c2.07-2.17 3.26-5.27 3.26-8.49l-0.13-1.23-0.57-2.72c-0.7-3.33-2.86-5.81-6.23-7.16-2.16-0.87-5.59-1.31-9.7 1.51z" transform="matrix(.31444 0 0 .31444 -119.11 -89.925)" filter="url(#filter6238)"/>
 <path id="path561" filter="url(#filter5261)" fill="url(#linearGradient3370)" d="m118.93 22.804s-41.052 28.133-41.687 28.569c-0.531-0.53-13.137-13.079-13.137-13.079-0.936-0.934-2.166-1.28-3.291-0.926-1.223 0.388-2.013 1.26-2.226 2.456l-0.132 0.743c-0.043 0.24-0.038 0.481 0.012 0.718l0.185 0.881 0.128 0.392 14.544 31.977c0.456 1.001 1.376 1.706 2.462 1.887 1.082 0.182 2.181-0.188 2.94-0.989l44.412-46.943c0.65-0.682 1.02-1.655 1.02-2.667l-0.04-0.388-0.18-0.857c-0.22-1.047-0.9-1.825-1.96-2.25-0.68-0.272-1.76-0.41-3.05 0.476z"/>
 <path id="path568" transform="matrix(.82363 0 0 .82363 -315.72 -181.46)" fill="url(#linearGradient3947)" d="m529.01 249.9s-51.71 35.44-52.18 35.76c-1.95-1.94-17.29-17.22-17.29-17.22-0.45-0.45-1.08-0.76-1.69-0.56-0.61 0.19-1.03 0.56-1.14 1.19l-0.16 0.9 0.23 1.07c0 0.01 17.65 38.83 17.65 38.83 0.24 0.52 0.72 0.88 1.28 0.98 0.57 0.09 1.14-0.1 1.53-0.52l53.92-56.99c0.39-0.41 0.62-1.02 0.62-1.67l-0.22-1.04c-0.12-0.56-0.46-0.86-0.99-1.07-0.53-0.22-1.08 0.01-1.56 0.34z"/>
 <path id="path575" d="m477.57 287.23c-0.55 0.38-1.28 0.31-1.74-0.15 0 0-17.15-17.08-17.5-17.43-0.04 0.1-0.06 0.21-0.06 0.32 0 0.13 0.02 0.26 0.07 0.37 0 0 17.6 38.69 17.66 38.81 0.33-0.35 53.91-56.99 53.91-56.99 0.09-0.1 0.15-0.29 0.15-0.49 0-0.12-0.03-0.24-0.08-0.35-0.39 0.26-52.41 35.91-52.41 35.91z" transform="matrix(.82363 0 0 .82363 -315.72 -181.46)" filter="url(#filter3315)" fill="url(#linearGradient3949)"/>
 <path id="path582" fill="url(#radialGradient3365)" d="m78.264 56.045v0.001c-0.896 0.612-2.104 0.502-2.872-0.263 0 0-6.305-6.278-10.466-10.421 3.329 7.321 9.646 21.209 11.737 25.805 1.911-2.019 29.507-31.185 37.727-39.878-9.87 6.761-36.126 24.756-36.126 24.756z"/>
 <path id="path3927" fill="url(#radialGradient3362)" d="m78.264 56.045v0.001c-0.896 0.612-2.104 0.502-2.872-0.263 0 0-6.305-6.278-10.466-10.421 3.329 7.321 9.646 21.209 11.737 25.805 1.911-2.019 29.507-31.185 37.727-39.878-9.87 6.761-36.126 24.756-36.126 24.756z"/>
</svg>
