<?xml version="1.0" encoding="UTF-8" standalone="no"?>
<!-- Created with Inkscape (http://www.inkscape.org/) -->

<svg
   xmlns:dc="http://purl.org/dc/elements/1.1/"
   xmlns:cc="http://creativecommons.org/ns#"
   xmlns:rdf="http://www.w3.org/1999/02/22-rdf-syntax-ns#"
   xmlns:svg="http://www.w3.org/2000/svg"
   xmlns="http://www.w3.org/2000/svg"
   xmlns:xlink="http://www.w3.org/1999/xlink"
   xmlns:sodipodi="http://sodipodi.sourceforge.net/DTD/sodipodi-0.dtd"
   xmlns:inkscape="http://www.inkscape.org/namespaces/inkscape"
   id="svg2"
   version="1.1"
   inkscape:version="0.48.4 r9939"
   width="90"
   height="90"
   xml:space="preserve"
   sodipodi:docname="anydesk.pdf"><metadata
     id="metadata8"><rdf:RDF><cc:Work
         rdf:about=""><dc:format>image/svg+xml</dc:format><dc:type
           rdf:resource="http://purl.org/dc/dcmitype/StillImage" /><dc:title></dc:title></cc:Work></rdf:RDF></metadata><defs
     id="defs6"><clipPath
       clipPathUnits="userSpaceOnUse"
       id="clipPath18"><path
         d="M 0,0 325,0 325,86 0,86 0,0 z"
         id="path20"
         inkscape:connector-curvature="0" /></clipPath><linearGradient
       x1="0"
       y1="0"
       x2="1"
       y2="0"
       gradientUnits="userSpaceOnUse"
       gradientTransform="matrix(28.955189,-28.955194,-28.955194,-28.955189,274.06543,54.820803)"
       spreadMethod="pad"
       id="linearGradient34"><stop
         style="stop-opacity:1;stop-color:#ed1c24"
         offset="0"
         id="stop36" /><stop
         style="stop-opacity:1;stop-color:#bf1b2c"
         offset="1"
         id="stop38" /></linearGradient><clipPath
       clipPathUnits="userSpaceOnUse"
       id="clipPath48"><path
         d="M 0,0 325,0 325,86 0,86 0,0 z"
         id="path50"
         inkscape:connector-curvature="0" /></clipPath><linearGradient
       inkscape:collect="always"
       xlink:href="#linearGradient34"
       id="linearGradient3059"
       gradientUnits="userSpaceOnUse"
       gradientTransform="matrix(28.955189,-28.955194,-28.955194,-28.955189,274.06543,54.820803)"
       spreadMethod="pad"
       x1="0"
       y1="0"
       x2="1"
       y2="0" /></defs><sodipodi:namedview
     pagecolor="#ffffff"
     bordercolor="#666666"
     borderopacity="1"
     objecttolerance="10"
     gridtolerance="10"
     guidetolerance="10"
     inkscape:pageopacity="0"
     inkscape:pageshadow="2"
     inkscape:window-width="2560"
     inkscape:window-height="1377"
     id="namedview4"
     showgrid="false"
     fit-margin-top="0"
     fit-margin-left="0"
     fit-margin-right="0"
     fit-margin-bottom="0"
     inkscape:zoom="0.92475854"
     inkscape:cx="70.397081"
     inkscape:cy="60.053828"
     inkscape:window-x="-4"
     inkscape:window-y="-4"
     inkscape:window-maximized="1"
     inkscape:current-layer="g10" /><g
     id="g10"
     inkscape:groupmode="layer"
     inkscape:label="anydesk"
     transform="matrix(1.25,0,0,-1.25,-305.137,105.68181)"><g
       id="g3047"
       transform="translate(0.62672485,8.183375)"><g
         id="g12"><g
           transform="translate(0,-0.173302)"
           id="g14"><g
             id="g16" /><g
             id="g22"><g
               id="g24"
               clip-path="url(#clipPath18)"><g
                 id="g26"><path
                   id="path28"
                   style="fill:none;stroke:#918f90;stroke-width:3;stroke-linecap:butt;stroke-linejoin:miter;stroke-miterlimit:10;stroke-opacity:1;stroke-dasharray:none"
                   d="m 276.422,16.078 c -2.484,-2.484 -6.512,-2.484 -8.996,0 l -19.957,19.957 c -2.489,2.488 -2.489,6.516 0,9 l 19.957,19.957 c 2.484,2.485 6.512,2.485 8.996,0 l 19.961,-19.957 c 2.484,-2.484 2.48,-6.512 -0.004,-8.996 L 276.422,16.078 z"
                   inkscape:connector-curvature="0" /></g></g></g></g></g><g
         id="g30"><g
           id="g32"><path
             id="path40"
             style="fill:url(#linearGradient3059);fill-opacity:1;fill-rule:nonzero;stroke:none"
             d="M 284.047,64.799 264.086,44.842 c -2.484,-2.484 -2.484,-6.511 0,-8.996 l 19.957,-19.961 c 2.484,-2.484 6.516,-2.484 9,0 l 19.961,19.961 c 2.48,2.485 2.48,6.512 -0.004,8.996 l -19.961,19.961 c -1.238,1.242 -2.867,1.86 -4.492,1.86 -1.629,0 -3.258,-0.621 -4.5,-1.864"
             inkscape:connector-curvature="0" /></g></g></g></g></svg>