<svg viewBox="0 0 28 28" fill="none" xmlns="http://www.w3.org/2000/svg"><path fill-rule="evenodd" clip-rule="evenodd" d="M28 8.72c0-.332 0-.664-.002-.997-.002-.28-.005-.56-.012-.84-.017-.61-.053-1.225-.161-1.828a6.17 6.17 0 0 0-.573-1.738A5.843 5.843 0 0 0 24.695.762a6.174 6.174 0 0 0-1.74-.573c-.602-.108-1.218-.144-1.828-.16-.28-.008-.56-.012-.84-.013-.333-.002-.665-.002-.998-.002L15.427 0H12.54L8.745.014c-.333 0-.666 0-1 .002-.28.001-.56.005-.841.012C6.292.045 5.675.081 5.07.19 4.457.3 3.886.48 3.33.762A5.858 5.858 0 0 0 .767 3.317a6.159 6.159 0 0 0-.574 1.738C.084 5.658.048 6.273.032 6.883c-.008.28-.011.56-.013.84C.017 8.056 0 8.47 0 8.801v6.66l.017 3.82c0 .333 0 .666.002 1 .002.28.005.56.013.84.016.611.052 1.227.16 1.831.111.613.291 1.183.575 1.74a5.853 5.853 0 0 0 2.561 2.559 6.188 6.188 0 0 0 1.743.573c.605.109 1.221.145 1.833.161.28.008.56.011.842.013.333.002.666.002 1 .002h10.543c.332 0 .665 0 .998-.002.28-.002.56-.005.84-.013.61-.016 1.226-.052 1.83-.16a6.165 6.165 0 0 0 1.738-.574 5.845 5.845 0 0 0 2.557-2.559 6.183 6.183 0 0 0 .573-1.74c.108-.604.144-1.22.16-1.83.008-.281.011-.561.013-.842.002-.333.002-.666.002-.998v-6.743V8.72" fill="url(#paint0_linear_454_1063)"/><rect opacity=".48" x="2" y="14" width="24" height="1" rx=".5" fill="#70C8FA"/><rect opacity=".48" x="2" y="10" width="24" height="1" rx=".5" fill="#70C8FA"/><rect opacity=".48" x="2" y="6" width="24" height="1" rx=".5" fill="#70C8FA"/><path fill-rule="evenodd" clip-rule="evenodd" d="M8.75 3a.75.75 0 0 0-.75.75v13.5c0 .414.336.75.75.75h2.5a.75.75 0 0 0 .75-.75V3.75a.75.75 0 0 0-.75-.75h-2.5zm13 2a.75.75 0 0 0-.75.75v12.5c0 .414.336.75.75.75h2.5a.75.75 0 0 0 .75-.75V5.75a.75.75 0 0 0-.75-.75h-2.5z" fill="url(#paint1_linear_454_1063)"/><path fill-rule="evenodd" clip-rule="evenodd" d="M16.75 9a.75.75 0 0 0-.75.75v8.5c0 .414.336.75.75.75h2.5a.75.75 0 0 0 .75-.75v-8.5a.75.75 0 0 0-.75-.75h-2.5zm-13 3a.75.75 0 0 0-.75.75v4.5c0 .414.336.75.75.75h2.5a.75.75 0 0 0 .75-.75v-4.5a.75.75 0 0 0-.75-.75h-2.5z" fill="url(#paint2_linear_454_1063)"/><path fill="url(#paint3_linear_454_1063)" d="M3 15h22v5H3z"/><path opacity=".5" fill-rule="evenodd" clip-rule="evenodd" d="M7.492 24.063c-1.338 0-1.771-.267-1.872-.348-.897-.727-1.19-2.856-1.19-3.508 0-.327.028-.795.27-1.083.045-.054.26-.24 1.134-.377a11.333 11.333 0 0 1 1.658-.126c2.582 0 3.361.689 3.491.827.278.295.42.744.42 1.333 0 .876-.282 1.564-.517 1.987-.288.517-.634.859-.85.968-.359.183-1.476.326-2.544.326" fill="url(#paint4_linear_454_1063)"/><path opacity=".5" fill-rule="evenodd" clip-rule="evenodd" d="M20.508 24.063c1.338 0 1.771-.267 1.872-.348.897-.727 1.19-2.856 1.19-3.508 0-.327-.028-.795-.27-1.083-.045-.054-.26-.24-1.134-.377a11.332 11.332 0 0 0-1.658-.126c-2.582 0-3.361.689-3.491.827-.278.295-.42.744-.42 1.333 0 .876.281 1.564.517 1.987.288.517.634.859.85.968.359.183 1.476.326 2.544.326" fill="url(#paint5_linear_454_1063)"/><path fill-rule="evenodd" clip-rule="evenodd" d="M23.352 20.207c-.002.538-.266 2.655-1.11 3.338-.038.03-.435.299-1.598.299-.683 0-1.53-.035-1.998-.123-.536-.1-.728-.206-1-.534-.39-.466-.83-1.334-.83-2.406 0-.532.121-.93.36-1.183.05-.054.256-.244.772-.421.65-.224 1.51-.337 2.56-.337.523 0 1.124.046 1.61.12 1.35.208 1.236.495 1.234 1.247m-12.998 2.98c-.272.328-.464.434-1 .534-.468.088-1.315.123-1.999.123-1.162 0-1.56-.269-1.597-.3-.844-.682-1.108-2.799-1.11-3.337-.002-.752-.116-1.039 1.235-1.247a11.27 11.27 0 0 1 1.61-.12c1.049 0 1.91.113 2.559.337.516.177.721.367.772.42.239.254.36.652.36 1.184 0 1.072-.44 1.94-.83 2.407m15.771-5.03a.42.42 0 0 0-.324-.35c-.48-.108-1.704-.308-4.145-.308-4.758 0-5.168.608-7.656.608-2.488 0-2.898-.608-7.656-.608-2.441 0-3.664.2-4.145.307a.419.419 0 0 0-.324.35c-.01.064-.016.138-.016.218 0 .241.005.378.082.52.121.22 1.149.656 1.313 1.53.164.876.547 3.118 1.367 3.938.547.547 1.777.657 3.035.657 1.538 0 2.536-.212 2.926-.4.3-.143 1.398-.665 1.887-2.854.369-1.655.341-1.79.712-2.058.262-.188.655-.24.819-.24.164 0 .557.052.819.24.37.267.343.403.712 2.058.489 2.19 1.586 2.71 1.887 2.855.39.187 1.388.399 2.926.399 1.258 0 2.488-.11 3.035-.657.82-.82 1.203-3.062 1.367-3.937.164-.875 1.192-1.311 1.313-1.531.077-.142.082-.279.082-.52 0-.08-.007-.154-.016-.218" fill="url(#paint6_linear_454_1063)"/><path fill-rule="evenodd" clip-rule="evenodd" d="M15.81 18.748c0 .457-.338 1.069-.613 1.49a.081.081 0 0 1-.111.025c-.275-.175-.641-.193-1.086-.193-.439 0-.84.036-1.1.229a.082.082 0 0 1-.121-.027c-.25-.473-.355-1.055-.355-1.055v-.469h3.387z" fill="#CC7323"/><path fill-rule="evenodd" clip-rule="evenodd" d="M16.213 18.58c0 .148-.188.374-.474.585a2.862 2.862 0 0 1-.23.153 3.76 3.76 0 0 1-.743.36c-.257.086-.55.143-.9.143-.294 0-.542-.021-.75-.058a1.97 1.97 0 0 1-.609-.198c-.286-.158-.385-.359-.385-.515 0-.254.047-.626.242-1.037l.012-.025a.082.082 0 0 1 .084-.046c.452.055.934.09 1.54.09.789 0 1.368-.06 1.945-.144a.082.082 0 0 1 .085.044l.012.024c.076.161.171.405.171.624" fill="#E4AA65"/><defs><linearGradient id="paint0_linear_454_1063" x2="0" y2="28" gradientUnits="userSpaceOnUse"><stop stop-color="#2196F3"/><stop offset="1" stop-color="#1478EE"/></linearGradient><linearGradient id="paint1_linear_454_1063" x1="8" y1="3" x2="8" y2="19" gradientUnits="userSpaceOnUse"><stop stop-color="#89D8FD"/><stop offset="1" stop-color="#70C8FA"/></linearGradient><linearGradient id="paint2_linear_454_1063" x1="3" y1="9" x2="3" y2="19" gradientUnits="userSpaceOnUse"><stop stop-color="#C6FB85"/><stop offset="1" stop-color="#B3F364"/></linearGradient><linearGradient id="paint3_linear_454_1063" x1="14" y1="15" x2="14" y2="17.5" gradientUnits="userSpaceOnUse"><stop stop-color="#1A86F1" stop-opacity="0"/><stop offset="1" stop-color="#1881F0"/></linearGradient><linearGradient id="paint4_linear_454_1063" x1="4.43" y1="18.621" x2="4.43" y2="24.063" gradientUnits="userSpaceOnUse"><stop stop-color="#70C8FA"/><stop offset="1" stop-color="#70C8FA" stop-opacity=".01"/></linearGradient><linearGradient id="paint5_linear_454_1063" x1="16.598" y1="18.621" x2="16.598" y2="24.063" gradientUnits="userSpaceOnUse"><stop stop-color="#70C8FA"/><stop offset="1" stop-color="#70C8FA" stop-opacity=".01"/></linearGradient><linearGradient id="paint6_linear_454_1063" x1="1.859" y1="17.5" x2="1.859" y2="25.02" gradientUnits="userSpaceOnUse"><stop stop-color="#1E1E1E"/><stop offset="1"/></linearGradient></defs></svg>