<?xml version="1.0" encoding="UTF-8"?>
<svg version="1.1" xmlns="http://www.w3.org/2000/svg" width="500" height="500">
<path d="M0 0 C165 0 330 0 500 0 C500 165 500 330 500 500 C335 500 170 500 0 500 C0 335 0 170 0 0 Z " fill="#2A2B2A" transform="translate(0,0)"/>
<path d="M0 0 C165 0 330 0 500 0 C500 165 500 330 500 500 C335 500 170 500 0 500 C0 335 0 170 0 0 Z M36 37 C36 179.23 36 321.46 36 468 C176.91 468 317.82 468 463 468 C463 325.77 463 183.54 463 37 C322.09 37 181.18 37 36 37 Z " fill="#039490" transform="translate(0,0)"/>
<path d="M0 0 C15.51 0 31.02 0 47 0 C47 57.75 47 115.5 47 175 C47.66 175 48.32 175 49 175 C49.21914062 174.32582031 49.43828125 173.65164062 49.6640625 172.95703125 C51.40669249 169.09980639 53.79691419 166.0254298 56.375 162.6875 C57.4677133 161.25410852 58.56015372 159.82050898 59.65234375 158.38671875 C60.21034668 157.65759277 60.76834961 156.9284668 61.34326172 156.17724609 C62.91250162 154.11498829 64.46240359 152.04007404 66.00390625 149.95703125 C73.0711916 140.41331646 80.45253472 131.1671366 88 122 C89.50054018 120.16710877 91.00059716 118.33382176 92.5 116.5 C93.20640625 115.63761719 93.9128125 114.77523437 94.640625 113.88671875 C99.7758475 107.60372301 104.88531876 101.29971894 110 95 C116.52898616 86.95829108 123.06039294 78.91893215 129.625 70.90625 C132.59088189 67.27694716 135.54566832 63.63870668 138.5 60 C142.15886173 55.49355792 145.82125001 50.99023896 149.5 46.5 C154.21183871 40.74777355 158.89959627 34.97612439 163.5859375 29.203125 C165.87976832 26.37771636 168.17687315 23.55501702 170.4765625 20.734375 C171.04600586 20.03530029 171.61544922 19.33622559 172.20214844 18.6159668 C173.27493897 17.2990898 174.34844307 15.9827936 175.42285156 14.66723633 C176.16873535 13.75107544 176.16873535 13.75107544 176.9296875 12.81640625 C177.40874039 12.24512497 177.88779327 11.67384369 178.38136292 11.08525085 C180.05129641 9.02709312 180.05129641 9.02709312 181.35331726 6.68945312 C183.72220004 2.91465831 185.49011401 0.41052277 189.9039917 -0.78956604 C193.49808822 -1.04190642 196.98929682 -1.01223522 200.58984375 -0.87890625 C201.88950577 -0.86617172 203.18916779 -0.85343719 204.5282135 -0.84031677 C207.96403188 -0.80614415 211.39636034 -0.71792898 214.83081055 -0.61798096 C218.34310695 -0.52548248 221.85597424 -0.48471869 225.36914062 -0.43945312 C232.24751687 -0.34327422 239.12359041 -0.18992011 246 0 C245.06402612 1.25996575 244.12635232 2.51866879 243.18798828 3.77685547 C242.66600861 4.47793427 242.14402893 5.17901306 241.60623169 5.90133667 C239.16231217 9.09450258 236.53154447 12.10846798 233.875 15.125 C232.72883433 16.43720979 231.58300876 17.74971672 230.4375 19.0625 C229.86386719 19.71863281 229.29023438 20.37476562 228.69921875 21.05078125 C226.07469321 24.06144388 223.47293143 27.09138535 220.875 30.125 C220.38177246 30.70072754 219.88854492 31.27645508 219.38037109 31.86962891 C215.61694251 36.26794231 211.87681718 40.68567414 208.1418457 45.1081543 C202.29299395 52.02861531 196.38283437 58.89654547 190.47949219 65.77050781 C185.13313895 71.99703239 179.7952217 78.2298939 174.5 84.5 C170.70470056 88.99403849 166.89209117 93.47264212 163.0625 97.9375 C162.56580811 98.51669189 162.06911621 99.09588379 161.55737305 99.69262695 C159.00489582 102.66756041 156.44930018 105.6397708 153.890625 108.609375 C149.3016409 113.94120634 144.74122166 119.28329671 140.3125 124.75 C136.77127589 129.11431944 133.06344691 133.28542905 129.27734375 137.4375 C126.01272019 141.11090147 122.92978016 144.92316537 119.84765625 148.75 C118 151 118 151 116 153 C116.32547909 156.74352126 118.43108239 159.39685598 120.515625 162.42578125 C120.87851624 162.95684982 121.24140747 163.4879184 121.61529541 164.03507996 C122.82155064 165.79792802 124.03584895 167.555083 125.25 169.3125 C126.10676786 170.56205589 126.96287496 171.81206507 127.81835938 173.0625 C129.62346357 175.70023853 131.43110331 178.3362134 133.24023438 180.97119141 C137.24884242 186.81593111 141.21710728 192.68795014 145.18713379 198.55892944 C147.39392352 201.82166447 149.60324754 205.08268223 151.8125 208.34375 C152.24749817 208.98591965 152.68249634 209.62808929 153.13067627 210.28971863 C157.58333189 216.86238193 162.04134184 223.43140778 166.5 230 C173.6172066 240.48522361 180.72681798 250.97556897 187.83300781 261.46826172 C194.05062447 270.64871184 200.27284386 279.82601809 206.5 289 C211.39867128 296.21682912 216.29574681 303.43472921 221.1875 310.65625 C221.62463821 311.30153152 222.06177643 311.94681305 222.51216125 312.61164856 C224.71504934 315.86373573 226.91714539 319.11635518 229.11791992 322.36987305 C233.12197816 328.28755134 237.13224989 334.20064551 241.16934204 340.09585571 C242.9592296 342.70977086 244.74600423 345.32580718 246.53271484 347.94189453 C247.38079591 349.18149719 248.23054916 350.41995759 249.08203125 351.65722656 C250.252802 353.35856088 251.41798283 355.06359351 252.58203125 356.76953125 C253.24436768 357.73479736 253.9067041 358.70006348 254.58911133 359.69458008 C256 362 256 362 256 364 C248.31451251 364.27966199 240.63034186 364.4718378 232.94091797 364.60424805 C230.32746357 364.65945731 227.71434729 364.73444573 225.10205078 364.82983398 C221.33801937 364.96380313 217.5784859 365.02575476 213.8125 365.07421875 C212.06984863 365.15937996 212.06984863 365.15937996 210.29199219 365.2462616 C205.42320945 365.24993724 202.28604875 365.20377381 198.63420105 361.78555298 C196.54313856 358.94715874 194.75467289 356.05612294 193 353 C192.0056308 351.51810009 191.00045996 350.04335676 189.98168945 348.578125 C189.02320479 347.13697592 188.06713381 345.6942191 187.11328125 344.25 C186.31682945 343.05114922 186.31682945 343.05114922 185.50428772 341.82807922 C184.36515551 340.11320905 183.22700949 338.39768343 182.08978271 336.68154907 C178.99130235 332.00658821 175.88441889 327.33722015 172.77734375 322.66796875 C172.13504822 321.70255661 171.49275269 320.73714447 170.83099365 319.74247742 C164.0569105 309.56901827 157.21866136 299.43922401 150.375 289.3125 C138.52742925 271.77482377 126.75886488 254.18603626 115.0350647 236.56542969 C108.79185137 227.18225386 102.53873816 217.80568055 96.28616333 208.42874146 C93.26079763 203.89149 90.23587784 199.3539413 87.2109375 194.81640625 C86.19319885 193.28979343 85.1754582 191.76318194 84.15771484 190.23657227 C83.44566895 189.16850342 82.73362305 188.10043457 82 187 C77.70264318 188.92037596 75.25271046 191.92783002 72.3125 195.5 C71.24064062 196.77823108 70.16771666 198.05557019 69.09375 199.33203125 C68.5678125 199.95932129 68.041875 200.58661133 67.5 201.23291016 C65.49044316 203.60028848 63.40817623 205.89627652 61.3125 208.1875 C57.29316553 212.6109723 53.50539442 217.1990517 49.75 221.84765625 C48 224 48 224 47 225 C46.89142308 226.78389985 46.85312355 228.57210312 46.84178162 230.35926819 C46.82709839 232.10306007 46.82709839 232.10306007 46.81211853 233.88208008 C46.80636307 235.16888672 46.8006076 236.45569336 46.79467773 237.78149414 C46.78510438 239.14123333 46.77509463 240.50096951 46.76467896 241.86070251 C46.73756493 245.56298536 46.71659068 249.26528105 46.69667697 252.96760869 C46.67485735 256.83271343 46.64744904 260.69777832 46.62062073 264.56285095 C46.57063925 271.88681792 46.52572074 279.21080694 46.48259836 286.53481716 C46.4332725 294.87086277 46.37833718 303.20686842 46.32291877 311.54287541 C46.20901502 328.69521481 46.10293498 345.84759073 46 363 C30.82 363 15.64 363 0 363 C0 243.21 0 123.42 0 0 Z " fill="#FDFDFD" transform="translate(126,68)"/>
</svg>
