<svg xmlns="http://www.w3.org/2000/svg" viewBox="0 0 33.87 33.87"><path fill="#fff" d="M12.69 9c-.97 0-1.88.21-2.75.65a5 5 0 0 0-2.1 2.08 6.27 6.27 0 0 0-.69 2.28c-.1.83.6 1.5 1.43 1.5.85 0 1.5-.71 1.7-1.54.12-.47.3-.84.56-1.12a2.5 2.5 0 0 1 1.9-.8c.51 0 .98.13 1.4.39.43.25.99.67 1.67 1.26 1.04.92 1.95 1.58 2.75 2a6.07 6.07 0 0 0 5.39-.04 4.98 4.98 0 0 0 2.1-2.09c.36-.63.59-1.4.7-2.29.09-.82-.6-1.49-1.44-1.49-.86 0-1.5.73-1.73 1.55-.1.4-.28.75-.5 1.03-.48.59-1.12.88-1.94.88-.52 0-.98-.12-1.4-.37-.4-.26-.96-.68-1.67-1.28a17 17 0 0 0-2.76-1.95A5.32 5.32 0 0 0 12.69 9zm0 8.56c-.97 0-1.88.21-2.75.65a5 5 0 0 0-2.1 2.08 6.27 6.27 0 0 0-.69 2.29c-.1.82.6 1.5 1.43 1.5.85 0 1.5-.72 1.7-1.55.12-.47.3-.84.56-1.12a2.5 2.5 0 0 1 1.9-.8c.51 0 .98.14 1.4.4.43.24.99.66 1.67 1.25 1.04.92 1.95 1.59 2.75 2a6.07 6.07 0 0 0 5.39-.04 4.98 4.98 0 0 0 2.1-2.08c.36-.64.59-1.4.7-2.3.09-.82-.6-1.49-1.44-1.49-.86 0-1.5.73-1.73 1.56-.1.4-.28.74-.5 1.02-.48.59-1.12.88-1.94.88-.52 0-.98-.12-1.4-.37-.4-.25-.96-.68-1.67-1.27a17.02 17.02 0 0 0-2.76-1.96 5.32 5.32 0 0 0-2.62-.65z"/><path fill="#4641d9" d="M16.93 1.06a15.87 15.87 0 1 1 0 31.75 15.87 15.87 0 0 1 0-31.75zm-4.24 16.5c-.97 0-1.88.21-2.75.65a5 5 0 0 0-2.1 2.08 6.27 6.27 0 0 0-.69 2.29c-.1.82.6 1.5 1.43 1.5.85 0 1.5-.72 1.7-1.55.12-.47.3-.84.56-1.12a2.5 2.5 0 0 1 1.9-.8c.51 0 .98.14 1.4.4.43.24.99.66 1.67 1.25 1.04.92 1.95 1.59 2.75 2a6.07 6.07 0 0 0 5.39-.04 4.98 4.98 0 0 0 2.1-2.08c.36-.64.59-1.4.7-2.3.09-.82-.6-1.49-1.44-1.49-.86 0-1.5.73-1.73 1.56-.1.4-.28.74-.5 1.02-.48.59-1.12.88-1.94.88-.52 0-.98-.12-1.4-.37-.4-.25-.96-.68-1.67-1.28a17.01 17.01 0 0 0-2.76-1.95 5.32 5.32 0 0 0-2.62-.65zm0-8.56c-.97 0-1.88.21-2.75.65a5 5 0 0 0-2.1 2.08 6.27 6.27 0 0 0-.69 2.28c-.1.83.6 1.5 1.43 1.5.85 0 1.5-.71 1.7-1.54.12-.47.3-.84.56-1.12a2.5 2.5 0 0 1 1.9-.8c.51 0 .98.14 1.4.39.43.25.99.67 1.67 1.26 1.04.92 1.95 1.58 2.75 2a6.07 6.07 0 0 0 5.39-.04 4.98 4.98 0 0 0 2.1-2.09c.36-.63.59-1.4.7-2.29.09-.82-.6-1.49-1.44-1.49-.86 0-1.5.73-1.73 1.55-.1.4-.28.75-.5 1.03-.48.59-1.12.88-1.94.88-.52 0-.98-.12-1.4-.37-.4-.26-.96-.68-1.67-1.28a17 17 0 0 0-2.76-1.95A5.32 5.32 0 0 0 12.69 9Z"/></svg>