<?xml version="1.0" encoding="UTF-8"?>
<svg version="1.1" xmlns="http://www.w3.org/2000/svg" width="256" height="256">
<path d="M0 0 C84.48 0 168.96 0 256 0 C256 84.48 256 168.96 256 256 C171.52 256 87.04 256 0 256 C0 171.52 0 87.04 0 0 Z " fill="#C5E0FC" transform="translate(0,0)"/>
<path d="M0 0 C1.32 0 2.64 0 4 0 C2.78938694 14.25656169 0.78689749 28.29168179 -1.57470703 42.40087891 C-2.09737042 45.5950663 -2.56128471 48.7933078 -3 52 C-4.66475686 52.34274406 -6.33195323 52.67364302 -8 53 C-9.03125 53.2475 -10.0625 53.495 -11.125 53.75 C-14 54 -14 54 -15.8125 52.75 C-19.4837338 47.33976071 -18.91219287 39.28761514 -18 33 C-16.4906262 28.65816208 -14.5617075 24.81451336 -12 21 C-11.60425781 20.37609375 -11.20851562 19.7521875 -10.80078125 19.109375 C-7.67021641 17.18078408 -4.50916186 18.36720032 -1 19 C-0.83262201 16.20837429 -0.66606598 13.41670379 -0.5 10.625 C-0.45230469 9.8309375 -0.40460938 9.036875 -0.35546875 8.21875 C-0.09644667 4.11223696 -0.09644667 4.11223696 0 0 Z " fill="#353739" transform="translate(160,184)"/>
<path d="M0 0 C1.32 0 2.64 0 4 0 C4 4.62 4 9.24 4 14 C5.65 14.33 7.3 14.66 9 15 C9 15.66 9 16.32 9 17 C9.66 17 10.32 17 11 17 C11.3690205 27.55808656 11.3690205 27.55808656 9 32 C8.34 32 7.68 32 7 32 C6.01 34.475 6.01 34.475 5 37 C2.625 36.75 2.625 36.75 0 36 C-3.02046601 31.29464819 -2.57326732 25.97505972 -1.546875 20.6484375 C-1.36640625 19.85695312 -1.1859375 19.06546875 -1 18.25 C0.35865118 12.18390951 0.17449392 6.18484017 0 0 Z " fill="#737B82" transform="translate(25,172)"/>
<path d="M0 0 C2 0.3125 2 0.3125 4 1 C7.3531073 7.70621461 4.81285946 17.55730014 2.93359375 24.41796875 C1.81743345 27.50492254 0.36244993 29.71901386 -2 32 C-3.32 31.67 -4.64 31.34 -6 31 C-6.2775073 7.59688413 -6.2775073 7.59688413 -1 1 C-0.67 0.67 -0.34 0.34 0 0 Z " fill="#C2DBF6" transform="translate(152,204)"/>
<path d="M0 0 C2.76276177 0.52268466 5.3260876 1.10869587 8 2 C7.67 7.94 7.34 13.88 7 20 C7.66 18.35 8.32 16.7 9 15 C9.33 15 9.66 15 10 15 C9.125 21.875 9.125 21.875 8 23 C6.19187276 23.15091913 4.37669383 23.22169008 2.5625 23.25 C1.57378906 23.27578125 0.58507812 23.3015625 -0.43359375 23.328125 C-1.28050781 23.21984375 -2.12742187 23.1115625 -3 23 C-6.25545351 18.11681973 -5.70521849 12.70336899 -5 7 C-3.63722427 4.07026959 -2.22844374 2.39557702 0 0 Z " fill="#BBD1E8" transform="translate(22,233)"/>
<path d="M0 0 C4.55555556 0.55555556 4.55555556 0.55555556 6 2 C5.71269945 4.33944736 5.38063221 6.6739143 5 9 C4.01 9 3.02 9 2 9 C2.33 6.69 2.66 4.38 3 2 C2.01 2 1.02 2 0 2 C-0.13277344 3.20398438 -0.26554687 4.40796875 -0.40234375 5.6484375 C-0.5805302 7.22398085 -0.7589265 8.79950047 -0.9375 10.375 C-1.02451172 11.1690625 -1.11152344 11.963125 -1.20117188 12.78125 C-1.88671875 18.7734375 -1.88671875 18.7734375 -3 21 C-1.35 21 0.3 21 2 21 C2 21.33 2 21.66 2 22 C0.35 22.33 -1.3 22.66 -3 23 C-3.10022461 23.96711914 -3.20044922 24.93423828 -3.30371094 25.93066406 C-3.68531547 29.57770496 -4.08480656 33.22261564 -4.48925781 36.8671875 C-4.66067885 38.43373184 -4.8274825 40.00078957 -4.98925781 41.56835938 C-7.46442582 65.46442582 -7.46442582 65.46442582 -13 71 C-15.625 70.625 -15.625 70.625 -18 70 C-18.125 64.25 -18.125 64.25 -17 62 C-16.01 62 -15.02 62 -14 62 C-14 63.65 -14 65.3 -14 67 C-13.34 67 -12.68 67 -12 67 C-11.91435791 66.23333008 -11.82871582 65.46666016 -11.74047852 64.67675781 C-11.35061058 61.20085216 -10.95660181 57.72542805 -10.5625 54.25 C-10.42779297 53.0434375 -10.29308594 51.836875 -10.15429688 50.59375 C-10.02216797 49.43359375 -9.89003906 48.2734375 -9.75390625 47.078125 C-9.57323608 45.47565918 -9.57323608 45.47565918 -9.38891602 43.84082031 C-9.0659838 41.48197581 -8.59177831 39.29864303 -8 37 C-7.77882441 34.5861824 -7.59427758 32.16885403 -7.4375 29.75 C-7.35371094 28.48671875 -7.26992188 27.2234375 -7.18359375 25.921875 C-7.12300781 24.95765625 -7.06242187 23.9934375 -7 23 C-7.99 23 -8.98 23 -10 23 C-10 22.34 -10 21.68 -10 21 C-8.68 21 -7.36 21 -6 21 C-5.87882812 20.13117188 -5.75765625 19.26234375 -5.6328125 18.3671875 C-5.46523438 17.21476562 -5.29765625 16.06234375 -5.125 14.875 C-4.96257813 13.73804688 -4.80015625 12.60109375 -4.6328125 11.4296875 C-3.09497207 3.09497207 -3.09497207 3.09497207 0 0 Z " fill="#3D4146" transform="translate(67,183)"/>
<path d="M0 0 C0 0.66 0 1.32 0 2 C0.99 2.33 1.98 2.66 3 3 C5.82346145 6.77787095 7.81910662 10.63037867 8.4375 15.3125 C7.68560106 19.93130779 7.68560106 19.93130779 6 22 C2.875 22.75 2.875 22.75 0 23 C-0.9834496 21.56542672 -1.96160921 20.12722594 -2.9375 18.6875 C-3.48277344 17.88699219 -4.02804688 17.08648437 -4.58984375 16.26171875 C-7.14853146 12.15789553 -7.33416714 8.7618818 -7 4 C-4.9820461 0.06498989 -4.62157657 0 0 0 Z " fill="#B8CFE8" transform="translate(124,46)"/>
<path d="M0 0 C2.5 0.1875 2.5 0.1875 5 1 C5.66 1.99 6.32 2.98 7 4 C7.5775 3.34 8.155 2.68 8.75 2 C11 0 11 0 15 0 C17 3 17 3 16.625 6.1875 C16.315625 7.5796875 16.315625 7.5796875 16 9 C15.01 9 14.02 9 13 9 C13.33 6.69 13.66 4.38 14 2 C12.68 2.33 11.36 2.66 10 3 C7.38125131 13.39264417 6.37471875 23.32697642 6 34 C7.94399784 33.84896172 7.94399784 33.84896172 10 33 C11.35102993 30.9279446 11.35102993 30.9279446 12.25 28.4375 C12.58515625 27.61121094 12.9203125 26.78492188 13.265625 25.93359375 C13.50796875 25.29550781 13.7503125 24.65742188 14 24 C14.7724923 26.27233126 15.13802176 27.56711357 14.3984375 29.88671875 C11.66161469 34.70227339 11.66161469 34.70227339 8.5 36.125 C5.43096319 35.97154816 4.2231177 35.05844231 2 33 C1.608125 33.515625 1.21625 34.03125 0.8125 34.5625 C0.214375 35.036875 -0.38375 35.51125 -1 36 C-3.6875 35.6875 -3.6875 35.6875 -6 35 C-6 32.69 -6 30.38 -6 28 C-5.01 28.33 -4.02 28.66 -3 29 C-3.495 31.475 -3.495 31.475 -4 34 C-1.3468902 33.02719307 -0.22223334 32.44446668 1.0625 29.875 C3.70274019 21.77826342 4.34625393 12.48322129 4 4 C2.68 4 1.36 4 0 4 C-1.32 6.64 -2.64 9.28 -4 12 C-5.40253926 7.79238221 -3.90602531 5.88264416 -2 2 C-1.34 1.34 -0.68 0.68 0 0 Z " fill="#4A4E53" transform="translate(173,202)"/>
<path d="M0 0 C2.625 -0.1875 2.625 -0.1875 5 0 C5.33 1.32 5.66 2.64 6 4 C6.99 4 7.98 4 9 4 C9.66 2.68 10.32 1.36 11 0 C15.875 0.875 15.875 0.875 17 2 C17.04092937 4.33297433 17.04241723 6.66705225 17 9 C15.68 9 14.36 9 13 9 C13.33 6.69 13.66 4.38 14 2 C9.69506406 4.72645943 8.57720003 7.61197635 7.40234375 12.47265625 C6.1774376 19.2971334 5.45873435 26.0827689 5 33 C4.01 33 3.02 33 2 33 C1.34 33.99 0.68 34.98 0 36 C-2.31 35.67 -4.62 35.34 -7 35 C-7 33.02 -7 31.04 -7 29 C-5.68 28.34 -4.36 27.68 -3 27 C-3.33 29.31 -3.66 31.62 -4 34 C-2.68 34 -1.36 34 0 34 C0.12117188 33.28714844 0.24234375 32.57429688 0.3671875 31.83984375 C1.82233189 23.52313387 1.82233189 23.52313387 3.125 19.6875 C4.51111253 13.84602575 4.14918812 7.9758132 4 2 C0.32801182 3.86894013 0.32801182 3.86894013 -2.14453125 7.04296875 C-2.47517578 8.10451172 -2.47517578 8.10451172 -2.8125 9.1875 C-3.204375 10.445625 -3.59625 11.70375 -4 13 C-5.02659786 9.80996773 -5.08734425 9.20380325 -3.6875 5.9375 C-2.52697141 3.91732061 -1.29233853 1.9385078 0 0 Z " fill="#171717" transform="translate(102,202)"/>
<path d="M0 0 C1.65 0.33 3.3 0.66 5 1 C5 2.65 5 4.3 5 6 C4.34 6 3.68 6 3 6 C3 4.68 3 3.36 3 2 C2.01 2 1.02 2 0 2 C-0.32026162 5.39514613 -0.63094139 8.79108949 -0.9375 12.1875 C-1.0310376 13.22237549 -1.1245752 14.25725098 -1.22094727 15.32348633 C-1.82600992 22.2787953 -2.19711942 29.2113487 -2.4375 36.1875 C-3.15733759 55.15733759 -3.15733759 55.15733759 -8 60 C-10.625 59.625 -10.625 59.625 -13 59 C-13.33 57.35 -13.66 55.7 -14 54 C-13.01 54 -12.02 54 -11 54 C-11 55.65 -11 57.3 -11 59 C-10.01 58.34 -9.02 57.68 -8 57 C-7.54399824 54.10544643 -7.27565361 51.39057745 -7.12109375 48.4765625 C-7.0634938 47.62001068 -7.00589386 46.76345886 -6.94654846 45.88095093 C-6.76346812 43.12964154 -6.59940526 40.37763008 -6.4375 37.625 C-4.53637407 6.9279709 -4.53637407 6.9279709 0 0 Z " fill="#6F777F" transform="translate(14,188)"/>
<path d="M0 0 C8.85353974 8.13290279 10.67855072 21.30590026 11.3203125 32.7421875 C11.83675542 47.95704493 10.60005507 64.55192859 1 77 C0.67 76.01 0.34 75.02 0 74 C0.97280287 72.31731395 1.97832543 70.65346873 3 69 C10.06621684 49.71560888 10.14906127 24.91569979 2 6 C1.34 5.01 0.68 4.02 0 3 C0 2.01 0 1.02 0 0 Z " fill="#5C6166" transform="translate(124,179)"/>
<path d="M0 0 C0.33 0.99 0.66 1.98 1 3 C0.03878015 4.6893295 -0.96837199 6.35272302 -2 8 C-2.77284029 10.08133884 -3.47886893 12.1884077 -4.125 14.3125 C-4.62386719 15.91544922 -4.62386719 15.91544922 -5.1328125 17.55078125 C-6.82110329 24.26591984 -7.19495671 30.8607474 -7.1875 37.75 C-7.18669434 38.5349585 -7.18588867 39.31991699 -7.18505859 40.12866211 C-7.11768378 46.57616736 -6.35953839 52.69325246 -5 59 C-4.855625 59.81984375 -4.71125 60.6396875 -4.5625 61.484375 C-3.82635707 65.40170704 -2.86819151 68.50428326 -0.8125 71.9375 C-0.214375 72.948125 0.38375 73.95875 1 75 C0.505 75.99 0.505 75.99 0 77 C-11.33955865 60.93562524 -11.79161427 39.52335519 -9.4375 20.5625 C-8.16720715 14.09895107 -4.75692771 4.75692771 0 0 Z " fill="#323538" transform="translate(90,179)"/>
<path d="M0 0 C4.82832407 6.03540509 7.52786339 11.03155138 6.8125 18.875 C6.38174805 22.0797945 5.88066103 23.17900846 4 26 C3.01 26 2.02 26 1 26 C1 24.02 1 22.04 1 20 C0.01 20 -0.98 20 -2 20 C-2.99 17.03 -3.98 14.06 -5 11 C-5.66 12.32 -6.32 13.64 -7 15 C-7 12.69 -7 10.38 -7 8 C-5.68 7.67 -4.36 7.34 -3 7 C-2.80664062 7.56589844 -2.61328125 8.13179687 -2.4140625 8.71484375 C-2.15367187 9.44832031 -1.89328125 10.18179688 -1.625 10.9375 C-1.36976563 11.66839844 -1.11453125 12.39929688 -0.8515625 13.15234375 C-0.14728587 15.18682116 -0.14728587 15.18682116 2 16 C1.34 10.72 0.68 5.44 0 0 Z " fill="#A3B0BD" transform="translate(157,147)"/>
<path d="M0 0 C1.32 0 2.64 0 4 0 C2.78938694 14.25656169 0.78689749 28.29168179 -1.57470703 42.40087891 C-2.09737042 45.5950663 -2.56128471 48.7933078 -3 52 C-5.35915368 49.64084632 -5.29578429 49.2094159 -5.3125 46 C-5.17388345 38.63199717 -3.68235285 31.41615632 -2.38916016 24.18164062 C-0.93734887 16.04275377 0.28066896 8.27973424 0 0 Z " fill="#161616" transform="translate(160,184)"/>
<path d="M0 0 C2.76276177 0.52268466 5.3260876 1.10869587 8 2 C7.67 7.94 7.34 13.88 7 20 C7.66 18.35 8.32 16.7 9 15 C9.33 15 9.66 15 10 15 C9.67 17.31 9.34 19.62 9 22 C7.68 22.33 6.36 22.66 5 23 C2.36671826 19.05007738 3.26517039 17.62942654 4 13 C4.09237641 9.66472541 4.06040552 6.33572725 4 3 C2.03207019 3.31985586 2.03207019 3.31985586 0 4 C-2.6928281 9.1163734 -2.62873477 15.34138706 -2 21 C-1.34 21.66 -0.68 22.32 0 23 C-1.9375 22.625 -1.9375 22.625 -4 22 C-6.21787609 17.56424782 -5.53728377 11.81269078 -5 7 C-3.64179699 4.06514175 -2.23026899 2.39753916 0 0 Z " fill="#565B61" transform="translate(22,233)"/>
<path d="M0 0 C4.29815591 3.92868692 6.58495182 8.914207 7.359375 14.671875 C7.50503129 19.59505769 7.30363423 22.17058844 4 26 C3.01 25.67 2.02 25.34 1 25 C0.49220463 23.40890784 0.00098973 21.81015017 -0.39453125 20.1875 C-1.55487655 15.99528471 -3.33646946 12.01346931 -5 8 C-4.01 8.33 -3.02 8.66 -2 9 C-1.33333333 11 -0.66666667 13 0 15 C0.99 15.33 1.98 15.66 3 16 C2.68806536 14.27073126 2.37542638 12.54158956 2.0625 10.8125 C1.80146484 9.36810547 1.80146484 9.36810547 1.53515625 7.89453125 C1.0476265 5.25760028 0.53328895 2.6280095 0 0 Z " fill="#6C7075" transform="translate(238,20)"/>
<path d="M0 0 C0.99 0 1.98 0 3 0 C3 1.32 3 2.64 3 4 C2.34 4 1.68 4 1 4 C1.66 5.65 2.32 7.3 3 9 C3.99 8.67 4.98 8.34 6 8 C5.9175 9.093125 5.835 10.18625 5.75 11.3125 C5.72434302 16.12745974 7.30362517 20.00434839 9.0390625 24.44140625 C10.10936231 27.29118825 10.76628094 29.96165224 11 33 C10.67 33.66 10.34 34.32 10 35 C9.01 35 8.02 35 7 35 C7.185625 33.948125 7.37125 32.89625 7.5625 31.8125 C7.95079331 28.42880118 7.88247485 26.23574112 7 23 C6.34 23 5.68 23 5 23 C4.731875 22.195625 4.46375 21.39125 4.1875 20.5625 C3.795625 19.716875 3.40375 18.87125 3 18 C2.01 17.67 1.02 17.34 0 17 C-0.19386492 14.35448944 -0.38038267 11.70882217 -0.5625 9.0625 C-0.61857422 8.30775391 -0.67464844 7.55300781 -0.73242188 6.77539062 C-0.86176157 4.85254042 -0.93516912 2.92610452 -1 1 C-0.67 0.67 -0.34 0.34 0 0 Z " fill="#81888F" transform="translate(194,71)"/>
<path d="M0 0 C0.99 0.33 1.98 0.66 3 1 C3.2960905 7.21790059 3.29667106 13.48914688 0 19 C-2.109375 19.75 -2.109375 19.75 -4 20 C-4.20728634 13.63170309 -4.29743781 7.99886539 -2 2 C-1.34 1.34 -0.68 0.68 0 0 Z " fill="#C4DCF7" transform="translate(30,187)"/>
<path d="M0 0 C3 3 3 3 3.21484375 5.71484375 C1.60742706 24.39257294 1.60742706 24.39257294 -4 30 C-6.625 29.625 -6.625 29.625 -9 29 C-9.125 23.25 -9.125 23.25 -8 21 C-7.01 21 -6.02 21 -5 21 C-5 22.65 -5 24.3 -5 26 C-4.34 26 -3.68 26 -3 26 C-2.01 17.42 -1.02 8.84 0 0 Z " fill="#44484C" transform="translate(58,224)"/>
<path d="M0 0 C1.67542976 0.28604898 3.34385343 0.61781233 5 1 C5 2.65 5 4.3 5 6 C4.34 6 3.68 6 3 6 C3 4.68 3 3.36 3 2 C2.01 2 1.02 2 0 2 C-0.0501123 2.59200195 -0.10022461 3.18400391 -0.15185547 3.79394531 C-1.32003285 17.54188323 -2.58691723 31.2750578 -4 45 C-4.33 45 -4.66 45 -5 45 C-5.11111673 36.16004679 -5.03013654 27.33424342 -4.6875 18.5 C-4.66502197 17.67661133 -4.64254395 16.85322266 -4.61938477 16.00488281 C-4.38685195 10.7974132 -3.90145194 3.90145194 0 0 Z " fill="#292A2C" transform="translate(14,188)"/>
<path d="M0 0 C2.625 -0.1875 2.625 -0.1875 5 0 C5.33 1.32 5.66 2.64 6 4 C6.99 4 7.98 4 9 4 C9.66 2.68 10.32 1.36 11 0 C15.875 0.875 15.875 0.875 17 2 C17.04092937 4.33297433 17.04241723 6.66705225 17 9 C15.68 9 14.36 9 13 9 C13.33 6.69 13.66 4.38 14 2 C11.30274481 3.88807863 9.86783571 5.19824644 8 8 C8 7.34 8 6.68 8 6 C7.34 6 6.68 6 6 6 C6 7.65 6 9.3 6 11 C5.67 11 5.34 11 5 11 C4.67 8.03 4.34 5.06 4 2 C1.20898276 3.20692638 -0.60464028 4.21700243 -2 6.98046875 C-2.73045817 8.964646 -3.37122316 10.98129542 -4 13 C-5.02659786 9.80996773 -5.08734425 9.20380325 -3.6875 5.9375 C-2.52697141 3.91732061 -1.29233853 1.9385078 0 0 Z " fill="#757B83" transform="translate(102,202)"/>
<path d="M0 0 C0.99 0 1.98 0 3 0 C3 0.99 3 1.98 3 3 C2.34 3 1.68 3 1 3 C1.2165625 3.53109375 1.433125 4.0621875 1.65625 4.609375 C1.9346875 5.31578125 2.213125 6.0221875 2.5 6.75 C2.7784375 7.44609375 3.056875 8.1421875 3.34375 8.859375 C4 11 4 11 4 15 C4.66 15 5.32 15 6 15 C11.92482916 28.6332574 11.92482916 28.6332574 10 35 C9.01 35 8.02 35 7 35 C7 33.68 7 32.36 7 31 C7.66 31 8.32 31 9 31 C8.69707031 30.26885986 8.39414063 29.53771973 8.08203125 28.78442383 C6.71228526 25.46410687 5.35603082 22.13844047 4 18.8125 C3.52304687 17.66201172 3.04609375 16.51152344 2.5546875 15.32617188 C2.10351562 14.21435547 1.65234375 13.10253906 1.1875 11.95703125 C0.76855469 10.93585205 0.34960938 9.91467285 -0.08203125 8.86254883 C-0.99031886 6.03018918 -1.26826829 3.94930735 -1 1 C-0.67 0.67 -0.34 0.34 0 0 Z " fill="#54585D" transform="translate(58,139)"/>
<path d="M0 0 C0.33 0 0.66 0 1 0 C1.83626385 33.18466501 1.83626385 33.18466501 -8 47 C-8.495 45.515 -8.495 45.515 -9 44 C-8.01388688 42.3250795 -7.01096553 40.66003809 -6 39 C-5.20223645 36.50450476 -4.52469951 34.1055302 -3.9375 31.5625 C-3.76831055 30.84328369 -3.59912109 30.12406738 -3.42480469 29.38305664 C-1.30748918 19.72152975 -0.67609242 9.84868782 0 0 Z " fill="#2B2D2E" transform="translate(133,209)"/>
<path d="M0 0 C1.32 0 2.64 0 4 0 C4 0.99 4 1.98 4 3 C3.34 3 2.68 3 2 3 C1.91995518 6.5219721 1.95994298 9.61981469 3 13 C3.66 13 4.32 13 5 13 C5.33 10.69 5.66 8.38 6 6 C6.33 6 6.66 6 7 6 C7 9.63 7 13.26 7 17 C5.68 17 4.36 17 3 17 C2.67 18.98 2.34 20.96 2 23 C1.01 23 0.02 23 -1 23 C-1 21.35 -1 19.7 -1 18 C-0.34 18 0.32 18 1 18 C0.68991116 16.39536551 0.37683713 14.79130769 0.0625 13.1875 C-0.11152344 12.29417969 -0.28554687 11.40085938 -0.46484375 10.48046875 C-0.97741153 7.88602829 -0.97741153 7.88602829 -2 5 C-1.0625 2.3125 -1.0625 2.3125 0 0 Z " fill="#505255" transform="translate(81,118)"/>
<path d="M0 0 C1.32 0 2.64 0 4 0 C4 1.32 4 2.64 4 4 C3.34 4 2.68 4 2 4 C2.33 7.3 2.66 10.6 3 14 C3.99 14 4.98 14 6 14 C6 11.69 6 9.38 6 7 C6.33 7 6.66 7 7 7 C7.125 14.75 7.125 14.75 6 17 C5.01 17 4.02 17 3 17 C2.67 18.65 2.34 20.3 2 22 C1.01 22.33 0.02 22.66 -1 23 C-0.67 21.68 -0.34 20.36 0 19 C0.66 19.33 1.32 19.66 2 20 C1.52188823 18.22888156 1.0424722 16.45811517 0.5625 14.6875 C0.29566406 13.70136719 0.02882812 12.71523438 -0.24609375 11.69921875 C-0.78079425 9.78482474 -1.37144538 7.88566385 -2 6 C-1.0625 2.8125 -1.0625 2.8125 0 0 Z " fill="#57595C" transform="translate(217,50)"/>
<path d="M0 0 C3.30199868 -0.1737894 5.01004871 -0.24711755 8 1 C13.18280262 7.00483321 17.33970763 14.26096406 17.125 22.3125 C17.10695312 23.19550781 17.08890625 24.07851563 17.0703125 24.98828125 C17.04710937 25.65214844 17.02390625 26.31601562 17 27 C16.67 27 16.34 27 16 27 C15.77957031 25.62328125 15.77957031 25.62328125 15.5546875 24.21875 C14.00129511 15.71972957 12.39369707 8.79075095 5.0546875 3.6328125 C2.9629906 2.36890366 2.9629906 2.36890366 0 1 C0 0.67 0 0.34 0 0 Z " fill="#6C7279" transform="translate(236,5)"/>
<path d="M0 0 C3.69295349 0 5.92669826 0.1671891 8.8828125 2.4609375 C14.46045949 8.3766237 18.19989909 15.93755058 18.25 24.1875 C18.1675 25.115625 18.085 26.04375 18 27 C17.34 27 16.68 27 16 27 C15.87882812 26.20335937 15.75765625 25.40671875 15.6328125 24.5859375 C14.38116525 16.65498622 14.38116525 16.65498622 12 9 C11.34 9 10.68 9 10 9 C9.608125 8.236875 9.21625 7.47375 8.8125 6.6875 C6.34149981 3.02360316 4.10810485 2.47271683 0 1 C0 0.67 0 0.34 0 0 Z " fill="#6D747A" transform="translate(81,104)"/>
<path d="M0 0 C0.33 0 0.66 0 1 0 C1 6.6 1 13.2 1 20 C5.59037956 18.85240511 6.33669182 17.70960782 9 14 C9.33 16.31 9.66 18.62 10 21 C8.67288808 21.35729936 7.33737094 21.68325425 6 22 C4.989375 22.2475 3.97875 22.495 2.9375 22.75 C0 23 0 23 -1.875 21.5625 C-2.431875 20.7890625 -2.431875 20.7890625 -3 20 C-2.67 19.34 -2.34 18.68 -2 18 C-1.7935257 15.71157647 -1.63352892 13.41883607 -1.5 11.125 C-1.05404006 3.49589952 -1.05404006 3.49589952 0 0 Z " fill="#86909B" transform="translate(146,215)"/>
<path d="M0 0 C0.99 0.33 1.98 0.66 3 1 C3.66666667 3 4.33333333 5 5 7 C5.99 7.33 6.98 7.66 8 8 C8 6.02 8 4.04 8 2 C9.78409802 5.06246747 10.22880021 7.22079273 10.125 10.75 C10.10695312 11.54921875 10.08890625 12.3484375 10.0703125 13.171875 C10.03550781 14.07679687 10.03550781 14.07679687 10 15 C9.01 15.495 9.01 15.495 8 16 C8 15.34 8 14.68 8 14 C7.34 14 6.68 14 6 14 C3.60457417 9.41845739 1.49170266 4.9723422 0 0 Z " fill="#8B96A2" transform="translate(233,28)"/>
<path d="M0 0 C0.33 0 0.66 0 1 0 C1.12117188 0.76183594 1.24234375 1.52367187 1.3671875 2.30859375 C1.89206707 5.5426594 2.43993488 8.77184688 3 12 C3.144375 12.84304687 3.28875 13.68609375 3.4375 14.5546875 C4.19026654 18.43950055 5.14593019 21.52786794 7.1875 24.9375 C8.0846875 26.4534375 8.0846875 26.4534375 9 28 C8.67 28.66 8.34 29.32 8 30 C2.58755354 22.33236752 -1.81129124 13.29976641 -0.75 3.6875 C-0.5025 2.470625 -0.255 1.25375 0 0 Z " fill="#5D6266" transform="translate(82,226)"/>
<path d="M0 0 C0.99 0.495 0.99 0.495 2 1 C2.34479384 2.84184742 2.60045452 4.70069404 2.8125 6.5625 C4.09930712 15.02727806 7.78273094 20.31563972 14 26 C9.68127764 25.52014196 7.74640004 23.2152976 5 20 C0.1758509 13.43599384 -0.67683903 8.04686407 0 0 Z " fill="#71777E" transform="translate(202,58)"/>
<path d="M0 0 C1 4 1 4 0 7 C0.66 7 1.32 7 2 7 C0.57142857 11.28571429 0.57142857 11.28571429 -2 13 C-5.6875 12.6875 -5.6875 12.6875 -9 12 C-9 10.02 -9 8.04 -9 6 C-7.68 5.34 -6.36 4.68 -5 4 C-5.33 6.31 -5.66 8.62 -6 11 C-4.68 11 -3.36 11 -2 11 C-1.34 7.37 -0.68 3.74 0 0 Z " fill="#70767D" transform="translate(104,225)"/>
<path d="M0 0 C0.66 0 1.32 0 2 0 C3.95705296 4.30551652 5.66533995 8.6681436 7.25 13.125 C7.78367188 14.61386719 7.78367188 14.61386719 8.328125 16.1328125 C9.0432359 19.18450668 8.85267174 21.01564891 8 24 C7.01 24 6.02 24 5 24 C5.2784375 22.4221875 5.2784375 22.4221875 5.5625 20.8125 C5.95079331 17.42880118 5.88247485 15.23574112 5 12 C4.34 12 3.68 12 3 12 C2.49440092 10.56445975 1.9957251 9.1264798 1.5 7.6875 C1.2215625 6.88699219 0.943125 6.08648437 0.65625 5.26171875 C0 3 0 3 0 0 Z " fill="#5E6369" transform="translate(196,82)"/>
<path d="M0 0 C1.32 0 2.64 0 4 0 C3.34 6.6 2.68 13.2 2 20 C1.01 19.34 0.02 18.68 -1 18 C-1.05656604 15.23719532 -0.9573703 12.7321383 -0.6875 10 C-0.56639721 8.54166742 -0.44530306 7.08333412 -0.32421875 5.625 C-0.21722656 4.42875 -0.11023438 3.2325 0 2 C0 1.34 0 0.68 0 0 Z " fill="#2C2E2F" transform="translate(160,184)"/>
<path d="M0 0 C0.33 0.33 0.66 0.66 1 1 C0.71269945 3.33944736 0.38063221 5.6739143 0 8 C-0.99 8 -1.98 8 -3 8 C-2.67 5.69 -2.34 3.38 -2 1 C-2.99 1 -3.98 1 -5 1 C-5.33 3.97 -5.66 6.94 -6 10 C-6.33 10 -6.66 10 -7 10 C-8.33264887 2.60985626 -8.33264887 2.60985626 -6.875 -0.0625 C-4.25635043 -1.37182479 -2.73568275 -0.86389982 0 0 Z " fill="#6B7075" transform="translate(72,184)"/>
<path d="M0 0 C2 3 2 3 1.625 6.1875 C1.41875 7.115625 1.2125 8.04375 1 9 C0.01 9 -0.98 9 -2 9 C-1.67 6.69 -1.34 4.38 -1 2 C-2.32 2.33 -3.64 2.66 -5 3 C-5.66 5.64 -6.32 8.28 -7 11 C-7.33 11 -7.66 11 -8 11 C-8.35095944 7.22718603 -8.24849965 5.40824943 -6.25 2.125 C-4 0 -4 0 0 0 Z " fill="#46494C" transform="translate(188,202)"/>
<path d="M0 0 C0.66 0 1.32 0 2 0 C1.53007706 8.47097928 0.74640116 16.69187796 -1 25 C-1.33 25 -1.66 25 -2 25 C-2.24911914 16.41922945 -1.69882188 8.41826913 0 0 Z " fill="#191919" transform="translate(61,208)"/>
<path d="M0 0 C1.32 0 2.64 0 4 0 C4 0.66 4 1.32 4 2 C4.99 2.33 5.98 2.66 7 3 C10.66636232 7.39963479 11.45452339 10.31845765 11 16 C8.25796738 12.51666205 6.2912675 8.86206552 4.28125 4.92578125 C3.07378476 2.68310615 3.07378476 2.68310615 0 2 C0 1.34 0 0.68 0 0 Z " fill="#5B6168" transform="translate(120,46)"/>
<path d="M0 0 C0.33 0 0.66 0 1 0 C1 4.29 1 8.58 1 13 C5.95921854 11.64186541 5.95921854 11.64186541 7.14453125 8.8359375 C7.36496094 8.02382812 7.58539063 7.21171875 7.8125 6.375 C8.04582031 5.55773437 8.27914062 4.74046875 8.51953125 3.8984375 C8.67808594 3.27195313 8.83664063 2.64546875 9 2 C9.66 2 10.32 2 11 2 C10.26083824 7.02629997 8.63107238 11.36892762 5 15 C2.4375 14.75 2.4375 14.75 0 14 C-1.41778293 11.16443413 -0.86257622 9.0091294 -0.5625 5.875 C-0.46066406 4.77929688 -0.35882813 3.68359375 -0.25390625 2.5546875 C-0.17011719 1.71164063 -0.08632812 0.86859375 0 0 Z " fill="#7C838C" transform="translate(107,223)"/>
<path d="M0 0 C0.33 0 0.66 0 1 0 C1.28545428 8.13544686 0.18396883 15.97649696 -1 24 C-3 22 -3 22 -3.3125 18.1875 C-3.20040355 11.95086132 -1.55989788 6.00746387 0 0 Z " fill="#3F4347" transform="translate(26,182)"/>
<path d="M0 0 C1.35083139 2.70166278 0.61599393 4.07088602 0 7 C-0.11261583 8.89351735 -0.17456126 10.79068086 -0.1875 12.6875 C-0.20167969 13.64011719 -0.21585938 14.59273437 -0.23046875 15.57421875 C-0.24258197 18.18212282 -0.24258197 18.18212282 2 20 C0.0625 19.625 0.0625 19.625 -2 19 C-3.40783127 16.18433745 -3.2076814 13.7636293 -3.25 10.625 C-3.27578125 9.48289063 -3.3015625 8.34078125 -3.328125 7.1640625 C-2.97621427 3.77063765 -2.29582784 2.45291079 0 0 Z " fill="#474A4E" transform="translate(20,236)"/>
<path d="M0 0 C0.66 0 1.32 0 2 0 C1.10316551 4.29987533 -1.09617611 7.51554308 -3.5 11.125 C-6.4276193 15.45794084 -6.4276193 15.45794084 -9 20 C-9.66 20 -10.32 20 -11 20 C-10.03176407 15.29545862 -7.5936322 11.76857175 -5.0625 7.75 C-4.60681641 7.00492187 -4.15113281 6.25984375 -3.68164062 5.4921875 C-3.24142578 4.78835937 -2.80121094 4.08453125 -2.34765625 3.359375 C-1.94554932 2.71452148 -1.54344238 2.06966797 -1.12915039 1.40527344 C-0.57022095 0.70966309 -0.57022095 0.70966309 0 0 Z " fill="#788088" transform="translate(187,112)"/>
<path d="M0 0 C0.99 0 1.98 0 3 0 C3 1.65 3 3.3 3 5 C3.99 5.33 4.98 5.66 6 6 C5.01 7.485 5.01 7.485 4 9 C2.35 8.67 0.7 8.34 -1 8 C-1.125 2.25 -1.125 2.25 0 0 Z " fill="#6A7179" transform="translate(50,245)"/>
<path d="M0 0 C0.33 0 0.66 0 1 0 C1.17015625 0.59167969 1.3403125 1.18335938 1.515625 1.79296875 C3.01616973 6.68570237 4.57224913 10.09945591 8 14 C8 14.66 8 15.32 8 16 C9.32 16.33 10.64 16.66 12 17 C10.35 17.33 8.7 17.66 7 18 C2.33741003 11.96857627 0.24326471 7.66283829 0 0 Z " fill="#4E5155" transform="translate(117,51)"/>
<path d="M0 0 C2.72869407 0.03287583 5.2966618 0.56397771 8 1 C7.67 4.63 7.34 8.26 7 12 C6.67 12 6.34 12 6 12 C5.34 9.03 4.68 6.06 4 3 C0.89619499 3.77595125 -1.25002779 4.5268006 -4 6 C-2.84826645 3.53199953 -1.95216435 1.95216435 0 0 Z " fill="#798087" transform="translate(151,202)"/>
<path d="M0 0 C2.95991687 2.95991687 4.41790016 6.64301078 6.26953125 10.37109375 C8.21295793 13.323523 9.87167789 14.43084163 13 16 C13.763125 16.391875 14.52625 16.78375 15.3125 17.1875 C15.869375 17.455625 16.42625 17.72375 17 18 C14.03372171 18.43408951 11.84291823 18.47312185 9.18359375 16.98046875 C4.37957452 13.21403467 1.78290327 8.813815 0 3 C0 2.01 0 1.02 0 0 Z " fill="#606468" transform="translate(67,134)"/>
<path d="M0 0 C2 2 2 2 2 5 C1.11813441 10.28003069 -2.1084444 14.60518919 -5 19 C-5.33 18.01 -5.66 17.02 -6 16 C-5.5875 15.34 -5.175 14.68 -4.75 14 C-2.19344225 9.61732957 -1.20982383 4.89935751 0 0 Z " fill="#6D737A" transform="translate(130,237)"/>
<path d="M0 0 C0.33 0.99 0.66 1.98 1 3 C0.5875 3.680625 0.175 4.36125 -0.25 5.0625 C-2.67621825 9.13508064 -3.7543278 13.45020437 -5 18 C-5.99 18 -6.98 18 -8 18 C-7.37793965 13.80109263 -5.93005303 10.51731506 -4 6.75 C-3.195625 5.16445312 -3.195625 5.16445312 -2.375 3.546875 C-1 1 -1 1 0 0 Z " fill="#727980" transform="translate(90,179)"/>
<path d="M0 0 C0.99 0 1.98 0 3 0 C3.19335938 0.71027344 3.38671875 1.42054688 3.5859375 2.15234375 C3.84632813 3.07144531 4.10671875 3.99054688 4.375 4.9375 C4.63023437 5.85402344 4.88546875 6.77054688 5.1484375 7.71484375 C5.76660104 10.16745087 5.76660104 10.16745087 8 11 C6.68 11 5.36 11 4 11 C3.01 8.69 2.02 6.38 1 4 C0.34 5.32 -0.32 6.64 -1 8 C-1.04241723 5.66705225 -1.04092937 3.33297433 -1 1 C-0.67 0.67 -0.34 0.34 0 0 Z " fill="#6B7075" transform="translate(151,154)"/>
<path d="M0 0 C0.33 0 0.66 0 1 0 C1 3.63 1 7.26 1 11 C-0.32 11 -1.64 11 -3 11 C-3.33 12.98 -3.66 14.96 -4 17 C-4.99 17 -5.98 17 -7 17 C-7 15.35 -7 13.7 -7 12 C-6.34 12 -5.68 12 -5 12 C-3.37485532 10.54166642 -3.37485532 10.54166642 -2 9 C-2.33 8.34 -2.66 7.68 -3 7 C-2.34 7 -1.68 7 -1 7 C-0.67 4.69 -0.34 2.38 0 0 Z " fill="#97A5B4" transform="translate(87,124)"/>
<path d="M0 0 C0.33 0 0.66 0 1 0 C1 3.63 1 7.26 1 11 C1.66 9.35 2.32 7.7 3 6 C3.33 6 3.66 6 4 6 C3.67 8.31 3.34 10.62 3 13 C1.68 13.33 0.36 13.66 -1 14 C-2.4552777 11.0894446 -1.63516661 9.04150948 -1.0625 5.875 C-0.77052734 4.23144531 -0.77052734 4.23144531 -0.47265625 2.5546875 C-0.31667969 1.71164063 -0.16070313 0.86859375 0 0 Z " fill="#87909A" transform="translate(28,242)"/>
<path d="M0 0 C0.33 0 0.66 0 1 0 C1.05386629 2.12472576 1.09273071 4.24983652 1.125 6.375 C1.14820312 7.55835938 1.17140625 8.74171875 1.1953125 9.9609375 C1 13 1 13 -1 15 C-2.58706088 11.82587823 -2.28477127 8.46361333 -2 5 C-1 2 -1 2 0 0 Z " fill="#303234" transform="translate(64,189)"/>
<path d="M0 0 C1.32 0 2.64 0 4 0 C4.05447047 1.41623216 4.09300508 2.83308191 4.125 4.25 C4.14820313 5.03890625 4.17140625 5.8278125 4.1953125 6.640625 C4 9 4 9 2 13 C1.34 8.71 0.68 4.42 0 0 Z " fill="#54595F" transform="translate(25,172)"/>
<path d="M0 0 C1.60372657 4.00931642 0.38691773 7.05823382 -1 11 C-1.66 11.66 -2.32 12.32 -3 13 C-5.125 12.625 -5.125 12.625 -7 12 C-6.67 9.36 -6.34 6.72 -6 4 C-5.67 4 -5.34 4 -5 4 C-5 6.31 -5 8.62 -5 11 C-4.34 10.67 -3.68 10.34 -3 10 C-2.349461 7.91388442 -2.349461 7.91388442 -1.9375 5.5 C-1.09393346 1.09393346 -1.09393346 1.09393346 0 0 Z " fill="#7F878F" transform="translate(163,225)"/>
<path d="M0 0 C2.37706418 3.66539668 2.05094317 6.49056835 1.625 10.75 C1.51414063 11.92046875 1.40328125 13.0909375 1.2890625 14.296875 C1.19367188 15.18890625 1.09828125 16.0809375 1 17 C-1 15 -1 15 -1.23046875 12.79296875 C-1.08669596 4.07510987 -1.08669596 4.07510987 0 0 Z " fill="#2A2C2D" transform="translate(156,219)"/>
<path d="M0 0 C2.625 0.375 2.625 0.375 5 1 C5 1.99 5 2.98 5 4 C3.68 3.67 2.36 3.34 1 3 C-1.32472205 5.85306797 -2.7508258 8.54074837 -4 12 C-5.40253926 7.79238221 -3.90602531 5.88264416 -2 2 C-1.34 1.34 -0.68 0.68 0 0 Z " fill="#7E868E" transform="translate(173,202)"/>
<path d="M0 0 C0.99 0.33 1.98 0.66 3 1 C2.67 2.65 2.34 4.3 2 6 C5.16115776 4.63016497 5.9927092 4.0109362 8 1 C8.33 1.66 8.66 2.32 9 3 C7.68 4.65 6.36 6.3 5 8 C3.35 7.67 1.7 7.34 0 7 C0 4.69 0 2.38 0 0 Z " fill="#595C5F" transform="translate(167,230)"/>
<path d="M0 0 C4.11802304 4.52982535 5.86391466 8.80199445 6.125 14.9375 C6.08375 15.618125 6.0425 16.29875 6 17 C5.67 16.01 5.34 15.02 5 14 C4.34 14 3.68 14 3 14 C2.49528803 12.23050388 1.99639315 10.45934777 1.5 8.6875 C1.2215625 7.70136719 0.943125 6.71523437 0.65625 5.69921875 C0 3 0 3 0 0 Z " fill="#53565A" transform="translate(157,147)"/>
<path d="M0 0 C1.65 0.33 3.3 0.66 5 1 C5 2.65 5 4.3 5 6 C4.34 6 3.68 6 3 6 C3 4.68 3 3.36 3 2 C2.01 2 1.02 2 0 2 C-0.33 4.31 -0.66 6.62 -1 9 C-2.1875 7.3125 -2.1875 7.3125 -3 5 C-1.625 2.25 -1.625 2.25 0 0 Z " fill="#686E75" transform="translate(14,188)"/>
<path d="M0 0 C0.33 0 0.66 0 1 0 C1.125 7.75 1.125 7.75 0 10 C-0.99 10 -1.98 10 -3 10 C-3.33 11.65 -3.66 13.3 -4 15 C-4.99 15.33 -5.98 15.66 -7 16 C-6.67 14.68 -6.34 13.36 -6 12 C-5.34 12.33 -4.68 12.66 -4 13 C-4 11.68 -4 10.36 -4 9 C-2.68 8.34 -1.36 7.68 0 7 C0 4.69 0 2.38 0 0 Z " fill="#818A94" transform="translate(223,57)"/>
<path d="M0 0 C0.99 0 1.98 0 3 0 C3 0.99 3 1.98 3 3 C2.34 3 1.68 3 1 3 C1.66 5.31 2.32 7.62 3 10 C2.01 9.67 1.02 9.34 0 9 C-0.87890625 2.84765625 -0.87890625 2.84765625 -1 1 C-0.67 0.67 -0.34 0.34 0 0 Z " fill="#737A80" transform="translate(58,139)"/>
<path d="M0 0 C0.66 0 1.32 0 2 0 C2 2.31 2 4.62 2 7 C0.68 7 -0.64 7 -2 7 C-2.125 4.625 -2.125 4.625 -2 2 C-1.34 1.34 -0.68 0.68 0 0 Z " fill="#4E5357" transform="translate(117,204)"/>
<path d="M0 0 C1.32 0.33 2.64 0.66 4 1 C3.21625 1.165 2.4325 1.33 1.625 1.5 C-1.1093471 2.70396899 -1.1093471 2.70396899 -1.77734375 4.9140625 C-2.26413052 6.92516699 -2.63853255 8.962638 -3 11 C-3.33 11 -3.66 11 -4 11 C-4.36630156 7.06225823 -4.30233203 5.43460229 -2 2.125 C-1.34 1.42375 -0.68 0.7225 0 0 Z " fill="#767C83" transform="translate(184,202)"/>
<path d="M0 0 C0.66 0 1.32 0 2 0 C1.67 2.31 1.34 4.62 1 7 C0.01 7 -0.98 7 -2 7 C-2 5.35 -2 3.7 -2 2 C-1.34 2 -0.68 2 0 2 C0 1.34 0 0.68 0 0 Z " fill="#494D52" transform="translate(71,185)"/>
<path d="M0 0 C0.99 0 1.98 0 3 0 C3 1.65 3 3.3 3 5 C4.65 4.34 6.3 3.68 8 3 C7.01 4.485 7.01 4.485 6 6 C4.35 5.67 2.7 5.34 1 5 C0.67 3.35 0.34 1.7 0 0 Z " fill="#696C70" transform="translate(0,242)"/>
<path d="M0 0 C1.32 0.33 2.64 0.66 4 1 C4 1.99 4 2.98 4 4 C4.99 3.67 5.98 3.34 7 3 C6.34 4.32 5.68 5.64 5 7 C4.01 7 3.02 7 2 7 C2.04125 6.21625 2.0825 5.4325 2.125 4.625 C2.28728734 1.83883881 2.28728734 1.83883881 0 0 Z " fill="#AEBDCD" transform="translate(167,229)"/>
<path d="M0 0 C2.35333796 4.70667591 2.17102038 6.8693886 2 12 C1.67 11.01 1.34 10.02 1 9 C0.34 9 -0.32 9 -1 9 C-0.67 6.03 -0.34 3.06 0 0 Z " fill="#2A2B2B" transform="translate(105,223)"/>
<path d="M0 0 C1.32 0 2.64 0 4 0 C4 1.32 4 2.64 4 4 C3.34 4 2.68 4 2 4 C1.67 4.66 1.34 5.32 1 6 C0.34 6 -0.32 6 -1 6 C-0.67 4.02 -0.34 2.04 0 0 Z " fill="#8C969F" transform="translate(217,50)"/>
<path d="M0 0 C1.32 0.33 2.64 0.66 4 1 C4.33 3.64 4.66 6.28 5 9 C4.731875 8.360625 4.46375 7.72125 4.1875 7.0625 C3.11332248 4.66868314 3.11332248 4.66868314 0 4 C0 2.68 0 1.36 0 0 Z " fill="#777F88" transform="translate(228,51)"/>
<path d="M0 0 C1.32 0 2.64 0 4 0 C4 0.99 4 1.98 4 3 C3.34 3 2.68 3 2 3 C1.67 3.99 1.34 4.98 1 6 C0.01 5.67 -0.98 5.34 -2 5 C-1.34 3.35 -0.68 1.7 0 0 Z " fill="#8D959E" transform="translate(81,118)"/>
<path d="M0 0 C-0.33 2.31 -0.66 4.62 -1 7 C-1.99 7 -2.98 7 -4 7 C-4 3 -4 3 -2.5625 1.25 C-1 0 -1 0 0 0 Z " fill="#868E97" transform="translate(69,167)"/>
<path d="M0 0 C0.33 0 0.66 0 1 0 C0.67 2.31 0.34 4.62 0 7 C-0.99 7 -1.98 7 -3 7 C-3 5.35 -3 3.7 -3 2 C-2.34 2 -1.68 2 -1 2 C-0.67 1.34 -0.34 0.68 0 0 Z " fill="#808890" transform="translate(83,134)"/>
<path d="M0 0 C2.64 0.99 5.28 1.98 8 3 C7.67 3.66 7.34 4.32 7 5 C4.625 4.75 4.625 4.75 2 4 C0.6875 1.9375 0.6875 1.9375 0 0 Z " fill="#6F7479" transform="translate(143,233)"/>
<path d="M0 0 C2.0625 0.4375 2.0625 0.4375 4 1 C3 3 3 3 -0.0625 4.125 C-1.031875 4.41375 -2.00125 4.7025 -3 5 C-1.125 1.125 -1.125 1.125 0 0 Z " fill="#B5C9DF" transform="translate(152,204)"/>
</svg>
