<svg xmlns="http://www.w3.org/2000/svg" xmlns:xlink="http://www.w3.org/1999/xlink" width="1025" height="1025" viewBox="0 0 1025 1025"><defs><linearGradient id="a" x1="0.074" y1="0.055" x2="0.919" y2="0.944" gradientUnits="objectBoundingBox"><stop offset="0" stop-color="#00c4f5"/><stop offset="1" stop-color="#88c224"/></linearGradient><clipPath id="c"><rect width="1025" height="1025"/></clipPath></defs><g id="b" clip-path="url(#c)"><path d="M125,0H900a125,125,0,0,1,125,125V900a125,125,0,0,1-125,125H125A125,125,0,0,1,0,900V125A125,125,0,0,1,125,0Z" fill="url(#a)"/><path d="M259.882,658.43c-8.123-5.551-34.719-24.123-40.282-56.913-6.058-35.708-1.774-57.174,36.416-111.5s57.36-91.035,69.414-132.216-2.278-87-2.278-87,79.555-4.129,79.555-4.1c0,.086,10.513,43.679,3.16,96.216S369,468.049,352.53,494.178s-60.857,76.951-27.1,98.341c11.943,6.85,55.321-2.643,88.677-8.684s64.225-15.295,64.225-15.295l22.9,71.29s-46.89,12.967-94.212,21.08-79.981,11.371-95.077,11.371C289.4,672.282,272.368,666.963,259.882,658.43ZM80.122,422.475s-24.17-5.632-44.2-15.826S0,381.7,0,381.7l30.538-67.064s21.153,16,39.21,23.606a285.16,285.16,0,0,0,37.631,12.371s26.015,6.738,45.627,4.314,31.95-4.245,41.154-14.015a25.219,25.219,0,0,0,5.743-10.1,42.192,42.192,0,0,0,1.423-14.657c-1.92-32.742-19.387-40.735-48.32-53.984a394.876,394.876,0,0,1-40.342-20.57C60.215,210.316,39.3,195.875,27.712,168.145a100.686,100.686,0,0,1-8.222-43.408A96.169,96.169,0,0,1,30.63,84.375,138.5,138.5,0,0,1,58.875,48.062a225.852,225.852,0,0,1,43.084-31.246C121.522,5.659,148.117,0,180.992,0a350.212,350.212,0,0,1,41.4,2.63c11.668,1.4,23.733,3.34,35.872,5.779,19.62,3.94,33.294,7.957,34.785,8.4h.016l-41.512,88.926h-.026c-1.123-.32-11.4-3.219-25.539-6.41A414.9,414.9,0,0,0,173,90.573c-3.711-.316-7.322-.481-10.762-.481a78.3,78.3,0,0,0-23.505,3.2,39.54,39.54,0,0,0-16.759,9.863c-6.556,6.777-9.691,16.05-9.318,27.565a20.806,20.806,0,0,0,5.816,12.871,69.591,69.591,0,0,0,14.869,12.224c12.361,8.035,29.006,15.9,46.629,24.235h.01l.016.011.051.026c13.3,6.29,27.051,12.788,39.867,19.793a192.237,192.237,0,0,1,34.174,22.76,113.088,113.088,0,0,1,37.569,64.288,135.76,135.76,0,0,1,2.308,33.265,163.787,163.787,0,0,1-4.476,30.427,64.145,64.145,0,0,1-12.7,25.1,102.116,102.116,0,0,1-21.56,19.539c-13.519,9.376-30.655,17.671-52.387,25.369-14.9,5.276-36.586,8.181-61.06,8.181C116.824,428.805,80.122,422.475,80.122,422.475Z" transform="translate(267.269 175.871)" fill="#db0056"/><path d="M659-2026c-15.386,0-30.9-.757-46.112-2.251-15-1.472-30.063-3.7-44.781-6.607a460.235,460.235,0,0,1-84.655-25.4,456.136,456.136,0,0,1-76.611-40.2,451.374,451.374,0,0,1-66.746-53.239,442.687,442.687,0,0,1-55.072-64.528,431.608,431.608,0,0,1-41.581-74.06,423.232,423.232,0,0,1-26.279-81.842,423.131,423.131,0,0,1-6.835-43.291A428.023,428.023,0,0,1,208-2462a428.067,428.067,0,0,1,2.328-44.58,423.422,423.422,0,0,1,6.835-43.29,423.167,423.167,0,0,1,26.279-81.841,431.622,431.622,0,0,1,41.581-74.062,442.755,442.755,0,0,1,55.072-64.528,451.448,451.448,0,0,1,66.746-53.24,456.111,456.111,0,0,1,76.611-40.2,460.01,460.01,0,0,1,84.655-25.405c14.7-2.909,29.769-5.133,44.781-6.609C628.1-2897.243,643.615-2898,659-2898s30.9.757,46.112,2.249c15.006,1.475,30.072,3.7,44.779,6.609a459.985,459.985,0,0,1,84.657,25.405,456.141,456.141,0,0,1,76.609,40.2A451.442,451.442,0,0,1,977.9-2770.3a442.535,442.535,0,0,1,55.071,64.528,431.545,431.545,0,0,1,41.583,74.062,423.178,423.178,0,0,1,26.279,81.841,423.421,423.421,0,0,1,6.834,43.29A428.219,428.219,0,0,1,1110-2462a428.227,428.227,0,0,1-2.329,44.578,423.72,423.72,0,0,1-6.834,43.291,423.238,423.238,0,0,1-26.279,81.841,431.649,431.649,0,0,1-41.583,74.061A442.765,442.765,0,0,1,977.9-2153.7a451.415,451.415,0,0,1-66.747,53.239,456.165,456.165,0,0,1-76.609,40.2,460.178,460.178,0,0,1-84.657,25.4c-14.72,2.912-29.785,5.135-44.779,6.607C689.9-2026.757,674.386-2026,659-2026Zm.645-822.1c-220.576,0-400.028,173.484-400.028,386.724s179.452,386.724,400.028,386.724a410.394,410.394,0,0,0,131.788-21.561c9.674-3.272,19.371-6.97,28.819-10.99,1.741-.293,3.494-.591,5.211-.886,48.193-8.283,95.013-21.208,96.982-21.754a29.537,29.537,0,0,0,10.6-5.417,29.631,29.631,0,0,0,7.635-9.152,29.7,29.7,0,0,0,3.445-11.422,29.719,29.719,0,0,0-1.3-11.86l-5.106-15.934a396.626,396.626,0,0,0,36.1-38.619,386.537,386.537,0,0,0,46.142-71.22,376.071,376.071,0,0,0,29.392-80.459,375.107,375.107,0,0,0,10.315-87.449C1059.674-2674.617,880.221-2848.1,659.644-2848.1Zm-3.632,732.27h0c-11.22-.09-22.532-.688-33.622-1.776-11.909-1.169-23.872-2.933-35.555-5.245a365.4,365.4,0,0,1-67.217-20.171,362.279,362.279,0,0,1-60.827-31.918,358.342,358.342,0,0,1-53-42.272,351.573,351.573,0,0,1-43.727-51.234,342.736,342.736,0,0,1-33.016-58.8,336.184,336.184,0,0,1-20.866-64.982,336.42,336.42,0,0,1-5.425-34.371,340.085,340.085,0,0,1-1.849-35.4,340.068,340.068,0,0,1,1.849-35.4,336.306,336.306,0,0,1,5.425-34.372,336.237,336.237,0,0,1,20.866-64.982,342.823,342.823,0,0,1,33.016-58.8,351.516,351.516,0,0,1,43.727-51.234c1.648-1.594,3.338-3.2,5.022-4.76a128.527,128.527,0,0,0-7.094,36.264,131.561,131.561,0,0,0,2.2,28.695c-3.676,4.695-7.252,9.543-10.627,14.411a304.543,304.543,0,0,0-28.965,51.938,298.02,298.02,0,0,0-18.3,57.3,298.54,298.54,0,0,0-6.382,61.436,298.573,298.573,0,0,0,6.388,61.473,298.039,298.039,0,0,0,18.322,57.327,304.621,304.621,0,0,0,28.993,51.959,312.671,312.671,0,0,0,38.4,45.369,318.7,318.7,0,0,0,46.545,37.56,321.8,321.8,0,0,0,53.426,28.526,323.8,323.8,0,0,0,59.044,18.272c7.88,1.634,15.952,2.994,23.992,4.042,9.069,15.542,22.276,29.385,39.254,41.147Zm-53.787-88.555h0a273.791,273.791,0,0,1-50.329-15.1,271.381,271.381,0,0,1-45.556-23.9,268.322,268.322,0,0,1-39.691-31.66,263.218,263.218,0,0,1-32.748-38.372,256.628,256.628,0,0,1-24.726-44.041,252.487,252.487,0,0,1-12.3-34.9c3.233,2.8,8.5,7.166,15.27,12.017a190.37,190.37,0,0,0,24.218,14.882c5.051,2.577,10.7,5.1,16.777,7.492,3.311,6.235,6.98,12.4,10.9,18.315a224.533,224.533,0,0,0,44.348,49.135,229.829,229.829,0,0,0,57.475,34.673,232.464,232.464,0,0,0,37.893,12.162c-2.565,12.419-3.053,24.906-1.533,39.3Zm321.125-24.1v0l-3.392-10.585a29.811,29.811,0,0,0-8.33-12.967,29.891,29.891,0,0,0-13.23-6.954c2.813-3.1,5.6-6.3,8.3-9.512a307.512,307.512,0,0,0,37.966-57.268,299,299,0,0,0,24.215-64.966,298.041,298.041,0,0,0,8.506-70.771,298.825,298.825,0,0,0-5.529-57.241,297.686,297.686,0,0,0-15.911-53.735,303.25,303.25,0,0,0-25.279-49.252,310.858,310.858,0,0,0-33.633-43.786,317.181,317.181,0,0,0-40.974-37.341,321.02,321.02,0,0,0-47.3-29.917,322.933,322.933,0,0,0-52.615-21.511c-8.665-2.679-17.584-5.025-26.508-6.975l3.933-8.451a29.863,29.863,0,0,0,.182-24.814,29.814,29.814,0,0,0-4.358-6.966l.43.082,1.349.265a365.3,365.3,0,0,1,67.217,20.171,362.173,362.173,0,0,1,60.826,31.917,358.35,358.35,0,0,1,53,42.272,351.491,351.491,0,0,1,43.727,51.234,342.8,342.8,0,0,1,33.016,58.8,336.215,336.215,0,0,1,20.865,64.982,336.53,336.53,0,0,1,5.426,34.372,340.314,340.314,0,0,1,1.849,35.4,340.334,340.334,0,0,1-1.849,35.4,336.481,336.481,0,0,1-5.426,34.371,336.109,336.109,0,0,1-20.865,64.982,342.848,342.848,0,0,1-33.016,58.8,351.232,351.232,0,0,1-32.582,39.965Zm-165.937-5.038h0c3.868-11.424,17.2-30.652,23.6-39.893l.013-.019.383-.552c4.072-2.592,8.117-5.35,12.021-8.2a225.878,225.878,0,0,0,48.162-47.61,217.217,217.217,0,0,0,31.555-59.9,213.1,213.1,0,0,0,11.323-68.691c0-53.161-19.917-104.55-56.081-144.7a230.561,230.561,0,0,0-138.568-73.522,29.959,29.959,0,0,0,2.3-4.08L707.165-2713c1.074.2,2.14.4,3.17.607a273.847,273.847,0,0,1,50.341,15.108,271.422,271.422,0,0,1,45.556,23.9,268.4,268.4,0,0,1,39.692,31.66,263.291,263.291,0,0,1,32.748,38.372,256.838,256.838,0,0,1,24.727,44.039,251.771,251.771,0,0,1,15.628,48.667,252.9,252.9,0,0,1,5.448,52.254,252.894,252.894,0,0,1-5.448,52.252,251.708,251.708,0,0,1-15.628,48.667,256.772,256.772,0,0,1-24.727,44.041,263.329,263.329,0,0,1-32.748,38.372,268.465,268.465,0,0,1-39.692,31.66c-1.75,1.143-3.543,2.284-5.328,3.39-15.991,2.974-32.328,5.818-43.49,6.485ZM389.228-2434.459v0c-.75-7.922-1.131-15.971-1.131-23.923a252.9,252.9,0,0,1,5.448-52.254,251.716,251.716,0,0,1,15.627-48.667,256.478,256.478,0,0,1,18.963-35.427c7.362,9.833,16.648,18.84,29.225,28.345a216.483,216.483,0,0,0-17.077,36.835c-1.989,5.625-3.76,11.4-5.264,17.149a29.856,29.856,0,0,0-17.61,15.9l-28.18,62.041ZM571.58-2663.226h0c-3.366-1.888-6.287-3.641-8.928-5.36a39.163,39.163,0,0,1-6.252-4.772,5.13,5.13,0,0,1,.31-1.344,9.821,9.821,0,0,1,4.227-2.46,48.349,48.349,0,0,1,13.726-1.993l1.325.012c2.463,0,5.236.119,7.808.336,9.482.943,19.084,2.266,28.54,3.932-5.793,1.1-11.618,2.43-17.313,3.965a232.492,232.492,0,0,0-23.443,7.684h0Z" transform="translate(-147 2975)" fill="#fff" opacity="0.6"/></g></svg>