<svg xmlns="http://www.w3.org/2000/svg" xmlns:svg="http://www.w3.org/2000/svg" id="Layer_1" width="328" height="328" data-name="Layer 1" version="1.1" viewBox="0 0 328 328"><title id="title820">Tauno Serial Plotter</title><metadata id="metadata13"/><defs id="defs4"><style id="style2"/><linearGradient id="SVGID_2_" x1="1.792" x2="1.792" y1="768.495" y2="767.795" gradientTransform="matrix(448,0,0,-448,-447,344513)" gradientUnits="userSpaceOnUse"><stop id="stop27" offset="0" style="stop-color:#4d4d4d"/><stop id="stop29" offset="1" style="stop-color:#444"/></linearGradient><linearGradient id="SVGID_3_" x1="1.987" x2="2.047" y1="767.586" y2="767.887" gradientTransform="matrix(256,0,0,-170.6667,-159,131463.47)" gradientUnits="userSpaceOnUse"><stop id="stop38" offset="0" style="stop-color:#ff9700"/><stop id="stop40" offset=".53" style="stop-color:#f48e00"/><stop id="stop42" offset="1" style="stop-color:#ce6e00"/></linearGradient><linearGradient id="SVGID_3_-2" x1="1.987" x2="2.047" y1="767.586" y2="767.887" gradientTransform="matrix(256,0,0,-170.6667,62.587857,131236.34)" gradientUnits="userSpaceOnUse"><stop id="stop38-9" offset="0" style="stop-color:#ff9700"/><stop id="stop40-1" offset=".53" style="stop-color:#f48e00"/><stop id="stop42-2" offset="1" style="stop-color:#ce6e00"/></linearGradient></defs><g style="stroke-width:1.00039633;stroke-miterlimit:10;stroke-dasharray:none" id="g34" transform="matrix(1.044586,0,0,1.044586,-207.87261,-237.12102)"><linearGradient id="linearGradient173" x1="1.792" x2="1.792" y1="768.495" y2="767.795" gradientTransform="matrix(448,0,0,-448,-447,344513)" gradientUnits="userSpaceOnUse"><stop id="stop169" offset="0" style="stop-color:#4d4d4d"/><stop id="stop171" offset="1" style="stop-color:#444"/></linearGradient><g style="stroke-width:1.00039633;stroke-miterlimit:10;stroke-dasharray:none" id="g198"><path style="fill:url(#SVGID_2_);stroke-width:1.00039633;stroke-miterlimit:10;stroke-dasharray:none" id="path32" d="m 218.6,227 h 274.8 c 10.8,0 19.6,8.8 19.6,19.6 v 274.8 c 0,10.8 -8.8,19.6 -19.6,19.6 H 218.6 C 207.8,541 199,532.2 199,521.4 V 246.6 c 0,-10.8 8.8,-19.6 19.6,-19.6 z" class="st4"/></g></g><path style="line-height:normal;font-variant-ligatures:normal;font-variant-position:normal;font-variant-caps:normal;font-variant-numeric:normal;font-variant-alternates:normal;font-feature-settings:normal;text-indent:0;text-align:start;text-decoration:none;text-decoration-line:none;text-decoration-style:solid;text-decoration-color:#000;text-transform:none;text-orientation:mixed;white-space:normal;shape-padding:0;isolation:auto;mix-blend-mode:normal;solid-color:#000;solid-opacity:1;stroke:#f7941d;stroke-linecap:butt;stroke-linejoin:round;stroke-opacity:1;fill:#f7941d;fill-opacity:1" id="path8" d="M 91.189453,65.873047 C 82.006116,66.072186 72.935119,69.11391 65.44839,74.427045 56.79924,80.488459 50.297699,89.146418 45.390179,98.401707 39.281152,109.97141 35.346544,122.56698 32.549374,135.31113 c -1.977437,9.22592 -3.413166,18.57991 -4.101588,27.99293 -0.06439,1.32034 -0.204855,2.66549 -0.114686,3.97503 0.356266,0.54175 0.333441,1.48206 1.091368,1.60153 1.075157,0.57685 2.314869,0.24174 3.480175,0.31899 2.4938,-0.0426 5.012406,0.0263 7.490837,-0.0853 0.579809,-0.36873 1.525518,-0.39392 1.62783,-1.21096 0.483764,-1.02792 0.234781,-2.20788 0.401493,-3.30922 0.683737,-9.67705 2.1792,-19.29223 4.354494,-28.74455 0.888527,-3.85127 1.956499,-7.84162 3.152354,-11.68009 0.546112,-1.74778 1.146066,-3.56371 1.735473,-5.18993 3.224729,-8.95801 7.376675,-17.72085 13.403924,-25.153249 4.636179,-5.683168 10.629266,-10.547233 17.763489,-12.620182 5.947947,-1.782657 12.304935,-1.609825 18.375993,-0.608082 7.59155,1.274728 14.74901,4.815781 20.44741,9.97968 4.39948,3.903726 8.03505,8.593099 11.19362,13.535523 0.25725,0.42694 0.71395,1.14362 1.04318,1.68563 6.50569,10.84132 10.84213,22.82184 14.35927,34.9198 1.69553,5.8879 3.14583,11.75507 4.47418,17.75403 1.74851,7.92637 3.21258,15.93198 4.52837,23.99485 2.35135,13.89791 5.69745,27.74082 11.4462,40.65686 4.55254,10.14907 10.77213,19.80007 19.44602,26.90684 7.80721,6.46316 17.54797,10.43526 27.58977,11.63044 15.32912,1.86513 31.26245,-1.71847 44.28919,-10.02057 10.28555,-6.48469 18.65624,-15.75561 24.6721,-26.27828 8.06728,-14.03231 12.21481,-30.00062 13.97462,-46.00169 1.09593,-10.03483 1.25136,-20.15634 0.7689,-30.23424 -0.34066,-0.47951 -0.43039,-1.25163 -0.93627,-1.53848 -0.72639,-0.30475 -1.47297,-0.45841 -2.2581,-0.32338 -2.98851,0.17492 -6.00637,0.24076 -8.97653,0.48388 -0.5623,0.39479 -1.51331,0.45958 -1.56871,1.28471 -0.46668,1.1243 -0.0813,2.36536 -0.12822,3.54718 0.5353,15.40212 -0.54209,31.00154 -4.75892,45.87997 -3.35799,11.80432 -8.86183,23.21216 -17.29485,32.24109 -6.9774,7.55112 -16.0742,13.19174 -26.06457,15.72048 -2.54126,0.65294 -5.13012,1.11644 -7.73844,1.39987 -0.344,0.0312 -1.1366,0.11503 -1.65855,0.15181 -8.25987,0.60675 -16.87109,-0.3204 -24.29365,-4.21405 -7.94103,-4.12097 -14.00042,-11.1283 -18.40635,-18.79419 -2.39473,-4.13269 -4.36975,-8.4964 -6.0809,-12.95217 -0.18601,-0.51516 -0.53414,-1.42978 -0.7229,-1.94833 -0.53572,-1.50204 -1.01648,-2.89799 -1.50922,-4.45219 -3.15444,-9.79932 -5.13952,-19.92562 -6.75494,-30.07858 -3.01166,-17.56612 -6.79029,-35.07578 -12.77662,-51.8929 -4.14518,-11.49042 -9.33073,-22.74339 -16.6905,-32.553946 C 134.26002,82.347675 125.72999,74.89718 115.63371,70.543345 107.9631,67.1912 99.543796,65.688844 91.189453,65.873047 Z"/></svg>