<?xml version="1.0" encoding="UTF-8" standalone="no"?>
<!-- Created with Inkscape (http://www.inkscape.org/) -->

<svg
   width="288.89551mm"
   height="288.89563mm"
   viewBox="0 0 288.89551 288.89563"
   version="1.1"
   id="svg5"
   inkscape:version="1.2.2 (b0a8486541, 2022-12-01)"
   sodipodi:docname="buhoLogo.svg"
   xmlns:inkscape="http://www.inkscape.org/namespaces/inkscape"
   xmlns:sodipodi="http://sodipodi.sourceforge.net/DTD/sodipodi-0.dtd"
   xmlns="http://www.w3.org/2000/svg"
   xmlns:svg="http://www.w3.org/2000/svg">
  <sodipodi:namedview
     id="namedview7"
     pagecolor="#505050"
     bordercolor="#eeeeee"
     borderopacity="1"
     inkscape:showpageshadow="0"
     inkscape:pageopacity="0"
     inkscape:pagecheckerboard="0"
     inkscape:deskcolor="#505050"
     inkscape:document-units="mm"
     showgrid="false"
     inkscape:zoom="0.22627418"
     inkscape:cx="24576.379"
     inkscape:cy="-1754.5086"
     inkscape:window-width="1856"
     inkscape:window-height="1054"
     inkscape:window-x="60"
     inkscape:window-y="20"
     inkscape:window-maximized="1"
     inkscape:current-layer="g1260-0-1"
     showguides="false" />
  <defs
     id="defs2">
    <rect
       x="-961.6134"
       y="419.42874"
       width="979.75488"
       height="605.25385"
       id="rect4240-36-5-29-0-9-7" />
  </defs>
  <g
     inkscape:label="Layer 1"
     inkscape:groupmode="layer"
     id="layer1"
     transform="translate(-6282.904,527.13939)">
    <rect
       style="fill:#8f3c38;fill-opacity:1;stroke-width:0.206448;paint-order:stroke fill markers"
       id="rect9995-2-4-7"
       width="288.89563"
       height="288.89563"
       x="6282.9038"
       y="-527.1394"
       inkscape:export-filename="icon.svg"
       inkscape:export-xdpi="45.015579"
       inkscape:export-ydpi="45.015579"
       rx="29.087116"
       ry="29.087116" />
    <rect
       style="fill:#d35f5f;fill-opacity:1;stroke-width:0.188569;paint-order:stroke fill markers"
       id="rect10893-2-9-1"
       width="263.87576"
       height="263.87576"
       x="6295.4141"
       y="-514.80341"
       inkscape:export-filename="logo.svg"
       inkscape:export-xdpi="65.770905"
       inkscape:export-ydpi="65.770905"
       rx="19.839458"
       ry="19.839458" />
    <g
       id="g1260-0-1"
       transform="matrix(0.86209055,0,0,0.86209055,2201.6105,-59.895448)">
      <g
         aria-label="BU
HO"
         transform="matrix(0.5257515,0,0,0.5257515,5194.2158,-664.93336)"
         id="text4238-5-2-70-9-9-5"
         style="font-size:192px;line-height:0.75;white-space:pre;shape-inside:url(#rect4240-36-5-29-0-9-7);display:inline;fill:#ffffff">
        <path
           d="M -596.09973,549.11983 V 409.48346 h 60.54545 q 15.95455,0 26.79546,4.29546 10.90909,4.29545 16.43182,12.13636 5.5909,7.84091 5.5909,18.47728 0,7.70454 -3.40909,14.04545 -3.34091,6.34091 -9.40909,10.63636 -6.06818,4.22728 -14.18182,5.86364 v 1.36364 q 9,0.34091 16.36364,4.56818 7.36364,4.15909 11.72727,11.52273 4.36364,7.29545 4.36364,17.18181 0,11.45455 -6,20.38637 -5.93182,8.93182 -16.90909,14.04545 -10.97727,5.11364 -26.18182,5.11364 z m 37.90909,-30.27273 h 17.72727 q 9.54546,0 14.31818,-3.54545 4.77273,-3.61364 4.77273,-10.63637 0,-4.90909 -2.25,-8.31818 -2.25,-3.40909 -6.40909,-5.18182 -4.09091,-1.77272 -9.88636,-1.77272 h -18.27273 z m 0,-52.90909 h 15.54545 q 4.97728,0 8.79546,-1.56818 3.81818,-1.56818 5.93182,-4.5 2.18181,-3 2.18181,-7.29546 0,-6.47727 -4.63636,-9.88636 -4.63636,-3.47727 -11.72727,-3.47727 h -16.09091 z"
           style="font-weight:900;font-family:Inter;-inkscape-font-specification:'Inter Heavy';text-align:center;text-anchor:middle"
           id="path10645" />
        <path
           d="m -385.28185,409.48346 h 37.90909 v 89.45455 q 0,15.95455 -7.63636,27.61364 -7.56818,11.59091 -21.13637,17.93181 -13.56818,6.27273 -31.5,6.27273 -18.06818,0 -31.63636,-6.27273 -13.56818,-6.3409 -21.13636,-17.93181 -7.5,-11.65909 -7.5,-27.61364 v -89.45455 h 37.90909 v 86.18182 q 0,6.47728 2.86363,11.59091 2.86364,5.04546 7.9091,7.90909 5.11363,2.86364 11.5909,2.86364 6.54546,0 11.59091,-2.86364 5.04546,-2.86363 7.90909,-7.90909 2.86364,-5.11363 2.86364,-11.59091 z"
           style="font-weight:900;font-family:Inter;-inkscape-font-specification:'Inter Heavy';text-align:center;text-anchor:middle"
           id="path10647" />
        <path
           d="M -596.64803,693.11981 V 567.96345 h 33.97799 v 48.8892 h 44.97807 v -48.8892 h 33.978 v 125.15636 h -33.978 v -48.8892 h -44.97807 v 48.8892 z"
           style="font-weight:900;font-size:172.09px;font-family:Inter;-inkscape-font-specification:'Inter Heavy';text-align:center;text-anchor:middle"
           id="path10649" />
        <path
           d="m -346.33564,630.54163 q 0,20.90014 -8.12783,35.26134 -8.12783,14.30009 -21.93903,21.69458 -13.8112,7.33338 -30.8002,7.33338 -17.11122,0 -30.92242,-7.39449 -13.75009,-7.4556 -21.87792,-21.75569 -8.06672,-14.36121 -8.06672,-35.13912 0,-20.90013 8.06672,-35.20022 8.12783,-14.36121 21.87792,-21.69459 13.8112,-7.39449 30.92242,-7.39449 16.989,0 30.8002,7.39449 13.8112,7.33338 21.93903,21.69459 8.12783,14.30009 8.12783,35.20022 z m -34.95578,0 q 0,-11.24452 -2.99446,-18.94456 -2.93336,-7.76117 -8.73895,-11.73341 -5.74448,-4.03336 -14.17787,-4.03336 -8.43339,0 -14.23898,4.03336 -5.74448,3.97224 -8.73894,11.73341 -2.93336,7.70004 -2.93336,18.94456 0,11.24452 2.93336,19.00568 2.99446,7.70005 8.73894,11.73341 5.80559,3.97225 14.23898,3.97225 8.43339,0 14.17787,-3.97225 5.80559,-4.03336 8.73895,-11.73341 2.99446,-7.76116 2.99446,-19.00568 z"
           style="font-weight:900;font-size:172.09px;font-family:Inter;-inkscape-font-specification:'Inter Heavy';text-align:center;text-anchor:middle"
           id="path10651" />
      </g>
      <path
         id="rect4346-1-9-3-1-9"
         style="fill:#ffffff;stroke-width:0.166978;paint-order:stroke fill markers"
         d="m 4791.3454,-450.07645 v 149.55942 h 75.4409 v -149.55942 z m 17.886,17.72987 h 39.669 v 114.09967 h -39.669 z"
         inkscape:export-filename="rect4346.png"
         inkscape:export-xdpi="107.52788"
         inkscape:export-ydpi="107.52788" />
    </g>
  </g>
</svg>
