<?xml version="1.0" standalone="no"?>
<!DOCTYPE svg PUBLIC "-//W3C//DTD SVG 20010904//EN"
 "http://www.w3.org/TR/2001/REC-SVG-20010904/DTD/svg10.dtd">
<svg version="1.0" xmlns="http://www.w3.org/2000/svg"
 width="48.000000pt" height="48.000000pt" viewBox="0 0 48.000000 48.000000"
 preserveAspectRatio="xMidYMid meet">

<g transform="translate(0.000000,48.000000) scale(0.100000,-0.100000)"
fill="#000000" stroke="none">
<path d="M0 405 c0 -60 3 -75 15 -75 12 0 15 13 15 60 l0 60 210 0 210 0 0
-210 0 -210 -90 0 c-73 0 -90 -3 -90 -15 0 -12 18 -15 105 -15 l105 0 0 240 0
240 -240 0 -240 0 0 -75z"/>
<path d="M270 366 c-17 -10 -45 -13 -96 -9 -68 5 -73 4 -123 -28 l-51 -34 0
-147 0 -148 125 0 c112 0 125 2 126 18 2 60 12 109 25 123 8 8 14 20 14 26 0
24 47 53 88 53 23 0 42 4 42 8 0 10 -84 35 -121 36 -35 1 -37 15 -6 43 33 31
65 45 87 38 26 -8 35 12 11 24 -27 15 -91 13 -121 -3z"/>
</g>
</svg>
