<?xml version="1.0" encoding="UTF-8" standalone="no"?>
<!-- Created with Inkscape (http://www.inkscape.org/) -->
<svg class="tj default" height="32.000275" viewBox="0 0 25.490921 120.00103" version="1.1" xml:space="preserve" style="clip-rule:evenodd;fill-rule:evenodd;stroke-linejoin:round;stroke-miterlimit:2" id="svg92" sodipodi:docname="tigerjython-logo.svg" width="25.490921" inkscape:version="1.2.1 (9c6d41e410, 2022-07-14)" xmlns:inkscape="http://www.inkscape.org/namespaces/inkscape" xmlns:sodipodi="http://sodipodi.sourceforge.net/DTD/sodipodi-0.dtd" xmlns="http://www.w3.org/2000/svg" xmlns:svg="http://www.w3.org/2000/svg"><defs id="defs96"/><sodipodi:namedview id="namedview94" pagecolor="#ffffff" bordercolor="#000000" borderopacity="0.25" inkscape:showpageshadow="2" inkscape:pageopacity="0.0" inkscape:pagecheckerboard="0" inkscape:deskcolor="#d1d1d1" showgrid="false" inkscape:zoom="3.3901437" inkscape:cx="137.75227" inkscape:cy="15.633555" inkscape:window-width="1920" inkscape:window-height="1094" inkscape:window-x="390" inkscape:window-y="1717" inkscape:window-maximized="1" inkscape:current-layer="svg92"/>
    <g transform="matrix(1.15896,0,0,1.15896,-35.749929,2.6899462)" id="g66">
        <g transform="translate(-203.799,-250.55)" id="g52">
            <path class="mark-bg" d="m 237.845,301.928 -24.921,14.388 -7.194,-12.461 c -3.971,-6.877 -1.611,-15.684 5.266,-19.655 l 62.304,-35.971 7.194,12.461 c 3.971,6.877 1.611,15.684 -5.266,19.655 l -12.461,7.194 21.583,37.383 c 3.97,6.877 1.61,15.684 -5.267,19.654 l -12.461,7.195 z" id="path50"/>
        </g>
        <g transform="translate(0,-0.00629592)" id="g64">
            <path class="mark" d="m 71.913,24.343 c 0.109,0.149 0.221,0.303 0.324,0.469 -0.127,0.102 -0.261,0.207 -0.399,0.315 -0.302,0.237 -0.624,0.49 -0.938,0.767 -0.127,0.113 -0.242,0.349 -0.235,0.512 0.076,0.94 0.25,1.797 0.824,2.632 0.117,0.169 0.19,0.369 0.238,0.586 6.651,-4.053 8.883,-12.697 4.968,-19.478 L 70.837,0 c 0.012,0.27 0.022,0.539 0.015,0.807 -0.026,1.07 -0.069,2.142 -0.112,3.216 -0.027,0.675 -0.054,1.35 -0.077,2.025 -0.011,0.233 -0.002,0.467 0.008,0.702 0.008,0.196 0.016,0.393 0.012,0.59 -0.015,0.573 -0.043,1.147 -0.071,1.722 -0.052,1.055 -0.103,2.11 -0.074,3.162 0.047,2.034 0.211,4.066 0.374,6.099 0.044,0.414 0.25,0.821 0.444,1.192 0.088,0.171 0.092,0.351 0.096,0.516 0.002,0.098 0.005,0.191 0.025,0.272 0.149,0.561 0.067,1.118 -0.014,1.668 -0.071,0.482 -0.142,0.96 -0.055,1.432 0.058,0.326 0.272,0.62 0.505,0.94 z" style="fill:#ff5200;fill-rule:nonzero" id="path54"/>
            <path class="mark" d="m 59.936,3.208 c 0.016,0.139 0.019,0.277 0.004,0.408 -0.105,0.925 0.248,1.505 1.116,1.797 0.045,0.015 0.09,0.031 0.135,0.046 0.357,0.119 0.728,0.242 1.007,0.482 1.432,1.209 1.415,2.308 0.384,3.743 -0.346,0.472 -0.343,0.94 0.054,1.309 0.596,0.553 1.029,1.915 0.544,2.465 -0.526,0.612 -0.547,1.279 -0.568,1.949 -0.007,0.219 -0.014,0.438 -0.038,0.656 -0.006,0.046 -0.012,0.094 -0.019,0.142 -0.086,0.651 -0.182,1.381 0.043,1.939 0.419,1.035 0.239,1.938 -0.151,2.884 -0.014,0.036 -0.03,0.072 -0.045,0.108 -0.061,0.145 -0.122,0.288 -0.149,0.439 -0.234,1.634 -0.468,3.269 -0.685,4.897 -0.24,1.675 -0.852,3.227 -1.64,4.694 -0.367,0.69 -0.788,1.36 -1.206,2.025 -0.177,0.283 -0.354,0.564 -0.526,0.846 0.075,0.09 0.165,0.174 0.253,0.256 0.178,0.167 0.351,0.329 0.391,0.524 0.24,1.225 0.346,2.457 -0.484,3.538 -0.537,0.686 -0.684,1.343 -0.208,2.114 0.135,0.226 0.172,0.535 0.179,0.816 0.009,0.181 0.018,0.361 0.027,0.542 0.079,1.567 0.157,3.138 0.156,4.706 0.002,0.711 -0.041,1.424 -0.085,2.136 -0.061,0.995 -0.121,1.99 -0.058,2.982 0.096,1.431 0,2.812 -0.195,4.218 -0.178,1.341 -0.426,2.677 -0.691,4.02 -0.473,2.392 -0.959,4.778 -1.467,7.153 -0.156,0.722 -0.338,1.442 -0.519,2.162 -0.219,0.869 -0.439,1.74 -0.615,2.618 -0.152,0.786 -0.199,1.623 -0.171,2.423 0.046,1.043 0.136,2.08 0.229,3.148 0.042,0.487 0.085,0.98 0.125,1.484 l -1.26,-0.614 c 0.031,0.15 0.057,0.297 0.083,0.44 0.049,0.273 0.095,0.534 0.169,0.79 0.037,0.131 0.064,0.27 0.091,0.409 0.113,0.58 0.229,1.171 1.059,1.259 0.122,0.016 0.268,0.16 0.333,0.294 0.053,0.111 0.11,0.221 0.167,0.331 0.188,0.363 0.376,0.727 0.44,1.116 0.257,1.418 0.459,2.848 0.661,4.278 0.044,0.311 0.088,0.622 0.133,0.932 0.027,0.208 -0.002,0.423 -0.034,0.657 -0.018,0.135 -0.037,0.277 -0.047,0.426 -0.515,-0.278 -0.983,-0.534 -1.433,-0.781 L 40.807,63.094 c 0.119,-1.126 0.388,-2.153 1.038,-3.05 0.036,-0.055 0.097,-0.093 0.156,-0.129 0.035,-0.022 0.07,-0.043 0.098,-0.068 0.055,-0.05 0.117,-0.099 0.179,-0.149 0.152,-0.119 0.306,-0.24 0.359,-0.39 0.966,-2.603 1.095,-5.324 1.009,-8.047 -0.05,-1.415 -0.212,-2.825 -0.377,-4.261 -0.067,-0.582 -0.134,-1.167 -0.195,-1.759 0.16,0.065 0.298,0.122 0.432,0.178 0.168,0.07 0.33,0.137 0.518,0.212 -0.132,-0.676 -0.246,-1.271 -0.348,-1.86 -0.446,-2.491 -0.88,-4.975 -0.837,-7.519 0.004,-0.246 0.182,-0.611 0.385,-0.701 1.211,-0.619 1.358,-1.393 0.41,-2.35 -0.175,-0.173 -0.294,-0.523 -0.272,-0.774 0.015,-0.142 0.029,-0.284 0.043,-0.427 0.073,-0.738 0.148,-1.487 0.377,-2.181 0.222,-0.662 0.083,-1.245 -0.058,-1.834 -0.041,-0.168 -0.081,-0.337 -0.113,-0.508 -0.063,-0.303 -0.126,-0.606 -0.189,-0.908 -0.287,-1.381 -0.574,-2.761 -0.807,-4.153 -0.082,-0.528 -0.11,-1.063 -0.138,-1.598 -0.027,-0.534 -0.055,-1.069 -0.137,-1.597 -0.163,-1.027 -0.024,-1.964 0.389,-2.899 0.35,-0.777 0.531,-1.592 0.34,-2.443 -0.032,-0.152 -0.064,-0.305 -0.095,-0.457 -0.026,-0.125 -0.052,-0.251 -0.078,-0.376 z" style="fill:#ff5200;fill-rule:nonzero" id="path56"/>
            <path class="mark" d="m 34.486,17.901 c 0.038,0.762 0.065,1.518 0.07,2.274 0.004,0.711 -0.109,1.421 -0.223,2.135 -0.068,0.431 -0.137,0.863 -0.181,1.297 -0.02,0.173 0.055,0.362 0.129,0.547 0.026,0.065 0.052,0.129 0.074,0.193 0.07,-0.041 0.151,-0.076 0.232,-0.11 0.171,-0.074 0.34,-0.147 0.399,-0.267 0.132,-0.286 0.225,-0.59 0.319,-0.894 0.086,-0.279 0.172,-0.557 0.287,-0.822 0.28,-0.638 0.593,-1.269 0.92,-1.926 0.133,-0.269 0.269,-0.542 0.406,-0.822 0.022,0.144 0.043,0.27 0.063,0.385 0.03,0.172 0.055,0.319 0.07,0.467 0.108,0.754 0.259,1.501 0.41,2.247 0.316,1.562 0.632,3.122 0.551,4.75 -0.074,1.275 -0.165,2.528 -0.64,3.709 -0.074,0.183 -0.341,0.373 -0.55,0.417 -0.301,0.066 -0.614,0.089 -0.91,0.11 -0.149,0.011 -0.294,0.021 -0.432,0.037 -0.307,0.74 0.079,0.925 0.499,1.128 0.262,0.126 0.537,0.258 0.668,0.534 -0.049,-0.004 -0.092,-0.009 -0.131,-0.014 -0.07,-0.01 -0.125,-0.017 -0.177,-0.005 -0.772,0.133 -0.795,0.239 -0.616,0.996 0.09,0.379 0.081,0.812 -0.028,1.182 -0.455,1.526 -1.338,2.684 -2.945,3.139 -0.186,0.055 -0.458,0.287 -0.474,0.439 -0.01,0.257 0.108,0.577 0.295,0.756 0.198,0.199 0.443,0.349 0.68,0.494 0.099,0.06 0.197,0.12 0.289,0.183 -0.076,0.594 -0.092,0.826 -0.213,0.917 -0.124,0.093 -0.361,0.037 -0.891,0.074 -0.181,0.01 -0.359,0.004 -0.581,-0.003 -0.143,-0.004 -0.304,-0.01 -0.495,-0.012 0.118,0.166 0.224,0.312 0.321,0.447 0.164,0.226 0.305,0.421 0.442,0.625 0.093,0.138 0.185,0.278 0.281,0.423 0.145,0.219 0.296,0.45 0.47,0.701 -0.457,0.022 -0.886,0.046 -1.302,0.069 -0.474,0.026 -0.931,0.051 -1.395,0.073 -0.07,-0.436 -0.142,-0.852 -0.213,-1.263 -0.063,-0.364 -0.125,-0.723 -0.185,-1.088 -0.029,0.004 -0.057,0.009 -0.084,0.013 -0.252,0.038 -0.435,0.066 -0.613,0.084 -0.307,1.104 -0.74,1.577 -1.789,2.071 -0.023,0.01 -0.046,0.021 -0.069,0.031 -0.262,0.118 -0.548,0.247 -0.702,0.453 -0.588,0.792 -0.675,1.711 -0.559,2.656 0.046,0.389 0.089,0.777 0.133,1.166 0.114,1.018 0.228,2.035 0.381,3.049 0.176,1.149 0.351,2.298 1.628,2.848 0.275,0.123 0.506,0.336 0.737,0.548 0.01,0.01 0.02,0.019 0.03,0.029 L 13.501,63.245 C 13.487,63.236 13.474,63.228 13.46,63.22 13.371,63.164 13.272,63.124 13.174,63.085 13.041,63.032 12.911,62.979 12.813,62.89 11.106,61.329 10.008,59.438 9.801,57.078 c -0.056,-0.712 0.383,-1.198 1.026,-1.481 0.574,-0.259 0.954,0.086 1.236,0.515 0.217,0.324 0.416,0.655 0.541,1.022 0.186,0.512 0.349,1.032 0.51,1.544 0.079,0.25 0.156,0.499 0.236,0.743 0.622,-0.061 0.854,-0.152 0.6,-0.815 -0.15,-0.382 -0.153,-0.828 -0.156,-1.285 -0.001,-0.212 -0.003,-0.425 -0.019,-0.636 0.976,-0.078 1.531,-0.565 1.969,-1.313 0.751,-1.315 0.64,-2.694 0.53,-4.063 -0.019,-0.245 -0.039,-0.489 -0.054,-0.732 -0.049,-0.767 -0.219,-1.515 -0.388,-2.264 -0.207,-0.911 -0.414,-1.824 -0.404,-2.771 0.005,-0.158 -0.066,-0.367 -0.177,-0.465 -0.066,-0.053 -0.131,-0.105 -0.196,-0.158 -0.536,-0.432 -1.073,-0.864 -1.656,-1.226 -0.39,-0.235 -0.566,-0.466 -0.476,-0.917 0.13,-0.666 0.256,-1.333 0.383,-1.999 0.127,-0.667 0.254,-1.334 0.383,-1.999 0.02,-0.105 0.042,-0.208 0.064,-0.311 0.109,-0.515 0.216,-1.017 0.023,-1.585 -0.142,-0.419 0.099,-0.972 0.651,-1.096 0.532,-0.118 1.071,-0.204 1.627,-0.294 0.238,-0.038 0.479,-0.076 0.725,-0.118 -0.008,-0.123 0.042,-0.255 0.093,-0.39 0.123,-0.327 0.255,-0.675 -0.392,-0.98 1.009,-0.382 0.882,-1.1 0.733,-1.799 -0.058,-0.276 -0.138,-0.551 -0.217,-0.825 -0.136,-0.468 -0.272,-0.936 -0.297,-1.408 -0.035,-0.58 -0.069,-1.169 -0.077,-1.757 z" style="fill:#ff5200;fill-rule:nonzero" id="path58"/>
            <path class="mark" d="M 4.146,36.009 C -0.295,40.505 -1.382,47.575 1.93,53.311 l 0.229,0.396 C 2.326,52.546 2.48,51.382 2.634,50.219 2.772,49.183 2.909,48.147 3.055,47.114 3.18,46.235 3.33,45.363 3.481,44.49 3.567,43.994 3.652,43.498 3.734,43 3.764,42.818 3.794,42.636 3.825,42.453 4.13,40.625 4.436,38.794 4.266,36.936 4.238,36.626 4.196,36.318 4.146,36.009 Z" style="fill:#ff5200;fill-rule:nonzero" id="path60"/>
            <path class="mark" d="M 64.948,100 75.283,94.033 C 82.165,90.059 84.523,81.26 80.55,74.378 L 68.976,54.33 c -0.033,0.111 -0.066,0.223 -0.097,0.334 -0.057,0.206 -0.05,0.486 0.044,0.678 0.236,0.467 0.49,0.928 0.744,1.389 0.45,0.818 0.902,1.639 1.257,2.501 1.021,2.494 1.542,5.065 0.168,7.645 -0.235,0.453 -0.68,0.834 -1.115,1.103 -1.309,0.819 -1.389,0.925 -1.032,2.382 0.014,0.051 0.037,0.104 0.059,0.157 0.044,0.104 0.087,0.205 0.06,0.28 -0.061,0.183 -0.155,0.357 -0.25,0.532 -0.048,0.089 -0.096,0.177 -0.14,0.268 -0.066,-0.036 -0.142,-0.068 -0.217,-0.1 -0.175,-0.074 -0.35,-0.148 -0.408,-0.277 C 68.034,71.186 68.018,71.15 68.002,71.114 67.8,70.658 67.575,70.151 67.61,69.696 l 0.003,-0.039 c 0.099,-1.443 0.103,-1.509 -1.287,-1.768 -0.349,-0.068 -0.706,-0.105 -1.116,-0.148 -0.179,-0.019 -0.368,-0.039 -0.571,-0.063 0.05,0.058 0.083,0.104 0.108,0.14 0.029,0.041 0.048,0.068 0.073,0.08 0.782,0.44 0.995,1.097 1.088,2.002 0.061,0.648 -0.249,0.776 -0.585,0.915 -0.076,0.031 -0.154,0.063 -0.229,0.102 0.288,0.422 0.575,0.84 0.861,1.256 0.365,0.532 0.728,1.061 1.087,1.588 0.033,0.044 0.07,0.087 0.107,0.131 0.121,0.145 0.247,0.294 0.257,0.455 0.045,0.677 0.371,0.749 0.904,0.484 0.422,0.556 0.297,1.078 -0.02,1.579 -0.19,0.301 -0.397,0.579 -0.634,0.828 -0.78,0.799 -1.059,1.756 -0.837,2.841 -1.53,0.857 -1.774,1.83 -0.99,4.544 -0.076,0.005 -0.155,0.005 -0.236,0.005 -0.174,0 -0.355,0.001 -0.525,0.047 -0.141,0.036 -0.269,0.123 -0.421,0.226 -0.08,0.053 -0.165,0.111 -0.263,0.169 0.115,0.087 0.235,0.166 0.352,0.242 0.474,0.309 0.89,0.58 0.605,1.259 -0.117,0.026 -0.238,0.058 -0.36,0.091 -0.114,0.03 -0.231,0.061 -0.348,0.088 0.036,0.345 0.073,0.688 0.109,1.029 0.087,0.813 0.172,1.617 0.255,2.428 0.192,1.915 0.274,3.849 -0.244,5.739 -0.341,1.232 -0.154,2.446 0.098,3.617 0.031,0.146 0.064,0.292 0.097,0.437 z" style="fill:#ff5200;fill-rule:nonzero" id="path62"/>
        </g>
    </g>
    
</svg>