<svg width="94" height="94" viewBox="0 0 94 94" fill="none" xmlns="http://www.w3.org/2000/svg">
  <rect width="94" height="94" rx="20" fill="url(#paint0_linear_3849_60759)"></rect>
  <path
    d="M36.0341 61.3286C36.0161 61.2085 35.9743 61.0932 35.9113 60.9895C35.8482 60.8858 35.7652 60.7957 35.6669 60.7246C35.5687 60.6534 35.4573 60.6026 35.3392 60.5751C35.2211 60.5476 35.0988 60.5439 34.9792 60.5643C34.7395 60.6079 34.5266 60.7447 34.3871 60.9447L30.8704 65.8241C30.7982 65.921 30.7459 66.0311 30.7162 66.1483C30.6866 66.2655 30.6803 66.3874 30.6978 66.507C30.7382 66.7481 30.8699 66.9642 31.0655 67.1105C31.2659 67.2523 31.514 67.3094 31.7561 67.2695C31.8748 67.2491 31.9882 67.2052 32.0899 67.1405C32.1915 67.0758 32.2793 66.9916 32.3482 66.8926L35.8632 62.0202C35.9365 61.9223 35.9894 61.8106 36.0188 61.6918C36.0481 61.573 36.0533 61.4494 36.0341 61.3286Z"
    fill="white"></path>
  <path
    d="M42.8827 64.4737C42.7783 64.4124 42.6629 64.3725 42.543 64.3562C42.4232 64.3399 42.3013 64.3476 42.1844 64.3788C42.0675 64.41 41.958 64.4641 41.8621 64.538C41.7662 64.6118 41.6859 64.704 41.6259 64.8091L38.3181 70.4561C38.1954 70.6659 38.1609 70.916 38.2223 71.1512C38.2836 71.3865 38.4358 71.5877 38.6452 71.7106C38.8547 71.8335 39.1044 71.868 39.3393 71.8065C39.5741 71.7451 39.775 71.5927 39.8977 71.3829L43.2038 65.7359C43.2661 65.6321 43.3072 65.5169 43.3247 65.3971C43.3423 65.2772 43.336 65.1551 43.3061 65.0377C43.2763 64.9203 43.2235 64.8101 43.1508 64.7132C43.0781 64.6164 42.987 64.535 42.8827 64.4737Z"
    fill="white"></path>
  <path
    d="M39.6992 61.9234C39.5979 61.8586 39.4848 61.8145 39.3664 61.7935C39.2481 61.7726 39.1268 61.7752 39.0094 61.8012C38.892 61.8272 38.781 61.8761 38.6825 61.9451C38.584 62.0142 38.5001 62.1019 38.4355 62.2035L33.1061 70.5651C33.0367 70.6664 32.9883 70.7807 32.9638 70.9012C32.9394 71.0216 32.9394 71.1458 32.9639 71.2662C32.9883 71.3867 33.0367 71.501 33.1062 71.6023C33.1757 71.7036 33.2648 71.7899 33.3682 71.8561C33.4717 71.9222 33.5873 71.9668 33.7084 71.9872C33.8294 72.0077 33.9533 72.0035 34.0727 71.975C34.192 71.9465 34.3045 71.8943 34.4033 71.8214C34.5021 71.7484 34.5852 71.6564 34.6478 71.5506L39.9789 63.189C40.109 62.9839 40.1526 62.7355 40.1002 62.4983C40.0477 62.2611 39.9036 62.0543 39.6992 61.9234Z"
    fill="white"></path>
  <path
    d="M64.599 62.959L64.694 62.8553C64.8528 62.6824 65.0082 62.5095 65.1618 62.3366L65.2654 62.2173C65.438 62.0219 65.6107 61.8213 65.7712 61.619C65.8058 61.5775 65.8386 61.5343 65.8731 61.4911C66.0198 61.3096 66.1631 61.1263 66.3047 60.9413L66.3841 60.8375C66.5406 60.6277 66.6943 60.4156 66.8451 60.2012L66.9469 60.0543C67.085 59.8537 67.2197 59.6531 67.3509 59.4508C67.3664 59.4249 67.3837 59.4007 67.3992 59.3765C67.5425 59.1535 67.6806 58.9287 67.817 58.7022C67.8481 58.6486 67.8792 58.595 67.912 58.5414C68.0432 58.3149 68.1744 58.0884 68.2987 57.8498L68.309 57.8342C68.4368 57.599 68.5576 57.3604 68.6785 57.1201C68.7061 57.0648 68.7355 57.0077 68.7631 56.9472C68.8782 56.7086 68.9933 56.4671 69.1084 56.2227L69.1342 56.164C69.2361 55.9357 69.3345 55.704 69.4295 55.4723C69.4536 55.4153 69.4761 55.3565 69.5002 55.2994C69.5987 55.0522 69.6953 54.8032 69.7868 54.5525C69.7989 54.5162 69.8127 54.4781 69.8248 54.4401C69.9065 54.2153 69.9842 53.9888 70.0579 53.7606C70.0751 53.7035 70.0941 53.6482 70.1114 53.5877C70.1925 53.3335 70.2685 53.069 70.341 52.8183C70.3548 52.7699 70.3686 52.7197 70.3807 52.6696C70.4446 52.4413 70.5033 52.2114 70.5533 51.978C70.5654 51.9261 70.5792 51.8742 70.5913 51.8224C70.6535 51.5613 70.7104 51.3036 70.764 51.0305C70.776 50.9734 70.7864 50.9146 70.7985 50.8576C70.8434 50.6207 70.8865 50.3821 70.9245 50.1417C70.9245 50.0985 70.9401 50.0553 70.947 50.0121C70.9884 49.7406 71.0247 49.4691 71.0575 49.1977C71.0661 49.1337 71.073 49.0697 71.0799 49.0058C71.1075 48.7516 71.1334 48.487 71.1541 48.2381C71.1541 48.2104 71.1541 48.1827 71.1541 48.1533C71.1766 47.8767 71.1921 47.5966 71.2042 47.3165C71.2042 47.2491 71.2042 47.1816 71.2042 47.1142C71.2146 46.8306 71.2215 46.5453 71.2215 46.2583C71.2215 39.8246 68.6696 33.6544 64.1272 29.1051C59.5848 24.5558 53.424 22 47.0001 22C40.5762 22 34.4155 24.5558 29.8731 29.1051C25.3307 33.6544 22.7788 39.8246 22.7788 46.2583C22.7788 46.5073 22.7788 46.7563 22.7909 47.0035C22.7909 47.0813 22.7909 47.1574 22.7995 47.2352C22.7995 47.4081 22.8151 47.581 22.8254 47.7539C22.8254 47.8404 22.8358 47.9268 22.8427 48.0116C22.8548 48.1845 22.8686 48.3574 22.8841 48.5303L22.9048 48.7551C22.9307 48.9971 22.9584 49.2392 22.9894 49.4812C23.7259 55.0202 26.353 60.1334 30.425 63.9532L31.6646 61.8041C28.0296 58.2115 25.7727 53.4525 25.289 48.3608L49.0856 36.5187C49.5331 36.296 50.0284 36.1868 50.5279 36.2008C51.0274 36.2148 51.5158 36.3516 51.9501 36.599C52.3844 36.8465 52.7514 37.1971 53.0186 37.62C53.2859 38.0428 53.4453 38.525 53.4827 39.0241L55.5544 66.3929C52.0278 67.8891 48.1714 68.4339 44.3691 67.9732L43.0743 70.221C47.3385 70.9198 51.7115 70.4692 55.7443 68.9156L55.7978 68.8931C56.0447 68.7963 56.2916 68.696 56.535 68.5905L56.6818 68.5283C56.8976 68.4332 57.1134 68.3363 57.3257 68.2343L57.4483 68.1773C57.6883 68.0631 57.9248 67.9438 58.1578 67.8228L58.3132 67.7416C58.5273 67.6274 58.7396 67.5116 58.9485 67.3958L59.0331 67.3491C59.2627 67.2177 59.4889 67.0811 59.715 66.9427L59.8704 66.8442C60.0879 66.7076 60.3037 66.5693 60.5178 66.424L60.5454 66.4067C60.7664 66.258 60.9822 66.1042 61.198 65.9468C61.2481 65.9122 61.2981 65.8759 61.3465 65.8379C61.5606 65.6805 61.7729 65.5215 61.9818 65.3572L62.0163 65.3296C62.2143 65.1728 62.4099 65.012 62.6033 64.8471L62.7431 64.7296C62.9417 64.5567 63.1402 64.3838 63.3336 64.2109L63.4095 64.14C63.5822 63.9792 63.7548 63.8149 63.9274 63.6489L64.0517 63.5279C64.2296 63.3342 64.4108 63.1475 64.599 62.959Z"
    fill="white"></path>
  <path
    d="M44.6022 55.1507C46.7846 55.1507 48.5539 53.3788 48.5539 51.193C48.5539 49.0072 46.7846 47.2352 44.6022 47.2352C42.4197 47.2352 40.6505 49.0072 40.6505 51.193C40.6505 53.3788 42.4197 55.1507 44.6022 55.1507Z"
    fill="white"></path>
  <defs>
    <linearGradient id="paint0_linear_3849_60759" x1="84.2083" y1="94" x2="18.216" y2="0.0433763"
      gradientUnits="userSpaceOnUse">
      <stop stop-color="#FF780C"></stop>
      <stop offset="0.981666" stop-color="#FFA43B"></stop>
    </linearGradient>
  </defs>
</svg>
