<svg width="128" height="128" viewBox="0 0 128 128" fill="none" xmlns="http://www.w3.org/2000/svg">
<path fill-rule="evenodd" clip-rule="evenodd" d="M85.6413 107.5H85.6057C85.5707 107.5 85.5356 107.5 85.5006 107.499C85.4939 107.499 85.4869 107.499 85.4799 107.499L85.5006 107.499C82.5404 107.46 79.7007 105.822 78.2616 103.002C78.26 102.999 78.2585 102.996 78.257 102.993L66.8096 80.4903L76.0735 62.2958L85.623 81.0675L105.993 41.0275L79.3987 41.0275C74.8427 41.0275 71.1492 37.3339 71.1492 32.7775V32.75C71.1492 28.1937 74.8427 24.5 79.3987 24.5H119.242C123.798 24.5 127.491 28.1937 127.491 32.75L127.491 32.8067C127.555 34.1873 127.273 35.6028 126.601 36.9226L92.99 102.993L92.9855 103.002C91.5496 105.816 88.7195 107.452 85.7666 107.499C85.7603 107.499 85.7539 107.499 85.7476 107.499L85.7666 107.499C85.7248 107.5 85.6831 107.5 85.6413 107.5Z" fill="url(#paint0_linear_23648_25239)"/>
<path fill-rule="evenodd" clip-rule="evenodd" d="M80.8179 24.5L114.878 24.5L105.907 41.0275H80.8179V24.5Z" fill="url(#paint1_linear_23648_25239)"/>
<path fill-rule="evenodd" clip-rule="evenodd" d="M95.0793 24.5C93.4542 24.5626 91.9255 25.0256 90.4932 25.8891C89.0608 26.7525 87.8294 28.1698 86.7988 30.141L86.8214 30.098L49.7416 102.986C48.2821 105.855 45.3794 107.505 42.3706 107.5C39.3617 107.505 36.459 105.855 34.9995 102.986L1.40104 36.9416C0.570696 35.3094 0.333709 33.5306 0.610072 31.8519C1.06295 27.7171 4.56185 24.5 8.81096 24.5H51.815C55.2481 24.5 58.1915 26.6001 59.4344 29.5877L61.188 33.0352L51.9238 51.23L46.7336 41.0275H21.9998L42.3704 81.0702L68.5077 29.6923C70.1284 26.5064 73.4001 24.5 76.9744 24.5H95.0793Z" fill="url(#paint2_linear_23648_25239)"/>
<path fill-rule="evenodd" clip-rule="evenodd" d="M95.0794 24.5C93.4543 24.5626 91.9256 25.0256 90.4933 25.8891C89.1183 26.718 87.9284 28.0573 86.9236 29.9071L86.8128 30.114L63.1652 76.5985L48.8306 68.372L68.5078 29.6923C70.1285 26.5064 73.4003 24.5 76.9745 24.5H95.0794Z" fill="url(#paint3_linear_23648_25239)"/>
<defs>
<linearGradient id="paint0_linear_23648_25239" x1="97.1548" y1="24.5" x2="97.1548" y2="107.5" gradientUnits="userSpaceOnUse">
<stop stop-color="#FF1C1F"/>
<stop offset="1" stop-color="#FF4A04"/>
</linearGradient>
<linearGradient id="paint1_linear_23648_25239" x1="86.3701" y1="31.375" x2="105.869" y2="41.0266" gradientUnits="userSpaceOnUse">
<stop stop-color="#BD0000"/>
<stop offset="0.770833" stop-color="#BD0000" stop-opacity="0"/>
</linearGradient>
<linearGradient id="paint2_linear_23648_25239" x1="47.7896" y1="24.5" x2="47.7896" y2="107.5" gradientUnits="userSpaceOnUse">
<stop stop-color="#FF1C1F"/>
<stop offset="1" stop-color="#FF4A04"/>
</linearGradient>
<linearGradient id="paint3_linear_23648_25239" x1="71.955" y1="24.5" x2="71.955" y2="60.75" gradientUnits="userSpaceOnUse">
<stop stop-color="#FF9825"/>
<stop offset="1" stop-color="#FF9825" stop-opacity="0"/>
</linearGradient>
</defs>
</svg>
