<?xml version="1.0" encoding="UTF-8" standalone="no"?>
<!-- Created with Inkscape (http://www.inkscape.org/) -->

<svg
   width="128"
   height="128"
   viewBox="0 0 33.866666 33.866668"
   version="1.1"
   id="svg5"
   inkscape:version="1.1 (c68e22c387, 2021-05-23)"
   sodipodi:docname="org.luoja.Telyn-symbolic.svg"
   xmlns:inkscape="http://www.inkscape.org/namespaces/inkscape"
   xmlns:sodipodi="http://sodipodi.sourceforge.net/DTD/sodipodi-0.dtd"
   xmlns="http://www.w3.org/2000/svg"
   xmlns:svg="http://www.w3.org/2000/svg">
  <sodipodi:namedview
     id="namedview7"
     pagecolor="#ffffff"
     bordercolor="#666666"
     borderopacity="1.0"
     inkscape:pageshadow="2"
     inkscape:pageopacity="0.0"
     inkscape:pagecheckerboard="true"
     inkscape:document-units="px"
     showgrid="false"
     units="px"
     width="128px"
     inkscape:zoom="11.199773"
     inkscape:cx="49.867082"
     inkscape:cy="51.876051"
     inkscape:window-width="2560"
     inkscape:window-height="1371"
     inkscape:window-x="0"
     inkscape:window-y="0"
     inkscape:window-maximized="1"
     inkscape:current-layer="layer1" />
  <defs
     id="defs2">
    <linearGradient
       id="linearGradient7359"
       inkscape:swatch="solid">
      <stop
         style="stop-color:#1a5fd8;stop-opacity:1;"
         offset="0"
         id="stop7357" />
    </linearGradient>
  </defs>
  <g
     inkscape:label="Layer 1"
     id="layer1"
     transform="matrix(0.82758624,0,0,0.87499996,2.9195402,2.1166667)"
     sodipodi:insensitive="true">
    <g
       id="g839" />
    <g
       id="path11630"
       inkscape:label="Primary Mark">
      <path
         style="color:#000000;fill:#2e3436;fill-opacity:1;stroke-linecap:round;-inkscape-stroke:none"
         d="m 5.7265625,15.96875 a 1.493005,1.493005 0 0 0 -1.4941406,1.494141 1.493005,1.493005 0 0 0 1.4941406,1.492187 H 21.183594 a 1.493005,1.493005 0 0 0 1.49414,-1.492187 1.493005,1.493005 0 0 0 -1.49414,-1.494141 z"
         id="path1351" />
    </g>
    <path
       id="rect1919"
       style="fill:#2e3436;fill-opacity:1;fill-rule:evenodd;stroke-width:0.883079"
       inkscape:label="Edge"
       d="m 27.798828,8 c -1.951353,0 -3.523437,1.5804903 -3.523437,3.542969 V 116.45703 c 0,1.96248 1.572084,3.54297 3.523437,3.54297 h 72.402342 c 1.95135,0 3.52344,-1.58049 3.52344,-3.54297 V 11.542969 C 103.72461,9.5804903 102.15252,8 100.20117,8 Z m 6.28125,7 h 59.839844 c 1.764214,0 3.183594,1.474182 3.183594,3.304688 v 91.390622 c 0,1.83051 -1.41938,3.30469 -3.183594,3.30469 H 34.080078 c -1.764214,0 -3.183594,-1.47418 -3.183594,-3.30469 V 18.304688 C 30.896484,16.474182 32.315864,15 34.080078,15 Z"
       transform="matrix(0.31970485,0,0,0.30238097,-3.5277776,-2.4190478)" />
    <path
       style="color:#000000;fill:#2e3436;fill-opacity:1;stroke-linecap:round;-inkscape-stroke:none"
       d="M 5.5839844,5.1582031 A 1.2229151,1.2229151 0 0 0 4.3613281,6.3808594 1.2229151,1.2229151 0 0 0 5.5839844,7.6035156 H 16.960937 A 1.2229151,1.2229151 0 0 0 18.183594,6.3808594 1.2229151,1.2229151 0 0 0 16.960937,5.1582031 Z"
       id="path12866"
       inkscape:label="Mark 1" />
    <path
       style="color:#000000;fill:#2e3436;fill-opacity:1;stroke-linecap:round;-inkscape-stroke:none;stroke:none"
       d="m 5.5839844,10.816406 a 1.2229151,1.2229151 0 0 0 -1.2226563,1.222657 1.2229151,1.2229151 0 0 0 1.2226563,1.222656 H 16.960937 a 1.2229151,1.2229151 0 0 0 1.222657,-1.222656 1.2229151,1.2229151 0 0 0 -1.222657,-1.222657 z"
       id="path12845"
       inkscape:label="Path 2" />
    <path
       style="color:#000000;fill:#2e3436;fill-opacity:1;stroke-linecap:round;-inkscape-stroke:none"
       d="m 5.5839844,21.398437 a 1.2229151,1.2229151 0 0 0 -1.2226563,1.222657 1.2229151,1.2229151 0 0 0 1.2226563,1.224609 H 16.960937 a 1.2229151,1.2229151 0 0 0 1.222657,-1.224609 1.2229151,1.2229151 0 0 0 -1.222657,-1.222657 z"
       id="path12746"
       inkscape:label="Path 3" />
    <path
       style="color:#000000;fill:#2e3436;fill-opacity:1;stroke-linecap:round;-inkscape-stroke:none"
       d="m 5.5859375,26.292969 a 1.2244101,1.2244101 0 0 0 -1.2246094,1.224609 1.2244101,1.2244101 0 0 0 1.2246094,1.222656 H 16.958984 a 1.2244101,1.2244101 0 0 0 1.22461,-1.222656 1.2244101,1.2244101 0 0 0 -1.22461,-1.224609 z"
       id="path12805"
       inkscape:label="Path 4" />
  </g>
</svg>
