<?xml version="1.0" encoding="UTF-8" standalone="no"?>
<svg
   xmlns:dc="http://purl.org/dc/elements/1.1/"
   xmlns:cc="http://creativecommons.org/ns#"
   xmlns:rdf="http://www.w3.org/1999/02/22-rdf-syntax-ns#"
   xmlns:svg="http://www.w3.org/2000/svg"
   xmlns="http://www.w3.org/2000/svg"
   xmlns:sodipodi="http://sodipodi.sourceforge.net/DTD/sodipodi-0.dtd"
   xmlns:inkscape="http://www.inkscape.org/namespaces/inkscape"
   width="512"
   height="512"
   viewBox="0 0 409.6 409.6"
   version="1.1"
   id="svg2"
   inkscape:version="0.48.4 r9939"
   sodipodi:docname="icon.svg"
   inkscape:export-filename="/home/torakiki/repos/sejda-desktop/resources/sejda/linux/appicon.png"
   inkscape:export-xdpi="90"
   inkscape:export-ydpi="90">
  <metadata
     id="metadata14">
    <rdf:RDF>
      <cc:Work
         rdf:about="">
        <dc:format>image/svg+xml</dc:format>
        <dc:type
           rdf:resource="http://purl.org/dc/dcmitype/StillImage" />
        <dc:title></dc:title>
      </cc:Work>
    </rdf:RDF>
  </metadata>
  <defs
     id="defs12" />
  <sodipodi:namedview
     pagecolor="#ffffff"
     bordercolor="#666666"
     borderopacity="1"
     objecttolerance="10"
     gridtolerance="10"
     guidetolerance="10"
     inkscape:pageopacity="0"
     inkscape:pageshadow="2"
     inkscape:window-width="1366"
     inkscape:window-height="692"
     id="namedview10"
     showgrid="false"
     inkscape:zoom="0.52149125"
     inkscape:cx="-50.468265"
     inkscape:cy="126.20726"
     inkscape:window-x="0"
     inkscape:window-y="24"
     inkscape:window-maximized="1"
     inkscape:current-layer="svg2" />
  <path
     d="m 0,0 409.6,0 0,409.6 L 0,409.6 0,0 z"
     id="path4"
     inkscape:connector-curvature="0"
     style="fill:#ffffff" />
  <path
     d="m 173.81127,2.3121506 c 48.76434,-7.4445589 100.12945,3.2183901 141.57915,30.1033254 37.97116,24.186689 67.48985,61.344465 82.41174,103.833714 19.21315,53.21722 14.75934,114.36663 -11.8985,164.26793 -22.62666,43.10692 -61.21551,77.59896 -106.66388,95.0888 -45.38335,17.87994 -97.20359,18.66016 -143.07458,2.14559 C 88.278606,381.00938 47.414086,345.50956 23.812143,300.67966 -3.8860043,248.89284 -7.7546422,185.17522 13.961746,130.56011 39.319205,63.331526 102.71286,12.617501 173.81127,2.3121506 z"
     id="path6"
     inkscape:connector-curvature="0"
     style="fill:#229c6c" />
  <path
     d="M 122.304,103.136 C 144.672,79.264 179.232,71.04 210.912,72 c 30.688,0.992 57.728,22.304 70.144,49.632 -5.696,6.048 -13.28,10.08 -19.968,14.976 -4.224,3.712 -10.912,0.768 -12.928,-3.904 -6.432,-10.24 -14.496,-19.808 -25.216,-25.76 -16.224,-9.344 -36.608,-8.672 -53.696,-2.048 -13.024,5.184 -24.512,17.728 -23.296,32.544 0.416,14.976 14.944,23.36 26.912,29.088 31.424,13.728 65.92,19.104 96.864,34.08 15.552,7.904 30.752,19.104 37.888,35.52 9.408,23.104 5.248,51.232 -10.848,70.4 -17.792,21.76 -45.696,32.352 -72.896,35.936 -23.488,3.808 -48.992,-0.224 -68.48,-14.432 -12.576,-8.96 -21.728,-21.6 -29.824,-34.496 8.032,-5.696 16,-11.52 24.608,-16.256 8.832,-1.568 11.488,8.736 16.224,13.888 19.552,26.432 60.128,32.096 86.784,13.376 10.464,-7.104 17.92,-20.288 14.336,-33.088 -2.976,-14.752 -17.024,-23.488 -29.696,-29.376 -28.704,-12.128 -60,-17.056 -88.32,-30.208 -15.712,-7.584 -30.624,-18.816 -38.304,-34.88 -10.816,-23.968 -7.296,-54.528 11.104,-73.856 z"
     id="path8"
     inkscape:connector-curvature="0"
     style="fill:#ffffff" />
</svg>
