<svg width="128" height="128" version="1.1" viewBox="0 0 33.867 33.867" xmlns="http://www.w3.org/2000/svg">
 <rect x="8.901e-7" y="8.901e-7" width="33.867" height="33.867" ry="8.4667" fill="#060606" stroke-width=".3204"/>
 <g fill="#3297db" stroke-width=".26458" aria-label="YA FC">
  <path d="m11.194 9.1298 3.5347-6.7996h2.0278l-4.6695 8.4925v5.0509h-1.7859v-5.0509l-4.6695-8.4925h2.0464z"/>
  <path d="m25.11 12.339h-5.6741l-1.2743 3.5347h-1.8417l5.1718-13.543h1.5627l5.1811 13.543h-1.8324zm-5.1346-1.4697h4.6044l-2.3068-6.3345z"/>
  <path d="m14.533 25.369h-5.6834v5.981h-1.7859v-13.543h8.3902v1.4697h-6.6042v4.6323h5.6834z"/>
  <path d="m27.556 27.053q-0.25115 2.1487-1.5906 3.3207-1.3302 1.1627-3.544 1.1627-2.3999 0-3.8509-1.7208-1.4418-1.7208-1.4418-4.6044v-1.3022q0-1.8883 0.66973-3.3207 0.67903-1.4325 1.9162-2.1952 1.2371-0.77205 2.8649-0.77205 2.158 0 3.4603 1.2092 1.3022 1.1999 1.5162 3.33h-1.7952q-0.23254-1.6185-1.0139-2.344-0.77205-0.72554-2.1673-0.72554-1.7115 0-2.6882 1.265-0.96738 1.265-0.96738 3.5998v1.3115q0 2.2045 0.92087 3.5068t2.5766 1.3022q1.4883 0 2.2789-0.66973 0.79995-0.67903 1.0604-2.3533z"/>
 </g>
 <path d="m-6.706 36.99 121.06 26.363" fill="#fbfcfc" stroke-width=".26458"/>
</svg>
