<?xml version="1.0" encoding="utf-8"?>
<!-- Generator: Adobe Illustrator 18.1.1, SVG Export Plug-In . SVG Version: 6.00 Build 0)  -->
<svg version="1.1" xmlns="http://www.w3.org/2000/svg" xmlns:xlink="http://www.w3.org/1999/xlink" x="0px" y="0px"
	 viewBox="-241 333 128 128" enable-background="new -241 333 128 128" xml:space="preserve">
<g id="Logo" display="none">
	<g id="dp_dp001" display="inline">
		<path id="dp_path003" fill="#FF1E00" d="M-142.7,381.4l10.6-10.4l-55.1,0l0-4.2c0-4.9,3.3-7.5,6.1-7.5c1.6,0,2,0.6,2.5,0.3
			c1.1-0.8-0.9-5.2-5.6-6.7c-1.7-0.5-9-1.4-11.8-1.8l-12.5-1.7v94.7h64.1l-1.7-12.5c-0.4-2.8-1.3-10.1-1.8-11.8
			c-1.5-4.7-5.9-6.7-6.7-5.6c-0.4,0.5,0.3,1,0.3,2.5c0,2.7-2.7,6.1-7.5,6.1l-25.4,0l0-9.4l13,0L-163,402l-24.3,0.3l0-6.4l30.1,0.1
			l9.8-9.9h-39.9l0-4.8L-142.7,381.4z"/>
	</g>
</g>
<g id="Layer_3" display="none">
	<path display="inline" d="M-133.8,451.7h-84.3c-6.6,0-12-5.4-12-12v-84.3c0-6.6,5.4-12,12-12h84.3c6.6,0,12,5.4,12,12v84.3
		C-121.8,446.3-127.2,451.7-133.8,451.7z"/>
</g>
<g id="Layer_3_copy" display="none">
	<linearGradient id="SVGID_1_" gradientUnits="userSpaceOnUse" x1="-176" y1="355.5" x2="-176" y2="448.1763">
		<stop  offset="0" style="stop-color:#000000"/>
		<stop  offset="1" style="stop-color:#0A0000"/>
	</linearGradient>
	<path display="inline" fill="url(#SVGID_1_)" d="M-133.8,451.7h-84.3c-6.6,0-12-5.4-12-12v-84.3c0-6.6,5.4-12,12-12h84.3
		c6.6,0,12,5.4,12,12v84.3C-121.8,446.3-127.2,451.7-133.8,451.7z"/>
</g>
<g id="Layer_3_copy_2" display="none">
	<linearGradient id="SVGID_2_" gradientUnits="userSpaceOnUse" x1="-176" y1="355.5" x2="-176" y2="448.1763">
		<stop  offset="0.33" style="stop-color:#3E3F3A"/>
		<stop  offset="1" style="stop-color:#000000"/>
	</linearGradient>
	<path display="inline" fill="url(#SVGID_2_)" d="M-133.8,451.7h-84.3c-6.6,0-12-5.4-12-12v-84.3c0-6.6,5.4-12,12-12h84.3
		c6.6,0,12,5.4,12,12v84.3C-121.8,446.3-127.2,451.7-133.8,451.7z"/>
</g>
<g id="Layer_3_copy_3">
	<linearGradient id="SVGID_3_" gradientUnits="userSpaceOnUse" x1="-176" y1="355.5" x2="-176" y2="448.1763">
		<stop  offset="0.33" style="stop-color:#3E3F3A"/>
		<stop  offset="1" style="stop-color:#000000"/>
	</linearGradient>
	<path fill="url(#SVGID_3_)" stroke="#000000" stroke-width="0.5" stroke-miterlimit="10" d="M-133.8,451.7h-84.3
		c-6.6,0-12-5.4-12-12v-84.3c0-6.6,5.4-12,12-12h84.3c6.6,0,12,5.4,12,12v84.3C-121.8,446.3-127.2,451.7-133.8,451.7z"/>
</g>
<g id="Logo_copy" display="none">
	<g id="dp_dp001_1_" display="inline">
		<path id="dp_path003_1_" fill="#FF1E00" d="M-142.7,381.4l10.6-10.4l-55.1,0l0-4.2c0-4.9,3.3-7.5,6.1-7.5c1.6,0,2,0.6,2.5,0.3
			c1.1-0.8-0.9-5.2-5.6-6.7c-1.7-0.5-9-1.4-11.8-1.8l-12.5-1.7v94.7h64.1l-1.7-12.5c-0.4-2.8-1.3-10.1-1.8-11.8
			c-1.5-4.7-5.9-6.7-6.7-5.6c-0.4,0.5,0.3,1,0.3,2.5c0,2.7-2.7,6.1-7.5,6.1l-25.4,0l0-9.4l13,0L-163,402l-24.3,0.3l0-6.4l30.1,0.1
			l9.8-9.9h-39.9l0-4.8L-142.7,381.4z"/>
	</g>
</g>
<g id="Logo_Gradient" display="none">
	<g id="dp_dp001_2_" display="inline">
		<linearGradient id="dp_path003_5_" gradientUnits="userSpaceOnUse" x1="-170.3353" y1="358.3334" x2="-170.3353" y2="426.67">
			<stop  offset="0" style="stop-color:#FF0000"/>
			<stop  offset="1" style="stop-color:#6C0000"/>
		</linearGradient>
		<path id="dp_path003_2_" fill="url(#dp_path003_5_)" d="M-142.7,381.4l10.6-10.4l-55.1,0l0-4.2c0-4.9,3.3-7.5,6.1-7.5
			c1.6,0,2,0.6,2.5,0.3c1.1-0.8-0.9-5.2-5.6-6.7c-1.7-0.5-9-1.4-11.8-1.8l-12.5-1.7v94.7h64.1l-1.7-12.5c-0.4-2.8-1.3-10.1-1.8-11.8
			c-1.5-4.7-5.9-6.7-6.7-5.6c-0.4,0.5,0.3,1,0.3,2.5c0,2.7-2.7,6.1-7.5,6.1l-25.4,0l0-9.4l13,0L-163,402l-24.3,0.3l0-6.4l30.1,0.1
			l9.8-9.9h-39.9l0-4.8L-142.7,381.4z"/>
	</g>
</g>
<g id="Logo_Gradient_Outline" display="none">
	<g id="dp_dp001_3_" display="inline">
		<linearGradient id="dp_path003_6_" gradientUnits="userSpaceOnUse" x1="-170.3353" y1="358.3334" x2="-170.3353" y2="426.67">
			<stop  offset="0" style="stop-color:#FF0000"/>
			<stop  offset="1" style="stop-color:#6C0000"/>
		</linearGradient>
		<path id="dp_path003_3_" fill="url(#dp_path003_6_)" stroke="#000000" stroke-width="0.75" stroke-miterlimit="10" d="
			M-142.7,381.4l10.6-10.4l-55.1,0l0-4.2c0-4.9,3.3-7.5,6.1-7.5c1.6,0,2,0.6,2.5,0.3c1.1-0.8-0.9-5.2-5.6-6.7
			c-1.7-0.5-9-1.4-11.8-1.8l-12.5-1.7v94.7h64.1l-1.7-12.5c-0.4-2.8-1.3-10.1-1.8-11.8c-1.5-4.7-5.9-6.7-6.7-5.6
			c-0.4,0.5,0.3,1,0.3,2.5c0,2.7-2.7,6.1-7.5,6.1l-25.4,0l0-9.4l13,0L-163,402l-24.3,0.3l0-6.4l30.1,0.1l9.8-9.9h-39.9l0-4.8
			L-142.7,381.4z"/>
	</g>
</g>
<g id="Logo_Gradient_Outline_copy">
	<g id="dp_dp001_4_">
		<linearGradient id="dp_path003_7_" gradientUnits="userSpaceOnUse" x1="-170.3353" y1="358.3334" x2="-170.3353" y2="426.67">
			<stop  offset="0" style="stop-color:#FF0000"/>
			<stop  offset="1" style="stop-color:#6C0000"/>
		</linearGradient>
		<path id="dp_path003_4_" fill="url(#dp_path003_7_)" stroke="#000000" stroke-width="0.5" stroke-miterlimit="10" d="
			M-142.7,381.4l10.6-10.4l-55.1,0l0-4.2c0-4.9,3.3-7.5,6.1-7.5c1.6,0,2,0.6,2.5,0.3c1.1-0.8-0.9-5.2-5.6-6.7
			c-1.7-0.5-9-1.4-11.8-1.8l-12.5-1.7v94.7h64.1l-1.7-12.5c-0.4-2.8-1.3-10.1-1.8-11.8c-1.5-4.7-5.9-6.7-6.7-5.6
			c-0.4,0.5,0.3,1,0.3,2.5c0,2.7-2.7,6.1-7.5,6.1l-25.4,0l0-9.4l13,0L-163,402l-24.3,0.3l0-6.4l30.1,0.1l9.8-9.9h-39.9l0-4.8
			L-142.7,381.4z"/>
	</g>
</g>
</svg>
