<?xml version="1.0" encoding="UTF-8" standalone="no"?>
<!-- Created with Inkscape (http://www.inkscape.org/) -->

<svg
   width="113.51748mm"
   height="124.43082mm"
   viewBox="0 0 113.51748 124.43082"
   version="1.1"
   id="svg5"
   xmlns="http://www.w3.org/2000/svg"
   xmlns:svg="http://www.w3.org/2000/svg">
  <defs
     id="defs2" />
  <g
     id="layer1"
     transform="translate(-27.898555,-1.1646128)">
    <path
       style="fill:#000000;stroke-width:2.51339;stroke-miterlimit:4;stroke-dasharray:none"
       id="path1691"
       d="M 141.36436,11.803257 A 11.825654,11.734383 0 0 1 130.69782,24.58181 11.825654,11.734383 0 0 1 117.81699,14.001055 11.825654,11.734383 0 0 1 128.47656,1.2167771 11.825654,11.734383 0 0 1 141.36316,11.790615" />
    <path
       style="color:#000000;fill:#000000;-inkscape-stroke:none"
       d="m 117.14844,9.1914063 -44.964846,0.1015625 -0.06445,0.00391 C 69.629598,9.4047309 67.07843,9.5382381 64.597656,9.6796875 l -0.06641,0.00391 -0.06836,0.00781 c -2.847823,0.2864412 -6.294845,0.5000845 -9.570313,1.3984375 -3.89592,0.650221 -7.465339,2.138208 -10.658203,4.199219 -6.844767,3.834905 -11.653512,11.445796 -12.070313,19.214843 -6.8e-5,0.0013 6.9e-5,0.0026 0,0.0039 -0.485351,7.947162 1.900103,15.289978 7.607422,21.158204 l 0.05469,0.05664 0.05859,0.05469 c 3.87943,3.600686 8.796075,4.961212 12.267578,6.390625 l 0.08203,0.03516 0.08398,0.0293 c 1.348468,0.467256 2.289299,0.363497 2.347657,0.371094 l 0.808593,-6.212891 c -1.019005,-0.132651 -1.215586,-0.1227 -1.08789,-0.07617 -3.849705,-1.576995 -7.815283,-2.91745 -10.19336,-5.101562 -4.506418,-4.673802 -6.179948,-9.808811 -5.77539,-16.34375 v -0.01367 l 0.002,-0.01367 c 0.279859,-5.234606 4.21765,-11.513692 8.919922,-14.125 l 0.09766,-0.05469 0.0918,-0.06055 c 2.623888,-1.710249 5.433861,-2.868966 8.49414,-3.363281 l 0.181641,-0.0293 0.177734,-0.05078 c 2.347659,-0.669206 5.564681,-0.91928 8.615235,-1.224609 2.437152,-0.138832 4.933716,-0.269707 7.359375,-0.375 l 44.874996,-0.101563 0.0684,-0.0039 c 0.20232,-0.0094 0.73175,0.03196 1.42774,0.07031 l 0.34375,-6.2558597 c -0.47791,-0.026332 -1.16099,-0.1139013 -2.06055,-0.072266 z"
       id="path1894" />
    <ellipse
       style="fill:#000000;stroke-width:7.95122;stroke-miterlimit:4;stroke-dasharray:none"
       id="path1951"
       cx="84.735245"
       cy="63.371841"
       rx="31.361025"
       ry="30.90974" />
    <path
       style="color:#000000;fill:#000000;-inkscape-stroke:none"
       d="m 114.05469,64.441406 -0.0566,6.265625 c 1.02169,0.0093 1.69339,-0.02858 2.11328,0.002 3.88438,0.948607 7.67055,2.532953 10.25586,5.248047 l 0.0684,0.07227 0.0723,0.06836 c 3.07924,2.846839 4.66275,6.949664 5.53906,11.50586 -0.0628,4.370607 -0.45416,7.866446 -2.11523,11.390625 l -0.0644,0.134765 -0.0508,0.142578 c -1.01201,2.821774 -3.9075,4.225684 -7.29297,7.261714 -3.0027,1.78589 -7.06277,2.2675 -11.55664,3.22071 l -0.002,0.002 h -0.004 c -2.62689,0.56268 -5.28106,0.86102 -7.84571,0.73047 l -0.10156,-0.006 -0.0996,0.002 c -2.975858,0.0402 -5.949511,0.0742 -8.929685,0.12891 l -0.113281,0.002 -0.111328,0.01 c -3.49517,0.3171 -7.427405,0.0185 -11.605469,0.26172 -4.198649,0.18209 -8.604631,-0.0801 -13.195313,-0.0801 h -0.01367 -0.01563 c -4.301581,0.0397 -8.627983,-0.0312 -13.021484,-0.0312 h -0.0039 -0.0039 c -1.750098,0.004 -3.515813,-0.0415 -5.285157,-0.0762 l -0.123047,6.26367 c 1.741891,0.0341 3.553072,0.0821 5.416016,0.0781 4.314924,0 8.652016,0.0713 13.050781,0.0312 4.340086,0 8.833492,0.27517 13.466797,0.0742 l 0.02344,-0.002 0.02539,-0.002 c 3.616409,-0.21456 7.622178,0.10619 11.84961,-0.27735 l -0.22461,0.0117 c 2.951689,-0.0541 5.91438,-0.0886 8.89844,-0.12891 l -0.20117,-0.004 c 3.25888,0.16589 6.44839,-0.21239 9.4707,-0.85938 l 0.006,-0.002 c 4.04172,-0.85669 8.97428,-1.24024 13.5664,-4.01563 l 0.2793,-0.16796 0.23828,-0.22266 c 2.53457,-2.36822 7.28679,-4.43114 9.32617,-10.0332 2.14972,-4.675692 2.6069,-9.311283 2.6543,-14.119142 l 0.004,-0.302735 -0.0566,-0.298828 c -0.9888,-5.339916 -2.96738,-10.957693 -7.46094,-15.152344 -3.85105,-4.001064 -8.88593,-5.930194 -13.44531,-7.017578 l -0.17578,-0.04297 -0.17969,-0.02148 c -1.31616,-0.157174 -2.3133,-0.03895 -2.96875,-0.04492 z"
       id="path2185" />
    <ellipse
       style="fill:#000000;stroke-width:6.26499;stroke-miterlimit:4;stroke-dasharray:none"
       id="path2291"
       cx="40.347149"
       cy="113.87341"
       rx="12.448594"
       ry="11.722023" />
  </g>
</svg>
