<svg width="256" height="256" viewBox="0 0 256 256" fill="none" xmlns="http://www.w3.org/2000/svg">
<circle cx="128" cy="128" r="112" fill="url(#paint0_linear_486_108)"/>
<circle cx="128" cy="128" r="102" fill="url(#paint1_linear_486_108)"/>
<circle cx="128" cy="127" r="97" fill="url(#paint2_linear_486_108)"/>
<circle cx="128" cy="127" r="97" fill="url(#paint3_radial_486_108)"/>
<path fill-rule="evenodd" clip-rule="evenodd" d="M128 220C179.362 220 221 178.362 221 127C221 75.6375 179.362 34 128 34C76.6375 34 35 75.6375 35 127C35 178.362 76.6375 220 128 220ZM128 224C181.572 224 225 180.572 225 127C225 73.4284 181.572 30 128 30C74.4284 30 31 73.4284 31 127C31 180.572 74.4284 224 128 224Z" fill="url(#paint4_linear_486_108)"/>
<circle opacity="0.4" cx="69" cy="165" r="3" fill="white"/>
<circle opacity="0.4" cx="190" cy="180" r="2" fill="white"/>
<circle opacity="0.3" cx="177" cy="165" r="3" fill="white"/>
<circle opacity="0.4" cx="82" cy="180" r="2" fill="white"/>
<circle opacity="0.2" cx="180" cy="186" r="2" fill="white"/>
<circle opacity="0.2" cx="67" cy="139" r="3" fill="white"/>
<circle opacity="0.3" cx="87" cy="171" r="5" fill="white"/>
<circle opacity="0.1" cx="69" cy="187" r="5" fill="white"/>
<circle opacity="0.1" cx="111" cy="205" r="5" fill="white"/>
<circle opacity="0.1" cx="135" cy="211" r="3" fill="white"/>
<circle opacity="0.1" cx="165" cy="183" r="5" fill="white"/>
<circle opacity="0.3" cx="91" cy="195" r="9" fill="white"/>
<circle opacity="0.3" cx="152" cy="204" r="6" fill="white"/>
<circle opacity="0.22" cx="57" cy="149" r="1" fill="white"/>
<circle opacity="0.22" cx="175" cy="177" r="1" fill="white"/>
<circle opacity="0.22" cx="189" cy="141" r="1" fill="white"/>
<circle opacity="0.22" cx="71" cy="177" r="1" fill="white"/>
<circle opacity="0.22" cx="193" cy="155" r="1" fill="white"/>
<circle opacity="0.22" cx="169" cy="171" r="1" fill="white"/>
<circle opacity="0.3" cx="74" cy="154" r="2" fill="white"/>
<circle opacity="0.3" cx="150" cy="188" r="2" fill="white"/>
<circle opacity="0.3" cx="58" cy="174" r="2" fill="white"/>
<circle opacity="0.1" cx="56" cy="164" r="4" fill="white"/>
<circle opacity="0.1" cx="191" cy="165" r="3" fill="white"/>
<circle opacity="0.2" cx="184" cy="154" r="4" fill="white"/>
<circle opacity="0.1" cx="202" cy="146" r="2" fill="white"/>
<circle opacity="0.1" cx="205" cy="163" r="1" fill="white"/>
<circle opacity="0.1" cx="173" cy="197" r="3" fill="white"/>
<circle opacity="0.1" cx="80" cy="124" r="2" fill="white"/>
<path d="M108 84C108 82.8954 108.895 82 110 82H146C147.105 82 148 82.8954 148 84V90C148 91.1046 147.105 92 146 92H110C108.895 92 108 91.1046 108 90V84Z" fill="#339731"/>
<path d="M108 72C108 70.8954 108.895 70 110 70H146C147.105 70 148 70.8954 148 72V74C148 75.1046 147.105 76 146 76H110C108.895 76 108 75.1046 108 74V72Z" fill="#47CA44"/>
<rect x="108" y="98" width="40" height="14" rx="2" fill="#1A5219"/>
<path d="M108 122C108 120.895 108.895 120 110 120H146C147.105 120 148 120.895 148 122V142H171.308C173.07 142 173.971 144.114 172.75 145.385L132.328 187.491C129.967 189.951 126.033 189.951 123.672 187.491L83.2497 145.385C82.0293 144.114 82.9303 142 84.6925 142H108V122Z" fill="url(#paint5_linear_486_108)"/>
<path fill-rule="evenodd" clip-rule="evenodd" d="M110 116H146C149.314 116 152 118.686 152 122V138H171.308C176.594 138 179.297 144.342 175.636 148.155L135.214 190.261C131.278 194.361 124.722 194.361 120.786 190.261L80.3641 148.155C76.703 144.342 79.4058 138 84.6924 138H104V122C104 118.686 106.686 116 110 116ZM108 142H84.6924C82.9302 142 82.0293 144.114 83.2497 145.385L123.672 187.491C126.033 189.951 129.967 189.951 132.328 187.491L172.75 145.385C173.971 144.114 173.07 142 171.308 142H148V122C148 120.895 147.105 120 146 120H110C108.895 120 108 120.895 108 122V142Z" fill="url(#paint6_linear_486_108)"/>
<defs>
<linearGradient id="paint0_linear_486_108" x1="128" y1="16" x2="128" y2="240" gradientUnits="userSpaceOnUse">
<stop stop-color="#DEDEDE"/>
<stop offset="1" stop-color="#333333"/>
</linearGradient>
<linearGradient id="paint1_linear_486_108" x1="128" y1="26" x2="128" y2="230" gradientUnits="userSpaceOnUse">
<stop stop-color="#333333"/>
<stop offset="1" stop-color="#FDFCFC"/>
</linearGradient>
<linearGradient id="paint2_linear_486_108" x1="128" y1="30" x2="128" y2="224" gradientUnits="userSpaceOnUse">
<stop stop-color="#5FF65B"/>
<stop offset="1" stop-color="#138F10"/>
</linearGradient>
<radialGradient id="paint3_radial_486_108" cx="0" cy="0" r="1" gradientUnits="userSpaceOnUse" gradientTransform="translate(128 191) rotate(90) scale(57 93.9631)">
<stop stop-color="#DBF8DB"/>
<stop offset="0.41739" stop-color="#6CE26A"/>
<stop offset="1" stop-color="#6CE26A" stop-opacity="0"/>
</radialGradient>
<linearGradient id="paint4_linear_486_108" x1="128" y1="30" x2="128" y2="224" gradientUnits="userSpaceOnUse">
<stop stop-color="#2EB12B"/>
<stop offset="1" stop-color="#87DF85"/>
</linearGradient>
<linearGradient id="paint5_linear_486_108" x1="128" y1="120" x2="128" y2="189.336" gradientUnits="userSpaceOnUse">
<stop stop-color="#1A5219"/>
<stop offset="1"/>
</linearGradient>
<linearGradient id="paint6_linear_486_108" x1="128" y1="145" x2="128" y2="189.336" gradientUnits="userSpaceOnUse">
<stop stop-color="white" stop-opacity="0"/>
<stop offset="1" stop-color="white" stop-opacity="0.54"/>
</linearGradient>
</defs>
</svg>
