<?xml version="1.0" encoding="UTF-8" standalone="no"?>
<!-- Creator: CorelDRAW 2019 (64-Bit) -->

<svg
   xml:space="preserve"
   width="76.124mm"
   height="75.2485mm"
   version="1.1"
   style="shape-rendering:geometricPrecision; text-rendering:geometricPrecision; image-rendering:optimizeQuality; fill-rule:evenodd; clip-rule:evenodd"
   viewBox="0 0 7598.17 7510.78"
   id="svg17"
   sodipodi:docname="rmac_logo.svg"
   inkscape:version="1.1.2 (b8e25be833, 2022-02-05)"
   xmlns:inkscape="http://www.inkscape.org/namespaces/inkscape"
   xmlns:sodipodi="http://sodipodi.sourceforge.net/DTD/sodipodi-0.dtd"
   xmlns="http://www.w3.org/2000/svg"
   xmlns:svg="http://www.w3.org/2000/svg"><sodipodi:namedview
   id="namedview19"
   pagecolor="#ffffff"
   bordercolor="#666666"
   borderopacity="1.0"
   inkscape:pageshadow="2"
   inkscape:pageopacity="0.0"
   inkscape:pagecheckerboard="0"
   inkscape:document-units="mm"
   showgrid="false"
   inkscape:zoom="2.1705205"
   inkscape:cx="192.35017"
   inkscape:cy="169.08386"
   inkscape:window-width="2494"
   inkscape:window-height="1417"
   inkscape:window-x="58"
   inkscape:window-y="-8"
   inkscape:window-maximized="1"
   inkscape:current-layer="_1628313585568" />
 <defs
   id="defs4">
  <style
   type="text/css"
   id="style2">
   <![CDATA[
    .fil2 {fill:#2B2A29}
    .fil1 {fill:#FFE79F}
    .fil0 {fill:#DB7B93}
    .fil3 {fill:#2B2A29;fill-rule:nonzero}
   ]]>
  </style>
 </defs>
 <g
   id="Layer_x0020_1"
   inkscape:label="Layer 1">
  <metadata
   id="CorelCorpID_0Corel-Layer" />
  <ellipse
   class="fil0"
   cx="3799.08"
   cy="3859.18"
   rx="3799.08"
   ry="3651.6"
   id="ellipse7" />
  <ellipse
   class="fil1"
   cx="3799.0801"
   cy="3180.6499"
   rx="3247.7168"
   ry="3180.6499"
   id="ellipse9" />
  <g
   id="_1628313585568">
   <path
   class="fil2"
   d="M2730.21 1356.98l2137.76 0c76.05,0 138.27,62.22 138.27,138.28l0 205.54 -2414.3 0 0 -205.54c0,-76.06 62.22,-138.28 138.27,-138.28zm2276.03 440.99l0 1636.94c0,32.89 -26.9,59.8 -59.79,59.8l-2294.72 0c-32.89,0 -59.79,-26.91 -59.79,-59.8l0 -1636.94 2414.3 0zm-1298.27 966.3l629.92 0c26.98,0 49.05,22.07 49.05,49.05l0 0c0,26.98 -22.07,49.05 -49.05,49.05l-629.92 0c-26.98,0 -49.05,-22.07 -49.05,-49.05l0 0c0,-26.98 22.07,-49.05 49.05,-49.05zm-421.09 14.46l257.83 -257.84 -257.84 -257.83c-19.07,-19.07 -19.07,-50.29 0,-69.37l0.01 0c19.07,-19.07 50.28,-19.07 69.36,0 109.07,109.08 218.13,218.13 327.2,327.2l0 0 -327.2 327.2c-19.07,19.07 -50.29,19.07 -69.36,0l0 -0.01c-19.08,-19.07 -19.08,-50.28 0,-69.35z"
   id="path11" />
   <path
   d="m 2800.324,4220.4 c -8.71,0 -13.08,3.26 -13.08,10.89 v 80.67 c 0,7.62 4.36,11.99 13.08,11.99 h 93.73 v 389.12 c 0,8.71 4.37,13.08 13.09,13.08 h 109 c 7.64,0 11.99,-4.36 11.99,-13.08 v -328.1 c 51.24,-38.14 95.92,-47.95 173.31,-47.95 8.73,0 13.09,-4.36 13.09,-11.99 v -101.37 c 0,-7.64 -4.35,-10.9 -13.09,-10.9 -47.95,0 -124.26,23.99 -179.84,76.3 l -11.99,-61.05 c -1.09,-5.44 -4.36,-7.62 -9.81,-7.62 h -199.47 z"
   id="path3753" /><path
   d="m 3592.004,4268.35 c -17.43,-43.6 -46.86,-55.59 -85.02,-55.59 -38.14,0 -62.12,16.35 -88.28,55.59 l -13.09,-41.41 c -1.08,-4.36 -3.26,-6.54 -6.54,-6.54 h -64.3 c -5.45,0 -7.64,3.26 -7.64,10.89 v 481.78 c 0,8.71 2.19,13.08 7.64,13.08 h 88.28 c 5.45,0 7.64,-4.36 7.64,-13.08 V 4340.3 c 8.71,-13.09 20.7,-26.16 41.41,-26.16 22.89,0 29.43,15.25 29.43,58.86 v 340.07 c 0,8.71 2.18,13.08 7.64,13.08 h 89.36 c 4.37,0 6.55,-4.36 6.55,-13.08 v -313.91 c 0,-20.72 -1.09,-40.33 -3.27,-56.68 16.35,-20.7 27.25,-28.34 44.7,-28.34 20.7,0 30.51,15.25 30.51,63.22 v 335.71 c 0,8.71 2.19,13.08 7.64,13.08 h 88.28 c 5.46,0 7.64,-4.36 7.64,-13.08 v -360.79 c 0,-91.56 -22.89,-139.51 -92.66,-139.51 -35.96,0 -66.49,16.35 -95.92,55.59 z"
   id="path3751" /><path
   d="m 4091.224,4429.67 c -152.61,0 -218.01,54.49 -218.01,164.57 0,82.84 54.51,139.53 140.61,139.53 65.41,0 101.37,-18.54 156.97,-53.41 l 14.17,39.24 c 1.09,4.36 5.44,6.54 11.98,6.54 h 78.48 c 7.64,0 12,-4.36 12,-13.08 v -332.45 c 0,-103.56 -58.86,-160.22 -160.23,-160.22 h -195.11 c -8.71,0 -13.08,3.26 -13.08,10.89 v 80.67 c 0,7.62 4.36,11.99 13.08,11.99 h 153.69 c 46.87,0 66.5,23.98 66.5,66.49 v 39.25 h -61.04 z"
   id="path3747" /><path
   d="m 4152.264,4607.33 c -30.53,16.35 -64.31,27.25 -98.11,27.25 -33.79,0 -45.77,-23.99 -45.77,-54.49 0,-43.61 29.42,-65.41 88.28,-65.41 h 55.6 z"
   id="path3749"
   style="fill:#ffe79f;fill-opacity:1" /><path
   d="m 4398.174,4473.26 c 0,161.32 91.56,260.51 248.51,260.51 75.21,0 122.08,-9.81 161.33,-27.25 5.44,-3.27 5.44,-6.55 2.18,-11.99 l -34.87,-77.4 c -2.2,-4.35 -5.46,-5.45 -10.91,-3.27 -30.52,12 -57.76,14.17 -91.56,14.17 -74.11,0 -134.07,-47.95 -134.07,-154.78 0,-105.72 59.96,-155.87 134.07,-155.87 33.8,0 61.04,2.18 91.56,14.17 5.45,2.18 8.71,1.09 10.91,-3.26 l 34.87,-76.31 c 3.26,-4.36 2.18,-9.81 -2.18,-13.08 -39.25,-16.35 -87.21,-26.16 -161.33,-26.16 -158.04,0 -248.51,98.1 -248.51,260.5 z"
   id="path3745" />
  </g>
 </g>
</svg>
