<svg id="svg" version="1.1" xmlns="http://www.w3.org/2000/svg" xmlns:xlink="http://www.w3.org/1999/xlink" width="400" height="400" viewBox="0, 0, 400,400"><g id="svgg"><path id="path0" d="M365.000 24.331 L 363.400 25.436 363.119 30.757 C 362.965 33.684,362.574 36.916,362.250 37.939 C 361.650 39.839,361.299 43.045,360.187 56.800 C 359.841 61.090,359.312 65.320,359.013 66.200 C 358.053 69.023,357.853 74.201,357.972 93.098 L 358.089 111.596 356.745 112.857 C 356.005 113.550,354.770 114.379,354.000 114.697 C 351.807 115.605,350.800 116.745,350.800 118.322 C 350.800 120.650,353.123 126.834,354.586 128.400 C 356.638 130.597,356.800 131.595,356.800 142.073 C 356.800 153.686,356.231 155.600,352.781 155.600 C 349.193 155.600,348.606 164.825,351.953 168.595 C 352.347 169.038,353.243 170.440,353.944 171.712 L 355.220 174.024 355.058 180.512 C 354.817 190.162,354.086 192.692,351.204 193.845 C 349.467 194.540,348.090 197.138,348.533 198.887 C 349.783 203.822,350.488 205.913,351.192 206.779 C 353.366 209.453,353.302 208.541,353.252 236.200 C 353.226 250.280,353.091 273.050,352.952 286.800 C 352.662 315.447,352.893 313.765,349.468 312.171 C 348.331 311.641,347.183 311.206,346.919 311.204 C 344.668 311.186,342.668 308.557,343.180 306.289 C 343.867 303.242,343.034 301.645,339.626 299.475 C 338.560 298.797,338.140 298.162,337.755 296.652 C 337.482 295.581,336.815 294.231,336.273 293.652 C 335.731 293.074,334.922 291.880,334.476 291.000 C 332.223 286.562,322.425 279.581,315.996 277.833 C 314.353 277.386,313.623 276.947,313.126 276.106 C 311.342 273.085,310.113 273.157,306.459 276.500 C 304.779 278.036,304.647 278.083,302.701 277.825 C 300.741 277.565,294.919 274.764,294.318 273.792 C 293.502 272.473,286.830 265.833,285.800 265.315 C 285.140 264.983,283.914 264.057,283.075 263.256 L 281.551 261.800 281.640 256.400 C 281.712 252.087,281.585 250.573,281.012 248.880 C 279.819 245.352,280.814 240.825,283.405 238.000 C 284.314 237.009,286.000 231.818,286.000 230.011 C 286.000 229.383,285.090 228.168,283.245 226.335 C 279.980 223.089,280.048 223.366,280.310 214.424 C 280.516 207.411,280.919 205.888,283.237 203.375 C 284.004 202.544,284.892 199.929,285.391 197.033 C 285.773 194.817,284.723 192.673,282.641 191.417 C 281.738 190.873,280.733 190.250,280.407 190.033 C 279.912 189.703,279.836 188.446,279.945 182.349 C 280.086 174.440,280.096 174.395,283.617 166.610 C 285.002 163.549,284.942 160.190,283.484 159.062 C 282.870 158.588,281.653 157.592,280.780 156.849 L 279.191 155.499 279.419 151.849 C 279.936 143.552,280.285 122.434,279.939 120.373 C 278.222 110.155,275.861 90.657,275.232 81.491 C 274.870 76.220,274.529 75.510,271.994 74.751 C 268.602 73.735,267.504 75.766,267.430 83.192 C 267.358 90.418,266.512 102.287,265.804 106.000 C 265.490 107.650,265.035 110.969,264.795 113.375 C 264.554 115.781,264.111 118.931,263.811 120.375 C 263.393 122.381,263.282 126.763,263.340 138.963 C 263.427 157.106,263.632 155.960,259.975 157.813 C 257.742 158.944,257.200 159.736,257.200 161.866 C 257.200 163.842,259.439 170.207,260.765 172.000 C 261.782 173.375,261.802 173.536,261.924 181.082 C 262.066 189.932,262.050 189.986,259.025 190.940 C 254.785 192.276,254.001 198.781,257.547 203.193 C 260.095 206.365,260.361 207.544,260.214 215.020 C 260.039 223.942,259.491 225.119,256.467 223.068 C 255.660 222.521,254.190 221.946,253.200 221.790 C 249.877 221.265,245.623 218.234,243.786 215.083 C 242.912 213.584,242.099 212.771,240.886 212.184 C 238.289 210.926,235.669 208.127,235.009 205.906 C 234.359 203.717,231.076 197.527,230.163 196.769 C 229.824 196.488,229.263 195.709,228.916 195.037 C 227.384 192.074,216.005 180.319,212.600 178.182 C 211.940 177.768,210.693 176.837,209.828 176.114 C 208.963 175.391,208.043 174.800,207.783 174.800 C 207.523 174.800,206.610 174.237,205.755 173.548 C 204.900 172.859,203.569 172.004,202.797 171.648 C 202.025 171.292,200.765 170.518,199.996 169.928 C 196.605 167.328,186.067 163.951,179.600 163.393 C 174.006 162.910,172.675 162.171,172.036 159.195 C 171.809 158.136,171.256 156.565,170.808 155.705 C 169.580 153.349,170.871 150.000,173.007 150.000 C 176.772 150.000,185.832 139.755,187.403 133.722 C 189.267 126.567,187.011 116.443,184.609 121.183 C 174.769 140.601,151.835 140.911,143.356 121.739 C 140.794 115.945,138.353 126.194,140.394 134.177 C 142.319 141.703,148.878 148.434,156.203 150.401 C 160.328 151.508,161.173 152.960,159.668 156.353 C 159.217 157.369,158.740 158.873,158.607 159.695 C 158.266 161.806,155.465 162.648,146.200 163.426 C 142.800 163.712,137.771 165.108,134.800 166.592 C 133.810 167.086,132.340 167.704,131.533 167.966 C 129.888 168.498,124.737 171.356,122.721 172.856 C 121.994 173.396,119.968 174.639,118.217 175.619 C 116.466 176.598,114.110 178.300,112.980 179.400 C 111.851 180.500,109.323 182.912,107.363 184.760 C 103.272 188.617,100.696 191.589,99.697 193.605 C 99.314 194.378,98.628 195.548,98.172 196.205 C 97.717 196.862,96.861 198.390,96.270 199.600 C 95.678 200.810,93.739 203.420,91.960 205.400 C 90.180 207.380,88.268 209.675,87.709 210.500 C 87.043 211.484,86.196 212.149,85.244 212.434 C 82.712 213.193,79.201 217.538,78.620 220.631 C 78.203 222.858,77.348 224.303,76.052 224.973 C 73.459 226.314,69.954 230.966,68.800 234.600 C 67.539 238.569,67.158 238.957,62.159 241.360 C 57.908 243.404,55.609 244.936,53.400 247.195 C 49.705 250.975,48.043 252.405,47.100 252.617 C 46.005 252.862,44.233 254.146,40.800 257.178 C 37.491 260.101,34.651 262.400,34.348 262.400 C 34.183 262.400,33.243 263.075,32.259 263.900 C 31.274 264.725,29.721 266.005,28.808 266.744 C 27.775 267.581,24.550 269.117,20.274 270.810 C 16.493 272.306,11.420 274.425,9.000 275.518 C 6.580 276.611,3.565 277.735,2.300 278.016 L 0.000 278.527 0.000 339.264 L 0.000 400.000 200.000 400.000 L 400.000 400.000 400.000 368.600 C 400.000 337.683,399.988 337.200,399.216 337.200 C 398.785 337.200,398.020 336.756,397.516 336.213 C 396.397 335.007,390.507 331.956,387.880 331.222 C 385.787 330.636,384.061 330.945,381.152 332.426 C 377.989 334.036,376.410 329.284,378.575 324.675 C 380.264 321.081,380.150 320.363,377.715 319.230 C 376.281 318.563,375.526 317.939,375.296 317.230 C 374.482 314.712,375.553 211.475,376.405 210.400 C 376.840 209.850,377.577 208.680,378.042 207.800 C 378.507 206.920,379.294 205.750,379.790 205.200 C 381.053 203.798,381.600 201.900,381.600 198.914 C 381.600 195.633,381.228 194.992,378.605 193.750 C 375.650 192.351,375.520 191.881,375.302 181.800 L 375.120 173.400 376.400 171.800 C 377.104 170.920,378.042 169.480,378.485 168.600 C 378.928 167.720,379.613 166.640,380.007 166.200 C 383.039 162.815,381.909 156.377,378.185 155.819 C 374.936 155.331,374.803 154.822,374.801 142.797 C 374.800 131.515,374.933 130.636,376.981 128.369 C 377.761 127.505,378.401 126.573,378.402 126.299 C 378.402 126.024,378.942 124.720,379.600 123.400 C 381.747 119.094,381.244 116.647,377.923 115.242 C 374.532 113.808,374.685 115.032,374.622 88.801 C 374.564 64.662,373.982 55.388,372.194 50.121 C 371.867 49.159,371.600 47.811,371.600 47.126 C 371.600 46.440,371.221 42.981,370.758 39.439 C 370.164 34.899,369.989 32.016,370.163 29.664 C 370.561 24.293,368.355 22.015,365.000 24.331 " stroke="none" fill="#fafafa" fill-rule="evenodd"></path><path id="path1" d="M0.000 139.200 C 0.000 250.296,0.101 278.399,0.500 278.395 C 1.750 278.383,5.359 277.169,8.820 275.597 C 10.899 274.652,15.876 272.573,19.881 270.978 C 24.423 269.169,27.783 267.574,28.815 266.739 C 29.724 266.002,31.274 264.725,32.259 263.900 C 33.243 263.075,34.183 262.400,34.348 262.400 C 34.651 262.400,37.491 260.101,40.800 257.178 C 44.233 254.146,46.005 252.862,47.100 252.617 C 48.043 252.405,49.705 250.975,53.400 247.195 C 55.609 244.936,57.908 243.404,62.159 241.360 C 67.158 238.957,67.539 238.569,68.800 234.600 C 69.954 230.966,73.459 226.314,76.052 224.973 C 77.348 224.303,78.203 222.858,78.620 220.631 C 79.201 217.538,82.712 213.193,85.244 212.434 C 86.196 212.149,87.043 211.484,87.709 210.500 C 88.268 209.675,90.180 207.380,91.960 205.400 C 93.739 203.420,95.678 200.810,96.270 199.600 C 96.861 198.390,97.717 196.862,98.172 196.205 C 98.628 195.548,99.314 194.378,99.697 193.605 C 100.696 191.589,103.272 188.617,107.363 184.760 C 109.323 182.912,111.851 180.500,112.980 179.400 C 114.110 178.300,116.466 176.598,118.217 175.619 C 119.968 174.639,121.994 173.396,122.721 172.856 C 124.737 171.356,129.888 168.498,131.533 167.966 C 132.340 167.704,133.810 167.086,134.800 166.592 C 137.771 165.108,142.800 163.712,146.200 163.426 C 155.465 162.648,158.266 161.806,158.607 159.695 C 158.740 158.873,159.217 157.369,159.668 156.353 C 161.173 152.960,160.328 151.508,156.203 150.401 C 148.878 148.434,142.319 141.703,140.394 134.177 C 138.353 126.194,140.794 115.945,143.356 121.739 C 147.582 131.294,154.820 135.939,164.800 135.500 C 174.034 135.093,179.597 131.073,184.609 121.183 C 187.011 116.443,189.267 126.567,187.403 133.722 C 185.832 139.755,176.772 150.000,173.007 150.000 C 170.871 150.000,169.580 153.349,170.808 155.705 C 171.256 156.565,171.809 158.136,172.036 159.195 C 172.675 162.171,174.006 162.910,179.600 163.393 C 186.067 163.951,196.605 167.328,199.996 169.928 C 200.765 170.518,202.025 171.292,202.797 171.648 C 203.569 172.004,204.900 172.859,205.755 173.548 C 206.610 174.237,207.523 174.800,207.783 174.800 C 208.043 174.800,208.963 175.391,209.828 176.114 C 210.693 176.837,211.940 177.768,212.600 178.182 C 216.005 180.319,227.384 192.074,228.916 195.037 C 229.263 195.709,229.824 196.488,230.163 196.769 C 231.076 197.527,234.359 203.717,235.009 205.906 C 235.669 208.127,238.289 210.926,240.886 212.184 C 242.099 212.771,242.912 213.584,243.786 215.083 C 245.623 218.234,249.877 221.265,253.200 221.790 C 254.190 221.946,255.660 222.521,256.467 223.068 C 259.491 225.119,260.039 223.942,260.214 215.020 C 260.361 207.544,260.095 206.365,257.547 203.193 C 254.001 198.781,254.785 192.276,259.025 190.940 C 262.050 189.986,262.066 189.932,261.924 181.082 C 261.802 173.536,261.782 173.375,260.765 172.000 C 259.439 170.207,257.200 163.842,257.200 161.866 C 257.200 159.736,257.742 158.944,259.975 157.813 C 263.632 155.960,263.427 157.106,263.340 138.963 C 263.282 126.763,263.393 122.381,263.811 120.375 C 264.111 118.931,264.554 115.781,264.795 113.375 C 265.035 110.969,265.490 107.650,265.804 106.000 C 266.512 102.287,267.358 90.418,267.430 83.192 C 267.504 75.766,268.602 73.735,271.994 74.751 C 274.529 75.510,274.870 76.220,275.232 81.491 C 275.861 90.657,278.222 110.155,279.939 120.373 C 280.285 122.434,279.936 143.552,279.419 151.849 L 279.191 155.499 280.780 156.849 C 281.653 157.592,282.870 158.588,283.484 159.062 C 284.942 160.190,285.002 163.549,283.617 166.610 C 280.096 174.395,280.086 174.440,279.945 182.349 C 279.836 188.446,279.912 189.703,280.407 190.033 C 280.733 190.250,281.738 190.873,282.641 191.417 C 284.723 192.673,285.773 194.817,285.391 197.033 C 284.892 199.929,284.004 202.544,283.237 203.375 C 280.919 205.888,280.516 207.411,280.310 214.424 C 280.048 223.366,279.980 223.089,283.245 226.335 C 285.090 228.168,286.000 229.383,286.000 230.011 C 286.000 231.818,284.314 237.009,283.405 238.000 C 280.814 240.825,279.819 245.352,281.012 248.880 C 281.585 250.573,281.712 252.087,281.640 256.400 L 281.551 261.800 283.075 263.256 C 283.914 264.057,285.140 264.983,285.800 265.315 C 286.830 265.833,293.502 272.473,294.318 273.792 C 294.919 274.764,300.741 277.565,302.701 277.825 C 304.647 278.083,304.779 278.036,306.459 276.500 C 310.113 273.157,311.342 273.085,313.126 276.106 C 313.623 276.947,314.353 277.386,315.996 277.833 C 320.794 279.137,326.817 282.829,331.532 287.354 C 332.704 288.479,334.029 290.120,334.476 291.000 C 334.922 291.880,335.731 293.074,336.273 293.652 C 336.815 294.231,337.482 295.581,337.755 296.652 C 338.140 298.162,338.560 298.797,339.626 299.475 C 343.034 301.645,343.867 303.242,343.180 306.289 C 342.668 308.557,344.668 311.186,346.919 311.204 C 347.183 311.206,348.331 311.641,349.468 312.171 C 352.893 313.765,352.662 315.447,352.952 286.800 C 353.091 273.050,353.226 250.280,353.252 236.200 C 353.302 208.541,353.366 209.453,351.192 206.779 C 350.488 205.913,349.783 203.822,348.533 198.887 C 348.090 197.138,349.467 194.540,351.204 193.845 C 354.086 192.692,354.817 190.162,355.058 180.512 L 355.220 174.024 353.944 171.712 C 353.243 170.440,352.347 169.038,351.953 168.595 C 348.606 164.825,349.193 155.600,352.781 155.600 C 356.231 155.600,356.800 153.686,356.800 142.073 C 356.800 131.595,356.638 130.597,354.586 128.400 C 353.123 126.834,350.800 120.650,350.800 118.322 C 350.800 116.745,351.807 115.605,354.000 114.697 C 354.770 114.379,356.005 113.550,356.745 112.857 L 358.089 111.596 357.972 93.098 C 357.853 74.201,358.053 69.023,359.013 66.200 C 359.312 65.320,359.841 61.090,360.187 56.800 C 361.299 43.045,361.650 39.839,362.250 37.939 C 362.574 36.916,362.965 33.684,363.119 30.757 L 363.400 25.436 365.000 24.331 C 368.355 22.015,370.561 24.293,370.163 29.664 C 369.989 32.016,370.164 34.899,370.758 39.439 C 371.221 42.981,371.600 46.440,371.600 47.126 C 371.600 47.811,371.867 49.159,372.194 50.121 C 373.982 55.388,374.564 64.662,374.622 88.801 C 374.685 115.032,374.532 113.808,377.923 115.242 C 381.244 116.647,381.747 119.094,379.600 123.400 C 378.942 124.720,378.402 126.024,378.402 126.299 C 378.401 126.573,377.761 127.505,376.981 128.369 C 374.933 130.636,374.800 131.515,374.801 142.797 C 374.803 154.822,374.936 155.331,378.185 155.819 C 381.909 156.377,383.039 162.815,380.007 166.200 C 379.613 166.640,378.928 167.720,378.485 168.600 C 378.042 169.480,377.104 170.920,376.400 171.800 L 375.120 173.400 375.302 181.800 C 375.520 191.881,375.650 192.351,378.605 193.750 C 381.228 194.992,381.600 195.633,381.600 198.914 C 381.600 201.900,381.053 203.798,379.790 205.200 C 379.294 205.750,378.507 206.920,378.042 207.800 C 377.577 208.680,376.840 209.850,376.405 210.400 C 375.553 211.475,374.482 314.712,375.296 317.230 C 375.526 317.939,376.281 318.563,377.715 319.230 C 380.150 320.363,380.264 321.081,378.575 324.675 C 376.410 329.284,377.989 334.036,381.152 332.426 C 384.061 330.945,385.787 330.636,387.880 331.222 C 390.507 331.956,396.397 335.007,397.516 336.213 C 398.020 336.756,398.785 337.200,399.216 337.200 C 399.993 337.200,400.000 335.773,400.000 168.600 L 400.000 0.000 200.000 0.000 L 0.000 0.000 0.000 139.200 " stroke="none" fill="#04342c" fill-rule="evenodd"></path></g></svg>