<svg width="1000" height="1000" viewBox="0 0 1000 1000" fill="none" xmlns="http://www.w3.org/2000/svg">
<path d="M0 400C0 259.987 0 189.98 27.2484 136.502C51.2167 89.4618 89.4618 51.2167 136.502 27.2484C189.98 0 259.987 0 400 0L600 0C740.013 0 810.02 0 863.497 27.2484C910.538 51.2167 948.783 89.4618 972.751 136.502C1000 189.98 1000 259.987 1000 400V600C1000 740.013 1000 810.02 972.751 863.497C948.783 910.538 910.538 948.783 863.497 972.751C810.02 1000 740.013 1000 600 1000H400C259.987 1000 189.98 1000 136.502 972.751C89.4618 948.783 51.2167 910.538 27.2484 863.497C0 810.02 0 740.013 0 600L0 400Z" fill="#179DE3"/>
<path d="M774.8 346.188C729.001 329.191 692.886 293.076 675.889 247.277C658.88 293.054 622.76 329.19 576.979 346.188C622.763 363.208 658.87 399.315 675.889 445.098C692.887 399.318 729.024 363.197 774.8 346.188Z" fill="white"/>
<path d="M501.221 249.994H251.221V749.994L751.113 750.005V500.005L501.221 749.897V249.994Z" fill="white"/>
</svg>