<?xml version="1.0" encoding="UTF-8" standalone="no"?>
<svg
   xmlns:dc="http://purl.org/dc/elements/1.1/"
   xmlns:cc="http://creativecommons.org/ns#"
   xmlns:rdf="http://www.w3.org/1999/02/22-rdf-syntax-ns#"
   xmlns:svg="http://www.w3.org/2000/svg"
   xmlns="http://www.w3.org/2000/svg"
   xmlns:sodipodi="http://sodipodi.sourceforge.net/DTD/sodipodi-0.dtd"
   xmlns:inkscape="http://www.inkscape.org/namespaces/inkscape"
   width="112.99415mm"
   height="112.99415mm"
   viewBox="0 0 112.99415 112.99415"
   version="1.1"
   id="svg8"
   inkscape:version="1.0 (4035a4fb49, 2020-05-01)"
   sodipodi:docname="com.parallax.PropellerIDE.svg">
  <defs
     id="defs2" />
  <sodipodi:namedview
     id="base"
     pagecolor="#ffffff"
     bordercolor="#666666"
     borderopacity="1.0"
     inkscape:pageopacity="0.0"
     inkscape:pageshadow="2"
     inkscape:zoom="1.4692611"
     inkscape:cx="102.70638"
     inkscape:cy="220.15666"
     inkscape:document-units="mm"
     inkscape:current-layer="layer1"
     inkscape:document-rotation="0"
     showgrid="false"
     inkscape:snap-grids="true"
     inkscape:window-width="1920"
     inkscape:window-height="1016"
     inkscape:window-x="0"
     inkscape:window-y="27"
     inkscape:window-maximized="1" />
  <metadata
     id="metadata5">
    <rdf:RDF>
      <cc:Work
         rdf:about="">
        <dc:format>image/svg+xml</dc:format>
        <dc:type
           rdf:resource="http://purl.org/dc/dcmitype/StillImage" />
        <dc:title />
      </cc:Work>
    </rdf:RDF>
  </metadata>
  <g
     transform="translate(-39.124972,-106.2945)"
     sodipodi:insensitive="true"
     inkscape:label="Circle"
     inkscape:groupmode="layer"
     id="layer1">
    <circle
       style="fill:#143c5d;fill-opacity:1;stroke:#143c5d;stroke-width:0.264583;stroke-opacity:1"
       id="path897"
       cx="95.622047"
       cy="162.79158"
       r="56.364784" />
  </g>
  <g
     transform="translate(-39.124972,-106.2945)"
     sodipodi:insensitive="true"
     inkscape:groupmode="layer"
     id="layer2"
     inkscape:label="Logo">
    <path
       style="fill:#ffffff;fill-opacity:1;stroke-width:0.09982"
       d="m 89.004921,192.66808 c -16.334126,-0.48252 -29.014802,-2.66365 -30.335642,-5.21788 -0.139245,-0.26927 -0.153775,-0.60623 -0.106549,-2.47087 0.04245,-1.67605 0.08942,-2.22627 0.209985,-2.4594 0.08542,-0.16518 0.249508,-0.94627 0.36465,-1.73576 1.767306,-12.1179 8.32947,-22.74666 17.887678,-28.97274 3.223868,-2.09998 6.942335,-3.73077 10.482072,-4.59707 1.509291,-0.36937 3.393432,-0.7053 4.469675,-0.79691 l 0.648831,-0.0552 -0.818329,0.19123 c -9.510665,2.22261 -17.371768,11.31697 -21.144203,24.46133 -0.763551,2.66045 -1.792735,7.67038 -1.612702,7.85041 0.0299,0.0299 0.899563,-0.0613 1.932602,-0.20263 2.890218,-0.39543 3.323137,-0.4466 5.571598,-0.65871 2.653489,-0.25031 5.825136,-0.47653 7.905443,-0.56391 l 1.616778,-0.0679 0.05128,-0.50897 c 0.0282,-0.27994 0.121908,-1.42981 0.208238,-2.55529 1.078751,-14.06352 4.15937,-25.07545 7.696429,-27.51151 l 0.533015,-0.3671 -0.44107,-0.27972 c -0.480556,-0.30476 -0.85992,-0.81967 -1.051956,-1.42781 -0.164282,-0.52025 -0.07493,-1.51457 0.18122,-2.01666 0.240252,-0.47093 0.83618,-1.03836 1.286329,-1.22483 l 0.316083,-0.13092 -0.431831,-0.41528 c -0.78524,-0.75513 -0.82255,-1.84909 -0.08883,-2.6046 0.190206,-0.19583 0.388587,-0.35608 0.440845,-0.35608 0.05351,0 0.09502,-0.41636 0.09502,-0.95305 v -0.95304 l -0.513087,-0.51308 -0.513088,-0.51309 -2.50647,0.56354 c -1.378558,0.30995 -3.913764,0.88052 -5.63379,1.26792 -10.316647,2.32363 -15.944166,3.13194 -21.777792,3.12809 -4.200846,-0.003 -5.972624,-0.26389 -7.336777,-1.08122 -1.704323,-1.02115 -2.71074,-2.86054 -2.448092,-4.47432 0.255055,-1.56711 1.396146,-2.64053 3.382057,-3.18149 0.66051,-0.17993 1.064603,-0.20918 3.00893,-0.2178 2.664408,-0.0118 2.896086,0.0193 8.484707,1.13867 6.344483,1.27078 9.218302,1.64434 14.573733,1.89439 2.292472,0.10703 7.071628,0.11388 9.018414,0.0129 l 1.182536,-0.0614 0.13157,-0.38379 c 0.244608,-0.71352 1.000852,-1.25885 1.745709,-1.25885 0.61997,0 1.52003,0.56673 1.71235,1.07819 0.019,0.0504 1.00026,-0.127 2.18063,-0.39437 13.14466,-2.97748 16.43843,-3.60774 22.16007,-4.24031 2.21722,-0.24514 7.63734,-0.30277 9.53848,-0.10146 1.72399,0.18257 2.31124,0.33318 3.2881,0.84326 0.96465,0.50372 1.77145,1.33403 2.23067,2.29561 0.34081,0.7137 0.36494,0.82696 0.36494,1.71253 0,0.83347 -0.0334,1.01628 -0.27573,1.50973 -0.51058,1.03971 -1.63215,1.84712 -3.11814,2.24472 -0.59405,0.15895 -1.06524,0.18668 -3.14433,0.18509 -2.79042,-0.003 -3.05146,-0.0368 -7.81736,-1.03861 -3.4081,-0.71639 -5.12593,-1.02235 -7.55495,-1.34561 -4.26166,-0.56717 -9.40628,-0.81841 -14.45115,-0.70573 l -3.22141,0.072 -0.2106,0.48957 c -0.12426,0.28883 -0.36893,0.61495 -0.59672,0.79536 l -0.38611,0.30581 v 0.88185 0.88186 l 0.32822,0.20285 c 0.48117,0.29738 0.79688,0.92031 0.79112,1.561 -0.006,0.62691 -0.20077,1.04294 -0.66167,1.4107 l -0.33966,0.27102 0.51496,0.30735 c 1.66442,0.99335 1.76473,3.48556 0.18306,4.54781 l -0.40719,0.27348 0.53141,0.36599 c 3.11095,2.1426 5.86183,10.84881 7.24153,22.91869 0.23986,2.09859 0.60014,6.24191 0.60322,6.9375 7.9e-4,0.2745 0.0352,0.54686 0.0755,0.60523 0.0441,0.0639 1.02612,0.15422 2.46902,0.22702 4.92515,0.24851 8.49393,0.59551 14.15781,1.37657 l 0.48247,0.0665 -0.0684,-0.48885 c -0.3965,-2.83359 -1.29072,-6.56884 -2.29162,-9.57248 -2.2342,-6.70461 -5.40478,-12.04201 -9.54862,-16.07432 -2.14449,-2.08676 -4.06676,-3.49035 -6.22535,-4.54555 -1.51412,-0.74017 -2.55601,-1.12447 -4.19245,-1.5464 -1.51448,-0.3905 -1.41583,-0.41773 0.49911,-0.1378 3.55773,0.52008 6.85672,1.55417 10.13866,3.17803 11.37493,5.62815 19.4374,17.1897 21.5001,30.83102 0.13068,0.8641 0.30993,1.74129 0.39837,1.94931 0.122,0.28698 0.17576,0.87771 0.22291,2.44844 0.0556,1.85236 0.0436,2.10928 -0.11406,2.44145 -0.9211,1.94109 -8.37856,3.72078 -19.51874,4.65807 -7.20675,0.60634 -16.26109,0.83077 -24.133724,0.59821 z m 15.698919,-3.98901 c 8.08569,-0.34393 14.91812,-1.04547 19.93422,-2.04679 2.30303,-0.45973 4.77126,-1.13089 4.77126,-1.29737 0,-0.0959 -0.98571,-0.501 -2.04631,-0.84104 -3.91669,-1.25575 -10.81516,-2.24173 -19.21537,-2.74642 -7.87144,-0.47293 -17.936986,-0.45393 -25.703668,0.0485 -9.322684,0.60312 -16.661718,1.80363 -20.038884,3.27797 -0.518688,0.22644 -0.596193,0.36325 -0.249549,0.4405 0.123528,0.0275 0.808542,0.21367 1.522255,0.41362 5.556698,1.55677 15.615158,2.61536 27.500436,2.89423 2.340454,0.0549 11.03101,-0.0371 13.52561,-0.14322 z"
       id="path1067" />
  </g>
</svg>
