<?xml version="1.0" encoding="utf-8"?>
<!-- Generator: Adobe Illustrator 19.0.0, SVG Export Plug-In . SVG Version: 6.00 Build 0)  -->
<svg version="1.1" xmlns="http://www.w3.org/2000/svg" xmlns:xlink="http://www.w3.org/1999/xlink" x="0px" y="0px"
	 viewBox="0 0 600 600" enable-background="new 0 0 600 600" xml:space="preserve">
<g id="Layer_1">
	<g id="XMLID_1_">
		<path id="XMLID_12_" fill="#30C1F1" d="M483.333,580.617H116.667c-53.506,0-97.284-43.778-97.284-97.284V116.667
			c0-53.506,43.778-97.284,97.284-97.284h366.667c53.506,0,97.284,43.778,97.284,97.284v366.667
			C580.617,536.839,536.839,580.617,483.333,580.617z"/>
	</g>
</g>
<g id="Layer_2">
	<g id="XMLID_6_">
		<path id="XMLID_7_" fill="#FFFFFF" d="M365.932,157.292c5.835,0,11.584,0.362,17.248,1.002v-47.317
			c-6.497-0.642-13.085-0.977-19.751-0.977c-109.544,0-198.348,88.803-198.348,198.348c0,4.583,0.169,9.126,0.475,13.631h49.062
			c-0.353-4.223-0.576-8.483-0.576-12.797C214.042,225.296,282.046,157.292,365.932,157.292z"/>
		<path id="XMLID_9_" fill="#FFFFFF" d="M365.654,223.779c6.016,0,11.875,0.66,17.526,1.88v-42.533
			c-6.522-1.059-13.208-1.632-20.03-1.632c-68.523,0-124.072,55.549-124.072,124.072c0,5.568,0.404,11.039,1.114,16.413h44.326
			c-0.963-5.047-1.487-10.251-1.487-15.579C283.033,260.77,320.023,223.779,365.654,223.779z"/>
		<circle id="XMLID_11_" fill="#FFFFFF" cx="355.069" cy="293.896" r="32.534"/>
		<path id="XMLID_13_" fill="#FFFFFF" d="M374.25,345.347h-38.362c-7.344,0-13.353,6.009-13.353,13.353v111.785
			c0,7.344,6.009,13.353,13.353,13.353h38.362c7.344,0,13.353-6.009,13.353-13.353V358.7
			C387.603,351.356,381.594,345.347,374.25,345.347z"/>
	</g>
</g>
</svg>
