<?xml version="1.0" encoding="UTF-8" standalone="no"?>
<!-- Created with Inkscape (http://www.inkscape.org/) -->

<svg
   xmlns:dc="http://purl.org/dc/elements/1.1/"
   xmlns:cc="http://creativecommons.org/ns#"
   xmlns:rdf="http://www.w3.org/1999/02/22-rdf-syntax-ns#"
   xmlns:svg="http://www.w3.org/2000/svg"
   xmlns="http://www.w3.org/2000/svg"
   xmlns:xlink="http://www.w3.org/1999/xlink"
   xmlns:sodipodi="http://sodipodi.sourceforge.net/DTD/sodipodi-0.dtd"
   xmlns:inkscape="http://www.inkscape.org/namespaces/inkscape"
   width="128"
   height="128"
   id="svg2"
   version="1.1"
   inkscape:version="0.48+devel r"
   sodipodi:docname="ic_app.svg"
   inkscape:export-filename="ic_app16.png"
   inkscape:export-xdpi="11.25"
   inkscape:export-ydpi="11.25">
  <defs
     id="defs4">
    <filter
       inkscape:collect="always"
       id="filter864"
       x="-0.23042651"
       width="1.460853"
       y="-0.13367997"
       height="1.2673599">
      <feGaussianBlur
         inkscape:collect="always"
         stdDeviation="3.2232277"
         id="feGaussianBlur866" />
    </filter>
  </defs>
  <sodipodi:namedview
     id="base"
     pagecolor="#262626"
     bordercolor="#666666"
     borderopacity="1.0"
     inkscape:pageopacity="0"
     inkscape:pageshadow="2"
     inkscape:zoom="2.8"
     inkscape:cx="1.0379446"
     inkscape:cy="49.412493"
     inkscape:document-units="px"
     inkscape:current-layer="layer1"
     showgrid="false"
     showborder="true"
     borderlayer="true"
     inkscape:window-width="1215"
     inkscape:window-height="1000"
     inkscape:window-x="1431"
     inkscape:window-y="24"
     inkscape:window-maximized="1"
     inkscape:snap-global="false" />
  <metadata
     id="metadata7">
    <rdf:RDF>
      <cc:Work
         rdf:about="">
        <dc:format>image/svg+xml</dc:format>
        <dc:type
           rdf:resource="http://purl.org/dc/dcmitype/StillImage" />
        <dc:title />
      </cc:Work>
    </rdf:RDF>
  </metadata>
  <g
     inkscape:label="Capa 1"
     inkscape:groupmode="layer"
     id="layer1"
     transform="translate(0,-924.3622)">
    <image
       sodipodi:absref="/home/rgarcia/Dropbox/art/2013.Proyecto Indiana/diosa/assets/sprites/player/walk.left_18.png"
       y="910.89111"
       x="171.61142"
       id="image824"
       xlink:href="file:///home/rgarcia/Dropbox/art/2013.Proyecto%20Indiana/diosa/assets/sprites/player/walk.left_18.png"
       height="130.70171"
       width="85.667183" />
    <rect
       style="color:#000000;fill:#000000;fill-opacity:1;fill-rule:nonzero;stroke:#ffffff;stroke-width:11.12300014000000026;stroke-linecap:square;stroke-linejoin:round;stroke-miterlimit:4;stroke-opacity:1;stroke-dasharray:none;stroke-dashoffset:0;marker:none;visibility:visible;display:inline;overflow:visible;enable-background:accumulate"
       id="rect2986"
       width="165.71428"
       height="157.85715"
       x="-23.928572"
       y="-17"
       transform="translate(0,924.3622)"
       rx="5.2145171"
       ry="7.74085" />
    <path
       style="fill:#ffffff"
       d="m 80.257895,1049.9113 c -0.815413,0 -1.505463,-0.4216 -2.079243,-0.6533 -1.080515,-0.9735 -0.442915,-0.4789 0.717749,-0.9204 -0.660031,0.1137 0.153318,0.064 0.849686,-0.3842 0.242436,0 0.715456,-0.1185 1.051192,-0.2632 0.335727,-0.1432 0.722271,-0.2893 0.859001,-0.3215 0.136726,-0.032 0.752276,-0.2496 1.367895,-0.4832 0.615609,-0.2346 1.407119,-0.5311 1.758891,-0.6613 0.600759,-0.2222 1.692373,-0.7785 2.944588,-1.5011 0.541284,-0.3122 0.851962,-0.5412 1.490602,-1.0981 0.181938,-0.158 0.403744,-0.2887 0.492883,-0.2887 0.08915,0 0.122872,-0.039 0.07497,-0.09 -0.04795,-0.049 0.191914,-0.3891 0.532999,-0.7553 0.341077,-0.366 0.617755,-0.7524 0.614822,-0.8583 -0.0158,-0.5776 -1.139613,-1.3374 -5.111478,-3.4563 -1.011374,-0.5396 -1.980788,-1.0833 -2.154262,-1.2082 -0.173469,-0.1259 -0.437306,-0.2272 -0.586296,-0.2272 -0.148997,0 -0.294887,-0.06 -0.324198,-0.1285 -5.964756,-2.8572 -9.782831,-4.8837 -15.575996,-7.2923 -0.06168,0 -0.454877,-0.2173 -0.87377,-0.4833 -1.085618,-0.6196 -1.667137,-0.756 -2.631641,-1.5343 -0.08794,-0.072 -0.434118,-0.3472 -0.769262,-0.6127 -1.347207,-1.0671 -1.84221,-2.1124 -1.660835,-3.5068 0.05161,-0.3967 0.985602,-2.5301 2.26731,-5.1789 1.19876,-2.4772 2.169361,-4.5538 2.156894,-4.6142 -0.01235,-0.06 0.04381,-0.1555 0.125094,-0.2099 0.282203,-0.1926 2.915515,-5.8248 2.811297,-6.0127 -0.05766,-0.1034 -0.04655,-0.1333 0.02469,-0.069 0.129342,0.1211 1.554124,-2.5752 1.567179,-2.9653 0.0042,-0.1136 0.07888,-0.205 0.166801,-0.205 0.08794,0 0.118601,-0.042 0.06816,-0.094 -0.115613,-0.1185 -1.080861,0.3862 -1.080861,0.566 0,0.075 -0.100628,0.1333 -0.223596,0.1333 -5.092355,2.0493 -10.81617,5.2056 -15.30044,7.3065 -1.194819,0.5615 -2.35406,1.1815 -2.576091,1.378 -0.23819,0.2101 -0.583131,0.8809 -0.841316,1.6338 -0.240708,0.7017 -0.572162,1.4524 -0.736601,1.6679 -0.164454,0.215 -0.264052,0.428 -0.221373,0.4719 0.04272,0.045 -0.707194,1.6681 -1.666408,3.6087 -2.341479,4.7371 -2.474345,4.9937 -2.659036,5.1334 -0.08794,0.067 -0.09478,0.1235 -0.01531,0.1235 0.0796,0 0.03987,0.1333 -0.08825,0.2912 -0.128107,0.158 -0.435548,0.7335 -0.683178,1.2776 -0.247621,0.5442 -0.634716,1.2432 -0.860197,1.5537 -0.225472,0.3101 -0.306962,0.5 -0.181075,0.4217 0.196187,-0.1209 0.197322,-0.1035 0.0075,0.1383 -2.425353,4.8872 -5.47399,9.4349 -7.556941,14.4106 -0.628405,1.1552 -1.003355,2.2416 -1.559842,3.6746 l 0.751363,0 c 2.530034,0.3101 -0.405368,0.6207 -1.247385,0.7153 -3.053984,0.3398 -14.762974,0.1087 -15.158869,-0.3002 -0.401283,-0.4139 1.55562,-0.5993 6.72376,-0.6371 2.088485,-0.026 3.797415,-0.034 3.797621,-0.045 1.69e-4,0 -0.438355,-0.3724 -0.974604,-0.807 -0.53624,-0.4344 -1.129869,-0.9482 -1.319175,-1.1413 -0.189297,-0.1926 -0.570898,-0.4983 -0.847998,-0.6773 -0.277102,-0.1803 -0.96067,-0.717 -1.51905,-1.1953 -0.558381,-0.4786 -1.107847,-0.9479 -1.221038,-1.0429 -0.113193,-0.096 -0.652862,-0.5492 -1.199251,-1.0087 -1.152866,-0.9699 -2.261185,-2.1643 -2.595856,-2.7979 -0.219546,-0.4156 -0.211891,-0.4505 0.124576,-0.5675 0.575193,-0.2 1.254864,-0.026 3.391438,0.9015 0.348932,0.1507 0.67273,0.2801 0.719545,0.2877 0.106503,0.026 0.580147,0.2075 1.204434,0.4773 0.263838,0.1137 0.839472,0.3423 1.2792,0.5055 0.439728,0.1629 0.871461,0.3477 0.959405,0.4104 0.19468,0.1383 1.073771,0.3884 1.237454,0.3518 0.06499,-0.026 0.388789,0.082 0.719555,0.21 1.096251,0.4323 2.903865,0.5904 4.483143,0.392 1.398539,-1.1051 2.3849,-2.8492 2.993953,-4.258 0.159171,-0.1827 0.224286,-0.3309 0.144725,-0.3321 -0.07961,0 -0.06464,-0.06 0.03316,-0.1235 0.938721,-1.873 1.965338,-3.9524 2.771688,-5.7273 0.996828,-2.1517 1.497267,-3.2969 1.541856,-3.5286 0.02445,-0.1285 0.13917,-0.2929 0.254952,-0.3684 0.115787,-0.076 0.155073,-0.1384 0.08734,-0.1384 -0.06773,0 0.01407,-0.2807 0.182061,-0.6209 0.167887,-0.3401 0.396592,-0.9339 0.50826,-1.3192 0.111661,-0.3855 0.251602,-0.7007 0.310965,-0.7007 0.05933,0 0.108847,-0.091 0.109934,-0.205 8.35e-4,-0.1135 0.344462,-1.0966 0.763047,-2.1845 0.862808,-2.2434 1.715261,-4.5189 2.192943,-5.8541 0.17848,-0.4985 0.385591,-1.0551 0.460257,-1.2364 0.07462,-0.1827 0.290014,-0.7381 0.478571,-1.2365 0.188556,-0.4991 0.484107,-1.2409 0.656774,-1.649 0.172679,-0.4083 0.324039,-0.8164 0.336374,-0.9073 0.01235,-0.09 0.08144,-0.2395 0.15354,-0.3296 2.745818,-4.1425 7.599459,-6.982 10.974714,-10.0736 0.07412,0.046 0.559835,-0.3009 1.079321,-0.7734 0.519489,-0.4728 1.016486,-0.9158 1.104433,-0.9849 0.461685,-0.3621 2.415061,-1.97626 3.439978,-2.84298 0.643644,-0.54395 1.53608,-1.27854 1.983187,-1.63223 0.447116,-0.3536 0.848914,-0.69113 0.892887,-0.7499 0.04398,-0.0594 0.547618,-0.47412 1.119223,-0.92327 0.571606,-0.44915 1.157113,-0.93804 1.301132,-1.0867 1.217989,-1.37715 3.119823,-2.44536 5.494709,-4.48402 0.175888,-0.1704 0.481079,-0.42157 0.678196,-0.55807 0.197124,-0.13584 0.317693,-0.31607 0.267943,-0.399 -0.04978,-0.0846 -0.02197,-0.13092 0.06207,-0.1062 0.239202,0.0716 1.170546,-0.69465 1.063052,-0.87414 0.526115,-0.27429 1.011816,-0.72103 1.592767,-1.22106 0.315357,-0.31609 0.573374,-0.53309 0.573374,-0.48295 0,0.052 0.09273,0 0.206064,-0.126 0.263571,-0.27876 0.857281,-1.71765 0.97425,-2.36161 0.04946,-0.27189 0.197372,-0.93887 0.328719,-1.48236 0.428665,-1.77243 0.706522,-4.87318 0.805456,-8.98823 0.05344,-2.22187 0.134207,-4.41067 0.179494,-4.86403 l 0.08235,-0.82475 -1.060906,1.1544 c -0.997559,1.08526 -1.620531,1.99397 -1.550255,2.26114 0.01704,0.0642 -0.07057,0.079 -0.194704,0.0296 -0.391291,0.0987 -0.501834,0.4077 -0.713861,0.76105 -0.05277,0.0445 -0.203915,0.22718 -0.335833,0.4025 -0.189173,0.25236 -0.192382,0.29088 -0.01531,0.18025 0.15243,-0.0938 0.187939,-0.079 0.110501,0.0518 -0.06275,0.10619 -0.188259,0.19012 -0.278919,0.19012 -0.219028,0 -1.09421,0.85834 -1.013146,0.99341 0.0349,0.0593 -0.03816,0.1062 -0.162307,0.1062 -0.124157,0 -0.180605,-0.0817 -0.12539,-0.18025 0.05528,-0.0987 -0.0379,-0.0593 -0.206903,0.0888 -0.169,0.1482 -0.486567,0.32574 -0.705668,0.39463 -0.219102,0.0687 -0.830701,0.33039 -1.359148,0.58026 -0.528438,0.25017 -2.004147,0.91213 -3.279346,1.4715 -1.275203,0.55927 -2.714304,1.19217 -3.198004,1.40621 -0.483698,0.21488 -1.27127,0.54767 -1.750167,0.74127 -0.478897,0.19267 -1.882018,0.81686 -3.118052,1.3856 -1.236034,0.56865 -2.551185,1.16767 -2.922554,1.33193 -0.371371,0.16296 -0.635848,0.36344 -0.587737,0.44366 0.04813,0.0817 0.02817,0.13586 -0.0443,0.1235 -0.372035,-0.0669 -0.552664,0.0696 -0.83978,0.63366 -0.447489,0.87925 -1.459925,1.9016 -2.574023,2.59941 -0.554326,0.34747 -0.913836,0.67562 -0.85236,0.77833 0.05986,0.0988 0.03197,0.13083 -0.06374,0.0687 -0.09354,-0.0594 -0.554369,0 -1.024082,0.11849 -0.753528,0.20251 -0.87076,0.1975 -0.996314,-0.027 -0.08838,-0.15803 -0.07272,-0.36872 0.04128,-0.55686 0.220286,-0.36371 0.168258,-0.37114 -0.522171,-0.0743 -0.618935,0.26668 -0.81222,0.18274 -1.045333,-0.4484 -0.107216,-0.29093 -0.110896,-0.42204 -0.01013,-0.35805 0.08768,0.0566 0.159395,0.0297 0.159395,-0.0623 0,-0.0891 -0.161889,-0.18516 -0.359767,-0.21487 -0.470368,-0.0688 -0.608356,-0.8916 -0.169198,-1.00888 0.265184,-0.0716 0.265957,-0.0789 0.0094,-0.0963 -0.201247,-0.0251 -0.279816,-0.16055 -0.279816,-0.52158 0,-0.39482 0.0969,-0.54543 0.451063,-0.70078 0.248089,-0.10865 0.687068,-0.47636 0.97551,-0.81611 0.288446,-0.33977 0.578837,-0.58296 0.645305,-0.54098 0.06648,0.0418 0.616884,-0.0743 1.223119,-0.25731 0.700413,-0.21237 1.481152,-0.32277 2.141602,-0.30206 2.110749,0.0641 2.31036,0.0371 3.517802,-0.53949 0.65959,-0.31386 1.666959,-0.77536 2.238605,-1.02579 3.031703,-1.32747 4.088345,-1.82722 4.190677,-1.98284 0.06222,-0.0938 0.206879,-0.17281 0.32137,-0.17532 0.442396,0 2.508882,-0.96422 2.413874,-1.123 -0.05477,-0.091 -0.02199,-0.11608 0.07296,-0.0566 1.543716,-0.53188 2.560566,-1.04101 4.005334,-1.69664 2.056903,-0.83585 2.850417,-1.30872 3.254873,-1.93889 0.221843,-0.34596 0.422133,-0.70276 0.445104,-0.79339 0.02297,-0.0888 0.169345,-0.35063 0.325277,-0.57733 1.282843,-2.34484 2.512396,-4.38819 3.690116,-6.59106 1.9656,-3.57011 2.240617,-4.25238 2.549304,-6.32635 0.374555,-2.51596 0.536416,-3.28935 1.069834,-5.11244 l 0.426736,-1.45837 -0.648322,-0.60276 c -2.12486,-1.97568 -2.645204,-2.33003 -3.513489,-2.392 -0.189469,-0.0247 -0.311149,-0.0816 -0.270386,-0.14817 0.130478,-0.2173 -1.116856,-0.12839 -1.943501,0.13829 -1.101232,0.35582 -1.650321,0.44052 -2.101859,0.32372 -0.424262,-0.10865 -1.442857,-1.14304 -1.58632,-1.60924 -0.05004,-0.16051 -0.158136,-0.29559 -0.240165,-0.29559 -0.08203,0 -0.149121,-0.13334 -0.149121,-0.29458 0,-0.1605 -0.220163,-0.42817 -0.489235,-0.59189 -0.608014,-0.37059 -0.836707,-0.96124 -0.707354,-1.82698 0.09813,-0.65684 0.616332,-3.65877 0.798231,-4.62452 0.405432,-2.15175 0.440072,-2.55251 0.241844,-2.79895 -0.111342,-0.13828 -0.268626,-0.25163 -0.349508,-0.25163 -0.08087,0 -0.23399,-0.0741 -0.340196,-0.16297 -0.106226,-0.0914 -0.358579,-0.29507 -0.56079,-0.4536 -0.202212,-0.16051 -0.437121,-0.58547 -0.521996,-0.94797 -0.326037,-1.39368 -0.422426,-2.05076 -0.288247,-1.96508 0.07622,0.0494 0.138553,0 0.138553,-0.0839 0,-0.31138 1.033008,-1.62603 1.359158,-1.73024 0.768349,-0.24446 3.952304,-0.59115 5.43083,-0.59115 1.647753,0 2.06574,0.13087 2.604541,0.81685 0.173518,0.22223 0.187938,0.2099 0.107859,-0.0741 -0.09243,-0.3299 -0.09243,-0.3299 0.107217,0 0.10981,0.18273 0.344719,0.43657 0.522037,0.5672 0.416733,0.30644 0.711153,0.62745 1.301235,1.41762 0.263835,0.35336 0.61702,0.78672 0.78486,0.96278 0.290189,0.30422 0.296,0.43782 0.118328,2.72587 -0.227448,2.92932 -0.226435,4.80082 0.0032,5.78632 0.09504,0.40817 0.181839,1.1502 0.192901,1.64924 0.01851,0.83562 0.07354,0.96179 0.700605,1.60747 0.374279,0.38546 0.718572,0.70078 0.765097,0.70078 2.169854,2.17916 5.7163,4.67958 6.791597,7.21975 0.72886,1.36429 1.5377,2.98959 1.99296,4.36473 0.19157,0.61264 0.37866,1.08379 0.41574,1.04724 0.0371,-0.0346 0.0868,0.45287 0.1105,1.08772 0.0237,0.63486 0.10651,1.27688 0.18413,1.42627 0.33153,0.63856 1.74051,2.31077 1.85624,2.20312 0.0695,-0.0642 0.0774,-0.0296 0.0173,0.079 -0.0605,0.10865 0.12406,0.47633 0.41382,0.82425 1.64884,1.59691 1.25063,1.61715 2.549,2.75501 0.11521,-0.0741 0.13852,-0.042 0.0631,0.0839 -0.0755,0.12594 0.40084,0.744 1.29446,1.67987 0.77761,0.81438 1.46469,1.608 1.52685,1.76357 0.14704,0.36842 0.71313,3.18861 1.72835,8.61045 0.45003,2.40311 1.07445,5.55669 1.38757,7.00785 0.31314,1.45097 0.60422,2.80342 0.64684,3.00492 0.0799,0.37783 0.30183,0.64405 1.48175,1.7769 0.37789,0.36278 0.82333,0.95641 0.98987,1.3191 0.16652,0.3628 0.45461,0.9191 0.64016,1.23667 0.27253,0.46623 0.34029,0.86226 0.3526,2.06113 0.0148,1.43936 0.004,1.48355 -0.34453,1.46424 -0.3203,-0.025 -0.35979,0.0594 -0.35979,0.68945 0,0.8203 -0.5616,1.86855 -1.00701,1.87914 -0.42068,0 -1.03,-0.74323 -1.65693,-2.04953 -0.65877,-1.37241 -0.62934,-1.33712 -0.90967,-1.09709 -0.29818,0.25536 -0.6882,0.0836 -0.81461,-0.36177 -0.0564,-0.1975 -0.14601,-1.08577 -0.19924,-1.97291 -0.0784,-1.30732 -0.0404,-1.80587 0.19983,-2.62421 l 0.29663,-1.01019 -0.42616,-2.16159 c -0.23438,-1.18874 -0.8631,-4.01509 -1.39713,-6.28041 -0.53405,-2.26514 -1.127,-4.786 -1.31767,-5.60239 -0.19068,-0.8163 -0.40483,-1.509 -0.47591,-1.53956 -0.071,-0.0297 -0.0973,-0.10619 -0.0585,-0.17289 0.13916,-0.23214 -0.53442,-2.89846 -0.77877,-3.08241 -0.13715,-0.10374 -0.25098,-0.2541 -0.25298,-0.33484 -0.002,-0.0816 -0.40233,-0.59214 -0.88962,-1.13613 -0.4873,-0.54424 -1.08483,-1.21194 -1.32787,-1.48405 -0.99446,-1.11316 -2.28873,-2.22485 -2.46738,-2.11965 -0.10364,0.0617 -0.13635,0.0518 -0.0726,-0.0247 0.10788,-0.12347 -0.7891,-1.06674 -1.01951,-1.07242 -0.14771,0 -0.25809,1.21638 -0.61884,6.84045 -0.42804,6.67333 -0.70952,9.46784 -1.34533,13.356 -0.31125,1.90355 -1.22986,5.32901 -1.695894,6.32388 -0.171962,0.36687 -0.334121,0.81211 -0.360352,0.98946 -0.02627,0.17773 -0.125738,0.42222 -0.221151,0.54443 -0.557358,2.20411 -1.581049,2.62485 -2.358316,4.6117 0.07213,0.12099 0.04953,0.15311 -0.05858,0.0836 -0.105788,-0.0669 -0.515161,0.43289 -1.02408,1.25197 -0.46633,0.7501 -1.081163,1.69803 -1.36629,2.10653 -0.285128,0.4084 -0.779925,1.1507 -1.099543,1.64924 -0.319628,0.4992 -1.039747,1.5536 -1.600264,2.3442 -0.560527,0.7901 -1.019127,1.5181 -1.019127,1.6172 0,0.099 -0.06035,0.1409 -0.134109,0.094 -0.07381,-0.047 -0.286518,0.1902 -0.472797,0.5262 -0.186284,0.3363 -0.591375,0.9008 -0.900217,1.2542 -0.30884,0.3531 -0.516278,0.7243 -0.460971,0.8243 0.05534,0.1013 0.04248,0.1284 -0.02843,0.06 -0.07097,-0.064 -0.496234,0.3854 -0.945059,1.0033 -1.267981,1.7456 -3.512195,4.5877 -5.031753,6.3728 -0.23177,0.2723 -0.993006,1.181 -1.691644,2.0199 -0.698633,0.8386 -1.328239,1.525 -1.399123,1.525 -0.07089,0 -0.128872,0.083 -0.128872,0.1852 0,0.1034 -0.162134,0.344 -0.360284,0.5356 -0.198136,0.1902 -0.565246,0.6083 -0.815754,0.926 -0.250505,0.3173 -0.401056,0.4728 -0.334562,0.3456 0.08003,-0.153 0.0585,-0.1925 -0.06374,-0.1135 -0.101535,0.064 -0.184605,0.2075 -0.184605,0.3203 0,0.1111 -0.681363,0.9419 -1.514146,1.8452 -0.832782,0.9034 -1.516356,1.7301 -1.51905,1.837 -0.0025,0.1086 -0.231201,0.3768 -0.507769,0.5998 l -0.502857,0.4059 0.542834,0.1186 c 0.92001,0.2025 2.455326,0.781 2.579117,0.9724 0.06457,0.1013 0.118576,0.116 0.119934,0.037 0.0017,-0.079 0.103016,-0.06 0.22599,0.047 0.122946,0.1066 0.359677,0.2174 0.526078,0.2512 0.166406,0.034 0.682288,0.2911 1.146425,0.5734 0.464135,0.2822 0.801341,0.442 0.74934,0.3553 -0.116503,-0.195 1.393684,0.6528 1.529903,0.8584 0.05378,0.082 0.145688,0.1358 0.204161,0.1234 6.033698,2.6599 9.733095,5.9139 15.048441,8.657 0.351782,0.1801 0.675571,0.3717 0.719544,0.428 0.04398,0.057 0.453208,0.3028 0.909417,0.5477 0.456199,0.2445 0.914725,0.5514 1.018952,0.6808 0.104211,0.1309 0.27981,0.2346 0.390187,0.2346 0.110379,0 0.289607,0.1086 0.39829,0.2445 0.108698,0.1333 0.253856,0.2073 0.322619,0.1654 0.0688,-0.045 0.168057,0.037 0.220607,0.1778 0.0526,0.1408 0.16315,0.2124 0.2457,0.1605 0.1766,-0.1111 2.59562,2.3728 2.48658,2.5546 -0.0407,0.068 0.0156,0.1604 0.12476,0.2073 0.10943,0.045 0.33929,0.368 0.51082,0.7178 0.17155,0.3502 0.41655,0.7666 0.54447,0.9252 0.12793,0.1581 0.18053,0.2885 0.11694,0.2885 -0.0636,0 0.0188,0.205 0.18288,0.4536 0.81662,1.2403 0.88129,2.0164 0.20915,2.5098 -0.5171,0.3797 -1.81923,0.8788 -2.76447,1.0593 -0.32979,0.062 -0.59962,0.1976 -0.59962,0.2993 0,0.1013 0.0474,0.1358 0.10522,0.076 0.0578,-0.06 0.20584,-0.026 0.32882,0.083 0.12298,0.1066 0.21104,0.1236 0.19565,0.039 -0.0698,-0.3786 0.0294,-0.4356 0.24673,-0.1408 0.19097,0.2583 0.26447,0.2769 0.37976,0.096 0.0852,-0.1333 0.18206,-0.1581 0.23976,-0.062 0.0533,0.09 0.40977,0.1679 0.79229,0.1753 0.76812,0.026 1.54939,0.267 1.54939,0.4981 0,0.5534 -1.05419,0.6966 -5.554305,0.7546 -1.932509,0.026 -3.591065,0.094 -3.685676,0.1555 -0.09463,0.062 -0.219398,0.033 -0.277266,-0.064 -0.07258,-0.121 -0.179123,-0.1111 -0.343038,0.03 -0.141689,0.121 -0.281349,0.1407 -0.345544,0.049 -2.419479,0.1974 -4.068025,-0.1187 -6.551607,-0.2559 z"
       id="path3004"
       inkscape:connector-curvature="0"
       sodipodi:nodetypes="ccccccscscscccccsccccccscccccscsccccccsccccccccccccccccccccccccccccccccccccccsscsccsccccsccscscccccccsccssscsccccccscsccccsccsccccsccccccccscccscsccscccccccccccsscccccccssccscsccscscsscccscscscccccsscccccscsscsccscscscccccsssccccsccccsscccccccccscccccccsssccccscccccccccscccccscscccccccsscccsccccsccssccccc" />
  </g>
</svg>
