<svg width="128" height="128" version="1.1" viewBox="0 0 33.867 33.867" xmlns="http://www.w3.org/2000/svg">
 <defs>
  <clipPath id="a">
   <rect y="-.003" width="35.022" height="36.11"/>
  </clipPath>
 </defs>
 <g transform="matrix(3.5453 0 0 3.5453 -625.55 -165.99)">
  <g transform="matrix(.26458 0 0 .26458 176.59 46.821)" clip-rule="evenodd" fill-rule="evenodd" stroke-linejoin="round" stroke-miterlimit="1.4142">
   <g opacity=".89999">
    <clipPath>
     <rect y="-.003" width="35.022" height="36.11"/>
    </clipPath>
    <g clip-path="url(#a)">
     <path d="m32.959 23.102-2.029 2.444c-0.318 0.389-1.073 0.543-1.521 0.313l-6.088-3.13c-0.015-0.01-0.028-0.017-0.041-0.023 0.013-0.01 0.026-0.016 0.041-0.022l5.168-2.774c0.538-0.287 1.623-0.287 2.163-3e-3l0.564 0.3c0.707 0.375 1.641 1.124 2.002 1.605 0.153 0.205 0.129 0.822-0.259 1.29m-8.532 10.292c-0.315 0.384-1.043 0.521-1.479 0.284l-0.264-0.145-0.992-0.551c-0.074-0.037-0.121-0.076-0.15-0.101 0.029-0.031 0.075-0.067 0.142-0.111l6.691-4.128zm-11.74 0.993c-0.669 0-1.673-0.474-2.103-0.993l-1.825-2.199c-0.116-0.146-0.167-0.3-0.139-0.439 0.026-0.139 0.131-0.264 0.295-0.349l1.214-0.653c0.264-0.139 0.647-0.223 1.058-0.223 0.414 0 0.822 0.09 1.088 0.236l8.388 4.62zm-8.903-9.197 5.53 2.968c0.028 0.016 0.051 0.029 0.07 0.039-0.019 0.013-0.042 0.027-0.07 0.039l-1.212 0.651c-0.149 0.078-0.331 0.121-0.529 0.121-0.379 0-0.76-0.16-0.969-0.411zm-1.767-3.674 3.651-4.868c0.291-0.39 0.995-0.555 1.431-0.327l3.047 1.567c0.018 9e-3 0.033 0.016 0.045 0.024-0.012 9e-3 -0.027 0.019-0.045 0.025l-7.019 3.786c-0.405 0.218-0.918 0.357-1.311 0.357-0.031 0-0.056 0-0.082-5e-3 0.031-0.129 0.111-0.332 0.283-0.559m5.674-7.569 2.788-3.713c0.195-0.258 0.558-0.426 0.927-0.426 0.177 0 0.345 0.037 0.485 0.112l2.513 1.339h1e-3l4.04 2.151c5e-3 0 8e-3 3e-3 0.012 6e-3 0.022 9e-3 0.041 0.024 0.055 0.033-0.016 0.01-0.037 0.024-0.061 0.035l-5.325 2.854c-0.276 0.145-0.694 0.233-1.12 0.233-0.417 0-0.806-0.078-1.072-0.213l-3.047-1.57c-0.171-0.085-0.283-0.218-0.319-0.37-0.034-0.151 0.01-0.316 0.123-0.471m4.834-6.371c1.877-2.371 4.196-5.078 5.032-5.765 0.504 0.355 1.576 1.45 2.496 2.573 0.119 0.144 0.168 0.3 0.138 0.441-0.026 0.139-0.133 0.259-0.295 0.351l-5.88 3.125c-0.533 0.158-1.239 0.141-1.551-0.023-0.071-0.04-0.109-0.087-0.124-0.162-0.026-0.115 0.011-0.32 0.184-0.54m11.587 2.1c0.116 0.155 0.16 0.326 0.126 0.482-0.035 0.16-0.146 0.296-0.317 0.389l-2.5 1.339c-0.535 0.29-1.618 0.29-2.158 6e-3l-2e-3 -3e-3 -4.049-2.154c-0.024-0.01-0.045-0.022-0.064-0.035 0.019-0.01 0.042-0.024 0.064-0.037l5.498-2.962c0.425-0.23 1.114-0.075 1.404 0.311zm5.993 7.987-1.613-0.86c-5e-3 0-5e-3 0-6e-3 -4e-3l-6.245-3.321c-1e-3 -2e-3 -4e-3 -2e-3 -9e-3 -2e-3 -0.022-0.014-0.042-0.023-0.057-0.036 0.015-0.01 0.037-0.024 0.062-0.037l2.497-1.34c0.426-0.226 1.117-0.071 1.407 0.31zm-8.717 3.737c-0.413 0-0.803-0.078-1.07-0.218l-6.379-3.28c-0.015-8e-3 -0.029-0.014-0.043-0.024 0.014-4e-3 0.028-0.014 0.043-0.023l5.324-2.853c0.538-0.286 1.622-0.29 2.163-6e-3h4e-3l6.26 3.335c0.02 6e-3 0.034 0.015 0.05 0.025-0.02 0.013-0.042 0.024-0.064 0.037l-5.169 2.772c-0.275 0.147-0.694 0.235-1.119 0.235m6.265 5.491c0.05 0.03 0.093 0.056 0.122 0.077-0.028 0.025-0.065 0.056-0.118 0.088l-6.876 4.248c-0.498 0.309-1.535 0.333-2.049 0.048l-5.627-3.096c-0.032-0.017-0.06-0.032-0.081-0.049 0.023-0.014 0.049-0.029 0.081-0.049l7.239-3.879c0.541-0.29 1.644-0.297 2.189-0.019l2.262 1.163zm-23.715-3.576c-0.024-8e-3 -0.049-0.022-0.066-0.035 0.021-0.013 0.044-0.027 0.07-0.043l7.021-3.782c0.538-0.291 1.644-0.301 2.186-0.02l6.38 3.281c0.016 6e-3 0.029 0.013 0.043 0.023-0.014 3e-3 -0.027 0.012-0.043 0.023l-7.236 3.878c-0.54 0.292-1.625 0.292-2.164 0zm30.659-2.538c-0.291-0.386-0.787-0.848-1.326-1.269 0-0.495-0.333-0.94-0.48-1.139l-5.273-7.028c-0.383-0.507-0.944-0.864-1.576-1.018 0.072-0.584-0.082-1.187-0.452-1.682l-2-2.665c-0.385-0.516-0.953-0.871-1.593-1.027 0.055-0.579-0.115-1.173-0.514-1.658-2.699-3.291-3.587-3.291-3.876-3.291-0.416 0-1.186 0-6.332 6.507-0.4 0.508-0.584 1.109-0.544 1.682-0.612 0.165-1.157 0.514-1.531 1.013l-2.785 3.712c-0.37 0.496-0.521 1.092-0.451 1.673-0.633 0.161-1.192 0.517-1.575 1.029l-3.651 4.867c-0.52 0.693-0.737 1.462-0.596 2.101 0.032 0.143 0.085 0.27 0.148 0.389-0.034 0.528 0.352 1.004 0.538 1.227l4.551 5.494c0.404 0.485 0.986 0.824 1.63 0.966-0.045 0.574 0.131 1.157 0.528 1.633l1.823 2.2c0.762 0.921 2.235 1.612 3.427 1.612h9.635c0.884 0 1.292-0.294 1.48-0.616 0.768-0.079 1.48-0.429 1.952-0.992l4.361-5.255c0.326-0.393 0.815-1.088 0.883-1.747 0.492-0.176 0.938-0.459 1.26-0.848l2.024-2.447c0.85-1.023 0.986-2.526 0.315-3.423" fill="#0198cd" fill-rule="nonzero"/>
    </g>
   </g>
  </g>
 </g>
</svg>
