<svg inkscape:export-filename="C:\Users\chris\Pictures\SVG\baseio\iortcw.png" inkscape:export-xdpi="92.160004" inkscape:export-ydpi="92.160004" inkscape:version="0.92.4 5da689c313, 2019-01-14" sodipodi:docname="com.github.iortcw.svg" version="1.1" viewBox="0 0 500 500" xmlns="http://www.w3.org/2000/svg" xmlns:inkscape="http://www.inkscape.org/namespaces/inkscape" xmlns:sodipodi="http://sodipodi.sourceforge.net/DTD/sodipodi-0.dtd">
 <sodipodi:namedview id="base" bordercolor="#666666" borderopacity="1.0" inkscape:current-layer="layer1" inkscape:cx="345.99347" inkscape:cy="385.46339" inkscape:document-units="px" inkscape:pageopacity="0.0" inkscape:pageshadow="2" inkscape:window-height="992" inkscape:window-maximized="0" inkscape:window-width="1586" inkscape:window-x="239" inkscape:window-y="32" inkscape:zoom="0.7" pagecolor="#ffffff" showgrid="true">
  <inkscape:grid empspacing="5" enabled="true" snapvisiblegridlinesonly="true" type="xygrid" visible="true"/>
 </sodipodi:namedview>
 <g transform="translate(0 -552.36)" fill="#a02c2c" inkscape:groupmode="layer" inkscape:label="Layer 1">
  <path d="m153.66 612.36c-19.093 13.161-35.362 30.116-47.719 49.781h7.9688c9.6414-19.281 23.234-36.242 39.75-49.781zm192.69 0c16.516 13.539 30.109 30.5 39.75 49.781h7.9688c-12.356-19.666-28.626-36.62-47.719-49.781zm-266.25 134.78c-0.05274 1.7404-0.09375 3.4967-0.09375 5.25 0 78.308 52.953 144.24 125 163.97v-41c-56.782-17.567-99.329-67.483-106.12-128.22h-18.781zm321.03 0c-7.1904 64.251-54.391 116.39-116.12 130.94v40.719c77.094-16.138 135-84.518 135-166.41 0-1.7533-0.041-3.5096-0.0937-5.25h-18.781z" inkscape:connector-curvature="0"/>
  <path d="m20 667.14h175v30h15v-60l5 5 20 5 5 5h-15v45 15h-175l-10-15h140v-15h-150z" inkscape:connector-curvature="0" sodipodi:nodetypes="ccccccccccccccccc"/>
  <path d="m480 667.14h-185v30h-15v-60l-5 5-20 5-5 5h15v45 15h185l10-15h-150v-15h160z" inkscape:connector-curvature="0" sodipodi:nodetypes="ccccccccccccccccc"/>
  <path d="m60 727.14 10 15h140v215l25-25v60l20-20v-30l10-10v25l15-15v-200h150l10-15h-175v190l-10 10v-235h-20v225l-10 10v-200z" inkscape:connector-curvature="0" sodipodi:nodetypes="cccccccccccccccccccccccc"/>
  <path transform="translate(0 627.14)" d="m255 45a10 10 0 1 1-20 0 10 10 0 1 1 20 0z" sodipodi:cx="245" sodipodi:cy="45" sodipodi:rx="10" sodipodi:ry="10" sodipodi:type="arc"/>
 </g>
</svg>
