<?xml version="1.0" encoding="utf-8"?>
<!-- Generator: Adobe Illustrator 22.0.1, SVG Export Plug-In . SVG Version: 6.00 Build 0)  -->
<svg version="1.1" id="Layer_1" xmlns="http://www.w3.org/2000/svg" xmlns:xlink="http://www.w3.org/1999/xlink" x="0px" y="0px"
	 viewBox="0 0 64 64" style="enable-background:new 0 0 64 64;" xml:space="preserve">
<style type="text/css">
	.st0{fill:#2880C3;}
</style>
<g>
	<path class="st0" d="M0.5,33c0.1-1-0.1-2.2,0.1-3.2c0.3-2,1.4-3.3,3.1-4.2c0.4-0.2,0.7-0.4,0.8-1c0.8-4.1,2.4-7.9,4.8-11.2
		c0.3-0.4,0.5-0.7,0.1-1.2c-0.4-0.6,0-1.2,0.5-1.8c3.4-3.8,7.6-6.7,12.5-8.3c11.8-3.6,22.1-1.2,31,7.5c0.8,0.8,1.9,1.6,0.9,3
		c-0.2,0.2,0.1,0.4,0.3,0.6c2.6,3.4,4.2,7.3,4.9,11.5c0.1,0.5,0.4,0.6,0.7,0.8c2.2,1.1,3.1,2.9,3.1,5.2c0,2.1,0.2,4.2-0.1,6.3
		c-0.5,3.1-3.5,5.1-6.6,4.5c-0.9-0.2-1.2-0.9-1.2-1.8c0-3.4,0.1-7,0-10.4C55.2,19.9,51,12.9,42.8,8.4c-13.5-7.3-31,1.1-33.9,16.3
		c-0.6,2.7-0.5,5.3-0.4,8c0,2.5,0,5-0.1,7.5c0,0.9-0.5,1.4-1.5,1.4c-3.8,0.2-6.4-2.2-6.4-6C0.5,34.8,0.5,34,0.5,33"/>
	<path class="st0" d="M27.8,46.2c1.5-0.5,2.5-1.5,2.8-3c0.3-1.5-1.5-3.6-3.9-6c-2.6-2.4-5.9-4.8-7.8-5.7c-2.7-1.5-5.1-0.2-5.7,2.8
		c-0.6,3.2,0,6.3,1.8,9.1c1.3,1.9,3.1,2.8,5.3,3C21.7,46.4,26.7,46.6,27.8,46.2"/>
	<path class="st0" d="M39,46.3c1.6,0.2,3.1,0.5,4.7,0.6c2.2,0.2,3.7-0.5,5-1.8c1.6-1.6,2.3-3.4,2.2-5.6c-0.1-2.2-2-3.4-4.5-3.1
		c-2.3,0.4-4.3,1.2-6.3,2c-1.8,0.7-3.5,1.6-4.8,2.8c-1.9,1.7-0.9,4,2.1,4.7C37.9,46.1,38.5,46.1,39,46.3"/>
	<path class="st0" d="M55.8,45.7c-0.4-0.3-0.9-0.1-1,0.3c-1,3.1-5.5,13.9-21.2,15c-18.4,1.3,9.8,5.4,17.9-0.8
		c2.8-2.2,5.8-4.3,5.7-10.5C57.2,48.4,56.6,46.4,55.8,45.7"/>
</g>
</svg>
