<?xml version="1.0" encoding="UTF-8"?>
<!DOCTYPE svg PUBLIC "-//W3C//DTD SVG 1.1//EN" "http://www.w3.org/Graphics/SVG/1.1/DTD/svg11.dtd">
<svg xmlns="http://www.w3.org/2000/svg" version="1.1" width="512px" height="512px" style="shape-rendering:geometricPrecision; text-rendering:geometricPrecision; image-rendering:optimizeQuality; fill-rule:evenodd; clip-rule:evenodd" xmlns:xlink="http://www.w3.org/1999/xlink">
<g><path style="opacity:0.012" fill="#0859ff" d="M 286.5,131.5 C 331.331,130.335 376.331,130.169 421.5,131C 376.501,131.5 331.501,131.667 286.5,131.5 Z"/></g>
<g><path style="opacity:0.012" fill="#007fff" d="M 283.5,132.5 C 283.897,131.475 284.563,131.308 285.5,132C 284.906,132.464 284.239,132.631 283.5,132.5 Z"/></g>
<g><path style="opacity:0.975" fill="#007aff" d="M 233.5,152.5 C 232.662,152.842 232.328,153.508 232.5,154.5C 231.662,154.842 231.328,155.508 231.5,156.5C 230.833,156.5 230.5,156.833 230.5,157.5C 228.973,157.427 227.973,158.094 227.5,159.5C 188.196,160.316 148.862,160.816 109.5,161C 110.495,189.093 110.828,217.259 110.5,245.5C 143.502,245.333 176.502,245.5 209.5,246C 218.345,247.347 222.678,252.514 222.5,261.5C 221.596,262.209 221.263,263.209 221.5,264.5C 220.662,264.842 220.328,265.508 220.5,266.5C 219.662,266.842 219.328,267.508 219.5,268.5C 218.833,268.5 218.5,268.833 218.5,269.5C 217.833,269.5 217.5,269.833 217.5,270.5C 216.833,270.5 216.5,270.833 216.5,271.5C 215.833,271.5 215.5,271.833 215.5,272.5C 214.508,272.328 213.842,272.662 213.5,273.5C 179.187,274.466 144.854,274.799 110.5,274.5C 110.667,312.168 110.5,349.835 110,387.5C 109.439,390.279 108.606,392.946 107.5,395.5C 106.833,395.5 106.5,395.833 106.5,396.5C 105.833,396.5 105.5,396.833 105.5,397.5C 104.508,397.328 103.842,397.662 103.5,398.5C 96.0604,401.212 88.8937,400.545 82,396.5C 80.5611,394.725 79.5611,392.725 79,390.5C 78.1776,306.812 78.3443,223.145 79.5,139.5C 81.4754,136.039 84.4754,133.873 88.5,133C 133.5,132.333 178.5,132.333 223.5,133C 228.235,134.068 231.402,136.901 233,141.5C 233.499,145.152 233.665,148.818 233.5,152.5 Z"/></g>
<g><path style="opacity:0.976" fill="#0279ff" d="M 431.5,150.5 C 430.596,151.209 430.263,152.209 430.5,153.5C 429.662,153.842 429.328,154.508 429.5,155.5C 428.833,155.5 428.5,155.833 428.5,156.5C 427.833,156.5 427.5,156.833 427.5,157.5C 426.833,157.5 426.5,157.833 426.5,158.5C 425.508,158.328 424.842,158.662 424.5,159.5C 385.531,160.482 346.531,160.816 307.5,160.5C 307.333,189.169 307.5,217.835 308,246.5C 308.5,218.169 308.667,189.835 308.5,161.5C 346.168,161.333 383.835,161.5 421.5,162C 384.168,162.5 346.835,162.667 309.5,162.5C 309.5,189.5 309.5,216.5 309.5,243.5C 440.165,243.667 440.165,244.167 309.5,245C 341.833,245.333 374.167,245.667 406.5,246C 416.432,247.014 420.766,252.514 419.5,262.5C 418.596,263.209 418.263,264.209 418.5,265.5C 417.662,265.842 417.328,266.508 417.5,267.5C 416.662,267.842 416.328,268.508 416.5,269.5C 415.833,269.5 415.5,269.833 415.5,270.5C 414.833,270.5 414.5,270.833 414.5,271.5C 413.508,271.328 412.842,271.662 412.5,272.5C 411.508,272.328 410.842,272.662 410.5,273.5C 408.901,273.232 407.568,273.566 406.5,274.5C 277.167,274.833 277.167,275.167 406.5,275.5C 374.338,276.498 342.004,276.832 309.5,276.5C 309.667,314.501 309.5,352.501 309,390.5C 308.333,234.5 307.667,234.5 307,390.5C 305.727,393.597 303.893,396.264 301.5,398.5C 294.369,401.105 287.369,400.771 280.5,397.5C 280.5,396.833 280.167,396.5 279.5,396.5C 278.488,395.128 277.488,393.795 276.5,392.5C 275.35,311.181 275.184,229.848 276,148.5C 275.19,140.324 278.69,135.158 286.5,133C 331.5,132.333 376.5,132.333 421.5,133C 429.087,136.336 432.421,142.169 431.5,150.5 Z"/></g>
<g><path style="opacity:0.016" fill="#1e61ff" d="M 79.5,139.5 C 79.1667,139.5 78.8333,139.5 78.5,139.5C 78.8333,136.833 79.1667,136.833 79.5,139.5 Z"/></g>
<g><path style="opacity:0.016" fill="#1e61ff" d="M 275.5,138.5 C 276.525,138.897 276.692,139.563 276,140.5C 275.536,139.906 275.369,139.239 275.5,138.5 Z"/></g>
<g><path style="opacity:0.012" fill="#2a7fff" d="M 78.5,139.5 C 78.6495,140.552 78.4828,141.552 78,142.5C 77.2599,141.251 77.4265,140.251 78.5,139.5 Z"/></g>
<g><path style="opacity:0.012" fill="#3b94ff" d="M 274.5,141.5 C 275.613,142.946 275.78,144.613 275,146.5C 274.506,144.866 274.34,143.199 274.5,141.5 Z"/></g>
<g><path style="opacity:0.008" fill="#3b62ff" d="M 432.5,150.5 C 432.337,148.143 432.503,145.81 433,143.5C 433.796,146.039 433.629,148.372 432.5,150.5 Z"/></g>
<g><path style="opacity:0.014" fill="#1873ff" d="M 234.5,152.5 C 234.335,148.818 234.501,145.152 235,141.5C 235.81,145.358 235.643,149.024 234.5,152.5 Z"/></g>
<g><path style="opacity:0.004" fill="#0000ff" d="M 274.5,387.5 C 273.334,307.668 273.168,227.668 274,147.5C 274.5,227.499 274.667,307.499 274.5,387.5 Z"/></g>
<g><path style="opacity:0.016" fill="#017fff" d="M 76.5,143.5 C 77.6657,225.666 77.8323,307.999 77,390.5C 76.5,308.167 76.3333,225.834 76.5,143.5 Z"/></g>
<g><path style="opacity:0.01" fill="#007fff" d="M 431.5,150.5 C 431.833,150.5 432.167,150.5 432.5,150.5C 432.737,151.791 432.404,152.791 431.5,153.5C 431.5,152.5 431.5,151.5 431.5,150.5 Z"/></g>
<g><path style="opacity:0.008" fill="#0a72ff" d="M 233.5,152.5 C 233.833,152.5 234.167,152.5 234.5,152.5C 234.672,153.492 234.338,154.158 233.5,154.5C 233.5,153.833 233.5,153.167 233.5,152.5 Z"/></g>
<g><path style="opacity:0.008" fill="#007fff" d="M 430.5,153.5 C 430.833,153.5 431.167,153.5 431.5,153.5C 431.672,154.492 431.338,155.158 430.5,155.5C 430.5,154.833 430.5,154.167 430.5,153.5 Z"/></g>
<g><path style="opacity:0.004" fill="#41c5ff" d="M 232.5,154.5 C 232.833,154.5 233.167,154.5 233.5,154.5C 233.672,155.492 233.338,156.158 232.5,156.5C 232.5,155.833 232.5,155.167 232.5,154.5 Z"/></g>
<g><path style="opacity:0.012" fill="#0054ff" d="M 429.5,155.5 C 429.833,155.5 430.167,155.5 430.5,155.5C 430.315,156.17 429.981,156.17 429.5,155.5 Z"/></g>
<g><path style="opacity:0.008" fill="#007fff" d="M 231.5,156.5 C 231.833,156.5 232.167,156.5 232.5,156.5C 232.315,157.17 231.981,157.17 231.5,156.5 Z"/></g>
<g><path style="opacity:0.012" fill="#0054ff" d="M 428.5,156.5 C 428.833,156.5 429.167,156.5 429.5,156.5C 429.315,157.17 428.981,157.17 428.5,156.5 Z"/></g>
<g><path style="opacity:0.008" fill="#007fff" d="M 230.5,157.5 C 230.833,157.5 231.167,157.5 231.5,157.5C 231.315,158.17 230.981,158.17 230.5,157.5 Z"/></g>
<g><path style="opacity:0.012" fill="#0054ff" d="M 427.5,157.5 C 427.833,157.5 428.167,157.5 428.5,157.5C 428.315,158.17 427.981,158.17 427.5,157.5 Z"/></g>
<g><path style="opacity:0.008" fill="#007fff" d="M 230.5,158.5 C 229.833,159.167 229.833,159.167 230.5,158.5 Z"/></g>
<g><path style="opacity:0.012" fill="#0054ff" d="M 426.5,158.5 C 426.833,158.5 427.167,158.5 427.5,158.5C 427.315,159.17 426.981,159.17 426.5,158.5 Z"/></g>
<g><path style="opacity:0.012" fill="#00a9ff" d="M 227.5,159.5 C 228.833,160.167 228.833,160.167 227.5,159.5 Z"/></g>
<g><path style="opacity:0.008" fill="#007fff" d="M 424.5,159.5 C 425.167,159.5 425.833,159.5 426.5,159.5C 425.833,160.833 425.167,160.833 424.5,159.5 Z"/></g>
<g><path style="opacity:0.008" fill="#0881ff" d="M 112.5,163.5 C 112.167,163.5 111.833,163.5 111.5,163.5C 129.988,162.167 148.821,161.5 168,161.5C 186.833,161.667 205.667,161.833 224.5,162C 186.998,162.167 149.664,162.667 112.5,163.5 Z"/></g>
<g><path style="opacity:0.004" fill="#0001ff" d="M 111.5,163.5 C 111.833,163.5 112.167,163.5 112.5,163.5C 112.5,190.167 112.5,216.833 112.5,243.5C 144.835,243.333 177.168,243.5 209.5,244C 176.835,244.5 144.168,244.667 111.5,244.5C 111.5,217.5 111.5,190.5 111.5,163.5 Z"/></g>
<g><path style="opacity:0.012" fill="#0054ff" d="M 221.5,251.5 C 222.833,252.167 222.833,252.167 221.5,251.5 Z"/></g>
<g><path style="opacity:0.013" fill="#279bff" d="M 420.5,262.5 C 420.336,259.813 420.503,257.146 421,254.5C 421.801,257.367 421.634,260.034 420.5,262.5 Z"/></g>
<g><path style="opacity:0.008" fill="#3876ff" d="M 223.5,261.5 C 223.338,259.473 223.505,257.473 224,255.5C 224.789,257.712 224.622,259.712 223.5,261.5 Z"/></g>
<g><path style="opacity:0.012" fill="#235eff" d="M 222.5,261.5 C 222.833,261.5 223.167,261.5 223.5,261.5C 223.737,262.791 223.404,263.791 222.5,264.5C 222.5,263.5 222.5,262.5 222.5,261.5 Z"/></g>
<g><path style="opacity:0.012" fill="#299fff" d="M 419.5,262.5 C 419.833,262.5 420.167,262.5 420.5,262.5C 420.737,263.791 420.404,264.791 419.5,265.5C 419.5,264.5 419.5,263.5 419.5,262.5 Z"/></g>
<g><path style="opacity:0.012" fill="#0963ff" d="M 221.5,264.5 C 221.833,264.5 222.167,264.5 222.5,264.5C 222.672,265.492 222.338,266.158 221.5,266.5C 221.5,265.833 221.5,265.167 221.5,264.5 Z"/></g>
<g><path style="opacity:0.012" fill="#0963ff" d="M 418.5,265.5 C 418.833,265.5 419.167,265.5 419.5,265.5C 419.672,266.492 419.338,267.158 418.5,267.5C 418.5,266.833 418.5,266.167 418.5,265.5 Z"/></g>
<g><path style="opacity:0.012" fill="#0963ff" d="M 220.5,266.5 C 220.833,266.5 221.167,266.5 221.5,266.5C 221.672,267.492 221.338,268.158 220.5,268.5C 220.5,267.833 220.5,267.167 220.5,266.5 Z"/></g>
<g><path style="opacity:0.012" fill="#00a9ff" d="M 219.5,268.5 C 219.833,268.5 220.167,268.5 220.5,268.5C 220.315,269.17 219.981,269.17 219.5,268.5 Z"/></g>
<g><path style="opacity:0.004" fill="#30d3ff" d="M 417.5,267.5 C 417.833,267.5 418.167,267.5 418.5,267.5C 418.672,268.492 418.338,269.158 417.5,269.5C 417.5,268.833 417.5,268.167 417.5,267.5 Z"/></g>
<g><path style="opacity:0.012" fill="#0054ff" d="M 416.5,269.5 C 416.833,269.5 417.167,269.5 417.5,269.5C 417.315,270.17 416.981,270.17 416.5,269.5 Z"/></g>
<g><path style="opacity:0.004" fill="#2051ff" d="M 218.5,269.5 C 218.833,269.5 219.167,269.5 219.5,269.5C 219.5,270.833 218.833,271.5 217.5,271.5C 217.5,271.167 217.5,270.833 217.5,270.5C 218.167,270.5 218.5,270.167 218.5,269.5 Z"/></g>
<g><path style="opacity:0.012" fill="#0054ff" d="M 415.5,270.5 C 415.833,270.5 416.167,270.5 416.5,270.5C 416.315,271.17 415.981,271.17 415.5,270.5 Z"/></g>
<g><path style="opacity:0.012" fill="#0054ff" d="M 216.5,271.5 C 216.833,271.5 217.167,271.5 217.5,271.5C 217.315,272.17 216.981,272.17 216.5,271.5 Z"/></g>
<g><path style="opacity:0.012" fill="#0054ff" d="M 414.5,271.5 C 414.833,271.5 415.167,271.5 415.5,271.5C 415.315,272.17 414.981,272.17 414.5,271.5 Z"/></g>
<g><path style="opacity:0.012" fill="#0054ff" d="M 215.5,272.5 C 215.833,272.5 216.167,272.5 216.5,272.5C 216.315,273.17 215.981,273.17 215.5,272.5 Z"/></g>
<g><path style="opacity:0.004" fill="#41c5ff" d="M 412.5,273.5 C 412.5,273.167 412.5,272.833 412.5,272.5C 413.167,272.5 413.833,272.5 414.5,272.5C 414.158,273.338 413.492,273.672 412.5,273.5 Z"/></g>
<g><path style="opacity:0.004" fill="#1de2ff" d="M 213.5,274.5 C 213.5,274.167 213.5,273.833 213.5,273.5C 214.167,273.5 214.833,273.5 215.5,273.5C 215.158,274.338 214.492,274.672 213.5,274.5 Z"/></g>
<g><path style="opacity:0.012" fill="#0963ff" d="M 410.5,274.5 C 410.5,274.167 410.5,273.833 410.5,273.5C 411.167,273.5 411.833,273.5 412.5,273.5C 412.158,274.338 411.492,274.672 410.5,274.5 Z"/></g>
<g><path style="opacity:0.012" fill="#1865ff" d="M 213.5,274.5 C 212.399,275.598 211.066,275.765 209.5,275C 210.793,274.51 212.127,274.343 213.5,274.5 Z"/></g>
<g><path style="opacity:0.016" fill="#30b1ff" d="M 406.5,275.5 C 406.5,275.167 406.5,274.833 406.5,274.5C 407.833,274.5 409.167,274.5 410.5,274.5C 409.432,275.434 408.099,275.768 406.5,275.5 Z"/></g>
<g><path style="opacity:0.004" fill="#0102ff" d="M 111.5,388.5 C 111.5,350.833 111.5,313.167 111.5,275.5C 143.835,275.333 176.168,275.5 208.5,276C 176.502,276.5 144.502,276.667 112.5,276.5C 112.832,314.004 112.498,351.337 111.5,388.5 Z"/></g>
<g><path style="opacity:0.01" fill="#196eff" d="M 111.5,388.5 C 111.768,390.099 111.434,391.432 110.5,392.5C 110.232,390.901 110.566,389.568 111.5,388.5 Z"/></g>
<g><path style="opacity:0.012" fill="#1b5eff" d="M 274.5,387.5 C 275.451,388.919 275.784,390.585 275.5,392.5C 274.549,391.081 274.216,389.415 274.5,387.5 Z"/></g>
<g><path style="opacity:0.004" fill="#1d3fff" d="M 110.5,392.5 C 110.672,393.492 110.338,394.158 109.5,394.5C 109.328,393.508 109.662,392.842 110.5,392.5 Z"/></g>
<g><path style="opacity:0.004" fill="#30d3ff" d="M 275.5,392.5 C 275.833,392.5 276.167,392.5 276.5,392.5C 276.167,395.167 275.833,395.167 275.5,392.5 Z"/></g>
<g><path style="opacity:0.008" fill="#007fff" d="M 109.5,394.5 C 108.833,395.167 108.833,395.167 109.5,394.5 Z"/></g>
<g><path style="opacity:0.012" fill="#00a9ff" d="M 107.5,395.5 C 107.833,395.5 108.167,395.5 108.5,395.5C 108.315,396.17 107.981,396.17 107.5,395.5 Z"/></g>
<g><path style="opacity:0.012" fill="#00a9ff" d="M 106.5,396.5 C 106.833,396.5 107.167,396.5 107.5,396.5C 107.315,397.17 106.981,397.17 106.5,396.5 Z"/></g>
<g><path style="opacity:0.012" fill="#00a9ff" d="M 105.5,397.5 C 105.833,397.5 106.167,397.5 106.5,397.5C 106.315,398.17 105.981,398.17 105.5,397.5 Z"/></g>
<g><path style="opacity:0.004" fill="#4572ff" d="M 279.5,396.5 C 280.167,396.5 280.5,396.833 280.5,397.5C 280.44,398.043 280.107,398.376 279.5,398.5C 278.227,397.743 278.227,397.077 279.5,396.5 Z"/></g>
<g><path style="opacity:0.008" fill="#2ea9ff" d="M 103.5,398.5 C 104.167,398.5 104.833,398.5 105.5,398.5C 104.833,399.833 104.167,399.833 103.5,398.5 Z"/></g>
<g><path style="opacity:0.012" fill="#0054ff" d="M 301.5,398.5 C 302.833,399.167 302.833,399.167 301.5,398.5 Z"/></g>
</svg>
