<svg xmlns="http://www.w3.org/2000/svg" xmlns:xlink="http://www.w3.org/1999/xlink" width="64" height="64" viewBox="0 0 64 64">
  <defs>
    <linearGradient id="pycharm-b" x1="7.35%" x2="80.968%" y1="11.236%" y2="54.987%">
      <stop offset="0%" stop-color="#21D789"/>
      <stop offset="100%" stop-color="#07C3F2"/>
    </linearGradient>
    <polygon id="pycharm-a" points="35.8 36.2 45.6 36.2 56.8 39.3 63.6 25.6 44.9 10.1"/>
    <linearGradient id="pycharm-d" x1="50%" x2="102.903%" y1="26.504%" y2="58.411%">
      <stop offset="0%" stop-color="#21D789"/>
      <stop offset="100%" stop-color="#07C3F2"/>
    </linearGradient>
    <polygon id="pycharm-c" points="27.401 0 3.901 9.8 .001 51.2 12.9 49.8 22.099 45.9 22.401 39.299 26 20.2 41.8 9.5"/>
    <linearGradient id="pycharm-f" x1="36.606%" x2="86.738%" y1="100%" y2="-8.024%">
      <stop offset="0%" stop-color="#21D789"/>
      <stop offset="100%" stop-color="#FCF84A"/>
    </linearGradient>
    <polygon id="pycharm-e" points="18 24.3 0 51.2 21.901 64 27.8 57.101 26 20.2"/>
    <linearGradient id="pycharm-h" x1="17.087%" x2="109.484%" y1="114.336%" y2="-4.748%">
      <stop offset="0%" stop-color="#21D789"/>
      <stop offset="100%" stop-color="#FCF84A"/>
    </linearGradient>
    <polygon id="pycharm-g" points="47.6 0 28 17.5 50.2 17.5"/>
    <linearGradient id="pycharm-j" x1="-16.661%" x2="59.794%" y1="25.401%" y2="77.245%">
      <stop offset="0%" stop-color="#21D789"/>
      <stop offset="100%" stop-color="#FCF84A"/>
    </linearGradient>
    <polygon id="pycharm-i" points="29 17.5 26 20.2 18.5 56.601 44.5 63.9 64 57.2 56 27 43.4 31.9 44.9 16"/>
    <linearGradient id="pycharm-l" x1="50%" x2="50%" y1="-11.618%" y2="60.589%">
      <stop offset="0%" stop-color="#A6A5A5"/>
      <stop offset="0%" stop-color="#989898" stop-opacity=".568"/>
      <stop offset="100%"/>
    </linearGradient>
    <polygon id="pycharm-k" points="0 40 40 40 40 0 0 0"/>
  </defs>
  <g fill="none" fill-rule="evenodd">
    <use fill="#07C3F2" xlink:href="#pycharm-a"/>
    <use fill="url(#pycharm-b)" xlink:href="#pycharm-a"/>
    <use fill="#21D789" xlink:href="#pycharm-c"/>
    <use fill="url(#pycharm-d)" xlink:href="#pycharm-c"/>
    <use fill="#FCF84A" xlink:href="#pycharm-e"/>
    <use fill="url(#pycharm-f)" xlink:href="#pycharm-e"/>
    <use fill="#21D789" xlink:href="#pycharm-g"/>
    <use fill="url(#pycharm-h)" xlink:href="#pycharm-g"/>
    <use fill="#FCF84A" xlink:href="#pycharm-i"/>
    <use fill="url(#pycharm-j)" xlink:href="#pycharm-i"/>
    <g transform="translate(12 12)">
      <use fill="#000" xlink:href="#pycharm-k"/>
      <use fill="url(#pycharm-l)" xlink:href="#pycharm-k"/>
      <polygon fill="#FFF" points="4 35 19 35 19 32.5 4 32.5"/>
      <path fill="#FFF" d="M6.478 9.5732C8.285 9.5732 9.341 8.4562 9.341 6.9982L9.341 6.9502C9.341 5.2742 8.215 4.3762 6.407 4.3762L3.614 4.3762 3.614 9.5732 6.478 9.5732zM0 1.0002L6.713 1.0002C10.632 1.0002 13.002 3.4042 13.002 6.8772L13.002 6.9262C13.002 10.8592 10.045 12.9002 6.36 12.9002L3.614 12.9002 3.614 18.0002 0 18.0002 0 1.0002zM14.1938 9.5615L14.1938 9.5135C14.1938 4.8025 17.7448.9435 22.8358.9435 25.9608.9435 27.8318 1.9845 29.3698 3.4995L27.0498 6.1755C25.7718 5.0155 24.4698 4.3055 22.8118 4.3055 20.0188 4.3055 18.0058 6.6255 18.0058 9.4665L18.0058 9.5135C18.0058 12.3555 19.9708 14.7225 22.8118 14.7225 24.7058 14.7225 25.8658 13.9645 27.1678 12.7815L29.4888 15.1255C27.7838 16.9485 25.8898 18.0855 22.6938 18.0855 17.8168 18.0855 14.1938 14.3215 14.1938 9.5615" transform="translate(4 4)"/>
    </g>
  </g>
</svg>
