<?xml version="1.0" standalone="no"?>
<!DOCTYPE svg PUBLIC "-//W3C//DTD SVG 20010904//EN"
 "http://www.w3.org/TR/2001/REC-SVG-20010904/DTD/svg10.dtd">
<svg version="1.0" xmlns="http://www.w3.org/2000/svg"
 width="225.000000pt" height="225.000000pt" viewBox="0 0 225.000000 225.000000"
 preserveAspectRatio="xMidYMid meet">
<metadata>
Created by potrace 1.16, written by Peter Selinger 2001-2019
</metadata>
<g transform="translate(0.000000,225.000000) scale(0.100000,-0.100000)"
fill="#000000" stroke="none">
<path d="M975 2239 c-250 -31 -486 -155 -672 -353 -352 -372 -401 -940 -119
-1375 55 -86 186 -225 276 -292 36 -27 110 -72 165 -99 441 -218 965 -128
1305 226 47 49 105 118 128 154 180 273 233 593 152 909 -80 315 -320 602
-616 737 -193 88 -405 119 -619 93z m330 -188 c191 -39 347 -122 481 -256 269
-267 352 -642 223 -999 -89 -247 -308 -466 -556 -556 -172 -62 -392 -76 -548
-35 -231 60 -436 203 -564 394 -173 256 -209 601 -91 884 172 414 624 657
1055 568z"/>
<path d="M715 1590 c-150 -14 -171 -19 -196 -46 -33 -35 -30 -91 7 -122 27
-23 30 -24 138 -15 61 4 205 8 321 7 247 -1 397 -23 559 -80 55 -20 119 -38
142 -41 36 -4 44 -1 67 27 31 36 33 59 12 99 -27 53 -239 124 -467 156 -133
19 -455 27 -583 15z"/>
<path d="M785 1240 c-164 -10 -199 -17 -226 -46 -31 -34 -30 -88 4 -122 l26
-25 188 11 c303 19 563 -9 743 -79 99 -38 131 -38 164 2 29 34 32 55 14 94
-31 69 -305 145 -595 165 -81 5 -159 9 -173 8 -14 0 -79 -4 -145 -8z"/>
<path d="M778 900 c-140 -9 -166 -15 -195 -42 -33 -31 -31 -91 2 -124 25 -25
26 -25 143 -17 277 19 506 -1 672 -59 124 -43 131 -44 168 -13 42 35 45 94 7
129 -30 28 -178 79 -295 101 -72 13 -344 38 -375 33 -5 0 -63 -4 -127 -8z"/>
</g>
</svg>
