<svg xmlns="http://www.w3.org/2000/svg" viewBox="0 -0.5 19 19" shape-rendering="crispEdges">
<path stroke="#4b3d2f" d="M7 3h6M6 4h1M13 4h1M5 5h1M13 5h1M3 6h2M10 6h1M14 6h1M2 7h1M6 7h1M9 7h3M14 7h1M3 8h3M9 8h1M11 8h1M15 8h1M4 9h1M8 9h1M11 9h1M15 9h1M3 10h1M7 10h5M15 10h1M3 11h1M15 11h1M3 12h1M8 12h1M15 12h1M4 13h1M7 13h6M15 13h1M4 14h1M7 14h1M12 14h1M16 14h1M3 15h1M7 15h1M12 15h1M15 15h1M4 16h3M13 16h2" />
<path stroke="#e3d68e" d="M7 4h4M12 4h1M6 8h1M5 9h1M4 10h1M11 11h1M15 14h1M4 15h1" />
<path stroke="#d8be68" d="M11 4h1M6 5h7M5 6h1M8 6h2M11 6h3M3 7h2M7 7h2M12 7h2M7 8h1M12 8h3M6 9h1M12 9h3M5 10h2M12 10h2M4 11h7M12 11h3M4 12h3M10 12h1M13 12h2M5 13h2M13 13h2M6 14h1M13 14h2M5 15h1M13 15h2" />
<path stroke="#b09e65" d="M6 6h2M5 7h1M8 8h1M7 9h1M14 10h1M7 12h1M9 12h1M11 12h2M5 14h1M6 15h1" />
</svg>
