<svg xmlns="http://www.w3.org/2000/svg" width="64" height="64" fill="none" viewBox="0 0 64 64"><defs><linearGradient id="rustrover_svg__a" x1="7.671" x2="61.125" y1="64.393" y2="39.609" gradientUnits="userSpaceOnUse"><stop offset=".08" stop-color="#00D886"/><stop offset=".46" stop-color="#FFAB00"/></linearGradient><linearGradient id="rustrover_svg__b" x1="59.932" x2="1.336" y1="59.676" y2="1.08" gradientUnits="userSpaceOnUse"><stop offset=".19" stop-color="#FFAB00"/><stop offset=".83" stop-color="#FF004C"/></linearGradient></defs><path fill="#00D886" d="M6 47.55v12.258a4.125 4.125 0 0 0 4.19 4.124l11.044-.176a4.124 4.124 0 0 0 3.066-1.44l32.707-38.158c.64-.747.993-1.7.993-2.684V10.125A4.125 4.125 0 0 0 53.875 6H42.872c-1.19 0-2.321.514-3.105 1.409L7.021 44.833A4.124 4.124 0 0 0 6 47.55Z"/><path fill="url(#rustrover_svg__a)" d="M6 49.015v10.862a4.125 4.125 0 0 0 4.125 4.125h12.566c.2 0 .4-.014.598-.044l37.185-5.448A4.125 4.125 0 0 0 64 54.429V39.03a4.125 4.125 0 0 0-4.127-4.125l-18.504.005c-.426 0-.849.066-1.254.195L8.871 45.085A4.126 4.126 0 0 0 6 49.015H6Z"/><path fill="url(#rustrover_svg__b)" d="M0 4.125v34.127c0 1.659.993 3.155 2.52 3.8L39.943 57.85c.518.219 1.075.33 1.638.324l18.329-.15A4.125 4.125 0 0 0 64 53.9V36.234c0-.806-.236-1.593-.678-2.267L42.213 1.86A4.125 4.125 0 0 0 38.766 0H4.125A4.125 4.125 0 0 0 0 4.125Z"/><path fill="#000" d="M52 12H12v40h40V12Z"/><path fill="#fff" d="M33 44H17v3h16v-3ZM16.992 16.992h6.442c1.05 0 1.976.193 2.776.579.8.386 1.417.929 1.85 1.63.432.7.648 1.51.648 2.432 0 .922-.22 1.75-.66 2.46-.439.712-1.065 1.262-1.875 1.651-.811.39-1.753.584-2.825.584h-3.43v5.67h-2.926V16.992Zm7.54 6.63c.369-.183.653-.444.853-.783.2-.34.3-.734.3-1.184 0-.45-.1-.852-.3-1.185-.2-.332-.485-.59-.852-.772-.368-.182-.799-.273-1.292-.273h-3.323v4.47h3.323c.493 0 .924-.09 1.292-.273Zm-2.63 1.763h3.194L29.03 32h-3.355l-3.773-6.614ZM31.613 16.992h6.442c1.05 0 1.976.193 2.776.579.8.386 1.417.929 1.85 1.63.432.7.648 1.51.648 2.432 0 .922-.22 1.75-.66 2.46-.439.712-1.064 1.262-1.875 1.651-.811.39-1.753.584-2.824.584h-3.43v5.67h-2.927V16.992Zm7.54 6.63c.369-.183.653-.444.853-.783.2-.34.3-.734.3-1.184 0-.45-.1-.852-.3-1.185-.2-.332-.485-.59-.852-.772-.368-.182-.799-.273-1.292-.273h-3.323v4.47h3.323c.493 0 .924-.09 1.292-.273Zm-2.63 1.763h3.194L43.651 32h-3.355l-3.773-6.614Z"/></svg>