<svg width="64" height="64" stroke-miterlimit="10" style="fill-rule:nonzero;clip-rule:evenodd;stroke-linecap:round;stroke-linejoin:round;" version="1.1" viewBox="0 0 1024 1024" xml:space="preserve" xmlns="http://www.w3.org/2000/svg" xmlns:vectornator="http://vectornator.io" xmlns:xlink="http://www.w3.org/1999/xlink">
<defs>
<radialGradient cx="512" cy="563.989" gradientTransform="matrix(1 0 0 1 0 0)" gradientUnits="userSpaceOnUse" id="RadialGradient" r="442.847">
<stop offset="0" stop-color="#4d926e"/>
<stop offset="0.489669" stop-color="#4eb580"/>
<stop offset="1" stop-color="#4e8e69"/>
</radialGradient>
<path d="M560.344 144.438C559.254 147.982 558.606 152.687 558.406 158.844C558.316 161.64 558.285 163.988 558.312 168.812C558.342 173.984 558.34 175.975 558.219 178.281C557.676 188.586 557.08 196.848 555.688 214.969C555.379 218.989 555.286 220.559 555.125 222.688C553.187 248.243 552.344 263.931 552.344 280.719C552.344 282.026 551.829 283.211 551 284.094C551.068 288.914 551.171 293.661 551.406 298.594C551.856 308.031 553.804 333.566 553.844 334.062C555.013 348.978 555.726 359.612 556.188 368.938C556.784 370.396 557.471 371.825 557.875 373.344C559.226 378.424 559.543 384.14 558.781 389.219C558.369 391.967 557.618 394.49 556.719 396.938C556.462 424.423 554.179 452.55 549.625 489.875C549.435 491.431 549.093 493.929 548.906 495.438C579.659 494.988 605.264 494.238 630.031 492.469C653.882 490.765 675.541 488.68 714.875 484.531C716.621 484.347 717.995 484.209 721.156 483.875C742.159 481.656 756.132 480.294 770.25 478.938C774.637 477.749 780.03 477.252 787.094 477.125C787.882 477.111 789.079 477.105 789.875 477.094C804.063 475.853 816.74 474.857 830.25 474.062C832.298 473.942 834.399 473.909 836.375 473.812C836.469 473.802 836.468 473.792 836.562 473.781C841.905 473.17 844.232 472.885 847.188 472.562C857.077 471.484 864.805 470.792 872.312 470.375C873.402 470.314 876.147 470.234 879 470.156C860.092 298.281 725.627 166.159 560.344 144.438ZM423.188 433.969C422.348 434.712 421.634 435.365 420.844 436.062C421.351 436.071 422.063 436.053 422.562 436.062C422.744 435.357 422.968 434.662 423.188 433.969ZM482.281 553.688C424.165 553.796 394.813 554.285 361.125 556.156C341.449 557.249 323.141 557.392 292.969 557.062C290.737 557.038 288.939 557.016 284.938 556.969C274.091 556.842 267.916 556.925 259.75 556.906C256.882 557.157 255.071 557.281 250.344 557.719C234.017 559.229 226.688 559.769 217.5 560.031C210.969 560.218 205.697 560.227 193.656 560.125C188.152 560.079 185.667 560.065 182.594 560.062C167.22 560.052 156.25 560.712 145.938 562.25C168.684 733.455 306.539 863.466 473.656 880.781C473.654 880.512 473.658 880.453 473.656 880.125C473.592 869.191 473.521 864.348 473.281 858.344C471.89 823.552 471.531 791.259 471.531 735.125C471.531 733.161 472.683 731.483 474.344 730.688C474.863 681.335 476.347 638.79 479.312 597.281C480.301 583.445 481.697 569.784 483.562 553.688C483.214 553.687 482.636 553.687 482.281 553.688Z" fill-rule="evenodd" id="Fill"/>
</defs>
<g id="3">
<path d="M512 119.522L512 119.522C756.578 119.522 954.847 317.791 954.847 562.369L954.847 565.608C954.847 766.729 820.776 936.535 637.133 990.529C597.452 1002.2 555.457 1008.46 512 1008.46L512 1008.46C267.422 1008.46 69.1532 810.186 69.1532 565.608L69.1532 562.369C69.1532 317.791 267.422 119.522 512 119.522Z" fill="url(#RadialGradient)" fill-rule="evenodd" opacity="1" stroke="none"/>
</g>
<g id="2">
<path d="M512 66.9147L512 66.9147C756.578 66.9147 954.847 265.184 954.847 509.762L954.847 513.001C954.847 757.579 756.578 955.848 512 955.848L512 955.848C267.422 955.848 69.1532 757.579 69.1532 513.001L69.1532 509.762C69.1532 265.184 267.422 66.9147 512 66.9147Z" fill="#5ed698" fill-rule="evenodd" opacity="1" stroke="none"/>
</g>
<g id="6">
<use fill="#4fb681" opacity="1" stroke="none" xlink:href="#Fill"/>
<clipPath id="ClipPath">
<use xlink:href="#Fill"/>
</clipPath>
<g clip-path="url(#ClipPath)">
<path d="M543.923 864.903L543.923 864.903C738.116 847.337 881.3 675.672 863.734 481.48L863.501 478.907C845.935 284.715 674.27 141.53 480.077 159.097L480.077 159.097C285.884 176.663 142.7 348.328 160.266 542.52L160.499 545.093C178.065 739.285 349.73 882.47 543.923 864.903Z" fill="#5ed698" fill-rule="evenodd" opacity="1" stroke="none"/>
<path d="M537.652 795.58L537.652 795.58C693.698 781.465 808.756 643.521 794.641 487.475L794.454 485.408C780.338 329.362 642.394 214.304 486.348 228.42L486.348 228.42C330.302 242.535 215.244 380.479 229.359 536.525L229.546 538.592C243.662 694.638 381.606 809.696 537.652 795.58Z" fill="#4fb681" fill-rule="evenodd" opacity="1" stroke="none"/>
<path d="M535.924 776.474L535.924 776.474C681.457 763.31 788.762 634.66 775.598 489.127L775.423 487.2C762.259 341.667 633.609 234.361 488.076 247.526L488.076 247.526C342.543 260.69 235.238 389.34 248.402 534.873L248.577 536.8C261.741 682.333 390.391 789.639 535.924 776.474Z" fill="#5ed698" fill-rule="evenodd" opacity="1" stroke="none"/>
</g>
</g>
<g id="4">
<path d="M529.617 706.754L529.617 706.754C636.785 697.06 715.803 602.325 706.109 495.157L705.98 493.737C696.286 386.57 601.551 307.551 494.383 317.246L494.383 317.246C387.215 326.94 308.197 421.675 317.891 528.843L318.02 530.263C327.714 637.43 422.449 716.449 529.617 706.754Z" fill="#4fb681" fill-rule="evenodd" opacity="1" stroke="none"/>
</g>
<g id="5">
<path d="M518.449 440.706L518.449 440.706C557.68 444.255 586.606 478.935 583.057 518.166L583.01 518.685C579.462 557.916 544.782 586.843 505.551 583.294L505.551 583.294C466.32 579.745 437.394 545.065 440.943 505.834L440.99 505.315C444.538 466.084 479.218 437.157 518.449 440.706Z" fill="#ffffff" fill-rule="evenodd" opacity="1" stroke="#000000" stroke-linecap="round" stroke-linejoin="round" stroke-opacity="0" stroke-width="1.245"/>
</g>
</svg>