<?xml version="1.0" encoding="UTF-8" standalone="no"?>
<svg
   version="1.1"
   id="svg834"
   xml:space="preserve"
   width="128"
   height="128"
   viewBox="0 0 128 128"
   xmlns="http://www.w3.org/2000/svg"
   xmlns:svg="http://www.w3.org/2000/svg"
   xmlns:rdf="http://www.w3.org/1999/02/22-rdf-syntax-ns#"
   xmlns:cc="http://creativecommons.org/ns#"
   xmlns:dc="http://purl.org/dc/elements/1.1/"><metadata
     id="metadata840"><rdf:RDF><cc:Work
         rdf:about=""><dc:format>image/svg+xml</dc:format><dc:type
           rdf:resource="http://purl.org/dc/dcmitype/StillImage" /></cc:Work></rdf:RDF></metadata><defs
     id="defs838" /><g
     id="g123"
     transform="matrix(0.89062496,0,0,0.89062496,7.0000006,7.000004)"><path
       id="path4771"
       d="m 53.436611,33.018703 c -10.232104,0.188303 -20.6015,1.152587 -30.365004,4.370407 -4.005771,1.577031 -5.520678,7.311003 -2.491096,10.489784 1.820712,2.324663 5.065868,3.128609 7.803619,2.092227 11.690867,-3.374572 24.050973,-3.515833 36.131684,-2.841878 12.064982,0.908326 24.250297,3.659956 35.088449,9.318043 2.156077,0.940876 4.402827,2.685534 6.870317,1.728914 3.66082,-0.738107 5.94201,-4.762781 5.01706,-8.315442 -1.01458,-3.846742 -5.24921,-5.241036 -8.37252,-6.954686 C 87.696675,35.638105 70.377146,32.96708 53.436611,33.018703 Z"
       style="opacity:1;vector-effect:none;fill:#191515;fill-opacity:1;stroke:none;stroke-width:1;stroke-miterlimit:4;stroke-dasharray:none" /><path
       id="path4773"
       d="m 51.943268,55.051089 c -8.658561,0.148728 -17.398951,1.270981 -25.608128,4.091541 -3.081446,1.663126 -4.193615,6.268582 -1.621158,8.877215 1.594762,2.031662 4.399624,2.488354 6.746317,1.648605 6.122691,-1.646346 12.441847,-2.779741 18.805191,-2.668233 7.45045,-0.177369 14.88208,0.09783 22.143061,1.899165 7.510712,1.471167 14.461479,4.568498 21.177716,8.077794 1.605657,1.062633 3.611398,1.51138 5.420585,0.680701 3.594408,-1.23646 5.031748,-6.278493 2.391068,-9.10455 -3.348539,-2.944614 -7.632579,-4.573441 -11.641618,-6.414409 -11.9233,-4.965785 -24.922605,-7.209315 -37.813034,-7.087829 z"
       style="opacity:1;vector-effect:none;fill:#191515;fill-opacity:1;stroke:none;stroke-width:1;stroke-miterlimit:4;stroke-dasharray:none" /><path
       id="path4775"
       d="m 53.652833,76.004387 c -8.33048,-10e-4 -16.673339,1.030123 -24.731621,3.127637 -2.541369,1.121738 -3.97794,4.537638 -2.237995,6.927683 1.056454,2.174079 3.744412,2.605323 5.882321,2.037587 6.805703,-1.37534 13.736141,-2.400623 20.688194,-2.333124 10.208613,-0.238219 20.459902,1.556268 29.582099,6.12634 2.585377,0.949 4.822785,3.289575 7.727765,3.08329 3.454436,-0.337686 5.74319,-5.13991 3.073583,-7.732957 -3.088694,-2.739738 -7.069879,-4.218674 -10.774722,-5.93213 -9.20566,-3.83274 -19.261575,-5.492504 -29.209624,-5.304326 z"
       style="opacity:1;vector-effect:none;fill:#191515;fill-opacity:1;stroke:none;stroke-width:1;stroke-miterlimit:4;stroke-dasharray:none" /><g
       style="fill:#1ed760;fill-opacity:1;stroke-width:0.125"
       id="g842"
       transform="matrix(10.666666,0,0,-10.666666,4.5823488e-6,127.99994)"><g
         id="g844"
         transform="matrix(0.00716478,0,0,0.00716478,-0.09185512,-0.09186037)"
         style="fill:#1ed760;fill-opacity:1;stroke-width:1.74465"><path
           d="m 1345.62,945.281 c -269.94,160.309 -715.202,175.049 -972.893,96.839 -41.383,-12.56 -85.145,10.81 -97.68,52.18 -12.543,41.41 10.793,85.14 52.207,97.72 295.812,89.79 787.556,72.45 1098.316,-112.02 37.22,-22.1 49.43,-70.17 27.37,-107.328 -22.08,-37.219 -70.19,-49.488 -107.32,-27.391 z m -8.84,-237.441 c -18.94,-30.731 -59.12,-40.371 -89.81,-21.5 -225.05,138.336 -568.216,178.41 -834.466,97.59 -34.527,-10.434 -70.996,9.035 -81.484,43.496 -10.403,34.527 9.074,70.929 43.539,81.429 304.152,92.295 682.261,47.59 940.741,-111.253 30.69,-18.903 40.35,-59.102 21.48,-89.762 z M 1234.31,479.809 c -15.05,-24.68 -47.18,-32.411 -71.77,-17.368 -196.653,120.188 -444.173,147.329 -735.673,80.75 -28.09,-6.441 -56.086,11.161 -62.492,39.25 -6.434,28.079 11.102,56.079 39.254,62.489 318.996,72.925 592.633,41.539 813.361,-93.34 24.61,-15.031 32.36,-47.18 17.32,-71.781 z M 850.254,1687.68 c -462.496,0 -837.4337,-374.93 -837.4337,-837.418 0,-462.543 374.9377,-837.4417 837.4337,-837.4417 462.506,0 837.426,374.8987 837.426,837.4417 0,462.488 -374.92,837.418 -837.426,837.418"
           style="display:inline;fill:#1ed760;fill-opacity:1;fill-rule:nonzero;stroke:none;stroke-width:1.74465"
           id="path846" /></g></g></g></svg>
