<svg viewBox="0 0 228 228" fill="none" xmlns="http://www.w3.org/2000/svg">
<rect width="228" height="228" rx="40" fill="#2C3832"/>
<g clip-path="url(#clip0_907_1197)">
<path d="M150.17 177.688H89.49C75.9571 177.688 69.1907 177.688 64.0783 174.934C60.1291 172.806 56.8894 169.572 54.7585 165.629C52 160.525 52 153.77 52 140.26V98.6748C52 87.6562 56.7334 77.1665 65 69.8659C65.2801 75.4585 69.9036 79.8493 75.5126 79.8493H140.51C154.043 79.8493 160.809 79.8493 165.922 82.6034C169.871 84.7307 173.11 87.9651 175.241 91.9078C177.264 95.6508 177.804 100.282 177.948 107.813C177.08 107.803 176.105 107.803 175 107.803H151C139.402 107.803 130 117.19 130 128.769C130 140.347 139.402 149.734 151 149.734H175C176.128 149.734 177.119 149.734 178 149.723V149.903C178 154.384 178 156.624 177.688 158.496C176.074 168.178 168.474 175.764 158.776 177.377C156.901 177.688 154.657 177.688 150.17 177.688Z" fill="#68C481"/>
<path fill-rule="evenodd" clip-rule="evenodd" d="M152 113.793C143.716 113.793 137 120.498 137 128.769C137 137.039 143.716 143.744 152 143.744H174.5C176.823 143.744 177.985 143.744 178.951 143.552C182.918 142.764 186.019 139.668 186.808 135.708C187 134.744 187 133.584 187 131.264V126.273C187 123.953 187 122.793 186.808 121.829C186.019 117.869 182.918 114.773 178.951 113.985C177.985 113.793 176.823 113.793 174.5 113.793H152ZM152 133.76C154.761 133.76 157 131.525 157 128.769C157 126.012 154.761 123.777 152 123.777C149.239 123.777 147 126.012 147 128.769C147 131.525 149.239 133.76 152 133.76Z" fill="#68C481"/>
<path fill-rule="evenodd" clip-rule="evenodd" d="M87.2841 60.8808C75.3397 60.8859 69.156 60.9981 64.3976 63.4658C60.1968 65.6444 56.7716 69.0639 54.5895 73.2578C52 78.2345 52 84.7728 52 97.8494V121.75C52 134.827 52 141.365 54.5895 146.342C56.3669 149.758 58.969 152.66 62.1432 154.796C62 152.552 62 149.778 62 146.2V93.3669C62 85.4072 62 81.4273 63.5762 78.398C64.9045 75.8452 66.9894 73.7638 69.5463 72.4377C72.5807 70.8641 76.5671 70.8641 84.5401 70.8641H87.2841V60.8808ZM139.443 70.8641H155.46C161.845 70.8641 165.674 70.8641 168.504 71.6725C166.331 68.2012 163.261 65.3629 159.602 63.4658C155.22 61.1933 149.629 60.9183 139.443 60.8851V70.8641Z" fill="#68C481"/>
<mask id="mask0_907_1197" style="mask-type:alpha" maskUnits="userSpaceOnUse" x="75" y="14" width="77" height="61">
<path d="M152 14.9565H75V74.8575H152V14.9565Z" fill="#C4C4C4"/>
</mask>
<g mask="url(#mask0_907_1197)">
<path fill-rule="evenodd" clip-rule="evenodd" d="M113.25 97.3203C133.381 97.3203 149.7 81.0279 149.7 60.9305C149.7 40.8329 133.381 24.5405 113.25 24.5405C93.1192 24.5405 76.8 40.8329 76.8 60.9305C76.8 81.0279 93.1192 97.3203 113.25 97.3203ZM117.55 34.6839H108.521V42.1204H99.6268V83.1353H108.521V92.1495H117.55V83.122C124.574 82.8429 130.145 78.1674 130.145 71.1237C130.145 66.9637 128.15 63.7997 125.098 61.8662C127.328 59.9326 128.678 57.2374 128.678 53.839C128.678 47.3685 123.838 42.9478 117.55 42.2249V34.6839ZM119.288 54.5422C119.288 52.4327 117.879 50.9095 115.708 50.9095H109.017V58.1749H115.708C117.821 58.1749 119.288 56.6514 119.288 54.5422ZM109.017 74.3465H116.881C119.229 74.3465 120.755 72.7058 120.755 70.4208C120.755 68.1355 119.229 66.4951 116.881 66.4951H109.017V74.3465Z" fill="#FFC700"/>
</g>
</g>
<defs>
<clipPath id="clip0_907_1197">
<rect width="135" height="154.688" fill="white" transform="translate(52 23)"/>
</clipPath>
</defs>
</svg>
