<?xml version="1.0" encoding="UTF-8" standalone="no"?>
<!-- Generator: Adobe Illustrator 19.0.0, SVG Export Plug-In . SVG Version: 6.00 Build 0)  -->

<svg
   xmlns:dc="http://purl.org/dc/elements/1.1/"
   xmlns:cc="http://creativecommons.org/ns#"
   xmlns:rdf="http://www.w3.org/1999/02/22-rdf-syntax-ns#"
   xmlns:svg="http://www.w3.org/2000/svg"
   xmlns="http://www.w3.org/2000/svg"
   xmlns:sodipodi="http://sodipodi.sourceforge.net/DTD/sodipodi-0.dtd"
   xmlns:inkscape="http://www.inkscape.org/namespaces/inkscape"
   version="1.1"
   id="svg2"
   sodipodi:docname="alizams2.svg"
   inkscape:version="0.92.4 (5da689c313, 2019-01-14)"
   sodipodi:version="0.32"
   x="0px"
   y="0px"
   viewBox="-99 222.9 192 192"
   xml:space="preserve"
   width="192"
   height="192"><metadata
   id="metadata46"><rdf:RDF><cc:Work
       rdf:about=""><dc:format>image/svg+xml</dc:format><dc:type
         rdf:resource="http://purl.org/dc/dcmitype/StillImage" /><dc:title></dc:title></cc:Work></rdf:RDF></metadata><defs
   id="defs44" />
<style
   type="text/css"
   id="style2">
	.st0{fill:url(#path1938_1_);}
	.st1{fill:url(#SVGID_1_);}
	.st2{fill:url(#SVGID_2_);}
	.st3{fill:url(#SVGID_3_);}
	.st4{fill:url(#SVGID_4_);}
</style>
<sodipodi:namedview
   gridtolerance="10"
   showgrid="true"
   id="namedview27"
   borderopacity="1"
   objecttolerance="10"
   inkscape:cx="-33.739684"
   inkscape:cy="234.75119"
   inkscape:zoom="0.94192902"
   inkscape:window-maximized="0"
   inkscape:window-y="29"
   inkscape:window-height="955"
   inkscape:window-x="0"
   inkscape:current-layer="svg2"
   inkscape:pageshadow="2"
   inkscape:pageopacity="0"
   inkscape:window-width="1553"
   pagecolor="#ffffff"
   guidetolerance="10"
   bordercolor="#666666">
	<inkscape:grid
   type="xygrid"
   id="grid3776"
   snapvisiblegridlinesonly="true"
   visible="true"
   enabled="true"
   empspacing="5">
		</inkscape:grid>
</sodipodi:namedview>
<linearGradient
   id="path1938_1_"
   gradientUnits="userSpaceOnUse"
   x1="16340.883"
   y1="15475.903"
   x2="12064.343"
   y2="15915.344"
   gradientTransform="matrix(0.01694752,0,0,0.01694752,-241.02235,43.689923)">
	<stop
   offset="0"
   style="stop-color:#00A15E"
   id="stop6" />
	<stop
   offset="1"
   style="stop-color:#007259"
   id="stop8" />
</linearGradient>
<path
   id="path1938_3_"
   inkscape:connector-curvature="0"
   sodipodi:nodetypes="ccccc"
   class="st0"
   d="m -6.939728,348.33654 c -1.0044242,0.4783 -2.1523364,1.05226 -2.5828037,2.05668 -1.4827203,-0.71744 -3.1089293,-1.67404 -3.6828863,-2.53497 0.334808,-1.96102 3.6828863,-4.06553 6.26569,-4.87863 z m -7.65275,12.77053 c -2.439315,17.98396 28.076027,11.09649 33.14597,23.19741 -2.439315,0.95659 -4.400334,-2.10452 -6.696153,-2.58281 -7.509258,-1.53055 -15.640308,-0.0478 -22.049486,-2.86978 -5.930882,-2.63064 -13.105336,-11.62262 -8.657174,-20.56677 1.195742,1.38706 2.056677,1.86536 4.256843,2.82195 z M -0.00442697,250.477 C -1.534976,243.73301 -7.513685,238.85439 -16.601326,240.57625 c -7.365772,1.38706 -11.766103,11.28781 -9.27896,19.46669 7.317943,24.20182 55.195465,9.90074 59.117494,37.35498 1.578384,11.00083 -3.061098,19.89716 -7.987554,25.58889 -5.452578,6.31352 -13.77495,7.65276 -23.053914,9.42244 l -0.191313,-5.93088 c 4.01769,-1.05224 4.974282,-1.57837 8.178876,-3.82638 6.170031,-4.25683 13.535793,-15.9751 9.613773,-26.16283 -1.817541,-4.73514 -8.561529,-7.22229 -13.44015,-8.94415 -5.50041297,-1.96102 -11.574783,-2.67846 -17.553496,-4.78297 -11.526956,-4.06552 -24.201824,-13.05751 -23.006081,-29.70224 0.765274,-11.19215 11.431295,-19.89715 24.58446,-18.55792 6.361353,0.66962 11.096487,4.06553 13.440141,8.94416 0.813105,1.72186 0.717444,4.06552 1.913193,6.07437 1.147914,1.96101 3.395907,1.38705 4.495995,4.16118 1.10007,2.72629 -1.434897,15.25767 -4.495995,15.97511 -3.969873,1.00443 -10.235556,-9.5181 -9.900747,-13.44014 0.286974,-3.34808 2.678463,-3.34808 4.16117703,-5.73956 z m -7.03096113,76.86231 0.047835,6.26569 c -9.0876409,1.7697 -11.2878059,10.66602 -7.3657719,14.97069 5.2134363,5.6439 16.5969,7.74841 22.384296,4.496 5.404761,-3.06111 2.774124,-10.52253 -5.835222,-7.22229 0.04779,-1.24357 0,-3.15676 -0.09565,-4.97429 9.374616,-3.82637 20.136285,0.38265 16.214265,13.24883 -2.48715,8.2267 -13.392315,10.66602 -24.154002,8.60935 -5.835222,-1.10009 -12.579209,-4.83081 -15.54465,-8.70501 -8.513685,-11.09649 2.104507,-26.01935 14.3489064,-26.68897 z"
   style="fill:url(#path1938_1_);stroke-width:0.47829688" />
<g
   id="_300238544_1_"
   transform="translate(0,-204)">
</g>
<g
   id="g41"
   transform="matrix(0.4782969,0,0,0.4782969,-52.234445,118.27574)">
	<linearGradient
   id="SVGID_1_"
   gradientUnits="userSpaceOnUse"
   x1="90.483597"
   y1="412.95749"
   x2="139.9323"
   y2="462.40631">
		<stop
   offset="0"
   style="stop-color:#008B5C"
   id="stop13" />
		<stop
   offset="1"
   style="stop-color:#008B5C"
   id="stop15" />
	</linearGradient>
	<path
   class="st1"
   d="m 97.1,432.7 0.2,56 c 4.2,1.6 9.8,2.8 14.2,2.1 -0.2,-17.7 -0.3,-39.3 -0.2,-58.8 2.5,0 4.7,-1.1 7.9,-2.1 25.5,-8.2 50.8,-64.2 4.9,-71.2 -14.9,-0.6 -175.2,-0.3 -175.3,8.7 0,0.8 0.2,0.9 0.4,1.4 4.4,9.5 21.6,10.3 32.4,13.2 19.4,5 31.7,15.1 46.1,26 18.8,14.2 38.5,23 69.4,24.7 z"
   id="path18"
   inkscape:connector-curvature="0"
   style="fill:url(#SVGID_1_)" />
	<linearGradient
   id="SVGID_2_"
   gradientUnits="userSpaceOnUse"
   x1="107.5694"
   y1="526.05829"
   x2="113.5249"
   y2="532.01367">
		<stop
   offset="0"
   style="stop-color:#008B5C"
   id="stop20" />
		<stop
   offset="1"
   style="stop-color:#008B5C"
   id="stop22" />
	</linearGradient>
	<path
   class="st2"
   d="m 97.2,530.1 c 4.4,2.5 8,3.2 14.1,4.1 0,-7.6 0,-11.4 0,-18.9 -5.7,-0.1 -7.9,-0.3 -14.2,-1.4 z"
   id="path25"
   inkscape:connector-curvature="0"
   style="fill:url(#SVGID_2_)" />
	<linearGradient
   id="SVGID_3_"
   gradientUnits="userSpaceOnUse"
   x1="117.4243"
   y1="605.71509"
   x2="144.98331"
   y2="633.27411">
		<stop
   offset="0"
   style="stop-color:#008B5C"
   id="stop27" />
		<stop
   offset="1"
   style="stop-color:#008B5C"
   id="stop29" />
	</linearGradient>
	<path
   class="st3"
   d="m 149.3,583.6 c -3.3,-1.1 -5.9,-3.8 -8.7,-4.7 -11,-3.3 -27.2,0.1 -28.7,-10 -0.7,-5.1 -0.6,-8.3 -0.5,-17.1 -5.9,0 -9.1,-0.3 -14.2,-1.3 0.1,16.9 -0.5,19.8 -2,21.7 -4.3,5.5 -16.2,4.4 -24.7,7.3 -3.8,1.3 -7,4.3 -10.7,5.4 -12.2,3.6 -34.2,3 -34.1,9 0.1,6.7 158.4,6.9 158.5,-0.1 -0.1,-7.8 -22.5,-6.1 -34.9,-10.2 z"
   id="path32"
   inkscape:connector-curvature="0"
   style="fill:url(#SVGID_3_)" />
	<linearGradient
   id="SVGID_4_"
   gradientUnits="userSpaceOnUse"
   x1="213.9529"
   y1="382.9595"
   x2="230.1974"
   y2="399.20401">
		<stop
   offset="0"
   style="stop-color:#008B5C"
   id="stop34" />
		<stop
   offset="1"
   style="stop-color:#008B5C"
   id="stop36" />
	</linearGradient>
	<path
   class="st4"
   d="m 176.6,358.7 c 2.8,4.4 4.8,9.6 5.7,15.8 2,13.6 -0.6,25.7 -5.2,35.7 13.3,-12.5 29.7,-24.1 50.4,-29.6 12,-3.2 26.1,-3.7 33.1,-11.8 0.1,-0.2 1,-0.9 1,-1.6 0,-8.8 -56.9,-8.5 -85,-8.5 z"
   id="path39"
   inkscape:connector-curvature="0"
   style="fill:url(#SVGID_4_)" />
</g>
</svg>