<?xml version="1.0" encoding="UTF-8" standalone="no"?>
<!-- Created with Inkscape (http://www.inkscape.org/) -->

<svg
   width="256"
   height="256"
   viewBox="0 0 67.733332 67.733333"
   version="1.1"
   id="svg1"
   xml:space="preserve"
   inkscape:version="1.4.3 (fcd0343856, 2026-01-01)"
   sodipodi:docname="CoverUP.svg"
   xmlns:inkscape="http://www.inkscape.org/namespaces/inkscape"
   xmlns:sodipodi="http://sodipodi.sourceforge.net/DTD/sodipodi-0.dtd"
   xmlns="http://www.w3.org/2000/svg"
   xmlns:svg="http://www.w3.org/2000/svg"><sodipodi:namedview
     id="namedview1"
     pagecolor="#505050"
     bordercolor="#eeeeee"
     borderopacity="1"
     inkscape:showpageshadow="0"
     inkscape:pageopacity="0"
     inkscape:pagecheckerboard="true"
     inkscape:deskcolor="#d1d1d1"
     inkscape:document-units="mm"
     inkscape:zoom="1.3808221"
     inkscape:cx="51.780747"
     inkscape:cy="-19.553569"
     inkscape:window-width="1920"
     inkscape:window-height="1043"
     inkscape:window-x="1920"
     inkscape:window-y="0"
     inkscape:window-maximized="1"
     inkscape:current-layer="svg1" /><defs
     id="defs1"><filter
       inkscape:collect="always"
       style="color-interpolation-filters:sRGB"
       id="filter1"
       x="-0.18600265"
       y="-0.17356478"
       width="1.3720053"
       height="1.3471296"><feGaussianBlur
         inkscape:collect="always"
         stdDeviation="0.14928561"
         id="feGaussianBlur1" /></filter></defs><g
     inkscape:label="Layer 1"
     inkscape:groupmode="layer"
     id="layer1"
     style="display:inline"><rect
       style="opacity:0;fill:#808080;stroke:#3f3f3f;stroke-width:21.1667;stroke-linejoin:round;stroke-dasharray:none;stroke-dashoffset:5;stroke-opacity:1;paint-order:markers fill stroke;filter:url(#filter1)"
       id="rect1"
       width="58.825161"
       height="63.040646"
       x="3.4490321"
       y="5.1735482"
       rx="2.6458333"
       ry="2.6458333" /><rect
       style="opacity:1;fill:#666666;stroke:#383838;stroke-width:12.9145;stroke-linecap:butt;stroke-linejoin:round;stroke-miterlimit:12.3;stroke-dasharray:none;stroke-dashoffset:5;stroke-opacity:1;paint-order:stroke fill markers"
       id="rect2"
       width="54.81884"
       height="54.81884"
       x="6.4572468"
       y="6.4572501"
       rx="9.1204414"
       ry="9.1204414" /></g><g
     style="fill:#e3e3e3"
     id="g3"
     transform="matrix(0.05222511,0,0,0.05222511,8.7986139,57.089345)"><path
       d="M 80,0 V -126.5 H 880 V 0 Z M 584.35,-479.74 470.3,-593.78 296.44,-419.91 410.72,-305.87 Z M 519.28,-643 633.57,-528.72 809.28,-704.43 695.24,-818.72 Z m -73.08,-23.63 211.24,211 -188.98,188.74 q -21.16,21.15 -58.24,21.15 -37.09,0 -58.24,-21.15 l -11,-11 -44.91,45.39 h -155 l 122.15,-122.15 -4.24,-4 q -24.39,-24.39 -23.65,-61 0.74,-36.61 24.89,-61 z m 0,0 203.06,-203.07 q 19.57,-19.63 48.83,-19.63 29.26,0 48.89,19.63 l 111.04,111.53 q 19.63,19.57 19.13,51.33 -0.5,31.75 -20.13,51.38 l -199.58,199.83 z"
       id="path1-6" /></g></svg>
