<?xml version="1.0" encoding="UTF-8" standalone="no"?>
<!-- Created with Inkscape (http://www.inkscape.org/) -->

<svg
   width="48px"
   height="48px"
   id="svg2985"
   version="1.1"
   inkscape:version="1.3.2 (091e20e, 2023-11-25)"
   sodipodi:docname="deltachat.svg"
   inkscape:export-xdpi="512"
   inkscape:export-ydpi="512"
   xml:space="preserve"
   xmlns:inkscape="http://www.inkscape.org/namespaces/inkscape"
   xmlns:sodipodi="http://sodipodi.sourceforge.net/DTD/sodipodi-0.dtd"
   xmlns:xlink="http://www.w3.org/1999/xlink"
   xmlns="http://www.w3.org/2000/svg"
   xmlns:svg="http://www.w3.org/2000/svg"
   xmlns:rdf="http://www.w3.org/1999/02/22-rdf-syntax-ns#"
   xmlns:cc="http://creativecommons.org/ns#"
   xmlns:dc="http://purl.org/dc/elements/1.1/"><defs
     id="defs2987"><linearGradient
       id="linearGradient1"
       inkscape:collect="always"><stop
         style="stop-color:#ffc131;stop-opacity:1;"
         offset="0"
         id="stop1" /><stop
         style="stop-color:#24c8db;stop-opacity:1;"
         offset="1"
         id="stop2" /></linearGradient><linearGradient
       id="linearGradient4409"><stop
         style="stop-color:#f9f9f9;stop-opacity:1"
         offset="0"
         id="stop4411" /><stop
         style="stop-color:#cccccc;stop-opacity:0;"
         offset="1"
         id="stop4413" /></linearGradient><linearGradient
       id="linearGradient4399"><stop
         style="stop-color:#f9f9f9;stop-opacity:1;"
         offset="0"
         id="stop4401" /><stop
         style="stop-color:#f9f9f9;stop-opacity:0;"
         offset="1"
         id="stop4403" /></linearGradient><linearGradient
       id="linearGradient4375"><stop
         style="stop-color:#364e59;stop-opacity:1;"
         offset="0"
         id="stop4377" /><stop
         style="stop-color:#ffffff;stop-opacity:1;"
         offset="1"
         id="stop4379" /></linearGradient><linearGradient
       id="linearGradient4367"><stop
         style="stop-color:#dc000f;stop-opacity:1;"
         offset="0"
         id="stop4369" /><stop
         style="stop-color:#00ff00;stop-opacity:0;"
         offset="1"
         id="stop4371" /></linearGradient><linearGradient
       id="linearGradient4359"><stop
         style="stop-color:#dc000f;stop-opacity:1;"
         offset="0"
         id="stop4361" /><stop
         style="stop-color:#000000;stop-opacity:0;"
         offset="1"
         id="stop4363" /></linearGradient><linearGradient
       inkscape:collect="always"
       xlink:href="#linearGradient4375"
       id="linearGradient4381"
       x1="31.957268"
       y1="29.751493"
       x2="-45.041405"
       y2="-18.591616"
       gradientUnits="userSpaceOnUse"
       gradientTransform="matrix(0.93766393,0,0,0.93766393,1.542566,1.7199693)" /><linearGradient
       inkscape:collect="always"
       xlink:href="#linearGradient4409"
       id="linearGradient4415"
       x1="16.345125"
       y1="3.8388948"
       x2="36.001561"
       y2="24.359164"
       gradientUnits="userSpaceOnUse" /><linearGradient
       inkscape:collect="always"
       xlink:href="#linearGradient1"
       id="linearGradient2"
       x1="38.303505"
       y1="8.9212275"
       x2="9.9307165"
       y2="39.67115"
       gradientUnits="userSpaceOnUse" /><filter
       inkscape:collect="always"
       style="color-interpolation-filters:sRGB"
       id="filter7"
       x="-0.0094576736"
       y="-0.0094576737"
       width="1.0189153"
       height="1.0189153"><feGaussianBlur
         inkscape:collect="always"
         stdDeviation="0.18295062"
         id="feGaussianBlur7" /></filter></defs><sodipodi:namedview
     id="base"
     pagecolor="#ffffff"
     bordercolor="#666666"
     borderopacity="1.0"
     inkscape:pageopacity="0.0"
     inkscape:pageshadow="2"
     inkscape:zoom="10.026056"
     inkscape:cx="24.88516"
     inkscape:cy="26.979703"
     inkscape:current-layer="layer1"
     showgrid="true"
     inkscape:grid-bbox="true"
     inkscape:document-units="px"
     inkscape:snap-global="false"
     inkscape:snap-bbox="true"
     inkscape:bbox-nodes="true"
     inkscape:bbox-paths="true"
     inkscape:snap-bbox-edge-midpoints="true"
     inkscape:window-width="1344"
     inkscape:window-height="846"
     inkscape:window-x="44"
     inkscape:window-y="25"
     inkscape:window-maximized="0"
     inkscape:showpageshadow="0"
     inkscape:pagecheckerboard="1"
     inkscape:deskcolor="#d1d1d1" /><metadata
     id="metadata2990"><rdf:RDF><cc:Work
         rdf:about=""><dc:format>image/svg+xml</dc:format><dc:type
           rdf:resource="http://purl.org/dc/dcmitype/StillImage" /><dc:title /></cc:Work></rdf:RDF></metadata><g
     id="layer1"
     inkscape:label="Layer 1"
     inkscape:groupmode="layer"><path
       style="fill:url(#linearGradient2);fill-opacity:1;stroke:none;stroke-width:0.174;stroke-linejoin:round;stroke-miterlimit:4;stroke-dasharray:none;stroke-opacity:0.43921569;filter:url(#filter7)"
       d="m 24.015419,1.2870249 c -12.549421,0 -22.7283936,10.1789711 -22.7283936,22.7283931 0,12.549422 10.1789726,22.728395 22.7283936,22.728395 14.337742,-0.342877 9.614352,-4.702705 23.697556,0.969161 -7.545453,-13.001555 -1.082973,-13.32964 -0.969161,-23.697556 0,-12.549422 -10.178973,-22.7283931 -22.728395,-22.7283931 z"
       id="path7"
       inkscape:connector-curvature="0"
       sodipodi:nodetypes="sscccs"
       inkscape:label="border glow" /><path
       style="fill:url(#linearGradient2);fill-opacity:1;stroke:none;stroke-width:0.174;stroke-linejoin:round;stroke-miterlimit:4;stroke-dasharray:none;stroke-opacity:0.43921569"
       d="m 24.015419,1.2870249 c -12.549421,0 -22.7283936,10.1789711 -22.7283936,22.7283931 0,12.549422 10.1789726,22.728395 22.7283936,22.728395 14.337742,-0.342877 9.614352,-4.702705 23.697556,0.969161 -7.545453,-13.001555 -1.082973,-13.32964 -0.969161,-23.697556 0,-12.549422 -10.178973,-22.7283931 -22.728395,-22.7283931 z"
       id="path3769"
       inkscape:connector-curvature="0"
       sodipodi:nodetypes="sscccs" /><path
       inkscape:connector-curvature="0"
       id="path6"
       d="M 23.982249,5.3106163 C 13.645822,5.4364005 5.2618355,13.92999 5.2618355,24.275753 c 0,10.345764 8.3839865,18.635301 18.7204135,18.509516 9.827724,-0.03951 7.516769,-5.489695 18.380082,-0.443187 -5.950849,-9.296115 0.201753,-10.533667 0.340336,-18.521947 0,-10.345766 -8.383989,-18.6353031 -18.720418,-18.5095187 z"
       style="display:inline;fill:#ffffff;fill-opacity:1;stroke:none"
       sodipodi:nodetypes="sscccs" /><path
       inkscape:connector-curvature="0"
       id="path3799"
       d="M 23.982249,5.3106163 C 13.645822,5.4364005 5.2618355,13.92999 5.2618355,24.275753 c 0,10.345764 8.3839865,18.635301 18.7204135,18.509516 9.827724,-0.03951 7.516769,-5.489695 18.380082,-0.443187 -5.950849,-9.296115 0.201753,-10.533667 0.340336,-18.521947 0,-10.345766 -8.383989,-18.6353031 -18.720418,-18.5095187 z"
       style="display:inline;fill:url(#linearGradient4381);fill-opacity:1;stroke:none"
       sodipodi:nodetypes="sscccs" /><g
       style="font-style:normal;font-weight:normal;font-size:40px;line-height:125%;font-family:Sans;letter-spacing:0px;word-spacing:0px;fill:#000000;fill-opacity:1;stroke:none"
       id="text4383" /><g
       style="font-style:normal;font-weight:normal;font-size:40px;line-height:125%;font-family:Sans;letter-spacing:0px;word-spacing:0px;fill:#000000;fill-opacity:1;stroke:none"
       id="text4421" /><g
       transform="scale(1.1122373,0.89908874)"
       style="font-style:normal;font-weight:normal;font-size:42.10587311px;line-height:125%;font-family:Sans;letter-spacing:0px;word-spacing:0px;fill:#ffffff;fill-opacity:1;stroke:none"
       id="text3797"><path
         d="m 21.688854,23.636251 q -1.027975,-1.151333 -2.857771,-2.754974 -2.014832,-1.768118 -2.713855,-2.775534 -0.699024,-1.027975 -0.699024,-2.240986 0,-1.809237 1.68588,-2.837212 1.68588,-1.048535 4.399735,-1.048535 2.713855,0 4.728687,0.925178 2.035391,0.925177 2.035391,2.549379 0,0.781261 -0.493428,1.295249 -0.493428,0.513987 -1.151333,0.513987 -0.945737,0 -2.220426,-1.418606 -1.295249,-1.439165 -2.199868,-2.014832 -0.884059,-0.596225 -2.07651,-0.596225 -1.521404,0 -2.50826,0.678463 -0.966297,0.678464 -0.966297,1.726999 0,0.986857 0.801821,1.850356 0.801821,0.863499 4.132461,3.145605 3.556795,2.446581 5.01652,3.824068 1.480285,1.377487 2.405462,3.3512 0.925178,1.973713 0.925178,4.17358 0,3.865188 -2.734414,6.825757 -2.713855,2.94001 -6.352888,2.94001 -3.310081,0 -5.592187,-2.364344 -2.282105,-2.364343 -2.282105,-6.311769 0,-3.803509 2.50826,-6.352888 2.528819,-2.549379 6.208971,-3.083926 z m 0.904619,0.945737 q -5.900579,0.966297 -5.900579,8.100447 0,3.680152 1.459725,5.715543 1.480285,2.035391 3.433438,2.035391 2.035391,0 3.3512,-1.953153 1.315808,-1.973713 1.315808,-5.324913 0,-4.852044 -3.659592,-8.573315 z"
         style="font-family:'Times New Roman';-inkscape-font-specification:'Times New Roman';fill:#ffffff;fill-opacity:1"
         id="path4161" /></g><g
       style="fill:none"
       id="g2"
       transform="translate(-99.171184,136.40405)"><path
         d="m 178.94,106 a 2.5,2.5 0 0 1 -1.7,-0.67 2.52,2.52 0 0 1 -0.66,-1.7 V 54.65 h -16.8 a 2.5,2.5 0 0 1 -1.7,-0.66 2.52,2.52 0 0 1 -0.65,-1.7 V 42.17 c 0,-0.7 0.22,-1.26 0.66,-1.7 a 2.5,2.5 0 0 1 1.7,-0.66 h 50.75 c 0.69,0 1.26,0.22 1.7,0.66 0.44,0.44 0.66,1 0.66,1.7 V 52.3 c 0,0.7 -0.22,1.26 -0.66,1.7 a 2.3,2.3 0 0 1 -1.7,0.66 h -16.8 v 48.98 c 0,0.63 -0.21,1.2 -0.65,1.7 -0.44,0.45 -1.01,0.67 -1.7,0.67 h -12.45 z m 32.03,0 c -0.5,0 -0.97,-0.2 -1.41,-0.57 a 2.15,2.15 0 0 1 -0.57,-1.42 c 0,-0.38 0.03,-0.66 0.1,-0.85 l 22.16,-60.7 c 0.2,-0.76 0.6,-1.4 1.23,-1.9 a 3.8,3.8 0 0 1 2.45,-0.75 h 13.96 c 1.01,0 1.83,0.25 2.46,0.75 0.63,0.5 1.03,1.14 1.22,1.9 l 22.08,60.7 0.19,0.85 a 2,2 0 0 1 -0.66,1.42 c -0.38,0.38 -0.85,0.57 -1.42,0.57 h -11.6 c -1.51,0 -2.52,-0.67 -3.02,-1.99 l -3.68,-9.64 H 229.27 L 225.7,104 c -0.5,1.32 -1.54,1.99 -3.12,1.99 h -11.6 z m 39.72,-25.25 -8.78,-24.96 -8.77,24.96 z m 57.84,26.19 c -8.87,0 -15.82,-2.17 -20.85,-6.52 -4.97,-4.35 -7.45,-10.9 -7.45,-19.67 V 42.17 c 0,-0.7 0.22,-1.26 0.66,-1.7 a 2.5,2.5 0 0 1 1.7,-0.66 h 12.17 c 0.69,0 1.26,0.22 1.7,0.66 0.5,0.44 0.75,1 0.75,1.7 v 38.49 c 0,4.1 0.94,7.18 2.83,9.26 1.95,2.02 4.75,3.03 8.4,3.03 3.58,0 6.35,-1.04 8.3,-3.12 1.95,-2.08 2.92,-5.14 2.92,-9.17 V 42.17 c 0,-0.7 0.22,-1.26 0.66,-1.7 a 2.5,2.5 0 0 1 1.7,-0.66 h 12.26 c 0.7,0 1.26,0.22 1.7,0.66 0.44,0.44 0.66,1 0.66,1.7 v 38.58 c 0,8.76 -2.51,15.32 -7.54,19.67 -4.97,4.35 -11.83,6.52 -20.57,6.52 z M 351.51,106 c -0.63,0 -1.2,-0.22 -1.7,-0.67 a 2.52,2.52 0 0 1 -0.66,-1.7 V 42.17 c 0,-0.7 0.22,-1.26 0.66,-1.7 0.5,-0.44 1.07,-0.66 1.7,-0.66 h 25.66 c 8.24,0 14.65,1.89 19.24,5.67 4.66,3.72 6.98,9.02 6.98,15.89 0,4.4 -1.03,8.16 -3.1,11.25 a 19.9,19.9 0 0 1 -8.6,7.09 l 12.93,23.26 c 0.19,0.38 0.28,0.72 0.28,1.04 a 2,2 0 0 1 -0.66,1.42 1.8,1.8 0 0 1 -1.32,0.57 h -12.54 a 3.94,3.94 0 0 1 -3.87,-2.56 l -10.76,-20.8 h -9.62 v 21 c 0,0.69 -0.25,1.25 -0.75,1.7 -0.44,0.44 -1,0.66 -1.7,0.66 H 351.5 Z m 25.47,-36.79 c 2.9,0 5.1,-0.69 6.6,-2.08 1.51,-1.45 2.27,-3.43 2.27,-5.95 0,-2.52 -0.76,-4.51 -2.27,-5.96 -1.44,-1.51 -3.64,-2.27 -6.6,-2.27 H 366.13 V 69.21 Z M 416.73,106 a 2.5,2.5 0 0 1 -1.7,-0.67 2.52,2.52 0 0 1 -0.65,-1.7 V 42.17 c 0,-0.7 0.22,-1.26 0.66,-1.7 a 2.5,2.5 0 0 1 1.7,-0.66 h 12.63 c 0.7,0 1.26,0.22 1.7,0.66 0.5,0.44 0.76,1 0.76,1.7 v 61.46 c 0,0.7 -0.25,1.26 -0.76,1.7 -0.44,0.45 -1,0.67 -1.7,0.67 z"
         fill="#f7f7f7"
         id="path1" /><path
         d="M 85.76,49.92 A 13.1,13.1 0 0 1 72.62,63 13.1,13.1 0 0 1 59.48,49.92 13.1,13.1 0 0 1 72.62,36.85 13.1,13.1 0 0 1 85.76,49.92 Z"
         fill="#ffc131"
         id="path2" /><path
         d="M 63.74,86.66 A 13.1,13.1 0 0 1 50.6,99.73 13.1,13.1 0 0 1 37.45,86.66 13.1,13.1 0 0 1 50.6,73.58 13.1,13.1 0 0 1 63.74,86.66 Z"
         fill="#24c8db"
         id="path3" /><path
         d="M 40.58,38.15 C 17.9,42.77 0.84,62.73 0.84,86.65 0.84,114 23.12,136.16 50.6,136.16 A 49.75,49.75 0 0 0 98.11,101.38 57.88,57.88 0 0 1 79.08,106.93 35.02,35.02 0 0 1 50.6,121.5 34.93,34.93 0 0 1 15.58,86.66 34.87,34.87 0 0 1 38.55,53.93 34.8,34.8 0 0 1 40.58,38.15 Z"
         fill="#24c8db"
         id="path4" /><path
         fill-rule="evenodd"
         clip-rule="evenodd"
         d="M 82.64,98.43 C 105.31,93.82 122.38,73.85 122.38,49.93 122.38,22.57 100.1,0.41 72.62,0.41 A 49.75,49.75 0 0 0 25.11,35.2 57.87,57.87 0 0 1 44.14,29.65 35.03,35.03 0 0 1 72.62,15.08 34.93,34.93 0 0 1 107.64,49.92 34.87,34.87 0 0 1 84.67,82.65 34.8,34.8 0 0 1 82.64,98.43 Z"
         fill="#ffc131"
         id="path5" /></g></g></svg>
