<?xml version="1.0" encoding="UTF-8" standalone="no"?>
<!-- Created with Inkscape (http://www.inkscape.org/) -->

<svg
   width="512"
   height="512"
   id="svg2985"
   version="1.1"
   inkscape:version="1.4 (e7c3feb100, 2024-10-09)"
   sodipodi:docname="deltachat-tauri.svg"
   inkscape:export-xdpi="512"
   inkscape:export-ydpi="512"
   xml:space="preserve"
   xmlns:inkscape="http://www.inkscape.org/namespaces/inkscape"
   xmlns:sodipodi="http://sodipodi.sourceforge.net/DTD/sodipodi-0.dtd"
   xmlns:xlink="http://www.w3.org/1999/xlink"
   xmlns="http://www.w3.org/2000/svg"
   xmlns:svg="http://www.w3.org/2000/svg"
   xmlns:rdf="http://www.w3.org/1999/02/22-rdf-syntax-ns#"
   xmlns:cc="http://creativecommons.org/ns#"
   xmlns:dc="http://purl.org/dc/elements/1.1/"><defs
     id="defs2987"><linearGradient
       id="linearGradient1"
       inkscape:collect="always"><stop
         style="stop-color:#ffc131;stop-opacity:1;"
         offset="0"
         id="stop1" /><stop
         style="stop-color:#24c8db;stop-opacity:1;"
         offset="1"
         id="stop2" /></linearGradient><linearGradient
       id="linearGradient4409"><stop
         style="stop-color:#f9f9f9;stop-opacity:1"
         offset="0"
         id="stop4411" /><stop
         style="stop-color:#cccccc;stop-opacity:0;"
         offset="1"
         id="stop4413" /></linearGradient><linearGradient
       id="linearGradient4399"><stop
         style="stop-color:#f9f9f9;stop-opacity:1;"
         offset="0"
         id="stop4401" /><stop
         style="stop-color:#f9f9f9;stop-opacity:0;"
         offset="1"
         id="stop4403" /></linearGradient><linearGradient
       id="linearGradient4375"><stop
         style="stop-color:#364e59;stop-opacity:1;"
         offset="0"
         id="stop4377" /><stop
         style="stop-color:#ffffff;stop-opacity:1;"
         offset="1"
         id="stop4379" /></linearGradient><linearGradient
       id="linearGradient4367"><stop
         style="stop-color:#dc000f;stop-opacity:1;"
         offset="0"
         id="stop4369" /><stop
         style="stop-color:#00ff00;stop-opacity:0;"
         offset="1"
         id="stop4371" /></linearGradient><linearGradient
       id="linearGradient4359"><stop
         style="stop-color:#dc000f;stop-opacity:1;"
         offset="0"
         id="stop4361" /><stop
         style="stop-color:#000000;stop-opacity:0;"
         offset="1"
         id="stop4363" /></linearGradient><linearGradient
       inkscape:collect="always"
       xlink:href="#linearGradient4375"
       id="linearGradient4381"
       x1="31.957268"
       y1="29.751493"
       x2="-45.041405"
       y2="-18.591616"
       gradientUnits="userSpaceOnUse"
       gradientTransform="matrix(10.111187,0,0,10.111187,8.3383183,10.25133)" /><linearGradient
       inkscape:collect="always"
       xlink:href="#linearGradient4409"
       id="linearGradient4415"
       x1="16.345125"
       y1="3.8388948"
       x2="36.00156"
       y2="24.359163"
       gradientUnits="userSpaceOnUse" /><linearGradient
       inkscape:collect="always"
       xlink:href="#linearGradient1"
       id="linearGradient2"
       x1="38.303505"
       y1="8.9212275"
       x2="9.9307165"
       y2="39.67115"
       gradientUnits="userSpaceOnUse"
       gradientTransform="matrix(10.783381,0,0,10.783381,-8.2957586,-8.2957538)" /><filter
       inkscape:collect="always"
       style="color-interpolation-filters:sRGB"
       id="filter7"
       x="-0.0094576736"
       y="-0.0094576737"
       width="1.0189153"
       height="1.0189153"><feGaussianBlur
         inkscape:collect="always"
         stdDeviation="0.18295062"
         id="feGaussianBlur7" /></filter><linearGradient
       inkscape:collect="always"
       xlink:href="#linearGradient1"
       id="linearGradient3"
       gradientUnits="userSpaceOnUse"
       x1="38.303505"
       y1="8.9212275"
       x2="9.9307165"
       y2="39.67115" /></defs><sodipodi:namedview
     id="base"
     pagecolor="#ffffff"
     bordercolor="#666666"
     borderopacity="1.0"
     inkscape:pageopacity="0.0"
     inkscape:pageshadow="2"
     inkscape:zoom="0.88618652"
     inkscape:cx="-41.187717"
     inkscape:cy="185.62684"
     inkscape:current-layer="layer1"
     showgrid="true"
     inkscape:grid-bbox="true"
     inkscape:document-units="px"
     inkscape:snap-global="false"
     inkscape:snap-bbox="true"
     inkscape:bbox-nodes="true"
     inkscape:bbox-paths="true"
     inkscape:snap-bbox-edge-midpoints="true"
     inkscape:window-width="2194"
     inkscape:window-height="1162"
     inkscape:window-x="0"
     inkscape:window-y="0"
     inkscape:window-maximized="1"
     inkscape:showpageshadow="0"
     inkscape:pagecheckerboard="1"
     inkscape:deskcolor="#d1d1d1" /><metadata
     id="metadata2990"><rdf:RDF><cc:Work
         rdf:about=""><dc:format>image/svg+xml</dc:format><dc:type
           rdf:resource="http://purl.org/dc/dcmitype/StillImage" /></cc:Work></rdf:RDF></metadata><g
     id="layer1"
     inkscape:label="Layer 1"
     inkscape:groupmode="layer"><path
       style="fill:url(#linearGradient3);fill-opacity:1;stroke:none;stroke-width:0.174;stroke-linejoin:round;stroke-miterlimit:4;stroke-dasharray:none;stroke-opacity:0.439216;filter:url(#filter7)"
       d="m 24.015419,1.2870249 c -12.549421,0 -22.7283936,10.1789711 -22.7283936,22.7283931 0,12.549422 10.1789726,22.728395 22.7283936,22.728395 14.337742,-0.342877 9.614352,-4.702705 23.697556,0.969161 -7.545453,-13.001555 -1.082973,-13.32964 -0.969161,-23.697556 0,-12.549422 -10.178973,-22.7283931 -22.728395,-22.7283931 z"
       id="path7"
       inkscape:connector-curvature="0"
       sodipodi:nodetypes="sscccs"
       inkscape:label="border glow"
       transform="matrix(10.783381,0,0,10.783381,-8.2957586,-8.2957538)" /><path
       style="fill:url(#linearGradient2);fill-opacity:1;stroke:none;stroke-width:1.87631;stroke-linejoin:round;stroke-miterlimit:4;stroke-dasharray:none;stroke-opacity:0.439216"
       d="M 250.67166,5.5827265 C 115.34647,5.5827265 5.5827271,115.34645 5.5827271,250.67166 c 0,135.3252 109.7637429,245.08895 245.0889329,245.08895 C 405.281,492.06323 354.34689,445.04954 506.21144,506.21144 424.84595,366.01071 494.53333,362.47285 495.76061,250.67166 495.76061,115.34645 385.99686,5.5827265 250.67166,5.5827265 Z"
       id="path3769"
       inkscape:connector-curvature="0"
       sodipodi:nodetypes="sscccs" /><path
       inkscape:connector-curvature="0"
       id="path6"
       d="M 250.31398,48.970647 C 138.85234,50.327026 48.44462,141.91664 48.44462,253.47895 c 0,111.56232 90.40772,200.95155 201.86936,199.59517 105.97609,-0.42605 81.05618,-59.19748 198.19943,-4.77906 -64.17027,-100.24355 2.17558,-113.58855 3.66997,-199.72922 0,-111.56233 -90.40775,-200.951574 -201.8694,-199.595193 z"
       style="display:inline;fill:#ffffff;fill-opacity:1;stroke:none;stroke-width:10.7834"
       sodipodi:nodetypes="sscccs" /><path
       inkscape:connector-curvature="0"
       id="path3799"
       d="M 250.31398,48.970647 C 138.85234,50.327026 48.44462,141.91664 48.44462,253.47895 c 0,111.56232 90.40772,200.95155 201.86936,199.59517 105.97609,-0.42605 81.05618,-59.19748 198.19943,-4.77906 -64.17027,-100.24355 2.17558,-113.58855 3.66997,-199.72922 0,-111.56233 -90.40775,-200.951574 -201.8694,-199.595193 z"
       style="display:inline;fill:url(#linearGradient4381);fill-opacity:1;stroke:none;stroke-width:10.7834"
       sodipodi:nodetypes="sscccs" /><g
       style="font-style:normal;font-weight:normal;font-size:40px;line-height:125%;font-family:Sans;letter-spacing:0px;word-spacing:0px;fill:#000000;fill-opacity:1;stroke:none"
       id="text4383"
       transform="matrix(10.783381,0,0,10.783381,-8.2957586,-8.2957538)" /><g
       style="font-style:normal;font-weight:normal;font-size:40px;line-height:125%;font-family:Sans;letter-spacing:0px;word-spacing:0px;fill:#000000;fill-opacity:1;stroke:none"
       id="text4421"
       transform="matrix(10.783381,0,0,10.783381,-8.2957586,-8.2957538)" /><g
       transform="matrix(11.993679,0,0,9.6952167,-8.2957586,-8.2957538)"
       style="font-style:normal;font-weight:normal;font-size:42.1059px;line-height:125%;font-family:Sans;letter-spacing:0px;word-spacing:0px;fill:#ffffff;fill-opacity:1;stroke:none"
       id="text3797"><path
         d="m 21.688854,23.636251 q -1.027975,-1.151333 -2.857771,-2.754974 -2.014832,-1.768118 -2.713855,-2.775534 -0.699024,-1.027975 -0.699024,-2.240986 0,-1.809237 1.68588,-2.837212 1.68588,-1.048535 4.399735,-1.048535 2.713855,0 4.728687,0.925178 2.035391,0.925177 2.035391,2.549379 0,0.781261 -0.493428,1.295249 -0.493428,0.513987 -1.151333,0.513987 -0.945737,0 -2.220426,-1.418606 -1.295249,-1.439165 -2.199868,-2.014832 -0.884059,-0.596225 -2.07651,-0.596225 -1.521404,0 -2.50826,0.678463 -0.966297,0.678464 -0.966297,1.726999 0,0.986857 0.801821,1.850356 0.801821,0.863499 4.132461,3.145605 3.556795,2.446581 5.01652,3.824068 1.480285,1.377487 2.405462,3.3512 0.925178,1.973713 0.925178,4.17358 0,3.865188 -2.734414,6.825757 -2.713855,2.94001 -6.352888,2.94001 -3.310081,0 -5.592187,-2.364344 -2.282105,-2.364343 -2.282105,-6.311769 0,-3.803509 2.50826,-6.352888 2.528819,-2.549379 6.208971,-3.083926 z m 0.904619,0.945737 q -5.900579,0.966297 -5.900579,8.100447 0,3.680152 1.459725,5.715543 1.480285,2.035391 3.433438,2.035391 2.035391,0 3.3512,-1.953153 1.315808,-1.973713 1.315808,-5.324913 0,-4.852044 -3.659592,-8.573315 z"
         style="font-family:'Times New Roman';-inkscape-font-specification:'Times New Roman';fill:#ffffff;fill-opacity:1"
         id="path4161" /></g></g></svg>
