<svg width="1024" height="1024" viewBox="0 0 1024 1024" fill="none" xmlns="http://www.w3.org/2000/svg">
<g clip-path="url(#clip0_18494_15134)">
<mask id="mask0_18494_15134" style="mask-type:luminance" maskUnits="userSpaceOnUse" x="0" y="0" width="1024" height="1024">
<path d="M1024 0H0V1024H1024V0Z" fill="white"/>
</mask>
<g mask="url(#mask0_18494_15134)">
<g filter="url(#filter0_dd_18494_15134)">
<path d="M839 0H185C82.8273 0 0 82.8273 0 185V839C0 941.173 82.8273 1024 185 1024H839C941.173 1024 1024 941.173 1024 839V185C1024 82.8273 941.173 0 839 0Z" fill="url(#paint0_linear_18494_15134)"/>
</g>
</g>
<path d="M279 212H512.575C560.466 212 601.618 219.16 636.031 233.481C670.73 247.802 697.4 268.997 716.04 297.065C734.68 325.134 744 359.647 744 400.605C744 434.115 738.265 462.9 726.794 486.959C715.61 510.732 699.694 530.637 679.046 546.677C658.685 562.43 634.74 575.032 607.21 584.484L566.345 605.965H363.311L362.451 505.433H513.436C536.091 505.433 554.874 501.423 569.786 493.403C584.698 485.384 595.883 474.214 603.339 459.893C611.081 445.572 614.953 428.96 614.953 410.056C614.953 390.007 611.225 372.679 603.769 358.072C596.313 343.465 584.985 332.295 569.786 324.561C554.587 316.828 535.517 312.962 512.575 312.962H408.047V812H279V212Z" fill="white"/>
<path d="M605.781 812L475.817 558.706L612.177 557.847L743.862 805.985V812H605.781Z" fill="white"/>
</g>
<defs>
<filter id="filter0_dd_18494_15134" x="-6.71876" y="-0.83985" width="1037.44" height="1041.64" filterUnits="userSpaceOnUse" color-interpolation-filters="sRGB">
<feFlood flood-opacity="0" result="BackgroundImageFix"/>
<feColorMatrix in="SourceAlpha" type="matrix" values="0 0 0 0 0 0 0 0 0 0 0 0 0 0 0 0 0 0 127 0" result="hardAlpha"/>
<feOffset dy="5.87891"/>
<feGaussianBlur stdDeviation="3.35938"/>
<feComposite in2="hardAlpha" operator="out"/>
<feColorMatrix type="matrix" values="0 0 0 0 0 0 0 0 0 0 0 0 0 0 0 0 0 0 0.15 0"/>
<feBlend mode="normal" in2="BackgroundImageFix" result="effect1_dropShadow_18494_15134"/>
<feColorMatrix in="SourceAlpha" type="matrix" values="0 0 0 0 0 0 0 0 0 0 0 0 0 0 0 0 0 0 127 0" result="hardAlpha"/>
<feOffset dy="10.0781"/>
<feGaussianBlur stdDeviation="3.35938"/>
<feComposite in2="hardAlpha" operator="out"/>
<feColorMatrix type="matrix" values="0 0 0 0 0 0 0 0 0 0 0 0 0 0 0 0 0 0 0.15 0"/>
<feBlend mode="normal" in2="effect1_dropShadow_18494_15134" result="effect2_dropShadow_18494_15134"/>
<feBlend mode="normal" in="SourceGraphic" in2="effect2_dropShadow_18494_15134" result="shape"/>
</filter>
<linearGradient id="paint0_linear_18494_15134" x1="0" y1="0" x2="261.5" y2="1024" gradientUnits="userSpaceOnUse">
<stop stop-color="#383838"/>
<stop offset="0.45" stop-color="#222222"/>
<stop offset="1" stop-color="#111111"/>
</linearGradient>
<clipPath id="clip0_18494_15134">
<rect width="1024" height="1024" fill="white"/>
</clipPath>
</defs>
</svg>
