<?xml version="1.0" encoding="UTF-8" standalone="no"?>
<!-- Created with Inkscape (http://www.inkscape.org/) -->

<svg
   xmlns:dc="http://purl.org/dc/elements/1.1/"
   xmlns:cc="http://creativecommons.org/ns#"
   xmlns:rdf="http://www.w3.org/1999/02/22-rdf-syntax-ns#"
   xmlns:svg="http://www.w3.org/2000/svg"
   xmlns="http://www.w3.org/2000/svg"
   xmlns:sodipodi="http://sodipodi.sourceforge.net/DTD/sodipodi-0.dtd"
   xmlns:inkscape="http://www.inkscape.org/namespaces/inkscape"
   id="svg4190"
   version="1.1"
   inkscape:version="0.92.2 5c3e80d, 2017-08-06"
   width="100"
   height="100"
   viewBox="0 0 100 100"
   sodipodi:docname="wallpaperdownloader.svg"
   inkscape:export-filename="/home/renegade/Escritorio/aaaa.png"
   inkscape:export-xdpi="899.99988"
   inkscape:export-ydpi="899.99988">
  <metadata
     id="metadata4196">
    <rdf:RDF>
      <cc:Work
         rdf:about="">
        <dc:format>image/svg+xml</dc:format>
        <dc:type
           rdf:resource="http://purl.org/dc/dcmitype/StillImage" />
        <dc:title></dc:title>
      </cc:Work>
    </rdf:RDF>
  </metadata>
  <defs
     id="defs4194">
    <inkscape:path-effect
       effect="spiro"
       id="path-effect4938"
       is_visible="true" />
  </defs>
  <sodipodi:namedview
     pagecolor="#ffffff"
     bordercolor="#666666"
     borderopacity="1"
     objecttolerance="10"
     gridtolerance="10"
     guidetolerance="10"
     inkscape:pageopacity="0"
     inkscape:pageshadow="2"
     inkscape:window-width="1680"
     inkscape:window-height="1013"
     id="namedview4192"
     showgrid="false"
     inkscape:zoom="3.4262203"
     inkscape:cx="70.710116"
     inkscape:cy="97.958216"
     inkscape:window-x="0"
     inkscape:window-y="0"
     inkscape:window-maximized="1"
     inkscape:current-layer="svg4190" />
  <rect
     style="fill:none;fill-opacity:1;stroke:#5d977c;stroke-width:5.98625469;stroke-linecap:round;stroke-linejoin:round;stroke-miterlimit:4;stroke-dasharray:none;stroke-opacity:1"
     id="rect4202"
     width="94.013741"
     height="94.013748"
     x="2.9931273"
     y="2.9931335" />
  <ellipse
     style="fill:#ff9933;fill-opacity:1;stroke:#cc6600;stroke-width:2.32200003;stroke-linecap:round;stroke-linejoin:round;stroke-miterlimit:4;stroke-dasharray:none;stroke-opacity:1"
     id="path4210"
     cx="23.5"
     cy="23.5"
     rx="11.338823"
     ry="11.338824" />
  <path
     style="fill:#875521;fill-opacity:1"
     d="M 14.509052,67.6414 28.755266,50.21877 c 2.678832,-3.27612 2.335262,-2.67511 5.34973,-0.38212 8.662592,6.5893 9.178108,5.04953 12.910918,-0.58261 L 61.252776,27.77313 c 2.560817,-3.86381 2.186864,-3.95767 4.496932,0.28741 l 21.954533,40.3446 c 0,0 1.752951,2.76243 -0.590744,2.76243 l -64.931078,-0.0359 c -8.058831,-0.0454 -11.092537,0.69123 -7.673367,-3.4903 z"
     id="path4838"
     inkscape:connector-curvature="0"
     sodipodi:nodetypes="sssssscccs" />
  <rect
     style="fill:#5d977c;fill-opacity:1;stroke:#5d977c;stroke-width:2.43278432;stroke-linecap:round;stroke-linejoin:bevel;stroke-miterlimit:4;stroke-dasharray:none;stroke-opacity:1"
     id="rect4855"
     width="89.217415"
     height="21.180616"
     x="5.2358432"
     y="76.387665" />
  <path
     style="fill:#c8e6f2;fill-opacity:1;stroke:none;stroke-width:0.38301033;stroke-linecap:round;stroke-linejoin:bevel;stroke-miterlimit:4;stroke-dasharray:none;stroke-opacity:1"
     d="M 6.0365726,40.60718 V 6.05047 H 49.995336 93.954098 v 34.55671 34.5567 H 49.995336 6.0365726 Z M 88.086646,70.94591 C 88.471578,70.56098 88.401491,69.65494 87.911688,68.68417 87.008917,66.8949 64.854945,26.22673 64.4399,25.59687 63.950595,24.85431 63.457899,24.69423 63.016776,25.13448 62.85286,25.29807 58.69697,31.4814 53.781468,38.87522 c -4.915503,7.39381 -9.220424,13.72661 -9.566492,14.07289 -0.346069,0.34627 -0.850507,0.74402 -1.120978,0.88389 -0.706126,0.36515 -2.117008,0.21715 -3.292861,-0.34543 -1.306633,-0.62515 -3.950879,-2.39625 -6.135698,-4.10965 -1.988581,-1.5595 -2.473549,-1.71945 -3.283007,-1.08273 -0.481937,0.37909 -15.607916,18.81 -16.625333,20.25786 -0.970576,1.3812 -0.838215,2.19732 0.404202,2.49227 0.294286,0.0699 16.989558,0.13462 37.100603,0.14391 33.035888,0.0153 36.590558,-0.008 36.824742,-0.24232 z M 26.737604,35.65443 c 2.384861,-0.63393 5.069233,-2.39309 6.607699,-4.33025 0.895095,-1.12706 1.918065,-3.17487 2.325449,-4.65515 0.459023,-1.66792 0.416179,-4.98085 -0.08533,-6.59794 -1.251946,-4.03683 -4.173963,-7.10051 -8.073567,-8.46497 -1.226532,-0.42916 -1.734423,-0.5121 -3.509806,-0.57313 -1.732964,-0.0596 -2.304035,-0.0136 -3.458045,0.27818 -5.71237,1.44454 -9.56185,6.32858 -9.557824,12.12651 0.0024,3.50742 1.202193,6.435 3.622571,8.8396 1.965312,1.9525 3.911355,3.03132 6.41443,3.55593 1.35883,0.28479 4.31883,0.19218 5.714421,-0.17878 z"
     id="path4934"
     inkscape:connector-curvature="0" />
  <path
     style="fill:#ffffff;fill-opacity:1;fill-rule:evenodd;stroke:none;stroke-width:1px;stroke-linecap:butt;stroke-linejoin:miter;stroke-opacity:1"
     d="m 55,37.12371 3.309278,3.90722 4.453609,-3.46392 6.185567,3.29897 2.14433,-3.13402 -6.680413,-12.37114 c -0.08262,-0.153007 -0.172279,-0.307009 -0.30602,-0.418144 -0.133742,-0.111136 -0.308337,-0.173601 -0.482023,-0.16518 -0.173686,0.0084 -0.339536,0.08488 -0.474505,0.194517 -0.134969,0.109641 -0.241391,0.249675 -0.345699,0.388807 C 59.980005,29.127769 57.372887,33.057389 55,37.12371 Z"
     id="path4936"
     inkscape:path-effect="#path-effect4938"
     inkscape:original-d="m 55,37.12371 3.309278,3.90722 4.453609,-3.46392 6.185567,3.29897 2.14433,-3.13402 -6.680413,-12.37114 c 0,0 -0.825879,-1.3551 -1.608247,0 C 62.021755,26.71593 55,37.12371 55,37.12371 Z"
     inkscape:connector-curvature="0"
     sodipodi:nodetypes="ccccccsc" />
</svg>
