<?xml version="1.0" encoding="UTF-8" standalone="no"?>
<!DOCTYPE svg PUBLIC "-//W3C//DTD SVG 1.1//EN" "http://www.w3.org/Graphics/SVG/1.1/DTD/svg11.dtd">
<svg width="100%" height="100%" viewBox="0 0 1310 1310" version="1.1" xmlns="http://www.w3.org/2000/svg" xmlns:xlink="http://www.w3.org/1999/xlink" xml:space="preserve" xmlns:serif="http://www.serif.com/" style="fill-rule:evenodd;clip-rule:evenodd;stroke-linejoin:round;stroke-miterlimit:2;">
    <g transform="matrix(1,0,0,1,143,163)">
        <g id="fladder_icon" transform="matrix(1.62562,0,0,1.62562,-336.346,-293.316)">
            <g id="Icon.afdesign" transform="matrix(0.786906,0,0,0.786906,521.86,483.087)">
                <g id="fladder_icon1" serif:id="fladder_icon">
                    <g id="Icon.afdesign1" serif:id="Icon.afdesign" transform="matrix(1,0,0,1,-512,-512)">
                        <path d="M206.525,401.388C200.042,380.411 205.693,358.337 196.685,298.676C181.855,200.461 116.545,173.39 144.907,146.369C169.469,122.969 294.071,127.376 363.154,150.212C481.515,189.339 701.453,297.422 815.866,395.383C862.487,435.299 901.559,505.671 899.534,554.192C896.714,621.784 838.105,673.162 796.053,698.943C789.852,702.701 782.046,702.576 775.968,698.62C769.891,694.665 766.616,687.578 767.542,680.386C783.554,561.22 703.439,481.875 601.656,481.875L327.704,481.875C261.031,481.875 221.297,449.191 206.525,401.388ZM702.017,727.619C698.075,747.983 685.721,765.737 667.997,776.511C607.102,813.553 462.561,901.416 462.561,901.416C409.732,933.443 343.74,934.501 289.91,904.185C236.081,873.869 204.798,800.132 204.176,737.209C203.395,658.204 165.01,578.173 140.793,535.433C137.579,529.776 138.307,522.703 142.607,517.82C146.907,512.937 153.831,511.319 159.849,513.792C197.069,529.174 227.02,555.47 327.704,553.805L601.656,553.805C647.877,557.512 670.954,570.501 694.251,610.125C713.916,643.57 708.939,692.284 702.017,727.619Z" style="fill:url(#_Linear1);"/>
                    </g>
                    <g id="Icon.afdesign2" serif:id="Icon.afdesign">
                    </g>
                </g>
            </g>
        </g>
    </g>
    <defs>
        <linearGradient id="_Linear1" x1="0" y1="0" x2="1" y2="0" gradientUnits="userSpaceOnUse" gradientTransform="matrix(-237.796,835.907,-835.907,-237.796,508.38,98.5713)"><stop offset="0" style="stop-color:rgb(232,55,73);stop-opacity:1"/><stop offset="1" style="stop-color:rgb(252,194,48);stop-opacity:1"/></linearGradient>
    </defs>
</svg>
