<?xml version="1.0" encoding="UTF-8" standalone="no"?>
<svg id="Layer_1" data-name="Layer 1" xmlns="http://www.w3.org/2000/svg" viewBox="0 0 128 128">
	<title>
	</title>
	<path fill="#67AE74" d="M97.13729,103.95043a2.65173,2.65173,0,0,0,2.35525,1.0846l.258-.00142c.59638-.0029,1.194-.02547,1.76867-.05176l.0373-.00175c.387-.01791.774-.03615,1.15985-.04513l.41794-.009c.88359-.02021,1.76719-.0402,2.65084-.05406a1.55721,1.55721,0,0,0-.0373-3.11418h-.01161c-.82028.01271-1.64051.03122-2.46079.04973l-.62881.01419c-.38957.009-.7792.02662-1.1685.04425l-.06682.00318c-.62678.02919-1.13526.04453-1.64516.05033a9.75929,9.75929,0,0,0-.29992-3.24957l-.04141-.12641a3.87707,3.87707,0,0,0-4.49-2.67888,4.48789,4.48789,0,0,0-.48564.12756A6.51626,6.51626,0,1,0,81.97965,98.647l1.67956,3.9044a1.55742,1.55742,0,0,0,2.86115-1.23127L84.84075,97.416a3.39654,3.39654,0,0,1,1.13181-4.2,3.46183,3.46183,0,0,1,5.32424,3.448l-.76474,4.65983-.024.10384c-.02109.09114-.0419.18222-.06561.27187a1.557,1.557,0,0,0,2.99933.83649,1.495,1.495,0,0,0,.10445-.34855l.04075-.249.02979-.12318c.01446-.059.02892-.11775.04256-.17762a7.66351,7.66351,0,0,1,.48876-1.62753,2.14535,2.14535,0,0,1,1.40746-1.09385c.62733-.12816.88042.51105.92264.63516l.01446.04365a7.25929,7.25929,0,0,1,.15905,2.27424A3.42208,3.42208,0,0,0,97.13729,103.95043Z" />
	<path fill="#67AE74" d="M31.73453,104.27242a2.988,2.988,0,0,0,2.83305-.00005A89.17193,89.17193,0,0,0,57.21465,86.87384a23.05211,23.05211,0,0,0,6.30187-15.90918V37.25753L33.15109,30.59237,2.76747,37.25753V70.96466A23.0523,23.0523,0,0,0,9.06928,86.87384a88.94735,88.94735,0,0,0,22.6652,17.39852Z" />
	<path fill="#67AE74" d="M112.66078,14.65077H98.18667L96.706,6.36828a3.19369,3.19369,0,0,0-3.11375-2.51254H60.73167a3.179,3.179,0,0,0-3.1138,2.51254l-1.4716,8.28249H41.66317A12.60583,12.60583,0,0,0,29.10938,26.42388l4.038-.88841,3.96623.87045a4.61742,4.61742,0,0,1,4.54952-3.80472l57.94131.01791V22.6012h13.0563a4.6377,4.6377,0,0,1,4.63025,4.63924v84.32315a4.64157,4.64157,0,0,1-4.63025,4.63025H41.66317a4.6358,4.6358,0,0,1-4.63031-4.63025v-3.01511c-.04486.02695-.08073.04491-.12559.0718a7.88891,7.88891,0,0,1-7.51074,0c-.10773-.05384-.21541-.11666-.3141-.1705v3.1138a12.60151,12.60151,0,0,0,12.58074,12.58068h70.99761a12.59961,12.59961,0,0,0,12.57175-12.58068V27.24043A12.60152,12.60152,0,0,0,112.66078,14.65077Z" />
	<path fill="#67AE74" d="M72.63715,67.26335H87.94453a1.93621,1.93621,0,1,0-.00088-3.87241H72.63715a1.93621,1.93621,0,1,0,0,3.87241Z" />
	<path fill="#67AE74" d="M106.75013,51.27158a1.92386,1.92386,0,0,0-1.3688-.56785H72.63715a1.93664,1.93664,0,0,0,0,3.87329h32.74418a1.93577,1.93577,0,0,0,1.3688-3.30544Z" />
</svg>
