<?xml version="1.0" standalone="yes"?>
<svg xmlns="http://www.w3.org/2000/svg" width="400" height="400">
<path style="fill:#68664a; stroke:none;" d="M0 0L0 77C5.33376 76.038 10.3803 71.4326 15.9599 73.304C25.1854 76.3983 22.6666 90.5745 16.8912 95.7215C11.8975 100.172 5.98265 98.1235 0 98L0 400L400 400L400 344C390.187 345.586 390.394 337.311 400 338L400 0L250 0C251.19 2.19006 255.523 5.0798 255.515 7.53937C255.495 14.3448 241.682 13.9972 238.956 9.11499C237.355 6.24728 240.017 2.70544 241 0L0 0z"/>
<path style="fill:#9c8260; stroke:none;" d="M241.529 1.02777C231.034 7.86551 245.254 16.7071 253.756 10.4861C260.592 5.48392 246.887 -2.46292 241.529 1.02777M298 65C302.773 52.8436 287.186 61.5814 298 65M0 77L0 98C6.09759 98.2618 12.7673 100.547 17.7724 95.7215C23.6175 90.086 24.798 74.6678 14.9853 72.7245C9.56766 71.6517 4.97722 75.5387 0 77M299 114L300 114L300 107L305 107L302 100L309 102L309 101L297 97L301 98L300 93L318 90L319 77C297.224 77.0024 288.842 95.3839 299 114z"/>
<path style="fill:#25341e; stroke:none;" d="M323 85L323 90L328 91L324 88L325 85L323 85M319 92L320 93L319 92M326 102L319 105L320 100L316 100L314 105L314 106L316 108L312 114L306 107L300 108L300 122C308.583 120.948 321.935 113.56 327 123L328 123L334 99L329 92C324.576 93.7727 323.447 98.0355 326 102M316 99L320 96L316 99M297 97L301 100L297 97z"/>
<path style="fill:#9c8260; stroke:none;" d="M305.667 97.3333L306.333 97.6667L305.667 97.3333z"/>
<path style="fill:#25341e; stroke:none;" d="M304 98L310 101L304 98z"/>
<path style="fill:#68664a; stroke:none;" d="M300 107L300 108L305 108L300 107M304 121L305 122L304 121z"/>
<path style="fill:#9c8260; stroke:none;" d="M305 121L304 126L322 125L322 124L307 121L305 121M56 123L56 127L57 127L56 123z"/>
<path style="fill:#f1d208; stroke:none;" d="M57 123L57 127C52.1739 127.778 48.7776 131.174 48 136L44 136L44 156L48 156L48 160L56 160L61 156L61 148L52 148C52 132.649 59.1216 131 73 131L73 135L77 135C77.5765 138.474 78.5255 139.423 82 140L81 148L77 148L77 160L73 160L73 164L77 164L77 160L81 160L81 152L85 152L85 131L81 131L81 123L57 123z"/>
<path style="fill:#9c8260; stroke:none;" d="M81 123L81 131L82 131L81 123M118 123L118 127L119 127L118 123z"/>
<path style="fill:#f1d208; stroke:none;" d="M119 123L119 127L115 127L115 131L119 131L119 135L127 135L127 140L131 140L131 148L135 148L135 177L131 177L131 185L127 185L127 189L123 189L123 185L114 185L114 181L110 181L110 173L106 173L106 144L110 144L110 136L106 136L106 140L102 140L102 148L98 148L98 181L102 181L102 189L106 189L107 194L131 194L131 185L135 185L135 181L139 181L139 173C147.909 171.513 144 147.406 144 140C139.298 138.572 139.054 135.539 139 131L131 131L131 127L127 127L127 123L119 123z"/>
<path style="fill:#9c8260; stroke:none;" d="M172 123L172 127L173 127L172 123z"/>
<path style="fill:#f1d208; stroke:none;" d="M173 123L173 127L169 127L169 131L173 131L173 135L181 135L181 140L185 140L185 148L189 148L189 177L185 177L185 185L181 185L177 190L177 185L168 185L168 181L164 181L164 173L160 173L160 144L164 144L164 135L168 135L168 131C163.699 132.321 160.718 135.544 160 140L156 140L156 148L152 148L152 181L156 181L156 189L160 189L161 194L185 194L185 185L189 185L189 181L193 181L193 173L197 173L197 140L193 140L193 131L185 131L185 127L181 127L181 123L173 123M239 123L239 127L231 127L231 131L223 131L223 135L243 135L243 131L247 131L247 127L243 127L243 123L239 123z"/>
<path style="fill:#9c8260; stroke:none;" d="M322.667 123.333L323.333 123.667L322.667 123.333M52 127L53 128L52 127M114 127L114 135L111 135L111 131L110 131L110 135L106 135L106 136L110 136L110 144L111 144L111 136L115 136L115 132L127 136L127 135L119 135L119 131L115 131L114 127M168 127L168 135L164 135L164 144L160 144L160 157L161 157C161.141 151.012 163.658 139.121 169 136L169 132L172 132L172 136L181 136L181 135L173 135L173 131L169 131L168 127M247 127L247 131L248 131L247 127M230 128L230 131L231 131L230 128M140 139L140 140L145 139L146 148L150 148L150 153L152 153L152 148L156 148L156 140L160 140L165 130C159.134 128.911 151.307 127.639 146.228 131.703C143.528 133.863 142.951 137.15 140 139M48 131L49 132L48 131M57 131L57 132L73 132L57 131M85 131L85 152L81 152L81 160L77 160L77 164L78 164L78 161L82 161L82 153L86 153L85 131z"/>
<path style="fill:#f1d208; stroke:none;" d="M111 131L111 135L114 135L114 131L111 131z"/>
<path style="fill:#9c8260; stroke:none;" d="M139 131L139 139L140 139L139 131M193 131L193 140L197 140L197 139L194 139L193 131M222 131L222 135L218 135L218 136L222 136L222 140L223 140L223 136L243 136L243 135L223 135L222 131M243.667 131.333L244.333 131.667L243.667 131.333M56 132L53 135L53 136L57 136L56 132z"/>
<path style="fill:#68664a; stroke:none;" d="M115 132L115 136L111 136L111 144L107 144L107 173L111 173L111 181L115 181L115 185L123 185L123 189L127 189L127 185L131 185L131 177L135 177L135 148L131 148L131 144L125 144L118 132L115 132M169 132L169 136C161.187 138.747 154.406 171.232 165 173L165 172L161 172C161 164.659 160.906 159.733 166 154L165 181L169 181L169 185L177 185L177 189L181 189L181 185L185 185L185 177L189 177L189 148L185 148L185 144L179 144L179 140L175 140L175 136L172 136L172 132L169 132M243 132L243 136L245 136L245 132L243 132z"/>
<path style="fill:#25341e; stroke:none;" d="M245 132L245 136L237 136L237 140L229 140L229 144L249 144L249 140L253 140L253 136L249 136L249 132L245 132z"/>
<path style="fill:#9c8260; stroke:none;" d="M44 135L44 136L48 136L44 135M73 135L73 136L77 136L73 135M52 136L52 148L53 148L52 136z"/>
<path style="fill:#25341e; stroke:none;" d="M121 136L125 144L131 144L131 140L126 136L121 136z"/>
<path style="fill:#68664a; stroke:none;" d="M126 136L126 139L127 139L126 136z"/>
<path style="fill:#25341e; stroke:none;" d="M175 136L175 140L179 140L179 144L185 144L185 140L180 140L180 136L175 136z"/>
<path style="fill:#68664a; stroke:none;" d="M180 136L180 140L181 140L180 136z"/>
<path style="fill:#f1d208; stroke:none;" d="M218 136L222 140L222 136L218 136z"/>
<path style="fill:#9c8260; stroke:none;" d="M77 139L78 140L77 139M102 139L102 140L106 140L102 139M214 139L214 140L218 140L218 148L219 148L219 139L214 139M81 140L81 144L82 144L81 140z"/>
<path style="fill:#25341e; stroke:none;" d="M117 140L117 144L120 144L120 140L117 140M171 140L171 144L174 144L174 140L171 140z"/>
<path style="fill:#9c8260; stroke:none;" d="M197 140L197 173L198 173L197 140z"/>
<path style="fill:#25341e; stroke:none;" d="M198 140L195 189L199 189L199 181L203 181L203 148L199 148L198 140z"/>
<path style="fill:#f1d208; stroke:none;" d="M214 140L214 148L210 148L210 156L206 156L206 181L210 181L210 185L214 185L214 189L219 194L239 194L239 189L243 189L243 185L247 185L247 177L251 177L251 161L247 156L243 156L243 152L227 152L227 156L223 156L223 160L235 160L235 164L239 164L239 169L243 169L243 185L222 185L222 181L218 181L218 173L214 173L214 169L218 169L218 165L214 165L214 148L218 148L218 140L214 140z"/>
<path style="fill:#25341e; stroke:none;" d="M350 140L352 145L347 145L349 151C345.29 151.596 343.194 152.313 342 156L337 156L337 159C331.315 157.259 332.207 151.144 332 146L327 146L324 188L328 188L328 190L323 190L323 193L327 193C320.148 199.42 304.763 195 296 195L291 210L290 210L288 205C295.901 199.359 295.62 184.712 291 177L278 194L282 194L282 195L277 195L277 196C282.828 196.656 284.273 199.763 286 205L283 204L274 208L274 209L277 215C282.995 219.311 285.682 218.697 291 214C289.802 232.461 283.464 251.692 283.015 270C282.668 284.124 288.744 299.2 286.856 312.985C285.879 320.117 279.503 323.852 273.965 327.285C271.709 328.683 267.869 330.633 269.172 333.911C274.528 347.387 290.611 336.45 299 335L300 324C293.265 320.274 298.175 309.923 299.938 304.014C302.634 294.976 309.594 287.116 311.995 277.961C314.243 269.388 312.925 256.035 313 247C323.897 261.797 317.178 287.678 334 300L335.923 313.576L329 328C332.928 328.003 339.004 329.73 342.621 328.372C346.983 326.734 351.745 317.384 351.923 312.989C352.167 306.942 346.934 300.758 345.459 294.83C343.495 286.935 345 277.119 345 269L351 271L344 225L349 225L349 226C342.089 231.356 352.661 233.279 357 232L351 223L341 224L342 206L336 199L342 199L339 159L354 158C352.95 165.139 350.015 174.754 357 180L354 197L349 197L347 206L347 207L347 208L349 211L345 211L345 212C348.828 212.431 350.81 213.229 352 217C356.248 214.651 357.837 212.912 358 208L352 208L353 200C360.672 202.09 360.141 196.704 364 192L364 191C360.112 185.868 360.112 167.132 364 162L361 152L361 151C357.709 146.215 356.298 140.983 350 140M331 141L331 144L332 144L331 141z"/>
<path style="fill:#9c8260; stroke:none;" d="M106 144L106 173L107 173L106 144z"/>
<path style="fill:#25341e; stroke:none;" d="M113 144L112 151L116 152L116 144L113 144M169 144L167 152C170.828 151.18 170.714 146.974 169 144M225 144L225 148L228 148L228 144L225 144M277 150L277 151L289 152L289 146L277 150z"/>
<path style="fill:#9c8260; stroke:none;" d="M214 148L214 165L218 168L219 168L219 165L223 165L223 161L235 161L235 160L223 160L223 156L222 156L222 160L218 160L218 164L215 164L214 148z"/>
<path style="fill:#25341e; stroke:none;" d="M220 156L224 156L224 148C219.954 149.343 220.047 152.065 220 156z"/>
<path style="fill:#9c8260; stroke:none;" d="M226 152L226 156L227 156L226 152M282 152L285 159L285 160C278.464 164.858 276.696 179.657 287 180L287 179L283 179C287.648 172.167 290.476 162.389 286 155L289 155L289 153L282 152z"/>
<path style="fill:#25341e; stroke:none;" d="M165 154C160.503 159.634 161 165.1 161 172L165 175L166 175L165 154z"/>
<path style="fill:#9c8260; stroke:none;" d="M44 156L44 157L48 157L44 156M57 156L57 157L60 157L57 156M92 156L92 161L88 161C89.7984 172.016 102.894 161.495 92 156M247 156L247 160L248 160L247 156M56 157L56 160L57 160L56 157z"/>
<path style="fill:#25341e; stroke:none;" d="M216 157L216 164L218 164L220 157L216 157z"/>
<path style="fill:#68664a; stroke:none;" d="M353 158L347 167L351 167L351 168L347 168L347 169L350 169L349 181L349 188L345 188L347 195L343 195L342 170L341 170L342 199L336 199C336.675 203.148 337.793 205.09 342 206L342 217L343 217L349 211L347 208L347 207L347 206L349 206L349 197L354 197L357 180L353 158z"/>
<path style="fill:#25341e; stroke:none;" d="M283 159L284 160L283 159z"/>
<path style="fill:#68664a; stroke:none;" d="M284 159L285 160L284 159z"/>
<path style="fill:#9c8260; stroke:none;" d="M339 159L343 195L347 195L345 188L349 188L349 181C351.314 178.242 350.841 169.827 347 169L347 168L351 168L351 167L347 167L350 159L339 159M48 160L48 161L56 161L48 160M248 160L248 161L251 161L251 177L252 177L252 160L248 160z"/>
<path style="fill:#f1d208; stroke:none;" d="M219 161L219 164L222 164L222 161L219 161z"/>
<path style="fill:#68664a; stroke:none;" d="M223 161L223 165L220 165L220 173L224 173L224 177L220 177L220 181L224 185L243 185C243 172.902 242.107 168.001 229 168L229 165L233 165L233 161L223 161z"/>
<path style="fill:#25341e; stroke:none;" d="M233 161L233 165L229 165L229 168L239 168L239 165L234 165L233 161z"/>
<path style="fill:#68664a; stroke:none;" d="M234 161L234 165L235 165L234 161z"/>
<path style="fill:#25341e; stroke:none;" d="M144 162L146 166L144 162z"/>
<path style="fill:#9c8260; stroke:none;" d="M60 177L61 177L61 173L65 173L65 169L69 169L69 165L77 165C69.8333 162 61.1195 170.052 60 177M235 164L235 165L239 165L235 164z"/>
<path style="fill:#f1d208; stroke:none;" d="M69 165L69 169L73 169L73 165L69 165z"/>
<path style="fill:#25341e; stroke:none;" d="M219 165L219 169L215 169L215 172L219 172L219 181L220 181L220 177L224 177L224 173L220 173L219 165M252 165L250 185L257 185L257 169L253 169L252 165z"/>
<path style="fill:#68664a; stroke:none;" d="M340 166L341 167L340 166M218 168L219 169L218 168z"/>
<path style="fill:#f1d208; stroke:none;" d="M65 169L65 173L69 173L69 169L65 169z"/>
<path style="fill:#68664a; stroke:none;" d="M214 169L219 173L219 172L214 169z"/>
<path style="fill:#25341e; stroke:none;" d="M225 169L225 173L228 173L228 169L225 169M241 169L241 172L243 172L243 169L241 169z"/>
<path style="fill:#9c8260; stroke:none;" d="M143 172L144 173L143 172M160 172L161 173L160 172M214 172L215 173L214 172z"/>
<path style="fill:#f1d208; stroke:none;" d="M61 173L61 177L65 177L65 173L61 173z"/>
<path style="fill:#9c8260; stroke:none;" d="M110 173L110 181L111 181L110 173M139 173L139 181L140 181L139 173M164 173L164 181L165 181L164 173M193 173L193 181L194 181L193 173M218 173L218 181L219 181L218 173M57 176L56 181L57 181L59 177L57 176z"/>
<path style="fill:#f1d208; stroke:none;" d="M57 177L57 181L52 181L52 185L48 185L48 189C44.1564 190.277 44.1564 192.723 48 194L48 189C53.0919 189 58.2531 188.018 61 193L81 194C82.282 189.548 85.5481 186.282 90 185L90 181L81 181L81 185L65 185L65 181L61 181L61 177L57 177z"/>
<path style="fill:#9c8260; stroke:none;" d="M247 177L247 185L248 185L247 177z"/>
<path style="fill:#25341e; stroke:none;" d="M72 180L73 181L72 180z"/>
<path style="fill:#9c8260; stroke:none;" d="M114 181L114 185L115 185L114 181M135 181L135 185L136 185L135 181M168 181L168 185L169 185L168 181M189 181L189 185L190 185L189 181M222 181L222 185L223 185L222 181z"/>
<path style="fill:#25341e; stroke:none;" d="M223 182L223 185L224 185L223 182z"/>
<path style="fill:#9c8260; stroke:none;" d="M86 185L86 186L90 186L86 185M131 185L131 193L132 193L135 186L131 185M185 185L185 186L189 186L185 185M210.667 185.333L211.333 185.667L210.667 185.333z"/>
<path style="fill:#68664a; stroke:none;" d="M212.667 185.333L213.333 185.667L212.667 185.333z"/>
<path style="fill:#9c8260; stroke:none;" d="M243 185L243 189L244 189L247 186L243 185M85 186L82 189L82 190L86 190L85 186z"/>
<path style="fill:#25341e; stroke:none;" d="M212 186L212 189L214 189L214 186L212 186z"/>
<path style="fill:#9c8260; stroke:none;" d="M44 189L45 190L44 189M48 189L48 194L49 194L49 190L60 190L48 189M102 189L102 190L106 190L102 189M156 189L156 190L160 190L156 189M177 189L177 190L180 190L177 189M214 189L214 190L218 190L218 194C219.124 190.572 217.22 189.535 214 189M239 189L239 190L243 190L239 189M60 190L60 193L61 193L60 190M81 190L81 194L82 194L81 190z"/>
<path style="fill:#25341e; stroke:none;" d="M217 190L217 193L218 193L217 190z"/>
<path style="fill:#9c8260; stroke:none;" d="M44 193L45 194L44 193M61 193L61 194L80 194L61 193M106 193L107 194L106 193M108 193L108 194L121 194L108 193M160 193L161 194L160 193M162 193L162 194L175 194L162 193M220 193L220 194L229 194L220 193z"/>
<path style="fill:#68664a; stroke:none;" d="M331 193L332 194L331 193z"/>
<path style="fill:#25341e; stroke:none;" d="M59 197L82 202L82 194C75.6919 194 63.0073 191.443 59 197M172 202L191 201L187 195L182 198L182 195C176.958 195.38 174.153 197.437 172 202z"/>
<path style="fill:#9c8260; stroke:none;" d="M272 204C277.312 203.752 279.739 202.099 283 198C277.027 196.254 273.787 198.055 272 204M64 201L64 205L65 205L64 201z"/>
<path style="fill:#f1d208; stroke:none;" d="M65 201L65 205L57 205L57 209L73 209L73 213L77 213L77 217L81 217L81 213L85 213L90 209L90 205L77 205L77 201L65 201z"/>
<path style="fill:#9c8260; stroke:none;" d="M77.3333 203.667L77.6667 204.333L77.3333 203.667M56 205L56 213L52 213L52 222L56 222L56 226L57 226L53 221L53 214L57 214L57 210L64 210L64 209L57 209L56 205M52 209L53 210L52 209z"/>
<path style="fill:#f1d208; stroke:none;" d="M52 213L56 213L56 209L52 213z"/>
<path style="fill:#9c8260; stroke:none;" d="M86 209L86 210L90 210L86 209z"/>
<path style="fill:#25341e; stroke:none;" d="M71 210L71 214L66 214L66 215L77 217L77 214L73 214L73 210L71 210z"/>
<path style="fill:#9c8260; stroke:none;" d="M85 210L85 213L86 213L85 210M344 212L341 219L349 219L349 212L344 212M48 213L49 214L48 213z"/>
<path style="fill:#f1d208; stroke:none;" d="M48 234L52 234L52 238L69 238L69 242L77 242L77 246C86.1944 246.109 86 251.077 86 259L90 259C90 252.739 92.9589 239.328 85 238L85 234L77 234L77 230L61 230L61 226L56 226L56 222L52 222L52 213C45.3204 215.217 48 228.136 48 234z"/>
<path style="fill:#9c8260; stroke:none;" d="M73 213L73 214L77 214L73 213M81 213L81 217L77 217L77 218L85 214L81 213z"/>
<path style="fill:#25341e; stroke:none;" d="M82 214L79 221L84 226L87 226L87 221L91 221L82 214z"/>
<path style="fill:#68664a; stroke:none;" d="M81 217L82 218L81 217z"/>
<path style="fill:#f1d208; stroke:none;" d="M181 226L181 230L173 230L173 234L181 234L181 276L177 276L177 292L185 292L185 288L193 288L193 284L185 284L185 267L202 267L202 263L206 263L206 259L210 259L210 255L214 255L214 238L210 238L210 230L202 230L202 226L198 226L198 230L185 230L185 226L181 226z"/>
<path style="fill:#9c8260; stroke:none;" d="M197 226L197 230L198 230L197 226M77 230L77 234L78 234L77 230M110 230L110 238L106 238L106 255L107 255L107 239L111 239L111 235L118 235L123 239L123 238L119 238L119 234L111 234L110 230z"/>
<path style="fill:#f1d208; stroke:none;" d="M111 230L111 234L119 234L119 238L123 238L123 242L127 242L127 230L111 230z"/>
<path style="fill:#9c8260; stroke:none;" d="M172 230L172 234L173 234L172 230z"/>
<path style="fill:#f1d208; stroke:none;" d="M235 230L235 234L231 234L231 238L227 238L223 243L223 259L227 259L227 267L235 267L235 271L243 271L243 267L251 267L251 263L239 263L239 259L235 259L235 255L239 255L239 251L243 251L243 247L239 247L239 251L231 251L231 238L235 238L235 234L239 234L239 238L243 238L243 246L251 246L251 234L247 234L247 230L235 230z"/>
<path style="fill:#9c8260; stroke:none;" d="M247 230L247 234L248 234L247 230M210 231L210 238L211 238L210 231M48 234L48 235L52 235L48 234M85 234L85 238L86 238L85 234M106 234L107 235L106 234z"/>
<path style="fill:#f1d208; stroke:none;" d="M106 238L110 238L110 234L106 238z"/>
<path style="fill:#9c8260; stroke:none;" d="M139 234L139 238L140 238L139 234z"/>
<path style="fill:#f1d208; stroke:none;" d="M140 234L140 238C135.195 238.802 135.053 241.566 135 246L144 246L144 238L156 238L156 247L148 247L148 251L140 251L135 255L135 267L140 271L152 271L152 267L160 267L160 271L164 271L164 267L168 267L168 263L164 263L164 238L160 238L160 234L140 234z"/>
<path style="fill:#9c8260; stroke:none;" d="M160 234L160 238L161 238L160 234M173 234L173 235L181 235L173 234M230 234L230 238L231 238L230 234M235 234L235 235L239 235L235 234M251 234L251 246L239 246L239 247L243 250L244 250L244 247L252 247L251 234z"/>
<path style="fill:#68664a; stroke:none;" d="M235 235L235 239L231 239L231 250L239 250L239 246L243 246L243 239L239 239L239 235L235 235z"/>
<path style="fill:#9c8260; stroke:none;" d="M52 238L52 239L69 239L52 238M89 238L90 239L89 238M102 238L103 239L102 238z"/>
<path style="fill:#f1d208; stroke:none;" d="M102 243L98 243L98 259L102 259L102 267C106.161 267.049 108.888 267.17 111 271L119 271L119 267L127 267L127 263L115 263L115 259L110 259L110 255L106 255L106 238L102 243z"/>
<path style="fill:#9c8260; stroke:none;" d="M135 238L136 239L135 238M144 238L144 239L156 239L144 238M164 238L164 263L165 263L164 238M189 238L189 239L202 239L189 238M226 238L226 242L227 242L226 238M231 238L231 239L235 239L231 238M239 238L239 239L243 239L239 238z"/>
<path style="fill:#68664a; stroke:none;" d="M189 239L189 247L185 247L185 259L194 259L194 263L201 263L201 259L206 259L206 243L202 243L202 239L189 239z"/>
<path style="fill:#9c8260; stroke:none;" d="M69 242L69 243L77 243L69 242M98 242L98 243L102 243L98 242M123 242L123 243L127 243L123 242M202 242L202 243L206 243L202 242M222 242L222 259L223 259C223 253.926 221.283 246.058 226 243L222 242M48 246L48 247L52 247L52 259L53 259L53 246L48 246M77 246L77 247L85 247L77 246M135 246L135 247L144 247L135 246M148 246L148 247L156 247L148 246M186 246L186 247L189 247L186 246z"/>
<path style="fill:#f1d208; stroke:none;" d="M48 247L48 251L44 251L44 263L48 263L48 267C52.1605 267.049 54.8881 267.17 57 271L77 271L77 267L81 267L81 263L85 263L85 259L81 259L81 263L61 263L61 259L52 259L52 247L48 247z"/>
<path style="fill:#9c8260; stroke:none;" d="M85 247L85 263L86 263L85 247M44 250L44 251L48 251L44 250M139 250L139 254L140 254L140 251L148 251L139 250M231 250L231 251L239 251L231 250z"/>
<path style="fill:#68664a; stroke:none;" d="M148 251L148 255L144 255L144 263L148 263L148 267L152 267L152 263L156 263L156 251L148 251z"/>
<path style="fill:#9c8260; stroke:none;" d="M135 254L135 255L139 255L135 254M110 255L110 259L111 259L110 255z"/>
<path style="fill:#f1d208; stroke:none;" d="M127 259L127 263L131 263L131 259L127 259z"/>
<path style="fill:#9c8260; stroke:none;" d="M131 259L131 263L132 263L131 259M193 259L193 263L194 263L193 259M201 259L201 263L202 263L201 259M226 259L226 267L227 267L226 259M251 259L251 267L243 267L243 268L252 268L251 259z"/>
<path style="fill:#f1d208; stroke:none;" d="M252 259L252 263L256 263L256 259L252 259z"/>
<path style="fill:#9c8260; stroke:none;" d="M44 263L44 264L48 264L44 263M81 263L81 267L77 267L77 271L78 271L78 268L82 268L85 264L81 263M168 263L168 267L169 267L168 263M48 267L48 268L56 268L48 267M102 267L102 268L110 268L102 267M119 267L119 268L127 268L119 267M136 267L136 268L139 268L136 267M152 267L152 268L160 268L152 267M164 267L164 271L165 271L168 268L164 267M185 267L185 268L202 268L185 267M227 267L227 268L235 268L227 267M56 268L56 271L57 271L56 268M110 268L110 271L111 271L110 268M139 268L139 272L152 272L152 271L139 268M57 271L57 272L77 272L57 271M111 271L111 272L119 272L111 271M160 271L160 272L164 272L160 271M235 271L235 272L243 272L235 271M177 275L177 276L181 276L177 275M176 276L176 292L177 292L176 276z"/>
<path style="fill:#d2130e; stroke:none;" d="M88 280L88 283C83.6543 283.003 79.5599 282.3 78 287L65 287L65 290L58 290L58 294L51 294L48 297L48 301L44 301L41 307L37 307L38 324L48 324L48 318C53.006 317.836 56.4349 315.935 58 311L65 311L65 307L72 307L75 301L85 301L85 297L95 297L95 294L109 294L109 290L115 290L115 294L129 294L129 297L139 297C140.56 301.7 144.654 300.997 149 301L149 304L159 304L159 307L166 307L166 311L176 311L176 314L183 314C184.492 318.495 194.367 320.787 199.004 320.981C211.219 321.49 243.153 326.285 248 311L255 311L255 304L265 297L265 287L255 283L247 294L241 294L241 297L237 297L237 301L231 301L231 304L227 304L227 307L200 307L200 304L187 304L187 301L180 301L180 297L174 297L174 294L163 294L163 290L156 290L156 287L150 287C147.903 280.683 137.513 283 132 283L132 280L88 280z"/>
<path style="fill:#9c8260; stroke:none;" d="M193 284L193 288L194 288L193 284M191.667 288.333L192.333 288.667L191.667 288.333M177 292L177 293L183 293L177 292M280 308L281 309L280 308M69 316L69 320L63 320L63 323L59 323L59 327L53 327L53 333L44 333C39.6136 356.712 59.3187 350.726 75 350.039C81.5297 349.753 92.1176 352.133 97.6821 347.91C108.99 339.33 91.5686 324.806 85 321.501C79.7188 318.843 74.9957 316.278 69 316M400 338C383.063 335.263 399.494 353.21 400 338z"/>
</svg>
