<?xml version="1.0" encoding="UTF-8" standalone="no"?>
<svg
   xmlns:dc="http://purl.org/dc/elements/1.1/"
   xmlns:cc="http://creativecommons.org/ns#"
   xmlns:rdf="http://www.w3.org/1999/02/22-rdf-syntax-ns#"
   xmlns:svg="http://www.w3.org/2000/svg"
   xmlns="http://www.w3.org/2000/svg"
   xmlns:sodipodi="http://sodipodi.sourceforge.net/DTD/sodipodi-0.dtd"
   xmlns:inkscape="http://www.inkscape.org/namespaces/inkscape"
   viewBox="0 0 256 256"
   height="256"
   width="256"
   xml:space="preserve"
   id="svg2"
   version="1.1"
   sodipodi:docname="icon.svg"
   inkscape:version="0.92.4 5da689c313, 2019-01-14"><sodipodi:namedview
     pagecolor="#ffffff"
     bordercolor="#666666"
     borderopacity="1"
     objecttolerance="10"
     gridtolerance="10"
     guidetolerance="10"
     inkscape:pageopacity="0"
     inkscape:pageshadow="2"
     inkscape:window-width="1920"
     inkscape:window-height="1016"
     id="namedview32"
     showgrid="false"
     inkscape:zoom="1.6767322"
     inkscape:cx="-114.20055"
     inkscape:cy="163.2772"
     inkscape:window-x="0"
     inkscape:window-y="27"
     inkscape:window-maximized="1"
     inkscape:current-layer="svg2" /><metadata
     id="metadata8"><rdf:RDF><cc:Work
         rdf:about=""><dc:format>image/svg+xml</dc:format><dc:type
           rdf:resource="http://purl.org/dc/dcmitype/StillImage" /><dc:title></dc:title></cc:Work></rdf:RDF></metadata><defs
     id="defs6"><clipPath
       id="clipPath18"
       clipPathUnits="userSpaceOnUse"><path
         id="path16"
         d="M 0,100 H 208.75 V 0 H 0 Z"
         inkscape:connector-curvature="0" /></clipPath></defs><g
     transform="matrix(3.4823159,0,0,-3.4823159,-255.17825,337.89134)"
     id="g10"><g
       id="g12"><g
         clip-path="url(#clipPath18)"
         id="g14"><g
           transform="translate(126.8036,59.195418)"
           id="g20"><g
             id="g912"><path
               sodipodi:nodetypes="ccccc"
               inkscape:connector-curvature="0"
               d="m -49.792133,1.0645743 c 10.973,11.0229997 21.979997,22.0799997 32.924997,33.0749997 11.0780004,-11.078 22.1230004,-22.122 33.123,-33.1229997 l -33,-33.0000003 -33.047997,33.0480003"
               style="fill:#1b75bb;fill-opacity:1;fill-rule:nonzero;stroke:none;stroke-width:0.99999994"
               id="path22-7" /><path
               inkscape:connector-curvature="0"
               d="m 13.567863,1.010574 -30.266999,30.267 v -0.726 c 0,-4.189 0.018,-8.378 -0.025,-12.567 -0.005,-0.468 -0.243,-1.043 -0.568999,-1.379 -2.171001,-2.242 -4.406,-4.42 -6.586,-6.653 -0.276,-0.283 -0.49,-0.765 -0.493,-1.156 -0.033,-4.751 -0.022,-9.503 -0.019,-14.2539996 0,-0.1730002 0.04,-0.345 0.061,-0.5180003 0.087,-0.059003 0.173,-0.1179997 0.26,-0.177 4.666999,4.6669999 9.334999,9.3349999 13.991,13.9909999 0,-4.283 0.009,-8.612 -0.02,-12.9409998 -0.002,-0.312 -0.218999,-0.6870001 -0.449,-0.9219998 -1.83,-1.8680003 -3.676,-3.7200008 -5.545,-5.5480004 -0.436,-0.427 -0.622,-0.856 -0.619,-1.473 0.023,-5.173 0.012,-10.346 0.015,-15.519 0,-0.237 0.026,-0.474 0.036,-0.654 10.1190005,10.119 20.2290005,20.2289998 30.229,30.229 m -63.36,0.054 c 10.973,11.023 21.98,22.08 32.925,33.075 11.0780005,-11.078 22.1230005,-22.122 33.123,-33.123 -10.9489995,-10.949 -21.9959995,-21.996 -33,-33 -10.996,10.996 -22.044,22.0439995 -33.048,33.048"
               style="fill:#231f20;fill-opacity:1;fill-rule:nonzero;stroke:none;stroke-width:0.99999994"
               id="path22" /></g></g></g></g></g></svg>