<!DOCTYPE svg PUBLIC "-//W3C//DTD SVG 20010904//EN" "http://www.w3.org/TR/2001/REC-SVG-20010904/DTD/svg10.dtd">
<svg version="1.0" xmlns="http://www.w3.org/2000/svg" width="500px" height="500px" viewBox="0 0 5000 5000" preserveAspectRatio="xMidYMid meet">
<g id="layer101" fill="#000000" stroke="none">
 <path d="M2301 4989 c-482 -43 -923 -211 -1306 -498 -127 -96 -334 -297 -438 -426 -279 -346 -459 -758 -528 -1210 -31 -198 -31 -512 0 -710 69 -452 249 -864 528 -1210 104 -129 311 -330 438 -426 340 -255 723 -415 1150 -480 110 -17 185 -22 355 -22 170 0 245 5 355 22 427 65 810 225 1150 480 127 96 334 297 438 426 279 346 460 759 528 1210 28 184 31 494 5 670 -84 585 -337 1085 -747 1480 -389 375 -878 610 -1413 680 -153 20 -382 26 -515 14z"/>
 </g>
<g id="layer102" fill="#f8f6f7" stroke="none">
 <path d="M1565 3771 c-53 -24 -83 -55 -106 -105 -17 -39 -19 -77 -19 -626 0 -544 2 -588 19 -625 23 -51 79 -101 128 -114 25 -7 266 -11 691 -11 l652 0 0 -210 c0 -237 -8 -292 -56 -371 -129 -214 -390 -276 -604 -144 -108 67 -190 228 -190 373 0 91 -67 150 -155 139 -30 -4 -49 -16 -77 -46 -37 -39 -38 -42 -38 -119 0 -81 26 -202 60 -279 58 -132 192 -273 320 -338 101 -51 186 -70 320 -69 106 0 136 4 202 26 184 61 336 189 415 348 67 137 74 174 80 446 l6 242 106 4 c131 4 178 26 226 102 l30 49 3 574 c2 371 -1 587 -8 612 -16 62 -51 104 -109 134 l-55 27 -900 0 c-857 0 -903 -1 -941 -19z m1075 -381 c25 -25 25 -57 0 -206 l-20 -118 29 -30 c44 -47 64 -95 65 -156 2 -185 -222 -280 -352 -148 -81 82 -84 212 -7 291 19 20 35 45 35 56 0 11 -9 77 -20 146 -29 177 -23 184 143 185 94 0 109 -2 127 -20z"/>
 </g>

</svg>