<svg xmlns="http://www.w3.org/2000/svg" viewBox="-11.113125 0 201.89867 201.89867"><path style="fill:#00c261;" d="M132.84408,43.73484l-71.8498,41.4825a17.94941,17.94941,0,0,0-6.58611,6.5959l31.32129,18.08338,56.12633-32.40449,56.10968,32.3949L229.249,91.82552a17.94938,17.94938,0,0,0-6.59265-6.6082L150.80651,43.73484A17.9624,17.9624,0,0,0,132.84408,43.73484Z" transform="translate(-51.98415 -41.32833)"/><path style="fill:#05af4a;" d="M231.65648,183.7771l.00009-82.965a17.94934,17.94934,0,0,0-2.41916-9.00169l-31.32132,18.08331-.00012,64.80907-56.10968,32.3949-.00006,36.12306a17.94937,17.94937,0,0,0,9.01919-2.40529L222.67525,199.333A17.9624,17.9624,0,0,0,231.65648,183.7771Z" transform="translate(-51.98415 -41.32833)"/><path style="fill:#049642;" d="M60.96535,199.33862l71.84976,41.48257a17.94937,17.94937,0,0,0,9.00527,2.40579l0-36.16672L85.69418,174.65563l0-64.78986L54.41075,91.8042a17.94934,17.94934,0,0,0-2.42656,9.01349l0,82.965A17.96239,17.96239,0,0,0,60.96535,199.33862Z" transform="translate(-51.98415 -41.32833)"/><polygon style="fill:#0d0d0d;" points="89.822 33.577 31.444 67.282 31.444 134.691 89.822 168.395 148.2 134.691 148.2 67.282 89.822 33.577"/><rect style="fill:#00c261;" x="70.99144" y="96.23097" width="37.65128" height="31.04579" rx="3.84485"/><path style="fill:#00c261;" d="M154.9604,171.03992H128.652a10.85814,10.85814,0,0,1-10.84578-10.8458V141.43733a10.85814,10.85814,0,0,1,10.84579-10.8458h26.30841a10.85817,10.85817,0,0,1,10.8458,10.8458v18.75679A10.85816,10.85816,0,0,1,154.9604,171.03992ZM128.652,138.13643a3.30465,3.30465,0,0,0-3.3009,3.3009v18.75679a3.30465,3.30465,0,0,0,3.3009,3.30089H154.9604a3.30467,3.30467,0,0,0,3.30088-3.30089V141.43733a3.30464,3.30464,0,0,0-3.30088-3.3009Z" transform="translate(-51.98415 -41.32833)"/><path style="fill:#00c261;" d="M156.635,131.39719h-7.54491V123.4977a7.0234,7.0234,0,0,0-7.01555-7.01555h-.53948a7.0234,7.0234,0,0,0-7.01555,7.01555v7.89949h-7.5449V123.4977a14.577,14.577,0,0,1,14.56045-14.56045h.53948A14.57694,14.57694,0,0,1,156.635,123.4977Z" transform="translate(-51.98415 -41.32833)"/><rect style="fill:#0d0d0d;" x="86.61892" y="102.30188" width="6.40627" height="14.14669"/></svg>