<?xml version="1.0" encoding="UTF-8" standalone="no"?>
<svg
   width="150"
   height="150"
   viewBox="0 0 149.99999 150"
   version="1.1"
   id="svg42"
   xmlns="http://www.w3.org/2000/svg"
   xmlns:svg="http://www.w3.org/2000/svg">
  <defs
     id="defs4">
    <style
       id="style2">.a{fill:#fff;}</style>
  </defs>
  <g
     transform="translate(-119.503,-102.163)"
     id="g40">
    <circle
       style="fill:#629832"
       id="path287"
       cx="194.50301"
       cy="177.16299"
       r="75" />
    <path
       class="a"
       d="m 228.41436,122.192 -0.088,-0.009 c -0.069,0 -0.133,-0.02 -0.2,-0.02 -0.092,0 -0.177,0.023 -0.268,0.027 a 6.078,6.078 0 0 0 -3.965,1.431 l -29.508,25.06 -29.507,-25.059 a 6.079,6.079 0 0 0 -3.967,-1.432 c -0.091,0 -0.176,-0.027 -0.268,-0.027 -0.069,0 -0.133,0.018 -0.2,0.02 l -0.085,0.009 a 6.121,6.121 0 0 0 -5.855,6.108 v 69.123 a 3.308,3.308 0 0 0 0.084,0.791 c 1.277,18.933 18.6,33.986 39.736,34.013 v 0.026 h 0.029 c 0.5,0 0.987,-0.038 1.481,-0.058 0.3,-0.01 0.6,-0.019 0.9,-0.035 0.3,-0.016 0.574,-0.035 0.859,-0.059 20.488,-1.495 36.661,-17.122 36.661,-36.129 V 128.3 a 6.121,6.121 0 0 0 -5.839,-6.108 z m -33.469,67.674 c -12.72,-1.281 -18.341,-5.293 -18.181,-8.479 0.163,-3.246 5.147,-7.719 12.973,-9.037 0.593,-0.088 1.184,-0.183 1.79,-0.238 l 0.059,-0.006 q 1.38,-0.122 2.8,-0.123 c 15.221,0 27.606,10.761 27.606,23.987 a 20.968,20.968 0 0 1 -0.647,5.115 c -6.301,-8.43 -20.993,-10.675 -26.4,-11.219 z m -28.169,-20.022 v -28.511 l 22.063,18.738 a 41.44,41.44 0 0 0 -22.063,9.773 z m 33.15,-9.773 22.063,-18.738 v 28.51 a 41.439,41.439 0 0 0 -22.063,-9.772 z m -33.15,35.9 a 20.915,20.915 0 0 1 0.718,-5.352 c 3.47,4.9 10.824,9.907 26.223,11.455 12.213,1.23 18.444,5.05 18.286,8.186 -0.171,3.376 -5.614,8.247 -13.836,9.445 -0.087,0.01 -0.173,0.025 -0.26,0.035 -0.332,0.044 -0.675,0.074 -1.015,0.107 -0.828,0.065 -1.662,0.11 -2.509,0.11 -15.222,-0.001 -27.607,-10.757 -27.607,-23.987 z"
       id="path38" />
    <path
       style="fill:#ff2a2a;stroke-width:0.219609"
       d="m 237.61668,163.78152 c -0.47677,-0.47696 -0.5203,-0.78516 -1.15242,-8.15961 l -0.48009,-5.60105 -1.99522,-2.03175 c -1.09739,-1.11745 -2.07129,-2.03175 -2.16425,-2.03175 -0.093,0 -0.16902,0.15156 -0.16902,0.33678 0,0.66155 -1.16068,2.61141 -2.2239,3.73601 -1.34616,1.42389 -2.45908,2.0125 -8.04535,4.25511 -3.5931,1.44246 -4.53347,1.74238 -4.8804,1.55664 -1.03656,-0.55494 -0.98859,-0.80433 1.17843,-6.12642 1.13205,-2.78025 2.39802,-5.52816 2.81325,-6.10644 1.00783,-1.40358 2.77332,-2.81259 4.12668,-3.29343 0.6066,-0.21552 1.1029,-0.44475 1.1029,-0.50939 0,-0.0647 -0.91656,-1.03059 -2.0368,-2.14659 l -2.03682,-2.02906 -6.5813,-0.57605 c -4.33981,-0.37986 -6.74956,-0.68025 -7.07533,-0.882 -0.32988,-0.20428 -0.49404,-0.51925 -0.49404,-0.94786 0,-0.58514 0.64444,-1.13243 7.28623,-6.18783 l 7.28625,-5.54594 4.54587,-0.34494 4.54587,-0.34495 2.29212,-2.2085 c 5.21168,-5.02153 10.03241,-8.5627 14.77386,-10.85244 5.10966,-2.46754 8.38452,-3.26973 14.08679,-3.45061 l 3.98655,-0.12645 0.59823,0.59844 0.59823,0.59844 -0.12225,3.98985 c -0.17963,5.86212 -0.97127,9.05935 -3.54399,14.31333 -2.39864,4.89844 -5.41167,9.01327 -10.36913,14.16088 l -2.70291,2.80659 -0.34035,4.36119 c -0.25044,3.20931 -0.43504,4.50741 -0.69894,4.91481 -0.62179,0.96 -9.80826,13.00247 -10.41801,13.65689 -0.67725,0.72688 -1.12447,0.78457 -1.69074,0.21811 z m 11.27523,-33.39086 c 1.11651,-0.51018 2.59948,-2.11764 2.98142,-3.23172 1.00627,-2.93523 -0.3871,-6.06795 -3.22686,-7.2549 -1.00502,-0.42007 -3.31377,-0.42879 -4.3008,-0.0162 -3.57029,1.49231 -4.62017,6.40875 -1.97301,9.23933 1.46338,1.56477 4.55052,2.1631 6.51925,1.26352 z"
       id="path2252" />
  </g>
</svg>
