<svg xmlns="http://www.w3.org/2000/svg" viewBox="0 -0.5 32 32" shape-rendering="crispEdges">
<metadata>Made with Pixels to Svg https://codepen.io/shshaw/pen/XbxvNj</metadata>
<path stroke="#020202" d="M13 0h1M9 2h1M18 3h1M17 4h1M29 9h1M24 10h1M29 10h1M21 11h1M20 12h1M16 14h1M9 16h1M21 16h1M10 22h1M16 23h1" />
<path stroke="#030303" d="M14 0h1M10 1h1M17 1h1M12 6h1M1 9h1M10 12h1M29 12h1M1 13h1M15 13h1M22 13h1M21 15h1M1 16h1M21 17h1M23 23h1M5 25h1M16 25h1M27 25h2M11 28h1M21 28h1" />
<path stroke="#000000" d="M15 0h2M11 1h2M8 2h1M19 2h1M7 3h1M21 3h1M5 4h1M16 4h1M21 5h3M27 5h1M1 6h1M1 7h2M10 7h2M18 7h1M1 8h1M8 8h1M29 8h1M6 9h1M8 9h1M15 9h1M1 10h1M13 10h1M1 11h1M11 11h1M29 11h1M11 12h1M19 12h1M5 13h1M8 13h1M10 13h1M14 13h1M23 13h1M10 14h1M21 14h1M24 14h1M1 15h1M9 15h1M16 16h1M6 17h1M12 17h1M23 17h1M6 18h1M11 18h1M1 19h1M11 19h1M13 19h1M16 19h1M11 20h1M16 20h1M24 20h1M4 22h1M13 22h1M29 23h1M2 24h1M4 24h1M6 24h1M10 24h1M13 24h1M4 25h1M7 26h1M10 26h1M9 27h2M13 27h1M16 28h1M22 28h1M19 29h2M14 30h1" />
<path stroke="#f1f1f1" d="M13 1h1M11 2h1M12 4h1M4 5h1M7 6h1M16 10h1" />
<path stroke="#eeeeee" d="M14 1h1M10 2h1M8 5h1M21 7h1" />
<path stroke="#f2f2f2" d="M15 1h1M12 2h1" />
<path stroke="#f3f3f3" d="M16 1h1M13 3h1M7 4h1M9 6h1M4 7h1M24 7h1M19 8h1M17 10h1" />
<path stroke="#010101" d="M18 1h1M4 4h1M21 4h1M13 6h1M3 7h1M8 10h1M12 10h1M8 12h1M12 12h1M18 13h1M29 13h1M6 14h1M4 17h1M4 18h1M21 24h1M13 26h1M26 26h1M13 29h1" />
<path stroke="#f0f0f0" d="M13 2h1M16 2h1M14 3h1M6 4h1M9 4h1M13 4h1M18 8h1M21 8h1" />
<path stroke="#f7f7f7" d="M14 2h2M9 3h1M8 4h1" />
<path stroke="#f4f4f4" d="M17 2h1M11 3h1M25 5h1M24 6h1M16 9h2" />
<path stroke="#c2c2c2" d="M18 2h1M11 6h1M7 8h1M19 10h1M6 11h1M11 14h1M8 15h1M2 16h1M14 18h1" />
<path stroke="#040404" d="M20 2h1M25 4h1M21 6h1M19 7h1M4 8h1M22 11h1M13 12h1M4 15h1M6 15h1M24 15h1M4 16h1M6 16h1M16 21h1M1 22h1M16 24h1M15 30h1" />
<path stroke="#050505" d="M6 3h1M24 4h1M3 5h1M15 5h1M28 6h1M29 7h1M16 8h1M28 8h1M7 9h1M25 9h1M1 18h1M4 19h1M4 20h1M1 21h1M4 21h1M11 21h1M21 21h1M29 21h1M1 23h1M10 23h1M13 23h1M7 25h1M10 25h1M13 25h1M8 27h1M18 30h1" />
<path stroke="#ececec" d="M8 3h1M7 5h1M25 6h1M20 7h1M22 7h1M12 11h1" />
<path stroke="#f9f9f9" d="M10 3h1M5 6h1" />
<path stroke="#f6f6f6" d="M12 3h1M9 5h1M14 10h1" />
<path stroke="#eaeaea" d="M15 3h1M6 6h1M6 7h1M18 10h1M15 11h1" />
<path stroke="#bababa" d="M16 3h1M25 7h1M14 19h1M9 20h1" />
<path stroke="#b9b9b9" d="M17 3h1M28 10h1M12 13h1M9 21h1M14 21h1" />
<path stroke="#8f8f8f" d="M19 3h1M19 5h1M15 7h1M3 19h1M10 19h1M18 22h1" />
<path stroke="#909090" d="M20 3h1M20 4h1M14 7h1M27 7h1M18 12h1M26 16h1M14 24h1" />
<path stroke="#efefef" d="M10 4h1M7 7h1" />
<path stroke="#ededed" d="M11 4h1M6 5h1M23 7h1M20 9h1M15 10h1" />
<path stroke="#b8b8b8" d="M14 4h1M26 7h1M26 13h1M25 17h1M2 22h1" />
<path stroke="#c6c6c6" d="M15 4h1M8 7h1M5 10h1M14 15h1" />
<path stroke="#8d8d8d" d="M18 4h2M20 14h1M18 25h1M17 26h1" />
<path stroke="#060606" d="M2 5h1M20 6h1M5 8h1M27 8h1M8 11h1M4 14h1M29 14h1M10 15h1M16 15h1M28 15h1M27 16h1M27 17h2M29 18h1M29 19h1M7 20h1M7 21h1M13 21h1M3 24h1M7 24h1M16 26h1" />
<path stroke="#e7e7e7" d="M5 5h1M8 6h1" />
<path stroke="#e9e9e9" d="M10 5h1M24 5h1M23 6h1M5 7h1M13 11h1" />
<path stroke="#f5f5f5" d="M11 5h1M22 6h1M26 6h1" />
<path stroke="#bdbdbd" d="M12 5h1M11 16h1M2 20h1M14 20h1M8 23h1" />
<path stroke="#c5c5c5" d="M13 5h1M21 9h1M2 10h1M12 14h1M8 17h1" />
<path stroke="#080808" d="M14 5h1M9 8h1M17 8h1M22 17h1M6 19h1M7 22h1M24 27h1" />
<path stroke="#939393" d="M16 5h1M18 5h1M17 12h1M9 25h1" />
<path stroke="#989898" d="M17 5h1M12 7h1M13 8h1M20 11h1M17 24h1" />
<path stroke="#737373" d="M20 5h1M15 22h1M26 23h1M15 29h1" />
<path stroke="#070707" d="M26 5h1M1 14h1M8 14h1M13 18h1M16 18h1M24 21h1M21 22h1M21 23h1M29 24h1M12 27h1M16 27h1" />
<path stroke="#e8e8e8" d="M2 6h1M4 6h1M14 11h1" />
<path stroke="#f8f8f8" d="M3 6h1" />
<path stroke="#c3c3c3" d="M10 6h1M9 7h1M24 8h1M3 10h1M3 12h1M7 16h1" />
<path stroke="#919191" d="M14 6h1M13 7h1M10 9h1M3 18h1M18 20h1M18 24h1M22 25h1" />
<path stroke="#898989" d="M15 6h1M11 9h1M20 15h1M27 20h1M9 26h1" />
<path stroke="#8e8e8e" d="M16 6h2M3 22h1M18 27h1" />
<path stroke="#6b6b6b" d="M18 6h1" />
<path stroke="#777777" d="M19 6h1M10 11h1M15 17h1M20 21h1M27 23h1M21 27h1M18 29h1" />
<path stroke="#bbbbbb" d="M27 6h1M6 8h1M15 12h1M14 16h1M7 19h1" />
<path stroke="#6f6f6f" d="M16 7h1M18 28h1" />
<path stroke="#757575" d="M17 7h1M9 12h1M15 24h1M25 24h1" />
<path stroke="#9e9e9e" d="M28 7h1M26 8h1M17 20h1M26 20h1M19 23h1M19 24h1" />
<path stroke="#d3d3d3" d="M2 8h1M7 13h1" />
<path stroke="#d2d2d2" d="M3 8h1M4 10h1" />
<path stroke="#929292" d="M10 8h2M9 10h1" />
<path stroke="#8b8b8b" d="M12 8h1M9 9h1M3 23h1M21 26h1" />
<path stroke="#7c7c7c" d="M14 8h1M20 28h1" />
<path stroke="#6c6c6c" d="M15 8h1" />
<path stroke="#e1e1e1" d="M20 8h1M16 11h1" />
<path stroke="#ebebeb" d="M22 8h1" />
<path stroke="#b5b5b5" d="M23 8h1M25 20h1" />
<path stroke="#9b9b9b" d="M25 8h1M16 13h1M17 22h1" />
<path stroke="#cccccc" d="M2 9h1M4 9h1M7 12h1M14 14h1M7 15h1" />
<path stroke="#d0d0d0" d="M3 9h1M3 11h1M13 13h1M12 15h1M13 16h1" />
<path stroke="#d8d8d8" d="M5 9h1" />
<path stroke="#686868" d="M12 9h1" />
<path stroke="#707070" d="M13 9h1M11 10h1M15 25h1M15 26h1M15 28h1M19 28h1" />
<path stroke="#0b0b0b" d="M14 9h1M13 20h1M23 27h1" />
<path stroke="#e4e4e4" d="M18 9h1" />
<path stroke="#e6e6e6" d="M19 9h1" />
<path stroke="#c8c8c8" d="M22 9h1" />
<path stroke="#9c9c9c" d="M23 9h1M12 16h1M25 19h1M3 20h1M19 20h1M24 23h1" />
<path stroke="#a5a5a5" d="M24 9h1M3 17h1M20 18h1" />
<path stroke="#0d0d0d" d="M26 9h1" />
<path stroke="#a2a2a2" d="M27 9h1M21 18h1M23 24h1" />
<path stroke="#b6b6b6" d="M28 9h1M16 12h1M25 12h1M2 18h1M8 18h1M8 20h1M14 22h1" />
<path stroke="#c4c4c4" d="M6 10h1M2 11h1M8 16h1" />
<path stroke="#cbcbcb" d="M7 10h1M4 12h1" />
<path stroke="#858585" d="M10 10h1M9 11h1M23 18h1M15 20h1M22 26h1" />
<path stroke="#bebebe" d="M20 10h1M6 13h1M26 14h1M10 16h1M14 17h1" />
<path stroke="#949494" d="M21 10h1M10 18h1M18 19h1M9 22h1M19 25h1" />
<path stroke="#9d9d9d" d="M22 10h1M26 15h1M18 18h1M27 18h1M24 24h1" />
<path stroke="#090909" d="M23 10h1M1 12h1M21 20h1M29 20h1M16 22h1M24 22h1M16 30h2" />
<path stroke="#acacac" d="M25 10h1M25 13h1M17 14h1M26 18h1" />
<path stroke="#b2b2b2" d="M26 10h1M23 11h1M27 11h1M19 22h1" />
<path stroke="#a4a4a4" d="M27 10h1M27 12h1M18 17h1" />
<path stroke="#cdcdcd" d="M4 11h1M3 13h1M13 15h1M2 17h1" />
<path stroke="#d6d6d6" d="M5 11h1" />
<path stroke="#cacaca" d="M7 11h1M6 12h1M13 14h1M8 19h1" />
<path stroke="#b4b4b4" d="M17 11h1M25 11h1M26 17h1M8 22h1" />
<path stroke="#afafaf" d="M18 11h1M9 19h1M19 19h1" />
<path stroke="#a3a3a3" d="M19 11h1M18 15h1M17 16h1M24 18h1M25 21h1M20 25h1" />
<path stroke="#adadad" d="M24 11h1M19 15h1" />
<path stroke="#b3b3b3" d="M26 11h1M28 12h1M24 13h1M8 26h1" />
<path stroke="#b7b7b7" d="M28 11h1" />
<path stroke="#cfcfcf" d="M2 12h1" />
<path stroke="#a6a6a6" d="M5 12h1M27 13h1M18 14h1M19 26h1" />
<path stroke="#bfbfbf" d="M14 12h1M7 17h1" />
<path stroke="#a7a7a7" d="M21 12h1M20 13h1M19 18h1M25 18h1" />
<path stroke="#979797" d="M22 12h1M22 18h1M3 21h1M23 25h1" />
<path stroke="#868686" d="M23 12h1M21 19h1" />
<path stroke="#ababab" d="M24 12h1M26 12h1M25 15h1M17 18h1M24 19h1M26 21h1" />
<path stroke="#d7d7d7" d="M2 13h1" />
<path stroke="#aaaaaa" d="M4 13h1M2 23h1M8 24h1" />
<path stroke="#5d5d5d" d="M9 13h1" />
<path stroke="#d5d5d5" d="M11 13h1" />
<path stroke="#0c0c0c" d="M17 13h1M24 16h1M1 17h1M1 20h1M7 23h1M10 28h1" />
<path stroke="#b0b0b0" d="M19 13h1M19 14h1M17 15h1M8 21h1" />
<path stroke="#878787" d="M21 13h1M28 18h1M24 25h1" />
<path stroke="#888888" d="M28 13h1M20 20h1M9 23h1M14 25h1M14 26h1" />
<path stroke="#bcbcbc" d="M2 14h1M10 17h1" />
<path stroke="#a0a0a0" d="M3 14h1M17 21h1" />
<path stroke="#4e4e4e" d="M5 14h1" />
<path stroke="#c7c7c7" d="M7 14h1M2 15h1M9 18h1" />
<path stroke="#454545" d="M9 14h1M5 20h1M11 22h1" />
<path stroke="#7e7e7e" d="M15 14h1M27 19h1" />
<path stroke="#515151" d="M22 14h1" />
<path stroke="#464646" d="M23 14h1M28 24h1" />
<path stroke="#aeaeae" d="M25 14h1" />
<path stroke="#7a7a7a" d="M27 14h1" />
<path stroke="#5e5e5e" d="M28 14h1" />
<path stroke="#a1a1a1" d="M3 15h1M20 19h1M19 27h1" />
<path stroke="#585858" d="M5 15h1" />
<path stroke="#c0c0c0" d="M11 15h1M9 17h1" />
<path stroke="#7d7d7d" d="M15 15h1" />
<path stroke="#474747" d="M22 15h1" />
<path stroke="#303030" d="M23 15h1" />
<path stroke="#6d6d6d" d="M27 15h1M14 27h1M17 29h1" />
<path stroke="#999999" d="M3 16h1M10 20h1M14 23h1M17 23h1M21 25h1" />
<path stroke="#4a4a4a" d="M5 16h1M5 17h1" />
<path stroke="#7b7b7b" d="M15 16h1M15 18h1M26 24h1" />
<path stroke="#9f9f9f" d="M18 16h2M11 17h1M18 21h2M25 22h1" />
<path stroke="#7f7f7f" d="M20 16h1M20 23h1" />
<path stroke="#363636" d="M22 16h1M6 20h1" />
<path stroke="#222222" d="M23 16h1M23 22h1" />
<path stroke="#a8a8a8" d="M25 16h1M24 17h1M26 19h1" />
<path stroke="#cecece" d="M13 17h1" />
<path stroke="#101010" d="M16 17h1" />
<path stroke="#b1b1b1" d="M17 17h1M2 19h1" />
<path stroke="#a9a9a9" d="M19 17h1M8 25h1" />
<path stroke="#818181" d="M20 17h1M28 19h1M9 24h1" />
<path stroke="#505050" d="M5 18h1" />
<path stroke="#c9c9c9" d="M7 18h1" />
<path stroke="#3e3e3e" d="M12 18h1M12 20h1M22 20h1" />
<path stroke="#545454" d="M5 19h1M28 23h1" />
<path stroke="#424242" d="M12 19h1M5 24h1M11 24h1" />
<path stroke="#717171" d="M15 19h1" />
<path stroke="#959595" d="M17 19h1M17 25h1" />
<path stroke="#0a0a0a" d="M22 19h1M16 29h1" />
<path stroke="#0e0e0e" d="M23 19h1" />
<path stroke="#3b3b3b" d="M23 20h1" />
<path stroke="#696969" d="M28 20h1" />
<path stroke="#c1c1c1" d="M2 21h1" />
<path stroke="#444444" d="M5 21h1" />
<path stroke="#1c1c1c" d="M6 21h1" />
<path stroke="#8c8c8c" d="M10 21h1M20 26h1" />
<path stroke="#373737" d="M12 21h1M23 21h1" />
<path stroke="#727272" d="M15 21h1M20 27h1M14 28h1" />
<path stroke="#414141" d="M22 21h1" />
<path stroke="#797979" d="M27 21h1M20 22h1M27 22h1M20 24h1M23 26h1" />
<path stroke="#5b5b5b" d="M28 21h1" />
<path stroke="#4f4f4f" d="M5 22h1" />
<path stroke="#1e1e1e" d="M6 22h1" />
<path stroke="#2e2e2e" d="M12 22h1" />
<path stroke="#3c3c3c" d="M22 22h1M11 23h1" />
<path stroke="#8a8a8a" d="M26 22h1M17 28h1" />
<path stroke="#636363" d="M28 22h1" />
<path stroke="#111111" d="M29 22h1" />
<path stroke="#121212" d="M4 23h1M25 26h1" />
<path stroke="#4d4d4d" d="M5 23h1" />
<path stroke="#2c2c2c" d="M6 23h1" />
<path stroke="#353535" d="M12 23h1" />
<path stroke="#6e6e6e" d="M15 23h1" />
<path stroke="#9a9a9a" d="M18 23h1M25 23h1M17 27h1" />
<path stroke="#252525" d="M22 23h1" />
<path stroke="#2d2d2d" d="M12 24h1M12 26h1" />
<path stroke="#131313" d="M22 24h1" />
<path stroke="#5f5f5f" d="M27 24h1" />
<path stroke="#3f3f3f" d="M11 25h1" />
<path stroke="#1b1b1b" d="M12 25h1" />
<path stroke="#848484" d="M25 25h1" />
<path stroke="#646464" d="M26 25h1" />
<path stroke="#4c4c4c" d="M11 26h1" />
<path stroke="#969696" d="M18 26h1" />
<path stroke="#595959" d="M24 26h1" />
<path stroke="#434343" d="M11 27h1" />
<path stroke="#6a6a6a" d="M15 27h1M22 27h1" />
<path stroke="#0f0f0f" d="M13 28h1" />
<path stroke="#565656" d="M14 29h1" />
</svg>