<?xml version="1.0" encoding="UTF-8" standalone="no"?>
<svg
   width="128"
   height="128"
   viewBox="0 0 128 128"
   version="1.1"
   id="svg33"
   sodipodi:docname="icon.svg"
   inkscape:version="1.4 (e7c3feb100, 2024-10-09)"
   xmlns:inkscape="http://www.inkscape.org/namespaces/inkscape"
   xmlns:sodipodi="http://sodipodi.sourceforge.net/DTD/sodipodi-0.dtd"
   xmlns="http://www.w3.org/2000/svg"
   xmlns:svg="http://www.w3.org/2000/svg">
  <defs
     id="defs33" />
  <sodipodi:namedview
     id="namedview33"
     pagecolor="#ffffff"
     bordercolor="#000000"
     borderopacity="0.25"
     inkscape:showpageshadow="2"
     inkscape:pageopacity="0.0"
     inkscape:pagecheckerboard="0"
     inkscape:deskcolor="#d1d1d1"
     inkscape:zoom="5.0859375"
     inkscape:cx="64"
     inkscape:cy="55.348694"
     inkscape:window-width="1536"
     inkscape:window-height="902"
     inkscape:window-x="0"
     inkscape:window-y="0"
     inkscape:window-maximized="1"
     inkscape:current-layer="svg33" />
  <!-- Background -->
  <rect
     x="8"
     y="8"
     width="112"
     height="112"
     rx="16"
     ry="16"
     fill="#2e3436"
     id="rect1" />
  <!-- Timer face -->
  <rect
     x="16"
     y="16"
     width="96"
     height="96"
     rx="12"
     ry="12"
     fill="#f6f5f4"
     id="rect2" />
  <!-- Timer markings -->
  <g
     fill="none"
     stroke="#2e3436"
     stroke-width="1"
     id="g25">
    <!-- Minute marks -->
    <path
       d="M64,28 L64,32"
       transform="rotate(0 64 64)"
       id="path2" />
    <path
       d="M64,28 L64,32"
       transform="rotate(15 64 64)"
       id="path3" />
    <path
       d="M64,28 L64,32"
       transform="rotate(30 64 64)"
       id="path4" />
    <path
       d="M64,28 L64,32"
       transform="rotate(45 64 64)"
       id="path5" />
    <path
       d="M64,28 L64,32"
       transform="rotate(60 64 64)"
       id="path6" />
    <path
       d="M64,28 L64,32"
       transform="rotate(75 64 64)"
       id="path7" />
    <path
       d="M64,28 L64,32"
       transform="rotate(90 64 64)"
       id="path8" />
    <path
       d="M64,28 L64,32"
       transform="rotate(105 64 64)"
       id="path9" />
    <path
       d="M64,28 L64,32"
       transform="rotate(120 64 64)"
       id="path10" />
    <path
       d="M64,28 L64,32"
       transform="rotate(135 64 64)"
       id="path11" />
    <path
       d="M64,28 L64,32"
       transform="rotate(150 64 64)"
       id="path12" />
    <path
       d="M64,28 L64,32"
       transform="rotate(165 64 64)"
       id="path13" />
    <path
       d="M64,28 L64,32"
       transform="rotate(180 64 64)"
       id="path14" />
    <path
       d="M64,28 L64,32"
       transform="rotate(195 64 64)"
       id="path15" />
    <path
       d="M64,28 L64,32"
       transform="rotate(210 64 64)"
       id="path16" />
    <path
       d="M64,28 L64,32"
       transform="rotate(225 64 64)"
       id="path17" />
    <path
       d="M64,28 L64,32"
       transform="rotate(240 64 64)"
       id="path18" />
    <path
       d="M64,28 L64,32"
       transform="rotate(255 64 64)"
       id="path19" />
    <path
       d="M64,28 L64,32"
       transform="rotate(270 64 64)"
       id="path20" />
    <path
       d="M64,28 L64,32"
       transform="rotate(285 64 64)"
       id="path21" />
    <path
       d="M64,28 L64,32"
       transform="rotate(300 64 64)"
       id="path22" />
    <path
       d="M64,28 L64,32"
       transform="rotate(315 64 64)"
       id="path23" />
    <path
       d="M64,28 L64,32"
       transform="rotate(330 64 64)"
       id="path24" />
    <path
       d="M64,28 L64,32"
       transform="rotate(345 64 64)"
       id="path25" />
  </g>
  <!-- Time numbers -->
  <g
     font-family="Sans-serif"
     font-size="10px"
     font-weight="bold"
     text-anchor="middle"
     fill="#2e3436"
     id="g32"
     style="display:none">
    <text
       x="64"
       y="26"
       id="text25">0</text>
    <text
       x="89"
       y="36"
       id="text26">15</text>
    <text
       x="102"
       y="64"
       id="text27">30</text>
    <text
       x="89"
       y="94"
       id="text28">45</text>
    <text
       x="64"
       y="104"
       id="text29">60</text>
    <text
       x="39"
       y="94"
       id="text30">75</text>
    <text
       x="26"
       y="64"
       id="text31">90</text>
    <text
       x="39"
       y="36"
       id="text32">105</text>
  </g>
  <!-- Red progress segment -->
  <path
     d="M64,64 L64,36 A28,28 0 0,1 92,64 z"
     fill="#ed333b"
     id="path32" />
  <!-- Center knob -->
  <circle
     cx="64"
     cy="64"
     r="8"
     fill="#ffffff"
     stroke="#2e3436"
     stroke-width="2"
     id="circle32" />
  <!-- Timer label -->
  <text
     x="63.213516"
     y="110.49462"
     font-family="Sans-serif"
     font-size="8px"
     font-weight="bold"
     text-anchor="middle"
     fill="#2e3436"
     id="text33"
     style="display:none">POMO TIMER</text>
</svg>
