<?xml version="1.0" standalone="no"?>
<!DOCTYPE svg PUBLIC "-//W3C//DTD SVG 20010904//EN" "http://www.w3.org/TR/2001/REC-SVG-20010904/DTD/svg10.dtd">
<!-- Created using Krita: https://krita.org -->
<svg xmlns="http://www.w3.org/2000/svg" 
    xmlns:xlink="http://www.w3.org/1999/xlink"
    xmlns:krita="http://krita.org/namespaces/svg/krita"
    xmlns:sodipodi="http://sodipodi.sourceforge.net/DTD/sodipodi-0.dtd"
    width="491.04pt"
    height="491.04pt"
    viewBox="0 0 491.04 491.04">
<defs/>
<path id="shape0" transform="translate(155.879993637866, 7.43999991807084)" fill="#ff9a48" fill-rule="evenodd" stroke="none" stroke-width="3.8064" stroke-linecap="square" stroke-linejoin="bevel" d="M40.44 0C26.36 35.36 19.92 52.36 21.12 51L4.32 68.64L0 105.36L6.72 119.4L40.44 151.32L48 152.4L64.92 153.6L114.36 152.76L122.76 146.88L144.96 120.48L149.76 105.84L149.76 88.32L112.92 8.76L110.76 3.6L70.68 48.84C70.68 48.84 60.6 32.56 40.44 0Z" sodipodi:nodetypes="ccccccccccccccccc"/><path id="shape01" transform="translate(37.4399973964885, 135.719990562271)" fill="#804000" fill-rule="evenodd" stroke-opacity="0" stroke="#000000" stroke-width="0" stroke-linecap="square" stroke-linejoin="bevel" d="M129.84 0.36L0 52.08L87.84 114.72L89.4 97.44L97.44 76.92L108.36 62.52L146.76 34.8L158.4 26.64L131.16 0Z" sodipodi:nodetypes="cccccccccc"/><path id="shape1" transform="translate(277.859988958977, 131.579990850157)" fill="#804000" fill-rule="evenodd" stroke-opacity="0" stroke="#000000" stroke-width="0" stroke-linecap="square" stroke-linejoin="bevel" d="M23.82 0L156.84 66.42L124.23 86.52L116.52 79.95L106.44 75.54L95.04 75.42L90.57 76.89L85.65 78.93L73.38 87.48L60.75 96.99L52.5 97.5L50.52 88.38L38.88 70.32L4.2 34.32L0 27.96Z" sodipodi:nodetypes="cccccccccccccccc"/><path id="shape3" transform="translate(129.479994854981, 161.81999839185)" fill="#ff9a48" fill-rule="evenodd" stroke-opacity="0" stroke="#000000" stroke-width="0" stroke-linecap="square" stroke-linejoin="bevel" d="M69.96 0.36L66.84 3.72L63.84 6.17999L53.82 13.62L32.52 28.5L25.2 34.26L15.36 43.92L9.12 52.44L3.72 64.68L0 78.84L0 90.24L95.88 158.64L208.32 93L208.331 92.5162L204.986 91.3012L202.001 88.575L200.651 86.4412L199.121 82.8675L197.715 75.3525L197.411 67.6237L196.32 61.3125L191.28 51.075L187.68 45.585L179.265 35.595L163.11 19.17L152.13 8.46L146.01 0C146.01 0 120.66 0.12 69.96 0.36Z" sodipodi:nodetypes="cccccccccccccccccccccccccccc"/><path id="shape4" transform="translate(223.919991102246, 276.239980790674)" fill="#e0b27a" fill-rule="evenodd" stroke="#000000" stroke-width="4.8" stroke-linecap="square" stroke-linejoin="bevel" d="M2.42308 46.4928L11.0769 125.062L0 211.2L211.154 52.6198L216 0" sodipodi:nodetypes="ccccc"/><path id="shape2" transform="translate(228.163400439002, 289.619988539766)" fill="#3b3b3b" fill-rule="evenodd" stroke="none" stroke-width="3.8064" stroke-linecap="square" stroke-linejoin="bevel" d="M12.4966 0C1.13186 0 -2.67772 21.9057 1.87659 26.46C7.0266 31.61 47.9731 0.54 10.1566 0.54" sodipodi:nodetypes="ccc"/><path id="shape5" transform="translate(143.504994869577, 249.126139279796)" fill="#ffffff" fill-rule="evenodd" stroke="none" stroke-width="3.8064" stroke-linecap="square" stroke-linejoin="bevel" d="M0 13.0439C0 -16.4575 37.25 10.7239 27.9 29.4239C25.3181 34.5876 0.36 17.5035 0.36 12.0539" sodipodi:nodetypes="ccc"/><path id="shape51" transform="translate(6.11999993920466, 187.919998133225)" fill="#e0b27a" fill-rule="evenodd" stroke="#000000" stroke-width="4.8" stroke-linecap="square" stroke-linejoin="bevel" d="M28.3434 0L0 39.1483L188.956 198L219.48 134.76Z" sodipodi:nodetypes="ccccc"/><path id="shape6" transform="translate(226.919985884612, 197.279992160837)" fill="#e0b27a" fill-rule="evenodd" stroke="#000000" stroke-width="4.8" stroke-linecap="square" stroke-linejoin="bevel" d="M172.297 24.4116L213.217 0L246.6 56.2205L37.331 202.32L0 125.017" sodipodi:nodetypes="ccccc"/><path id="shape7" transform="translate(153.239989927425, 164.812670776864)" fill="#3b3b3b" fill-rule="evenodd" stroke="none" stroke-width="3.8064" stroke-linecap="square" stroke-linejoin="bevel" d="M0 29.8273C44.4313 74.2586 82.7491 0.0673184 46.56 0.0673184C44.993 0.0673184 43.233 -0.325654 42.12 0.787318" sodipodi:nodetypes="ccc"/><path id="shape71" transform="translate(222.719992612913, 218.69998479192)" fill="#e0b27a" fill-rule="evenodd" stroke="#000000" stroke-width="4.8" stroke-linecap="square" stroke-linejoin="bevel" d="M0 105.78L181.92 0Z" sodipodi:nodetypes="ccc"/><path id="shape8" transform="translate(6.23999993801257, 253.739997479347)" fill="#e0b27a" fill-rule="evenodd" stroke="#000000" stroke-width="4.8" stroke-linecap="square" stroke-linejoin="bevel" d="M220.2 232.44L0 65.943L24.9635 34.2466L30.5523 0" sodipodi:nodetypes="cccc"/><path id="shape9" transform="translate(330.719978261525, 210.119986188654)" fill="#ff9a48" fill-rule="evenodd" stroke="none" stroke-width="3.8064" stroke-linecap="square" stroke-linejoin="bevel" d="M1.08 22.56L11.28 19.92L38.52 1.32L44.16 0L55.2 0.6L67.32 7.92L75.36 16.44L80.64 25.44L88.92 45.12L90.84 67.56L85.92 75.48L79.32 81L70.56 81.24L65.88 75.84L57.12 43.56L50.52 27.48L39.96 25.68L32.76 33L19.68 40.32L9.96 41.76L3.24 38.52L0 25.68C0 25.68 0.36 24.64 1.08 22.56Z" sodipodi:nodetypes="ccccccccccccccccccccccc"/><path id="shape91" transform="translate(40.6799983835313, 259.199989700376)" fill="#e0b27a" fill-rule="evenodd" stroke-opacity="0" stroke="#000000" stroke-width="0" stroke-linecap="square" stroke-linejoin="bevel" d="M182.88 224.52L0 0L156.135 130.331Z" sodipodi:nodetypes="cccc"/><path id="shape10" transform="translate(191.699986669453, 329.099996730738)" fill="#e0b27a" fill-rule="evenodd" stroke-opacity="0" stroke="#000000" stroke-width="0" stroke-linecap="square" stroke-linejoin="bevel" d="M33.2559 0L42.3 72.3457L31.0891 152.76L3.76838 61.376L0 58.5655L4.61626 57.387Z" sodipodi:nodetypes="ccccccc"/><path id="shape11" transform="translate(207.359985580506, 108.359992464813)" fill="none" stroke="#000000" stroke-width="4.8" stroke-linecap="square" stroke-linejoin="bevel" d="M22.32 0C22.32 30.291 0 52.0902 0 17.4" sodipodi:nodetypes="cc"/><path id="shape011" transform="matrix(-1 0 0 1 252.038689557048 108.240977517014)" fill="none" stroke="#000000" stroke-width="4.8" stroke-linecap="square" stroke-linejoin="bevel" d="M22.32 0C22.32 30.291 0 52.0902 0 17.4" sodipodi:nodetypes="cc"/><path id="shape12" transform="translate(179.424473401136, 69.4569842042211)" fill="#000000" fill-rule="evenodd" stroke="#000000" stroke-width="4.8" stroke-linecap="square" stroke-linejoin="bevel" d="M34.6855 6.32301C34.6855 -5.48608 -13.5168 -1.89429 3.72552 26.843C11.8766 40.4281 54.2923 25.5698 33.0655 4.34301" sodipodi:nodetypes="ccc"/><path id="shape13" transform="translate(245.792658278373, 65.3399954563598)" fill="#000000" fill-rule="evenodd" stroke="#000000" stroke-width="4.8" stroke-linecap="square" stroke-linejoin="bevel" d="M14.5773 0C-3.5707 0 -6.00991 36.5569 14.3073 38.25C42.8005 40.6244 42.9117 0.45 15.9273 0.45" sodipodi:nodetypes="ccc"/><ellipse id="shape14" transform="translate(193.44, 75.84)" rx="4.44" ry="3.72000000000001" cx="4.44" cy="3.72000000000001" fill="#ffffff" fill-rule="evenodd" stroke="#ffffff" stroke-width="4.8" stroke-linecap="square" stroke-linejoin="bevel"/><ellipse id="shape15" transform="translate(189.84, 82.56)" rx="4.32000000000001" ry="4.08000000000001" cx="4.32000000000001" cy="4.08000000000001" fill="#ffffff" fill-rule="evenodd" stroke="#ffffff" stroke-width="4.8" stroke-linecap="square" stroke-linejoin="bevel"/><ellipse id="shape16" transform="translate(259.68, 72.24)" rx="4.79999999999998" ry="5.04" cx="4.79999999999998" cy="5.04" fill="#ffffff" fill-rule="evenodd" stroke="#ffffff" stroke-width="4.8" stroke-linecap="square" stroke-linejoin="bevel"/><path id="shape17" transform="translate(293.495309979385, 187.19998769521)" fill="#3b3b3b" fill-rule="evenodd" stroke="none" stroke-width="3.8064" stroke-linecap="square" stroke-linejoin="bevel" d="M6.28647 0.24C6.28647 12.4977 -2.63197 21.887 0.776306 35.04C4.88251 50.8864 7.74148 60.8651 15.0669 75C19.6722 83.8863 23.2295 79.5023 34.4702 75C37.5696 72.0097 44.0787 71.2625 47.2945 68.16C49.4816 66.05 39.4328 60.1676 38.0904 59.52C36.6353 58.8181 38.3652 57.0381 37.6303 55.62C30.547 41.9522 37.159 28.8221 22.6147 14.79C19.1609 11.4579 8.08952 0 4.01019 0" sodipodi:nodetypes="ccccccccc"/><ellipse id="shape171" transform="translate(269.04, 78.48)" rx="4.68000000000001" ry="4.68" cx="4.68000000000001" cy="4.68" fill="#ffffff" fill-rule="evenodd" stroke="#ffffff" stroke-width="4.8" stroke-linecap="square" stroke-linejoin="bevel"/><path id="shape19" transform="translate(277.079988970256, 159.659993621762)" fill="none" stroke="#000000" stroke-width="4.8" stroke-linecap="square" stroke-linejoin="bevel" d="M51.96 72.42C51.96 43.029 0 10.3929 0 0" sodipodi:nodetypes="cc"/><path id="shape20" transform="translate(127.311222857538, 161.219988807115)" fill="none" stroke="#000000" stroke-width="4.8" stroke-linecap="square" stroke-linejoin="bevel" d="M0.128768 90.66C-0.605979 80.1681 1.93513 70.4316 4.41104 63.4067C16.0491 30.3862 49.569 21.0598 70.6288 0" sodipodi:nodetypes="ccc"/><path id="shape21" transform="translate(196.044851589177, 159.539988733823)" fill="none" stroke="#000000" stroke-width="4.8" stroke-linecap="square" stroke-linejoin="bevel" d="M0.380206 0.763277C-1.72563 -0.331563 5.48968 1.81468 7.97505 2.18742C13.3546 2.99421 18.7438 2.95893 24.2056 3.18311C27.9922 3.33854 76.5431 3.07404 80.1951 0" sodipodi:nodetypes="cccc"/><path id="shape22" transform="translate(198.479986198018, 160.319988851603)" fill="none" stroke="#000000" stroke-width="4.8" stroke-linecap="square" stroke-linejoin="bevel" d="M0 0" sodipodi:nodetypes="c"/><rect id="shape23" transform="translate(226.8, 104.88)" fill="#000000" fill-rule="evenodd" stroke="#000000" stroke-width="4.8" stroke-linecap="square" stroke-linejoin="bevel" width="5.52000000000001" height="4.08"/><path id="shape24" transform="translate(108.719998920008, 84.9599991560325)" fill="none" stroke="#000000" stroke-width="4.8" stroke-linecap="square" stroke-linejoin="bevel" d="M46.08 13.2C32.5091 13.2 15.5104 0 0 0" sodipodi:nodetypes="cc"/><path id="shape25" transform="translate(96.959999036828, 114.47999886279)" fill="none" stroke="#000000" stroke-width="4.8" stroke-linecap="square" stroke-linejoin="bevel" d="M55.44 0C45.7437 0 6.3965 8.7235 0 15.12" sodipodi:nodetypes="cc"/><path id="shape26" transform="translate(307.439996945982, 89.7599991083507)" fill="none" stroke="#000000" stroke-width="4.8" stroke-linecap="square" stroke-linejoin="bevel" d="M0 12.96C19.1508 12.96 39.8583 0 57.84 0" sodipodi:nodetypes="cc"/><path id="shape27" transform="translate(306.239996957902, 115.199998855637)" fill="none" stroke="#000000" stroke-width="4.8" stroke-linecap="square" stroke-linejoin="bevel" d="M0 0C19.1215 0 38.2828 6.78698 57.12 8.88C57.839 8.95989 62.7225 9.15777 63.99 8.67" sodipodi:nodetypes="ccc"/><path id="shape28" transform="translate(33.2399977672254, 134.429990659121)" fill="#804000" fill-rule="evenodd" stroke="#000000" stroke-width="4.8" stroke-linecap="square" stroke-linejoin="bevel" d="M0 54.3L134.64 0Z" sodipodi:nodetypes="ccc"/><path id="shape29" transform="translate(302.219996997861, 129.779998710815)" fill="none" stroke="#000000" stroke-width="4.8" stroke-linecap="square" stroke-linejoin="miter" stroke-miterlimit="2" d="M137.88 68.94L0 0" sodipodi:nodetypes="cc"/><path id="shape30" transform="translate(186.811660183405, 27.0534009268085)" fill="#ffbeff" fill-rule="evenodd" stroke="#ffbeff" stroke-width="4.8" stroke-linecap="square" stroke-linejoin="bevel" d="M3.76333 27.9816C1.15333 28.0261 -0.522777 25.6488 0.148333 24.3066C3.77504 17.0532 11.7387 -7.66985 13.8883 2.3616C17.3606 18.5657 16.4714 27.6713 2.09636 28.2476C1.3262 28.2785 -0.292678 28.3299 0.0733324 26.5116" sodipodi:nodetypes="ccccc"/><path id="shape31" transform="translate(242.924721407037, 23.3429548304156)" fill="#ffbeff" fill-rule="evenodd" stroke="#ffbeff" stroke-width="4.8" stroke-linecap="square" stroke-linejoin="bevel" d="M0.390262 30.747C-2.89474 30.6953 15.5453 11.777 18.7953 5.27704C19.6413 3.58487 20.0675 -1.10073 21.4053 0.237044C23.9422 2.774 24.612 12.6631 25.0953 16.167C28.5254 41.0359 21.2171 31.8756 3.05083 31.0713C2.25957 31.0363 0.277722 31.557 0.390262 30.792" sodipodi:nodetypes="cccccc"/><path id="shape32" transform="matrix(0.97385190751753 0.227183763118032 -0.227183763118032 0.97385190751753 229.414414443221 52.4703188084428)" fill="none" stroke="#ffffff" stroke-width="4.8" stroke-linecap="square" stroke-linejoin="bevel" d="M0.369633 11.2952C-0.667884 15.9755 0.760211 14.911 1.22195 15.3428C3.99763 17.9383 11.9867 -8.84498 3.44521 3.07122C2.62191 4.21982 0.969344 7.36197 0.996139 10.5204" sodipodi:nodetypes="cccc"/><path id="shape18" transform="matrix(0.999980123935173 0.00630489766743733 -0.00630489766743733 0.999980123935173 156.179999262923 112.859999467368)" fill="#3b3b3b" fill-rule="evenodd" stroke="none" stroke-width="3.8064" stroke-linecap="square" stroke-linejoin="bevel" d="M0.20957 0.605831C14.2076 0.605831 55.6278 5.12248 31.6796 27.9894C19.226 39.8808 -4.41176 0 0.717152 0" sodipodi:nodetypes="ccc"/><path id="shape33" transform="translate(284.399831949478, 74.3999952142913)" fill="#ffffff" fill-rule="evenodd" stroke="none" stroke-width="3.8064" stroke-linecap="square" stroke-linejoin="bevel" d="M6.24015 0C-9.65035 0 8.88774 59.5124 16.8001 51.6C22.1928 46.2074 26.119 0.105 4.08765 0.105" sodipodi:nodetypes="ccc"/><path id="shape34" transform="translate(393.569974157173, 218.178831036652)" fill="#3b3b3b" fill-rule="evenodd" stroke="none" stroke-width="3.8064" stroke-linecap="square" stroke-linejoin="bevel" d="M3.02727 0.152957C1.14072 -0.882043 0 3.56864 0 6.48788C0 13.4271 16.6657 40.3113 24.8874 31.7195C26.9196 29.5957 6.47477 -1.00885 2.82968 0.0936547" sodipodi:nodetypes="cccc"/><path id="shape35" transform="translate(343.079998380872, 231.069058062036)" fill="#ffffff" fill-rule="evenodd" stroke="none" stroke-width="3.8064" stroke-linecap="square" stroke-linejoin="bevel" d="M0 18.1709C0 -4.89924 30.903 -2.955 25.8 7.25094C23.8315 11.188 0.285 26.3956 0.285 17.1659" sodipodi:nodetypes="ccc"/><path id="shape210" transform="matrix(0.999989195465136 -0.00464854310417782 0.00464854310417782 0.999989195465136 154.931666753551 7.25063282941371)" fill="none" stroke="#000000" stroke-width="4.8" stroke-linecap="square" stroke-linejoin="bevel" d="M39.6228 152.88C34.3624 149.346 4.42941 120.264 0.95637 110.606C-2.11407 102.068 3.0752 67.7534 4.39812 66.7923C11.1012 61.9226 21.5376 50.0599 22.3106 47.9513C27.1165 34.8411 40.3634 -2.22419 41.7573 0.104981C49.1385 12.4394 68.1431 51.7188 71.5963 48.2864C84.6901 35.2713 111.809 2.93844 112.612 4.60533C120.319 20.5906 150.222 81.8322 150.785 87.717C151.277 92.8466 151.563 97.8238 151.347 100.209C150.697 107.372 149.67 116.094 147.479 119.224C142.765 125.957 137.336 133.693 134.721 136.683C127.35 145.109 119.309 153.693 115.619 154.141" sodipodi:nodetypes="cccccccccccc"/><path id="shape181" transform="translate(329.039986875169, 208.31744058048)" fill="none" stroke="#000000" stroke-width="4.8" stroke-linecap="square" stroke-linejoin="bevel" d="M3.36 22.4425C18.4402 22.4425 31.0904 -1.92841 51.6 0.122552C85.8393 3.54649 110.693 77.872 77.64 84.4825C55.5401 88.9025 64.0028 32.4733 45.96 27.9625C42.7166 27.1517 0 68.34 0 23.7625" sodipodi:nodetypes="ccccc"/><path id="shape36" transform="translate(193.633595220601, 254.417724574059)" fill="#3b3b3b" fill-rule="evenodd" stroke="none" stroke-width="3.8064" stroke-linecap="square" stroke-linejoin="bevel" d="M13.4264 41.7723C13.6942 42.2787 11.4285 43.0238 9.98524 42.4383C-4.03936 36.749 -2.71781 7.39436 10.3664 0.852259C25.6604 -6.79473 13.6364 39.4511 13.6364 42.5523" sodipodi:nodetypes="cccc"/><path id="shape37" transform="translate(248.335615215848, 243.029984020427)" fill="#ffffff" fill-rule="evenodd" stroke="none" stroke-width="3.8064" stroke-linecap="square" stroke-linejoin="bevel" d="M5.34437 0C5.34437 2.91095 18.7509 14.2967 8.94437 19.2C-7.83719 27.5908 4.14437 6.23851 4.14437 0.96" sodipodi:nodetypes="ccc"/><path id="shape38" transform="translate(237.250354610486, 189.779987525625)" fill="#ffffff" fill-rule="evenodd" stroke="none" stroke-width="3.8064" stroke-linecap="square" stroke-linejoin="bevel" d="M13.7896 0.6C13.7896 -0.720079 6.74962 2.76 5.86963 3.42C-8.37264 14.1017 6.61039 26.2338 15.9496 32.46C19.3425 34.7219 23.7805 39.1297 28.6696 37.5C54.8855 28.7614 22.9197 8.9501 13.9696 0" sodipodi:nodetypes="ccccc"/><path id="shape39" transform="translate(39.1054202665827, 294.113641443716)" fill="#0000ff" fill-rule="evenodd" stroke="#0000ff" stroke-width="0.84" stroke-linecap="square" stroke-linejoin="bevel" d="M0.284577 25.3488C1.52799 23.3861 2.60053 20.4871 3.5022 16.652C9.30631 6.74491 14.1388 1.31635 17.9996 0.366338C21.2096 -0.653662 23.4446 0.456338 24.7046 3.69634C26.5946 8.55634 26.4146 14.0463 29.4746 14.9463C32.5346 15.8463 33.4346 15.2613 40.2296 13.4613C47.0246 11.6613 49.0001 14.8258 49.6417 16.8181C50.3476 19.0099 48.9789 23.8348 48.5546 25.2963C47.7446 28.0863 45.8546 36.8163 44.0546 39.5163C42.2546 42.2163 37.4846 48.5163 34.2446 49.2363C31.0046 49.9563 27.5846 49.6863 26.8646 47.4363C26.1446 45.1863 27.4046 41.2263 28.4846 39.5163C29.5646 37.8063 31.7246 34.8363 30.7346 33.2163C29.7446 31.5963 23.2646 34.3863 21.2846 31.7763C19.3046 29.1663 18.8246 22.7163 16.2146 23.3463C13.6046 23.9763 11.5946 28.1614 10.7546 28.7614C9.91458 29.3614 9.79458 32.6164 7.75458 33.4864C4.09346 32.9399 -1.30131 30.8575 0.284577 25.3488Z" sodipodi:nodetypes="ccczzzczzzzzzzzzcc"/><path id="shape40" transform="translate(52.7183930001027, 307.306793438561)" fill="#e0b27a" fill-rule="evenodd" stroke="#e0b27a" stroke-width="0.84" stroke-linecap="square" stroke-linejoin="bevel" d="M0.0816065 1.2732C5.06161 -1.3068 8.72161 0.433204 7.88161 2.9532C7.04161 5.4732 8.84161 11.4132 4.34161 6.4932C-0.158394 1.5732 -0.158394 1.5732 0.0816065 1.2732Z" sodipodi:nodetypes="czcc"/><path id="shape41" transform="translate(74.2799992744671, 316.777089216088)" fill="#e0b27a" fill-rule="evenodd" stroke="#e0b27a" stroke-width="0.84" stroke-linecap="square" stroke-linejoin="bevel" d="M0 0.802908C5.46 -0.217092 5.88 -0.157092 6.24 0.382908C6.6 0.922908 7.26 6.74291 5.7 6.62291C4.14 6.50291 4.14 6.50291 0 0.802908Z" sodipodi:nodetypes="czcc"/>
</svg>
