<svg width="400" height="400" viewBox="0 0 400 400" fill="none" xmlns="http://www.w3.org/2000/svg">
<g filter="url(#filter0_i_1_54)">
<g clip-path="url(#clip0_1_54)">
<rect width="400" height="400" rx="100" fill="url(#paint0_radial_1_54)"/>
<rect width="400" height="400" rx="100" fill="url(#paint1_radial_1_54)" fill-opacity="0.45" style="mix-blend-mode:overlay"/>
<rect width="400" height="400" rx="100" fill="url(#paint2_radial_1_54)" fill-opacity="0.3" style="mix-blend-mode:overlay"/>
<g filter="url(#filter1_d_1_54)">
<path fill-rule="evenodd" clip-rule="evenodd" d="M384.985 0H83.6394C75.7583 0 69.2183 6.0883 68.6614 13.9435L52.6324 240.058L47.0511 309.768C46.0585 322.166 59.7257 330.318 70.1759 323.561L126.111 287.397C128.464 285.875 131.197 285.042 134 284.992L400 270.067V15.0036C400 6.71734 393.277 0 384.985 0ZM174.748 120.029H164.737C156.445 120.029 149.722 126.746 149.722 135.032V145.035C149.722 153.321 156.445 160.038 164.737 160.038H174.748C183.041 160.038 189.763 153.321 189.763 145.035V135.032C189.763 126.746 183.041 120.029 174.748 120.029ZM244.82 120.029H254.83C263.123 120.029 269.846 126.746 269.846 135.032V145.035C269.846 153.321 263.123 160.038 254.83 160.038H244.82C236.527 160.038 229.804 153.321 229.804 145.035V135.032C229.804 126.746 236.527 120.029 244.82 120.029ZM334.912 120.029H324.902C316.609 120.029 309.887 126.746 309.887 135.032V145.035C309.887 153.321 316.609 160.038 324.902 160.038H334.912C343.205 160.038 349.928 153.321 349.928 145.035V135.032C349.928 126.746 343.205 120.029 334.912 120.029Z" fill="url(#paint3_radial_1_54)" fill-opacity="0.8"/>
</g>
</g>
</g>
<defs>
<filter id="filter0_i_1_54" x="0" y="-25" width="415" height="425" filterUnits="userSpaceOnUse" color-interpolation-filters="sRGB">
<feFlood flood-opacity="0" result="BackgroundImageFix"/>
<feBlend mode="normal" in="SourceGraphic" in2="BackgroundImageFix" result="shape"/>
<feColorMatrix in="SourceAlpha" type="matrix" values="0 0 0 0 0 0 0 0 0 0 0 0 0 0 0 0 0 0 127 0" result="hardAlpha"/>
<feOffset dx="15" dy="-25"/>
<feGaussianBlur stdDeviation="15"/>
<feComposite in2="hardAlpha" operator="arithmetic" k2="-1" k3="1"/>
<feColorMatrix type="matrix" values="0 0 0 0 0 0 0 0 0 0 0 0 0 0 0 0 0 0 0.8 0"/>
<feBlend mode="soft-light" in2="shape" result="effect1_innerShadow_1_54"/>
</filter>
<filter id="filter1_d_1_54" x="17" y="-10" width="403" height="376" filterUnits="userSpaceOnUse" color-interpolation-filters="sRGB">
<feFlood flood-opacity="0" result="BackgroundImageFix"/>
<feColorMatrix in="SourceAlpha" type="matrix" values="0 0 0 0 0 0 0 0 0 0 0 0 0 0 0 0 0 0 127 0" result="hardAlpha"/>
<feOffset dx="-5" dy="15"/>
<feGaussianBlur stdDeviation="12.5"/>
<feColorMatrix type="matrix" values="0 0 0 0 0 0 0 0 0 0 0 0 0 0 0 0 0 0 0.3 0"/>
<feBlend mode="overlay" in2="BackgroundImageFix" result="effect1_dropShadow_1_54"/>
<feBlend mode="normal" in="SourceGraphic" in2="effect1_dropShadow_1_54" result="shape"/>
</filter>
<radialGradient id="paint0_radial_1_54" cx="0" cy="0" r="1" gradientUnits="userSpaceOnUse" gradientTransform="translate(200) rotate(90) scale(400)">
<stop offset="0.1" stop-color="#F09001"/>
<stop offset="0.9" stop-color="#890000"/>
</radialGradient>
<radialGradient id="paint1_radial_1_54" cx="0" cy="0" r="1" gradientUnits="userSpaceOnUse" gradientTransform="translate(400 -2.38419e-05) rotate(135) scale(565.685)">
<stop stop-color="white"/>
<stop offset="1" stop-color="white" stop-opacity="0"/>
</radialGradient>
<radialGradient id="paint2_radial_1_54" cx="0" cy="0" r="1" gradientUnits="userSpaceOnUse" gradientTransform="translate(0 400) rotate(-45) scale(282.843)">
<stop/>
<stop offset="1" stop-opacity="0"/>
</radialGradient>
<radialGradient id="paint3_radial_1_54" cx="0" cy="0" r="1" gradientUnits="userSpaceOnUse" gradientTransform="translate(400) rotate(137.44) scale(580.517 578.555)">
<stop stop-color="#463200"/>
<stop offset="0.842875" stop-color="#1C1400"/>
</radialGradient>
<clipPath id="clip0_1_54">
<rect width="400" height="400" rx="100" fill="white"/>
</clipPath>
</defs>
</svg>
