<?xml version="1.0" encoding="UTF-8" standalone="no"?>
<!-- Creator: CorelDRAW 2021 (64-Bit) -->

<svg
   xml:space="preserve"
   width="86.6137mm"
   height="86.6137mm"
   version="1.1"
   style="shape-rendering:geometricPrecision; text-rendering:geometricPrecision; image-rendering:optimizeQuality; fill-rule:evenodd; clip-rule:evenodd"
   viewBox="0 0 20824.24 20824.24"
   id="svg28"
   sodipodi:docname="logo.svg"
   inkscape:version="1.2.2 (1:1.2.2+202212051551+b0a8486541)"
   inkscape:export-filename="logo_48.png"
   inkscape:export-xdpi="14.076296"
   inkscape:export-ydpi="14.076296"
   xmlns:inkscape="http://www.inkscape.org/namespaces/inkscape"
   xmlns:sodipodi="http://sodipodi.sourceforge.net/DTD/sodipodi-0.dtd"
   xmlns:xlink="http://www.w3.org/1999/xlink"
   xmlns="http://www.w3.org/2000/svg"
   xmlns:svg="http://www.w3.org/2000/svg"><sodipodi:namedview
   id="namedview30"
   pagecolor="#ffffff"
   bordercolor="#000000"
   borderopacity="0.25"
   inkscape:showpageshadow="2"
   inkscape:pageopacity="0.0"
   inkscape:pagecheckerboard="0"
   inkscape:deskcolor="#d1d1d1"
   inkscape:document-units="mm"
   showgrid="false"
   inkscape:zoom="2.4071442"
   inkscape:cx="206.46873"
   inkscape:cy="163.05629"
   inkscape:window-width="1850"
   inkscape:window-height="1016"
   inkscape:window-x="0"
   inkscape:window-y="0"
   inkscape:window-maximized="1"
   inkscape:current-layer="Layer_x0020_1" />
 <defs
   id="defs11">
  <style
   type="text/css"
   id="style2">
   <![CDATA[
    .fil1 {fill:#00B3F9}
    .fil0 {fill:white}
    .fil4 {fill:url(#id0)}
    .fil2 {fill:url(#id1)}
    .fil3 {fill:url(#id2)}
   ]]>
  </style>
  <linearGradient
   id="id0"
   gradientUnits="userSpaceOnUse"
   x1="11860.73"
   y1="9886.52"
   x2="14116.05"
   y2="14188.28">
   <stop
   offset="0"
   style="stop-opacity:1; stop-color:white"
   id="stop4" />
   <stop
   offset="1"
   style="stop-opacity:1; stop-color:#00B3F9"
   id="stop6" />
  </linearGradient>
  <linearGradient
   id="id1"
   gradientUnits="userSpaceOnUse"
   xlink:href="#id0"
   x1="6708.27"
   y1="6466.61"
   x2="8963.59"
   y2="10768.37">
  </linearGradient>
  <linearGradient
   id="id2"
   gradientUnits="userSpaceOnUse"
   xlink:href="#id0"
   x1="9284.5"
   y1="8176.56"
   x2="11539.82"
   y2="12478.33">
  </linearGradient>
 <linearGradient
   inkscape:collect="always"
   xlink:href="#id0"
   id="linearGradient447"
   gradientUnits="userSpaceOnUse"
   x1="11860.73"
   y1="9886.52"
   x2="14116.05"
   y2="14188.28" /></defs>
 <g
   id="Layer_x0020_1"
   inkscape:label="Layer 1">
  <metadata
   id="CorelCorpID_0Corel-Layer" />
  <g
   id="_3004531110912"
   transform="matrix(1.3392158,0,0,1.3392158,-3491.4015,-3521.7946)">
   
   <g
   id="g24">
    <path
   class="fil1"
   d="M 10075.05,3170.46 7192.19,4834.89 4309.28,6499.41 c -214.39,123.8 -337.08,336.31 -337.08,583.88 v 3328.85 3328.85 c 0,247.57 122.71,460.08 337.08,583.88 l 2882.91,1664.52 2882.86,1664.43 c 214.39,123.77 459.82,123.77 674.2,0 l 2882.88,-1664.43 2882.91,-1664.52 c 214.39,-123.8 337.05,-336.31 337.05,-583.88 V 10412.14 7083.29 c 0,-247.57 -122.69,-460.08 -337.05,-583.88 L 13632.13,4834.89 10749.25,3170.46 c -214.39,-123.77 -459.82,-123.77 -674.2,0 z"
   id="path16" />
    <path
   class="fil2"
   d="m 7940.88,6971.19 2155.98,-1264.14 c 66.53,-39.02 143.08,-39.41 210.01,-1.06 66.91,38.35 105.28,104.56 105.28,181.69 v 3789.03 c 0,76.89 -38.11,142.91 -104.68,181.35 l -4733.69,2733.05 c -66.57,38.44 -142.81,38.44 -209.39,0 -66.57,-38.44 -104.71,-104.47 -104.71,-181.35 v -4851.5 c 0,-76.89 38.13,-142.91 104.71,-181.35 l 1427.99,-824.5 c 66.5,-38.37 142.62,-38.47 209.17,-0.12 l 728.93,419.74 c 66.98,38.56 143.73,38.23 210.4,-0.84 z"
   id="path18"
   style="fill:url(#id1)" />
    <path
   class="fil3"
   d="m 10517.13,8681.13 2155.95,-1264.12 c 66.55,-39.05 143.08,-39.41 210.01,-1.06 66.93,38.35 105.31,104.56 105.31,181.69 v 3789.03 c 0,76.89 -38.13,142.91 -104.71,181.35 l -4733.66,2733.05 c -66.6,38.42 -142.81,38.44 -209.41,0 -66.57,-38.44 -104.68,-104.47 -104.68,-181.35 V 9268.2 c 0,-76.86 38.11,-142.89 104.68,-181.33 l 1427.99,-824.5 c 66.53,-38.4 142.62,-38.47 209.2,-0.12 l 728.93,419.71 c 66.96,38.59 143.7,38.25 210.4,-0.84 z"
   id="path20"
   style="fill:url(#id2)" />
    <path
   class="fil4"
   d="m 13093.35,10391.1 2155.98,-1264.14 c 66.53,-39.02 143.05,-39.38 209.99,-1.06 66.93,38.35 105.31,104.56 105.31,181.71 v 3789.03 c 0,76.89 -38.11,142.89 -104.71,181.33 l -4733.66,2733.07 c -66.57,38.42 -142.81,38.42 -209.39,-0.02 -66.57,-38.42 -104.71,-104.47 -104.71,-181.33 v -4851.52 c 0,-76.86 38.13,-142.91 104.71,-181.35 l 1427.99,-824.47 c 66.5,-38.4 142.62,-38.47 209.17,-0.14 l 728.93,419.74 c 66.98,38.59 143.73,38.25 210.4,-0.84 z"
   id="path22"
   style="fill:url(#linearGradient447)" />
   </g>
  </g>
 </g>
</svg>
