<?xml version="1.0" encoding="UTF-8" standalone="no"?>
<!-- Creator: CorelDRAW 2020 (64-Bit) -->

<svg
   xml:space="preserve"
   width="580"
   height="580"
   version="1.1"
   style="clip-rule:evenodd;fill-rule:evenodd;image-rendering:optimizeQuality;shape-rendering:geometricPrecision;text-rendering:geometricPrecision"
   viewBox="0 0 23.435666 23.451445"
   id="svg13"
   sodipodi:docname="icon.svg"
   inkscape:version="1.3 (0e150ed6c4, 2023-07-21)"
   xmlns:inkscape="http://www.inkscape.org/namespaces/inkscape"
   xmlns:sodipodi="http://sodipodi.sourceforge.net/DTD/sodipodi-0.dtd"
   xmlns="http://www.w3.org/2000/svg"
   xmlns:svg="http://www.w3.org/2000/svg"><sodipodi:namedview
   id="namedview13"
   pagecolor="#ffffff"
   bordercolor="#000000"
   borderopacity="0.25"
   inkscape:showpageshadow="2"
   inkscape:pageopacity="0.0"
   inkscape:pagecheckerboard="0"
   inkscape:deskcolor="#d1d1d1"
   inkscape:zoom="1.1757693"
   inkscape:cx="422.27673"
   inkscape:cy="298.52796"
   inkscape:window-width="1920"
   inkscape:window-height="1003"
   inkscape:window-x="0"
   inkscape:window-y="0"
   inkscape:window-maximized="1"
   inkscape:current-layer="Слой_x0020_1" />&#10; <defs
   id="defs1">&#10;  <style
   type="text/css"
   id="style1">&#10;   <![CDATA[
    .str1 {stroke:#767677;stroke-width:1.35;stroke-miterlimit:22.9256;stroke-opacity:0.600000}
    .str0 {stroke:#9E9E9E;stroke-width:1.35;stroke-miterlimit:22.9256}
    .str2 {stroke:white;stroke-width:1.35;stroke-miterlimit:22.9256}
    .str3 {stroke:#28292A;stroke-width:0.04;stroke-miterlimit:22.9256}
    .fil2 {fill:none;fill-rule:nonzero}
    .fil1 {fill:#FEFEFE}
    .fil0 {fill:#28282A}
    .fil92 {fill:#201E21}
    .fil94 {fill:#006F85}
    .fil93 {fill:#1E1C1F}
    .fil95 {fill:#FF9001}
    .fil6 {fill:#FAF9FA;fill-rule:nonzero}
    .fil7 {fill:#F4F2F1;fill-rule:nonzero}
    .fil8 {fill:#EDEBE9;fill-rule:nonzero}
    .fil9 {fill:#E7E5E2;fill-rule:nonzero}
    .fil10 {fill:#E0DEDA;fill-rule:nonzero}
    .fil11 {fill:#D9D8D1;fill-rule:nonzero}
    .fil12 {fill:#D2D2CA;fill-rule:nonzero}
    .fil13 {fill:#C8CAC1;fill-rule:nonzero}
    .fil14 {fill:#BEC2B8;fill-rule:nonzero}
    .fil15 {fill:#B5BBAF;fill-rule:nonzero}
    .fil16 {fill:#A8B2A5;fill-rule:nonzero}
    .fil17 {fill:#9EAA9D;fill-rule:nonzero}
    .fil18 {fill:#93A196;fill-rule:nonzero}
    .fil19 {fill:#89988F;fill-rule:nonzero}
    .fil20 {fill:#818F89;fill-rule:nonzero}
    .fil21 {fill:#798783;fill-rule:nonzero}
    .fil22 {fill:#717F7D;fill-rule:nonzero}
    .fil23 {fill:#6C7979;fill-rule:nonzero}
    .fil24 {fill:#647072;fill-rule:nonzero}
    .fil25 {fill:#5E686D;fill-rule:nonzero}
    .fil26 {fill:#5A6167;fill-rule:nonzero}
    .fil27 {fill:#555B62;fill-rule:nonzero}
    .fil28 {fill:#4F545D;fill-rule:nonzero}
    .fil29 {fill:#4B4E58;fill-rule:nonzero}
    .fil30 {fill:#474954;fill-rule:nonzero}
    .fil37 {fill:#35313B;fill-rule:nonzero}
    .fil38 {fill:#34303A;fill-rule:nonzero}
    .fil31 {fill:#43444F;fill-rule:nonzero}
    .fil39 {fill:#332F39;fill-rule:nonzero}
    .fil40 {fill:#322F38;fill-rule:nonzero}
    .fil32 {fill:#40404B;fill-rule:nonzero}
    .fil41 {fill:#322E38;fill-rule:nonzero}
    .fil42 {fill:#312D37;fill-rule:nonzero}
    .fil43 {fill:#312D36;fill-rule:nonzero}
    .fil33 {fill:#3D3B47;fill-rule:nonzero}
    .fil44 {fill:#302C36;fill-rule:nonzero}
    .fil45 {fill:#302C35;fill-rule:nonzero}
    .fil34 {fill:#3B3944;fill-rule:nonzero}
    .fil46 {fill:#2F2B34;fill-rule:nonzero}
    .fil47 {fill:#2E2B34;fill-rule:nonzero}
    .fil48 {fill:#2E2A33;fill-rule:nonzero}
    .fil35 {fill:#373540;fill-rule:nonzero}
    .fil49 {fill:#2D2A32;fill-rule:nonzero}
    .fil36 {fill:#35333D;fill-rule:nonzero}
    .fil50 {fill:#2D2932;fill-rule:nonzero}
    .fil51 {fill:#2C2931;fill-rule:nonzero}
    .fil52 {fill:#2C2830;fill-rule:nonzero}
    .fil53 {fill:#2B2730;fill-rule:nonzero}
    .fil54 {fill:#2A272F;fill-rule:nonzero}
    .fil55 {fill:#2A272F;fill-rule:nonzero}
    .fil56 {fill:#29262E;fill-rule:nonzero}
    .fil57 {fill:#29262D;fill-rule:nonzero}
    .fil58 {fill:#29252D;fill-rule:nonzero}
    .fil59 {fill:#28252C;fill-rule:nonzero}
    .fil60 {fill:#28252C;fill-rule:nonzero}
    .fil61 {fill:#27242B;fill-rule:nonzero}
    .fil62 {fill:#27242A;fill-rule:nonzero}
    .fil63 {fill:#26232A;fill-rule:nonzero}
    .fil64 {fill:#262329;fill-rule:nonzero}
    .fil65 {fill:#262329;fill-rule:nonzero}
    .fil66 {fill:#252228;fill-rule:nonzero}
    .fil67 {fill:#252228;fill-rule:nonzero}
    .fil68 {fill:#242227;fill-rule:nonzero}
    .fil69 {fill:#242127;fill-rule:nonzero}
    .fil70 {fill:#232126;fill-rule:nonzero}
    .fil71 {fill:#232126;fill-rule:nonzero}
    .fil72 {fill:#232125;fill-rule:nonzero}
    .fil73 {fill:#222025;fill-rule:nonzero}
    .fil74 {fill:#222025;fill-rule:nonzero}
    .fil75 {fill:#222024;fill-rule:nonzero}
    .fil76 {fill:#222024;fill-rule:nonzero}
    .fil77 {fill:#222023;fill-rule:nonzero}
    .fil78 {fill:#212023;fill-rule:nonzero}
    .fil79 {fill:#211F23;fill-rule:nonzero}
    .fil80 {fill:#211F23;fill-rule:nonzero}
    .fil81 {fill:#211F23;fill-rule:nonzero}
    .fil82 {fill:#211F23;fill-rule:nonzero}
    .fil83 {fill:#211F22;fill-rule:nonzero}
    .fil84 {fill:#211F22;fill-rule:nonzero}
    .fil85 {fill:#211F22;fill-rule:nonzero}
    .fil86 {fill:#201F22;fill-rule:nonzero}
    .fil87 {fill:#201E22;fill-rule:nonzero}
    .fil88 {fill:#201E21;fill-rule:nonzero}
    .fil89 {fill:#201E21;fill-rule:nonzero}
    .fil90 {fill:#201E21;fill-rule:nonzero}
    .fil91 {fill:#201E21;fill-rule:nonzero}
    .fil4 {fill:#201E21;fill-rule:nonzero}
    .fil5 {fill:white;fill-rule:nonzero}
    .fil3 {fill:#9E9E9E;fill-rule:nonzero;fill-opacity:0.600000}
   ]]>&#10;  </style>&#10;     <clipPath
   id="id0"
   style="clip-rule:nonzero">&#10;      <path
   d="m 20.29,15.14 c -0.04,0.01 -0.05,0.02 -0.05,0.04 0,0.03 -0.01,0.09 -0.03,0.17 -0.02,0.09 -0.06,0.21 -0.14,0.4 -0.07,0.19 -0.19,0.44 -0.29,0.65 -0.11,0.2 -0.2,0.36 -0.33,0.56 -0.27,0.41 -0.53,0.81 -0.84,1.19 -0.13,0.16 -0.24,0.27 -0.43,0.36 -0.26,0.13 -0.5,0.14 -0.79,0.09 -0.09,-0.01 -0.18,-0.04 -0.35,-0.1 -0.16,-0.06 -0.4,-0.17 -0.71,-0.33 -0.31,-0.16 -0.69,-0.38 -1.07,-0.6 C 14.87,17.36 14.49,17.15 14.2,17 13.91,16.86 13.72,16.76 13.47,16.66 12.85,16.41 12.21,16.21 11.56,16.08 11.23,16.02 10.92,15.97 10.59,15.92 9.94,15.82 9.28,15.7 8.66,15.5 8.22,15.35 7.75,15.15 7.42,14.82 7.27,14.67 7.13,14.45 7.06,14.24 7.02,14.09 7.01,13.9 7.03,13.75 7.04,13.67 7.05,13.61 7.07,13.53 7.13,13.33 7.2,13.13 7.3,12.95 7.35,12.87 7.4,12.8 7.47,12.71 7.55,12.61 7.65,12.48 7.83,12.25 8.77,11.04 9.72,9.82 10.67,8.61 10.94,8.25 11.13,8.01 11.28,7.79 11.44,7.56 11.55,7.36 11.67,7.17 11.92,6.77 12.21,6.4 12.54,6.06 12.88,5.72 13.26,5.4 13.66,5.13 Z M 13.66,5.13 c 0.03,0.15 0.07,0.3 0.15,0.47 0.07,0.18 0.18,0.38 0.29,0.56 0.1,0.18 0.21,0.33 0.33,0.49 0.11,0.15 0.24,0.31 0.34,0.46 0.1,0.16 0.19,0.31 0.26,0.45 0.07,0.15 0.12,0.29 0.17,0.41 0.04,0.12 0.08,0.21 0.11,0.33 0.03,0.12 0.05,0.26 0.07,0.39 0.01,0.14 0.02,0.26 0.02,0.38 0.01,0.13 0.01,0.25 -0.01,0.38 -0.01,0.13 -0.03,0.27 -0.06,0.43 -0.04,0.15 -0.07,0.31 -0.11,0.45 -0.04,0.14 -0.07,0.26 -0.1,0.39 -0.03,0.14 -0.06,0.29 -0.08,0.43 -0.02,0.14 -0.03,0.26 -0.04,0.42 0,0.15 0,0.33 0.03,0.52 0.02,0.18 0.07,0.36 0.12,0.52 0.06,0.16 0.13,0.3 0.21,0.44 0.09,0.14 0.19,0.28 0.3,0.41 0.11,0.13 0.23,0.25 0.36,0.36 0.13,0.11 0.27,0.21 0.45,0.31 0.19,0.11 0.42,0.24 0.65,0.34 0.24,0.11 0.49,0.2 0.74,0.28 0.25,0.07 0.51,0.14 0.75,0.19 0.24,0.05 0.46,0.09 0.74,0.12 0.27,0.03 0.61,0.06 0.77,0.07 0.17,0.01 0.17,0.01 0.17,0.01 z"
   id="path1" />&#10;     </clipPath>&#10; </defs>&#10; <g
   id="Слой_x0020_1"
   inkscape:label="Слой 1"
   inkscape:groupmode="layer">&#10;  <metadata
   id="CorelCorpID_0Corel-Layer" />&#10;  &#10;  &#10;  <path
   class="fil1"
   d="m 24.73,23.44 c 0,-0.01 0,-0.01 0,-0.01 z"
   id="path3" />&#10;  <path
   class="fil1"
   d="m 24.73,23.44 c 0,0 0,-0.01 0,-0.01 z"
   id="path4" />&#10;  &#10;  &#10;  &#10;  &#10;  <g
   id="g13"
   transform="translate(0.03293225,1.8843175)"><path
     class="fil2 str0"
     d="m 14.069533,15.525 c -0.01,0.04 -0.01,0.09 -0.03,0.17 -0.02,0.09 -0.06,0.21 -0.14,0.4 -0.08,0.19 -0.2,0.45 -0.3,0.66 -0.11,0.2 -0.2,0.36 -0.34,0.56 -0.26,0.42 -0.53,0.83 -0.84,1.21 -0.14,0.16 -0.24,0.28 -0.44,0.37 -0.27,0.13 -0.51,0.14 -0.8,0.09 -0.09,-0.02 -0.19,-0.04 -0.35,-0.1 -0.17,-0.07 -0.41,-0.18 -0.72,-0.34 -0.309999,-0.16 -0.699999,-0.39 -1.089999,-0.6 -0.39,-0.22 -0.78,-0.43 -1.07,-0.58 -0.29,-0.15 -0.49,-0.24 -0.74,-0.35 -0.63,-0.25 -1.28,-0.45 -1.94,-0.58 -0.33,-0.07 -0.64,-0.11 -0.98,-0.17 -0.66,-0.1 -1.32,-0.22 -1.95,-0.43 -0.45,-0.14 -0.92,-0.35 -1.26,-0.68 -0.15000001,-0.16 -0.28999997,-0.38 -0.35999997,-0.59 -0.05,-0.15 -0.05,-0.34 -0.04,-0.5 0.01,-0.08 0.02,-0.14 0.05,-0.22 0.05,-0.2 0.12999996,-0.41 0.22999996,-0.59 0.05,-0.08 0.10000001,-0.14 0.17000001,-0.24 0.08,-0.1 0.18,-0.23 0.36,-0.47 0.96,-1.22 1.92,-2.45 2.88,-3.6899999 0.28,-0.35 0.47,-0.6 0.63,-0.83 0.15,-0.22 0.26,-0.43 0.38,-0.62 0.26,-0.41 0.55,-0.78 0.89,-1.13 0.3,-0.31 0.68,-0.63 1.04,-0.88 z M 7.249534,5.4350001 c 0,0 0.06,-0.05 0.06,-0.05 0,0 0.03,-0.04 0.05,-0.07 0.01,-0.02 0.01,-0.05 0.01,-0.07 0.01,-0.02 0,-0.03 0,-0.09 0,-0.06 -0.01,-0.16 -0.01,-0.28 -0.01,-0.12 -0.02,-0.26 -0.03,-0.47 -0.01,-0.21 -0.03,-0.48 -0.04,-0.8 -0.02,-0.31 -0.03,-0.67 -0.03,-0.91 0,-0.25 0,-0.4 0.01,-0.52 0,-0.12 0.01,-0.22 0.02,-0.32 0.01,-0.1 0.02,-0.19 0.04,-0.3 0.01,-0.1 0.04,-0.21 0.06,-0.3 0.03,-0.08 0.05,-0.14 0.08,-0.19 0.03,-0.05 0.07,-0.09 0.1,-0.13000009 0.04,-0.03 0.08,-0.05 0.11,-0.06 0.04,-0.01 0.07,-0.02 0.13,-0.02 0.05,-0.01 0.11,-0.01 0.2,-0.02 0.08,0 0.17,-0.01 0.27,0 0.1,0 0.2,0 0.3,0.02 0.09,0.01 0.19,0.02 0.31,0.05 0.13,0.03 0.28,0.08 0.41,0.12000009 0.12,0.05 0.21,0.09 0.29,0.13 0.09,0.04 0.16,0.08 0.24,0.12 0.07,0.05 0.1500001,0.1 0.229999,0.16 0.08,0.06 0.16,0.12 0.24,0.19 0.08,0.07 0.16,0.14 0.23,0.21 0.07,0.08 0.14,0.15 0.2,0.22 0.07,0.08 0.13,0.16 0.18,0.23 0.06,0.07 0.1,0.13 0.13,0.16 0.03,0.04 0.05,0.05 0.08,0.06 0.03,0 0.07,0.01 0.16,0.01 0.1,0 0.24,0.01 0.98,0 0.75,0 2.1,-0.01 2.78,-0.01 0.69,-0.01 0.71,-0.01 0.73,-0.01 0.02,-0.01 0.05,-0.02 0.08,-0.03 0.03,-0.02 0.06,-0.04 0.15,-0.11 0.1,-0.07 0.26,-0.2 0.46,-0.34 0.19,-0.14 0.42,-0.3 0.59,-0.41 0.16,-0.12 0.27,-0.18 0.39,-0.25 0.12,-0.07 0.26,-0.14 0.36,-0.19 0.11,-0.06 0.18,-0.09 0.24,-0.11 0.06,-0.02 0.11,-0.03 0.15,-0.03 0.04,-0.01 0.08,-0.01 0.11,-0.01 0.03,0.01 0.07,0.01 0.1,0.03 0.03,0.01 0.05,0.03 0.08,0.04 0.03,0.02 0.06,0.05 0.08,0.07 0.02,0.02 0.04,0.03 0.06,0.05 0.02,0.02 0.04,0.04 0.06,0.07 0.02,0.02 0.05,0.06 0.07,0.1 0.03,0.04 0.06,0.09 0.09,0.16 0.03,0.07 0.07,0.15 0.09,0.23 0.03,0.08 0.05,0.15 0.06,0.21 0.01,0.06 0.02,0.11 0.03,0.16 0,0.05 0.01,0.1 0.01,0.16 0,0.05 0,0.11 0,0.17 0,0.06 0,0.11 0,0.16 0,0.05 0,0.09 -0.01,0.15 0,0.05 -0.01,0.12 -0.02,0.18 0,0.06 -0.01,0.12 -0.02,0.19 -0.01,0.07 -0.02,0.15 -0.03,0.22 -0.02,0.08 -0.03,0.14 -0.04,0.2 -0.02,0.06 -0.03,0.11 -0.04,0.18 -0.02,0.07 -0.04,0.16 -0.06,0.24 -0.02,0.08 -0.04,0.16 -0.06,0.21 -0.02,0.06 -0.03,0.11 -0.05,0.16 -0.01,0.06 -0.03,0.12 -0.05,0.17 -0.02,0.04 -0.03,0.07 -0.04,0.1 -0.01,0.02 -0.01,0.04 -0.01,0.05 0,0.02 0,0.03 0.01,0.04 0.01,0.02 0.03,0.03 0.05,0.05 0.02,0.01 0.04,0.03 0.08,0.06 0.03,0.03 0.09,0.07 0.37,0.31 0.28,0.24 0.79,0.67 1.08,0.92 0.29,0.25 0.36,0.31 0.4,0.35 0.05,0.05 0.07,0.07 0.09,0.1 0.01,0.02 0.02,0.04 0.02,0.05 0.01,0.02 0.01,0.03 0,0.05 0,0.01 0,0.02 -0.01,0.05 -0.01,0.02 -0.02,0.05 -0.05,0.12 -0.03,0.08 -0.07,0.2 -0.1,0.28 -0.03,0.08 -0.05,0.12 -0.06,0.16 -0.01,0.03 0,0.05 0,0.08 0.01,0.03 0.02,0.06 0.06,0.14 0.04,0.08 0.11,0.19 0.2,0.37 0.1,0.18 0.24,0.41 0.55,0.98 0.32,0.56 0.83,1.4499999 1.1,1.9299999 0.27,0.48 0.31,0.55 0.33,0.59 0.01,0.04 0.01,0.05 -0.11,0.19 -0.12,0.15 -0.35,0.43 -0.46,0.57 -0.12,0.14 -0.12,0.15 -0.12,0.16 0,0.01 0,0.02 0.02,0.07 0.01,0.05 0.04,0.13 0.05,0.21 0.02,0.08 0.04,0.15 0.05,0.23 0.02,0.07 0.03,0.16 0.03,0.24 0.01,0.07 0.01,0.14 0.01,0.21 0,0.07 0,0.14 -0.01,0.21 -0.02,0.08 -0.03,0.16 -0.05,0.22 -0.02,0.07 -0.04,0.13 -0.06,0.2 -0.03,0.06 -0.07,0.14 -0.11,0.21 -0.03,0.07 -0.07,0.13 -0.11,0.18 -0.04,0.06 -0.08,0.1 -0.12,0.15 -0.05,0.05 -0.09,0.09 -0.15,0.14 -0.05,0.04 -0.11,0.09 -0.16,0.13 -0.05,0.04 -0.1,0.07 -0.12,0.09 -0.03,0.02 -0.04,0.03 -0.04,0.05 -0.01,0.01 -0.01,0.04 -0.02,0.07 0,0.03 -0.01,0.08 -0.02,0.15 -0.02,0.06 -0.04,0.15 -0.06,0.24 -0.02,0.08 -0.04,0.17 -0.07,0.24 -0.03,0.08 -0.05,0.14 -0.08,0.21 -0.04,0.07 -0.08,0.15 -0.12,0.22 -0.04,0.07 -0.09,0.13 -0.13,0.18 -0.04,0.05 -0.07,0.08 -0.1,0.11 -0.04,0.03 -0.07,0.06 -0.11,0.08 -0.03,0.03 -0.07,0.05 -0.12,0.08 -0.04,0.02 -0.08,0.05 -0.15,0.07 -0.06,0.03 -0.14,0.06 -0.22,0.08 -0.08,0.02 -0.16,0.04 -0.23,0.05 -0.07,0.01 -0.14,0.01 -0.21,0.02 -0.07,0 -0.16,0 -0.23,0 -0.08,0 -0.14,0 -0.21,-0.01 -0.07,0 -0.14,-0.01 -0.21,-0.02 -0.07,-0.02 -0.14,-0.03 -0.24,-0.05 -0.1,-0.03 -0.22,-0.06 -0.34,-0.1 -0.12,-0.03 -0.23,-0.07 -0.37,-0.12 -0.13,-0.06 -0.29,-0.12 -0.47,-0.21 -0.17,-0.08 -0.37,-0.18 -0.55,-0.27 -0.19,-0.1 -0.37,-0.19 -0.46,-0.24 -0.1,-0.05 -0.11,-0.05 -0.14,-0.05 -0.02,-0.01 -0.05,-0.01 -0.17,-0.01 -0.12,0 -0.34,0 -0.5,0 -0.16,0 -0.27,0.01 -0.37,0.01 -0.1,0.01 -0.2,0.01 -0.31,0.02 -0.11,0 -0.23,0.01 -0.34,0.01 -0.1,0 -0.2,0 -0.29,0 -0.08,0 -0.16,0 -0.26,0 -0.03,0 -0.06,0 -0.09,0 z"
     id="path6" /><path
     class="fil3 str1"
     d="m 11.029533,1.9350001 c -0.03,-0.03 -0.08,-0.08 -0.13,-0.12 -0.14,-0.14 -0.28,-0.28 -0.43,-0.4 -0.29,-0.22 -0.6199989,-0.42000002 -0.969999,-0.54000009 -0.03,0.04 -0.05,0.09 -0.08,0.13000009 0.17,0.21 0.29,0.46 0.36,0.72 0.1100001,0.07 0.07,0.02 0.289999,0.16 l 0.33,0.25 c 0.09,0.03 0.2,0.09 0.31,0.15 0.09,-0.13 0.2,-0.24 0.32,-0.35 z"
     id="path7" /><path
     class="fil2 str2"
     d="m 13.889533,15.185 c -0.01,0.04 -0.01,0.09 -0.03,0.17 -0.02,0.08 -0.06,0.2 -0.14,0.39 -0.07,0.19 -0.19,0.45 -0.29,0.65 -0.11,0.21 -0.2,0.36 -0.33,0.56 -0.27,0.41 -0.53,0.81 -0.84,1.19 -0.13,0.16 -0.24,0.28 -0.43,0.37 -0.26,0.13 -0.5,0.14 -0.79,0.08 -0.09,-0.01 -0.18,-0.03 -0.35,-0.1 -0.16,-0.06 -0.4,-0.17 -0.7099989,-0.33 -0.3100001,-0.16 -0.6900001,-0.38 -1.0700001,-0.59 -0.39,-0.22 -0.77,-0.42 -1.06,-0.57 -0.29,-0.15 -0.48,-0.24 -0.73,-0.35 -0.62,-0.25 -1.26,-0.44 -1.91,-0.58 -0.33,-0.06 -0.64,-0.1 -0.97,-0.16 -0.65,-0.1 -1.31,-0.22 -1.93,-0.42 -0.44,-0.15 -0.91,-0.35 -1.24,-0.68 -0.15000001,-0.15 -0.28999997,-0.37 -0.35999997,-0.58 -0.04,-0.15 -0.05,-0.34 -0.03,-0.49 0.01,-0.08 0.02,-0.14 0.04,-0.22 0.06,-0.2 0.12999996,-0.4 0.22999996,-0.58 0.05,-0.08 0.10000001,-0.14 0.17000001,-0.24 0.08,-0.1 0.18,-0.22 0.36,-0.46 0.94,-1.21 1.89,-2.4199999 2.84,-3.6399999 0.27,-0.35 0.46,-0.6 0.61,-0.82 0.16,-0.23 0.27,-0.43 0.39,-0.62 0.25,-0.4 0.54,-0.77 0.87,-1.11 0.3,-0.31 0.67,-0.62 1.02,-0.87 m -0.05,0.04 c 0,0 0.06,-0.05 0.06,-0.05 0,0 0.03,-0.04 0.05,-0.07 0.01,-0.02 0.01,-0.04 0.01,-0.06 0,-0.02 0,-0.04 0,-0.1 0,-0.06 -0.01,-0.16 -0.01,-0.27 -0.01,-0.12 -0.02,-0.26 -0.03,-0.46 -0.01,-0.21 -0.03,-0.49 -0.04,-0.8 -0.02,-0.31 -0.03,-0.65 -0.03,-0.9 0,-0.25 0,-0.39 0.01,-0.51 0,-0.12 0.01,-0.22 0.02,-0.32 0,-0.09 0.02,-0.19 0.04,-0.29 0.01,-0.1 0.04,-0.21 0.06,-0.3 0.03,-0.08 0.05,-0.14000009 0.08,-0.19000009 0.03,-0.05 0.06,-0.09 0.1,-0.12 0.04,-0.03 0.07,-0.05 0.11,-0.06 0.03,-0.02 0.07,-0.02 0.12,-0.03 0.05,0 0.12,-0.01 0.2,-0.01 0.08,0 0.17,-0.01 0.27,-0.01 0.09,0.01 0.19,0.01 0.29,0.02 0.1,0.01 0.19,0.03 0.31,0.06 0.12,0.03 0.28,0.08 0.4,0.12 0.12,0.04 0.21,0.08 0.29,0.12000007 0.08,0.04 0.16,0.08 0.23,0.12000002 0.08,0.05 0.1600001,0.1 0.2400001,0.16 0.08,0.06 0.1599989,0.12 0.2299989,0.19 0.08,0.07 0.16,0.14 0.23,0.21 0.07,0.07 0.13,0.14 0.2,0.22 0.06,0.07 0.12,0.15 0.18,0.22 0.05,0.07 0.1,0.13 0.13,0.16 0.03,0.04 0.04,0.05 0.07,0.05 0.03,0.01 0.07,0.02 0.16,0.02 0.09,0 0.23,0 0.97,0 0.73,0 2.07,-0.01 2.74,-0.02 0.68,0 0.7,0 0.72,-0.01 0.02,0 0.05,-0.01 0.08,-0.02 0.03,-0.02 0.06,-0.04 0.15,-0.11 0.1,-0.07 0.26,-0.2 0.45,-0.34 0.19,-0.14 0.42,-0.3 0.58,-0.41 0.17,-0.11 0.27,-0.17 0.39,-0.24 0.12,-0.06 0.25,-0.14 0.36,-0.19 0.1,-0.05 0.17,-0.08 0.23,-0.10000009 0.06,-0.02 0.11,-0.03 0.15,-0.04 0.04,0 0.07,0 0.11,0 0.03,0 0.06,0.01 0.09,0.02 0.03,0.01 0.06,0.03 0.09,0.05 0.03,0.02 0.05,0.04 0.08,0.06 0.02,0.02 0.04,0.04 0.05,0.05 0.02,0.02 0.04,0.04 0.06,0.07 0.02,0.03 0.05,0.06 0.08,0.1 0.02,0.05 0.05,0.09 0.08,0.16 0.03,0.07 0.07,0.15 0.09,0.23 0.03,0.07 0.05,0.14 0.06,0.2 0.01,0.06 0.02,0.11 0.03,0.16 0,0.05 0.01,0.1 0.01,0.16 0,0.05 0,0.11 0,0.17 0,0.05 0,0.11 0,0.16 0,0.05 0,0.09 -0.01,0.14 0,0.05 -0.01,0.12 -0.02,0.18 0,0.06 -0.01,0.12 -0.02,0.19 -0.01,0.07 -0.02,0.15 -0.03,0.22 -0.02,0.07 -0.03,0.14 -0.04,0.2 -0.01,0.05 -0.03,0.1 -0.04,0.17 -0.02,0.07 -0.04,0.16 -0.06,0.24 -0.02,0.08 -0.04,0.15 -0.06,0.21 -0.01,0.06 -0.03,0.1 -0.04,0.16 -0.02,0.05 -0.04,0.11 -0.06,0.16 -0.01,0.04 -0.03,0.07 -0.03,0.1 -0.01,0.02 -0.02,0.04 -0.02,0.05 0,0.01 0.01,0.03 0.02,0.04 0.01,0.01 0.02,0.03 0.04,0.04 0.02,0.02 0.04,0.04 0.08,0.07 0.04,0.03 0.09,0.07 0.37,0.31 0.27,0.23 0.78,0.66 1.06,0.9 0.29,0.24 0.36,0.31 0.4,0.35 0.05,0.04 0.07,0.07 0.08,0.09 0.02,0.02 0.03,0.04 0.03,0.06 0,0.01 0,0.03 0,0.04 0,0.01 -0.01,0.03 -0.02,0.05 0,0.02 -0.02,0.05 -0.04,0.13 -0.03,0.07 -0.07,0.19 -0.1,0.27 -0.03,0.08 -0.05,0.12 -0.06,0.15 -0.01,0.03 0,0.06 0,0.08 0.01,0.03 0.02,0.07 0.06,0.14 0.04,0.08 0.1,0.2 0.2,0.37 0.1,0.18 0.23,0.41 0.54,0.96 0.32,0.56 0.81,1.44 1.08,1.92 0.27,0.47 0.31,0.54 0.33,0.58 0.01,0.03 0.01,0.04 -0.11,0.18 -0.11,0.15 -0.34,0.42 -0.46,0.56 -0.11,0.15 -0.11,0.15 -0.11,0.16 0,0.01 0,0.03 0.02,0.07 0.01,0.05 0.04,0.13 0.05,0.21 0.02,0.07 0.04,0.14 0.05,0.22 0.01,0.08 0.03,0.16 0.03,0.24 0.01,0.07 0.01,0.14 0.01,0.21 0,0.07 -0.01,0.14 -0.02,0.21 -0.01,0.07 -0.02,0.15 -0.04,0.22 -0.02,0.06 -0.04,0.12 -0.06,0.19 -0.03,0.06 -0.07,0.14 -0.1,0.21 -0.04,0.07 -0.08,0.13 -0.12,0.18 -0.04,0.05 -0.08,0.1 -0.12,0.15 -0.04,0.04 -0.09,0.08 -0.14,0.13 -0.05,0.05 -0.11,0.09 -0.16,0.13 -0.05,0.04 -0.1,0.07 -0.12,0.09 -0.03,0.02 -0.04,0.03 -0.04,0.05 -0.01,0.01 -0.01,0.04 -0.02,0.07 0,0.03 -0.01,0.08 -0.02,0.14 -0.02,0.07 -0.03,0.16 -0.06,0.24 -0.02,0.08 -0.04,0.17 -0.07,0.24 -0.02,0.08 -0.05,0.14 -0.08,0.21 -0.03,0.07 -0.07,0.15 -0.11,0.21 -0.05,0.07 -0.1,0.14 -0.13,0.18 -0.04,0.05 -0.08,0.08 -0.11,0.11 -0.03,0.03 -0.06,0.06 -0.1,0.08 -0.03,0.03 -0.07,0.05 -0.12,0.08 -0.04,0.02 -0.08,0.05 -0.14,0.07 -0.07,0.03 -0.15,0.06 -0.23,0.08 -0.07,0.02 -0.15,0.04 -0.22,0.05 -0.07,0.01 -0.13,0.01 -0.21,0.01 -0.07,0.01 -0.16,0.01 -0.23,0.01 -0.07,0 -0.14,-0.01 -0.2,-0.01 -0.07,-0.01 -0.14,-0.02 -0.21,-0.03 -0.07,-0.01 -0.14,-0.02 -0.24,-0.05 -0.09,-0.02 -0.21,-0.05 -0.33,-0.09 -0.12,-0.03 -0.23,-0.07 -0.37,-0.12 -0.13,-0.06 -0.29,-0.12 -0.46,-0.2 -0.17,-0.08 -0.36,-0.18 -0.55,-0.28 -0.18,-0.09 -0.36,-0.18 -0.45,-0.23 -0.1,-0.05 -0.11,-0.05 -0.13,-0.05 -0.02,-0.01 -0.05,-0.01 -0.17,-0.01 -0.12,0 -0.34,0 -0.5,0 -0.16,0 -0.26,0.01 -0.36,0.02 -0.11,0 -0.2,0.01 -0.31,0.01 -0.1,0 -0.23,0.01 -0.33,0.01 -0.11,0 -0.2,0 -0.29,0 -0.08,0 -0.16,0 -0.26,0 -0.03,0 -0.06,0 -0.09,0"
     id="path8" /><g
     id="_2812570508848"
     transform="translate(-6.390466,0.00500001)">&#10;   <g
   id="g9">&#10;    <g
   clip-path="url(#id0)"
   id="g8">&#10;     <polygon
   class="fil4"
   points="21.27,18.16 8.9,19.94 4.55,6.44 16.91,4.66 "
   id="polygon8" />&#10;     <path
   id="1"
   class="fil5"
   d="m 16.51,11.61 c -0.01,-0.05 -0.06,-0.08 -0.11,-0.07 -0.04,0 -0.07,0.05 -0.05,0.09 0.01,0.05 0.06,0.08 0.11,0.08 0.04,-0.01 0.07,-0.05 0.05,-0.1 z" />&#10;     <path
   id="2"
   class="fil6"
   d="m 16.48,11.61 c 0.01,0.03 0,0.06 -0.03,0.07 -0.03,0 -0.07,-0.02 -0.08,-0.05 -0.01,-0.03 0.01,-0.06 0.04,-0.07 0.03,0 0.06,0.02 0.07,0.05 z m 0.09,-0.01 c -0.03,-0.08 -0.11,-0.13 -0.19,-0.12 -0.07,0.01 -0.11,0.08 -0.09,0.16 0.03,0.08 0.11,0.13 0.18,0.12 0.08,-0.01 0.12,-0.08 0.1,-0.16 z" />&#10;     <path
   id="3"
   class="fil7"
   d="m 16.54,11.61 c 0.02,0.06 -0.01,0.11 -0.07,0.12 -0.07,0.01 -0.13,-0.03 -0.15,-0.09 -0.02,-0.07 0.01,-0.12 0.07,-0.13 0.06,-0.01 0.13,0.03 0.15,0.1 z m 0.08,-0.02 c -0.03,-0.11 -0.15,-0.18 -0.25,-0.17 -0.11,0.02 -0.17,0.12 -0.13,0.23 0.03,0.11 0.15,0.18 0.25,0.17 0.11,-0.02 0.17,-0.12 0.13,-0.23 z" />&#10;     <path
   id="4"
   class="fil8"
   d="m 16.59,11.6 c 0.03,0.09 -0.02,0.18 -0.11,0.19 -0.09,0.01 -0.19,-0.05 -0.22,-0.15 -0.03,-0.09 0.02,-0.17 0.11,-0.19 0.1,-0.01 0.19,0.05 0.22,0.15 z m 0.09,-0.01 c -0.05,-0.14 -0.2,-0.24 -0.33,-0.22 -0.14,0.02 -0.21,0.15 -0.17,0.29 0.05,0.14 0.19,0.23 0.33,0.21 0.14,-0.02 0.21,-0.14 0.17,-0.28 z" />&#10;     <path
   id="5"
   class="fil9"
   d="m 16.65,11.59 c 0.04,0.12 -0.03,0.24 -0.15,0.26 -0.12,0.01 -0.25,-0.07 -0.29,-0.2 -0.04,-0.12 0.03,-0.24 0.15,-0.25 0.12,-0.02 0.25,0.07 0.29,0.19 z m 0.08,-0.01 c -0.05,-0.17 -0.23,-0.29 -0.4,-0.27 -0.17,0.03 -0.26,0.18 -0.2,0.35 0.05,0.18 0.23,0.29 0.4,0.27 0.16,-0.02 0.26,-0.18 0.2,-0.35 z" />&#10;     <path
   id="6"
   class="fil10"
   d="m 16.7,11.58 c 0.05,0.16 -0.03,0.3 -0.18,0.32 -0.15,0.02 -0.31,-0.08 -0.37,-0.24 -0.05,-0.15 0.04,-0.3 0.19,-0.32 0.15,-0.02 0.31,0.09 0.36,0.24 z m 0.08,-0.01 c -0.06,-0.2 -0.27,-0.34 -0.47,-0.31 -0.2,0.02 -0.3,0.21 -0.24,0.41 0.07,0.2 0.28,0.34 0.48,0.32 0.19,-0.03 0.3,-0.22 0.23,-0.42 z" />&#10;     <path
   id="7"
   class="fil11"
   d="m 16.76,11.57 c 0.06,0.19 -0.04,0.36 -0.22,0.39 -0.18,0.02 -0.38,-0.11 -0.44,-0.29 -0.06,-0.19 0.04,-0.36 0.22,-0.39 0.18,-0.02 0.38,0.11 0.44,0.29 z m 0.08,-0.01 c -0.08,-0.23 -0.32,-0.39 -0.55,-0.36 -0.22,0.03 -0.35,0.25 -0.27,0.48 0.07,0.23 0.32,0.39 0.54,0.36 0.23,-0.03 0.35,-0.25 0.28,-0.48 z" />&#10;     <path
   id="8"
   class="fil12"
   d="m 16.81,11.57 c 0.07,0.21 -0.04,0.41 -0.25,0.44 -0.22,0.03 -0.44,-0.12 -0.51,-0.33 -0.07,-0.22 0.04,-0.42 0.25,-0.45 0.21,-0.03 0.44,0.12 0.51,0.34 z m 0.08,-0.02 c -0.08,-0.26 -0.36,-0.44 -0.61,-0.41 -0.26,0.04 -0.4,0.28 -0.32,0.55 0.09,0.26 0.37,0.45 0.62,0.41 0.26,-0.04 0.4,-0.28 0.31,-0.55 z" />&#10;     <path
   id="9"
   class="fil13"
   d="m 16.87,11.56 c 0.08,0.25 -0.05,0.48 -0.3,0.51 -0.24,0.04 -0.5,-0.14 -0.58,-0.39 -0.08,-0.24 0.05,-0.47 0.29,-0.51 0.25,-0.03 0.51,0.14 0.59,0.39 z m 0.08,-0.01 c -0.1,-0.3 -0.41,-0.5 -0.69,-0.46 -0.29,0.04 -0.45,0.31 -0.35,0.61 0.09,0.29 0.4,0.5 0.69,0.45 0.29,-0.04 0.44,-0.31 0.35,-0.6 z" />&#10;     <path
   id="10"
   class="fil14"
   d="m 16.92,11.55 c 0.09,0.28 -0.06,0.54 -0.33,0.58 -0.27,0.04 -0.56,-0.16 -0.65,-0.44 -0.09,-0.28 0.05,-0.54 0.33,-0.57 0.27,-0.04 0.56,0.15 0.65,0.43 z M 17,11.54 c -0.1,-0.33 -0.44,-0.55 -0.76,-0.51 -0.32,0.05 -0.49,0.35 -0.39,0.67 0.11,0.33 0.45,0.56 0.77,0.51 0.32,-0.04 0.49,-0.35 0.38,-0.67 z" />&#10;     <path
   id="11"
   class="fil15"
   d="m 16.98,11.54 c 0.1,0.31 -0.07,0.6 -0.37,0.64 -0.3,0.05 -0.63,-0.17 -0.73,-0.48 -0.1,-0.31 0.07,-0.6 0.37,-0.64 0.3,-0.04 0.63,0.17 0.73,0.48 z m 0.08,-0.01 c -0.12,-0.36 -0.49,-0.61 -0.84,-0.56 -0.35,0.06 -0.54,0.38 -0.42,0.74 0.11,0.36 0.49,0.61 0.84,0.56 0.35,-0.05 0.53,-0.38 0.42,-0.74 z" />&#10;     <path
   id="12"
   class="fil16"
   d="m 17.03,11.53 c 0.11,0.35 -0.07,0.66 -0.4,0.71 -0.33,0.05 -0.69,-0.19 -0.8,-0.53 -0.11,-0.34 0.07,-0.66 0.4,-0.71 0.33,-0.04 0.69,0.19 0.8,0.53 z m 0.08,-0.01 c -0.12,-0.39 -0.53,-0.66 -0.91,-0.6 -0.38,0.05 -0.58,0.41 -0.46,0.8 0.13,0.39 0.54,0.66 0.92,0.6 0.37,-0.05 0.58,-0.41 0.45,-0.8 z" />&#10;     <path
   id="13"
   class="fil17"
   d="m 17.09,11.53 c 0.12,0.37 -0.08,0.71 -0.44,0.77 -0.37,0.05 -0.76,-0.21 -0.88,-0.58 -0.12,-0.38 0.08,-0.72 0.44,-0.77 0.36,-0.06 0.76,0.2 0.88,0.58 z m 0.08,-0.02 c -0.14,-0.41 -0.58,-0.71 -0.99,-0.65 -0.4,0.06 -0.63,0.45 -0.49,0.87 0.13,0.42 0.57,0.71 0.98,0.65 0.41,-0.06 0.63,-0.45 0.5,-0.87 z" />&#10;     <path
   id="14"
   class="fil18"
   d="m 17.14,11.52 c 0.13,0.4 -0.08,0.77 -0.48,0.83 -0.39,0.06 -0.81,-0.22 -0.94,-0.63 -0.13,-0.4 0.08,-0.77 0.47,-0.83 0.4,-0.06 0.82,0.23 0.95,0.63 z m 0.08,-0.01 c -0.14,-0.45 -0.61,-0.77 -1.05,-0.7 -0.44,0.06 -0.68,0.48 -0.54,0.93 0.15,0.45 0.62,0.76 1.06,0.7 0.44,-0.07 0.68,-0.48 0.53,-0.93 z" />&#10;     <path
   id="15"
   class="fil19"
   d="m 17.2,11.51 c 0.14,0.43 -0.09,0.84 -0.52,0.9 -0.42,0.06 -0.88,-0.24 -1.02,-0.68 -0.14,-0.43 0.09,-0.83 0.52,-0.9 0.42,-0.06 0.88,0.25 1.02,0.68 z m 0.08,-0.01 c -0.16,-0.48 -0.66,-0.82 -1.13,-0.75 -0.47,0.07 -0.73,0.51 -0.57,0.99 0.15,0.48 0.66,0.82 1.13,0.75 0.47,-0.07 0.72,-0.51 0.57,-0.99 z" />&#10;     <path
   id="16"
   class="fil20"
   d="m 17.25,11.5 c 0.15,0.47 -0.1,0.9 -0.55,0.96 -0.45,0.07 -0.94,-0.26 -1.09,-0.72 -0.15,-0.47 0.09,-0.9 0.55,-0.96 0.45,-0.07 0.94,0.26 1.09,0.72 z m 0.08,-0.01 c -0.16,-0.51 -0.7,-0.87 -1.2,-0.8 -0.5,0.08 -0.77,0.55 -0.6,1.06 0.16,0.51 0.7,0.87 1.2,0.8 0.5,-0.07 0.77,-0.55 0.6,-1.06 z" />&#10;     <path
   id="17"
   class="fil21"
   d="m 17.31,11.49 c 0.16,0.5 -0.11,0.96 -0.59,1.03 -0.49,0.07 -1.01,-0.28 -1.17,-0.77 -0.16,-0.5 0.11,-0.96 0.59,-1.03 0.48,-0.07 1.01,0.28 1.17,0.77 z m 0.08,-0.01 c -0.18,-0.54 -0.75,-0.92 -1.28,-0.84 -0.53,0.07 -0.81,0.58 -0.64,1.12 0.18,0.54 0.75,0.92 1.28,0.84 0.53,-0.07 0.81,-0.57 0.64,-1.12 z" />&#10;     <path
   id="18"
   class="fil22"
   d="m 17.36,11.49 c 0.17,0.52 -0.11,1.01 -0.62,1.09 -0.52,0.07 -1.07,-0.3 -1.24,-0.82 -0.17,-0.53 0.11,-1.02 0.62,-1.09 0.52,-0.08 1.07,0.29 1.24,0.82 z m 0.08,-0.02 c -0.18,-0.57 -0.79,-0.97 -1.35,-0.89 -0.56,0.08 -0.86,0.61 -0.67,1.19 0.18,0.57 0.78,0.97 1.34,0.89 0.56,-0.08 0.87,-0.61 0.68,-1.19 z" />&#10;     <path
   id="19"
   class="fil23"
   d="m 17.41,11.48 c 0.18,0.56 -0.11,1.07 -0.66,1.15 -0.54,0.08 -1.13,-0.31 -1.31,-0.87 -0.18,-0.56 0.12,-1.07 0.66,-1.15 0.55,-0.08 1.13,0.31 1.31,0.87 z m 0.09,-0.01 c -0.2,-0.61 -0.83,-1.03 -1.42,-0.94 -0.59,0.08 -0.91,0.64 -0.72,1.24 0.2,0.61 0.83,1.03 1.42,0.95 0.59,-0.09 0.91,-0.65 0.72,-1.25 z" />&#10;     <path
   id="20"
   class="fil24"
   d="m 17.47,11.47 c 0.19,0.59 -0.12,1.14 -0.7,1.22 -0.57,0.08 -1.19,-0.33 -1.38,-0.92 -0.19,-0.59 0.12,-1.13 0.69,-1.22 0.58,-0.08 1.2,0.33 1.39,0.92 z m 0.08,-0.01 c -0.2,-0.64 -0.87,-1.08 -1.49,-0.99 -0.62,0.09 -0.96,0.68 -0.75,1.31 0.2,0.64 0.87,1.08 1.49,0.99 0.62,-0.09 0.96,-0.67 0.75,-1.31 z" />&#10;     <path
   id="21"
   class="fil25"
   d="m 17.52,11.46 c 0.2,0.62 -0.12,1.2 -0.73,1.28 -0.6,0.09 -1.26,-0.34 -1.46,-0.96 -0.2,-0.62 0.13,-1.2 0.74,-1.28 0.6,-0.09 1.25,0.34 1.45,0.96 z m 0.09,-0.01 c -0.22,-0.67 -0.92,-1.13 -1.57,-1.04 -0.65,0.1 -1,0.71 -0.79,1.38 0.22,0.67 0.92,1.13 1.57,1.04 0.65,-0.1 1,-0.71 0.79,-1.38 z" />&#10;     <path
   id="22"
   class="fil26"
   d="m 17.58,11.46 c 0.21,0.65 -0.14,1.25 -0.77,1.34 -0.64,0.09 -1.32,-0.36 -1.53,-1.01 -0.21,-0.65 0.13,-1.26 0.77,-1.35 0.63,-0.09 1.32,0.36 1.53,1.02 z m 0.08,-0.02 c -0.22,-0.69 -0.96,-1.18 -1.64,-1.08 -0.68,0.1 -1.05,0.74 -0.82,1.44 0.22,0.7 0.96,1.18 1.64,1.08 0.68,-0.09 1.05,-0.74 0.82,-1.44 z" />&#10;     <path
   id="23"
   class="fil27"
   d="m 17.63,11.45 c 0.22,0.68 -0.14,1.31 -0.8,1.41 -0.67,0.09 -1.39,-0.38 -1.61,-1.07 -0.22,-0.68 0.14,-1.31 0.81,-1.4 0.67,-0.1 1.38,0.37 1.6,1.06 z m 0.09,-0.01 C 17.48,10.71 16.71,10.2 16,10.3 c -0.71,0.1 -1.09,0.78 -0.86,1.51 0.24,0.73 1,1.23 1.71,1.13 0.72,-0.1 1.1,-0.78 0.87,-1.5 z" />&#10;     <path
   id="24"
   class="fil28"
   d="m 17.69,11.44 c 0.23,0.71 -0.15,1.37 -0.84,1.47 -0.7,0.1 -1.45,-0.39 -1.68,-1.11 -0.23,-0.71 0.15,-1.37 0.84,-1.47 0.7,-0.1 1.45,0.4 1.68,1.11 z m 0.08,-0.01 c -0.24,-0.76 -1.04,-1.29 -1.78,-1.19 -0.75,0.11 -1.15,0.81 -0.9,1.57 0.24,0.76 1.04,1.29 1.78,1.19 0.74,-0.11 1.15,-0.81 0.9,-1.57 z" />&#10;     <path
   id="25"
   class="fil29"
   d="m 17.74,11.43 c 0.24,0.75 -0.15,1.43 -0.88,1.54 -0.72,0.1 -1.51,-0.42 -1.75,-1.16 -0.24,-0.74 0.16,-1.43 0.88,-1.54 0.73,-0.1 1.51,0.42 1.75,1.16 z m 0.09,-0.01 c -0.26,-0.79 -1.09,-1.34 -1.86,-1.23 -0.77,0.11 -1.19,0.84 -0.94,1.63 0.26,0.79 1.09,1.34 1.86,1.23 0.77,-0.11 1.19,-0.84 0.94,-1.63 z" />&#10;     <path
   id="26"
   class="fil30"
   d="m 17.8,11.42 c 0.25,0.78 -0.16,1.5 -0.92,1.61 -0.75,0.1 -1.57,-0.44 -1.82,-1.21 -0.25,-0.78 0.16,-1.49 0.92,-1.6 0.75,-0.11 1.57,0.43 1.82,1.2 z m 0.08,-0.01 c -0.26,-0.82 -1.13,-1.39 -1.93,-1.28 -0.8,0.12 -1.24,0.88 -0.97,1.7 0.26,0.82 1.13,1.4 1.93,1.28 0.8,-0.12 1.24,-0.88 0.97,-1.7 z" />&#10;     <path
   id="27"
   class="fil31"
   d="m 17.85,11.42 c 0.26,0.8 -0.16,1.55 -0.95,1.66 -0.79,0.11 -1.64,-0.45 -1.9,-1.25 -0.26,-0.81 0.17,-1.56 0.96,-1.67 0.78,-0.11 1.63,0.45 1.89,1.26 z m 0.09,-0.02 c -0.28,-0.85 -1.18,-1.44 -2.01,-1.32 -0.83,0.12 -1.28,0.9 -1.01,1.76 0.28,0.85 1.17,1.45 2.01,1.33 0.83,-0.12 1.28,-0.91 1.01,-1.77 z" />&#10;     <path
   id="28"
   class="fil32"
   d="m 17.91,11.41 c 0.27,0.84 -0.18,1.61 -0.99,1.73 -0.82,0.12 -1.7,-0.47 -1.97,-1.31 -0.27,-0.83 0.17,-1.61 0.99,-1.73 0.82,-0.11 1.7,0.47 1.97,1.31 z m 0.08,-0.01 c -0.28,-0.89 -1.21,-1.5 -2.08,-1.38 -0.86,0.12 -1.33,0.94 -1.04,1.83 0.28,0.88 1.21,1.5 2.07,1.37 0.87,-0.12 1.34,-0.94 1.05,-1.82 z" />&#10;     <path
   id="29"
   class="fil33"
   d="m 17.96,11.4 c 0.28,0.87 -0.18,1.67 -1.02,1.79 -0.85,0.13 -1.76,-0.48 -2.04,-1.35 -0.28,-0.87 0.17,-1.67 1.02,-1.79 0.85,-0.12 1.76,0.48 2.04,1.35 z m 0.08,-0.01 c -0.29,-0.92 -1.25,-1.55 -2.15,-1.43 -0.89,0.13 -1.37,0.98 -1.08,1.89 0.3,0.92 1.26,1.56 2.15,1.43 0.9,-0.13 1.38,-0.98 1.08,-1.89 z" />&#10;     <path
   id="30"
   class="fil34"
   d="m 18.02,11.39 c 0.29,0.9 -0.19,1.73 -1.07,1.86 -0.87,0.13 -1.82,-0.5 -2.11,-1.4 -0.29,-0.9 0.19,-1.73 1.06,-1.86 0.88,-0.12 1.83,0.5 2.12,1.4 z m 0.08,-0.01 c -0.31,-0.95 -1.3,-1.61 -2.22,-1.47 -0.93,0.13 -1.43,1.01 -1.12,1.95 0.3,0.95 1.3,1.61 2.22,1.47 0.92,-0.13 1.42,-1 1.12,-1.95 z" />&#10;     <path
   id="31"
   class="fil35"
   d="m 18.07,11.38 c 0.3,0.93 -0.19,1.8 -1.1,1.93 -0.91,0.13 -1.88,-0.52 -2.18,-1.45 -0.3,-0.93 0.19,-1.79 1.1,-1.92 0.9,-0.14 1.88,0.51 2.18,1.44 z m 0.08,-0.01 C 17.84,10.4 16.81,9.71 15.86,9.85 c -0.95,0.14 -1.47,1.04 -1.16,2.02 0.32,0.98 1.35,1.66 2.3,1.52 0.95,-0.14 1.47,-1.04 1.15,-2.02 z" />&#10;     <path
   id="32"
   class="fil36"
   d="m 18.13,11.38 c 0.31,0.96 -0.2,1.85 -1.14,1.98 -0.94,0.14 -1.95,-0.53 -2.26,-1.49 -0.31,-0.97 0.2,-1.86 1.14,-1.99 0.94,-0.14 1.95,0.53 2.26,1.5 z m 0.08,-0.02 c -0.33,-1 -1.39,-1.71 -2.37,-1.56 -0.98,0.14 -1.52,1.07 -1.19,2.08 0.32,1.01 1.38,1.71 2.37,1.57 0.98,-0.15 1.51,-1.08 1.19,-2.09 z" />&#10;     <path
   id="33"
   class="fil37"
   d="m 18.18,11.37 c 0.32,0.99 -0.2,1.91 -1.17,2.05 -0.97,0.14 -2.01,-0.55 -2.33,-1.55 -0.32,-0.99 0.2,-1.91 1.17,-2.05 0.97,-0.14 2.01,0.56 2.33,1.55 z m 0.08,-0.01 c -0.33,-1.04 -1.42,-1.77 -2.44,-1.62 -1.01,0.15 -1.56,1.11 -1.23,2.15 0.34,1.03 1.43,1.76 2.45,1.61 1.01,-0.14 1.56,-1.1 1.22,-2.14 z" />&#10;     <path
   id="34"
   class="fil38"
   d="m 18.24,11.36 c 0.33,1.02 -0.22,1.97 -1.21,2.11 -1,0.15 -2.08,-0.56 -2.41,-1.59 -0.33,-1.02 0.21,-1.97 1.21,-2.11 1,-0.15 2.08,0.57 2.41,1.59 z m 0.08,-0.01 C 17.97,10.28 16.85,9.53 15.8,9.68 c -1.04,0.15 -1.61,1.14 -1.26,2.21 0.34,1.07 1.47,1.82 2.51,1.67 1.05,-0.15 1.61,-1.14 1.27,-2.21 z" />&#10;     <path
   id="35"
   class="fil39"
   d="m 18.29,11.35 c 0.34,1.06 -0.22,2.03 -1.25,2.18 -1.02,0.15 -2.13,-0.59 -2.47,-1.64 -0.34,-1.06 0.21,-2.03 1.24,-2.18 1.03,-0.15 2.14,0.59 2.48,1.64 z m 0.08,-0.01 c -0.35,-1.1 -1.51,-1.87 -2.58,-1.71 -1.08,0.15 -1.66,1.17 -1.31,2.27 0.36,1.1 1.52,1.87 2.59,1.72 1.08,-0.16 1.66,-1.18 1.3,-2.28 z" />&#10;     <path
   id="36"
   class="fil40"
   d="m 18.35,11.34 c 0.35,1.09 -0.23,2.09 -1.29,2.25 -1.06,0.15 -2.2,-0.61 -2.55,-1.69 -0.35,-1.09 0.23,-2.09 1.29,-2.25 1.05,-0.15 2.2,0.61 2.55,1.69 z m 0.08,-0.01 C 18.06,10.2 16.87,9.41 15.77,9.57 c -1.11,0.16 -1.71,1.21 -1.34,2.34 0.36,1.13 1.56,1.92 2.66,1.76 1.1,-0.16 1.7,-1.2 1.34,-2.34 z" />&#10;     <path
   id="37"
   class="fil41"
   d="m 18.4,11.34 c 0.36,1.11 -0.23,2.15 -1.32,2.3 -1.09,0.16 -2.26,-0.62 -2.62,-1.73 -0.36,-1.12 0.23,-2.15 1.32,-2.31 1.09,-0.16 2.26,0.62 2.62,1.74 z m 0.08,-0.02 c -0.37,-1.16 -1.6,-1.97 -2.73,-1.81 -1.13,0.17 -1.75,1.24 -1.38,2.41 0.38,1.16 1.6,1.97 2.74,1.81 1.13,-0.17 1.75,-1.24 1.37,-2.41 z" />&#10;     <path
   id="38"
   class="fil42"
   d="m 18.46,11.33 c 0.37,1.15 -0.24,2.21 -1.36,2.37 -1.12,0.16 -2.33,-0.64 -2.7,-1.79 -0.37,-1.14 0.24,-2.21 1.36,-2.37 1.12,-0.16 2.33,0.64 2.7,1.79 z m 0.08,-0.01 c -0.39,-1.2 -1.64,-2.03 -2.81,-1.86 -1.16,0.17 -1.8,1.27 -1.41,2.46 0.38,1.2 1.64,2.03 2.81,1.86 1.16,-0.16 1.79,-1.27 1.41,-2.46 z" />&#10;     <path
   id="39"
   class="fil43"
   d="m 18.51,11.32 c 0.38,1.18 -0.24,2.27 -1.39,2.44 -1.15,0.16 -2.39,-0.66 -2.77,-1.84 -0.38,-1.18 0.24,-2.27 1.39,-2.43 1.15,-0.17 2.39,0.65 2.77,1.83 z m 0.08,-0.01 C 18.2,10.08 16.91,9.23 15.71,9.4 c -1.19,0.17 -1.84,1.31 -1.44,2.53 0.39,1.23 1.68,2.08 2.87,1.91 1.2,-0.17 1.85,-1.31 1.45,-2.53 z" />&#10;     <path
   id="40"
   class="fil44"
   d="m 18.57,11.31 c 0.39,1.21 -0.26,2.33 -1.43,2.5 -1.18,0.17 -2.46,-0.67 -2.85,-1.88 -0.39,-1.21 0.25,-2.33 1.43,-2.5 1.18,-0.17 2.46,0.67 2.85,1.88 z M 18.65,11.3 C 18.24,10.04 16.92,9.17 15.7,9.35 c -1.23,0.17 -1.89,1.33 -1.49,2.59 0.41,1.26 1.73,2.13 2.95,1.96 1.23,-0.18 1.89,-1.34 1.49,-2.6 z" />&#10;     <path
   id="41"
   class="fil45"
   d="m 18.62,11.31 c 0.4,1.24 -0.26,2.38 -1.47,2.56 -1.21,0.17 -2.51,-0.69 -2.91,-1.93 -0.4,-1.24 0.25,-2.39 1.46,-2.57 1.21,-0.17 2.52,0.69 2.92,1.94 z m 0.08,-0.02 c -0.41,-1.28 -1.77,-2.18 -3.02,-2 -1.26,0.18 -1.94,1.37 -1.52,2.66 0.41,1.29 1.76,2.18 3.02,2 1.26,-0.18 1.94,-1.37 1.52,-2.66 z" />&#10;     <path
   id="42"
   class="fil46"
   d="m 18.67,11.3 c 0.41,1.27 -0.26,2.45 -1.5,2.62 -1.24,0.18 -2.58,-0.7 -2.99,-1.98 -0.41,-1.27 0.27,-2.44 1.51,-2.62 1.24,-0.18 2.57,0.71 2.98,1.98 z m 0.09,-0.01 c -0.43,-1.32 -1.81,-2.24 -3.1,-2.06 -1.29,0.19 -1.98,1.41 -1.56,2.73 0.43,1.31 1.81,2.23 3.1,2.05 1.28,-0.19 1.98,-1.41 1.56,-2.72 z" />&#10;     <path
   id="43"
   class="fil47"
   d="m 18.73,11.29 c 0.42,1.3 -0.27,2.51 -1.54,2.69 -1.27,0.18 -2.64,-0.72 -3.06,-2.03 -0.42,-1.3 0.27,-2.51 1.54,-2.69 1.27,-0.18 2.64,0.73 3.06,2.03 z m 0.08,-0.01 c -0.43,-1.35 -1.85,-2.29 -3.17,-2.1 -1.31,0.19 -2.03,1.43 -1.59,2.78 0.43,1.35 1.85,2.29 3.17,2.1 1.31,-0.19 2.03,-1.43 1.59,-2.78 z" />&#10;     <path
   id="44"
   class="fil48"
   d="m 18.78,11.28 c 0.43,1.34 -0.27,2.57 -1.57,2.76 -1.3,0.18 -2.71,-0.75 -3.14,-2.08 -0.43,-1.33 0.28,-2.57 1.58,-2.75 1.3,-0.19 2.7,0.74 3.13,2.07 z m 0.09,-0.01 c -0.45,-1.38 -1.9,-2.34 -3.25,-2.15 -1.34,0.2 -2.07,1.47 -1.63,2.85 0.45,1.38 1.9,2.34 3.24,2.15 1.35,-0.19 2.08,-1.47 1.64,-2.85 z" />&#10;     <path
   id="45"
   class="fil49"
   d="m 18.84,11.27 c 0.44,1.37 -0.28,2.63 -1.61,2.82 -1.34,0.19 -2.77,-0.76 -3.21,-2.12 -0.44,-1.37 0.28,-2.63 1.61,-2.82 1.33,-0.19 2.77,0.76 3.21,2.12 z m 0.08,-0.01 C 18.47,9.85 16.98,8.87 15.61,9.07 c -1.38,0.19 -2.13,1.5 -1.67,2.91 0.45,1.41 1.94,2.4 3.31,2.2 1.38,-0.2 2.13,-1.51 1.67,-2.92 z" />&#10;     <path
   id="46"
   class="fil50"
   d="m 18.89,11.27 c 0.45,1.39 -0.28,2.68 -1.65,2.88 -1.36,0.19 -2.83,-0.78 -3.28,-2.17 -0.45,-1.4 0.29,-2.69 1.65,-2.89 1.37,-0.19 2.83,0.78 3.28,2.18 z m 0.09,-0.02 C 18.51,9.81 16.99,8.81 15.59,9.01 c -1.41,0.2 -2.17,1.54 -1.71,2.98 0.47,1.44 1.98,2.45 3.39,2.24 1.41,-0.2 2.17,-1.53 1.71,-2.98 z" />&#10;     <path
   id="47"
   class="fil51"
   d="m 18.95,11.26 c 0.46,1.42 -0.3,2.74 -1.69,2.94 -1.39,0.21 -2.89,-0.79 -3.35,-2.22 -0.46,-1.42 0.29,-2.74 1.69,-2.94 1.39,-0.2 2.89,0.79 3.35,2.22 z m 0.08,-0.01 c -0.47,-1.48 -2.02,-2.5 -3.46,-2.3 -1.44,0.21 -2.22,1.57 -1.74,3.05 0.47,1.47 2.02,2.5 3.46,2.29 1.44,-0.21 2.22,-1.57 1.74,-3.04 z" />&#10;     <path
   id="48"
   class="fil52"
   d="m 19,11.25 c 0.47,1.46 -0.3,2.81 -1.72,3.01 -1.42,0.21 -2.96,-0.81 -3.43,-2.27 -0.47,-1.46 0.31,-2.8 1.73,-3.01 1.42,-0.2 2.95,0.81 3.42,2.27 z m 0.09,-0.01 C 18.6,9.73 17.02,8.69 15.55,8.9 c -1.47,0.21 -2.26,1.6 -1.78,3.1 0.49,1.51 2.07,2.56 3.54,2.35 1.46,-0.22 2.26,-1.61 1.78,-3.11 z" />&#10;     <path
   id="49"
   class="fil53"
   d="m 19.06,11.24 c 0.48,1.49 -0.31,2.87 -1.76,3.08 -1.45,0.21 -3.02,-0.83 -3.5,-2.32 -0.48,-1.49 0.31,-2.87 1.76,-3.08 1.45,-0.2 3.02,0.83 3.5,2.32 z m 0.08,-0.01 C 18.65,9.69 17.03,8.62 15.53,8.84 c -1.49,0.22 -2.31,1.64 -1.81,3.17 0.49,1.54 2.11,2.61 3.61,2.39 1.49,-0.21 2.31,-1.63 1.81,-3.17 z" />&#10;     <path
   id="50"
   class="fil54"
   d="m 19.11,11.23 c 0.49,1.52 -0.31,2.93 -1.79,3.14 -1.49,0.22 -3.09,-0.84 -3.58,-2.36 -0.49,-1.52 0.32,-2.93 1.8,-3.14 1.48,-0.22 3.08,0.84 3.57,2.36 z M 19.2,11.22 C 18.69,9.66 17.04,8.56 15.51,8.78 13.99,9 13.16,10.45 13.66,12.02 c 0.51,1.57 2.16,2.66 3.68,2.44 1.53,-0.22 2.36,-1.67 1.86,-3.24 z" />&#10;     <path
   id="51"
   class="fil55"
   d="m 19.17,11.23 c 0.5,1.55 -0.32,2.98 -1.84,3.2 -1.51,0.22 -3.14,-0.86 -3.64,-2.41 -0.5,-1.56 0.32,-2.99 1.83,-3.21 1.52,-0.22 3.15,0.87 3.65,2.42 z m 0.08,-0.02 C 18.74,9.62 17.05,8.5 15.5,8.73 c -1.56,0.22 -2.41,1.7 -1.89,3.3 0.51,1.6 2.19,2.71 3.75,2.48 1.56,-0.22 2.41,-1.7 1.89,-3.3 z" />&#10;     <path
   id="52"
   class="fil56"
   d="m 19.22,11.22 c 0.51,1.58 -0.32,3.04 -1.87,3.27 -1.54,0.22 -3.2,-0.88 -3.71,-2.47 -0.51,-1.58 0.32,-3.04 1.87,-3.26 1.54,-0.23 3.2,0.88 3.71,2.46 z M 19.3,11.21 C 18.78,9.58 17.07,8.44 15.48,8.67 c -1.59,0.23 -2.45,1.74 -1.93,3.37 0.53,1.62 2.24,2.76 3.83,2.53 1.59,-0.23 2.45,-1.73 1.92,-3.36 z" />&#10;     <path
   id="53"
   class="fil57"
   d="m 19.28,11.21 c 0.52,1.61 -0.34,3.11 -1.91,3.33 -1.57,0.23 -3.27,-0.9 -3.79,-2.51 -0.52,-1.61 0.33,-3.1 1.91,-3.33 1.57,-0.23 3.27,0.9 3.79,2.51 z m 0.08,-0.01 c -0.54,-1.66 -2.28,-2.82 -3.9,-2.58 -1.62,0.23 -2.5,1.76 -1.96,3.42 0.53,1.66 2.28,2.82 3.9,2.59 1.62,-0.24 2.49,-1.77 1.96,-3.43 z" />&#10;     <path
   id="54"
   class="fil58"
   d="m 19.33,11.2 c 0.53,1.65 -0.34,3.17 -1.94,3.4 -1.6,0.23 -3.33,-0.92 -3.86,-2.56 -0.53,-1.64 0.34,-3.17 1.94,-3.4 1.6,-0.23 3.33,0.92 3.86,2.56 z m 0.08,-0.01 C 18.87,9.5 17.09,8.32 15.44,8.56 c -1.65,0.24 -2.54,1.8 -2,3.49 0.55,1.69 2.33,2.87 3.98,2.63 1.64,-0.24 2.54,-1.8 1.99,-3.49 z" />&#10;     <path
   id="55"
   class="fil59"
   d="m 19.39,11.19 c 0.54,1.68 -0.35,3.23 -1.98,3.46 -1.64,0.24 -3.4,-0.93 -3.94,-2.6 -0.54,-1.68 0.35,-3.23 1.98,-3.46 1.63,-0.24 3.4,0.93 3.94,2.6 z m 0.08,-0.01 C 18.91,9.46 17.1,8.26 15.42,8.5 c -1.68,0.25 -2.59,1.84 -2.03,3.56 0.55,1.72 2.36,2.92 4.04,2.68 1.68,-0.24 2.59,-1.84 2.04,-3.56 z" />&#10;     <path
   id="56"
   class="fil60"
   d="m 19.44,11.19 c 0.55,1.7 -0.35,3.28 -2.02,3.52 -1.66,0.24 -3.45,-0.95 -4,-2.65 -0.55,-1.71 0.35,-3.29 2.01,-3.53 1.67,-0.24 3.46,0.95 4.01,2.66 z m 0.08,-0.01 C 18.96,9.42 17.12,8.2 15.41,8.45 c -1.71,0.24 -2.64,1.86 -2.08,3.62 0.57,1.75 2.41,2.97 4.12,2.72 1.71,-0.24 2.64,-1.86 2.07,-3.61 z" />&#10;     <path
   id="57"
   class="fil61"
   d="m 19.5,11.18 c 0.56,1.74 -0.36,3.34 -2.06,3.59 -1.69,0.24 -3.52,-0.97 -4.08,-2.71 -0.56,-1.73 0.36,-3.34 2.06,-3.58 1.69,-0.25 3.52,0.96 4.08,2.7 z m 0.08,-0.01 C 19,9.38 17.13,8.14 15.39,8.39 c -1.74,0.25 -2.69,1.9 -2.11,3.68 0.57,1.79 2.45,3.03 4.19,2.78 1.74,-0.25 2.68,-1.9 2.11,-3.68 z" />&#10;     <path
   id="58"
   class="fil62"
   d="m 19.55,11.17 c 0.57,1.77 -0.36,3.4 -2.09,3.65 -1.72,0.25 -3.58,-0.98 -4.15,-2.75 -0.57,-1.77 0.36,-3.4 2.09,-3.65 1.72,-0.25 3.58,0.98 4.15,2.75 z m 0.08,-0.01 C 19.05,9.34 17.14,8.08 15.37,8.33 c -1.77,0.26 -2.73,1.94 -2.15,3.75 0.59,1.82 2.5,3.08 4.27,2.83 1.77,-0.26 2.73,-1.94 2.14,-3.75 z" />&#10;     <path
   id="59"
   class="fil63"
   d="m 19.61,11.16 c 0.58,1.8 -0.38,3.47 -2.13,3.72 -1.76,0.25 -3.65,-1 -4.23,-2.8 -0.58,-1.8 0.37,-3.46 2.13,-3.72 1.75,-0.25 3.65,1 4.23,2.8 z m 0.08,-0.01 c -0.6,-1.84 -2.54,-3.13 -4.34,-2.87 -1.8,0.26 -2.78,1.96 -2.18,3.81 0.59,1.85 2.54,3.13 4.34,2.87 1.8,-0.26 2.77,-1.96 2.18,-3.81 z" />&#10;     <path
   id="60"
   class="fil64"
   d="m 19.66,11.16 c 0.59,1.83 -0.38,3.52 -2.16,3.78 -1.79,0.25 -3.71,-1.02 -4.3,-2.85 -0.59,-1.83 0.38,-3.53 2.16,-3.78 1.79,-0.26 3.71,1.01 4.3,2.85 z m 0.08,-0.02 c -0.6,-1.87 -2.58,-3.18 -4.41,-2.92 -1.83,0.27 -2.82,2 -2.22,3.88 0.61,1.88 2.58,3.18 4.41,2.92 1.83,-0.26 2.83,-2 2.22,-3.88 z" />&#10;     <path
   id="61"
   class="fil65"
   d="m 19.72,11.15 c 0.6,1.86 -0.39,3.58 -2.2,3.84 -1.82,0.26 -3.78,-1.03 -4.38,-2.9 -0.6,-1.86 0.39,-3.58 2.2,-3.84 1.82,-0.26 3.78,1.04 4.38,2.9 z M 19.8,11.14 C 19.18,9.23 17.18,7.9 15.32,8.17 c -1.87,0.26 -2.88,2.03 -2.26,3.94 0.61,1.9 2.62,3.23 4.48,2.97 1.86,-0.27 2.87,-2.04 2.26,-3.94 z" />&#10;     <path
   id="62"
   class="fil66"
   d="m 19.77,11.14 c 0.61,1.89 -0.39,3.64 -2.24,3.91 -1.84,0.26 -3.83,-1.06 -4.44,-2.95 -0.61,-1.89 0.39,-3.64 2.23,-3.91 1.85,-0.26 3.84,1.06 4.45,2.95 z m 0.08,-0.01 C 19.23,9.19 17.19,7.84 15.3,8.11 c -1.89,0.27 -2.92,2.07 -2.29,4 0.62,1.94 2.66,3.29 4.55,3.02 1.89,-0.27 2.92,-2.06 2.29,-4 z" />&#10;     <path
   id="63"
   class="fil67"
   d="m 19.83,11.13 c 0.62,1.93 -0.4,3.7 -2.28,3.97 -1.87,0.27 -3.9,-1.07 -4.52,-2.99 -0.62,-1.92 0.4,-3.7 2.28,-3.97 1.87,-0.27 3.9,1.07 4.52,2.99 z m 0.08,-0.01 C 19.27,9.15 17.2,7.78 15.28,8.05 c -1.92,0.28 -2.96,2.1 -2.33,4.07 0.64,1.97 2.71,3.34 4.63,3.07 1.92,-0.28 2.96,-2.1 2.33,-4.07 z" />&#10;     <path
   id="64"
   class="fil68"
   d="m 19.88,11.12 c 0.63,1.96 -0.4,3.77 -2.31,4.04 -1.91,0.27 -3.96,-1.09 -4.59,-3.04 -0.63,-1.96 0.4,-3.76 2.31,-4.04 1.9,-0.27 3.96,1.09 4.59,3.04 z m 0.08,-0.01 c -0.64,-2 -2.75,-3.39 -4.7,-3.11 -1.95,0.28 -3.01,2.13 -2.36,4.13 0.64,2 2.75,3.4 4.7,3.11 1.95,-0.28 3.01,-2.13 2.36,-4.13 z" />&#10;     <path
   id="65"
   class="fil69"
   d="m 19.93,11.12 c 0.64,1.98 -0.41,3.82 -2.34,4.1 -1.94,0.28 -4.03,-1.11 -4.67,-3.09 -0.64,-1.99 0.41,-3.83 2.35,-4.1 1.94,-0.28 4.02,1.1 4.66,3.09 z m 0.09,-0.02 c -0.66,-2.03 -2.8,-3.44 -4.78,-3.16 -1.98,0.29 -3.05,2.17 -2.4,4.2 0.66,2.03 2.79,3.45 4.77,3.16 1.99,-0.29 3.06,-2.16 2.41,-4.2 z" />&#10;     <path
   id="66"
   class="fil70"
   d="m 19.99,11.11 c 0.65,2.01 -0.42,3.88 -2.38,4.16 -1.97,0.29 -4.09,-1.12 -4.74,-3.14 -0.65,-2.01 0.42,-3.88 2.38,-4.16 1.97,-0.28 4.09,1.12 4.74,3.14 z M 20.07,11.1 C 19.41,9.03 17.24,7.6 15.22,7.89 c -2.01,0.29 -3.1,2.19 -2.43,4.26 0.66,2.06 2.83,3.5 4.84,3.21 2.01,-0.29 3.11,-2.2 2.44,-4.26 z" />&#10;     <path
   id="67"
   class="fil71"
   d="m 20.04,11.1 c 0.66,2.05 -0.42,3.94 -2.42,4.23 -1.99,0.29 -4.15,-1.14 -4.81,-3.19 -0.66,-2.05 0.43,-3.94 2.42,-4.23 2,-0.28 4.15,1.14 4.81,3.19 z m 0.09,-0.01 c -0.68,-2.1 -2.88,-3.56 -4.92,-3.26 -2.05,0.29 -3.15,2.23 -2.48,4.32 0.68,2.1 2.88,3.56 4.92,3.26 2.04,-0.29 3.15,-2.23 2.48,-4.32 z" />&#10;     <path
   id="68"
   class="fil72"
   d="m 20.1,11.09 c 0.67,2.08 -0.43,4 -2.46,4.29 -2.03,0.3 -4.21,-1.15 -4.88,-3.23 -0.67,-2.08 0.43,-4 2.46,-4.29 2.02,-0.29 4.21,1.15 4.88,3.23 z m 0.08,-0.01 C 19.5,8.96 17.26,7.47 15.19,7.77 c -2.07,0.3 -3.2,2.27 -2.51,4.39 0.68,2.13 2.92,3.61 4.99,3.31 2.07,-0.3 3.2,-2.26 2.51,-4.39 z" />&#10;     <path
   id="69"
   class="fil73"
   d="m 20.15,11.08 c 0.68,2.11 -0.43,4.06 -2.49,4.36 -2.06,0.3 -4.28,-1.17 -4.96,-3.28 -0.68,-2.11 0.44,-4.06 2.5,-4.36 2.06,-0.3 4.27,1.17 4.95,3.28 z m 0.09,-0.01 c -0.7,-2.15 -2.97,-3.66 -5.07,-3.35 -2.1,0.3 -3.24,2.29 -2.55,4.45 0.7,2.16 2.96,3.66 5.07,3.36 2.1,-0.31 3.24,-2.3 2.55,-4.46 z" />&#10;     <path
   id="70"
   class="fil74"
   d="m 20.21,11.08 c 0.69,2.14 -0.44,4.12 -2.53,4.42 -2.09,0.3 -4.34,-1.19 -5.03,-3.33 -0.69,-2.15 0.44,-4.12 2.53,-4.43 2.09,-0.3 4.34,1.2 5.03,3.34 z m 0.08,-0.02 c -0.7,-2.18 -3,-3.71 -5.14,-3.4 -2.13,0.31 -3.29,2.33 -2.58,4.52 0.7,2.18 3,3.71 5.14,3.4 2.13,-0.31 3.29,-2.33 2.58,-4.52 z" />&#10;     <path
   id="71"
   class="fil75"
   d="m 20.26,11.07 c 0.7,2.17 -0.45,4.18 -2.56,4.48 -2.12,0.31 -4.41,-1.2 -5.11,-3.38 -0.7,-2.17 0.45,-4.18 2.57,-4.48 2.12,-0.31 4.4,1.21 5.1,3.38 z m 0.09,-0.01 C 19.63,8.84 17.3,7.29 15.13,7.6 c -2.16,0.32 -3.33,2.37 -2.62,4.59 0.72,2.21 3.05,3.76 5.21,3.45 2.17,-0.31 3.34,-2.37 2.63,-4.58 z" />&#10;     <path
   id="72"
   class="fil76"
   d="m 20.32,11.06 c 0.71,2.2 -0.46,4.24 -2.61,4.55 -2.14,0.31 -4.46,-1.23 -5.17,-3.43 -0.71,-2.2 0.46,-4.24 2.6,-4.55 2.15,-0.31 4.47,1.23 5.18,3.43 z M 20.4,11.05 C 19.68,8.8 17.31,7.23 15.12,7.55 c -2.2,0.31 -3.39,2.39 -2.66,4.64 0.72,2.25 3.09,3.82 5.28,3.5 2.19,-0.31 3.39,-2.39 2.66,-4.64 z" />&#10;     <path
   id="73"
   class="fil77"
   d="m 20.37,11.05 c 0.72,2.24 -0.46,4.3 -2.64,4.62 -2.18,0.31 -4.53,-1.25 -5.25,-3.48 -0.72,-2.23 0.47,-4.3 2.65,-4.61 2.17,-0.32 4.52,1.24 5.24,3.47 z m 0.09,-0.01 C 19.72,8.76 17.32,7.17 15.1,7.49 c -2.23,0.32 -3.43,2.43 -2.7,4.71 0.74,2.28 3.14,3.87 5.36,3.55 2.22,-0.32 3.43,-2.43 2.7,-4.71 z" />&#10;     <path
   id="74"
   class="fil78"
   d="m 20.43,11.04 c 0.73,2.27 -0.47,4.36 -2.68,4.68 -2.21,0.32 -4.59,-1.26 -5.32,-3.52 -0.73,-2.27 0.47,-4.36 2.68,-4.68 2.21,-0.32 4.59,1.26 5.32,3.52 z m 0.08,-0.01 C 19.77,8.72 17.33,7.11 15.08,7.44 12.83,7.76 11.6,9.9 12.35,12.21 c 0.74,2.31 3.17,3.92 5.43,3.6 2.25,-0.33 3.47,-2.47 2.73,-4.78 z" />&#10;     <path
   id="75"
   class="fil79"
   d="m 20.48,11.04 c 0.74,2.29 -0.47,4.42 -2.71,4.74 -2.24,0.32 -4.65,-1.28 -5.39,-3.57 -0.74,-2.3 0.47,-4.42 2.71,-4.75 2.24,-0.32 4.65,1.28 5.39,3.58 z m 0.08,-0.01 c -0.75,-2.35 -3.21,-3.98 -5.5,-3.65 -2.28,0.33 -3.52,2.49 -2.77,4.84 0.76,2.34 3.22,3.97 5.51,3.64 2.28,-0.33 3.52,-2.49 2.76,-4.83 z" />&#10;     <path
   id="76"
   class="fil80"
   d="m 20.54,11.03 c 0.75,2.33 -0.48,4.48 -2.75,4.8 -2.27,0.33 -4.72,-1.29 -5.47,-3.62 -0.75,-2.32 0.48,-4.48 2.75,-4.8 2.27,-0.33 4.72,1.29 5.47,3.62 z m 0.08,-0.01 c -0.77,-2.38 -3.26,-4.03 -5.58,-3.7 -2.31,0.34 -3.57,2.53 -2.8,4.9 0.76,2.38 3.26,4.03 5.57,3.7 2.32,-0.34 3.57,-2.53 2.81,-4.9 z" />&#10;     <path
   id="77"
   class="fil81"
   d="m 20.59,11.02 c 0.76,2.36 -0.49,4.54 -2.79,4.87 -2.29,0.33 -4.77,-1.31 -5.53,-3.67 -0.76,-2.36 0.48,-4.54 2.78,-4.87 2.3,-0.33 4.78,1.31 5.54,3.67 z m 0.08,-0.01 C 19.9,8.6 17.37,6.93 15.03,7.27 c -2.35,0.34 -3.62,2.56 -2.85,4.96 0.78,2.41 3.31,4.08 5.65,3.74 2.35,-0.33 3.62,-2.56 2.84,-4.96 z" />&#10;     <path
   id="78"
   class="fil82"
   d="m 20.65,11.01 c 0.77,2.39 -0.5,4.6 -2.83,4.94 -2.33,0.33 -4.84,-1.33 -5.61,-3.72 -0.77,-2.39 0.5,-4.6 2.82,-4.93 2.33,-0.34 4.85,1.32 5.62,3.71 z M 20.73,11 C 19.94,8.57 17.38,6.87 15.01,7.21 c -2.38,0.34 -3.67,2.6 -2.88,5.03 0.78,2.44 3.35,4.13 5.72,3.79 2.38,-0.34 3.66,-2.59 2.88,-5.03 z" />&#10;     <path
   id="79"
   class="fil83"
   d="m 20.7,11.01 c 0.78,2.42 -0.5,4.65 -2.86,4.99 -2.36,0.34 -4.9,-1.34 -5.68,-3.76 -0.78,-2.42 0.5,-4.66 2.86,-5 2.36,-0.34 4.9,1.35 5.68,3.77 z m 0.08,-0.02 C 19.99,8.53 17.39,6.81 14.99,7.16 c -2.41,0.34 -3.71,2.62 -2.92,5.09 0.8,2.46 3.39,4.18 5.8,3.84 2.4,-0.35 3.71,-2.63 2.91,-5.1 z" />&#10;     <path
   id="80"
   class="fil84"
   d="m 20.76,11 c 0.79,2.45 -0.51,4.71 -2.9,5.06 C 15.47,16.4 12.89,14.7 12.1,12.24 11.31,9.79 12.61,7.53 15,7.18 17.39,6.84 19.97,8.55 20.76,11 Z m 0.08,-0.01 C 20.03,8.49 17.41,6.75 14.97,7.1 c -2.43,0.35 -3.76,2.66 -2.95,5.16 0.8,2.49 3.43,4.23 5.87,3.88 2.43,-0.35 3.75,-2.66 2.95,-5.15 z" />&#10;     <path
   id="81"
   class="fil85"
   d="m 20.81,10.99 c 0.8,2.48 -0.51,4.78 -2.93,5.12 -2.42,0.35 -5.03,-1.38 -5.83,-3.86 -0.8,-2.48 0.51,-4.77 2.93,-5.12 2.42,-0.35 5.03,1.38 5.83,3.86 z m 0.08,-0.01 C 20.08,8.45 17.42,6.69 14.95,7.04 c -2.46,0.36 -3.8,2.7 -2.99,5.22 0.82,2.53 3.48,4.29 5.94,3.94 2.47,-0.36 3.81,-2.69 2.99,-5.22 z" />&#10;     <path
   id="82"
   class="fil86"
   d="m 20.87,10.98 c 0.81,2.51 -0.52,4.84 -2.97,5.19 -2.46,0.35 -5.1,-1.4 -5.91,-3.91 -0.81,-2.51 0.52,-4.84 2.97,-5.19 2.45,-0.35 5.1,1.4 5.91,3.91 z m 0.08,-0.01 C 20.12,8.41 17.43,6.63 14.94,6.99 c -2.5,0.36 -3.86,2.72 -3.03,5.28 0.82,2.56 3.52,4.34 6.01,3.99 2.5,-0.36 3.85,-2.73 3.03,-5.29 z" />&#10;     <path
   id="83"
   class="fil86"
   d="m 20.92,10.97 c 0.82,2.55 -0.53,4.9 -3.01,5.26 -2.48,0.35 -5.15,-1.42 -5.97,-3.96 -0.82,-2.55 0.52,-4.9 3,-5.26 2.49,-0.35 5.16,1.42 5.98,3.96 z M 21,10.96 C 20.17,8.37 17.44,6.57 14.92,6.93 c -2.53,0.36 -3.9,2.76 -3.07,5.35 0.84,2.59 3.56,4.4 6.09,4.03 2.53,-0.36 3.9,-2.76 3.06,-5.35 z" />&#10;     <path
   id="84"
   class="fil87"
   d="m 20.98,10.97 c 0.83,2.57 -0.54,4.95 -3.05,5.31 -2.51,0.37 -5.22,-1.43 -6.05,-4 -0.83,-2.58 0.54,-4.96 3.05,-5.32 2.51,-0.36 5.22,1.43 6.05,4.01 z m 0.08,-0.02 C 20.21,8.33 17.46,6.51 14.9,6.87 c -2.56,0.37 -3.94,2.8 -3.1,5.42 0.84,2.62 3.6,4.45 6.16,4.08 2.56,-0.37 3.94,-2.79 3.1,-5.42 z" />&#10;     <path
   id="85"
   class="fil88"
   d="m 21.03,10.96 c 0.84,2.6 -0.54,5.01 -3.08,5.38 -2.54,0.37 -5.28,-1.45 -6.12,-4.06 -0.84,-2.6 0.54,-5.01 3.08,-5.38 2.54,-0.36 5.28,1.45 6.12,4.06 z m 0.08,-0.01 c -0.85,-2.66 -3.64,-4.5 -6.23,-4.13 -2.59,0.37 -3.99,2.82 -3.13,5.48 0.85,2.65 3.64,4.5 6.23,4.12 2.58,-0.37 3.99,-2.82 3.13,-5.47 z" />&#10;     <path
   id="86"
   class="fil88"
   d="m 21.09,10.95 c 0.85,2.64 -0.55,5.08 -3.12,5.45 -2.57,0.37 -5.35,-1.47 -6.2,-4.11 -0.85,-2.64 0.55,-5.07 3.12,-5.44 2.57,-0.37 5.35,1.46 6.2,4.1 z m 0.08,-0.01 C 20.3,8.25 17.48,6.38 14.86,6.76 c -2.61,0.38 -4.03,2.86 -3.17,5.54 0.87,2.69 3.69,4.56 6.31,4.18 2.61,-0.38 4.03,-2.86 3.17,-5.54 z" />&#10;     <path
   id="87"
   class="fil89"
   d="m 21.14,10.94 c 0.86,2.67 -0.55,5.14 -3.15,5.51 -2.61,0.38 -5.41,-1.48 -6.27,-4.15 -0.86,-2.67 0.55,-5.14 3.15,-5.51 2.6,-0.37 5.41,1.48 6.27,4.15 z m 0.08,-0.01 C 20.35,8.22 17.49,6.32 14.84,6.71 c -2.64,0.38 -4.08,2.89 -3.2,5.6 0.87,2.72 3.73,4.61 6.37,4.23 2.65,-0.39 4.09,-2.9 3.21,-5.61 z" />&#10;     <path
   id="88"
   class="fil89"
   d="m 21.19,10.93 c 0.87,2.7 -0.55,5.2 -3.19,5.58 -2.63,0.38 -5.47,-1.5 -6.34,-4.2 -0.87,-2.7 0.56,-5.2 3.19,-5.58 2.64,-0.38 5.47,1.51 6.34,4.2 z m 0.09,-0.01 C 20.39,8.18 17.5,6.26 14.83,6.65 c -2.68,0.39 -4.13,2.92 -3.25,5.67 0.89,2.75 3.77,4.66 6.45,4.27 2.68,-0.38 4.13,-2.92 3.25,-5.67 z" />&#10;     <path
   id="89"
   class="fil89"
   d="m 21.25,10.93 c 0.88,2.73 -0.57,5.25 -3.23,5.63 -2.66,0.39 -5.53,-1.51 -6.41,-4.24 -0.88,-2.73 0.56,-5.26 3.23,-5.64 2.66,-0.39 5.53,1.52 6.41,4.25 z m 0.08,-0.02 C 20.44,8.14 17.52,6.2 14.81,6.59 c -2.71,0.39 -4.18,2.96 -3.28,5.74 0.89,2.77 3.81,4.71 6.52,4.32 2.71,-0.39 4.18,-2.96 3.28,-5.74 z" />&#10;     <path
   id="90"
   class="fil90"
   d="m 21.3,10.92 c 0.89,2.76 -0.57,5.31 -3.26,5.7 -2.69,0.39 -5.6,-1.54 -6.49,-4.3 -0.89,-2.76 0.57,-5.31 3.27,-5.7 2.69,-0.39 5.59,1.54 6.48,4.3 z m 0.09,-0.01 C 20.48,8.1 17.53,6.14 14.79,6.54 c -2.74,0.39 -4.22,2.99 -3.32,5.8 0.91,2.8 3.86,4.76 6.6,4.36 2.74,-0.39 4.22,-2.99 3.32,-5.79 z" />&#10;     <path
   id="91"
   class="fil91"
   d="m 21.36,10.91 c 0.9,2.79 -0.58,5.37 -3.3,5.77 -2.72,0.39 -5.66,-1.56 -6.56,-4.35 -0.9,-2.79 0.58,-5.37 3.3,-5.76 2.72,-0.4 5.66,1.55 6.56,4.34 z M 21.44,10.9 C 20.53,8.06 17.54,6.08 14.77,6.48 12,6.88 10.5,9.5 11.42,12.34 c 0.91,2.84 3.9,4.82 6.67,4.42 2.76,-0.4 4.27,-3.02 3.35,-5.86 z" />&#10;     <path
   id="92"
   class="fil91"
   d="m 21.41,10.9 c 0.91,2.83 -0.58,5.44 -3.33,5.83 -2.76,0.4 -5.73,-1.57 -6.64,-4.39 -0.91,-2.82 0.59,-5.43 3.34,-5.83 2.75,-0.4 5.72,1.57 6.63,4.39 z M 21.5,10.89 C 20.57,8.02 17.55,6.02 14.75,6.42 c -2.79,0.41 -4.31,3.06 -3.39,5.93 0.93,2.87 3.95,4.87 6.74,4.47 2.8,-0.41 4.32,-3.06 3.4,-5.93 z" />&#10;     <path
   id="93"
   class="fil4"
   d="m 21.47,10.89 c 0.92,2.86 -0.59,5.5 -3.38,5.9 -2.78,0.4 -5.78,-1.59 -6.7,-4.44 -0.92,-2.86 0.59,-5.5 3.37,-5.9 2.79,-0.4 5.79,1.59 6.71,4.44 z m 0.08,-0.01 c -0.93,-2.9 -3.99,-4.92 -6.81,-4.51 -2.83,0.41 -4.37,3.09 -3.43,5.99 0.93,2.9 3.98,4.92 6.81,4.51 2.83,-0.4 4.37,-3.09 3.43,-5.99 z" />&#10;     <path
   id="94"
   class="fil4"
   d="m 21.52,10.89 c 0.93,2.88 -0.59,5.55 -3.41,5.96 -2.81,0.4 -5.85,-1.61 -6.78,-4.5 -0.93,-2.88 0.6,-5.55 3.42,-5.95 2.81,-0.41 5.84,1.6 6.77,4.49 z m 0.09,-0.01 C 20.66,7.94 17.58,5.9 14.72,6.31 c -2.86,0.41 -4.41,3.13 -3.47,6.06 0.95,2.93 4.03,4.97 6.89,4.56 2.86,-0.41 4.41,-3.12 3.47,-6.05 z" />&#10;     <path
   id="95"
   class="fil4"
   d="m 21.58,10.88 c 0.94,2.92 -0.61,5.61 -3.45,6.02 -2.84,0.41 -5.91,-1.62 -6.85,-4.54 -0.94,-2.91 0.6,-5.61 3.45,-6.02 2.84,-0.41 5.91,1.62 6.85,4.54 z m 0.08,-0.01 C 20.71,7.9 17.59,5.84 14.7,6.26 c -2.89,0.41 -4.46,3.15 -3.5,6.11 0.95,2.97 4.07,5.03 6.96,4.62 2.89,-0.42 4.46,-3.16 3.5,-6.12 z" />&#10;     <path
   id="96"
   class="fil4"
   d="m 21.63,10.87 c 0.95,2.95 -0.61,5.67 -3.48,6.09 -2.88,0.41 -5.98,-1.64 -6.93,-4.59 -0.95,-2.95 0.61,-5.67 3.49,-6.09 2.87,-0.41 5.97,1.64 6.92,4.59 z m 0.09,-0.01 C 20.75,7.87 17.6,5.78 14.68,6.2 c -2.92,0.42 -4.5,3.19 -3.54,6.18 0.97,3 4.12,5.08 7.04,4.66 2.92,-0.42 4.5,-3.19 3.54,-6.18 z" />&#10;     <path
   id="97"
   class="fil4"
   d="m 21.69,10.86 c 0.96,2.98 -0.62,5.74 -3.52,6.15 -2.91,0.42 -6.04,-1.65 -7,-4.63 -0.96,-2.98 0.62,-5.73 3.52,-6.15 2.91,-0.42 6.04,1.65 7,4.63 z m 0.08,-0.01 C 20.8,7.83 17.61,5.72 14.66,6.14 c -2.95,0.43 -4.55,3.23 -3.57,6.25 0.97,3.03 4.15,5.13 7.1,4.71 2.95,-0.43 4.55,-3.22 3.58,-6.25 z" />&#10;     <path
   id="98"
   class="fil4"
   d="m 21.74,10.86 c 0.97,3 -0.62,5.79 -3.55,6.21 -2.94,0.42 -6.1,-1.67 -7.07,-4.68 -0.97,-3.01 0.62,-5.8 3.55,-6.22 2.94,-0.42 6.1,1.68 7.07,4.69 z m 0.08,-0.02 C 20.84,7.79 17.63,5.66 14.65,6.09 c -2.98,0.43 -4.6,3.25 -3.62,6.31 0.99,3.05 4.2,5.18 7.18,4.75 2.98,-0.43 4.6,-3.25 3.61,-6.31 z" />&#10;     <path
   id="99"
   class="fil4"
   d="m 21.8,10.85 c 0.98,3.04 -0.63,5.85 -3.6,6.28 -2.96,0.42 -6.16,-1.7 -7.14,-4.74 -0.98,-3.04 0.63,-5.85 3.59,-6.27 2.97,-0.43 6.17,1.69 7.15,4.73 z m 0.08,-0.01 c -1,-3.09 -4.24,-5.24 -7.25,-4.81 -3.01,0.44 -4.65,3.29 -3.65,6.38 0.99,3.08 4.24,5.23 7.25,4.8 3.01,-0.43 4.64,-3.29 3.65,-6.37 z" />&#10;     <path
   id="100"
   class="fil4"
   d="m 21.85,10.84 c 0.99,3.07 -0.63,5.91 -3.63,6.34 -2.99,0.43 -6.22,-1.71 -7.21,-4.78 -0.99,-3.07 0.63,-5.91 3.63,-6.34 2.99,-0.43 6.22,1.71 7.21,4.78 z m 0.06,-0.01 c -1,-3.1 -4.27,-5.26 -7.29,-4.83 -3.03,0.44 -4.67,3.31 -3.67,6.41 1,3.1 4.26,5.26 7.29,4.83 3.02,-0.44 4.67,-3.31 3.67,-6.41 z" />&#10;    </g>&#10;   </g>&#10;   <path
   class="fil1"
   d="m 21.88,7.05 c 0.07,0 0.21,0.02 0.28,0.03 0.07,0.01 0.07,0.02 0.07,0.04 0,0.02 -0.01,0.05 -0.02,0.07 C 22.2,7.22 22.18,7.24 22.17,7.26 22.15,7.27 22.13,7.28 22.12,7.29 22.1,7.3 22.08,7.31 22.06,7.31 22.03,7.31 22,7.31 21.97,7.3 21.94,7.3 21.92,7.28 21.9,7.26 21.88,7.24 21.86,7.22 21.84,7.2 21.83,7.17 21.82,7.15 21.81,7.13 21.8,7.11 21.8,7.08 21.8,7.07 c 0,-0.02 0.01,-0.03 0.08,-0.02 z"
   id="path9" />&#10;   <g
   id="_2812570510720">&#10;    <path
   class="fil92"
   d="m 28.45,10.44 c 0.27,0.48 0.31,0.55 0.33,0.59 0.01,0.03 0.01,0.04 -0.11,0.18 -0.11,0.14 -0.34,0.42 -0.46,0.56 -0.11,0.14 -0.11,0.15 -0.11,0.16 0,0.01 0,0.03 0.02,0.07 0.01,0.05 0.04,0.13 0.05,0.21 0.02,0.07 0.04,0.14 0.05,0.22 0.02,0.08 0.03,0.16 0.03,0.24 0.01,0.07 0.01,0.14 0.01,0.21 0,0.07 -0.01,0.14 -0.02,0.21 -0.01,0.07 -0.02,0.15 -0.04,0.22 -0.02,0.06 -0.04,0.12 -0.06,0.19 -0.03,0.06 -0.07,0.14 -0.1,0.21 -0.04,0.07 -0.08,0.13 -0.12,0.18 -0.04,0.05 -0.08,0.1 -0.12,0.14 -0.04,0.05 -0.09,0.09 -0.14,0.14 -0.05,0.04 -0.11,0.09 -0.16,0.13 -0.05,0.04 -0.1,0.07 -0.12,0.09 -0.03,0.02 -0.03,0.03 -0.04,0.05 -0.01,0.01 -0.01,0.03 -0.02,0.07 0,0.03 -0.01,0.08 -0.02,0.14 -0.02,0.07 -0.03,0.15 -0.06,0.24 -0.02,0.08 -0.04,0.17 -0.07,0.24 -0.02,0.07 -0.05,0.14 -0.08,0.21 -0.03,0.07 -0.07,0.14 -0.11,0.21 -0.05,0.07 -0.09,0.14 -0.13,0.18 -0.04,0.05 -0.07,0.08 -0.11,0.11 -0.03,0.03 -0.06,0.05 -0.1,0.08 -0.03,0.03 -0.07,0.05 -0.11,0.08 -0.05,0.02 -0.09,0.04 -0.15,0.07 -0.07,0.03 -0.15,0.06 -0.23,0.08 -0.07,0.02 -0.15,0.03 -0.22,0.04 -0.07,0.02 -0.13,0.02 -0.21,0.02 -0.07,0.01 -0.16,0.01 -0.23,0.01 -0.07,0 -0.14,-0.01 -0.2,-0.01 -0.07,-0.01 -0.14,-0.02 -0.21,-0.03 -0.07,-0.01 -0.14,-0.02 -0.24,-0.05 -0.09,-0.02 -0.21,-0.05 -0.33,-0.09 -0.12,-0.03 -0.23,-0.07 -0.37,-0.12 -0.13,-0.06 -0.29,-0.12 -0.46,-0.2 -0.17,-0.09 -0.36,-0.18 -0.55,-0.28 -0.18,-0.09 -0.36,-0.18 -0.45,-0.23 -0.1,-0.05 -0.11,-0.05 -0.13,-0.06 -0.02,0 -0.05,0 -0.17,0 -0.12,0 -0.34,0 -0.5,0 -0.16,0 -0.26,0.01 -0.36,0.01 -0.1,0.01 -0.2,0.01 -0.31,0.02 -0.1,0 -0.23,0.01 -0.33,0.01 -0.11,0 -0.2,0 -0.29,0 -0.08,0 -0.16,0 -0.26,0 -0.1,0 -0.21,0.01 -0.32,0 -0.11,0 -0.21,0 -0.34,-0.02 -0.13,-0.01 -0.3,-0.03 -0.43,-0.05 -0.13,-0.02 -0.23,-0.03 -0.36,-0.05 -0.13,-0.02 -0.29,-0.05 -0.45,-0.09 -0.16,-0.03 -0.32,-0.07 -0.48,-0.11 -0.15,-0.05 -0.3,-0.09 -0.43,-0.14 -0.13,-0.04 -0.23,-0.08 -0.35,-0.13 -0.12,-0.05 -0.25,-0.11 -0.38,-0.17 -0.12,-0.06 -0.23,-0.12 -0.36,-0.19 -0.12,-0.07 -0.24,-0.15 -0.36,-0.23 -0.11,-0.08 -0.21,-0.16 -0.31,-0.25 -0.09,-0.1 -0.19,-0.2 -0.27,-0.3 -0.08,-0.1 -0.14,-0.19 -0.21,-0.29 -0.06,-0.1 -0.11,-0.2 -0.16,-0.33 -0.06,-0.12 -0.11,-0.28 -0.14,-0.4 -0.04,-0.11 -0.05,-0.2 -0.06,-0.3 -0.01,-0.1 -0.02,-0.23 -0.02,-0.36 0,-0.14 0,-0.29 0.01,-0.41 0.01,-0.13 0.03,-0.23 0.05,-0.33 0.02,-0.1 0.04,-0.2 0.06,-0.29 0.02,-0.1 0.05,-0.19 0.08,-0.3 0.02,-0.12 0.06,-0.24 0.08,-0.35 0.02,-0.11 0.04,-0.2 0.05,-0.26 0.01,-0.05 0.02,-0.07 0.02,-0.13 0.01,-0.06 0.02,-0.16 0.03,-0.26 0.01,-0.1 0.01,-0.21 0,-0.33 C 15.28,9 15.27,8.87 15.25,8.75 15.24,8.64 15.23,8.54 15.2,8.44 15.18,8.34 15.14,8.23 15.11,8.14 15.07,8.04 15.04,7.95 15.01,7.88 14.98,7.81 14.96,7.76 14.92,7.68 14.88,7.61 14.83,7.51 14.78,7.42 14.72,7.32 14.67,7.23 14.6,7.14 14.54,7.05 14.48,6.96 14.42,6.88 14.36,6.8 14.3,6.72 14.25,6.65 14.2,6.58 14.15,6.52 14.11,6.45 14.06,6.38 14.01,6.3 13.96,6.21 13.9,6.12 13.85,6.02 13.81,5.95 13.78,5.87 13.76,5.81 13.74,5.78 13.73,5.76 13.73,5.76 13.7,5.71 13.68,5.65 13.64,5.54 13.61,5.45 13.57,5.36 13.55,5.28 13.54,5.24 c -0.01,-0.04 0,-0.05 0.02,-0.07 0.02,-0.01 0.04,-0.04 0.06,-0.06 0.01,-0.02 0.01,-0.05 0.01,-0.07 0,-0.02 0,-0.03 0,-0.09 0,-0.06 -0.01,-0.16 -0.01,-0.28 C 13.61,4.56 13.6,4.42 13.59,4.21 13.58,4.01 13.56,3.73 13.55,3.42 13.53,3.11 13.52,2.76 13.52,2.52 c 0,-0.25 0,-0.39 0.01,-0.51 0,-0.12 0.01,-0.22 0.02,-0.32 0,-0.09 0.02,-0.19 0.04,-0.29 0.01,-0.1 0.04,-0.21 0.06,-0.3 0.03,-0.08 0.05,-0.14 0.08,-0.19 0.03,-0.05 0.06,-0.09 0.1,-0.12 0.04,-0.03 0.07,-0.05 0.11,-0.06 0.03,-0.02 0.07,-0.02 0.12,-0.03 0.05,0 0.12,-0.01 0.2,-0.01 0.08,-0.01 0.17,-0.01 0.27,-0.01 0.09,0 0.19,0.01 0.29,0.02 0.1,0.01 0.19,0.03 0.31,0.06 0.12,0.03 0.28,0.07 0.4,0.12 0.12,0.04 0.21,0.08 0.29,0.12 0.09,0.04 0.16,0.08 0.23,0.12 0.08,0.05 0.16,0.1 0.24,0.16 0.08,0.06 0.16,0.12 0.23,0.19 0.08,0.07 0.16,0.14 0.23,0.21 0.07,0.07 0.14,0.14 0.2,0.21 0.06,0.08 0.12,0.16 0.18,0.23 0.05,0.06 0.1,0.12 0.13,0.16 0.03,0.03 0.04,0.04 0.07,0.05 0.03,0.01 0.07,0.01 0.16,0.02 0.09,0 0.23,0 0.97,0 0.73,-0.01 2.07,-0.01 2.74,-0.02 0.68,0 0.7,0 0.72,-0.01 0.02,0 0.05,-0.01 0.08,-0.02 0.03,-0.02 0.06,-0.04 0.15,-0.11 0.1,-0.07 0.26,-0.2 0.45,-0.34 0.19,-0.14 0.42,-0.3 0.58,-0.41 0.17,-0.11 0.27,-0.17 0.39,-0.24 0.12,-0.07 0.25,-0.14 0.36,-0.19 0.1,-0.05 0.17,-0.08 0.23,-0.1 0.06,-0.02 0.11,-0.03 0.15,-0.04 0.04,0 0.07,-0.01 0.11,0 0.03,0 0.06,0.01 0.09,0.02 0.03,0.01 0.06,0.03 0.09,0.05 0.03,0.02 0.05,0.04 0.08,0.06 0.02,0.02 0.04,0.03 0.05,0.05 0.02,0.02 0.04,0.04 0.06,0.07 0.02,0.03 0.05,0.06 0.08,0.1 0.02,0.04 0.05,0.09 0.08,0.16 0.03,0.07 0.07,0.15 0.09,0.23 0.03,0.07 0.05,0.14 0.06,0.2 0.01,0.06 0.02,0.11 0.03,0.16 0,0.05 0.01,0.1 0.01,0.16 0,0.05 0,0.11 0,0.17 0,0.05 0,0.11 0,0.16 0,0.05 0,0.09 -0.01,0.14 0,0.05 -0.01,0.12 -0.02,0.18 0,0.06 -0.01,0.12 -0.02,0.19 -0.01,0.07 -0.02,0.14 -0.03,0.22 -0.02,0.07 -0.03,0.14 -0.04,0.19 -0.01,0.06 -0.03,0.11 -0.04,0.18 -0.02,0.07 -0.04,0.16 -0.06,0.24 -0.02,0.08 -0.04,0.15 -0.06,0.21 -0.01,0.05 -0.03,0.1 -0.04,0.15 -0.02,0.06 -0.04,0.12 -0.06,0.17 -0.01,0.04 -0.03,0.07 -0.03,0.1 -0.01,0.02 -0.02,0.04 -0.02,0.05 0,0.01 0.01,0.03 0.02,0.04 0.01,0.01 0.02,0.03 0.04,0.04 0.02,0.02 0.04,0.03 0.08,0.06 0.04,0.03 0.09,0.08 0.37,0.31 0.27,0.24 0.78,0.67 1.06,0.91 0.29,0.24 0.36,0.3 0.4,0.35 0.05,0.04 0.07,0.07 0.08,0.09 0.02,0.02 0.03,0.04 0.03,0.06 0,0.01 0,0.02 0,0.04 0,0.01 -0.01,0.03 -0.02,0.05 0,0.02 -0.02,0.05 -0.04,0.12 -0.03,0.08 -0.07,0.2 -0.1,0.28 -0.03,0.08 -0.05,0.12 -0.06,0.15 -0.01,0.03 0,0.05 0,0.08 0.01,0.03 0.03,0.07 0.06,0.14 0.04,0.08 0.1,0.19 0.2,0.37 0.1,0.17 0.23,0.41 0.54,0.96 0.32,0.56 0.81,1.44 1.08,1.91 z"
   id="path10" />&#10;    <path
   class="fil93 str3"
   d="m 28.08,11.92 c 0.23,-0.29 0.47,-0.59 0.58,-0.73 0.12,-0.14 0.12,-0.14 0.12,-0.14 z"
   id="path11" />&#10;    <polygon
   class="fil94"
   points="28.91,11.05 28.01,11.99 27.56,12.6 27.28,12.12 27,11.75 26.69,11.45 26.43,11.23 26.17,11.06 25.74,10.85 26.25,10.74 27.18,10.74 "
   id="polygon11" />&#10;    <polygon
   class="fil94"
   points="25.87,14.46 25.51,14.54 25.14,14.63 24.33,14.87 25.58,14.31 26.46,13.77 26.88,13.48 27.16,13.25 27.46,12.96 27.32,13.31 27.22,13.67 27.17,13.92 27.17,13.99 27.17,14.11 27.17,14.23 27.17,14.3 27.2,14.37 27.03,14.32 26.88,14.32 26.66,14.33 26.41,14.37 26.12,14.4 "
   id="polygon12" />&#10;    <path
   class="fil95"
   d="m 20.66,7.12 c -0.02,0.05 0.07,0.15 0.15,0.24 0.09,0.1 0.18,0.19 0.27,0.28 0.09,0.1 0.2,0.19 0.31,0.29 0.12,0.09 0.25,0.18 0.34,0.25 0.1,0.06 0.16,0.1 0.22,0.13 0.05,0.02 0.09,0.04 0.13,0.05 0.04,0.01 0.08,0.02 0.13,0.03 0.06,0 0.13,0 0.19,0 0.05,-0.01 0.08,-0.02 0.11,-0.03 0.03,-0.02 0.07,-0.03 0.1,-0.06 0.02,-0.02 0.05,-0.05 0.08,-0.08 0.03,-0.04 0.06,-0.08 0.08,-0.11 0.03,-0.02 0.04,-0.04 0.05,-0.06 0.01,-0.03 0.03,-0.06 0.04,-0.09 0.01,-0.03 0.02,-0.06 0.03,-0.08 0.01,-0.03 0.02,-0.06 0.03,-0.09 0,-0.03 0.01,-0.07 0.02,-0.12 0.01,-0.05 0.02,-0.1 0.02,-0.17 0.01,-0.07 0.01,-0.16 0.01,-0.2 0,-0.05 -0.01,-0.05 -0.01,-0.05 C 22.95,7.24 22.93,7.24 22.89,7.22 22.84,7.21 22.76,7.18 22.72,7.17 22.67,7.15 22.67,7.15 22.66,7.16 c 0,0.01 0,0.02 0,0.05 0,0.02 0,0.06 0,0.1 0,0.03 0,0.07 0,0.1 0,0.04 -0.01,0.07 -0.01,0.1 0,0.03 -0.01,0.05 -0.02,0.08 0,0.03 -0.02,0.06 -0.03,0.09 C 22.58,7.72 22.56,7.76 22.53,7.79 22.5,7.83 22.47,7.86 22.44,7.89 22.4,7.93 22.36,7.95 22.33,7.97 22.29,7.99 22.26,8 22.24,8 22.21,8.01 22.18,8.01 22.14,8.01 22.11,8.01 22.05,8.01 22.02,8 21.98,7.99 21.95,7.98 21.92,7.97 21.89,7.95 21.85,7.92 21.81,7.88 21.77,7.84 21.72,7.78 21.68,7.72 21.64,7.65 21.61,7.58 21.6,7.49 21.59,7.4 21.59,7.3 21.6,7.23 21.61,7.15 21.63,7.1 21.63,7.07 c 0,-0.02 -0.02,-0.02 -0.06,-0.02 -0.05,0 -0.12,0 -0.22,0 -0.11,0 -0.26,0 -0.4,0 -0.14,0.01 -0.27,0.02 -0.29,0.07 z"
   id="path12" />&#10;    <path
   class="fil1"
   d="m 21.85,7.03 c 0.08,0 0.22,0.02 0.29,0.03 0.07,0.01 0.07,0.02 0.06,0.04 0,0.02 -0.01,0.05 -0.02,0.08 -0.01,0.02 -0.02,0.04 -0.04,0.06 -0.01,0.01 -0.03,0.03 -0.05,0.03 -0.02,0.01 -0.03,0.02 -0.06,0.02 -0.02,0 -0.06,0 -0.09,-0.01 -0.03,0 -0.05,-0.02 -0.07,-0.04 C 21.85,7.22 21.83,7.2 21.82,7.18 21.8,7.15 21.79,7.13 21.79,7.11 21.78,7.09 21.78,7.07 21.78,7.05 c 0,-0.01 0,-0.03 0.07,-0.02 z"
   id="path13" />&#10;   </g>&#10;  </g></g>&#10; </g>&#10;</svg>
