<?xml version="1.0" standalone="no"?>
<!DOCTYPE svg PUBLIC "-//W3C//DTD SVG 20010904//EN" "http://www.w3.org/TR/2001/REC-SVG-20010904/DTD/svg10.dtd">
<!-- Created using Krita: https://krita.org -->
<svg xmlns="http://www.w3.org/2000/svg" 
    xmlns:xlink="http://www.w3.org/1999/xlink"
    xmlns:krita="http://krita.org/namespaces/svg/krita"
    xmlns:sodipodi="http://sodipodi.sourceforge.net/DTD/sodipodi-0.dtd"
    width="491.04pt"
    height="491.04pt"
    viewBox="0 0 491.04 491.04">
<defs/>
<path id="shape0" transform="translate(155.879993637866, 7.43999991807084)" fill="#ff9a48" fill-rule="evenodd" stroke-opacity="0" stroke="#000000" stroke-width="0" stroke-linecap="square" stroke-linejoin="bevel" d="M40.44 0C26.36 35.36 19.92 52.36 21.12 51L4.32 68.64L0 105.36L6.72 119.4L40.44 151.32L48 152.4L64.92 153.6L114.36 152.76L122.76 146.88L144.96 120.48L149.76 105.84L149.76 88.32L112.92 8.76L110.76 3.6L70.68 48.84C70.68 48.84 60.6 32.56 40.44 0Z" sodipodi:nodetypes="ccccccccccccccccc"/><path id="shape01" transform="translate(37.4399973964885, 135.719990562271)" fill="#804000" fill-rule="evenodd" stroke-opacity="0" stroke="#000000" stroke-width="0" stroke-linecap="square" stroke-linejoin="bevel" d="M129.84 0.36L0 52.08L87.84 114.72L89.4 97.44L97.44 76.92L108.36 62.52L146.76 34.8L158.4 26.64L131.16 0Z" sodipodi:nodetypes="cccccccccc"/><path id="shape1" transform="translate(277.859988958977, 131.579990850157)" fill="#804000" fill-rule="evenodd" stroke-opacity="0" stroke="#000000" stroke-width="0" stroke-linecap="square" stroke-linejoin="bevel" d="M23.82 0L156.84 66.42L124.23 86.52L116.52 79.95L106.44 75.54L95.04 75.42L90.57 76.89L85.65 78.93L73.38 87.48L60.75 96.99L52.5 97.5L50.52 88.38L38.88 70.32L4.2 34.32L0 27.96Z" sodipodi:nodetypes="cccccccccccccccc"/><path id="shape3" transform="translate(129.479994854981, 161.81999839185)" fill="#ff9a48" fill-rule="evenodd" stroke-opacity="0" stroke="#000000" stroke-width="0" stroke-linecap="square" stroke-linejoin="bevel" d="M69.96 0.36L66.84 3.72L63.84 6.17999L53.82 13.62L32.52 28.5L25.2 34.26L15.36 43.92L9.12 52.44L3.72 64.68L0 78.84L0 90.24L95.88 158.64L208.32 93L208.331 92.5162L204.986 91.3012L202.001 88.575L200.651 86.4412L199.121 82.8675L197.715 75.3525L197.411 67.6237L196.32 61.3125L191.28 51.075L187.68 45.585L179.265 35.595L163.11 19.17L152.13 8.46L146.01 0C146.01 0 120.66 0.12 69.96 0.36Z" sodipodi:nodetypes="cccccccccccccccccccccccccccc"/><path id="shape8" transform="translate(6.23999993801257, 253.987497463859)" fill="#e0b27a" fill-rule="evenodd" stroke="#000000" stroke-width="4.8" stroke-linecap="square" stroke-linejoin="bevel" d="M220.2 232.44L0 65.943L24.9635 34.2466L30.5523 0" sodipodi:nodetypes="cccc"/><path id="shape2" transform="translate(228.385071085168, 289.68331)" fill="#3b3b3b" fill-rule="evenodd" stroke-opacity="0" stroke="#000000" stroke-width="0" stroke-linecap="square" stroke-linejoin="bevel" d="M12.4966 0C1.13186 0 -2.67772 21.9057 1.87659 26.46C7.0266 31.61 47.9731 0.54 10.1566 0.54" sodipodi:nodetypes="ccc"/><path id="path21350" transform="translate(179.99907, 214.756845321076)" fill="#ea861e" stroke="#000000" stroke-width="4.8024" stroke-linecap="square" stroke-linejoin="bevel" d="M0 76.5844C1.83214 73.7127 31.5136 -52.3282 38.3421 25.1364L45.2928 103.987Z" sodipodi:nodetypes="cccc"/><path id="shape38" transform="translate(237.250352391338, 189.779987525625)" fill="#ffffff" fill-rule="evenodd" stroke-opacity="0" stroke="#000000" stroke-width="0" stroke-linecap="square" stroke-linejoin="bevel" d="M13.7896 0.6C13.7896 -0.720079 6.74962 2.76 5.86963 3.42C-8.37264 14.1017 6.61039 26.2338 15.9496 32.46C19.3425 34.7219 23.7805 39.1297 28.6696 37.5C54.8855 28.7614 22.9197 8.9501 13.9696 0" sodipodi:nodetypes="ccccc"/><path id="path21350-6" transform="translate(243.88438, 215.324006654541)" fill="#ea861e" stroke="#000000" stroke-width="4.8024" stroke-linecap="square" stroke-linejoin="bevel" d="M45.2928 70.0921C43.4607 67.2204 12.2685 -51.2447 5.87591 26.2571L0 97.4946Z" sodipodi:nodetypes="cccc"/><path id="shape4" transform="translate(223.919991102246, 276.239980790674)" fill="#d28d3c" fill-rule="evenodd" stroke="#000000" stroke-width="4.8" stroke-linecap="square" stroke-linejoin="bevel" d="M2.42308 46.4928L11.0769 125.062L0 211.2L211.154 52.6198L216 0" sodipodi:nodetypes="ccccc"/><path id="shape5" transform="translate(143.504994869577, 249.12613001474)" fill="#ffffff" fill-rule="evenodd" stroke-opacity="0" stroke="#000000" stroke-width="0" stroke-linecap="square" stroke-linejoin="bevel" d="M0 13.0439C0 -16.4575 37.25 10.7239 27.9 29.4239C25.3181 34.5876 0.36 17.5035 0.36 12.0539" sodipodi:nodetypes="ccc"/><path id="shape51" transform="translate(6.11999993920466, 187.919998133225)" fill="#e0b27a" fill-rule="evenodd" stroke="#000000" stroke-width="4.8" stroke-linecap="square" stroke-linejoin="bevel" d="M28.3434 0L0 39.1483L188.956 198L219.48 134.76Z" sodipodi:nodetypes="ccccc"/><path id="shape6" transform="translate(226.919985884612, 197.279992160837)" fill="#d28d3c" fill-rule="evenodd" stroke="#000000" stroke-width="4.8" stroke-linecap="square" stroke-linejoin="bevel" d="M172.297 24.4116L213.217 0L246.6 56.2205L37.331 202.32L0 125.017" sodipodi:nodetypes="ccccc"/><path id="shape7" transform="translate(153.239989927425, 162.404999517422)" fill="#3b3b3b" fill-rule="evenodd" stroke-opacity="0" stroke="#000000" stroke-width="0" stroke-linecap="square" stroke-linejoin="bevel" d="M0 31.4592C44.3827 78.3215 82.6587 0.0710017 46.5091 0.0710017C44.9438 0.0710017 43.1858 -0.343471 42.074 0.830395" sodipodi:nodetypes="ccc"/><path id="shape71" transform="translate(222.719992612913, 218.69998479192)" fill="#e0b27a" fill-rule="evenodd" stroke="#000000" stroke-width="4.8" stroke-linecap="square" stroke-linejoin="bevel" d="M0 105.78L181.92 0Z" sodipodi:nodetypes="ccc"/><path id="shape9" transform="translate(330.719978261525, 210.119986188654)" fill="#ff9a48" fill-rule="evenodd" stroke-opacity="0" stroke="#000000" stroke-width="0" stroke-linecap="square" stroke-linejoin="bevel" d="M1.08 22.56L11.28 19.92L38.52 1.32L44.16 0L55.2 0.6L67.32 7.92L75.36 16.44L80.64 25.44L88.92 45.12L90.84 67.56L85.92 75.48L79.32 81L70.56 81.24L65.88 75.84L57.12 43.56L50.52 27.48L39.96 25.68L32.76 33L19.68 40.32L9.96 41.76L3.24 38.52L0 25.68C0 25.68 0.36 24.64 1.08 22.56Z" sodipodi:nodetypes="ccccccccccccccccccccccc"/><path id="path24636" transform="translate(33.1199999015858, 257.57999156349)" fill="#d5984f" stroke-opacity="0" stroke="#000000" stroke-width="0" stroke-linecap="square" stroke-linejoin="bevel" d="M0 32.185C66.9403 72.0231 95.5327 109.8 95.5327 109.8L62.6774 69.0781C62.6774 69.0781 5.46254 -1.7061 5.46254 0.0314744C5.46254 1.76906 1.88663 22.0595 1.70309 22.9461C1.51954 23.8327 -7.29137e-15 32.185 0 32.185Z" sodipodi:nodetypes="cccccc"/><path id="shape91" transform="translate(40.6799983835313, 259.199989700376)" fill="#d9a15e" fill-rule="evenodd" stroke-opacity="0" stroke="#000000" stroke-width="0" stroke-linecap="square" stroke-linejoin="bevel" d="M182.88 224.52L0 0L156.135 130.331Z" sodipodi:nodetypes="cccc"/><path id="shape10" transform="translate(191.699986669453, 329.099996730738)" fill="#d9a15e" fill-rule="evenodd" stroke-opacity="0" stroke="#000000" stroke-width="0" stroke-linecap="square" stroke-linejoin="bevel" d="M33.2559 0L42.3 72.3457L31.0891 152.76L3.76838 61.376L0 58.5655L4.61626 57.387Z" sodipodi:nodetypes="ccccccc"/><path id="shape11" transform="translate(207.359985580506, 108.359992464813)" fill="none" stroke="#000000" stroke-width="4.8" stroke-linecap="square" stroke-linejoin="bevel" d="M22.32 0C22.32 30.291 0 52.0902 0 17.4" sodipodi:nodetypes="cc"/><path id="shape011" transform="matrix(-1 0 0 1 252.038689557048 108.240977517014)" fill="none" stroke="#000000" stroke-width="4.8" stroke-linecap="square" stroke-linejoin="bevel" d="M22.32 0C22.32 30.291 0 52.0902 0 17.4" sodipodi:nodetypes="cc"/><path id="shape12" transform="translate(179.42447534881, 69.4569842341526)" fill="#000000" fill-rule="evenodd" stroke="#000000" stroke-width="4.8" stroke-linecap="square" stroke-linejoin="bevel" d="M34.6855 6.32301C34.6855 -5.48608 -13.5168 -1.89429 3.72552 26.843C11.8766 40.4281 54.2923 25.5698 33.0655 4.34301" sodipodi:nodetypes="ccc"/><path id="shape13" transform="translate(245.792653718405, 65.3399954563598)" fill="#000000" fill-rule="evenodd" stroke="#000000" stroke-width="4.8" stroke-linecap="square" stroke-linejoin="bevel" d="M14.5773 0C-3.5707 0 -6.00991 36.5569 14.3073 38.25C42.8005 40.6244 42.9117 0.45 15.9273 0.45" sodipodi:nodetypes="ccc"/><ellipse id="shape14" transform="translate(193.44, 75.84)" rx="4.44" ry="3.72000000000001" cx="4.44" cy="3.72000000000001" fill="#ffffff" fill-rule="evenodd" stroke="#ffffff" stroke-width="4.8" stroke-linecap="square" stroke-linejoin="bevel"/><ellipse id="shape15" transform="translate(188.5006414, 80.4598536)" rx="4.3200002" ry="4.0799999" cx="4.3200002" cy="4.0799999" fill="#ffffff" fill-rule="evenodd" stroke="#ffffff" stroke-width="4.8" stroke-linecap="square" stroke-linejoin="bevel"/><ellipse id="shape16" transform="translate(259.68, 72.24)" rx="4.79999999999998" ry="5.04" cx="4.79999999999998" cy="5.04" fill="#ffffff" fill-rule="evenodd" stroke="#ffffff" stroke-width="4.8" stroke-linecap="square" stroke-linejoin="bevel"/><path id="shape17" transform="translate(293.49531027147, 187.19998769521)" fill="#3b3b3b" fill-rule="evenodd" stroke-opacity="0" stroke="#000000" stroke-width="0" stroke-linecap="square" stroke-linejoin="bevel" d="M6.28647 0.24C6.28647 12.4977 -2.63197 21.887 0.776306 35.04C4.88251 50.8864 7.74148 60.8651 15.0669 75C19.6722 83.8863 23.2295 79.5023 34.4702 75C37.5696 72.0097 44.0787 71.2625 47.2945 68.16C49.4816 66.05 39.4328 60.1676 38.0904 59.52C36.6353 58.8181 38.3652 57.0381 37.6303 55.62C30.547 41.9522 37.159 28.8221 22.6147 14.79C19.1609 11.4579 8.08952 0 4.01019 0" sodipodi:nodetypes="ccccccccc"/><circle id="shape171" transform="translate(264.77105085, 77.2449596)" r="4.6799998" cx="4.6799998" cy="4.6799998" fill="#ffffff" fill-rule="evenodd" stroke="#ffffff" stroke-width="4.8" stroke-linecap="square" stroke-linejoin="bevel"/><path id="shape19" transform="translate(277.079988970256, 159.659993621762)" fill="none" stroke="#000000" stroke-width="4.8" stroke-linecap="square" stroke-linejoin="bevel" d="M51.96 72.42C51.96 43.029 0 10.3929 0 0" sodipodi:nodetypes="cc"/><path id="shape20" transform="translate(127.311222651484, 161.219988807115)" fill="none" stroke="#000000" stroke-width="4.8" stroke-linecap="square" stroke-linejoin="bevel" d="M0.128768 90.66C-0.605979 80.1681 1.93513 70.4316 4.41104 63.4067C16.0491 30.3862 49.569 21.0598 70.6288 0" sodipodi:nodetypes="ccc"/><path id="shape21" transform="translate(196.044851898398, 159.539988733823)" fill="none" stroke="#000000" stroke-width="4.8" stroke-linecap="square" stroke-linejoin="bevel" d="M0.380206 0.763277C-1.72563 -0.331563 5.48968 1.81468 7.97505 2.18742C13.3546 2.99421 18.7438 2.95893 24.2056 3.18311C27.9922 3.33854 76.5431 3.07404 80.1951 0" sodipodi:nodetypes="cccc"/><path id="shape22" transform="translate(198.479986198018, 160.319988851603)" fill="none" stroke="#000000" stroke-width="4.8" stroke-linecap="square" stroke-linejoin="bevel" d="M0 0" sodipodi:nodetypes="c"/><rect id="shape23" transform="translate(226.8, 104.88)" fill="#000000" fill-rule="evenodd" stroke="#000000" stroke-width="4.8" stroke-linecap="square" stroke-linejoin="bevel" width="5.52000000000001" height="4.08"/><path id="shape24" transform="translate(108.719998920008, 84.9599991560325)" fill="none" stroke="#000000" stroke-width="4.8" stroke-linecap="square" stroke-linejoin="bevel" d="M46.08 13.2C32.5091 13.2 15.5104 0 0 0" sodipodi:nodetypes="cc"/><path id="shape25" transform="translate(96.959999036828, 114.47999886279)" fill="none" stroke="#000000" stroke-width="4.8" stroke-linecap="square" stroke-linejoin="bevel" d="M55.44 0C45.7437 0 6.3965 8.7235 0 15.12" sodipodi:nodetypes="cc"/><path id="shape26" transform="translate(307.439996945982, 89.7599991083507)" fill="none" stroke="#000000" stroke-width="4.8" stroke-linecap="square" stroke-linejoin="bevel" d="M0 12.96C19.1508 12.96 39.8583 0 57.84 0" sodipodi:nodetypes="cc"/><path id="shape27" transform="translate(306.239996957902, 115.199998855637)" fill="none" stroke="#000000" stroke-width="4.8" stroke-linecap="square" stroke-linejoin="bevel" d="M0 0C19.1215 0 38.2828 6.78698 57.12 8.88C57.839 8.95989 62.7225 9.15777 63.99 8.67" sodipodi:nodetypes="ccc"/><path id="shape28" transform="translate(33.2399977672254, 134.429990659121)" fill="#804000" fill-rule="evenodd" stroke="#000000" stroke-width="4.8" stroke-linecap="square" stroke-linejoin="bevel" d="M0 54.3L134.64 0Z" sodipodi:nodetypes="ccc"/><path id="shape29" transform="translate(302.219996997861, 129.779998710815)" fill="none" stroke="#000000" stroke-width="4.8" stroke-linecap="square" stroke-linejoin="miter" stroke-miterlimit="2" d="M137.88 68.94L0 0" sodipodi:nodetypes="cc"/><path id="shape30" transform="translate(186.811660308937, 27.0534024537054)" fill="#ffbeff" fill-rule="evenodd" stroke="#ffbeff" stroke-width="4.8" stroke-linecap="square" stroke-linejoin="bevel" d="M3.76333 27.9816C1.15333 28.0261 -0.522777 25.6488 0.148333 24.3066C3.77504 17.0532 11.7387 -7.66985 13.8883 2.3616C17.3606 18.5657 16.4714 27.6713 2.09636 28.2476C1.3262 28.2785 -0.292678 28.3299 0.0733323 26.5116" sodipodi:nodetypes="ccccc"/><path id="shape31" transform="translate(242.924721332941, 23.3429553069216)" fill="#ffbeff" fill-rule="evenodd" stroke="#ffbeff" stroke-width="4.8" stroke-linecap="square" stroke-linejoin="bevel" d="M0.390262 30.747C-2.89474 30.6953 15.5453 11.777 18.7953 5.27704C19.6413 3.58487 20.0675 -1.10073 21.4053 0.237044C23.9422 2.774 24.612 12.6631 25.0953 16.167C28.5254 41.0359 21.2171 31.8756 3.05083 31.0713C2.25957 31.0363 0.277722 31.557 0.390262 30.792" sodipodi:nodetypes="cccccc"/><path id="shape32" transform="matrix(0.97385190751753 0.227183763118032 -0.227183763118032 0.97385190751753 229.414414393679 52.4703195439832)" fill="none" stroke="#ffffff" stroke-width="4.8" stroke-linecap="square" stroke-linejoin="bevel" d="M0.369633 11.2952C-0.667884 15.9755 0.760211 14.911 1.22195 15.3428C3.99763 17.9383 11.9867 -8.84498 3.44521 3.07122C2.62191 4.21982 0.969344 7.36197 0.996139 10.5204" sodipodi:nodetypes="cccc"/><path id="shape18" transform="matrix(0.999980123935173 0.00630489766743733 -0.00630489766743733 0.999980123935173 156.179999124885 112.859999466498)" fill="#3b3b3b" fill-rule="evenodd" stroke-opacity="0" stroke="#000000" stroke-width="0" stroke-linecap="square" stroke-linejoin="bevel" d="M0.20957 0.605831C14.2076 0.605831 55.6278 5.12248 31.6796 27.9894C19.226 39.8808 -4.41176 0 0.717152 0" sodipodi:nodetypes="ccc"/><path id="shape33" transform="translate(284.399831682391, 74.3999952142913)" fill="#ffffff" fill-rule="evenodd" stroke-opacity="0" stroke="#000000" stroke-width="0" stroke-linecap="square" stroke-linejoin="bevel" d="M6.24015 0C-9.65035 0 8.88774 59.5124 16.8001 51.6C22.1928 46.2074 26.119 0.105 4.08765 0.105" sodipodi:nodetypes="ccc"/><path id="shape34" transform="translate(393.569974157173, 218.178831275857)" fill="#3b3b3b" fill-rule="evenodd" stroke-opacity="0" stroke="#000000" stroke-width="0" stroke-linecap="square" stroke-linejoin="bevel" d="M3.02727 0.152957C1.14072 -0.882043 0 3.56864 0 6.48788C0 13.4271 16.6657 40.3113 24.8874 31.7195C26.9196 29.5957 6.47477 -1.00885 2.82968 0.0936545" sodipodi:nodetypes="cccc"/><path id="shape35" transform="translate(343.079998380872, 231.069055250307)" fill="#ffffff" fill-rule="evenodd" stroke-opacity="0" stroke="#000000" stroke-width="0" stroke-linecap="square" stroke-linejoin="bevel" d="M0 18.1709C0 -4.89924 30.903 -2.955 25.8 7.25094C23.8315 11.188 0.285 26.3956 0.285 17.1659" sodipodi:nodetypes="ccc"/><path id="shape210" transform="matrix(0.999989195465135 -0.00464854310432393 0.00464854310432393 0.999989195465135 154.996490241593 7.25863521450191)" fill="none" stroke="#000000" stroke-width="4.8" stroke-linecap="square" stroke-linejoin="bevel" d="M39.558 152.872C34.0651 146.369 11.6845 128.877 0.891584 110.598C-2.17886 102.06 3.56061 69.8059 4.88353 68.8448C9.27856 58.9219 20.9923 53.3917 21.7653 51.2831C26.5712 38.1729 40.2986 -2.23249 41.6925 0.0966775C49.0737 12.4311 68.0783 51.7105 71.5315 48.2781C84.6253 35.263 111.744 2.93014 112.547 4.59703C120.254 20.5823 133.641 53.1005 134.204 58.9853C145.499 61.8137 151.498 97.8155 151.282 100.201C150.632 107.364 149.605 116.086 147.414 119.216C142.7 125.949 137.271 133.685 134.656 136.675C127.285 145.101 119.244 153.685 115.554 154.133" sodipodi:nodetypes="cccccccccccc"/><path id="shape181" transform="translate(329.039986875169, 208.317440883002)" fill="none" stroke="#000000" stroke-width="4.8" stroke-linecap="square" stroke-linejoin="bevel" d="M3.36 22.4425C18.4402 22.4425 31.0904 -1.92841 51.6 0.122552C85.8393 3.54649 110.693 77.872 77.64 84.4825C55.5401 88.9025 64.0028 32.4733 45.96 27.9625C42.7166 27.1517 0 68.34 0 23.7625" sodipodi:nodetypes="ccccc"/><path id="shape36" transform="translate(196.80635181964, 259.340124717216)" fill="#3b3b3b" fill-rule="evenodd" stroke-opacity="0" stroke="#000000" stroke-width="0" stroke-linecap="square" stroke-linejoin="bevel" d="M18.451 40.0535C18.8244 40.4697 17.0758 41.7563 15.6646 41.5625C1.9514 39.6787 -5.1401 11.2808 4.32994 1.7099C15.3994 -9.4775 17.9814 37.7812 18.8512 40.7459" sodipodi:nodetypes="cccc"/><path id="shape37" transform="translate(256.410762403258, 245.40493)" fill="#ffffff" fill-rule="evenodd" stroke-opacity="0" stroke="#000000" stroke-width="0" stroke-linecap="square" stroke-linejoin="bevel" d="M5.34437 0C5.34437 2.91095 18.7509 14.2967 8.94437 19.2C-7.83719 27.5908 4.14437 6.23851 4.14437 0.96" sodipodi:nodetypes="ccc"/><path id="path8196-5" transform="translate(26.0079966693452, 299.018293596223)" fill="#0000fa" stroke="#000000" stroke-width="1.7208" stroke-linecap="square" stroke-linejoin="bevel" d="M8.62554 25.5164C9.14052 26.461 7.28676 24.8537 6.7823 24.3263C6.60967 24.1458 6.49388 23.883 6.28765 23.7398C5.51127 23.2007 4.64603 22.7896 3.87878 22.2466C3.34322 21.8676 2.97198 21.2795 2.46581 20.869C2.22289 20.672 0.0904033 19.4165 0.00618833 18.6095C-0.0850917 17.7348 0.857319 17.1612 1.25767 16.5314C2.09628 15.212 3.24407 14.2118 4.2847 13.0683C5.46963 11.7663 6.53168 10.4051 7.80343 9.18279C10.5583 6.53505 12.8552 3.43688 16.3119 1.79338C17.5853 1.18792 17.9568 -0.418744 19.4986 0.102446C19.5603 0.123246 21.3884 -0.0103636 21.8273 0.0113464C22.0903 0.0245464 23.0822 0.290576 23.3495 0.304176C25.3626 0.529276 24.6983 0.458526 25.3626 0.529276C25.8656 0.582876 26.4053 0.504576 26.8999 0.610676C27.7368 0.789396 30.1032 1.85013 30.7165 2.38116C31.7145 3.2452 30.4292 5.07448 29.9178 5.97548C29.8881 6.02778 29.4061 6.79706 29.4254 6.81139C30.2552 7.42998 31.948 7.26134 32.815 7.90772C33.5358 8.44497 34.1992 8.97751 35.0202 9.4111C36.0661 9.9635 37.1761 10.393 38.1708 11.0554C39.3297 11.8272 40.5615 12.4855 41.7267 13.2536C42.5668 13.8073 43.2142 14.4576 44.0896 14.9545C44.5553 15.2187 45.049 15.391 45.5103 15.6528C45.6405 15.7271 45.7526 15.7892 45.8545 15.9022C45.8613 15.9092 45.9657 16.0551 45.9947 16.0357C46.3816 15.7761 46.8773 14.4807 47.1145 14.0627C47.246 13.8311 47.3822 13.601 47.5356 13.3842C47.543 13.374 47.7314 13.1358 47.7309 13.1353C47.7269 13.1323 48.2142 13.3557 48.6385 13.5965C49.3099 13.9776 49.8233 14.6593 50.4942 15.0815C51.1694 15.5063 51.9076 15.8524 52.5067 16.3856C52.8804 16.7183 53.0974 17.1729 53.4783 17.4948C54.6901 18.5187 55.7156 18.9623 55.9563 20.7362C56.2877 23.1781 53.966 26.5491 52.7013 28.5313C52.0666 29.5261 51.4414 30.5602 50.8997 31.6104C50.453 32.4763 50.1469 33.421 49.7004 34.2938C49.5035 34.6788 49.4924 35.0879 49.3915 35.5038C49.1883 36.3418 48.9644 37.2089 48.7119 38.0324C48.3038 39.3632 47.6218 40.5944 47.1765 41.9103C47.0196 42.3742 46.9941 42.8889 46.8897 43.3666C46.7012 44.2282 46.1976 45.0285 45.6389 45.697C45.5321 45.8249 45.4188 46.028 45.2539 46.0901C44.979 46.1935 44.6085 46.0584 44.2896 46.1728C43.9614 46.2897 43.4749 46.6089 43.1205 46.5526C42.4169 46.4409 42.0025 45.6552 41.4479 45.3155C40.74 44.8819 39.9816 44.7147 39.2174 44.4273C38.9108 44.3121 38.5709 44.2826 38.2715 44.1603C37.009 43.6445 35.8875 42.734 34.741 42.0125C34.4867 41.8526 33.8457 41.737 33.6972 41.4742C33.5781 41.2633 34.414 40.9188 34.5067 40.8722C35.4238 40.4103 36.9974 39.3556 37.5951 38.5054C37.682 38.3819 38.1852 37.8746 37.9401 37.6758C37.2974 37.1546 36.2372 38.389 35.5551 38.391C35.0834 38.392 34.2284 37.7279 33.8564 37.5168C32.8991 36.9735 32.0902 36.2781 31.1787 35.6732C30.4989 35.222 29.6023 35.0805 28.8857 34.6416C27.7103 33.9217 26.7077 32.942 25.56 32.1964C25.014 31.8416 24.4069 31.5773 23.8822 31.1902C23.0858 30.6026 22.5199 29.7321 21.6911 29.155C20.2375 28.1428 18.6307 27.3686 17.1477 26.4144C16.3418 25.8959 15.7357 25.2365 14.8337 24.8492C13.4639 24.2611 12.044 24.3964 11.0479 23.0243C10.5577 22.349 11.7098 20.8741 10.7092 20.0077C10.5868 19.9017 10.3987 19.7869 10.2274 19.8422C9.91524 19.9431 10.4764 20.7578 10.4198 21.0453C10.2877 21.716 9.93612 21.8583 9.9248 22.5309C9.91472 23.1278 9.55287 23.8334 9.09514 24.1827C8.54927 24.5994 11.2341 20.9618 10.9245 21.4662Z" sodipodi:nodetypes="cccccccccccccccccccccccccccccccccccccccccccccccccccccccccccccccccccccc"/><path id="path18747" transform="translate(28.644439356705, 300.687700867856)" fill="#685aff" stroke-opacity="0" stroke="#000000" stroke-width="0" stroke-linecap="square" stroke-linejoin="bevel" d="M15.9224 0.586349C15.7696 0.648549 15.6101 0.696059 15.4642 0.772859C14.9353 1.05117 14.1481 2.18434 13.6753 2.63044C12.4493 3.78707 11.0936 4.79436 9.86575 5.94138C8.20181 7.49572 6.81686 9.2058 5.53773 11.0925C4.6461 12.4076 3.76315 13.7376 2.84595 15.0335C2.34951 15.735 1.84717 16.4331 1.32665 17.1166C0.930138 17.6374 0.271325 18.1338 0.0193096 18.7479C-0.0544104 18.9275 0.10272 19.021 0.159506 19.1252C0.173896 19.1516 0.136416 19.2552 0.144906 19.2641C0.351648 19.4811 2.80783 17.2515 3.00903 17.0598C3.52584 16.5675 4.10744 16.1244 4.59947 15.6084C5.76769 14.3832 6.90766 13.1353 8.0924 11.9237C8.7805 11.22 9.36906 10.4323 10.0646 9.73146C11.8293 7.95352 13.7296 6.2896 15.6162 4.64265C16.0328 4.27905 16.4758 3.92742 16.8769 3.54702C17.272 3.17237 19.1179 1.10349 18.9226 0.499789C18.5464 -0.663421 17.1469 0.551689 16.4604 0.674659C16.2763 0.707559 16.0957 0.635959 15.9224 0.586359Z" sodipodi:nodetypes="cccccccccccccccccccc"/><path id="path18749" transform="translate(31.558929033958, 300.555648205061)" fill="#685aff" stroke-opacity="0" stroke="#000000" stroke-width="0" stroke-linecap="square" stroke-linejoin="bevel" d="M22.5582 0.0711918C21.1738 -0.248938 19.9208 1.13268 18.8818 1.87843C18.0349 2.48623 17.176 3.07334 16.3392 3.69526C15.5992 4.24524 14.785 4.68084 14.0438 5.22839C12.2838 6.52875 10.6381 8.02352 9.16003 9.63723C7.86008 11.0565 6.9581 12.7571 5.84854 14.3133C4.81846 15.7581 3.58255 17.0635 2.50463 18.4744C1.85079 19.3302 1.17959 20.1921 0.478025 21.01C0.455255 21.0366 -0.027376 21.4373 0.00122197 21.5476C0.00542197 21.564 0.73151 21.129 0.815581 21.0744C1.7809 20.4478 2.53249 19.4796 3.39485 18.7161C5.34415 16.9903 6.87253 14.8985 8.50961 12.8879C9.10812 12.1528 9.63065 11.3618 10.3254 10.711C11.1088 9.97703 11.9364 9.16539 12.8092 8.53787C13.4051 8.10941 14.0369 7.73138 14.6335 7.30434C15.2496 6.86345 15.8166 6.3519 16.4326 5.9085C17.551 5.10343 18.786 4.49409 19.8569 3.6179C20.8596 2.79753 21.9642 1.90302 22.63 0.770252C22.6617 0.716252 23.082 -0.0120582 22.962 0.000151795C22.826 0.0139518 22.6928 0.0475518 22.5582 0.0711518Z" sodipodi:nodetypes="ccccccccccccccccccccc"/><path id="path18751" transform="translate(51.136776840142, 307.176638637624)" fill="#685aff" stroke-opacity="0" stroke="#000000" stroke-width="0" stroke-linecap="square" stroke-linejoin="bevel" d="M6.04289 0.00927136C5.06546 0.673401 4.13839 1.40237 3.21976 2.14379C2.76458 2.51117 2.31972 2.88534 1.88411 3.27578C1.63036 3.50321 0.0375642 4.93673 0.00085316 5.2254C-0.00941684 5.3061 0.0752332 5.47174 0.136327 5.51953C0.343572 5.68166 0.921001 5.39395 1.06038 5.33873C2.71486 4.68329 5.42688 2.9581 6.64063 1.66096C6.86924 1.41665 7.03153 1.10994 7.19995 0.823401C7.62463 0.100861 7.27441 0.247611 6.60901 0.140931C6.41771 0.110231 6.23074 -0.0381486 6.04289 0.00927136C5.75556 0.0817714 5.56955 0.374471 5.30002 0.497641" sodipodi:nodetypes="ccccccccccc"/><path id="path18751-7" transform="translate(48.551444840142, 323.221528637624)" fill="#685aff" stroke-opacity="0" stroke="#000000" stroke-width="0" stroke-linecap="square" stroke-linejoin="bevel" d="M6.04289 0.00927136C5.06546 0.673401 4.13839 1.40237 3.21976 2.14379C2.76458 2.51117 2.31972 2.88534 1.88411 3.27578C1.63036 3.50321 0.0375642 4.93673 0.00085316 5.2254C-0.00941684 5.3061 0.0752332 5.47174 0.136327 5.51953C0.343572 5.68166 0.921001 5.39395 1.06038 5.33873C2.71486 4.68329 5.42688 2.9581 6.64063 1.66096C6.86924 1.41665 7.03153 1.10994 7.19995 0.823401C7.62463 0.100861 7.27441 0.247611 6.60901 0.140931C6.41771 0.110231 6.23074 -0.0381486 6.04289 0.00927136C5.75556 0.0817714 5.56955 0.374471 5.30002 0.497641" sodipodi:nodetypes="ccccccccccc"/><path id="path18753" transform="translate(37.1157738003938, 317.25283)" fill="#685aff" stroke-opacity="0" stroke="#000000" stroke-width="0" stroke-linecap="square" stroke-linejoin="bevel" d="M5.19151 6e-05C4.2727 0.4827 3.42796 1.12156 2.66889 1.82859C2.13134 2.3293 1.62655 2.87304 1.14121 3.42416C1.10801 3.46186 -0.0910288 4.88241 0.0055322 4.96861C0.308474 5.23905 1.11514 5.00721 1.44003 4.90011C3.04811 4.36999 4.49795 3.41532 5.36569 1.93896C5.53321 1.65395 5.83156 1.23822 5.83586 0.88814C5.83599 0.87754 5.2287 0.07517 5.19151 0Z" sodipodi:nodetypes="ccccccccc"/><path id="path18753-5" transform="translate(52.4352309545639, 328.4252)" fill="#685aff" stroke-opacity="0" stroke="#000000" stroke-width="0" stroke-linecap="square" stroke-linejoin="bevel" d="M4.64332 8e-05C3.82152 0.2732 3.06599 0.63473 2.38707 1.03484C1.90628 1.31819 1.45479 1.62589 1.0207 1.93777C0.99101 1.95907 -0.081417 2.76299 0.00494805 2.81177C0.275901 2.96481 0.997391 2.83357 1.28797 2.77297C2.72625 2.47297 4.02299 1.93273 4.7991 1.09726C4.94893 0.93597 5.21578 0.70071 5.21962 0.5026C5.21974 0.4966 4.67658 0.04254 4.64332 0Z" sodipodi:nodetypes="ccccccccc"/><path id="path18755" transform="translate(43.4780564443418, 309.68801)" fill="#685aff" stroke-opacity="0" stroke="#000000" stroke-width="0" stroke-linecap="square" stroke-linejoin="bevel" d="M19.1218 0C16.9442 1.13973 14.9688 2.62965 12.9059 3.96101C11.9347 4.58777 10.9333 5.15789 9.97307 5.80316C8.25487 6.95784 6.64847 8.3091 5.05622 9.62955C3.44384 10.9667 1.88595 12.7069 0.669471 14.4244C0.613861 14.5029 -0.27347 15.4129 0.0850646 15.5555C0.241775 15.6178 0.385891 15.5746 0.543334 15.597C0.69334 15.6182 0.838888 15.683 0.99574 15.6484C1.48331 15.541 1.9093 15.2391 2.3257 14.9823C4.05818 13.9141 5.67047 12.6862 7.28485 11.4489C9.21394 9.97045 11.2315 8.54666 13.0418 6.92315C14.182 5.90057 15.224 4.76974 16.2489 3.63353C16.8206 2.99968 17.3628 2.33126 17.944 1.7074C18.2533 1.3755 18.6313 1.11295 18.9246 0.76891C18.9719 0.71361 19.4294 0.34458 19.3681 0.2654C19.2942 0.17 19.2039 0.08849 19.1218 3e-05Z" sodipodi:nodetypes="ccccccccccccccccc"/><path id="path18761" transform="translate(55.7600736862508, 311.960633070128)" fill="#685aff" stroke-opacity="0" stroke="#000000" stroke-width="0" stroke-linecap="square" stroke-linejoin="bevel" d="M11.2867 0.0181369C11.094 0.00783693 11.0354 -0.0194631 10.8839 0.0231369C9.92049 0.291027 8.62695 1.39486 7.7895 1.93246C7.0781 2.38914 6.31384 2.77234 5.59073 3.21376C4.98365 3.58436 4.21508 3.85897 3.70838 4.34992C3.46897 4.58188 3.30131 4.87696 3.08522 5.12731C2.40549 5.91479 1.715 6.66356 0.902849 7.33458C0.628806 7.561 0.146193 7.83543 0.0178643 8.17048C-0.0335557 8.30473 0.0428243 8.49714 0.0384443 8.64025C0.0320443 8.85036 0.0789043 8.97721 0.164295 9.16775C0.215085 9.28108 0.244815 9.40327 0.33013 9.49956C0.41024 9.58996 0.811553 9.66778 0.928893 9.63355C1.11634 9.57885 1.3327 9.49019 1.51185 9.40918C2.72788 8.8593 3.60178 7.57107 4.42526 6.62353C4.75357 6.24577 5.21766 5.96455 5.62193 5.66321C6.25825 5.1889 6.82251 4.62926 7.46627 4.16428C8.85091 3.16418 10.9793 3.01587 11.9978 1.57413C12.1119 1.41264 12.1816 1.20713 12.2154 1.01732C12.2854 0.622887 12.0208 0.473357 11.675 0.301437C11.6304 0.279237 11.4916 0.265337 11.4637 0.240037C11.393 0.175837 11.3457 0.0924269 11.2867 0.0186169Z" sodipodi:nodetypes="cccccccccccccccccccccc"/><path id="path18763" transform="translate(57.8832208552407, 314.67133)" fill="#685aff" stroke-opacity="0" stroke="#000000" stroke-width="0" stroke-linecap="square" stroke-linejoin="bevel" d="M18.3736 0C17.0926 0.6712 15.9867 1.71211 14.8791 2.66888C13.8762 3.53511 12.2083 4.85617 11.4291 5.9064C11.1716 6.25357 10.9882 6.69262 10.7499 7.05896C10.615 7.26644 10.3824 7.50062 10.308 7.75512C10.2538 7.94047 10.3503 8.13138 10.3291 8.32204C10.2798 8.76545 10.0587 9.17625 9.98655 9.62141C9.90904 10.0994 9.96439 10.5924 9.82466 11.0613C9.35832 12.626 8.04284 14.2402 6.76413 15.1116C4.91855 16.3694 2.95239 17.4293 1.15124 18.7619C1.03002 18.8516 -0.20451 19.9752 0.0294121 20.0961C0.543731 20.3619 1.11431 20.163 1.64694 20.1428C2.33383 20.1167 3.12753 20.2661 3.79609 20.0245C5.20883 19.5139 6.36203 18.3963 7.48686 17.4005C8.42996 16.5655 9.30014 15.6335 10.2515 14.8108C10.8635 14.2815 11.5487 13.9091 12.0823 13.2787C12.4266 12.8719 12.6811 12.4022 12.9759 11.9584C13.6073 11.0077 14.2521 10.05 14.9081 9.11956C15.9132 7.6937 17.1086 6.46904 18.0586 4.99429C18.3501 4.54176 18.6814 4.06731 18.8422 3.53862C18.9113 3.31159 18.9118 3.06624 18.9577 2.83395C19.0311 2.46302 19.1381 2.03625 19.1128 1.65334C19.0737 1.06213 18.6666 0.4717 18.3736 4e-05Z" sodipodi:nodetypes="cccccccccccccccccccccccc"/><path id="path18765" transform="translate(65.4587262927145, 319.84567)" fill="#685aff" stroke-opacity="0" stroke="#000000" stroke-width="0" stroke-linecap="square" stroke-linejoin="bevel" d="M15.6777 0C12.6939 1.35398 10.0663 3.98051 7.6823 6.21297C6.37381 7.43829 5.18896 8.7588 4.02889 10.1251C3.60164 10.6283 3.2479 11.1724 2.85983 11.7035C2.02864 12.841 1.20731 13.8953 0.593897 15.171C0.575847 15.2085 -0.0102983 16.3234 0.000137707 16.3637C0.0168277 16.4281 1.29012 15.9246 1.45028 15.8352C2.91547 15.0172 3.83418 13.3922 5.04347 12.2765C6.41452 11.0115 7.91248 9.8762 9.23782 8.56166C10.2762 7.53174 11.2464 6.42839 12.2715 5.3846C13.4664 4.16787 14.986 3.15748 15.6659 1.54817C15.7732 1.29422 16.0635 0.96741 16.0207 0.67084C15.9896 0.4551 15.7781 0.16469 15.6777 0Z" sodipodi:nodetypes="ccccccccccccc"/><path id="path18767" transform="translate(63.004543, 333.981642017547)" fill="#685aff" stroke-opacity="0" stroke="#000000" stroke-width="0" stroke-linecap="square" stroke-linejoin="bevel" d="M0 8.06034C1.38074 6.61573 3.00241 5.39973 4.55085 4.12838C5.45054 3.38969 6.34896 2.64572 7.3519 2.0394C7.99712 1.64933 8.65372 1.27174 9.30829 0.896398C9.51451 0.778138 11.5407 -0.340672 11.8036 0.103888C11.9668 0.379688 10.3233 2.01254 10.0901 2.2587C9.28041 3.11332 8.36633 3.86033 7.59738 4.75615C7.09636 5.33985 6.47032 6.38141 5.96794 6.87148C5.07148 7.746 2.47754 8.71453 1.26109 8.38514C1.06022 8.33074 0.837916 8.26054 0.62432 8.27016C0.502113 8.27516 0.37194 8.3996 0.264917 8.34216C0.150164 8.28056 0.088306 8.15427 1e-06 8.06032Z" sodipodi:nodetypes="ccccccccccccc"/><path id="path13276" transform="translate(41.7267067453691, 308.450225188232)" fill="#e0b27a" stroke-opacity="0" stroke="#000000" stroke-width="0" stroke-linecap="square" stroke-linejoin="bevel" d="M6.673 0.398745C6.5835 0.292515 6.52024 0.156855 6.4045 0.0800548C5.86666 -0.276835 3.15412 0.650525 2.64335 1.0734C2.11774 1.50855 1.79804 2.28349 1.4603 2.85812C0.818667 3.94978 0.104751 4.97109 0.0165013 6.27256C-0.152159 8.75989 0.978592 10.3758 3.11015 11.4557C3.73691 11.7733 4.3517 12.0878 5.04818 11.8307C6.74252 11.2052 8.30766 8.74215 8.75928 7.06773C8.9032 6.53413 8.90709 5.9752 8.98428 5.4304C9.10129 4.60459 9.35418 3.69219 9.08588 2.86258C8.756 1.84258 7.58461 0.934555 6.673 0.398745Z" sodipodi:nodetypes="ccccccccccc"/><path id="path13278" transform="translate(56.3028607099333, 318.662215501294)" fill="#e0b27a" stroke-opacity="0" stroke="#000000" stroke-width="0" stroke-linecap="square" stroke-linejoin="bevel" d="M9.88927 0.698034C9.70074 0.489164 9.5075 0.236544 9.24563 0.105224C8.78003 -0.128256 8.05159 0.0925245 7.57496 0.142124C6.11161 0.294324 4.53328 0.643584 3.29769 1.48899C1.75158 2.54685 -0.0610197 4.54013 0.00157729 6.5495C0.0344273 7.60394 0.716239 8.66221 1.47991 9.34884C1.8931 9.72034 2.40364 9.9181 2.88485 10.1746C3.52646 10.5166 4.29393 11.2666 5.05695 11.2234C6.04038 11.1677 7.10141 10.3838 7.88094 9.84008C8.71165 9.26061 9.51905 8.71316 10.1369 7.89502C11.0576 6.67576 12.0484 3.71657 11.3853 2.16718C11.2505 1.85219 10.8919 1.74959 10.6502 1.54745C10.2786 1.23665 10.4668 1.07856 9.88927 0.698034Z" sodipodi:nodetypes="ccccccccccccc"/>
</svg>
