<svg width="58" height="47" viewBox="0 0 58 47" fill="none" xmlns="http://www.w3.org/2000/svg">
<g filter="url(#filter0_d_187_206)">
<path d="M4 9H54V40C54 41.1046 53.1046 42 52 42H6C4.89543 42 4 41.1046 4 40V9Z" fill="url(#paint0_linear_187_206)"/>
<path d="M4 5C4 3.89543 4.89543 3 6 3H20V9H4V5Z" fill="#027DFD"/>
<path d="M20 3H38V9H20V3Z" fill="#0553B1"/>
<path d="M38 3H52C53.1046 3 54 3.89543 54 5V9H38V3Z" fill="#042B59"/>
<g clip-path="url(#clip0_187_206)">
<path opacity="0.72" d="M31.0347 38H31.02L24.0298 31.2741L28.0198 27.4198L39 38H31.0347Z" fill="white"/>
<path opacity="0.72" d="M31.02 24.5327L24.0151 31.2593L28.0198 35.0988L39 24.5327H31.02Z" fill="white"/>
<path opacity="0.72" d="M31.02 13.0141L31.0053 13L18 25.5L22.0047 29.3543L38.9853 13.0141H31.02Z" fill="white"/>
</g>
</g>
<defs>
<filter id="filter0_d_187_206" x="0" y="0" width="58" height="47" filterUnits="userSpaceOnUse" color-interpolation-filters="sRGB">
<feFlood flood-opacity="0" result="BackgroundImageFix"/>
<feColorMatrix in="SourceAlpha" type="matrix" values="0 0 0 0 0 0 0 0 0 0 0 0 0 0 0 0 0 0 127 0" result="hardAlpha"/>
<feOffset dy="1"/>
<feGaussianBlur stdDeviation="2"/>
<feComposite in2="hardAlpha" operator="out"/>
<feColorMatrix type="matrix" values="0 0 0 0 0 0 0 0 0 0 0 0 0 0 0 0 0 0 0.33 0"/>
<feBlend mode="normal" in2="BackgroundImageFix" result="effect1_dropShadow_187_206"/>
<feBlend mode="normal" in="SourceGraphic" in2="effect1_dropShadow_187_206" result="shape"/>
</filter>
<linearGradient id="paint0_linear_187_206" x1="4" y1="9" x2="57.0405" y2="36.0346" gradientUnits="userSpaceOnUse">
<stop stop-color="#027DFD"/>
<stop offset="0.489583" stop-color="#0553B1"/>
<stop offset="1" stop-color="#042B59"/>
</linearGradient>
<clipPath id="clip0_187_206">
<rect width="21" height="25" fill="white" transform="translate(18 13)"/>
</clipPath>
</defs>
</svg>
