<?xml version="1.0" encoding="UTF-8" standalone="no"?>
<!-- Created with Inkscape (http://www.inkscape.org/) -->

<svg
   width="72pt"
   height="72pt"
   viewBox="0 0 25.400001 25.400001"
   version="1.1"
   id="svg5"
   inkscape:version="1.4 (e7c3feb100, 2024-10-09)"
   sodipodi:docname="in.varb.Ausweiskopie.svg"
   inkscape:export-filename="/home/sbiewald/Downloads/bitmap.png"
   inkscape:export-xdpi="96"
   inkscape:export-ydpi="96"
   xmlns:inkscape="http://www.inkscape.org/namespaces/inkscape"
   xmlns:sodipodi="http://sodipodi.sourceforge.net/DTD/sodipodi-0.dtd"
   xmlns="http://www.w3.org/2000/svg"
   xmlns:svg="http://www.w3.org/2000/svg">
  <sodipodi:namedview
     id="namedview7"
     pagecolor="#ffffff"
     bordercolor="#666666"
     borderopacity="1.0"
     inkscape:pageshadow="2"
     inkscape:pageopacity="0.0"
     inkscape:pagecheckerboard="0"
     inkscape:document-units="mm"
     showgrid="false"
     height="210mm"
     units="pt"
     inkscape:zoom="3.9791128"
     inkscape:cx="30.911413"
     inkscape:cy="51.770334"
     inkscape:window-width="1920"
     inkscape:window-height="1011"
     inkscape:window-x="0"
     inkscape:window-y="32"
     inkscape:window-maximized="1"
     inkscape:current-layer="layer2"
     inkscape:showpageshadow="0"
     inkscape:deskcolor="#d1d1d1" />
  <defs
     id="defs2">
    <inkscape:path-effect
       effect="join_type"
       id="path-effect2"
       is_visible="true"
       lpeversion="1"
       linecap_type="round"
       line_width="2.4984617"
       linejoin_type="extrp_arc"
       miter_limit="100"
       attempt_force_join="true" />
  </defs>
  <rect
     style="fill:#4578c3;fill-opacity:1;stroke:#4578c3;stroke-width:4.52196;stroke-linejoin:bevel;stroke-opacity:1"
     id="rect2"
     width="20.87804"
     height="20.87804"
     x="2.2609799"
     y="2.2609799"
     ry="0.17430349" />
  <g
     inkscape:label="Layer 1"
     inkscape:groupmode="layer"
     id="layer1"
     inkscape:path-effect="#path-effect2"
     transform="matrix(0.89513096,0,0,0.89513096,1.414443,1.414443)"
     style="fill:#ff8200;fill-opacity:1" />
  <g
     inkscape:groupmode="layer"
     id="layer2"
     inkscape:label="elements">
    <path
       d="m 20.893212,13.198267 h -5.724633 c -0.524757,0 -0.954105,0.429347 -0.954105,0.954106 v 6.678738 h 0.954105 v -6.678738 h 5.724633 z m 1.431158,1.908212 h -5.247579 c -0.524759,0 -0.954106,0.429348 -0.954106,0.954105 v 6.678739 c 0,0.524758 0.429347,0.954105 0.954106,0.954105 h 5.247579 c 0.524759,0 0.954106,-0.429347 0.954106,-0.954105 v -6.678739 c 0,-0.524757 -0.429347,-0.954105 -0.954106,-0.954105 z m 0,7.632844 h -5.247579 v -6.678739 h 5.247579 z"
       id="path4"
       style="fill:#ffffff;fill-opacity:1;stroke-width:0.477052" />
    <path
       d="M 14.930053,8.3853048 V 11.24762 h 7.632844 V 8.3853048 c 0,-0.524754 -0.429347,-0.954094 -0.954106,-0.954094 h -5.724632 c -0.524758,0 -0.954106,0.429338 -0.954106,0.954094 z m 6.678738,0.954112 h -5.724632 v -0.954112 h 5.724632 z m -2.862316,-7.632839 c -1.316665,0 -2.385264,1.068589 -2.385264,2.385253 l 2.385264,3.339381 2.385264,-3.339381 c 0,-1.316664 -1.068599,-2.385253 -2.385264,-2.385253 z m 0,4.293476 -1.431158,-1.908223 c 0,-0.791909 0.639251,-1.431157 1.431158,-1.431157 0.791908,0 1.431158,0.639248 1.431158,1.431157 z"
       id="path28"
       style="fill:#ffffff;fill-opacity:1;stroke-width:0.477052" />
    <g
       id="g18"
       transform="matrix(0.47705275,0,0,0.47705275,1.1674188,0.75246626)"
       style="fill:#ffffff;fill-opacity:1">
      <path
         d="M 20,7 H 15 V 4 C 15,2.9 14.1,2 13,2 H 11 C 9.9,2 9,2.9 9,4 V 7 H 4 C 2.9,7 2,7.9 2,9 v 11 c 0,1.1 0.9,2 2,2 h 16 c 1.1,0 2,-0.9 2,-2 V 9 C 22,7.9 21.1,7 20,7 Z M 9,12 c 0.83,0 1.5,0.67 1.5,1.5 C 10.5,14.33 9.83,15 9,15 8.17,15 7.5,14.33 7.5,13.5 7.5,12.67 8.17,12 9,12 Z m 3,6 H 6 v -0.75 c 0,-1 2,-1.5 3,-1.5 1,0 3,0.5 3,1.5 z M 13,9 H 11 V 4 h 2 z m 5,7.5 H 14 V 15 h 4 z m 0,-3 H 14 V 12 h 4 z"
         id="path16"
         style="fill:#ffffff;fill-opacity:1" />
    </g>
    <g
       fill-rule="evenodd"
       id="g8"
       transform="matrix(0.47705275,0,0,0.47705275,0.92889242,12.601951)"
       style="fill:#ffffff;fill-opacity:1">
      <path
         d="m 9,17 3,-2.94 C 11.61,14.02 11.32,14 11,14 8.33,14 3,15.34 3,18 v 2 h 9 z m 2,-5 c 2.21,0 4,-1.79 4,-4 C 15,5.79 13.21,4 11,4 8.79,4 7,5.79 7,8 c 0,2.21 1.79,4 4,4"
         id="path4-6"
         style="fill:#ffffff;fill-opacity:1" />
      <path
         d="M 15.47,20.5 12,17 l 1.4,-1.41 2.07,2.08 5.13,-5.17 1.4,1.41 z"
         id="path6"
         style="fill:#ffffff;fill-opacity:1" />
    </g>
  </g>
</svg>
