<svg width="82" height="82" viewBox="0 0 82 82" fill="none" xmlns="http://www.w3.org/2000/svg">
<path d="M45.5238 13.0245L45.5298 13.0204L45.5358 13.0163C49.9364 10.0633 55.9157 7.60343 60.8438 6.78615C62.2286 6.54597 65.1743 6.37665 67.4122 6.3483L67.4178 6.34826L71.4299 6.32001L72.437 6.31292V7.31998V11.6711V16.0222V17.0222H71.437H67.6826C63.6376 17.05 60.77 17.5689 57.4566 18.8997L57.4541 18.9007C46.6969 23.1872 39.6622 33.5028 39.6622 44.9262V47.7233V48.7233H38.6622H34.1133H29.5361H28.4945L28.537 47.6825L28.7064 43.531C28.7064 43.5307 28.7064 43.5304 28.7065 43.5301C29.1125 33.1242 33.1812 24.2062 40.7968 16.9662C42.2395 15.5815 44.3701 13.8232 45.5238 13.0245Z" fill="#EDEDED" stroke="#434343" stroke-width="2"/>
<path d="M48.3235 28.7983L48.3249 28.7966C52.2398 24.1753 57.8809 21.0332 63.9341 20.0921C64.6329 19.979 66.0208 19.9314 67.2879 19.9279C68.5435 19.9244 69.8838 19.9634 70.4574 20.0677L70.4574 20.0676L70.4685 20.0697L71.3444 20.2393L72.1544 20.396V21.221V25.2331V29.2452V30.2864L71.114 30.2444L68.3169 30.1314L68.3153 30.1313C66.6721 30.0623 65.4738 30.1136 64.3709 30.3291C63.2732 30.5435 62.2219 30.9299 60.886 31.5842L60.886 31.5843L60.8742 31.5899C59.6566 32.1667 58.3112 33.1529 57.1098 34.3205C55.9072 35.4893 54.9065 36.7839 54.3355 37.9387L54.3355 37.9387L54.3335 37.9426C53.1656 40.2785 52.5556 43.1265 52.7137 45.7117C52.7137 45.712 52.7137 45.7124 52.7137 45.7127L52.8549 47.9428L52.9221 49.0059H51.8569H47.8165H43.7762H42.9519L42.7946 48.1968L42.5968 47.1796L42.5968 47.1796L42.5964 47.1776C42.4269 46.2961 42.4545 44.7674 42.5708 43.2601C42.6896 41.7185 42.914 40.0474 43.1976 38.8236L43.1975 38.8236L43.2 38.8135C43.9441 35.7476 46.2494 31.2576 48.3235 28.7983Z" fill="#EDEDED" stroke="#434343" stroke-width="2"/>
<path d="M63.5905 35.6475L63.591 35.6473C64.521 35.3218 65.3877 35.1535 66.2763 35.1968C67.165 35.2401 68.0076 35.4919 68.8952 35.912C70.2411 36.5385 71.2912 37.3803 71.995 38.5046C72.698 39.6276 73.002 40.9475 73.002 42.4398C73.002 45.8089 70.4171 48.8585 67.1025 49.3888L67.1025 49.3888L67.0978 49.3896C62.8061 50.0549 58.8528 46.4581 58.8528 42.0725H58.8527L58.8529 42.0595C58.8704 40.7089 59.4473 39.3306 60.2778 38.2075C61.1104 37.0815 62.2732 36.1094 63.5905 35.6475Z" fill="#EDEDED" stroke="#434343" stroke-width="2"/>
<path d="M59.2831 53.1544L59.2831 53.1543L59.2857 53.1496C59.438 52.8703 59.6595 52.616 59.8778 52.4167C60.0957 52.2178 60.3754 52.0142 60.6831 51.886C60.8485 51.8171 61.0304 51.7866 61.134 51.7706C61.266 51.7502 61.4199 51.7332 61.5857 51.7185C61.9191 51.689 62.3449 51.6653 62.8282 51.6473C63.7973 51.6113 65.0358 51.5971 66.3059 51.6114L66.3073 51.6114C68.514 51.6391 69.7593 51.6591 70.5055 51.7663C70.899 51.8228 71.255 51.9151 71.5753 52.1064C71.8962 52.298 72.1001 52.5443 72.2362 52.709L72.2392 52.7127C72.4584 52.9806 72.6282 53.277 72.7387 53.7623C72.8346 54.1837 72.8879 54.7568 72.9234 55.592C72.9952 57.279 73.002 60.3091 73.002 65.9755C73.002 71.7674 72.9953 74.8002 72.9198 76.4471C72.8826 77.2574 72.8265 77.8158 72.7182 78.2236C72.6597 78.4434 72.5807 78.6425 72.4674 78.8269C72.3547 79.0104 72.2316 79.1399 72.1441 79.2274C71.9632 79.4083 71.7359 79.6008 71.3927 79.745C71.0783 79.8772 70.7227 79.9451 70.3121 79.9881C69.5058 80.0726 68.1927 80.0854 65.9274 80.0854C63.6621 80.0854 62.349 80.0726 61.5427 79.9881C61.1321 79.9451 60.7765 79.8772 60.4622 79.745C60.1189 79.6008 59.8916 79.4083 59.7108 79.2274C59.6232 79.1399 59.5004 79.0107 59.3879 78.8279C59.2746 78.6439 59.1955 78.4454 59.1369 78.226C59.0283 77.8192 58.9722 77.2632 58.9351 76.4579C58.8595 74.8215 58.8528 71.8097 58.8528 66.0603C58.8528 62.13 58.881 59.104 58.9343 57.0111C58.9609 55.9662 58.994 55.1438 59.0338 54.554C59.0536 54.2606 59.076 54.0109 59.1022 53.8141C59.1151 53.7165 59.1309 53.6179 59.151 53.5266C59.166 53.4588 59.2013 53.3063 59.2831 53.1544Z" fill="#EDEDED" stroke="#434343" stroke-width="2"/>
<path d="M33.1699 80.2501C44.8617 80.2501 54.3398 70.772 54.3398 59.0802C54.3398 47.3884 44.8617 37.9103 33.1699 37.9103C21.4781 37.9103 12 47.3884 12 59.0802C12 70.772 21.4781 80.2501 33.1699 80.2501Z" fill="#598527"/>
<path fill-rule="evenodd" clip-rule="evenodd" d="M19.0566 57.9676L23.3118 55.7363L26.8694 62.3626L43.4713 50.2594L46.4011 53.9783L25.1952 69.6651L19.0566 57.9676Z" fill="white"/>
</svg>
