<svg width="82" height="82" viewBox="0 0 82 82" fill="none" xmlns="http://www.w3.org/2000/svg">
<path d="M45.5238 13.0248L45.5298 13.0207L45.5358 13.0166C49.9364 10.0636 55.9157 7.60373 60.8438 6.78646C62.2286 6.54628 65.1743 6.37695 67.4122 6.34861L67.4178 6.34857L71.4299 6.32032L72.437 6.31322V7.32029V11.6714V16.0225V17.0225H71.437H67.6826C63.6376 17.0503 60.77 17.5692 57.4566 18.9L57.454 18.901C46.6969 23.1875 39.6622 33.5031 39.6622 44.9265V47.7236V48.7236H38.6622H34.1133H29.5361H28.4945L28.537 47.6829L28.7064 43.5313C28.7064 43.531 28.7064 43.5307 28.7065 43.5304C29.1125 33.1245 33.1812 24.2065 40.7968 16.9665C42.2395 15.5818 44.3701 13.8235 45.5238 13.0248Z" fill="#EDEDED" stroke="#434343" stroke-width="2"/>
<path d="M48.3235 28.7986L48.3249 28.7969C52.2398 24.1756 57.8809 21.0336 63.9341 20.0924C64.6329 19.9794 66.0208 19.9317 67.2879 19.9282C68.5435 19.9248 69.8838 19.9637 70.4574 20.068L70.4574 20.0679L70.4685 20.07L71.3444 20.2396L72.1544 20.3963V21.2214V25.2334V29.2455V30.2867L71.114 30.2447L68.3169 30.1317L68.3153 30.1316C66.6721 30.0626 65.4738 30.1139 64.3709 30.3294C63.2732 30.5438 62.2219 30.9302 60.886 31.5845L60.886 31.5846L60.8742 31.5902C59.6566 32.167 58.3112 33.1532 57.1098 34.3208C55.9072 35.4896 54.9065 36.7842 54.3355 37.939L54.3355 37.939L54.3335 37.9429C53.1656 40.2788 52.5556 43.1268 52.7137 45.712C52.7137 45.7123 52.7137 45.7127 52.7137 45.713L52.8549 47.9431L52.9222 49.0062H51.8569H47.8165H43.7762H42.9519L42.7946 48.1971L42.5968 47.1799L42.5968 47.1799L42.5964 47.1779C42.4269 46.2964 42.4546 44.7678 42.5708 43.2604C42.6896 41.7188 42.914 40.0477 43.1976 38.824L43.1975 38.8239L43.2 38.8138C43.9441 35.7479 46.2494 31.2579 48.3235 28.7986Z" fill="#EDEDED" stroke="#434343" stroke-width="2"/>
<path d="M63.5905 35.6478L63.591 35.6476C64.521 35.3221 65.3877 35.1538 66.2763 35.1971C67.165 35.2405 68.0076 35.4922 68.8952 35.9123C70.2411 36.5388 71.2912 37.3806 71.995 38.5049C72.698 39.6279 73.002 40.9478 73.002 42.4401C73.002 45.8092 70.4171 48.8588 67.1025 49.3891L67.1025 49.3891L67.0978 49.3899C62.8061 50.0552 58.8528 46.4584 58.8528 42.0728H58.8527L58.8529 42.0598C58.8704 40.7092 59.4473 39.3309 60.2778 38.2078C61.1104 37.0818 62.2732 36.1097 63.5905 35.6478Z" fill="#EDEDED" stroke="#434343" stroke-width="2"/>
<path d="M59.2831 53.1547L59.2831 53.1547L59.2857 53.1499C59.438 52.8706 59.6595 52.6163 59.8778 52.417C60.0957 52.2181 60.3754 52.0145 60.6831 51.8863C60.8485 51.8174 61.0304 51.7869 61.134 51.7709C61.266 51.7505 61.4199 51.7335 61.5857 51.7188C61.9191 51.6893 62.3449 51.6656 62.8282 51.6476C63.7973 51.6116 65.0358 51.5974 66.3059 51.6117L66.3073 51.6117C68.514 51.6395 69.7593 51.6594 70.5055 51.7666C70.899 51.8231 71.255 51.9154 71.5753 52.1067C71.8962 52.2983 72.1001 52.5446 72.2362 52.7093L72.2392 52.713C72.4584 52.9809 72.6282 53.2773 72.7387 53.7626C72.8346 54.184 72.8879 54.7572 72.9234 55.5923C72.9952 57.2793 73.002 60.3094 73.002 65.9758C73.002 71.7677 72.9953 74.8005 72.9198 76.4474C72.8826 77.2578 72.8265 77.8161 72.7182 78.2239C72.6597 78.4437 72.5807 78.6428 72.4674 78.8272C72.3547 79.0107 72.2316 79.1402 72.1441 79.2277C71.9632 79.4086 71.7359 79.6011 71.3927 79.7453C71.0783 79.8775 70.7227 79.9454 70.3121 79.9884C69.5058 80.0729 68.1927 80.0857 65.9274 80.0857C63.6621 80.0857 62.349 80.0729 61.5427 79.9884C61.1321 79.9454 60.7765 79.8775 60.4622 79.7453C60.1189 79.6011 59.8916 79.4086 59.7108 79.2277C59.6232 79.1402 59.5004 79.011 59.3879 78.8282C59.2746 78.6442 59.1955 78.4457 59.1369 78.2263C59.0283 77.8195 58.9722 77.2635 58.9351 76.4583C58.8595 74.8219 58.8528 71.81 58.8528 66.0606C58.8528 62.1303 58.881 59.1043 58.9343 57.0115C58.9609 55.9666 58.994 55.1441 59.0338 54.5543C59.0536 54.2609 59.076 54.0112 59.1022 53.8144C59.1151 53.7168 59.1309 53.6182 59.151 53.5269C59.166 53.4592 59.2013 53.3066 59.2831 53.1547Z" fill="#EDEDED" stroke="#434343" stroke-width="2"/>
<path d="M33.1699 80.2504C44.8617 80.2504 54.3398 70.7723 54.3398 59.0805C54.3398 47.3887 44.8617 37.9106 33.1699 37.9106C21.4781 37.9106 12 47.3887 12 59.0805C12 70.7723 21.4781 80.2504 33.1699 80.2504Z" fill="#FFD100"/>
<rect x="24.4073" y="48.9219" width="7.28927" height="20.9373" fill="white"/>
<rect x="34.9534" y="48.9219" width="7.28927" height="20.9373" fill="white"/>
</svg>
