<svg width="82" height="82" viewBox="0 0 82 82" fill="none" xmlns="http://www.w3.org/2000/svg">
<g opacity="0.35">
<path d="M45.5238 12.7045L45.5298 12.7003L45.5358 12.6963C49.9364 9.7433 55.9157 7.28342 60.8438 6.46614C62.2286 6.22596 65.1743 6.05664 67.4122 6.0283L67.4178 6.02826L71.4299 6L72.437 5.99291V6.99998V11.3511V15.7022V16.7022H71.437H67.6826C63.6376 16.73 60.77 17.2489 57.4566 18.5797L57.454 18.5807C46.6969 22.8672 39.6622 33.1828 39.6622 44.6062V47.4033V48.4033H38.6622H34.1133H29.5361H28.4945L28.537 47.3625L28.7064 43.211C28.7064 43.2107 28.7064 43.2104 28.7065 43.2101C29.1125 32.8042 33.1812 23.8862 40.7968 16.6462C42.2395 15.2614 44.3701 13.5032 45.5238 12.7045Z" fill="#EDEDED" stroke="#434343" stroke-width="2"/>
<path d="M48.3235 28.4783L48.325 28.4766C52.2398 23.8553 57.8809 20.7132 63.9341 19.7721C64.6329 19.659 66.0209 19.6114 67.2879 19.6079C68.5435 19.6044 69.8838 19.6434 70.4574 19.7476L70.4574 19.7476L70.4686 19.7497L71.3444 19.9193L72.1544 20.076V20.901V24.9131V28.9252V29.9664L71.114 29.9244L68.3169 29.8114L68.3153 29.8113C66.6721 29.7423 65.4738 29.7936 64.3709 30.0091C63.2733 30.2235 62.2219 30.6099 60.886 31.2642L60.886 31.2643L60.8742 31.2699C59.6566 31.8467 58.3112 32.8329 57.1098 34.0005C55.9072 35.1693 54.9065 36.4639 54.3355 37.6187L54.3355 37.6187L54.3335 37.6226C53.1656 39.9584 52.5556 42.8065 52.7137 45.3917C52.7137 45.392 52.7137 45.3924 52.7137 45.3927L52.8549 47.6227L52.9222 48.6859H51.8569H47.8165H43.7762H42.9519L42.7946 47.8768L42.5968 46.8596L42.5968 46.8596L42.5964 46.8576C42.4269 45.9761 42.4546 44.4474 42.5708 42.9401C42.6896 41.3985 42.914 39.7274 43.1976 38.5036L43.1975 38.5036L43.2 38.4935C43.9441 35.4276 46.2494 30.9376 48.3235 28.4783Z" fill="#EDEDED" stroke="#434343" stroke-width="2"/>
<path d="M63.5905 35.3275L63.591 35.3273C64.521 35.0018 65.3877 34.8334 66.2763 34.8768C67.165 34.9201 68.0076 35.1719 68.8952 35.592C70.2411 36.2185 71.2913 37.0603 71.995 38.1846C72.698 39.3076 73.002 40.6275 73.002 42.1198C73.002 45.4889 70.4171 48.5385 67.1026 49.0688L67.1026 49.0688L67.0978 49.0696C62.8061 49.7349 58.8528 46.1381 58.8528 41.7525H58.8527L58.8529 41.7395C58.8704 40.3889 59.4473 39.0106 60.2778 37.8875C61.1104 36.7615 62.2732 35.7894 63.5905 35.3275Z" fill="#EDEDED" stroke="#434343" stroke-width="2"/>
<path d="M59.2831 52.8343L59.2831 52.8343L59.2857 52.8296C59.438 52.5503 59.6595 52.296 59.8778 52.0967C60.0957 51.8978 60.3754 51.6942 60.6831 51.566C60.8485 51.4971 61.0305 51.4665 61.134 51.4506C61.266 51.4302 61.4199 51.4132 61.5857 51.3985C61.9191 51.369 62.3449 51.3453 62.8282 51.3273C63.7973 51.2913 65.0358 51.2771 66.306 51.2914L66.3073 51.2914C68.514 51.3191 69.7593 51.3391 70.5055 51.4463C70.899 51.5028 71.255 51.5951 71.5753 51.7864C71.8962 51.978 72.1001 52.2243 72.2362 52.389L72.2392 52.3927C72.4584 52.6606 72.6282 52.957 72.7387 53.4423C72.8346 53.8637 72.8879 54.4368 72.9234 55.272C72.9952 56.959 73.002 59.9891 73.002 65.6555C73.002 71.4474 72.9953 74.4802 72.9198 76.127C72.8826 76.9374 72.8266 77.4957 72.7182 77.9035C72.6597 78.1234 72.5807 78.3225 72.4674 78.5069C72.3547 78.6903 72.2316 78.8199 72.1441 78.9074C71.9632 79.0883 71.736 79.2808 71.3927 79.425C71.0783 79.5572 70.7227 79.6251 70.3121 79.6681C69.5058 79.7526 68.1927 79.7654 65.9274 79.7654C63.6621 79.7654 62.349 79.7526 61.5427 79.6681C61.1321 79.6251 60.7765 79.5572 60.4622 79.425C60.1189 79.2808 59.8916 79.0883 59.7108 78.9074C59.6233 78.8199 59.5004 78.6906 59.3879 78.5078C59.2746 78.3239 59.1955 78.1254 59.1369 77.906C59.0283 77.4992 58.9722 76.9432 58.9351 76.1379C58.8596 74.5015 58.8528 71.4897 58.8528 65.7402C58.8528 61.81 58.881 58.784 58.9343 56.6911C58.9609 55.6462 58.994 54.8238 59.0338 54.234C59.0536 53.9406 59.076 53.6908 59.1022 53.4941C59.1151 53.3965 59.1309 53.2978 59.151 53.2066C59.166 53.1388 59.2013 52.9862 59.2831 52.8343Z" fill="#EDEDED" stroke="#434343" stroke-width="2"/>
</g>
</svg>
