<?xml version="1.0" encoding="UTF-8" standalone="no"?>
<!-- Created with Inkscape (http://www.inkscape.org/) -->

<svg
   width="102mm"
   height="102mm"
   viewBox="0 0 102 102"
   version="1.1"
   id="svg1"
   xml:space="preserve"
   inkscape:version="1.4.2 (ebf0e940d0, 2025-05-08)"
   sodipodi:docname="icon.svg"
   xmlns:inkscape="http://www.inkscape.org/namespaces/inkscape"
   xmlns:sodipodi="http://sodipodi.sourceforge.net/DTD/sodipodi-0.dtd"
   xmlns="http://www.w3.org/2000/svg"
   xmlns:svg="http://www.w3.org/2000/svg"
   xmlns:rdf="http://www.w3.org/1999/02/22-rdf-syntax-ns#"
   xmlns:cc="http://creativecommons.org/ns#"
   xmlns:dc="http://purl.org/dc/elements/1.1/"><title
     id="title12">Essentialist</title><sodipodi:namedview
     id="namedview1"
     pagecolor="#ffffff"
     bordercolor="#666666"
     borderopacity="1.0"
     inkscape:showpageshadow="2"
     inkscape:pageopacity="0.0"
     inkscape:pagecheckerboard="true"
     inkscape:deskcolor="#d1d1d1"
     inkscape:document-units="mm"
     showborder="false"
     inkscape:zoom="0.72337262"
     inkscape:cx="142.38858"
     inkscape:cy="250.21683"
     inkscape:window-width="1303"
     inkscape:window-height="827"
     inkscape:window-x="26"
     inkscape:window-y="23"
     inkscape:window-maximized="0"
     inkscape:current-layer="layer1"
     inkscape:clip-to-page="false" /><defs
     id="defs1"><clipPath
       clipPathUnits="userSpaceOnUse"
       id="clipPath12"><rect
         style="fill:none;fill-opacity:1;fill-rule:evenodd;stroke:#497598;stroke-width:0;stroke-linecap:round;stroke-dasharray:none;stroke-opacity:1"
         id="rect13"
         width="200.07263"
         height="167.88547"
         x="70.755272"
         y="228.9967" /></clipPath><clipPath
       clipPathUnits="userSpaceOnUse"
       id="clipPath13"><rect
         style="fill:none;fill-opacity:1;fill-rule:evenodd;stroke:#497598;stroke-width:0;stroke-linecap:round;stroke-dasharray:none;stroke-opacity:1"
         id="rect14"
         width="453.58221"
         height="447.76157"
         x="-127.74973"
         y="295.01852" /></clipPath></defs><g
     inkscape:label="Logo"
     inkscape:groupmode="layer"
     id="layer1"
     transform="translate(-34.178919,-216.56074)"><g
       id="g6"
       transform="matrix(0.44109455,0,0,0.37494391,42.438293,91.393799)"
       clip-path="url(#clipPath13)"><path
         style="display:inline;fill:#dbdcdc;fill-opacity:1"
         d="m 5.2454084,717.14207 c -2.02894,-0.46188 -3.60987,-1.35098 -4.85720997,-2.73163 -1.04823,-1.16027 -1.89212003,-3.10729 -1.75795003,-4.05598 0.0858,-0.60649 0.18096,-0.63217 2.60257,-0.70212 l 2.51355,-0.0726 0.52916,0.97721 c 0.84999,1.56968 1.73058,2.05533 3.92801,2.16629 3.1305296,0.15809 4.8913496,-0.99456 4.2552596,-2.78552 -0.34658,-0.97582 -1.6346,-1.5475 -5.1648896,-2.29242 -3.60981,-0.7617 -5.38335,-1.58688 -6.68895997,-3.11219 -0.88936,-1.03902 -1.49593,-2.69442 -1.12368,-3.06667 0.0902,-0.0902 0.16405,0.0987 0.16405,0.41976 0,0.91771 0.97061,2.58671 1.91578997,3.29428 1.49936,1.12243 2.56472,1.53172 5.72372,2.19892 1.69187,0.35734 3.4911696,0.85268 3.9984396,1.10076 1.84801,0.90375 2.05508,2.66655 0.45332,3.85914 -0.55148,0.4106 -1.23661,0.57676 -2.6784196,0.64957 -2.59913,0.13125 -4.11498,-0.50525 -4.90874,-2.06115 l -0.55646,-1.09076 -2.30455,0.0763 -2.30455,0.0763 0.0305,0.99618 c 0.0398,1.29752 1.24602,3.23765 2.70469,4.35022 1.71844,1.3107 3.63366,1.79215 7.05436,1.77336 3.7654796,-0.0207 5.4850896,-0.62241 7.4238996,-2.5977 1.58409,-1.6139 2.12825,-3.13673 1.87747,-5.25416 -0.34316,-2.8974 -2.38444,-4.48958 -7.37215,-5.75017 -1.6431496,-0.41529 -2.7944596,-0.76378 -2.5584596,-0.77442 0.86735,-0.0391 5.4782596,1.27146 6.7620096,1.92199 2.55079,1.29258 3.72549,3.41268 3.43919,6.20708 -0.39178,3.82388 -3.84143,6.32483 -9.0427896,6.5559 -1.49886,0.0666 -3.0023,-0.0356 -4.05721,-0.27574 z m 24.6946996,0.21967 c -1.67762,-0.25663 -3.48905,-0.90006 -4.69992,-1.66946 -1.36772,-0.86906 -2.6876,-2.69637 -3.12744,-4.32981 -0.41407,-1.53774 -0.0796,-1.76981 2.55061,-1.76981 h 2.19907 l 0.75005,1.12448 c 0.99935,1.49824 2.15946,2.0497 4.31201,2.0497 2.89304,0 4.53732,-1.31898 3.76296,-3.0185 -0.43328,-0.95096 -1.40599,-1.35773 -5.0477,-2.11087 -4.74591,-0.9815 -6.91365,-2.36667 -7.67367,-4.90342 -1.33467,-4.45472 2.01347,-8.65964 7.09013,-8.90449 l 1.73599,-0.0837 -1.7585,0.22597 c -4.25128,0.54632 -6.71005,2.78137 -7.03796,6.3976 -0.11746,1.29542 -0.03,1.75311 0.56926,2.9779 1.15751,2.36586 2.73751,3.19087 8.17692,4.26967 2.58341,0.51237 3.88031,1.2206 4.27138,2.3326 0.59788,1.70006 -1.22699,3.08156 -4.07142,3.08225 -2.22947,5.4e-4 -3.67812,-0.68324 -4.48353,-2.11628 l -0.5948,-1.05831 h -2.20372 c -2.42389,0 -2.66875,0.16347 -2.27923,1.52165 0.88701,3.09279 3.49771,5.06097 7.49337,5.64916 3.7404,0.55061 7.49735,-0.37624 9.54681,-2.35522 1.35806,-1.31137 1.77227,-2.17558 2.03995,-4.25612 l 0.22517,-1.75009 -0.0889,1.80008 c -0.0703,1.42293 -0.24908,2.06044 -0.85352,3.04271 -0.88993,1.44621 -2.75417,2.79088 -4.64968,3.35378 -1.42295,0.42257 -4.84043,0.69944 -6.15371,0.49855 z m 154.751452,-0.20489 c -3.1193,-0.75704 -5.52049,-2.87541 -6.2188,-5.48634 -0.52873,-1.97684 -0.36639,-2.10992 2.46616,-2.02169 l 2.44421,0.0761 0.59065,1.05833 c 0.76875,1.37744 2.06001,1.96845 4.31945,1.97703 2.09179,0.008 3.43157,-0.58393 3.78523,-1.67218 0.3389,-1.04282 -0.13712,-1.96451 -1.25605,-2.43203 -0.50007,-0.20894 -2.26852,-0.6678 -3.9299,-1.01969 -1.66138,-0.35189 -3.54392,-0.90223 -4.18342,-1.22297 -2.47844,-1.24306 -3.67628,-3.01708 -3.67628,-5.44465 0,-3.06874 1.07387,-4.83665 3.75024,-6.17405 0.89427,-0.44687 1.81529,-0.80967 2.04671,-0.80622 0.23142,0.003 -0.28173,0.29509 -1.14033,0.64808 -2.93595,1.20702 -4.37597,3.2324 -4.38622,6.1692 -0.0129,3.68263 1.93444,5.3683 7.58378,6.56486 3.66366,0.77598 4.66538,1.17147 5.258,2.07594 0.58927,0.89933 0.26553,2.12824 -0.76295,2.89611 -0.57114,0.42642 -1.21403,0.57424 -2.77594,0.6383 -1.71112,0.0702 -2.21858,-0.0134 -3.20796,-0.52802 -0.77776,-0.40458 -1.34759,-0.9503 -1.68469,-1.61341 l -0.5094,-1.00203 -2.28108,0.076 c -2.63755,0.0879 -2.77938,0.24749 -2.00999,2.2621 1.23078,3.22275 4.62328,5.08993 9.24796,5.08993 4.61881,0 8.19402,-1.92453 9.29451,-5.00321 0.73017,-2.04269 0.28425,-4.64621 -1.03891,-6.06572 -0.97449,-1.04544 -2.97138,-1.8859 -6.72999,-2.83255 -3.78702,-0.95379 -4.72952,-1.38337 -5.07313,-2.31224 -0.54991,-1.48653 0.67293,-2.79109 2.75752,-2.9418 0.72554,-0.0525 1.02151,-0.0467 0.65771,0.0128 -1.61256,0.26374 -2.8708,0.92131 -3.1176,1.62928 -0.57357,1.64533 0.31158,2.301 4.38219,3.24611 5.41164,1.25646 7.48447,2.45963 8.40926,4.88117 0.87038,2.27906 0.0841,5.45704 -1.77732,7.18355 -0.89889,0.83373 -3.05137,1.83618 -4.66841,2.17415 -1.80026,0.37626 -4.83715,0.33913 -6.56521,-0.0803 z m -80.61418,-0.25044 c -1.53194,-0.43337 -2.70755,-1.47947 -3.46177,-3.08042 -0.51885,-1.10133 -0.56734,-1.71152 -0.646541,-8.13594 l -0.0856,-6.94531 h -1.55872 c -1.3219,0 -1.60475,-0.086 -1.86173,-0.56619 -0.40998,-0.76606 -0.18983,-3.63694 0.30281,-3.9487 0.20815,-0.13173 1.00354,-0.24133 1.76753,-0.24356 l 1.38906,-0.004 v -2.74981 c 0,-2.2634 0.074,-2.77823 0.418521,-2.91042 0.60215,-0.23107 4.41665,-0.19039 4.79673,0.0512 0.20666,0.13133 0.3476,1.13999 0.39688,2.84022 l 0.0764,2.63656 2.24635,0.13229 c 1.98461,0.11688 2.25712,0.19395 2.33887,0.66146 0.0857,0.48998 0.0663,0.49546 -0.26197,0.074 -0.27247,-0.34982 -0.84428,-0.47227 -2.47116,-0.52917 l -2.11667,-0.074 -0.13229,-2.77812 -0.13229,-2.77813 h -2.38125 -2.38125 l -0.1323,2.77813 -0.13229,2.77812 -1.533561,0.13644 c -0.94491,0.0841 -1.62889,0.28719 -1.78189,0.52917 -0.37175,0.58794 -0.31166,3.06022 0.0823,3.3872 0.18631,0.15462 0.98998,0.31803 1.78594,0.36312 l 1.447181,0.082 0.1434,7.01146 c 0.14728,7.20193 0.22374,7.73236 1.34068,9.30096 1.09757,1.5414 3.78375,2.32189 6.72596,1.95428 1.33955,-0.16736 1.53055,-0.27149 1.87915,-1.02442 l 0.38804,-0.83811 -0.16411,0.79375 c -0.0903,0.43656 -0.25536,0.88747 -0.36689,1.00202 -0.38959,0.40015 -4.6049,0.46705 -5.92354,0.094 z m 107.45106,0.1121 c 1.21046,-0.11677 2.31763,-0.32911 2.46039,-0.47187 0.14276,-0.14276 0.22395,-1.0812 0.18042,-2.08542 l -0.0791,-1.82585 -1.32291,-0.0717 c -1.78489,-0.0968 -2.46174,-0.49331 -2.77654,-1.62656 -0.14477,-0.52115 -0.26388,-3.53715 -0.2647,-6.70222 l -0.001,-5.75469 h 2.10736 c 1.81269,0 2.14565,-0.0716 2.38125,-0.51177 0.31748,-0.59324 0.36091,-2.91045 0.0633,-3.37866 -0.12251,-0.19274 -1.0353,-0.34949 -2.31105,-0.39688 l -2.10858,-0.0783 -0.13229,-2.77812 -0.13229,-2.77813 -2.35888,-0.0771 c -1.70866,-0.0558 -2.41862,0.0171 -2.57563,0.26458 -0.11922,0.18792 -0.21859,1.49685 -0.22082,2.90873 l -0.004,2.56707 -1.65364,0.0788 -1.65365,0.0788 v 1.98437 1.98438 l 1.63137,0.0782 1.63137,0.0782 0.0884,7.06556 c 0.0848,6.7772 0.11365,7.11677 0.70644,8.32048 0.66177,1.34375 1.65235,2.19689 3.18803,2.74568 0.52605,0.18799 0.74335,0.34702 0.48289,0.35341 -0.6632,0.0163 -2.32488,-0.87518 -3.01954,-1.6199 -1.38787,-1.48788 -1.51256,-2.23403 -1.61546,-9.66739 l -0.096,-6.93327 -1.63106,-0.0782 -1.63106,-0.0782 v -2.24896 -2.24896 l 1.65364,-0.0788 1.65365,-0.0788 v -2.60081 c 0,-1.90585 0.0989,-2.68291 0.37023,-2.90807 0.23894,-0.19831 1.24751,-0.28016 2.84427,-0.23084 l 2.47404,0.0764 0.0751,2.84427 0.0751,2.84427 h 2.09841 c 1.80384,0 2.13685,0.0718 2.3723,0.51178 0.34585,0.64622 0.35488,2.68034 0.0159,3.57204 -0.24764,0.65134 -0.34428,0.67868 -2.39885,0.67868 h -2.1408 l 0.0837,6.2415 c 0.0831,6.19359 0.0885,6.24538 0.70836,6.74687 0.39866,0.32256 1.0369,0.50538 1.7643,0.50538 1.92216,0 1.9767,0.0661 1.9767,2.39394 0,1.21394 -0.11982,2.1468 -0.28918,2.25147 -0.15904,0.0983 -1.3199,0.21656 -2.57968,0.26282 l -2.29052,0.0841 z m -238.288532,-0.33502 c -0.4187,-0.4187 -0.46059,-29.61242 -0.0436,-30.39156 0.26356,-0.49246 0.66088,-0.51177 10.53042,-0.51177 7.6245104,0 10.3380004,0.0815 10.5740204,0.3175 0.19242,0.19242 0.3175,1.12682 0.3175,2.37194 0,1.76038 -0.0733,2.09365 -0.51177,2.32833 -0.31728,0.1698 -3.28364,0.2739 -7.8052104,0.2739 h -7.29344 v 3.82956 3.82957 l 3.96905,0.0837 3.96905,0.0837 -4.03519,-0.0107 -4.0352,-0.0107 -0.073,-4.03489 -0.073,-4.0349 h 7.4946 c 5.4763604,0 7.5801004,-0.0855 7.8121004,-0.3175 0.41818,-0.41818 0.41818,-3.70931 0,-4.1275 -0.45565,-0.45565 -20.0760204,-0.45565 -20.5316704,0 -0.4582,0.4582 -0.4582,29.59847 0,30.05667 0.23586,0.23585 2.91498,0.3175 10.41865,0.3175 8.3694204,0 10.1542204,-0.064 10.4107504,-0.37306 0.1893,-0.22808 0.279,-1.07636 0.23084,-2.18281 l -0.0788,-1.80976 -3.70416,-0.14754 -3.7041704,-0.14755 3.8364604,0.0153 3.83646,0.0152 0.0777,2.0756 c 0.0488,1.30256 -0.0372,2.21408 -0.23083,2.4474 -0.25542,0.30776 -2.09388,0.37179 -10.6742904,0.37179 -7.70945,0 -10.44709,-0.0814 -10.68323,-0.3175 z m 99.077632,0.14111 c -0.09701,-0.097 -0.176388,-5.15298 -0.176388,-11.23548 0,-12.7204 -0.266525,-11.60688 2.778124,-11.60688 2.250822,0 2.778125,0.27798 2.778125,1.46452 0,0.5042 0.05218,0.91673 0.115962,0.91673 0.06378,0 0.509579,-0.35951 0.990667,-0.79892 0.481087,-0.4394 1.530233,-1.04614 2.331434,-1.34829 1.180011,-0.44502 1.883937,-0.52833 3.705687,-0.43858 1.763485,0.0869 2.542404,0.26142 3.608348,0.80855 2.444227,1.25458 4.10715,3.88917 4.0323,6.38844 -0.0287,0.96006 -0.057,0.90777 -0.25961,-0.48042 -0.31073,-2.12906 -1.440311,-4.06125 -2.990762,-5.11584 -1.566742,-1.06567 -2.725193,-1.39283 -4.938456,-1.39471 -2.236551,-0.002 -3.891132,0.57337 -5.354856,1.86179 -0.643439,0.56638 -1.245356,0.95431 -1.337593,0.86208 -0.09224,-0.0922 -0.167704,-0.61138 -0.167704,-1.15364 0,-1.19369 -0.228668,-1.30712 -2.635076,-1.30712 -1.197167,0 -1.898295,0.12079 -2.098025,0.36145 -0.215345,0.25947 -0.28047,3.41329 -0.230834,11.17864 l 0.06914,10.8172 h 2.513541 2.513542 l 0.132291,-7.40834 c 0.140512,-7.86864 0.158689,-7.98086 1.531179,-9.45273 0.648814,-0.6958 1.417046,-1.03667 3.099029,-1.37505 0.519874,-0.10459 0.656812,-0.0788 0.396875,0.0746 -0.218281,0.12886 -0.845115,0.31481 -1.392964,0.41323 -1.252225,0.22495 -2.71432,1.6412 -3.08966,2.99277 -0.159395,0.57397 -0.27755,3.86624 -0.2784,7.75729 -0.0011,4.90336 -0.08868,6.84731 -0.318975,7.0776 -0.337931,0.33793 -5.006456,0.4616 -5.326945,0.14111 z M 51.076689,702.40092 c 0.09259,-0.46296 0.469798,-1.35613 0.838237,-1.98482 1.715919,-2.928 6.628308,-3.13368 8.515647,-0.35655 0.647177,0.95229 1.188564,2.60526 0.96942,2.95984 -0.07589,0.1228 -2.467562,0.22327 -5.31482,0.22327 H 50.90834 Z m 10.052164,-0.15045 c -0.453475,-1.89122 -1.760627,-3.30402 -3.477558,-3.75863 -1.807256,-0.47852 -3.801703,0.0612 -5.010535,1.35585 -0.567288,0.60758 -1.401691,2.30848 -1.401691,2.8573 0,0.17815 1.749367,0.27309 5.032124,0.27309 h 5.032124 z m 55.805867,-11.43252 c -1.14967,-0.70099 -1.76033,-1.9472 -1.58708,-3.23885 0.18596,-1.38644 0.83058,-2.29313 1.96832,-2.7685 1.30609,-0.54572 2.60326,-0.25321 3.68814,0.83168 0.75926,0.75926 0.87872,1.0573 0.87872,2.19241 0,1.47079 -0.58661,2.45044 -1.86231,3.11013 -1.03085,0.53307 -2.07377,0.4902 -3.08579,-0.12687 z m 3.06986,-0.12948 c 1.53654,-0.79457 2.06492,-2.73902 1.19921,-4.41313 -0.39793,-0.7695 -1.73324,-1.55351 -2.64593,-1.55351 -1.49665,0 -3.02504,1.66441 -3.02504,3.29427 0,2.26896 2.43633,3.72494 4.47176,2.67237 z m 48.70948,0.18451 c -2.45952,-1.22867 -2.33769,-5.00389 0.19565,-6.06238 1.30608,-0.54572 2.60325,-0.25321 3.68814,0.83168 0.75926,0.75926 0.87871,1.0573 0.87871,2.19241 0,1.47079 -0.5866,2.45044 -1.8623,3.11013 -0.99215,0.51306 -1.76782,0.49384 -2.9002,-0.0718 z m 2.88427,-0.18451 c 1.51446,-0.78315 2.06559,-2.73772 1.22843,-4.3566 -0.5061,-0.9787 -2.04809,-1.70881 -3.16603,-1.49908 -1.11268,0.20874 -2.25012,1.4162 -2.44077,2.59099 -0.20309,1.25153 0.50209,2.6901 1.57903,3.2212 1.05588,0.52071 1.85257,0.53309 2.79934,0.0435 z M 76.77136,653.32398 c -27.102644,-0.60185 -49.569302,-2.68225 -59.341582,-5.49501 -3.46147,-0.99632 -4.60181,-1.47785 -5.54748,-2.34254 -1.59882,-1.46193 0.18089,-3.12362 4.69636,-4.38491 12.98177,-3.62616 42.421446,-5.85211 77.390621,-5.85155 31.957911,5e-4 57.767671,1.64261 72.760411,4.62926 6.71979,1.33863 10.28068,2.6644 10.60273,3.94756 0.26147,1.04177 -0.088,1.61838 -1.41388,2.33259 -8.22939,4.43303 -42.73092,7.45048 -83.272181,7.28284 -7.130521,-0.0295 -14.27427,-0.0827 -15.874999,-0.11824 z M 23.318198,605.47389 c -3.27665,-0.72304 -6.67104,-2.24822 -9.27751,-4.16859 -4.7650296,-3.51074 -7.9732896,-8.45675 -9.1343196,-14.0819 -0.44532,-2.15757 -0.49192,-3.80684 -0.49507,-17.51987 -0.003,-14.69767 0.0114,-15.14606 0.5083,-15.41198 0.34609,-0.18523 13.0600996,-0.27389 39.2736976,-0.27389 h 38.761929 l 0.0096,-7.96853 c 0.0059,-4.86583 -0.09418,-8.16249 -0.256971,-8.46667 -0.258372,-0.48277 -1.095044,-0.49814 -27.124519,-0.49814 H 28.725438 l -0.68064,-0.68063 -0.68063,-0.68063 0.18266,-13.67301 c 0.10046,-7.52016 0.2381,-13.87038 0.30586,-14.11159 0.17287,-0.61544 0.75481,-0.79749 2.88117,-0.90135 l 1.85209,-0.0905 0.0803,-1.65919 c 0.0443,-0.91456 0.22238,-1.74951 0.39687,-1.86044 0.17411,-0.11069 8.38305,-0.20307 18.242087,-0.2053 l 17.92552,-0.004 v -7.54063 c 0,-5.84306 -0.07445,-7.54612 -0.330729,-7.56507 -0.181901,-0.0135 -9.219788,-0.003 -20.084193,0.0222 -20.087515,0.0475 -20.569555,0.0271 -21.186755,-0.89728 -0.24198,-0.3624 -0.2648,-20.20712 -0.0289,-25.12603 0.10581,-2.20626 0.30227,-3.79559 0.50312,-4.07028 0.2467,-0.33739 0.83479,-0.47616 2.33995,-0.55217 l 2.01042,-0.10152 v -1.1791 c 0,-0.6485 0.12325,-1.4094 0.27389,-1.69087 0.26781,-0.50041 0.82736,-0.51178 25.201564,-0.51226 l 24.927669,-4.8e-4 -0.0049,-9.45837 c -0.0027,-5.20211 -0.09902,-9.6072 -0.214053,-9.7891 -0.165753,-0.26211 -8.213304,-0.33073 -38.790295,-0.33073 -35.5609546,0 -38.6095746,-0.0342 -38.9442746,-0.43742 -0.30118,-0.36279 -0.37811,-4.98452 -0.45095,-27.08953 -0.0783,-23.75095 -0.0409,-26.90242 0.34304,-28.95155 1.00116,-5.34281 3.45912,-9.88529 7.2593696,-13.41579 3.51355,-3.26417 7.83008,-5.33214 12.59374,-6.03344 1.51472,-0.223 2.53051,-0.55427 3.57188,-1.16486 2.91378,-1.70846 3.69357,-1.88065 18.123955,-4.00194 6.49771,-0.95518 16.149449,-2.47373 36.247915,-5.70306 6.257395,-1.0054 14.175051,-2.24329 17.594782,-2.75085 3.41975,-0.50756 9.19428,-1.39915 12.83231,-1.9813 3.63802,-0.58216 10.00785,-1.60155 14.15519,-2.2653 4.14735,-0.66376 9.44563,-1.50427 11.77396,-1.86781 2.32833,-0.36354 8.04333,-1.27637 12.7,-2.0285 7.26965,-1.17418 8.97166,-1.36598 12.03854,-1.35659 3.10556,0.01 3.88105,0.10456 5.94007,0.72805 7.49872,2.27066 12.88992,7.60545 15.18059,15.02176 0.61066,1.97711 0.78001,3.64253 1.89214,18.60751 1.47293,19.82005 2.39639,32.00685 2.78678,36.77708 0.35223,4.30393 1.83143,24.32377 2.51207,33.99896 0.14844,2.11005 0.38592,5.38427 0.52774,7.27604 0.14181,1.89177 0.43871,5.99943 0.65978,9.12812 0.22106,3.1287 0.63932,8.66511 0.92945,12.30313 0.29014,3.63802 0.94481,12.50817 1.45484,19.71145 0.51002,7.20328 1.16806,16.31156 1.4623,20.24062 0.29424,3.92907 0.88604,12.02532 1.31511,17.99167 2.24597,31.23114 2.29068,32.55713 1.23571,36.64479 -0.35679,1.38245 -0.95808,3.2098 -1.3362,4.06077 -1.92445,4.3311 -5.73254,8.34922 -9.79239,10.33247 -1.32588,0.6477 -2.78554,1.25286 -3.24369,1.34481 -1.00793,0.20229 -1.14287,0.60075 -1.14777,3.38925 -0.0126,7.18987 -4.08729,14.77388 -10.19559,18.97649 -1.62021,1.11474 -5.12916,2.72578 -7.27052,3.33807 -1.65495,0.47321 -4.35832,0.49336 -71.702081,0.53423 -57.378211,0.0348 -70.269521,-0.0209 -71.577121,-0.30944 z m 143.146912,-0.56283 c 4.75395,-1.42744 7.06268,-2.77435 10.34552,-6.0356 3.64126,-3.6173 5.67903,-7.48492 6.64992,-12.62129 0.44128,-2.33455 0.46706,-8.11353 0.46706,-104.73234 0,-96.34279 -0.0267,-102.3815 -0.46207,-104.33563 -0.57128,-2.56446 -1.37737,-4.5875 -2.87845,-7.22399 -1.25701,-2.2078 -4.28104,-5.61163 -6.30627,-7.09828 -2.05643,-1.50956 -5.37061,-3.03115 -8.12283,-3.72931 l -2.56569,-0.65084 -69.471931,0.0731 -69.471921,0.0731 -2.20078,0.59204 c -2.53628,0.6823 -5.53105,2.00723 -7.37043,3.26079 -3.69435,2.51774 -7.2970096,7.10266 -8.7617196,11.15059 -1.54893,4.28068 -1.51082,3.52143 -1.51082,30.10092 v 24.47396 l 41.3322756,0.067 c 40.670403,0.0659 41.336697,0.0752 41.608351,0.58282 0.183326,0.34255 0.252971,4.67555 0.207304,12.89761 l -0.06877,12.38176 -2.645833,0.16736 c -1.455208,0.092 -13.752148,0.18134 -27.326532,0.19844 -23.239766,0.0293 -24.691796,0.0581 -24.870836,0.4941 -0.23292,0.56722 -0.25647,26.67686 -0.0243,26.91008 0.0912,0.0916 9.37274,0.2255 20.625577,0.29749 11.252841,0.072 20.524609,0.19588 20.603928,0.27532 0.07932,0.0794 0.144217,4.71242 0.144217,10.29554 0,7.97536 -0.07371,10.22482 -0.34389,10.49493 -0.274445,0.27439 -4.424909,0.36239 -20.552968,0.43582 -16.331354,0.0743 -20.234544,0.15838 -20.341824,0.43793 -0.073,0.19026 -0.21824,6.10614 -0.32274,13.14639 -0.14338,9.6602 -0.1132,12.94395 0.12301,13.38532 l 0.313,0.58484 27.309582,0.0674 27.309579,0.0674 0.06896,11.44323 c 0.03793,6.29378 0.03793,11.46671 0,11.49541 -0.03793,0.0287 -18.761767,0.118 -41.608537,0.19844 l -41.5395836,0.14626 v 15.47812 c 0,15.12481 0.0134,15.53072 0.58779,17.78245 1.30766,5.12641 3.87066,9.11846 7.9759396,12.42305 2.97211,2.39243 7.27125,4.34154 10.92652,4.95377 0.80895,0.13549 31.069943,0.21815 70.864951,0.19356 l 69.453121,-0.0429 z"
         id="path11"
         inkscape:label="path11" /><path
         style="display:none;fill:#99a4ad"
         d="m -26.495512,716.41891 c -0.4582,-0.4582 -0.4582,-29.59847 0,-30.05667 0.45565,-0.45565 20.0760204,-0.45565 20.5316704,0 0.1828,0.18281 0.3175,1.05834 0.3175,2.06375 0,1.00542 -0.1347,1.88095 -0.3175,2.06375 -0.23201,0.23201 -2.33709,0.3175 -7.8181504,0.3175 h -7.50064 l 0.0791,4.10143 c 0.0435,2.25578 -0.0132,4.10125 -0.12608,4.10104 -0.11283,-2.1e-4 -0.17236,-1.87562 -0.13229,-4.16757 l 0.0729,-4.16719 7.67292,-0.13229 7.6729204,-0.13229 v -1.98438 -1.98437 h -10.1864504 -10.18646 v 14.94896 14.94895 h 10.31875 10.3187504 l 0.0792,-1.8284 c 0.0552,-1.27519 -0.0248,-1.90169 -0.26458,-2.07066 -0.26595,-0.18741 -0.25393,-0.21795 0.0531,-0.13489 0.50915,0.13775 0.71171,3.49519 0.24481,4.05777 -0.25653,0.3091 -2.04133,0.37306 -10.4107504,0.37306 -7.50367,0 -10.18279,-0.0817 -10.41865,-0.3175 z m 50.79045,-111.1024 c -3.65526,-0.61223 -7.9544,-2.56134 -10.92651,-4.95377 -4.1052796,-3.30459 -6.6682896,-7.29664 -7.9759396,-12.42305 -0.57437,-2.25173 -0.58779,-2.65764 -0.58779,-17.78245 v -15.47812 l 41.5395796,-0.14626 c 22.84677,-0.0804 41.570611,-0.16974 41.608537,-0.19844 0.03793,-0.0287 0.03793,-5.20163 0,-11.49541 l -0.06896,-11.44323 -27.309579,-0.0674 -27.309578,-0.0674 -0.313,-0.58484 c -0.23621,-0.44137 -0.26639,-3.72512 -0.12301,-13.38532 0.1045,-7.04025 0.24973,-12.95613 0.32274,-13.14639 0.10727,-0.27955 4.01047,-0.36359 20.34182,-0.43793 16.128059,-0.0734 20.278523,-0.16143 20.552968,-0.43582 0.270181,-0.27011 0.34389,-2.51957 0.34389,-10.49493 0,-5.58312 -0.0649,-10.21611 -0.144217,-10.29554 -0.07932,-0.0794 -9.351087,-0.20333 -20.603928,-0.27532 -11.252843,-0.072 -20.534353,-0.20586 -20.625573,-0.29749 -0.2322,-0.23322 -0.20865,-26.34286 0.0243,-26.91009 0.17903,-0.43598 1.63106,-0.46483 24.870832,-0.49409 13.574384,-0.0171 25.871324,-0.10639 27.326532,-0.19844 l 2.645833,-0.16736 0.06877,-12.38176 c 0.04567,-8.22206 -0.02398,-12.55506 -0.207304,-12.89761 -0.271654,-0.50759 -0.937948,-0.51693 -41.608351,-0.58282 L 4.8047284,428.2083 v -24.47396 c 0,-26.57949 -0.0381,-25.82024 1.51082,-30.10093 1.46471,-4.04792 5.0673696,-8.63284 8.7617196,-11.15058 1.83938,-1.25356 4.83415,-2.57849 7.37043,-3.26079 l 2.20078,-0.59204 69.471921,-0.0731 69.471931,-0.0731 2.56569,0.65084 c 2.75222,0.69816 6.0664,2.21974 8.12283,3.7293 2.02523,1.48666 5.04926,4.89049 6.30627,7.09828 1.50108,2.6365 2.30717,4.65953 2.87845,7.22399 0.43532,1.95414 0.46207,7.99285 0.46207,104.33565 0,96.61881 -0.0258,102.39779 -0.46706,104.73234 -0.97089,5.13637 -3.00866,9.00399 -6.64992,12.62129 -3.28284,3.26125 -5.59157,4.60816 -10.34552,6.0356 l -1.85209,0.55611 -69.453121,0.0429 c -39.795012,0.0246 -70.056011,-0.0581 -70.864961,-0.19356 z m 142.170172,-0.7015 c 2.41197,-0.68316 5.3966,-2.03487 7.13693,-3.23225 3.47445,-2.39048 6.79318,-6.61522 8.33284,-10.6077 1.69933,-4.40651 1.5832,3.48559 1.60281,-108.92593 0.0124,-70.9775 -0.068,-102.76996 -0.26228,-103.77937 -0.96361,-5.0059 -3.32269,-9.45326 -6.82928,-12.87462 -2.80533,-2.73714 -5.68915,-4.40012 -9.89467,-5.70584 l -1.93844,-0.60183 -68.527081,-0.0756 c -48.160613,-0.0531 -69.195471,0.01 -70.776031,0.2117 -2.83463,0.36213 -6.72353,1.6798 -9.14118,3.09729 -4.13775,2.42602 -7.9799296,7.06672 -9.6329096,11.63494 -1.59518,4.40851 -1.62114,4.92719 -1.54003,30.77229 l 0.0735,23.41562 41.2488916,0.067 c 29.952459,0.0486 41.346614,0.14808 41.605727,0.36313 0.505406,0.41945 0.530767,25.75213 0.02611,26.07876 -0.181901,0.11772 -12.534635,0.27358 -27.450519,0.34634 l -27.11979,0.13229 v 13.36146 13.36145 l 20.347796,0.0678 c 14.598611,0.0486 20.44918,0.15194 20.706616,0.36559 0.293275,0.2434 0.346194,2.23674 0.289702,10.91241 l -0.06912,10.61461 -2.778125,0.16602 c -1.527968,0.0913 -10.772339,0.18061 -20.543045,0.19844 -15.585974,0.0284 -17.783744,0.0815 -17.918364,0.43228 -0.0844,0.21993 -0.12689,6.26235 -0.0944,13.42761 l 0.059,13.02774 27.381794,0.13229 27.381793,0.13229 0.169714,0.79375 c 0.277098,1.29598 0.252527,21.91563 -0.02664,22.35729 -0.220662,0.3491 -5.244715,0.4128 -41.733967,0.52917 l -41.4831036,0.13229 -0.0686,14.41979 c -0.0758,15.92273 0.003,17.01283 1.53488,21.2465 1.87773,5.18934 6.4309296,10.05322 11.6728896,12.46935 2.08464,0.96086 4.27962,1.66118 6.26298,1.99825 0.67946,0.11547 32.429752,0.19352 70.556211,0.17344 l 69.320831,-0.0365 z"
         id="path10" /><path
         style="display:inline;fill:#6a89a1"
         d="m 36.025528,605.152 c 25.965013,-0.16854 128.694532,-0.18371 127.766592,-0.0189 -0.56715,0.10075 -31.9279,0.16167 -69.690551,0.13537 -37.762656,-0.0263 -63.896871,-0.0787 -58.076041,-0.11651 z m 131.041342,-1.00981 c 1.2041,-0.35602 2.99846,-1.0548 3.98747,-1.55286 2.33351,-1.17514 5.25609,-3.51642 6.92697,-5.54921 1.67733,-2.04063 3.80691,-6.15405 4.56727,-8.82199 l 0.58528,-2.0536 0.0685,-103.26888 c 0.0674,-101.61765 0.0602,-103.3094 -0.44939,-105.80382 -0.60389,-2.95609 -2.26281,-6.53329 -4.24267,-9.14862 -3.47731,-4.59342 -8.80312,-7.74803 -14.60545,-8.65116 -1.4234,-0.22155 -20.15879,-0.28015 -70.596991,-0.2208 l -68.659371,0.0808 -2.11667,0.598 c -2.34719,0.66313 -5.88189,2.27079 -7.61615,3.46399 -3.30599,2.27458 -6.7244396,6.73748 -8.1475496,10.63688 -1.53695,4.21137 -1.56428,4.7433 -1.56544,30.47874 l -0.001,23.48176 H 46.576568 c 36.200854,0 41.415521,0.0489 41.699782,0.39147 0.488262,0.58832 0.543383,25.89461 0.05746,26.38281 -0.277596,0.2789 -5.595824,0.3592 -27.585278,0.4165 l -27.241384,0.071 0.0686,13.15818 0.0686,13.15818 20.3478,0.0678 c 14.497226,0.0483 20.450114,0.15272 20.703645,0.36313 0.503551,0.41791 0.527825,21.78383 0.02512,22.10919 -0.181901,0.11773 -9.498541,0.27358 -20.703645,0.34634 l -20.37291,0.13229 v 13.09688 13.09687 l 27.219734,0.047 c 19.701918,0.034 27.301747,0.12898 27.516665,0.34374 0.208028,0.20788 0.319132,3.7306 0.371096,11.76615 0.06615,10.22972 0.02836,11.51524 -0.349628,11.89323 -0.385064,0.38507 -4.207842,0.4238 -41.825928,0.4238 H 5.1741684 l 0.0968,15.41198 c 0.0848,13.49354 0.15309,15.62258 0.54876,17.10387 0.24857,0.93054 0.40003,1.7438 0.33658,1.80725 -0.0634,0.0634 -0.33397,-0.81697 -0.60116,-1.95648 -0.44171,-1.88373 -0.48581,-3.45306 -0.48581,-17.28537 V 554.94369 L 46.552441,554.8114 c 36.489252,-0.11637 41.513305,-0.18007 41.733967,-0.52917 0.279169,-0.44166 0.30374,-21.06131 0.02664,-22.35729 l -0.169714,-0.79375 -27.381793,-0.13229 -27.381793,-0.13229 -0.059,-13.02774 c -0.0324,-7.16526 0.0101,-13.20768 0.0944,-13.42761 0.13462,-0.35082 2.33239,-0.40384 17.918363,-0.43228 9.770706,-0.0178 19.015077,-0.10713 20.543045,-0.19844 l 2.778125,-0.16602 0.06912,-10.61461 c 0.05649,-8.67567 0.0036,-10.66901 -0.289702,-10.91241 -0.257436,-0.21365 -6.108005,-0.31695 -20.706616,-0.36559 l -20.347795,-0.0678 v -13.36143 -13.36146 l 27.119789,-0.13229 c 14.915884,-0.0728 27.268618,-0.22862 27.450519,-0.34635 0.504659,-0.32662 0.479298,-25.65931 -0.02611,-26.07876 -0.259112,-0.21504 -11.653267,-0.31449 -41.605726,-0.36312 l -41.2488916,-0.067 -0.0735,-23.41562 c -0.0811,-25.8451 -0.0551,-26.36378 1.54003,-30.77229 1.65298,-4.56822 5.4951596,-9.20892 9.6329096,-11.63494 2.41765,-1.41749 6.30655,-2.73516 9.14118,-3.09729 1.58056,-0.20192 22.615418,-0.26484 70.776031,-0.21171 l 68.527081,0.0756 1.93844,0.60184 c 4.20552,1.30572 7.08934,2.9687 9.89467,5.70584 3.50659,3.42135 5.86567,7.86872 6.82928,12.87462 0.19431,1.00941 0.27466,32.80187 0.26228,103.77937 -0.0156,89.68284 -0.0668,102.60515 -0.41447,104.59855 -1.46428,8.39682 -7.52129,15.32911 -15.5615,17.81025 -0.9976,0.30785 -2.00963,0.55339 -2.24896,0.54564 -0.23934,-0.008 0.55002,-0.30537 1.75411,-0.66138 z"
         id="path9" /><path
         style="display:inline;fill:#497598"
         d="m 23.722408,604.67312 c -7.66454,-1.65127 -14.1085796,-6.89205 -16.7847396,-13.65063 -1.5752,-3.97813 -1.56169,-3.81173 -1.66675,-20.53452 l -0.0968,-15.41198 H 46.576253 c 37.618086,0 41.440864,-0.0387 41.825928,-0.4238 0.37799,-0.37799 0.415781,-1.66351 0.349628,-11.89323 -0.05196,-8.03555 -0.163068,-11.55827 -0.371096,-11.76615 -0.214918,-0.21476 -7.814747,-0.3097 -27.516665,-0.34374 l -27.21974,-0.047 v -13.09691 -13.09688 l 20.372916,-0.13229 c 11.205104,-0.0728 20.521744,-0.22861 20.703645,-0.34634 0.502706,-0.32536 0.478432,-21.69128 -0.02512,-22.10919 -0.253531,-0.21041 -6.206419,-0.31482 -20.703645,-0.36313 l -20.347796,-0.0678 -0.0686,-13.15818 -0.0686,-13.15818 27.24138,-0.071 c 21.989449,-0.0573 27.307677,-0.13758 27.585273,-0.41649 0.485918,-0.4882 0.430797,-25.79448 -0.05747,-26.38281 -0.284261,-0.34251 -5.498928,-0.39146 -41.699782,-0.39146 H 5.2016134 l 10e-4,-23.48177 c 0.001,-25.73544 0.0285,-26.26737 1.56545,-30.47873 1.4231,-3.8994 4.8415596,-8.36231 8.1475496,-10.63688 1.73426,-1.19321 5.26896,-2.80087 7.61615,-3.46399 l 2.11666,-0.598 68.659381,-0.0808 c 50.438196,-0.0593 69.173586,-7.6e-4 70.596986,0.22079 5.80233,0.90314 11.12814,4.05775 14.60545,8.65117 1.97986,2.61533 3.63878,6.19252 4.24267,9.14861 0.50958,2.49442 0.51677,4.18618 0.44939,105.80382 l -0.0685,103.26888 -0.58528,2.0536 c -0.76036,2.66794 -2.88994,6.78136 -4.56727,8.82199 -1.66999,2.0317 -4.59316,4.37392 -6.92329,5.54736 -0.98698,0.49703 -2.84087,1.23192 -4.11975,1.63308 l -2.32525,0.72939 -69.585406,0.0468 c -58.786871,0.0396 -69.852301,-0.0107 -71.305211,-0.32367 z"
         id="path8" /><path
         style="display:none;fill:#606161"
         d="m 5.5010084,716.73347 c -1.65915,-0.35133 -3.38932,-1.2525 -4.4597,-2.32289 -1.00697997,-1.00697 -1.91007997,-2.74485 -1.91933997,-3.69344 -0.006,-0.56978 0.0878,-0.59528 2.17699997,-0.5946 l 2.18281,7.2e-4 0.52917,0.97983 c 0.73042,1.35249 1.92704,1.97677 4.08502,2.13118 2.1803896,0.156 3.4718996,-0.22744 4.3729896,-1.29832 0.84846,-1.00834 0.8487,-1.82587 8.5e-4,-2.83349 -0.74725,-0.88805 -2.02807,-1.36646 -5.4161496,-2.02304 -5.09558,-0.98748 -7.23676997,-2.83137 -7.22058997,-6.21801 0.009,-1.95068 0.69213,-3.50211 2.07838997,-4.72234 1.55136,-1.36557 3.30909,-1.89224 6.31518,-1.89224 4.1958796,0 6.9565596,1.26876 8.2029496,3.76993 0.37303,0.74858 0.67823,1.62556 0.67823,1.94885 0,0.54521 -0.13897,0.59416 -1.91823,0.67565 -1.46567,0.0671 -1.99385,-0.006 -2.23878,-0.30902 -1.63143,-2.01986 -2.75432,-2.64091 -4.7811696,-2.64436 -2.91438,-0.005 -4.61604,2.71424 -2.70491,4.32235 0.91845,0.77283 0.82789,0.74109 4.6316396,1.62324 5.36781,1.24488 7.36863,2.709 7.71655,5.64664 0.36104,3.04837 -1.4041,5.72648 -4.55719,6.91429 -1.77979,0.67047 -5.8108096,0.95069 -7.7547196,0.53907 z m 6.3318696,-0.41578 c 2.45372,-0.55809 4.12861,-1.72611 5.07619,-3.53998 0.86734,-1.66027 0.94615,-3.34048 0.23059,-4.91579 -0.93356,-2.05524 -2.73649,-3.02931 -7.5280396,-4.06719 -2.84567,-0.61639 -4.50686,-1.33171 -4.93037,-2.12304 -0.3997,-0.74686 -0.33403,-2.05932 0.13918,-2.78153 0.52402,-0.79976 2.18039,-1.46833 3.63773,-1.46833 1.46357,0 3.3429196,0.95398 4.0194596,2.04032 0.51553,0.82782 0.57859,0.84997 2.44739,0.8599 2.18507,0.0116 2.27681,-0.11625 1.41662,-1.97418 -0.63215,-1.36537 -1.68296,-2.33665 -3.33485,-3.08245 -1.80844,-0.81648 -6.3413396,-1.01912 -8.2934196,-0.37074 -3.03501,1.00807 -4.58131997,3.00123 -4.60900997,5.9409 -0.0157,1.66294 0.28223,2.40189 1.47732997,3.66449 0.97477,1.02983 2.8514,1.77145 6.25435,2.47163 3.0506796,0.62771 4.6570996,1.36308 5.1779696,2.37033 0.49476,0.95675 0.49013,1.40554 -0.0248,2.40123 -0.58305,1.1275 -2.21257,1.80513 -4.3581596,1.81234 -2.16117,0.007 -3.81231,-0.75259 -4.7306,-2.177 l -0.63964,-0.99219 h -1.94005 c -1.47167997,0 -1.94004997,0.088 -1.94004997,0.36456 0,0.69421 0.79629,2.26575 1.62802997,3.21305 2.08598,2.3758 6.50348,3.33637 10.8241096,2.35367 z m 17.47773,0.38504 c -3.56936,-0.59285 -6.40765,-2.99947 -6.69584,-5.67746 l -0.083,-0.77115 2.04029,-0.0771 2.04029,-0.0771 0.67025,1.06174 c 0.86325,1.36747 1.9653,1.9201 4.13931,2.07565 2.1354,0.15278 3.43555,-0.23794 4.33037,-1.30137 0.74367,-0.88381 0.82432,-1.45078 0.35339,-2.48436 -0.45259,-0.99333 -1.84604,-1.60458 -5.13839,-2.25401 -3.57997,-0.70616 -5.13529,-1.3568 -6.2847,-2.62905 -1.16845,-1.29334 -1.59305,-2.62598 -1.40798,-4.41913 0.26814,-2.59801 1.89136,-4.5108 4.68113,-5.51623 0.77364,-0.27882 2.07092,-0.43199 3.70416,-0.43737 2.79983,-0.009 4.46005,0.42945 6.2277,1.64548 1.17411,0.80772 2.50355,2.96566 2.50355,4.06375 0,0.68764 -0.0126,0.6918 -2.09053,0.6918 h -2.09053 l -0.53669,-0.90963 c -0.77276,-1.30974 -1.95005,-1.84893 -4.06024,-1.85958 -1.38665,-0.007 -1.92717,0.10999 -2.51354,0.54404 -1.71274,1.26784 -1.65868,3.01647 0.12396,4.00977 0.53961,0.30068 2.15307,0.79891 3.58546,1.10717 5.03568,1.08375 6.82791,2.01514 7.81961,4.06373 0.30594,0.63199 0.55626,1.66321 0.55626,2.2916 0,3.64302 -2.55252,6.19617 -6.87917,6.8809 -1.9792,0.31322 -3.00362,0.30869 -4.99513,-0.0221 z m 7.03893,-0.75861 c 2.01557,-0.70842 3.19708,-1.69254 3.93521,-3.27779 1.46059,-3.13684 0.3063,-6.20834 -2.84215,-7.56277 -0.71024,-0.30554 -2.62932,-0.85718 -4.26462,-1.22588 -4.70841,-1.06158 -6.15561,-2.18045 -5.47759,-4.23489 0.82663,-2.50471 5.69326,-2.96952 7.65831,-0.73145 0.43952,0.50058 0.79912,1.02507 0.79912,1.16553 0,0.14141 0.88554,0.25537 1.98438,0.25537 2.25615,0 2.34167,-0.11395 1.49093,-1.98664 -1.11468,-2.45367 -3.96035,-3.87199 -7.76865,-3.87199 -3.2481,0 -4.93426,0.54121 -6.54039,2.09927 -0.83254,0.80762 -1.3861,1.61808 -1.57379,2.30415 -0.69952,2.55701 -0.0237,4.84871 1.82483,6.18776 1.31309,0.9512 1.93565,1.16353 5.52337,1.88379 3.9669,0.79638 5.58849,1.77643 5.58849,3.37755 0,1.95018 -1.87618,3.21974 -4.77258,3.22947 -2.16764,0.007 -3.81191,-0.75198 -4.73744,-2.18756 l -0.64647,-1.00275 -1.86707,0.0767 c -1.82175,0.0748 -1.86493,0.0928 -1.77925,0.73816 0.23316,1.75612 2.17543,3.82644 4.43876,4.7314 2.29741,0.91858 6.46296,0.93361 9.0266,0.0326 z m 17.13849,0.68407 c -1.976127,-0.48966 -3.309816,-1.27653 -4.721373,-2.7856 -1.609517,-1.72071 -2.469661,-3.60046 -2.828694,-6.18181 -0.55993,-4.02575 0.683265,-8.45175 3.011161,-10.72028 3.758972,-3.6631 10.475317,-3.74928 14.420518,-0.18503 1.920525,1.73508 3.215262,5.06229 3.215262,8.26257 v 1.6642 l -6.548437,0.0262 c -3.601641,0.0144 -7.203281,0.10369 -8.003646,0.19844 -1.424301,0.16861 -1.453641,0.18913 -1.381425,0.96602 0.04058,0.43656 0.399593,1.44463 0.797804,2.24014 0.538225,1.07523 1.047417,1.64634 1.984265,2.22555 1.085441,0.67107 1.525275,0.78022 3.170947,0.78691 2.2626,0.009 3.674791,-0.59821 4.78989,-2.06018 0.7119,-0.93335 0.740836,-0.94346 2.698829,-0.94346 2.297576,0 2.52275,0.22222 1.790874,1.76741 -0.645987,1.36386 -2.413614,3.08687 -3.972303,3.87203 -2.40216,1.21005 -5.678231,1.5472 -8.423672,0.86692 z m 7.329389,-0.67023 c 0.842242,-0.31986 2.104347,-1.10858 2.857445,-1.78568 1.366412,-1.22852 2.531872,-3.06291 2.242973,-3.53036 -0.08685,-0.14053 -0.919123,-0.25551 -1.84949,-0.25551 -1.672421,0 -1.706254,0.0147 -2.987521,1.29594 -1.076192,1.07619 -1.551436,1.34898 -2.802669,1.60874 -2.503462,0.51972 -4.939487,-0.18547 -6.323791,-1.83062 -0.753194,-0.89512 -1.840714,-3.57259 -1.715558,-4.2237 0.123194,-0.6409 1.70952,-0.77774 9.268492,-0.7995 l 6.813021,-0.0196 v -1.53191 c 0,-4.23363 -1.962497,-7.72122 -5.348777,-9.50541 -1.31327,-0.69194 -1.598765,-0.73664 -4.70539,-0.73664 -3.261088,0 -3.330523,0.0126 -4.970255,0.90173 -0.91463,0.49595 -2.033504,1.32374 -2.486385,1.83955 -3.529809,4.02023 -3.621381,12.11294 -0.181286,16.02109 2.089964,2.37433 4.754967,3.39431 8.431676,3.22709 1.448173,-0.0659 2.78611,-0.30629 3.757515,-0.6752 z M 50.621708,703.59544 c -0.621543,-0.62155 0.605073,-3.52673 2.009785,-4.76008 1.50519,-1.32157 4.358191,-1.70128 6.148201,-0.81826 1.239322,0.61136 2.541041,2.196 2.944777,3.58481 0.224555,0.77244 0.342189,1.57667 0.26141,1.78718 -0.121648,0.317 -1.09494,0.38274 -5.667327,0.38274 -3.036251,0 -5.599832,-0.0794 -5.696846,-0.17639 z m 10.998938,-1.09743 c -0.0938,-1.18415 -0.925418,-2.74777 -1.895584,-3.56411 -1.671038,-1.40609 -5.006672,-1.41686 -6.835324,-0.0221 -1.285102,0.98019 -2.578461,3.84402 -1.998125,4.42435 0.09994,0.0999 2.570487,0.14955 5.490103,0.11025 l 5.308394,-0.0715 z m 70.936454,14.2423 c -1.61899,-0.34218 -3.11149,-1.18617 -3.99669,-2.26007 -1.98215,-2.40469 -1.8186,-6.26497 0.35664,-8.41788 1.5507,-1.53478 3.71186,-2.2084 8.55851,-2.66763 2.06171,-0.19535 3.83185,-0.4387 3.93364,-0.54078 0.3433,-0.34426 0.11104,-2.716 -0.33223,-3.39252 -0.67066,-1.02355 -1.96788,-1.51057 -4.0206,-1.50945 -2.16265,10e-4 -3.18248,0.51437 -4.18821,2.10754 l -0.67507,1.06938 -1.91399,-0.17048 c -1.0527,-0.0938 -1.95805,-0.20793 -2.0119,-0.2537 -0.28089,-0.23875 0.35322,-2.084 1.09897,-3.19798 2.70349,-4.03843 11.52837,-4.58149 15.08787,-0.92846 1.86479,1.91379 1.90273,2.13637 1.90273,11.1623 0,4.43838 -0.10387,8.21861 -0.23083,8.40052 -0.30343,0.43473 -3.64953,0.44557 -4.08187,0.0132 -0.17463,-0.17463 -0.3175,-0.76994 -0.3175,-1.32292 0,-0.55298 -0.0749,-1.00542 -0.16637,-1.00542 -0.0915,0 -0.64248,0.43014 -1.22439,0.95585 -0.58191,0.52572 -1.55246,1.17457 -2.15677,1.44189 -1.31658,0.58239 -4.10037,0.83818 -5.62194,0.51658 z m 4.05805,-0.35771 c 1.66414,-0.34878 3.61052,-1.46509 4.07821,-2.33897 0.14194,-0.26522 0.48549,-0.48222 0.76343,-0.48222 0.41518,0 0.51976,0.22427 0.58601,1.25677 l 0.0806,1.25677 1.91823,0.0777 c 1.05503,0.0428 1.91976,-0.0168 1.92163,-0.13229 0.12181,-7.51479 0.006,-16.04214 -0.22863,-16.89283 -0.41703,-1.50944 -1.8803,-3.10405 -3.53357,-3.85073 -1.23663,-0.5585 -1.78772,-0.63258 -4.70787,-0.63284 -2.61958,-2.4e-4 -3.57915,0.10455 -4.61469,0.50394 -1.852,0.71428 -3.45997,2.28288 -3.99671,3.89884 -0.24109,0.72586 -0.39645,1.35545 -0.34524,1.39909 0.0512,0.0436 0.84264,0.14418 1.75874,0.22344 1.77902,0.1539 1.85484,0.11763 2.68444,-1.28429 0.68827,-1.16309 1.99923,-1.69869 4.15657,-1.6982 2.95185,6.7e-4 4.42947,1.08066 4.75262,3.47369 0.13897,1.02906 0.0757,1.3149 -0.39535,1.78594 -0.41304,0.41304 -0.89192,0.56136 -1.81757,0.56296 -2.19435,0.004 -5.76783,0.50741 -7.58677,1.06923 -3.24396,1.00195 -4.85904,3.28592 -4.59291,6.49506 0.22858,2.75637 2.2862,4.90446 5.16099,5.3879 1.82674,0.3072 2.14553,0.30084 3.9578,-0.079 z m -3.22296,-3.31414 c -1.69236,-0.76969 -2.26917,-2.35879 -1.49305,-4.11334 0.37584,-0.84965 0.8071,-1.32564 1.53691,-1.69634 1.32965,-0.67538 3.42606,-1.08052 6.04156,-1.16756 l 2.11666,-0.0704 v 2.00452 c 0,1.73186 -0.0966,2.15031 -0.70983,3.07634 -1.44042,2.17495 -4.98732,3.10606 -7.49225,1.96682 z m 5.53676,-0.55334 c 0.52627,-0.32525 1.27019,-1.00217 1.65316,-1.50426 0.56902,-0.74603 0.71984,-1.27975 0.8251,-2.91989 l 0.1288,-2.007 -2.08754,0.18129 c -3.00416,0.2609 -4.97431,0.67188 -5.88981,1.22863 -2.28318,1.38848 -2.25454,4.38463 0.0519,5.43347 1.23755,0.56275 4.09975,0.3409 5.31835,-0.41224 z m 45.66011,4.10812 c -2.57071,-0.71344 -4.2866,-2.02715 -5.1946,-3.97706 -0.34158,-0.73355 -0.62222,-1.60162 -0.62364,-1.92904 -0.002,-0.56691 0.0963,-0.59531 2.06975,-0.59531 h 2.07234 l 0.63964,0.99218 c 0.90528,1.40424 2.57205,2.18282 4.67295,2.18282 2.76047,0 4.4069,-1.04013 4.4069,-2.78406 0,-1.76765 -1.34924,-2.55118 -5.92667,-3.44174 -3.61724,-0.70375 -5.41936,-1.67202 -6.54708,-3.51773 -0.46125,-0.7549 -0.59426,-1.37349 -0.59531,-2.76858 -0.002,-2.09711 0.54063,-3.38389 1.94574,-4.61759 1.49388,-1.31165 3.50631,-1.9203 6.34918,-1.9203 2.82537,0 4.79624,0.49227 6.40657,1.60021 1.23342,0.84861 1.83149,1.65648 2.38252,3.21824 0.53649,1.52059 0.22459,1.79613 -2.0332,1.79613 h -1.81637 l -0.66333,-1.05079 c -0.36484,-0.57794 -0.99141,-1.21871 -1.39238,-1.42393 -1.8173,-0.9301 -4.57905,-0.74776 -5.78131,0.38171 -0.45285,0.42543 -0.63628,0.88411 -0.63628,1.59106 0,1.68842 0.84763,2.19659 5.46771,3.27799 5.40238,1.26452 7.45597,2.80419 7.70231,5.77477 0.29587,3.56781 -1.79694,6.1347 -5.89398,7.22911 -1.63141,0.43579 -5.41117,0.42604 -7.01146,-0.0181 z m 8.30973,-0.68061 c 2.7941,-1.0695 4.39027,-3.26282 4.39027,-6.03271 0,-1.37946 -0.38217,-2.37513 -1.2736,-3.31805 -1.08131,-1.14379 -2.3633,-1.68927 -6.253,-2.66063 -1.95751,-0.48885 -3.94421,-1.11372 -4.41489,-1.38861 -1.14696,-0.66986 -1.59147,-1.78467 -1.19263,-2.99107 0.75741,-2.29103 5.04024,-2.81115 7.32404,-0.88946 0.4557,0.38345 0.93442,0.97563 1.06381,1.31595 0.21237,0.55858 0.39675,0.61838 1.89545,0.61472 2.26474,-0.006 2.43212,-0.14531 1.91844,-1.60215 -0.53439,-1.51558 -1.9693,-2.9699 -3.66941,-3.71907 -1.81685,-0.8006 -6.0519,-1.00799 -8.14695,-0.39894 -3.09273,0.89908 -4.69671,2.86598 -4.70795,5.77314 -0.0137,3.55914 1.69156,5.05982 7.03615,6.19183 4.04333,0.8564 5.259,1.39682 5.82849,2.59105 0.39507,0.82848 0.40144,1.03421 0.0598,1.93183 -0.25926,0.68118 -0.71989,1.20111 -1.43078,1.61499 -0.91834,0.53464 -1.32932,0.59906 -3.31227,0.51913 -2.62816,-0.10592 -3.81642,-0.66429 -4.63046,-2.17588 l -0.50207,-0.93229 h -1.92421 c -2.25568,0 -2.33075,0.13861 -1.24981,2.30776 1.41444,2.83843 4.31976,4.11383 8.98289,3.94339 1.92927,-0.0705 3.0691,-0.25872 4.20869,-0.69493 z m -88.81171,0.43125 c -1.56292,-0.58229 -2.31004,-1.27128 -3.04976,-2.81247 -0.37015,-0.77119 -0.46735,-2.12062 -0.58126,-8.06979 l -0.13678,-7.14375 -1.581151,-0.0811 c -0.86963,-0.0446 -1.67148,-0.22321 -1.78189,-0.39687 -0.31886,-0.50155 -0.24061,-2.69168 0.10866,-3.04095 0.17463,-0.17463 0.94626,-0.3175 1.71475,-0.3175 1.644451,0 1.635881,0.017 1.737861,-3.43958 l 0.0663,-2.24896 2.18281,-0.0768 c 1.63585,-0.0576 2.18945,0.009 2.20929,0.26459 0.0146,0.18778 0.004,1.32887 -0.0228,2.53574 -0.0314,1.3953 0.0671,2.33465 0.2705,2.57969 0.22983,0.27694 0.89833,0.38537 2.37579,0.38537 2.28649,0 2.37716,0.0706 2.37716,1.85208 0,1.79819 -0.0738,1.85209 -2.53681,1.85209 -2.16816,0 -2.21933,0.0148 -2.38912,0.69129 -0.25343,1.00975 0.16232,11.98137 0.48047,12.67964 0.36223,0.795 1.29139,1.18115 2.8421,1.18115 0.92509,0 1.32688,0.11655 1.44276,0.41851 0.24125,0.6287 0.1855,2.57205 -0.0861,3.00121 -0.3438,0.54322 -4.33154,0.67503 -5.64278,0.1865 z m 5.34838,-0.32624 c 0.12346,-0.1305 0.1615,-0.86235 0.0845,-1.62634 l -0.13992,-1.38906 h -1.4068 c -1.10057,0 -1.56629,-0.13719 -2.13954,-0.63028 -0.64296,-0.55306 -0.75593,-0.88536 -0.92197,-2.71198 -0.23558,-2.59169 -0.28336,-10.75474 -0.0663,-11.32047 0.12879,-0.33563 0.60038,-0.41852 2.38125,-0.41852 h 2.22065 v -1.5875 -1.5875 h -2.10736 c -2.58796,0 -2.65514,-0.0866 -2.65514,-3.42219 v -2.39864 h -1.98437 -1.98438 v 2.4919 c 0,1.37055 -0.0723,2.68024 -0.1606,2.91042 -0.12122,0.3159 -0.54164,0.41851 -1.714751,0.41851 -1.41282,0 -1.56841,0.0568 -1.71098,0.62485 -0.0862,0.34367 -0.11829,1.02828 -0.0712,1.52135 l 0.0856,0.89651 1.58114,0.0811 c 0.86964,0.0446 1.671481,0.22322 1.781891,0.39688 0.11041,0.17366 0.20256,3.13761 0.20479,6.58657 0.002,3.50669 0.13107,6.86311 0.29222,7.6145 0.42602,1.9865 1.61313,3.23902 3.54829,3.74382 1.00712,0.26272 4.58527,0.12058 4.88285,-0.19396 z m 47.42333,0.33638 c -1.19118,-0.43826 -2.62366,-1.89376 -3.00698,-3.05529 -0.38419,-1.16417 -0.60618,-19.70287 -0.29344,-24.50586 l 0.20674,-3.175 h 2.11666 2.11667 l 0.20123,12.56771 c 0.12359,7.71852 0.30898,12.8348 0.48047,13.25994 0.3409,0.8451 1.09632,1.25448 2.4933,1.35118 l 1.05833,0.0733 v 1.85208 1.85209 l -2.24896,0.0509 c -1.24644,0.0282 -2.63903,-0.0926 -3.12402,-0.27103 z m 5.18717,-1.69813 0.0788,-1.65365 h -1.16757 c -1.44043,0 -2.47912,-0.74235 -2.7,-1.92969 -0.0868,-0.46664 -0.24006,-6.32531 -0.34057,-13.01927 l -0.18273,-12.17083 -1.91823,-0.0777 -1.91823,-0.0777 -0.0336,4.17878 c -0.13839,17.20935 -0.085,22.20901 0.24711,23.1461 0.87478,2.46821 2.52366,3.42291 5.73962,3.32326 l 2.11667,-0.0656 z m 46.25963,1.66295 c -0.56211,-0.20038 -1.38045,-0.70117 -1.81853,-1.11286 -1.5483,-1.45504 -1.63557,-1.93142 -1.78517,-9.74436 l -0.13679,-7.14375 -1.5875,-0.13229 -1.5875,-0.1323 v -1.71979 -1.71979 l 1.5875,-0.13229 1.5875,-0.13229 0.1323,-2.77813 0.13229,-2.77812 h 2.24896 2.24895 l 0.1323,2.77812 0.13229,2.77813 2.24896,0.13229 2.24895,0.13229 0.0836,1.1694 c 0.046,0.64317 0.0151,1.44205 -0.0685,1.77528 -0.14099,0.56174 -0.3109,0.61147 -2.33252,0.68268 l -2.18044,0.0768 -0.079,5.42396 c -0.0434,2.98317 -0.007,5.92484 0.0806,6.53703 0.24842,1.73228 0.85972,2.29136 2.68255,2.45339 l 1.54911,0.1377 0.0774,1.75061 0.0774,1.75061 -0.83811,0.16762 c -1.38046,0.27609 -3.74713,0.16847 -4.83668,-0.21995 z m 4.79233,-0.0438 c 0.53182,-0.14252 0.59531,-0.32554 0.59531,-1.71618 v -1.55664 h -1.34327 c -1.12264,0 -1.46658,-0.1233 -2.094,-0.75073 -0.99654,-0.99654 -1.10289,-1.90901 -1.00727,-8.64198 l 0.0789,-5.55625 2.24896,-0.13229 2.24896,-0.13229 v -1.45521 -1.45521 l -1.97255,-0.0788 c -1.08491,-0.0434 -2.1267,-0.20676 -2.31511,-0.36313 -0.23821,-0.1977 -0.34255,-1.08367 -0.34255,-2.90885 v -2.62457 l -2.05052,0.0773 -2.05052,0.0773 -0.13229,2.77813 -0.13229,2.77812 -1.65365,0.0788 -1.65364,0.0788 v 1.56225 1.56225 l 1.65364,0.0788 1.65365,0.0788 0.1361,7.27605 c 0.12663,6.7698 0.1753,7.34967 0.69945,8.33437 0.71252,1.33858 1.37952,1.94073 2.65266,2.39479 1.04639,0.37319 3.74017,0.49524 4.78002,0.21657 z m -239.523742,-0.16085 c -0.0703,-0.18361 -0.0968,-6.94181 -0.059,-15.01822 l 0.0687,-14.68437 h 10.18647 10.1864504 l 0.0777,1.91823 c 0.0428,1.05502 0.0428,1.9434 0,1.97417 -0.0428,0.0308 -3.53055,0.12006 -7.7506504,0.19843 l -7.67292,0.1425 -0.0729,4.16719 -0.0729,4.16719 1.1312,0.061 c 0.62216,0.0335 3.86963,0.0633 7.21661,0.0661 l 6.0854204,0.005 0.0776,1.91032 c 0.0764,1.88228 0.067,1.91296 -0.63934,2.09025 -0.39431,0.099 -3.0485904,0.11416 -5.8984104,0.0338 -2.84982,-0.0804 -5.80658,-0.0831 -6.57056,-0.006 l -1.38906,0.14009 v 4.46426 4.46425 l 4.56406,10e-4 c 2.51023,5.9e-4 6.08695,0.0787 7.9482604,0.17367 l 3.38419,0.1726 -0.0769,1.87685 -0.0769,1.87685 -10.2597204,0.0693 c -8.06601,0.0545 -10.28703,-0.002 -10.38747,-0.26458 z m 20.4605804,-1.69239 0.078,-1.62314 -7.6186004,-0.17971 c -4.19023,-0.0988 -7.76743,-0.2279 -7.94934,-0.2868 -0.24747,-0.0801 -0.33072,-1.24312 -0.33072,-4.61984 v -4.51277 l 0.7276,-0.28471 c 0.47358,-0.18531 2.9907,-0.2523 7.2099,-0.19188 l 6.4822904,0.0928 v -1.71979 -1.71979 l -6.2754804,0.0972 c -3.45152,0.0534 -6.69882,0.0177 -7.21624,-0.0793 l -0.94075,-0.17649 0.0725,-4.41859 0.0725,-4.41859 7.67292,-0.13229 7.6729104,-0.1323 v -1.71979 -1.71979 h -9.9218704 -9.92188 l -0.0687,14.41979 c -0.0378,7.93089 -0.0112,14.57006 0.0591,14.75371 0.10044,0.2624 2.26868,0.31907 10.12291,0.26458 l 9.9951004,-0.0693 z m 78.6987616,-8.88371 0.06909,-10.92441 h 2.116666 2.116667 l 0.07142,0.92604 c 0.03928,0.50933 0.131967,1.19839 0.205965,1.53126 0.12662,0.56958 0.208705,0.52909 1.393923,-0.68773 1.682235,-1.72709 3.292551,-2.27275 6.231023,-2.11139 3.295432,0.18096 5.277742,1.48311 6.562125,4.31057 0.57125,1.25754 0.60593,1.69917 0.70189,8.9369 0.0555,4.18769 0.027,7.90839 -0.0633,8.26823 -0.15835,0.63089 -0.24343,0.65424 -2.383712,0.65424 h -2.219458 l -0.09056,-7.47447 c -0.08289,-6.84081 -0.135425,-7.56391 -0.61973,-8.52932 -0.775692,-1.54627 -1.985359,-2.25245 -3.858361,-2.25245 -1.823807,0 -2.760049,0.31611 -3.772031,1.2736 -1.589416,1.50383 -1.618448,1.66155 -1.762316,9.57431 l -0.132292,7.27604 -2.318047,0.0765 -2.318048,0.0765 z m 4.43619,3.9584 c 8.12e-4,-3.6744 0.121119,-7.11145 0.26735,-7.63789 0.682292,-2.4563 2.783827,-4.01322 5.417048,-4.01322 2.001205,0 3.267215,0.72275 4.100497,2.34092 0.655511,1.27296 0.665884,1.39219 0.752721,8.65157 l 0.08805,7.36082 2.028616,-0.0769 2.028617,-0.0769 0.077,-6.48229 c 0.11201,-9.42549 -0.300789,-11.6464 -2.50194,-13.46078 -1.314642,-1.08363 -2.992927,-1.62047 -5.066016,-1.62047 -2.633444,0 -3.672213,0.42046 -5.425997,2.19625 -0.846906,0.85754 -1.620145,1.47884 -1.718309,1.38068 -0.09816,-0.0982 -0.238678,-0.85383 -0.312254,-1.67927 l -0.133774,-1.50079 h -1.852084 -1.852083 l -0.06915,10.64948 -0.06915,10.64948 h 2.119669 2.119668 z m 39.33325,6.76893 c -0.097,-0.097 -0.17639,-5.02537 -0.17639,-10.9519 0,-12.17017 -0.22134,-11.09671 2.28799,-11.09671 2.68635,0 2.47451,-0.94764 2.47451,11.06889 0,7.8303 -0.0812,10.60231 -0.3175,10.83861 -0.33491,0.3349 -3.95515,0.45457 -4.26861,0.14111 z m 4.18923,-10.80382 v -10.58334 l -1.83837,-0.18164 c -1.0111,-0.0999 -1.93383,-0.12265 -2.05052,-0.0505 -0.261,0.16131 -0.28578,21.10474 -0.0253,21.36524 0.10278,0.10279 1.02552,0.15239 2.05052,0.11025 l 1.86364,-0.0766 z m 47.55885,10.80498 c -0.257,-0.10371 -0.33073,-2.54053 -0.33073,-10.93102 0,-9.60188 0.0463,-10.81534 0.41852,-10.95815 0.74726,-0.28676 3.69781,-0.17178 4.02648,0.1569 0.45605,0.45604 0.45605,21.13395 0,21.59 -0.31094,0.31094 -3.42903,0.41876 -4.11427,0.14227 z m 4.10402,-10.84168 c 0.0544,-8.35697 -0.002,-10.64553 -0.26458,-10.73971 -0.18354,-0.0658 -1.13738,-0.0652 -2.11965,10e-4 l -1.78593,0.12105 v 10.50841 c 0,5.77963 0.0841,10.59251 0.18688,10.69529 0.10278,0.10279 1.02551,0.15239 2.05052,0.11025 l 1.86364,-0.0766 z m -55.69168,-15.58086 c -0.86001,-0.86002 -0.92245,-1.02843 -0.79628,-2.14781 0.19372,-1.71872 1.12639,-2.60755 2.73614,-2.60755 1.02818,0 1.32033,0.1276 1.97836,0.86407 0.60034,0.67189 0.77018,1.11324 0.76364,1.98438 -0.009,1.19774 -0.26961,1.67406 -1.30723,2.38921 -1.09804,0.7568 -2.30854,0.58379 -3.37463,-0.4823 z m 3.65229,-0.1048 c 2.11298,-2.11298 -0.27029,-5.49718 -2.90999,-4.13214 -2.28517,1.18171 -1.37048,4.90554 1.20495,4.90554 0.67693,0 1.14309,-0.21145 1.70504,-0.7734 z m 48.79527,0.78786 c -1.05873,-0.43333 -1.5875,-1.32668 -1.5875,-2.68206 0,-1.0561 0.13261,-1.42173 0.73362,-2.02274 0.58722,-0.58723 0.97433,-0.73362 1.93993,-0.73362 1.02817,0 1.32033,0.1276 1.97836,0.86407 0.60034,0.67189 0.77018,1.11324 0.76363,1.98438 -0.009,1.19774 -0.2696,1.67406 -1.30722,2.38921 -0.69572,0.4795 -1.65343,0.55577 -2.52082,0.20076 z m 2.97656,-0.94632 c 1.7424,-2.00533 -0.42286,-5.0982 -2.86188,-4.08793 -1.36897,0.56705 -1.94461,2.32551 -1.20066,3.66775 0.82155,1.48226 2.94857,1.70225 4.06254,0.42018 z"
         id="path7" /><path
         style="display:none;fill:#060606"
         d="m 5.4661584,716.36851 c -2.77108,-0.61613 -4.78454997,-2.13955 -5.68910997,-4.30447 -0.67258,-1.60971 -0.61008,-1.67763 1.54373997,-1.67763 h 1.94004 l 0.63964,0.99219 c 0.91829,1.42441 2.56943,2.18426 4.7306,2.177 2.1455896,-0.007 3.7751096,-0.68484 4.3581696,-1.81234 0.51489,-0.99569 0.51952,-1.44448 0.0248,-2.40123 -0.52088,-1.00725 -2.12729,-1.74262 -5.1779796,-2.37033 -3.40295,-0.70018 -5.27958,-1.4418 -6.25434,-2.47163 -1.19509997,-1.2626 -1.49299997,-2.00155 -1.47733997,-3.66449 0.0277,-2.93967 1.57400997,-4.93283 4.60901997,-5.9409 1.95208,-0.64838 6.4849696,-0.44574 8.2934196,0.37074 1.65189,0.7458 2.7027,1.71708 3.33484,3.08245 0.8602,1.85793 0.76845,1.98579 -1.41661,1.97418 -1.86881,-0.01 -1.93187,-0.0321 -2.4474,-0.8599 -0.67654,-1.08634 -2.5558896,-2.04032 -4.0194596,-2.04032 -1.45733,0 -3.1137,0.66857 -3.63772,1.46833 -0.47321,0.72221 -0.53888,2.03467 -0.13918,2.78153 0.42351,0.79133 2.0847,1.50665 4.93036,2.12304 4.7915496,1.03788 6.5944796,2.01195 7.5280496,4.06719 1.11881,2.46305 0.17319,5.52929 -2.21216,7.17312 -2.19545,1.51296 -6.1483796,2.07008 -9.4613496,1.33347 z m 23.9734396,0.10503 c -1.66036,-0.29911 -2.66729,-0.70744 -4.05734,-1.64533 -1.1658,-0.78658 -2.34723,-2.51188 -2.49808,-3.64805 -0.0857,-0.64541 -0.0425,-0.66332 1.77925,-0.73816 l 1.86707,-0.0767 0.64647,1.00275 c 0.92553,1.43558 2.5698,2.19484 4.73744,2.18756 2.8964,-0.01 4.77258,-1.27929 4.77258,-3.22947 0,-1.60112 -1.62159,-2.58117 -5.58849,-3.37755 -3.58772,-0.72026 -4.21028,-0.93259 -5.52337,-1.88379 -1.8485,-1.33905 -2.52435,-3.63075 -1.82483,-6.18776 0.18769,-0.68607 0.74125,-1.49653 1.57379,-2.30415 1.60613,-1.55806 3.29229,-2.09927 6.54039,-2.09927 3.8083,0 6.65397,1.41832 7.76865,3.87199 0.85074,1.87269 0.76522,1.98664 -1.49093,1.98664 -1.09884,0 -1.98438,-0.11396 -1.98438,-0.25537 0,-0.14046 -0.3596,-0.66495 -0.79912,-1.16553 -1.96505,-2.23807 -6.83168,-1.77326 -7.65831,0.73145 -0.67802,2.05444 0.76918,3.17331 5.47759,4.23489 1.6353,0.3687 3.55438,0.92034 4.26462,1.22588 3.14845,1.35443 4.30274,4.42593 2.84215,7.56277 -0.73813,1.58525 -1.91964,2.56937 -3.93521,3.27779 -1.70869,0.60056 -5.08084,0.85892 -6.90994,0.52942 z m 23.922553,-0.14435 c -1.971687,-0.55288 -3.452339,-1.46716 -4.733925,-2.92312 -3.440095,-3.90815 -3.348523,-12.00086 0.181286,-16.02109 0.452881,-0.51581 1.571755,-1.3436 2.486385,-1.83955 1.639732,-0.88913 1.709167,-0.90173 4.970255,-0.90173 3.106625,0 3.39212,0.0447 4.70539,0.73664 3.38628,1.78419 5.348777,5.27178 5.348777,9.50541 v 1.53191 l -6.813021,0.0196 c -7.558972,0.0218 -9.145298,0.1586 -9.268492,0.7995 -0.125156,0.65111 0.962364,3.32858 1.715558,4.2237 1.384304,1.64515 3.820329,2.35034 6.323791,1.83062 1.251233,-0.25976 1.726477,-0.53255 2.802669,-1.60874 1.281267,-1.28127 1.3151,-1.29594 2.987521,-1.29594 0.930367,0 1.762638,0.11498 1.84949,0.25551 0.288899,0.46745 -0.876561,2.30184 -2.242973,3.53036 -0.753098,0.6771 -2.015203,1.46582 -2.857445,1.78568 -1.986676,0.75448 -5.469945,0.92793 -7.455266,0.37123 z m 8.62373,-12.9401 c 0.08078,-0.21051 -0.03686,-1.01474 -0.26141,-1.78718 -0.403736,-1.38881 -1.705455,-2.97345 -2.944777,-3.58481 -1.79001,-0.88302 -4.643011,-0.50331 -6.148201,0.81826 -1.404712,1.23335 -2.631328,4.13853 -2.009785,4.76008 0.09701,0.097 2.660595,0.17639 5.696846,0.17639 4.572387,0 5.545679,-0.0657 5.667327,-0.38274 z m 70.671469,13.07251 c -2.87479,-0.48344 -4.93241,-2.63153 -5.16099,-5.3879 -0.26613,-3.20914 1.34895,-5.49311 4.59291,-6.49506 1.81894,-0.56182 5.39242,-1.06544 7.58677,-1.06923 0.92565,-0.002 1.40453,-0.14992 1.81757,-0.56296 0.47104,-0.47104 0.53432,-0.75688 0.39535,-1.78594 -0.32315,-2.39303 -1.80077,-3.47302 -4.75262,-3.47369 -2.15734,-4.9e-4 -3.4683,0.53511 -4.15657,1.6982 -0.8296,1.40192 -0.90542,1.43819 -2.68444,1.28429 -0.9161,-0.0793 -1.70753,-0.17981 -1.75874,-0.22344 -0.0512,-0.0436 0.10415,-0.67323 0.34524,-1.39909 0.53674,-1.61596 2.14471,-3.18456 3.99671,-3.89884 1.03554,-0.39939 1.99511,-0.50418 4.61469,-0.50394 2.92015,2.6e-4 3.47124,0.0743 4.70787,0.63284 1.65327,0.74668 3.11654,2.34129 3.53357,3.85073 0.23503,0.85069 0.35044,9.37804 0.22863,16.89283 -0.002,0.11551 -0.8666,0.17504 -1.92163,0.13229 l -1.91823,-0.0777 -0.0806,-1.25677 c -0.0662,-1.0325 -0.17083,-1.25677 -0.58601,-1.25677 -0.27794,0 -0.62149,0.217 -0.76343,0.48222 -0.46769,0.87388 -2.41407,1.99019 -4.07821,2.33897 -1.81227,0.37984 -2.13106,0.3862 -3.9578,0.079 z m 6.12462,-3.59417 c 0.90665,-0.45181 1.64034,-1.068 2.10247,-1.76579 0.61328,-0.92603 0.70983,-1.34448 0.70983,-3.07634 v -2.00452 l -2.11666,0.0704 c -2.6155,0.087 -4.71191,0.49218 -6.04156,1.16756 -0.72981,0.3707 -1.16107,0.84669 -1.53691,1.69634 -1.1313,2.55749 0.64259,4.58712 4.02079,4.60048 1.06395,0.004 1.85367,-0.18568 2.86204,-0.68817 z m 45.85932,3.47289 c -2.5861,-0.72615 -3.99944,-1.77057 -4.93408,-3.64615 -1.08094,-2.16915 -1.00587,-2.30776 1.24981,-2.30776 h 1.92421 l 0.50207,0.93229 c 0.81404,1.51159 2.0023,2.06996 4.63046,2.17588 1.98295,0.0799 2.39393,0.0155 3.31227,-0.51913 0.71089,-0.41388 1.17152,-0.93381 1.43078,-1.61499 0.34164,-0.89762 0.33527,-1.10335 -0.0598,-1.93183 -0.56949,-1.19423 -1.78516,-1.73465 -5.82849,-2.59105 -5.34459,-1.13201 -7.0499,-2.63269 -7.03615,-6.19183 0.0112,-2.90716 1.61522,-4.87406 4.70795,-5.77314 2.09505,-0.60905 6.3301,-0.40166 8.14695,0.39894 1.70011,0.74917 3.13502,2.20349 3.66941,3.71907 0.51368,1.45684 0.3463,1.59663 -1.91844,1.60215 -1.4987,0.004 -1.68308,-0.0561 -1.89545,-0.61472 -0.12939,-0.34032 -0.60811,-0.9325 -1.06381,-1.31595 -2.2838,-1.92169 -6.56663,-1.40157 -7.32404,0.88946 -0.39884,1.2064 0.0457,2.32121 1.19263,2.99107 0.47068,0.27489 2.45738,0.89976 4.41489,1.38861 3.8897,0.97136 5.17169,1.51684 6.253,2.66063 0.89143,0.94292 1.2736,1.93859 1.2736,3.31805 0,2.76989 -1.59617,4.96321 -4.39027,6.03271 -2.02711,0.77593 -6.1955,0.97668 -8.2575,0.39769 z m -80.08868,-0.0987 c -1.93516,-0.5048 -3.12227,-1.75732 -3.54829,-3.74382 -0.16115,-0.75139 -0.28995,-4.10781 -0.29222,-7.6145 -0.002,-3.44896 -0.0944,-6.41291 -0.20479,-6.58657 -0.11041,-0.17366 -0.912251,-0.35225 -1.781891,-0.39688 l -1.58114,-0.0811 -0.0856,-0.89651 c -0.0471,-0.49307 -0.0151,-1.17768 0.0712,-1.52135 0.14257,-0.56802 0.29816,-0.62485 1.71098,-0.62485 1.173111,0 1.593531,-0.10261 1.714751,-0.41851 0.0883,-0.23018 0.1606,-1.53987 0.1606,-2.91042 v -2.4919 h 1.98438 1.98437 v 2.39864 c 0,3.3356 0.0672,3.42219 2.65514,3.42219 h 2.10736 v 1.5875 1.5875 h -2.22065 c -1.78087,0 -2.25246,0.0829 -2.38125,0.41852 -0.21709,0.56573 -0.16931,8.72878 0.0663,11.32047 0.16604,1.82662 0.27901,2.15892 0.92197,2.71198 0.57325,0.49309 1.03897,0.63028 2.13954,0.63028 h 1.4068 l 0.13992,1.38906 c 0.077,0.76399 0.0389,1.49584 -0.0845,1.62634 -0.29758,0.31454 -3.87573,0.45668 -4.88285,0.19396 z m 52.10212,-0.26626 c -1.23471,-0.56678 -2.04644,-1.4901 -2.54383,-2.89348 -0.33212,-0.93709 -0.3855,-5.93675 -0.24711,-23.1461 l 0.0336,-4.17878 1.91823,0.0777 1.91823,0.0777 0.18273,12.17083 c 0.10051,6.69396 0.25377,12.55263 0.34057,13.01927 0.22088,1.18734 1.25957,1.92969 2.7,1.92969 h 1.16757 l -0.0788,1.65365 -0.0788,1.65364 -2.11667,0.0656 c -1.61287,0.05 -2.37351,-0.0523 -3.19579,-0.42978 z m 51.66317,0.11315 c -1.27314,-0.45406 -1.94014,-1.05621 -2.65266,-2.39479 -0.52415,-0.9847 -0.57282,-1.56457 -0.69945,-8.33437 l -0.1361,-7.27605 -1.65365,-0.0788 -1.65364,-0.0788 v -1.56225 -1.56225 l 1.65364,-0.0788 1.65365,-0.0788 0.13229,-2.77812 0.13229,-2.77813 2.05052,-0.0773 2.05052,-0.0773 v 2.62457 c 0,1.82518 0.10434,2.71115 0.34255,2.90885 0.18841,0.15637 1.2302,0.31977 2.31511,0.36313 l 1.97255,0.0788 v 1.45521 1.45521 l -2.24896,0.13229 -2.24896,0.13229 -0.0789,5.55625 c -0.0956,6.73297 0.0107,7.64544 1.00727,8.64198 0.62742,0.62743 0.97136,0.75073 2.094,0.75073 h 1.34327 v 1.55664 c 0,1.39064 -0.0635,1.57366 -0.59531,1.71618 -1.03985,0.27867 -3.73363,0.15662 -4.78002,-0.21657 z M -26.161232,715.8797 c -0.0703,-0.18365 -0.0969,-6.82282 -0.0591,-14.75371 l 0.0687,-14.41979 h 9.92188 9.9218704 v 1.71979 1.71979 l -7.6729104,0.1323 -7.67292,0.13229 -0.0725,4.41859 -0.0725,4.41859 0.94075,0.17649 c 0.51742,0.0971 3.76472,0.13276 7.21624,0.0793 l 6.2754804,-0.0972 v 1.71979 1.71979 l -6.4822904,-0.0928 c -4.2192,-0.0604 -6.73632,0.007 -7.2099,0.19188 l -0.7276,0.28471 v 4.51277 c 0,3.37672 0.0833,4.53972 0.33072,4.61984 0.18191,0.0589 3.75911,0.18795 7.94934,0.2868 l 7.6186004,0.17971 -0.078,1.62314 -0.078,1.62313 -9.9951004,0.0693 c -7.85423,0.0545 -10.02247,-0.002 -10.12291,-0.26458 z m 99.159278,-10.32194 0.06915,-10.64948 h 1.852083 1.852084 l 0.133774,1.50079 c 0.07358,0.82544 0.214091,1.58111 0.312254,1.67927 0.09816,0.0982 0.871403,-0.52314 1.718309,-1.38068 1.753784,-1.77579 2.792553,-2.19625 5.425997,-2.19625 2.073089,0 3.751374,0.53684 5.066016,1.62047 2.201151,1.81438 2.613946,4.03529 2.501936,13.46078 l -0.077,6.48229 -2.028613,0.0769 -2.028616,0.0769 -0.08805,-7.36082 c -0.08684,-7.25938 -0.09721,-7.37861 -0.752721,-8.65157 -0.833282,-1.61817 -2.099292,-2.34092 -4.100497,-2.34092 -2.633221,0 -4.734756,1.55692 -5.417048,4.01322 -0.146231,0.52644 -0.266538,3.96349 -0.26735,7.63789 l -0.0015,6.68073 h -2.119668 -2.119669 z m 43.779984,10.48358 c -0.26051,-0.2605 -0.23573,-21.20393 0.0253,-21.36524 0.11669,-0.0721 1.03942,-0.0494 2.05052,0.0505 l 1.83837,0.18164 v 10.58334 10.58333 l -1.86364,0.0766 c -1.025,0.0421 -1.94774,-0.007 -2.05052,-0.11025 z m 51.59375,0 c -0.10279,-0.10278 -0.18688,-4.91566 -0.18688,-10.69529 v -10.50841 l 1.78593,-0.12105 c 0.98227,-0.0666 1.93611,-0.0672 2.11965,-10e-4 0.26259,0.0942 0.31897,2.38274 0.26458,10.73971 l -0.0691,10.62003 -1.86364,0.0766 c -1.02501,0.0421 -1.94774,-0.007 -2.05052,-0.11025 z m -51.37793,-26.09399 c -0.78989,-0.68632 -1.10475,-2.10866 -0.70004,-3.16233 0.37004,-0.96339 1.69919,-1.62775 2.83156,-1.41531 1.17438,0.22031 1.9637,1.25862 1.9637,2.58315 0,2.17171 -2.49356,3.38615 -4.09522,1.99449 z m 52.01392,0.23923 c -1.26161,-0.72549 -1.66828,-2.23366 -0.96764,-3.58854 1.16412,-2.25117 4.64268,-1.29811 4.64268,1.27201 0,0.7153 -0.19191,1.27647 -0.59531,1.74075 -0.71499,0.82288 -2.17527,1.09589 -3.07973,0.57578 z"
         id="path6" /></g><text
       xml:space="preserve"
       style="font-style:normal;font-variant:normal;font-weight:900;font-stretch:normal;font-size:14.1111px;line-height:125%;font-family:'SauceCodePro Nerd Font Mono';-inkscape-font-specification:'SauceCodePro Nerd Font Mono Heavy';letter-spacing:1.85208px;word-spacing:0px;baseline-shift:baseline;fill:#497598;fill-opacity:1;stroke:#497598;stroke-width:0;stroke-linecap:butt;stroke-linejoin:miter;stroke-dasharray:none;stroke-opacity:1"
       x="109.35523"
       y="381.2485"
       id="text12"
       clip-path="url(#clipPath12)"
       transform="translate(-85.725005,-50.800004)"><tspan
         sodipodi:role="line"
         id="tspan12"
         style="font-style:normal;font-variant:normal;font-weight:900;font-stretch:normal;font-size:14.1111px;line-height:125%;font-family:'SauceCodePro Nerd Font Mono';-inkscape-font-specification:'SauceCodePro Nerd Font Mono Heavy';letter-spacing:1.85208px;word-spacing:0px;baseline-shift:baseline;fill:#497598;fill-opacity:1;stroke:#497598;stroke-width:0;stroke-dasharray:none;stroke-opacity:1"
         x="109.35523"
         y="381.2485">Essentialist</tspan></text><rect
       style="fill:none;fill-opacity:1;fill-rule:evenodd;stroke:#497598;stroke-width:0;stroke-linecap:round;stroke-dasharray:none;stroke-opacity:1"
       id="rect15"
       width="147.76846"
       height="138.99017"
       x="8.0344276"
       y="201.84578"
       ry="10.972906" /></g><metadata
     id="metadata12"><rdf:RDF><cc:Work
         rdf:about=""><cc:license
           rdf:resource="http://creativecommons.org/licenses/by-nc-nd/4.0/" /><dc:title>Essentialist</dc:title><dc:description>https://essentialist.app</dc:description></cc:Work><cc:License
         rdf:about="http://creativecommons.org/licenses/by-nc-nd/4.0/"><cc:permits
           rdf:resource="http://creativecommons.org/ns#Reproduction" /><cc:permits
           rdf:resource="http://creativecommons.org/ns#Distribution" /><cc:requires
           rdf:resource="http://creativecommons.org/ns#Notice" /><cc:requires
           rdf:resource="http://creativecommons.org/ns#Attribution" /><cc:prohibits
           rdf:resource="http://creativecommons.org/ns#CommercialUse" /></cc:License></rdf:RDF></metadata></svg>
