<svg width="10in" height="10in" viewBox="0 0 720 720" xmlns="http://www.w3.org/2000/svg" xmlns:xlink="http://www.w3.org/1999/xlink">
 <defs>
  <linearGradient id="a" x1="282.11" x2="576.11" y1="169.57" y2="169.57" gradientUnits="userSpaceOnUse">
   <stop stop-color="#ff00e1" offset="0"/>
   <stop stop-color="#e4e4ff" offset=".3985"/>
   <stop stop-color="#ffbfac" offset=".8883"/>
  </linearGradient>
  <linearGradient id="b" x1="200.95" x2="259.33" y1="537.27" y2="537.27" gradientUnits="userSpaceOnUse">
   <stop stop-color="#1b1464" offset="0"/>
   <stop stop-color="#1b148f" offset=".5102"/>
   <stop stop-color="#1b147b" offset=".8883"/>
  </linearGradient>
  <linearGradient id="c" x1="205.28" x2="306.89" y1="419.67" y2="419.67" xlink:href="#b"/>
  <linearGradient id="d" x1="141.5" x2="258.25" y1="512.45" y2="512.45" xlink:href="#b"/>
  <linearGradient id="e" x1="460.39" x2="562" y1="424.24" y2="424.24" xlink:href="#b"/>
  <linearGradient id="f" x1="459.32" x2="515.03" y1="541.7" y2="541.7" xlink:href="#b"/>
  <linearGradient id="g" x1="398.77" x2="513.36" y1="521.09" y2="521.09" xlink:href="#b"/>
  <linearGradient id="h" x1="265" x2="579" y1="252.5" y2="252.5" xlink:href="#b"/>
  <linearGradient id="i" x1="273.7" x2="579" y1="235.18" y2="235.18" gradientUnits="userSpaceOnUse">
   <stop stop-color="#af278f" offset="0"/>
   <stop stop-color="#a6005d" offset=".2817"/>
   <stop stop-color="#d1145a" offset=".8883"/>
  </linearGradient>
 </defs>
 <title>musicwave</title>
 <path d="m284 229.5c5-14.744 14-27.85 21-42.048 5-8.7373 10-16.382 18-20.751 6-2.1844 7 5.4608 8 9.8295v30.581c-1 4.3687 1 10.922 6 12.014 2 0 3-2.1843 4-3.2765 4-9.8295 5-20.751 8-30.581 6-17.475 10-36.042 21-51.332 4-4.3687 9 1.0921 10 4.3686 0 2.1844 1 4.3687 2 7.6452 3 16.382 3 32.765 3 49.148a11.303 11.303 0 0 0 9 10.922c1 0 2-1.0921 3-1.0921 4-4.3687 6-9.8295 8-15.29 4-17.475 6-33.857 13-50.24a24.383 24.383 0 0 0 3-5.4608c1-2.1843 4-4.3687 6-3.2765 2 0 4 4.3686 5 6.553 7 25.12 4 50.24 8 76.452 1 7.6452 12 8.7373 17 3.2765 11-14.198 11-32.765 13-50.24 2-7.6452 5-15.29 12-16.382 4-1.0922 6 4.3686 8 7.6451 6 16.382 5 33.857 8 52.424 1 5.4608 7 6.553 12 7.6452 5 0 10-4.3687 13-8.7374 6-14.198 7-29.488 11-44.779 4-16.382 5-33.857 13-49.147 1-2.1844 3-4.3687 5-4.3687 6 4.3687 5 13.106 7 20.751v9.8294c3 24.028 2 46.963 4 70.991 0 6.553 8 8.7374 11.45 13.9" fill="none" stroke="#9e005d" stroke-miterlimit="10" stroke-width="8"/>
 <path d="m284 229.5c5-14.744 14-27.85 21-42.048 5-8.7373 10-16.382 18-20.751 6-2.1844 7 5.4608 8 9.8295v30.581c-1 4.3687 1 10.922 6 12.014 2 0 3-2.1843 4-3.2765 4-9.8295 5-20.751 8-30.581 6-17.475 10-36.042 21-51.332 4-4.3687 9 1.0921 10 4.3686 0 2.1844 1 4.3687 2 7.6452 3 16.382 3 32.765 3 49.148a11.303 11.303 0 0 0 9 10.922c1 0 2-1.0921 3-1.0921 4-4.3687 6-9.8295 8-15.29 4-17.475 6-33.857 13-50.24a24.383 24.383 0 0 0 3-5.4608c1-2.1843 4-4.3687 6-3.2765 2 0 4 4.3686 5 6.553 7 25.12 4 50.24 8 76.452 1 7.6452 12 8.7373 17 3.2765 11-14.198 11-32.765 13-50.24 2-7.6452 5-15.29 12-16.382 4-1.0922 6 4.3686 8 7.6451 6 16.382 5 33.857 8 52.424 1 5.4608 7 6.553 12 7.6452 5 0 10-4.3687 13-8.7374 6-14.198 7-29.488 11-44.779 4-16.382 5-33.857 13-49.147 1-2.1844 3-4.3687 5-4.3687 6 4.3687 5 13.106 7 20.751v9.8294c3 24.028 2 46.963 4 70.991 0 6.553 8 8.7374 11.45 13.9" fill="none" stroke="url(#a)" stroke-miterlimit="10" stroke-width="4"/>
 <path d="m259.33 514.37s-4.3239 49.725-58.373 47.563c0 2e-4 30.267-60.534 58.373-47.563z" fill="url(#b)" stroke="#1c005e" stroke-miterlimit="10"/>
 <path d="m209.98 555.67a79.448 79.448 0 0 1 32.818-23.224 13.311 13.311 0 0 1 3.3552-0.7992c1.9962-2.9872 4.14-5.9158 6.3853-8.791a10.937 10.937 0 0 1 6.029-3.8828c0.0325-0.0324 0.068-0.0589 0.1007-0.0908l48.223-237.83h-42.193l-59.42 277.22h3.2869a6.9645 6.9645 0 0 1 1.4151-2.6108z" fill="url(#c)" stroke="#1c005e" stroke-miterlimit="10"/>
 <ellipse cx="199.87" cy="512.45" rx="58.373" ry="53.405" fill="url(#d)" stroke="#1c005e" stroke-miterlimit="10"/>
 <path d="m465.09 564.25a79.53 79.53 0 0 1 32.818-23.907 12.995 12.995 0 0 1 3.3552-0.8228c1.9963-3.075 4.14-6.09 6.3854-9.0495a10.908 10.908 0 0 1 6.029-3.997c0.0324-0.0333 0.0679-0.0606 0.1007-0.0934l48.222-244.82h-42.192l-59.42 285.38h3.2868a7.2366 7.2366 0 0 1 1.4153-2.6877z" fill="url(#e)" stroke="#1c005e" stroke-miterlimit="10"/>
 <path d="M514.2609,525.826a5.1264,5.1264,0,0,1,.4539-2.0947c.02-.1016.0444-.2112.0636-.3108.1471-2.0324.2279-4.0881.2538-6.1714-28.44-10.72-55.7165,50.1758-55.7165,50.1758,40.0165-.1294,51.6155-27.4065,54.9451-41.5979Z" fill="url(#f)" stroke="#1c005e" stroke-miterlimit="10"/>
 <ellipse cx="456.06" cy="521.09" rx="57.292" ry="53.405" fill="url(#g)" stroke="#1c005e" stroke-miterlimit="10"/>
 <polygon points="562 282 579 223 280 223 265 281" fill="url(#h)" stroke="#1c005e" stroke-miterlimit="10" stroke-width="1.3"/>
 <polygon points="273.7 247.35 571.98 247.35 579 223 280 223" fill="url(#i)"/>
</svg>
