<?xml version="1.0" encoding="UTF-8"?>
<svg height="128px" viewBox="0 0 128 128" width="128px" xmlns="http://www.w3.org/2000/svg" xmlns:xlink="http://www.w3.org/1999/xlink">
    <filter id="a" height="100%" width="100%" x="0%" y="0%">
        <feColorMatrix color-interpolation-filters="sRGB" values="0 0 0 0 1 0 0 0 0 1 0 0 0 0 1 0 0 0 1 0"/>
    </filter>
    <linearGradient id="b" gradientUnits="userSpaceOnUse">
        <stop offset="0" stop-color="#c0bfbc"/>
        <stop offset="0.846154" stop-color="#c0bfbc"/>
        <stop offset="0.923077" stop-color="#deddda"/>
        <stop offset="1" stop-color="#c0bfbc"/>
    </linearGradient>
    <linearGradient id="c" x1="64.000061" x2="116.000061" xlink:href="#b" y1="77.000492" y2="77.000492"/>
    <linearGradient id="d" gradientTransform="matrix(-1 0 0 1 128.000061 -169.999508)" x1="64" x2="116" xlink:href="#b" y1="247" y2="247"/>
    <linearGradient id="e" gradientUnits="userSpaceOnUse">
        <stop offset="0" stop-color="#f6f5f4"/>
        <stop offset="0.5" stop-color="#ffffff"/>
        <stop offset="1" stop-color="#dddbd8"/>
    </linearGradient>
    <linearGradient id="f" gradientTransform="matrix(-0.25 0 0 0.25 168.000046 27.00049)" x1="368" x2="416" xlink:href="#e" y1="116" y2="116"/>
    <mask id="g">
        <g filter="url(#a)">
            <rect fill-opacity="0.1" height="153.6" width="153.6" x="-12.8" y="-12.8"/>
        </g>
    </mask>
    <clipPath id="h">
        <rect height="152" width="192"/>
    </clipPath>
    <linearGradient id="i" x1="52.000061" x2="64.000061" xlink:href="#e" y1="56.00049" y2="56.00049"/>
    <path d="m 16 42 c -4.433594 0 -8 3.570312 -8 8 v 60 c 0 4.433594 3.566406 8 8 8 h 96 c 4.433594 0 8 -3.566406 8 -8 v -60 c 0 -4.429688 -3.566406 -8 -8 -8 z m 0 0" fill="#c64600"/>
    <path d="m 64 38 v 78 h 48 c 4.433594 0 8 -3.566406 8 -8 v -61.644531 c 0 -4.433594 -3.566406 -8 -8 -8 z m 0 0" fill="url(#c)"/>
    <path d="m 64 38 v 78 h -48 c -4.433594 0 -8 -3.566406 -8 -8 v -61.644531 c 0 -4.433594 3.566406 -8 8 -8 z m 0 0" fill="url(#d)"/>
    <path d="m 112 28 c 4.433594 0 8 3.570312 8 8 v 60 c 0 4.433594 -3.566406 8 -8 8 h -36 c -6.628906 0 -12 5.375 -12 12 v -76 c 0 -6.625 5.371094 -12 12 -12 z m 0 0" fill="url(#f)"/>
    <g mask="url(#g)">
        <g clip-path="url(#h)" transform="matrix(1 0 0 1 -8 -16)">
            <path d="m 128 118.65625 c -0.082031 4.089844 -3.378906 7.34375 -7.492188 7.34375 h -0.5 v 1 h 0.5 c 3.246094 0 6.058594 -1.8125 7.492188 -4.480469 z m -46 7.34375 l 38 1 v -1 z m 0 0"/>
            <path d="m 128 121.65625 c -0.082031 4.089844 -3.378906 7.34375 -7.492188 7.34375 h -0.5 v 1 h 0.5 c 3.222657 0 6.023438 -1.789062 7.464844 -4.425781 c 0.011719 -0.191407 0.027344 -0.378907 0.027344 -0.574219 z m -46 7.34375 l 38 1 v -1 z m 0 0"/>
            <path d="m 128 115.65625 c -0.082031 4.089844 -3.378906 7.34375 -7.492188 7.34375 h -0.5 v 1 h 0.5 c 3.246094 0 6.058594 -1.8125 7.492188 -4.480469 z m -46 7.34375 l 38 1 v -1 z m 0 0"/>
        </g>
    </g>
    <path d="m 16 28 c -4.433594 0 -8 3.570312 -8 8 v 60 c 0 4.433594 3.566406 8 8 8 h 36 c 6.628906 0 12 5.375 12 12 v -76 c 0 -6.625 -5.371094 -12 -12 -12 z m 0 0" fill="url(#i)"/>
    <path d="m 44.308594 73.726562 c -1.246094 0.632813 -2.945313 0.632813 -4.304688 0.105469 c -1.359375 -0.425781 -2.601562 -1.269531 -3.734375 -2.117187 c -1.132812 -0.84375 -2.378906 -1.585938 -3.511719 -2.429688 c 0.90625 0 1.8125 0.105469 2.605469 0.316406 c -1.246093 -0.425781 -2.265625 -1.269531 -2.945312 -2.222656 c -0.453125 -0.527344 -0.679688 -1.164062 -1.132813 -1.691406 c -0.792968 -1.058594 -2.039062 -1.796875 -3.507812 -2.113281 c 1.46875 -0.53125 3.054687 -0.53125 4.527344 0 c -1.019532 -0.320313 -1.925782 -0.636719 -2.945313 -1.058594 c -0.5625 -0.210937 -1.015625 -0.421875 -1.46875 -0.847656 c -0.453125 -0.527344 -0.566406 -1.160157 -0.792969 -1.691407 c -0.453125 -1.054687 -1.472656 -1.902343 -2.492187 -2.535156 c 0.90625 0.105469 1.925781 0.105469 2.832031 0.210938 c -0.453125 -0.847656 -1.585938 -0.953125 -2.492188 -1.269532 c -1.699218 -0.636718 -2.605468 -2.222656 -3.398437 -3.808593 c 0.90625 -0.105469 1.925781 0.105469 2.71875 0.53125 c -1.132813 -0.742188 -2.492187 -1.480469 -3.171875 -2.644531 c -0.339844 -0.636719 -0.566406 -1.269532 -0.789062 -1.902344 c -0.453126 -1.058594 -0.679688 -1.90625 -1.019532 -2.75 c -0.113281 -0.636719 -0.339844 -1.164063 -0.679687 -1.691406 c -0.566407 -0.953126 -1.699219 -1.589844 -2.605469 -2.117188 c 1.359375 -0.210938 2.832031 0 4.191406 0.210938 c 1.355469 0.210937 2.714844 0.425781 3.960938 0.742187 c 3.285156 0.949219 6.113281 3.277344 7.472656 6.238281 c 0.339844 -0.632812 0.339844 -1.480468 0 -2.113281 c 1.925781 1.796875 3.964844 3.804687 4.304688 6.238281 c 0.339843 -0.636718 0.453124 -1.480468 0.226562 -2.222656 c 3.054688 1.90625 5.09375 4.972656 5.660156 8.355469 c 0.453125 -1.058594 0.453125 -1.796875 0.226563 -2.855469 c 0.679687 1.375 2.039062 2.433594 2.945312 3.699219 c 1.128907 1.589843 1.582031 3.703125 1.128907 5.605469 c 0.453124 -0.105469 0.90625 -0.421876 1.132812 -0.84375 c 1.019531 1.480468 1.132812 3.488281 0.679688 5.179687 c -0.226563 0.742187 -0.566407 1.480469 -1.132813 2.117187 c -0.566406 0.632813 -1.359375 1.054688 -2.148437 1.054688 z m 0 0" fill="#60c3ab"/>
    <path d="m 24.039062 46.335938 s 0.113282 0.105468 0.339844 0.210937 c 0.226563 0.105469 0.566406 0.421875 1.019532 0.742187 c 0.453124 0.316407 0.90625 0.738282 1.472656 1.160157 c 0.566406 0.425781 1.132812 0.953125 1.8125 1.589843 c 0.679687 0.632813 1.355468 1.265626 2.035156 1.902344 c 0.679688 0.738282 1.472656 1.480469 2.265625 2.21875 c 0.792969 0.847656 1.472656 1.691406 2.265625 2.539063 c 0.679688 0.847656 1.472656 1.796875 2.152344 2.644531 c 0.675781 0.949219 1.46875 1.796875 2.035156 2.75 c 0.679688 0.949219 1.359375 1.796875 1.925781 2.75 c 0.566407 0.949219 1.132813 1.796875 1.699219 2.640625 c 0.566406 0.847656 1.019531 1.691406 1.472656 2.433594 c 0.453125 0.738281 0.90625 1.375 1.132813 2.007812 c 0.339843 0.636719 0.675781 1.164063 0.902343 1.585938 c 0.453126 0.847656 0.792969 1.375 0.792969 1.375 l -2.375 1.058593 s -0.226562 -0.527343 -0.679687 -1.375 c -0.226563 -0.421874 -0.453125 -0.953124 -0.792969 -1.585937 s -0.679687 -1.269531 -1.019531 -2.007813 c -0.453125 -0.742187 -0.792969 -1.585937 -1.246094 -2.433593 c -0.453125 -0.847657 -1.019531 -1.691407 -1.585938 -2.644531 c -0.566406 -0.949219 -1.132812 -1.796876 -1.699218 -2.75 c -0.5625 -0.949219 -1.242188 -1.902344 -1.921875 -2.855469 c -0.679688 -0.949219 -1.359375 -1.796875 -2.039063 -2.746094 c -0.679687 -0.847656 -1.359375 -1.800781 -2.039062 -2.539063 c -0.679688 -0.847656 -1.359375 -1.585937 -2.039063 -2.328124 c -0.675781 -0.738282 -1.355469 -1.375 -1.921875 -2.007813 s -1.246094 -1.164063 -1.699218 -1.585937 c -0.566407 -0.421876 -1.019532 -0.847657 -1.359376 -1.164063 c -0.339843 -0.316406 -0.679687 -0.527344 -0.90625 -0.738281 c -0.226562 -0.105469 -0.339843 -0.214844 -0.339843 -0.214844 z m 0 0" fill="#3a9b81"/>
    <path d="m 49.96875 74.570312 h -8.492188 c -0.566406 0 -1.132812 0.421876 -1.246093 0.953126 c -0.113281 0.738281 0.453125 1.375 1.246093 1.375 h 0.113282 c 0.453125 0 0.90625 0.316406 0.90625 0.84375 v 1.375 h 6.679687 v -1.375 c 0 -0.421876 0.339844 -0.84375 0.90625 -0.84375 c 0.566407 0 1.132813 -0.425782 1.246094 -0.953126 c 0 -0.738281 -0.566406 -1.375 -1.359375 -1.375 z m 0 0" fill="#3a5569"/>
    <path d="m 46.570312 78.589844 h -1.808593 c -5.097657 0 -9.285157 3.699218 -9.285157 8.246094 v 2.433593 c 0 1.269531 1.246094 2.328125 2.714844 2.328125 h 15.0625 c 1.46875 0 2.714844 -1.058594 2.714844 -2.328125 v -2.433593 c -0.113281 -4.652344 -4.1875 -8.246094 -9.398438 -8.246094 z m 0 0" fill="#637888"/>
    <g fill="#deddda">
        <path d="m 82.863281 58.503906 v 5.476563 h -11.203125 v -23.738281 h 40.339844 v 18.261718 z m 0 0"/>
        <path d="m 100.792969 88.011719 v 8.007812 h -29.132813 v -24.027343 h 40.339844 v 16.019531 z m 0 0"/>
    </g>
</svg>
