<?xml version="1.0" encoding="UTF-8"?>
<svg height="128px" viewBox="0 0 128 128" width="128px" xmlns="http://www.w3.org/2000/svg">
    <path d="m 68.347656 14.980469 c 2.507813 1.46875 5.03125 2.90625 7.511719 4.414062 c 5.328125 3.242188 10.597656 6.585938 15.960937 9.769531 c 4.167969 2.472657 6.933594 5.996094 8.546876 10.507813 c 0.195312 0.546875 0.449218 1.070313 0.742187 1.777344 c 0.375 2.964843 0.882813 5.75 0.957031 8.546875 c 0.113282 4.417968 -0.765625 8.730468 -2.0625 12.929687 c -0.851562 -1.027343 -1.632812 -2.019531 -2.410156 -3.109375 c 0.0625 -1.242187 -0.339844 -2.132812 -1.394531 -2.671875 c -6.253907 -3.214843 -12.5 -6.441406 -18.769531 -9.628906 c -1.445313 -0.738281 -2.144532 -0.46875 -2.953126 0.96875 c -0.304687 0.542969 -0.578124 1.117187 -0.757812 1.707031 c -0.277344 0.917969 -0.023438 1.589844 0.96875 1.964844 c 1.753906 0.660156 3.5 1.351562 5.199219 2.128906 c 1.769531 0.8125 3.480469 1.746094 5.148437 2.683594 c -2.476562 0.839844 -3.90625 2.625 -4.847656 4.84375 c -1.019531 2.414062 -2.101562 4.820312 -2.878906 7.3125 c -2.949219 9.441406 -4.785156 19.140625 -6.578125 28.867188 c -1.613281 0.417968 -3.128907 0.832031 -4.648438 1.246093 c -1.757812 0.238281 -3.527343 0.71875 -5.273437 0.65625 c -2.679688 -0.097656 -5.359375 -0.503906 -7.820313 -1.75 c -1.207031 -0.613281 -2.457031 -1.148437 -3.832031 -1.789062 c -2.199219 -1.386719 -4.226562 -2.742188 -6.308594 -4.007813 c -1.792968 -1.09375 -3.648437 -2.09375 -5.53125 -3.199218 c -0.917968 -0.601563 -1.789062 -1.136719 -2.65625 -1.667969 c -0.296875 -0.320313 -0.542968 -0.71875 -0.898437 -0.945313 c -2.089844 -1.335937 -4.203125 -2.628906 -6.246094 -4.011718 c 0.273437 -0.058594 0.484375 -0.066407 0.6875 -0.023438 c 5.660156 1.210938 11.003906 0.164062 16.136719 -2.277344 c 9.332031 -4.441406 16.226562 -11.535156 21.542968 -20.222656 c 5.796876 -9.472656 9.238282 -19.632812 8.222657 -30.9375 c -0.410157 -4.5625 -1.757813 -8.800781 -4.585938 -12.484375 c -0.402343 -0.523437 -0.78125 -1.066406 -1.171875 -1.597656 m 19.59375 28.023437 c -2.609375 -1.472656 -5.199218 -2.980468 -7.847656 -4.375 c -0.484375 -0.257812 -1.40625 -0.3125 -1.785156 -0.015625 c -1.242188 0.957031 -0.855469 3.601563 0.539062 4.351563 c 1.902344 1.023437 3.835938 2 5.722656 3.058594 c 4.246094 2.378906 8.46875 4.804687 12.703126 7.203124 c 1.257812 0.714844 2.199218 0.203126 2.316406 -1.246093 c 0.101562 -1.285157 -0.417969 -2.230469 -1.542969 -2.898438 c -3.324219 -1.980469 -6.632813 -3.992187 -10.105469 -6.078125 m -3.242187 -10.007812 c -1.546875 -0.894532 -3.078125 -1.816406 -4.648438 -2.671875 c -0.972656 -0.53125 -1.390625 -0.273438 -1.445312 0.824219 c -0.078125 1.492187 0.417969 2.628906 1.835937 3.378906 c 2.09375 1.105468 4.144532 2.296875 6.167969 3.527344 c 3.910156 2.371093 7.785156 4.800781 11.695313 7.171874 c 0.371093 0.226563 1.15625 0.402344 1.3125 0.222657 c 0.289062 -0.335938 0.5 -1.070313 0.320312 -1.425781 c -0.464844 -0.929688 -0.972656 -2.019532 -1.789062 -2.554688 c -4.375 -2.878906 -8.847657 -5.605469 -13.449219 -8.472656 m -7.019531 -9.96875 c -0.304688 -0.003906 -0.605469 -0.011719 -0.90625 -0.015625 c 0.019531 0.28125 -0.070313 0.648437 0.074218 0.824219 c 0.855469 1.035156 1.597656 2.289062 2.6875 2.988281 c 5.664063 3.640625 11.421875 7.132812 17.148438 10.671875 c 0.363281 0.222656 0.757812 0.402344 1.136718 0.597656 c 0.109376 -0.082031 0.21875 -0.164062 0.328126 -0.246094 c -0.253907 -0.5625 -0.40625 -1.214844 -0.789063 -1.667968 c -0.632813 -0.757813 -1.328125 -1.527344 -2.152344 -2.054688 c -5.769531 -3.703125 -11.578125 -7.347656 -17.527343 -11.097656 z m 0 0" fill="#3e3731"/>
    <path d="m 97.59375 59.914062 c 0.777344 0.992188 1.558594 1.984376 2.417969 3.109376 c 0.761719 2.3125 1.773437 4.445312 2.050781 6.671874 c 0.847656 6.828126 1.410156 13.695313 2.085938 20.546876 c 0.175781 2.265624 0.3125 4.535156 0.539062 6.796874 c 0.351562 3.5 0.765625 6.996094 1.148438 10.492188 c 0.019531 0.164062 0.007812 0.332031 0.019531 0.496094 c 0.257812 2.816406 0.257812 2.816406 -2.445313 3.679687 c -10.160156 3.25 -20.324218 6.5 -30.488281 9.742188 c -0.789063 0.253906 -1.589844 0.46875 -2.46875 0.605469 c 0.246094 -2.402344 0.554687 -4.707032 0.890625 -7.011719 c 2.03125 -13.914063 4.289062 -27.789063 8.039062 -41.371094 c 1.117188 -4.050781 2.429688 -8.039063 4.578126 -11.699219 c 0.933593 -1.589844 2.195312 -2.621094 4.007812 -3.113281 c 2.292969 -0.621094 4.570312 -0.839844 6.902344 -0.398437 c -0.007813 0.003906 -0.015625 -0.007813 0.058594 0.035156 c 0.234374 0.101562 0.394531 0.15625 0.636718 0.230468 c 0.730469 0.40625 1.378906 0.796876 2.027344 1.1875 m 0.515625 8.300782 s -0.011719 0.003906 -0.015625 -0.191406 c -0.523438 -3.074219 -3.445312 -5.042969 -6.445312 -4.390626 c -2.390626 0.523438 -4.109376 1.898438 -5.375 3.949219 c -2.230469 3.617188 -2.277344 7.710938 -0.121094 10.699219 c 1.773437 2.449219 5.679687 3 8.0625 0.460938 c 3.097656 -2.121094 4.519531 -5.039063 4.234375 -8.945313 c -0.117188 -0.53125 -0.234375 -1.058594 -0.339844 -1.582031 z m 0 0" fill="#423b31"/>
    <path d="m 68.289062 14.921875 c 0.449219 0.589844 0.828126 1.132813 1.230469 1.65625 c 2.828125 3.683594 4.175781 7.921875 4.585938 12.484375 c 1.015625 11.304688 -2.425781 21.464844 -8.222657 30.9375 c -5.316406 8.6875 -12.210937 15.78125 -21.542968 20.222656 c -5.132813 2.441406 -10.476563 3.488282 -16.136719 2.277344 c -0.203125 -0.042969 -0.414063 -0.035156 -0.726563 -0.050781 c -7.007812 -3.070313 -11.242187 -8.289063 -12.585937 -15.738281 c -0.410156 -2.265626 -0.8125 -4.597657 -0.722656 -6.882813 c 0.242187 -6.324219 1.601562 -12.433594 4.148437 -18.265625 c 1.96875 -4.496094 4.285156 -8.78125 7.230469 -12.710938 c 5.886719 -7.847656 12.929687 -14.238281 22.421875 -17.375 c 2.441406 -0.808593 5.074219 -1.375 7.625 -1.410156 c 4.515625 -0.0625 8.53125 1.734375 12.128906 4.433594 c 0.167969 0.125 0.335938 0.242188 0.566406 0.421875 m -44.824218 61.097656 c 0.078125 0.054688 0.152344 0.109375 0.382812 0.222657 c 4.375 3.363281 9.3125 3.960937 14.546875 2.84375 c 5.921875 -1.265626 10.867188 -4.386719 15.492188 -8.402344 c 6.207031 -5.519532 10.8125 -12.171875 13.980469 -19.824219 c 0.613281 -1.488281 1.027343 -3.0625 1.675781 -4.714844 c 0.101562 -0.40625 0.207031 -0.8125 0.355469 -1.285156 c 0 0 -0.015626 -0.078125 0.105468 -0.234375 c 1.585938 -5.960938 2.171875 -11.976562 0.570313 -18.007812 c -1.859375 -7.007813 -6.011719 -11.808594 -13.480469 -13.039063 c -3.039062 -0.5 -6.058594 -0.117187 -9 0.789063 c -7.359375 2.273437 -13.234375 6.765624 -18.128906 12.539062 c -2.410156 2.839844 -4.386719 6.046875 -6.65625 9.191406 c -0.058594 0.132813 -0.117188 0.261719 -0.183594 0.375 c 0 0 0.015625 -0.003906 -0.070312 0.105469 c -0.042969 0.082031 -0.089844 0.164063 -0.125 0.175781 c 0 0 0.066406 0.007813 -0.050782 0.117188 c -0.066406 0.140625 -0.128906 0.285156 -0.214844 0.375 c 0 0 0.054688 -0.023438 -0.050781 0.097656 c -0.058593 0.148438 -0.117187 0.292969 -0.175781 0.421875 c 0 0 0.015625 0 -0.136719 0.085937 c -0.125 0.308594 -0.246093 0.617188 -0.382812 0.890626 c 0 0 0.035156 -0.011719 -0.070313 0.105468 c -0.0625 0.148438 -0.121094 0.296875 -0.203125 0.386719 c 0 0 0.054688 -0.023437 -0.042969 0.109375 c -0.050781 0.148438 -0.105468 0.300781 -0.167968 0.410156 c 0 0 0.042968 -0.011718 -0.070313 0.105469 c -0.054687 0.148437 -0.113281 0.300781 -0.191406 0.390625 c 0 0 0.058594 -0.023438 -0.058594 0.105469 c -0.074219 0.210937 -0.144531 0.425781 -0.25 0.613281 c 0 0 0.035157 0.019531 -0.105469 0.117188 c -0.101562 0.320312 -0.203124 0.640624 -0.308593 0.925781 c 0 0 0.03125 -0.007813 -0.117188 0.101562 c -0.125 0.390625 -0.25 0.785157 -0.382812 1.148438 c 0 0 0.03125 -0.003907 -0.117188 0.101562 c -0.578125 1.585938 -1.261719 3.144531 -1.710937 4.769531 c -1.535156 5.542969 -2.074219 11.167969 -0.960938 16.867188 c 0.148438 0.75 0.527344 1.453125 0.769532 2.171875 c 0 0 0.007812 -0.035156 -0.015626 0.160156 c 0.183594 0.441407 0.363282 0.882813 0.519532 1.335938 c 0 0 0.015625 -0.023438 0 0.160156 c 0.183594 0.359375 0.371094 0.722656 0.511718 1.078125 c 0 0 0.003907 -0.039062 0.03125 0.121094 c 0.078126 0.140625 0.15625 0.28125 0.179688 0.402344 c 0 0 0.019531 -0.054688 0.050781 0.101562 c 0.085938 0.132812 0.175781 0.261719 0.222657 0.386719 c 0 0 0.007812 -0.039063 0.042968 0.117187 c 0.085938 0.132813 0.171875 0.269532 0.179688 0.398438 c 0 0 0 -0.078125 0.066406 0.039062 c 0.054688 0.070313 0.109375 0.136719 0.167969 0.210938 c 0 0 0 0.007812 0.042969 0.152344 c 0.085937 0.121093 0.167968 0.246093 0.210937 0.355468 c 0 0 0.011719 -0.046875 0.058594 0.105469 c 0.101562 0.121094 0.199219 0.242187 0.222656 0.378906 c 0 0 -0.015625 -0.078125 0.066406 0.046875 c 0.0625 0.078125 0.125 0.15625 0.125 0.226563 c 0 0 0.011719 -0.058594 0.082031 0.054687 c 0.0625 0.066406 0.121094 0.132813 0.164063 0.203125 c 0 0 0.011719 -0.011719 0.070313 0.128907 c 0.097656 0.117187 0.191406 0.234374 0.21875 0.335937 c 0 0 0.015624 -0.070313 0.074218 0.078125 c 0.144532 0.148438 0.289063 0.296875 0.394532 0.449219 c 0 0 -0.003907 -0.035157 0.078124 0.070312 c 0.0625 0.0625 0.125 0.121094 0.316407 0.25 c 0.121093 0.148438 0.238281 0.300781 0.414062 0.582031 c 0.144531 0.117188 0.289063 0.234376 0.546875 0.394532 c 0.074219 0.042968 0.125 0.109375 0.230469 0.292968 c 0.066406 0.054688 0.132813 0.109376 0.164063 0.167969 c 0 0 -0.003907 -0.039062 0.097656 0.0625 z m 0 0" fill="#61574b"/>
    <path d="m 104.214844 90.191406 c -0.742188 -6.800781 -1.304688 -13.667968 -2.152344 -20.496094 c -0.277344 -2.226562 -1.289062 -4.359374 -1.976562 -6.632812 c 1.214843 -4.335938 2.09375 -8.648438 1.980468 -13.066406 c -0.074218 -2.796875 -0.582031 -5.582032 -0.910156 -8.472656 c 3.273438 1.820312 6.785156 3.417968 9.328125 6.414062 c 2.683594 3.164062 3.976563 6.90625 4.328125 10.957031 c 0.933594 10.859375 -2.941406 20.292969 -8.859375 29.082031 c -0.507813 0.753907 -1.113281 1.445313 -1.738281 2.214844 z m 0 0" fill="#27241d"/>
    <path d="m 94.875 58.457031 c -2.335938 -0.4375 -4.613281 -0.21875 -6.90625 0.402344 c -1.8125 0.492187 -3.074219 1.523437 -4.007812 3.113281 c -2.148438 3.660156 -3.460938 7.648438 -4.578126 11.699219 c -3.75 13.582031 -6.007812 27.457031 -8.039062 41.371094 c -0.335938 2.304687 -0.644531 4.609375 -0.984375 7.015625 c -2.945313 -1.34375 -2.933594 -1.488282 -2.394531 -4.589844 c 0.648437 -3.730469 1.132812 -7.488281 1.660156 -11.238281 c 0.199219 -1.425781 0.324219 -2.859375 0.515625 -4.496094 c 0.246094 -1.382813 0.464844 -2.566406 0.679687 -3.746094 c 1.703126 -9.722656 3.539063 -19.421875 6.488282 -28.863281 c 0.777344 -2.492188 1.859375 -4.898438 2.878906 -7.3125 c 0.941406 -2.21875 2.371094 -4.003906 4.957031 -4.835938 c 1.152344 -0.171874 2.132813 -0.355468 3.117188 -0.402343 c 2.40625 -0.117188 4.675781 0.324219 6.613281 1.882812 z m 0 0" fill="#564f45"/>
    <path d="m 37.367188 89.214844 c 1.832031 1.039062 3.6875 2.039062 5.480468 3.132812 c 2.082032 1.265625 4.109375 2.621094 6.210938 4 c -1.824219 0.542969 -3.691406 1.0625 -5.574219 1.492188 c -2.738281 0.628906 -5.488281 1.195312 -8.328125 1.683594 c 0.671875 -3.503907 1.441406 -6.90625 2.210938 -10.308594 z m 0 0" fill="#27241d"/>
    <path d="m 37.316406 89.148438 c -0.71875 3.46875 -1.488281 6.871093 -2.265625 10.375 c -0.796875 -0.398438 -1.636719 -0.835938 -2.34375 -1.433594 c -0.234375 -0.199219 -0.242187 -0.832032 -0.15625 -1.222656 c 0.667969 -3.070313 1.382813 -6.125 2.097657 -9.285157 c 0.878906 0.429688 1.75 0.964844 2.667968 1.566407 z m 0 0" fill="#554e44"/>
    <path d="m 70.730469 97.992188 c -0.125 1.175781 -0.34375 2.359374 -0.59375 3.628906 c -1.339844 -0.691406 -2.640625 -1.472656 -3.996094 -2.320313 c 1.460937 -0.476562 2.976563 -0.890625 4.589844 -1.308593 z m 0 0" fill="#28241e"/>
    <path d="m 88.019531 43.046875 c 3.394531 2.042969 6.703125 4.054687 10.027344 6.035156 c 1.125 0.667969 1.644531 1.613281 1.542969 2.898438 c -0.117188 1.449219 -1.058594 1.960937 -2.316406 1.246093 c -4.234376 -2.398437 -8.457032 -4.824218 -12.703126 -7.203124 c -1.886718 -1.058594 -3.820312 -2.035157 -5.722656 -3.058594 c -1.394531 -0.75 -1.78125 -3.394532 -0.539062 -4.351563 c 0.378906 -0.296875 1.300781 -0.242187 1.785156 0.015625 c 2.648438 1.394532 5.238281 2.902344 7.925781 4.417969 z m 0 0" fill="#1f1b18"/>
    <path d="m 94.871094 58.460938 c -1.933594 -1.5625 -4.203125 -2.003907 -6.609375 -1.886719 c -0.984375 0.046875 -1.964844 0.230469 -3.050781 0.34375 c -1.84375 -0.886719 -3.554688 -1.820313 -5.324219 -2.632813 c -1.699219 -0.777344 -3.445313 -1.46875 -5.199219 -2.128906 c -0.992188 -0.375 -1.246094 -1.046875 -0.96875 -1.964844 c 0.179688 -0.589844 0.453125 -1.164062 0.757812 -1.707031 c 0.808594 -1.4375 1.507813 -1.707031 2.953126 -0.96875 c 6.269531 3.1875 12.515624 6.414063 18.769531 9.628906 c 1.054687 0.539063 1.457031 1.429688 1.394531 2.671875 c -0.648438 -0.292968 -1.296875 -0.683594 -2.097656 -1.140625 c -0.3125 -0.121093 -0.476563 -0.171875 -0.640625 -0.222656 c 0 0 0.007812 0.011719 0.015625 0.007813 z m 0 0" fill="#201b18"/>
    <path d="m 84.78125 33.039062 c 4.519531 2.824219 8.992188 5.550782 13.367188 8.429688 c 0.816406 0.535156 1.324218 1.625 1.789062 2.554688 c 0.179688 0.355468 -0.03125 1.089843 -0.320312 1.425781 c -0.15625 0.179687 -0.941407 0.003906 -1.3125 -0.222657 c -3.910157 -2.371093 -7.785157 -4.800781 -11.695313 -7.171874 c -2.023437 -1.230469 -4.074219 -2.421876 -6.167969 -3.527344 c -1.417968 -0.75 -1.914062 -1.886719 -1.835937 -3.378906 c 0.054687 -1.097657 0.472656 -1.355469 1.445312 -0.824219 c 1.570313 0.855469 3.101563 1.777343 4.730469 2.714843 z m 0 0" fill="#1f1b18"/>
    <path d="m 77.753906 23.070312 c 5.875 3.707032 11.683594 7.351563 17.453125 11.054688 c 0.824219 0.527344 1.519531 1.296875 2.152344 2.054688 c 0.382813 0.453124 0.535156 1.105468 0.789063 1.667968 c -0.109376 0.082032 -0.21875 0.164063 -0.328126 0.246094 c -0.378906 -0.195312 -0.773437 -0.375 -1.136718 -0.597656 c -5.726563 -3.539063 -11.484375 -7.03125 -17.148438 -10.671875 c -1.089844 -0.699219 -1.832031 -1.953125 -2.6875 -2.988281 c -0.144531 -0.175782 -0.054687 -0.542969 -0.074218 -0.824219 c 0.300781 0.003906 0.601562 0.011719 0.980468 0.058593 z m 0 0" fill="#201c18"/>
    <path d="m 98.375 69.941406 c 0.359375 3.761719 -1.0625 6.679688 -4.308594 8.890625 c -0.421875 0.191407 -0.695312 0.292969 -0.972656 0.394531 c -3.820312 1.382813 -7.007812 -0.335937 -7.789062 -4.335937 c -0.675782 -3.464844 0.433593 -6.488281 2.988281 -8.828125 c 3.304687 -3.027344 7.007812 -2.359375 9.269531 1.480469 c 0.144531 0.246093 0.355469 0.453125 0.535156 0.675781 c 0 0 0.011719 -0.003906 0 0.09375 c 0.085938 0.609375 0.179688 1.121094 0.277344 1.628906 m -4.5625 0.023438 c 0.082031 -0.695313 0.296875 -1.40625 0.222656 -2.085938 c -0.1875 -1.722656 -1.777344 -2.742187 -3.46875 -2.320312 c -2.457031 0.613281 -4.007812 3.171875 -3.371094 5.609375 c 0.269532 1.023437 0.96875 1.621093 2.035157 1.765625 c 2.011719 0.265625 3.460937 -0.628906 4.582031 -2.96875 z m 0 0" fill="#60564d"/>
    <path d="m 98.097656 68.121094 c -0.179687 -0.125 -0.390625 -0.332032 -0.535156 -0.578125 c -2.261719 -3.839844 -5.964844 -4.507813 -9.269531 -1.480469 c -2.554688 2.339844 -3.664063 5.363281 -2.988281 8.828125 c 0.78125 4 3.96875 5.71875 7.789062 4.335937 c 0.277344 -0.101562 0.550781 -0.203124 0.917969 -0.335937 c -2.179688 2.390625 -6.085938 1.839844 -7.859375 -0.609375 c -2.15625 -2.988281 -2.109375 -7.082031 0.121094 -10.699219 c 1.265624 -2.050781 2.984374 -3.425781 5.375 -3.949219 c 3 -0.652343 5.921874 1.316407 6.449218 4.488282 z m 0 0" fill="#3a3329"/>
    <path d="m 98.410156 69.871094 c -0.132812 -0.4375 -0.226562 -0.949219 -0.316406 -1.5625 c 0.121094 0.429687 0.238281 0.957031 0.316406 1.5625 z m 0 0" fill="#3a3329"/>
    <path d="m 94.929688 58.496094 c 0.089843 0.007812 0.253906 0.058594 0.488281 0.160156 c -0.09375 -0.003906 -0.253907 -0.058594 -0.488281 -0.160156 z m 0 0" fill="#564f45"/>
    <path d="m 69.402344 46.265625 c -0.507813 1.53125 -0.921875 3.105469 -1.535156 4.59375 c -3.167969 7.652344 -7.773438 14.304687 -14.15625 19.855469 c -0.777344 0.273437 -1.441407 0.421875 -1.972657 0.777344 c -3.128906 2.082031 -6.503906 3.464843 -10.253906 4.007812 c -6.257813 0.902344 -12.210937 -2.640625 -14.339844 -8.578125 c -1.578125 -4.394531 -1.820312 -8.855469 -0.914062 -13.402344 c 2.101562 -10.53125 7.234375 -19.269531 15.679687 -25.933593 c 4.46875 -3.523438 9.429688 -5.949219 15.367188 -5.640626 c 4.554687 0.234376 7.957031 2.46875 10.207031 6.25 c 2.394531 4.019532 2.953125 8.511719 2.449219 13.152344 c -0.121094 1.132813 -0.039063 2.289063 -0.050782 3.433594 c 0 0 0.015626 0.078125 -0.089843 0.144531 c -0.199219 0.488281 -0.292969 0.914063 -0.390625 1.339844 z m 0 0" fill="#f8ff9f"/>
    <path d="m 69.945312 44.703125 c -0.050781 -1.066406 -0.132812 -2.222656 -0.011718 -3.355469 c 0.503906 -4.640625 -0.054688 -9.132812 -2.449219 -13.152344 c -2.25 -3.78125 -5.652344 -6.015624 -10.207031 -6.25 c -5.9375 -0.308593 -10.898438 2.117188 -15.367188 5.640626 c -8.445312 6.664062 -13.578125 15.402343 -15.679687 25.933593 c -0.90625 4.546875 -0.664063 9.007813 0.914062 13.402344 c 2.128907 5.9375 8.082031 9.480469 14.339844 8.578125 c 3.75 -0.542969 7.125 -1.925781 10.253906 -4.007812 c 0.53125 -0.355469 1.195313 -0.503907 1.902344 -0.742188 c -4.378906 3.949219 -9.324219 7.070312 -15.246094 8.335938 c -5.234375 1.117187 -10.171875 0.519531 -14.660156 -2.9375 c -0.199219 -0.136719 -0.285156 -0.183594 -0.371094 -0.230469 c 0 0 0.003907 0.039062 -0.007812 -0.027344 c -0.085938 -0.109375 -0.160157 -0.15625 -0.238281 -0.199219 c -0.019532 -0.085937 -0.070313 -0.152344 -0.230469 -0.28125 c -0.230469 -0.203125 -0.375 -0.320312 -0.515625 -0.4375 c -0.121094 -0.152344 -0.238282 -0.304687 -0.449219 -0.550781 c -0.160156 -0.152344 -0.234375 -0.203125 -0.308594 -0.257813 c 0 0 0.003907 0.035157 -0.003906 -0.039062 c -0.152344 -0.226562 -0.300781 -0.375 -0.445313 -0.523438 c 0 0 -0.015624 0.070313 0 0 c -0.089843 -0.179687 -0.191406 -0.292968 -0.292968 -0.40625 c 0 0 -0.011719 0.011719 -0.019532 -0.058593 c -0.085937 -0.128907 -0.15625 -0.1875 -0.226562 -0.246094 c 0 0 -0.011719 0.058594 0 -0.015625 c -0.066406 -0.140625 -0.140625 -0.210938 -0.21875 -0.277344 c 0 0 0.015625 0.078125 0.027344 -0.007812 c -0.085938 -0.203125 -0.183594 -0.324219 -0.28125 -0.445313 c 0 0 -0.011719 0.046875 -0.007813 -0.023437 c -0.082031 -0.1875 -0.167969 -0.308594 -0.257812 -0.429688 c 0 0 0 -0.007812 -0.015625 -0.078125 c -0.085938 -0.132812 -0.152344 -0.195312 -0.21875 -0.257812 c 0 0 0 0.078125 0.023437 0 c -0.066406 -0.210938 -0.152343 -0.34375 -0.238281 -0.476563 c 0 0 -0.007812 0.039063 -0.007812 -0.035156 c -0.082032 -0.207031 -0.167969 -0.335938 -0.253907 -0.46875 c 0 0 -0.019531 0.054688 -0.003906 -0.019531 c -0.0625 -0.210938 -0.140625 -0.351563 -0.222656 -0.488281 c 0 0 -0.003907 0.039062 -0.003907 -0.042969 c -0.164062 -0.449219 -0.332031 -0.816407 -0.496093 -1.179688 c 0 0 -0.015625 0.023438 -0.015625 -0.074219 c -0.167969 -0.539062 -0.332032 -0.988281 -0.496094 -1.433593 c 0 0 -0.007812 0.035156 -0.003906 -0.066407 c -1.003906 -3.878906 -1.234375 -7.707031 -0.867188 -11.597656 c 0.402344 -4.214844 1.523438 -8.242187 2.914063 -12.214844 c 0 0 -0.03125 0.003907 0.027343 -0.046874 c 0.195313 -0.4375 0.335938 -0.824219 0.472657 -1.207032 c 0 0 -0.03125 0.007813 0.027343 -0.039062 c 0.167969 -0.355469 0.277344 -0.667969 0.390626 -0.976563 c 0 0 -0.035157 -0.019531 0.042968 -0.066406 c 0.144532 -0.265625 0.214844 -0.480469 0.289063 -0.695313 c 0 0 -0.058594 0.023438 0.011719 -0.003906 c 0.125 -0.175781 0.179687 -0.328125 0.234374 -0.480468 c 0 0 -0.042968 0.011718 0.019532 -0.023438 c 0.109375 -0.195312 0.15625 -0.351562 0.203125 -0.507812 c 0 0 -0.054688 0.023437 0.019531 0 c 0.128906 -0.175782 0.183594 -0.328126 0.234375 -0.480469 c 0 0 -0.035156 0.011719 0.03125 -0.027344 c 0.199219 -0.335937 0.335937 -0.636719 0.46875 -0.9375 c 0 0 -0.015625 0 0.042969 -0.042969 c 0.113281 -0.195312 0.167968 -0.347656 0.222656 -0.5 c 0 0 -0.054688 0.023438 0.015625 0 c 0.136719 -0.171875 0.199219 -0.316406 0.261719 -0.460937 c 0 0 -0.066406 -0.007813 -0.007813 -0.011719 c 0.089844 -0.097656 0.121094 -0.191406 0.152344 -0.28125 c 0 0 -0.015625 0.003906 0.042969 -0.035156 c 0.117187 -0.171875 0.171875 -0.304688 0.222656 -0.4375 c 2.171875 -3.042969 4.148438 -6.25 6.558594 -9.089844 c 4.894531 -5.773438 10.769531 -10.265625 18.128906 -12.539062 c 2.941406 -0.90625 5.960938 -1.289063 9 -0.789063 c 7.46875 1.230469 11.621094 6.03125 13.480469 13.039063 c 1.601562 6.03125 1.015625 12.046874 -0.628907 18.085937 z m 0 0" fill="#fcfe6d"/>
    <path d="m 19.90625 43.308594 c -1.316406 3.917968 -2.4375 7.949218 -2.839844 12.164062 c -0.367187 3.890625 -0.136718 7.71875 0.882813 11.601563 c -0.261719 -0.621094 -0.640625 -1.324219 -0.789063 -2.074219 c -1.113281 -5.699219 -0.574218 -11.324219 0.960938 -16.867188 c 0.449218 -1.625 1.132812 -3.183593 1.785156 -4.824218 z m 0 0" fill="#696234"/>
    <path d="m 69.472656 46.207031 c 0.027344 -0.367187 0.121094 -0.792969 0.300782 -1.25 c -0.023438 0.375 -0.128907 0.78125 -0.300782 1.25 z m 0 0" fill="#fcfe6d"/>
    <g fill="#696234">
        <path d="m 17.925781 67.234375 c 0.175781 0.347656 0.339844 0.796875 0.519531 1.332031 c -0.167968 -0.351562 -0.347656 -0.792968 -0.519531 -1.332031 z m 0 0"/>
        <path d="m 18.441406 68.734375 c 0.171875 0.273437 0.339844 0.640625 0.523438 1.089844 c -0.164063 -0.273438 -0.347656 -0.636719 -0.523438 -1.089844 z m 0 0"/>
        <path d="m 20.40625 42.058594 c -0.0625 0.328125 -0.203125 0.714844 -0.398438 1.167968 c 0.074219 -0.328124 0.199219 -0.722656 0.398438 -1.167968 z m 0 0"/>
        <path d="m 20.828125 41.039062 c -0.042969 0.257813 -0.152344 0.570313 -0.316406 0.941407 c 0.042969 -0.253907 0.144531 -0.574219 0.316406 -0.941407 z m 0 0"/>
        <path d="m 22.375 37.808594 c -0.054688 0.257812 -0.191406 0.558594 -0.382812 0.914062 c 0.0625 -0.253906 0.183593 -0.5625 0.382812 -0.914062 z m 0 0"/>
        <path d="m 21.171875 40.289062 c -0.015625 0.152344 -0.085937 0.367188 -0.21875 0.644532 c 0.015625 -0.152344 0.085937 -0.367188 0.21875 -0.644532 z m 0 0"/>
        <path d="m 22.398438 75.035156 c 0.113281 0.054688 0.257812 0.171875 0.429687 0.351563 c -0.113281 -0.050781 -0.257813 -0.167969 -0.429687 -0.351563 z m 0 0"/>
        <path d="m 21.195312 73.675781 c 0.113282 0.074219 0.261719 0.222657 0.433594 0.445313 c -0.117187 -0.074219 -0.261718 -0.222656 -0.433594 -0.445313 z m 0 0"/>
        <path d="m 20.175781 72.222656 c 0.074219 0.042969 0.171875 0.164063 0.296875 0.363282 c -0.074218 -0.046876 -0.171875 -0.167969 -0.296875 -0.363282 z m 0 0"/>
        <path d="m 22.9375 36.816406 c -0.003906 0.089844 -0.066406 0.234375 -0.191406 0.429688 c 0.003906 -0.089844 0.066406 -0.234375 0.191406 -0.429688 z m 0 0"/>
        <path d="m 22.664062 37.285156 c 0 0.089844 -0.054687 0.242188 -0.167968 0.445313 c 0 -0.09375 0.058594 -0.238281 0.167968 -0.445313 z m 0 0"/>
        <path d="m 21.898438 38.789062 c 0.003906 0.09375 -0.050782 0.246094 -0.167969 0.449219 c -0.003907 -0.09375 0.054687 -0.242187 0.167969 -0.449219 z m 0 0"/>
        <path d="m 21.652344 39.277344 c 0 0.089844 -0.046875 0.246094 -0.148438 0.460937 c -0.007812 -0.09375 0.046875 -0.246093 0.148438 -0.460937 z m 0 0"/>
        <path d="m 20.898438 73.265625 c 0.074218 0.042969 0.175781 0.15625 0.300781 0.34375 c -0.078125 -0.039063 -0.171875 -0.15625 -0.300781 -0.34375 z m 0 0"/>
        <path d="m 19.90625 71.761719 c 0.070312 0.050781 0.15625 0.171875 0.261719 0.367187 c -0.070313 -0.046875 -0.152344 -0.171875 -0.261719 -0.367187 z m 0 0"/>
        <path d="m 19.453125 70.957031 c 0.070313 0.054688 0.15625 0.1875 0.261719 0.398438 c -0.070313 -0.050781 -0.15625 -0.1875 -0.261719 -0.398438 z m 0 0"/>
        <path d="m 21.421875 39.800781 c 0 0.09375 -0.054687 0.246094 -0.167969 0.453125 c -0.003906 -0.09375 0.054688 -0.246094 0.167969 -0.453125 z m 0 0"/>
        <path d="m 19.191406 70.453125 c 0.070313 0.054687 0.15625 0.183594 0.257813 0.394531 c -0.070313 -0.054687 -0.15625 -0.183594 -0.257813 -0.394531 z m 0 0"/>
        <path d="m 18.964844 69.945312 c 0.066406 0.058594 0.144531 0.199219 0.234375 0.421876 c -0.066407 -0.058594 -0.144531 -0.199219 -0.234375 -0.421876 z m 0 0"/>
        <path d="m 23.359375 36.046875 c -0.003906 0.082031 -0.058594 0.214844 -0.171875 0.394531 c 0.003906 -0.082031 0.0625 -0.210937 0.171875 -0.394531 z m 0 0"/>
        <path d="m 20.449219 72.660156 c 0.035156 0.003906 0.109375 0.074219 0.207031 0.21875 c -0.042969 0 -0.105469 -0.078125 -0.207031 -0.21875 z m 0 0"/>
        <path d="m 20.660156 72.949219 c 0.035156 0 0.105469 0.058593 0.195313 0.183593 c -0.039063 0.003907 -0.097657 -0.0625 -0.195313 -0.183593 z m 0 0"/>
        <path d="m 19.683594 71.414062 c 0.035156 0.003907 0.101562 0.066407 0.183594 0.199219 c -0.039063 -0.003906 -0.09375 -0.070312 -0.183594 -0.199219 z m 0 0"/>
        <path d="m 21.65625 74.21875 c 0.03125 0 0.105469 0.050781 0.203125 0.167969 c -0.039063 0.003906 -0.101563 -0.054688 -0.203125 -0.167969 z m 0 0"/>
        <path d="m 23.160156 75.738281 c 0.035156 -0.003906 0.109375 0.042969 0.214844 0.152344 c -0.039062 0.007813 -0.105469 -0.046875 -0.214844 -0.152344 z m 0 0"/>
        <path d="m 23.414062 75.96875 c 0.035157 -0.003906 0.121094 0.042969 0.242188 0.152344 c -0.039062 0.007812 -0.113281 -0.046875 -0.242188 -0.152344 z m 0 0"/>
        <path d="m 23.097656 36.523438 c 0.011719 0.035156 -0.019531 0.128906 -0.113281 0.261718 c -0.019531 -0.042968 0.027344 -0.125 0.113281 -0.261718 z m 0 0"/>
    </g>
    <path d="m 93.777344 70.054688 c -1.085938 2.25 -2.535156 3.144531 -4.546875 2.878906 c -1.066407 -0.144532 -1.765625 -0.742188 -2.035157 -1.765625 c -0.636718 -2.4375 0.914063 -4.996094 3.371094 -5.609375 c 1.691406 -0.421875 3.28125 0.597656 3.46875 2.320312 c 0.074219 0.679688 -0.140625 1.390625 -0.257812 2.175782 z m 0 0" fill="#6e6458"/>
</svg>
