<?xml version="1.0" encoding="UTF-8" standalone="no"?>
<!-- Created with Inkscape (http://www.inkscape.org/) -->

<svg
   width="48"
   height="48"
   viewBox="0 0 12.7 12.7"
   version="1.1"
   id="svg1"
   xml:space="preserve"
   inkscape:version="1.3.2 (091e20ef0f, 2023-11-25)"
   sodipodi:docname="icon.svg"
   xmlns:inkscape="http://www.inkscape.org/namespaces/inkscape"
   xmlns:sodipodi="http://sodipodi.sourceforge.net/DTD/sodipodi-0.dtd"
   xmlns:xlink="http://www.w3.org/1999/xlink"
   xmlns="http://www.w3.org/2000/svg"
   xmlns:svg="http://www.w3.org/2000/svg"><sodipodi:namedview
     id="namedview1"
     pagecolor="#ffffff"
     bordercolor="#666666"
     borderopacity="1.0"
     inkscape:showpageshadow="2"
     inkscape:pageopacity="0.0"
     inkscape:pagecheckerboard="0"
     inkscape:deskcolor="#d1d1d1"
     inkscape:document-units="mm"
     inkscape:zoom="15.617479"
     inkscape:cx="16.519951"
     inkscape:cy="25.740389"
     inkscape:window-width="2560"
     inkscape:window-height="1374"
     inkscape:window-x="0"
     inkscape:window-y="0"
     inkscape:window-maximized="1"
     inkscape:current-layer="layer2" /><defs
     id="defs1"><linearGradient
       id="linearGradient8"
       inkscape:collect="always"><stop
         style="stop-color:#3e82b9;stop-opacity:1;"
         offset="0"
         id="stop8" /><stop
         style="stop-color:#284e6d;stop-opacity:1;"
         offset="1"
         id="stop9" /></linearGradient><linearGradient
       id="linearGradient3"
       inkscape:collect="always"><stop
         style="stop-color:#aaaaaa;stop-opacity:1;"
         offset="0"
         id="stop3" /><stop
         style="stop-color:#ebebeb;stop-opacity:1;"
         offset="1"
         id="stop4" /></linearGradient><clipPath
       clipPathUnits="userSpaceOnUse"
       id="clipPath1"><path
         id="path2"
         style="fill:#333333;fill-opacity:1;stroke:none;stroke-width:0.264583px;stroke-linecap:butt;stroke-linejoin:miter;stroke-opacity:1"
         d="m 41.400291,183.96468 v -7.11727 h -1.518132 l -2.139841,-2.006 2.372643,-0.97641 v -1.33018 h -5.899232 -5.899235 v 1.33018 l 2.372643,0.97641 -2.139839,2.006 h -1.518131 v 7.11727 h 7.184562 z"
         sodipodi:nodetypes="ccccccccccccccc" /></clipPath><clipPath
       clipPathUnits="userSpaceOnUse"
       id="clipPath5"><path
         sodipodi:type="star"
         style="fill:url(#linearGradient5);stroke:none;stroke-width:0.665001;stroke-dasharray:2.65999, 0.665001"
         id="path5"
         inkscape:flatsided="false"
         sodipodi:sides="12"
         sodipodi:cx="-2.4918008"
         sodipodi:cy="105.89039"
         sodipodi:r1="29.801908"
         sodipodi:r2="32.393379"
         sodipodi:arg1="0.78539816"
         sodipodi:arg2="1.0471976"
         inkscape:rounded="0.28"
         inkscape:randomized="0"
         d="m 18.581331,126.96352 c -1.685883,1.68588 -2.811667,5.78826 -4.876444,6.98036 -2.064775,1.1921 -6.1804285,0.11587 -8.4833862,0.73294 -2.3029585,0.61708 -5.32910512,3.60695 -7.7133032,3.60695 -2.3841972,0 -5.4103422,-2.98987 -7.7132996,-3.60695 -2.302959,-0.61707 -6.418614,0.45916 -8.48339,-0.73294 -2.064775,-1.1921 -3.190558,-5.29448 -4.87644,-6.98036 -1.685883,-1.68588 -5.78826,-2.81167 -6.980359,-4.87644 -1.192098,-2.06478 -0.115867,-6.18043 -0.732943,-8.48339 -0.617076,-2.30296 -3.606946,-5.32911 -3.606946,-7.7133 0,-2.3842 2.98987,-5.41035 3.606946,-7.713303 0.617076,-2.302958 -0.459154,-6.418613 0.732945,-8.483389 1.192098,-2.064776 5.294474,-3.190559 6.980357,-4.876441 1.685882,-1.685883 2.811667,-5.78826 4.876443,-6.980359 2.064775,-1.192098 6.180429,-0.115867 8.483387,-0.732943 2.3029581,-0.617075 5.3291047,-3.606946 7.7133028,-3.606946 2.38419719,0 5.4103422,2.989871 7.7132998,3.606946 2.3029585,0.617076 6.4186134,-0.459154 8.4833894,0.732945 2.064776,1.192099 3.190559,5.294475 4.876441,6.980357 1.685882,1.685883 5.788259,2.811667 6.980358,4.876443 1.192099,2.064776 0.115868,6.180429 0.732943,8.483387 0.617076,2.302963 3.606946,5.329103 3.606946,7.713303 0,2.3842 -2.98987,5.41034 -3.606946,7.7133 -0.617076,2.30296 0.459155,6.41861 -0.732944,8.48339 -1.192099,2.06477 -5.294475,3.19056 -6.980357,4.87644 z"
         inkscape:transform-center-y="-1.3340521e-06"
         transform="translate(34.043956,146.67513)" /></clipPath><linearGradient
       inkscape:collect="always"
       xlink:href="#linearGradient3"
       id="linearGradient5"
       gradientUnits="userSpaceOnUse"
       x1="-99.724236"
       y1="185.66945"
       x2="-99.724236"
       y2="55.265369" /><clipPath
       clipPathUnits="userSpaceOnUse"
       id="clipPath5-9"><path
         sodipodi:type="star"
         style="fill:url(#linearGradient5-3);stroke:none;stroke-width:0.665001;stroke-dasharray:2.65999, 0.665001"
         id="path5-7"
         inkscape:flatsided="false"
         sodipodi:sides="12"
         sodipodi:cx="-2.4918008"
         sodipodi:cy="105.89039"
         sodipodi:r1="29.801908"
         sodipodi:r2="32.393379"
         sodipodi:arg1="0.78539816"
         sodipodi:arg2="1.0471976"
         inkscape:rounded="0.28"
         inkscape:randomized="0"
         d="m 18.581331,126.96352 c -1.685883,1.68588 -2.811667,5.78826 -4.876444,6.98036 -2.064775,1.1921 -6.1804285,0.11587 -8.4833862,0.73294 -2.3029585,0.61708 -5.32910512,3.60695 -7.7133032,3.60695 -2.3841972,0 -5.4103422,-2.98987 -7.7132996,-3.60695 -2.302959,-0.61707 -6.418614,0.45916 -8.48339,-0.73294 -2.064775,-1.1921 -3.190558,-5.29448 -4.87644,-6.98036 -1.685883,-1.68588 -5.78826,-2.81167 -6.980359,-4.87644 -1.192098,-2.06478 -0.115867,-6.18043 -0.732943,-8.48339 -0.617076,-2.30296 -3.606946,-5.32911 -3.606946,-7.7133 0,-2.3842 2.98987,-5.41035 3.606946,-7.713303 0.617076,-2.302958 -0.459154,-6.418613 0.732945,-8.483389 1.192098,-2.064776 5.294474,-3.190559 6.980357,-4.876441 1.685882,-1.685883 2.811667,-5.78826 4.876443,-6.980359 2.064775,-1.192098 6.180429,-0.115867 8.483387,-0.732943 2.3029581,-0.617075 5.3291047,-3.606946 7.7133028,-3.606946 2.38419719,0 5.4103422,2.989871 7.7132998,3.606946 2.3029585,0.617076 6.4186134,-0.459154 8.4833894,0.732945 2.064776,1.192099 3.190559,5.294475 4.876441,6.980357 1.685882,1.685883 5.788259,2.811667 6.980358,4.876443 1.192099,2.064776 0.115868,6.180429 0.732943,8.483387 0.617076,2.302963 3.606946,5.329103 3.606946,7.713303 0,2.3842 -2.98987,5.41034 -3.606946,7.7133 -0.617076,2.30296 0.459155,6.41861 -0.732944,8.48339 -1.192099,2.06477 -5.294475,3.19056 -6.980357,4.87644 z"
         inkscape:transform-center-y="-1.3340521e-06"
         transform="translate(34.043956,146.67513)" /></clipPath><linearGradient
       inkscape:collect="always"
       xlink:href="#linearGradient3"
       id="linearGradient5-3"
       gradientUnits="userSpaceOnUse"
       x1="-99.724236"
       y1="185.66945"
       x2="-99.724236"
       y2="55.265369" /><linearGradient
       inkscape:collect="always"
       xlink:href="#linearGradient8"
       id="linearGradient9"
       x1="16.419926"
       y1="195.43658"
       x2="16.419926"
       y2="292.76071"
       gradientUnits="userSpaceOnUse"
       gradientTransform="matrix(0.86511667,0,0,0.86511667,58.76349,-33.405225)" /></defs><g
     inkscape:label="Layer 1"
     inkscape:groupmode="layer"
     id="layer1" /><g
     inkscape:groupmode="layer"
     id="layer2"
     inkscape:label="Layer 2"><g
       id="g11"
       transform="matrix(0.20272181,0,0,0.20272181,-14.663221,-30.260953)"><path
         id="path11"
         style="fill:url(#linearGradient9);fill-opacity:1;stroke:none;stroke-width:0.575303;stroke-dasharray:2.3012, 0.575303"
         d="m 103.68566,150.27455 a 30.717108,30.717108 0 0 0 -30.716987,30.7175 30.717108,30.717108 0 0 0 26.035103,30.33665 l 1.156004,-1.33067 -2.394171,-1.20922 v -1.64797 h 5.952611 5.95209 v 1.64797 l -2.39417,1.20922 1.14618,1.31879 a 30.717108,30.717108 0 0 0 25.98033,-30.32477 30.717108,30.717108 0 0 0 -30.71699,-30.7175 z" /><path
         id="path10"
         style="fill:#f9f9f9;stroke:none;stroke-width:0.26696px;stroke-linecap:butt;stroke-linejoin:miter;stroke-opacity:1"
         d="m 102.25807,155.11854 c 0,0 -2.08619,10.09181 -4.402831,14.67249 -2.311835,4.57116 -6.696232,7.75663 -6.696232,7.75663 0,0 3.661705,1.91064 5.325773,12.9589 1.664067,11.04826 1.396297,14.84716 1.396297,14.84716 h 5.804813 5.8043 c 0,0 -0.26777,-3.7989 1.39629,-14.84716 1.66407,-11.04826 5.32578,-12.9589 5.32578,-12.9589 0,0 -4.38388,-3.18547 -6.69572,-7.75663 -2.31664,-4.58068 -4.40283,-14.67249 -4.40283,-14.67249 v 23.2854 a 3.2656271,3.2656271 0 0 1 1.81849,2.92695 3.2656271,3.2656271 0 0 1 -3.26543,3.26544 3.2656271,3.2656271 0 0 1 -3.26595,-3.26544 3.2656271,3.2656271 0 0 1 1.85725,-2.94245 z" /></g></g></svg>
