<?xml version="1.0" encoding="UTF-8" standalone="no"?>
<!-- Created with Inkscape (http://www.inkscape.org/) -->

<svg
   width="120"
   height="120"
   viewBox="0 0 120 120"
   version="1.1"
   id="svg1"
   xml:space="preserve"
   inkscape:version="1.4.3 (0d15f75042, 2025-12-25)"
   sodipodi:docname="io.github.seja_arctic_fox.vidcom.svg"
   xmlns:inkscape="http://www.inkscape.org/namespaces/inkscape"
   xmlns:sodipodi="http://sodipodi.sourceforge.net/DTD/sodipodi-0.dtd"
   xmlns:xlink="http://www.w3.org/1999/xlink"
   xmlns="http://www.w3.org/2000/svg"
   xmlns:svg="http://www.w3.org/2000/svg"><sodipodi:namedview
     id="namedview1"
     pagecolor="#ffffff"
     bordercolor="#000000"
     borderopacity="0.25"
     inkscape:showpageshadow="2"
     inkscape:pageopacity="0.0"
     inkscape:pagecheckerboard="true"
     inkscape:deskcolor="#d1d1d1"
     inkscape:document-units="px"
     inkscape:zoom="4.1057471"
     inkscape:cx="32.393617"
     inkscape:cy="72.094066"
     inkscape:window-width="1920"
     inkscape:window-height="1013"
     inkscape:window-x="0"
     inkscape:window-y="0"
     inkscape:window-maximized="1"
     inkscape:current-layer="layer8" /><defs
     id="defs1"><inkscape:path-effect
       effect="skeletal"
       id="path-effect111"
       is_visible="true"
       lpeversion="1"
       pattern="M 0,0 H 3.105466 V 16.616451 H 0 Z"
       copytype="single_stretched"
       prop_scale="1"
       scale_y_rel="false"
       spacing="0"
       normal_offset="0"
       tang_offset="0"
       prop_units="false"
       vertical_pattern="false"
       hide_knot="false"
       fuse_tolerance="0" /><inkscape:path-effect
       effect="skeletal"
       id="path-effect110"
       is_visible="true"
       lpeversion="1"
       pattern="M 0,0 H 18.219794 V 16.616451 H 0 Z"
       copytype="single_stretched"
       prop_scale="1"
       scale_y_rel="false"
       spacing="0"
       normal_offset="0"
       tang_offset="0"
       prop_units="false"
       vertical_pattern="false"
       hide_knot="false"
       fuse_tolerance="0" /><inkscape:path-effect
       effect="skeletal"
       id="path-effect109"
       is_visible="false"
       lpeversion="1"
       pattern="M 0,0 H 1"
       copytype="single_stretched"
       prop_scale="1"
       scale_y_rel="false"
       spacing="0"
       normal_offset="0"
       tang_offset="0"
       prop_units="false"
       vertical_pattern="false"
       hide_knot="false"
       fuse_tolerance="0" /><inkscape:path-effect
       effect="skeletal"
       id="path-effect108"
       is_visible="true"
       lpeversion="1"
       pattern="M 0,0 H 1"
       copytype="single_stretched"
       prop_scale="1"
       scale_y_rel="false"
       spacing="0"
       normal_offset="0"
       tang_offset="0"
       prop_units="false"
       vertical_pattern="false"
       hide_knot="false"
       fuse_tolerance="0" /><inkscape:path-effect
       effect="skeletal"
       id="path-effect107"
       is_visible="true"
       lpeversion="1"
       pattern="M 0,0 14.944006,9.032822 H 0.066418 Z"
       copytype="single_stretched"
       prop_scale="1"
       scale_y_rel="false"
       spacing="0"
       normal_offset="0"
       tang_offset="0"
       prop_units="false"
       vertical_pattern="false"
       hide_knot="false"
       fuse_tolerance="0" /><inkscape:path-effect
       effect="skeletal"
       id="path-effect105"
       is_visible="true"
       lpeversion="1"
       pattern="M 0,0 14.944006,9.032822 H 0.066418 Z"
       copytype="single_stretched"
       prop_scale="1"
       scale_y_rel="false"
       spacing="0"
       normal_offset="0"
       tang_offset="0"
       prop_units="false"
       vertical_pattern="false"
       hide_knot="false"
       fuse_tolerance="0" /><inkscape:path-effect
       effect="skeletal"
       id="path-effect104"
       is_visible="true"
       lpeversion="1"
       pattern="M 3.097199,7.446678 18.041205,16.4795 H 3.163617 Z"
       copytype="repeated"
       prop_scale="0.356"
       scale_y_rel="true"
       spacing="0"
       normal_offset="0"
       tang_offset="0"
       prop_units="false"
       vertical_pattern="false"
       hide_knot="false"
       fuse_tolerance="0" /><linearGradient
       id="linearGradient57"
       inkscape:collect="always"><stop
         style="stop-color:#b6bbc2;stop-opacity:1;"
         offset="0"
         id="stop51" /><stop
         style="stop-color:#d8dce1;stop-opacity:1;"
         offset="0.4647513"
         id="stop56" /><stop
         style="stop-color:#b5bdc8;stop-opacity:1;"
         offset="1"
         id="stop57" /></linearGradient><linearGradient
       id="linearGradient50"
       inkscape:collect="always"><stop
         style="stop-color:#b6bbc2;stop-opacity:1;"
         offset="0"
         id="stop36" /><stop
         style="stop-color:#eeeff1;stop-opacity:1;"
         offset="0.4647513"
         id="stop44" /><stop
         style="stop-color:#76869d;stop-opacity:1;"
         offset="1"
         id="stop50" /></linearGradient><linearGradient
       id="linearGradient36"
       inkscape:collect="always"><stop
         style="stop-color:#b6bbc2;stop-opacity:1;"
         offset="0"
         id="stop33" /><stop
         style="stop-color:#d8dce1;stop-opacity:1;"
         offset="0.4647513"
         id="stop34" /><stop
         style="stop-color:#eeeff3;stop-opacity:1;"
         offset="1"
         id="stop35" /></linearGradient><linearGradient
       id="linearGradient32"
       inkscape:collect="always"><stop
         style="stop-color:#b6bbc2;stop-opacity:1;"
         offset="0"
         id="stop30" /><stop
         style="stop-color:#d8dce1;stop-opacity:1;"
         offset="0.4647513"
         id="stop31" /><stop
         style="stop-color:#808ea2;stop-opacity:1;"
         offset="1"
         id="stop32" /></linearGradient><linearGradient
       id="linearGradient9"
       inkscape:collect="always"><stop
         style="stop-color:#b6bbc2;stop-opacity:1;"
         offset="0"
         id="stop8" /><stop
         style="stop-color:#d8dce1;stop-opacity:1;"
         offset="0.4647513"
         id="stop10" /><stop
         style="stop-color:#a1acba;stop-opacity:1;"
         offset="1"
         id="stop9" /></linearGradient><linearGradient
       id="linearGradient98"
       inkscape:collect="always"><stop
         style="stop-color:#000000;stop-opacity:0;"
         offset="0"
         id="stop97" /><stop
         style="stop-color:#000000;stop-opacity:0.69602615;"
         offset="1"
         id="stop98" /></linearGradient><linearGradient
       id="linearGradient96"
       inkscape:collect="always"><stop
         style="stop-color:#c6cacf;stop-opacity:1;"
         offset="0"
         id="stop95" /><stop
         style="stop-color:#2c3135;stop-opacity:1;"
         offset="1"
         id="stop96" /></linearGradient><linearGradient
       id="linearGradient64"
       inkscape:collect="always"><stop
         style="stop-color:#ffffff;stop-opacity:1;"
         offset="0"
         id="stop64" /><stop
         style="stop-color:#000000;stop-opacity:0;"
         offset="1"
         id="stop65" /></linearGradient><linearGradient
       id="linearGradient61"
       inkscape:collect="always"><stop
         style="stop-color:#000000;stop-opacity:0.31111029;"
         offset="0"
         id="stop61" /><stop
         style="stop-color:#000000;stop-opacity:0;"
         offset="1"
         id="stop62" /></linearGradient><linearGradient
       id="linearGradient60"
       inkscape:collect="always"><stop
         style="stop-color:#81919b;stop-opacity:1;"
         offset="0"
         id="stop59" /><stop
         style="stop-color:#e8eaee;stop-opacity:1;"
         offset="1"
         id="stop60" /></linearGradient><linearGradient
       id="linearGradient55"
       inkscape:collect="always"><stop
         style="stop-color:#b8bcbe;stop-opacity:1;"
         offset="0"
         id="stop54" /><stop
         style="stop-color:#d1d5da;stop-opacity:1;"
         offset="1"
         id="stop55" /></linearGradient><linearGradient
       id="linearGradient52"
       inkscape:collect="always"><stop
         style="stop-color:#e5e7e9;stop-opacity:1;"
         offset="0"
         id="stop52" /><stop
         style="stop-color:#cfd3d7;stop-opacity:1;"
         offset="1"
         id="stop53" /></linearGradient><linearGradient
       id="linearGradient46"
       inkscape:collect="always"><stop
         style="stop-color:#9da7af;stop-opacity:1;"
         offset="0"
         id="stop45" /><stop
         style="stop-color:#919ba5;stop-opacity:1;"
         offset="0.25757557"
         id="stop47" /><stop
         style="stop-color:#cbd2d7;stop-opacity:1;"
         offset="0.45044905"
         id="stop49" /><stop
         style="stop-color:#788a94;stop-opacity:1;"
         offset="0.59888518"
         id="stop48" /><stop
         style="stop-color:#d2d8dd;stop-opacity:1;"
         offset="1"
         id="stop46" /></linearGradient><linearGradient
       id="linearGradient43"
       inkscape:collect="always"><stop
         style="stop-color:#b6bbc2;stop-opacity:1;"
         offset="0"
         id="stop42" /><stop
         style="stop-color:#d2d8dd;stop-opacity:1;"
         offset="1"
         id="stop43" /></linearGradient><linearGradient
       id="linearGradient40"
       inkscape:collect="always"><stop
         style="stop-color:#f0f2f2;stop-opacity:1;"
         offset="0"
         id="stop39" /><stop
         style="stop-color:#76808d;stop-opacity:1;"
         offset="0.21828574"
         id="stop41" /><stop
         style="stop-color:#d2d8dd;stop-opacity:1;"
         offset="1"
         id="stop40" /></linearGradient><linearGradient
       id="linearGradient38"
       inkscape:collect="always"><stop
         style="stop-color:#758793;stop-opacity:1;"
         offset="0"
         id="stop37" /><stop
         style="stop-color:#d2d8dd;stop-opacity:1;"
         offset="1"
         id="stop38" /></linearGradient><linearGradient
       id="linearGradient24"
       inkscape:collect="always"><stop
         style="stop-color:#b6bbc2;stop-opacity:1;"
         offset="0"
         id="stop23" /><stop
         style="stop-color:#d2d8dd;stop-opacity:1;"
         offset="1"
         id="stop24" /></linearGradient><linearGradient
       id="linearGradient21"
       inkscape:collect="always"><stop
         style="stop-color:#9da7af;stop-opacity:1;"
         offset="0"
         id="stop20" /><stop
         style="stop-color:#d2d8dd;stop-opacity:1;"
         offset="1"
         id="stop21" /></linearGradient><linearGradient
       id="linearGradient14"
       inkscape:collect="always"><stop
         style="stop-color:#000000;stop-opacity:1;"
         offset="0"
         id="stop14" /><stop
         style="stop-color:#505050;stop-opacity:1;"
         offset="1"
         id="stop15" /></linearGradient><linearGradient
       id="linearGradient5"
       inkscape:collect="always"><stop
         style="stop-color:#a88561;stop-opacity:1;"
         offset="0"
         id="stop5" /><stop
         style="stop-color:#896138;stop-opacity:1;"
         offset="1"
         id="stop6" /></linearGradient><linearGradient
       id="linearGradient3"
       inkscape:collect="always"><stop
         style="stop-color:#997853;stop-opacity:1;"
         offset="0"
         id="stop3" /><stop
         style="stop-color:#653e1b;stop-opacity:1;"
         offset="1"
         id="stop4" /></linearGradient><linearGradient
       inkscape:collect="always"
       xlink:href="#linearGradient3"
       id="linearGradient4"
       x1="77.991753"
       y1="55.565365"
       x2="56.266186"
       y2="71.98468"
       gradientUnits="userSpaceOnUse" /><linearGradient
       inkscape:collect="always"
       xlink:href="#linearGradient5"
       id="linearGradient6"
       x1="29.167063"
       y1="64.600487"
       x2="44.662064"
       y2="69.157837"
       gradientUnits="userSpaceOnUse" /><linearGradient
       inkscape:collect="always"
       xlink:href="#linearGradient14"
       id="linearGradient15"
       x1="47.27824"
       y1="46.013474"
       x2="50.329746"
       y2="44.889233"
       gradientUnits="userSpaceOnUse" /><linearGradient
       inkscape:collect="always"
       xlink:href="#linearGradient14"
       id="linearGradient16"
       gradientUnits="userSpaceOnUse"
       x1="46.097919"
       y1="46.319752"
       x2="58.800133"
       y2="45.079456"
       gradientTransform="translate(16.275845,9.3095299)" /><linearGradient
       inkscape:collect="always"
       xlink:href="#linearGradient14"
       id="linearGradient17"
       gradientUnits="userSpaceOnUse"
       gradientTransform="translate(16.275845,9.3095299)"
       x1="53.715054"
       y1="44.913506"
       x2="43.500626"
       y2="46.52866" /><linearGradient
       inkscape:collect="always"
       xlink:href="#linearGradient14"
       id="linearGradient18"
       gradientUnits="userSpaceOnUse"
       gradientTransform="translate(16.275845,9.3095299)"
       x1="46.097919"
       y1="46.319752"
       x2="58.800133"
       y2="45.079456" /><linearGradient
       inkscape:collect="always"
       xlink:href="#linearGradient14"
       id="linearGradient19"
       gradientUnits="userSpaceOnUse"
       gradientTransform="translate(16.275845,9.3095299)"
       x1="50.7542"
       y1="41.632885"
       x2="54.224163"
       y2="53.193035" /><linearGradient
       inkscape:collect="always"
       xlink:href="#linearGradient21"
       id="linearGradient20"
       gradientUnits="userSpaceOnUse"
       x1="58.082108"
       y1="43.768539"
       x2="56.533836"
       y2="43.719391" /><linearGradient
       inkscape:collect="always"
       xlink:href="#linearGradient24"
       id="linearGradient23"
       x1="48.862064"
       y1="45.177544"
       x2="52.528072"
       y2="45.076881"
       gradientUnits="userSpaceOnUse" /><filter
       inkscape:collect="always"
       style="color-interpolation-filters:sRGB"
       id="filter24"
       x="-0.017439795"
       y="-0.024948204"
       width="1.0348624"
       height="1.0531829"><feGaussianBlur
         inkscape:collect="always"
         stdDeviation="0.056786194"
         id="feGaussianBlur24" /></filter><linearGradient
       inkscape:collect="always"
       xlink:href="#linearGradient38"
       id="linearGradient26"
       gradientUnits="userSpaceOnUse"
       gradientTransform="matrix(0.41201142,1.0738329,-1.0738329,0.41201142,94.004195,-19.989623)"
       x1="53.617214"
       y1="39.280407"
       x2="55.618214"
       y2="45.195423" /><linearGradient
       inkscape:collect="always"
       xlink:href="#linearGradient24"
       id="linearGradient28"
       x1="69.893059"
       y1="48.589939"
       x2="69.324371"
       y2="57.719948"
       gradientUnits="userSpaceOnUse"
       gradientTransform="matrix(0.41201142,1.0738329,-1.0738329,0.41201142,97.29524,-41.302792)" /><linearGradient
       inkscape:collect="always"
       xlink:href="#linearGradient60"
       id="linearGradient29"
       gradientUnits="userSpaceOnUse"
       gradientTransform="matrix(-0.93413942,0.6924783,-0.6924783,-0.93413942,144.18364,77.335079)"
       x1="47.357479"
       y1="43.008141"
       x2="54.149467"
       y2="48.471733" /><linearGradient
       inkscape:collect="always"
       xlink:href="#linearGradient55"
       id="linearGradient31"
       x1="68.677292"
       y1="51.356445"
       x2="70.425316"
       y2="57.781265"
       gradientUnits="userSpaceOnUse"
       gradientTransform="matrix(-0.93413942,0.6924783,-0.6924783,-0.93413942,165.8342,74.760808)" /><linearGradient
       inkscape:collect="always"
       xlink:href="#linearGradient43"
       id="linearGradient33"
       x1="63.276295"
       y1="53.144474"
       x2="75.454147"
       y2="55.110252"
       gradientUnits="userSpaceOnUse"
       gradientTransform="matrix(-0.92025381,-0.71384415,0.71384415,-0.92025381,72.178671,171.20764)" /><linearGradient
       inkscape:collect="always"
       xlink:href="#linearGradient46"
       id="linearGradient34"
       gradientUnits="userSpaceOnUse"
       gradientTransform="matrix(-0.92025381,-0.71384415,0.71384415,-0.92025381,63.846316,151.02209)"
       x1="49.011158"
       y1="46.047974"
       x2="57.189404"
       y2="46.43541" /><linearGradient
       inkscape:collect="always"
       xlink:href="#linearGradient40"
       id="linearGradient35"
       gradientUnits="userSpaceOnUse"
       gradientTransform="matrix(0.25767116,-1.1478136,1.1478136,0.25767116,-25.050596,104.99075)"
       x1="59.345242"
       y1="42.614132"
       x2="48.514111"
       y2="44.270523" /><linearGradient
       inkscape:collect="always"
       xlink:href="#linearGradient24"
       id="linearGradient37"
       x1="72.716019"
       y1="55.830276"
       x2="64.520874"
       y2="54.670895"
       gradientUnits="userSpaceOnUse"
       gradientTransform="matrix(0.25767116,-1.1478136,1.1478136,0.25767116,-39.930017,121.27359)" /><filter
       inkscape:collect="always"
       style="color-interpolation-filters:sRGB"
       id="filter38"
       x="-0.028233096"
       y="-0.020352815"
       width="1.0541335"
       height="1.0407501"><feGaussianBlur
         inkscape:collect="always"
         stdDeviation="0.080351985"
         id="feGaussianBlur38" /></filter><filter
       inkscape:collect="always"
       style="color-interpolation-filters:sRGB"
       id="filter41"
       x="-0.04489324"
       y="-0.0290972"
       width="1.0901731"
       height="1.058185"><feGaussianBlur
         inkscape:collect="always"
         stdDeviation="0.13430812"
         id="feGaussianBlur41" /></filter><filter
       inkscape:collect="always"
       style="color-interpolation-filters:sRGB"
       id="filter49"
       x="-0.030130459"
       y="-0.032023615"
       width="1.0605513"
       height="1.0625771"><feGaussianBlur
         inkscape:collect="always"
         stdDeviation="0.10990894"
         id="feGaussianBlur49" /></filter><linearGradient
       inkscape:collect="always"
       xlink:href="#linearGradient52"
       id="linearGradient53"
       x1="32.859879"
       y1="59.039864"
       x2="72.136894"
       y2="70.337509"
       gradientUnits="userSpaceOnUse" /><linearGradient
       inkscape:collect="always"
       xlink:href="#linearGradient61"
       id="linearGradient62"
       x1="32.859879"
       y1="59.039864"
       x2="72.136894"
       y2="70.337509"
       gradientUnits="userSpaceOnUse" /><linearGradient
       inkscape:collect="always"
       xlink:href="#linearGradient64"
       id="linearGradient65"
       x1="34.569052"
       y1="59.039858"
       x2="75.515394"
       y2="59.039858"
       gradientUnits="userSpaceOnUse" /><filter
       inkscape:collect="always"
       style="color-interpolation-filters:sRGB"
       id="filter65"
       x="-0.017750083"
       y="-0.017227583"
       width="1.0354977"
       height="1.0344524"><feGaussianBlur
         inkscape:collect="always"
         stdDeviation="0.24464078"
         id="feGaussianBlur65" /></filter><filter
       inkscape:collect="always"
       style="color-interpolation-filters:sRGB"
       id="filter66"
       x="-0.026922357"
       y="-0.028551895"
       width="1.0531977"
       height="1.0555374"><feGaussianBlur
         inkscape:collect="always"
         stdDeviation="0.089704861"
         id="feGaussianBlur66" /></filter><linearGradient
       inkscape:collect="always"
       xlink:href="#linearGradient14"
       id="linearGradient78"
       gradientUnits="userSpaceOnUse"
       gradientTransform="rotate(-77.347504,53.791119,56.738638)"
       x1="50.7542"
       y1="41.632885"
       x2="54.224163"
       y2="53.193035" /><linearGradient
       inkscape:collect="always"
       xlink:href="#linearGradient14"
       id="linearGradient79"
       gradientUnits="userSpaceOnUse"
       gradientTransform="rotate(-142.19914,55.436587,58.744427)"
       x1="46.097919"
       y1="46.319752"
       x2="58.800133"
       y2="45.079456" /><linearGradient
       inkscape:collect="always"
       xlink:href="#linearGradient14"
       id="linearGradient80"
       gradientUnits="userSpaceOnUse"
       gradientTransform="rotate(143.45043,54.939969,60.20357)"
       x1="53.715054"
       y1="44.913506"
       x2="43.500626"
       y2="46.52866" /><linearGradient
       inkscape:collect="always"
       xlink:href="#linearGradient14"
       id="linearGradient81"
       gradientUnits="userSpaceOnUse"
       gradientTransform="rotate(69.009041,54.201063,61.631253)"
       x1="46.097919"
       y1="46.319752"
       x2="58.800133"
       y2="45.079456" /><linearGradient
       inkscape:collect="always"
       xlink:href="#linearGradient14"
       id="linearGradient82"
       gradientUnits="userSpaceOnUse"
       x1="47.27824"
       y1="46.013474"
       x2="50.329746"
       y2="44.889233"
       gradientTransform="translate(1.7956525,-0.74818851)" /><linearGradient
       inkscape:collect="always"
       xlink:href="#linearGradient60"
       id="linearGradient83"
       gradientUnits="userSpaceOnUse"
       gradientTransform="matrix(-0.93413942,0.6924783,-0.6924783,-0.93413942,145.97929,76.58689)"
       x1="47.357479"
       y1="43.008141"
       x2="54.149467"
       y2="48.471733" /><linearGradient
       inkscape:collect="always"
       xlink:href="#linearGradient55"
       id="linearGradient84"
       gradientUnits="userSpaceOnUse"
       gradientTransform="matrix(-0.93413942,0.6924783,-0.6924783,-0.93413942,167.62985,74.012619)"
       x1="68.677292"
       y1="51.356445"
       x2="70.425316"
       y2="57.781265" /><linearGradient
       inkscape:collect="always"
       xlink:href="#linearGradient46"
       id="linearGradient85"
       gradientUnits="userSpaceOnUse"
       gradientTransform="matrix(-0.92025381,-0.71384415,0.71384415,-0.92025381,65.641969,150.2739)"
       x1="49.011158"
       y1="46.047974"
       x2="57.189404"
       y2="46.43541" /><linearGradient
       inkscape:collect="always"
       xlink:href="#linearGradient43"
       id="linearGradient86"
       gradientUnits="userSpaceOnUse"
       gradientTransform="matrix(-0.92025381,-0.71384415,0.71384415,-0.92025381,73.974324,170.45945)"
       x1="63.276295"
       y1="53.144474"
       x2="75.454147"
       y2="55.110252" /><linearGradient
       inkscape:collect="always"
       xlink:href="#linearGradient40"
       id="linearGradient87"
       gradientUnits="userSpaceOnUse"
       gradientTransform="matrix(0.25767116,-1.1478136,1.1478136,0.25767116,-23.254943,104.24256)"
       x1="59.345242"
       y1="42.614132"
       x2="48.514111"
       y2="44.270523" /><linearGradient
       inkscape:collect="always"
       xlink:href="#linearGradient24"
       id="linearGradient88"
       gradientUnits="userSpaceOnUse"
       gradientTransform="matrix(0.25767116,-1.1478136,1.1478136,0.25767116,-38.134364,120.5254)"
       x1="72.716019"
       y1="55.830276"
       x2="64.520874"
       y2="54.670895" /><linearGradient
       inkscape:collect="always"
       xlink:href="#linearGradient38"
       id="linearGradient89"
       gradientUnits="userSpaceOnUse"
       gradientTransform="matrix(0.41201142,1.0738329,-1.0738329,0.41201142,95.799848,-20.737812)"
       x1="53.617214"
       y1="39.280407"
       x2="55.618214"
       y2="45.195423" /><linearGradient
       inkscape:collect="always"
       xlink:href="#linearGradient24"
       id="linearGradient90"
       gradientUnits="userSpaceOnUse"
       gradientTransform="matrix(0.41201142,1.0738329,-1.0738329,0.41201142,99.090893,-42.050981)"
       x1="69.893059"
       y1="48.589939"
       x2="69.324371"
       y2="57.719948" /><linearGradient
       inkscape:collect="always"
       xlink:href="#linearGradient21"
       id="linearGradient91"
       gradientUnits="userSpaceOnUse"
       x1="58.082108"
       y1="43.768539"
       x2="56.533836"
       y2="43.719391" /><linearGradient
       inkscape:collect="always"
       xlink:href="#linearGradient24"
       id="linearGradient92"
       gradientUnits="userSpaceOnUse"
       x1="48.862064"
       y1="45.177544"
       x2="52.528072"
       y2="45.076881" /><linearGradient
       inkscape:collect="always"
       xlink:href="#linearGradient64"
       id="linearGradient93"
       gradientUnits="userSpaceOnUse"
       x1="34.569052"
       y1="59.039858"
       x2="75.515394"
       y2="59.039858" /><linearGradient
       inkscape:collect="always"
       xlink:href="#linearGradient96"
       id="linearGradient94"
       gradientUnits="userSpaceOnUse"
       x1="32.859879"
       y1="59.039864"
       x2="72.136894"
       y2="70.337509"
       gradientTransform="translate(1.7956525,-0.74818851)" /><linearGradient
       inkscape:collect="always"
       xlink:href="#linearGradient98"
       id="linearGradient95"
       gradientUnits="userSpaceOnUse"
       x1="32.859879"
       y1="59.039864"
       x2="72.136894"
       y2="70.337509"
       gradientTransform="translate(1.7956525,-0.74818851)" /><linearGradient
       inkscape:collect="always"
       xlink:href="#linearGradient9"
       id="linearGradient2"
       x1="75.882622"
       y1="4.4435425"
       x2="77.934174"
       y2="4.4618664"
       gradientUnits="userSpaceOnUse" /><linearGradient
       inkscape:collect="always"
       xlink:href="#linearGradient21"
       id="linearGradient8"
       x1="77.240044"
       y1="9.2910328"
       x2="77.029266"
       y2="-1.6948642"
       gradientUnits="userSpaceOnUse" /><filter
       inkscape:collect="always"
       style="color-interpolation-filters:sRGB"
       id="filter10"
       x="-0.10531546"
       y="-0.016554871"
       width="1.2106309"
       height="1.0331097"><feGaussianBlur
         inkscape:collect="always"
         stdDeviation="0.073854286"
         id="feGaussianBlur10" /></filter><linearGradient
       inkscape:collect="always"
       xlink:href="#linearGradient57"
       id="linearGradient10"
       gradientUnits="userSpaceOnUse"
       x1="75.882622"
       y1="4.4435425"
       x2="77.934174"
       y2="4.4618664" /><linearGradient
       inkscape:collect="always"
       xlink:href="#linearGradient21"
       id="linearGradient11"
       gradientUnits="userSpaceOnUse"
       x1="80.345314"
       y1="-1.170584"
       x2="77.029266"
       y2="-1.6948642" /><linearGradient
       inkscape:collect="always"
       xlink:href="#linearGradient50"
       id="linearGradient12"
       gradientUnits="userSpaceOnUse"
       x1="78.398621"
       y1="3.7124672"
       x2="76.183037"
       y2="3.6789031" /><linearGradient
       inkscape:collect="always"
       xlink:href="#linearGradient21"
       id="linearGradient13"
       gradientUnits="userSpaceOnUse"
       x1="86.32946"
       y1="-1.5813806"
       x2="77.029266"
       y2="-1.6948642" /><linearGradient
       inkscape:collect="always"
       xlink:href="#linearGradient36"
       id="linearGradient22"
       gradientUnits="userSpaceOnUse"
       x1="75.882622"
       y1="4.4435425"
       x2="77.934174"
       y2="4.4618664" /><linearGradient
       inkscape:collect="always"
       xlink:href="#linearGradient21"
       id="linearGradient25"
       gradientUnits="userSpaceOnUse"
       x1="77.145309"
       y1="-2.2851567"
       x2="77.93782"
       y2="9.4661102" /><linearGradient
       inkscape:collect="always"
       xlink:href="#linearGradient32"
       id="linearGradient27"
       gradientUnits="userSpaceOnUse"
       x1="75.882622"
       y1="4.4435425"
       x2="78.068687"
       y2="4.4588032" /><linearGradient
       inkscape:collect="always"
       xlink:href="#linearGradient21"
       id="linearGradient30"
       gradientUnits="userSpaceOnUse"
       x1="77.240044"
       y1="9.2910328"
       x2="77.029266"
       y2="-1.6948642" /><mask
       maskUnits="userSpaceOnUse"
       id="mask98"><g
         id="g102"
         style="display:inline"><rect
           style="display:inline;fill:#ffffff;fill-opacity:1;stroke-width:0.0681202;stroke-dasharray:none"
           id="rect98"
           width="3.1054659"
           height="16.616451"
           x="42.863922"
           y="56.845757" /><rect
           style="fill:#000000;fill-opacity:1;stroke-width:0.165;stroke-dasharray:none"
           id="rect99"
           width="1.5619036"
           height="1.916672"
           x="43.645351"
           y="58.212067"
           ry="0.4928585" /><rect
           style="fill:#000000;fill-opacity:1;stroke-width:0.165;stroke-dasharray:none"
           id="rect100"
           width="1.5619036"
           height="1.916672"
           x="43.645351"
           y="62.212067"
           ry="0.4928585" /><rect
           style="fill:#000000;fill-opacity:1;stroke-width:0.165;stroke-dasharray:none"
           id="rect101"
           width="1.5619036"
           height="1.916672"
           x="43.645351"
           y="66.212067"
           ry="0.4928585" /><rect
           style="fill:#000000;fill-opacity:1;stroke-width:0.165;stroke-dasharray:none"
           id="rect102"
           width="1.5619036"
           height="1.916672"
           x="43.645351"
           y="70.212067"
           ry="0.4928585" /></g></mask><clipPath
       clipPathUnits="userSpaceOnUse"
       id="clipPath118"><rect
         style="fill:#ffffff;fill-opacity:1;stroke-width:1.08535"
         id="rect118"
         width="25.619631"
         height="42.760834"
         x="49.580441"
         y="64.141243" /></clipPath><clipPath
       clipPathUnits="userSpaceOnUse"
       id="clipPath119"><rect
         style="display:inline;fill:#ffffff;fill-opacity:1;stroke-width:1.48514"
         id="rect119"
         width="41.839256"
         height="49.027508"
         x="75.129562"
         y="64.141243" /></clipPath></defs><g
     inkscape:groupmode="layer"
     id="layer2"
     inkscape:label="krabice back"
     style="display:inline"
     transform="matrix(1.113573,0,0,1.113573,-4.592749,-16.128815)"><path
       style="display:inline;fill:#c29f79;fill-opacity:1"
       d="M 48.585549,49.422336 58.669015,33.839807 102.62072,46.154293 92.909293,63.474668 Z"
       id="path2"
       sodipodi:nodetypes="ccccc" /><path
       style="display:inline;opacity:1;fill:url(#linearGradient4);fill-opacity:1"
       d="M 48.657238,49.157827 48.757356,73.586563 92.60894,89.90576 92.909294,63.174315 Z"
       id="path3" /><path
       style="display:inline;fill:url(#linearGradient6);fill-opacity:1"
       d="M 48.707079,49.159792 22.526499,62.173137 22.006743,88.787439 48.857473,73.486446 Z"
       id="path4"
       sodipodi:nodetypes="ccccc" /><path
       style="fill:#c9ab8c;fill-opacity:1"
       d="M 48.715527,49.217617 38.925262,31.599024 12.65441,43.069396 22.422727,62.458025 Z"
       id="path6"
       sodipodi:nodetypes="ccccc" /></g><g
     inkscape:groupmode="layer"
     id="g77"
     inkscape:label="kotouč back"
     style="display:inline;opacity:1"
     transform="matrix(1.113573,0,0,1.113573,-4.592749,-16.128815)"><path
       style="display:inline;fill:url(#linearGradient94);fill-opacity:1;stroke:url(#linearGradient95);stroke-width:0.302362;stroke-dasharray:none"
       d="M 54.948255,35.437133 C 76.763328,36.822217 79.162776,55.758731 79.01409,62.100002 78.95266,64.719851 76.592883,80.990183 58.757236,81.144907 35.844702,81.343673 34.6914,58.810426 34.6914,58.810426 c 0,0 -1.80846,-22.814636 20.256855,-23.373293 z"
       id="path66"
       sodipodi:nodetypes="csscc" /><path
       style="display:inline;opacity:1;mix-blend-mode:normal;fill:none;fill-opacity:1;stroke:url(#linearGradient93);stroke-width:0.279065;stroke-dasharray:none;filter:url(#filter65)"
       d="M 53.298196,37.946288 C 73.43239,39.22465 75.646957,56.702082 75.509728,62.55475 75.453033,64.972736 73.275078,79.989418 56.81369,80.132221 35.666596,80.315671 34.602157,59.51864 34.602157,59.51864 c 0,0 -1.669116,-21.05674 18.696039,-21.572352 z"
       id="path67"
       sodipodi:nodetypes="csscc"
       transform="matrix(0.99566808,0,0,0.99566808,2.0340905,-0.49243308)" /><path
       style="display:inline;opacity:1;mix-blend-mode:normal;fill:url(#linearGradient91);fill-opacity:1;stroke:url(#linearGradient92);stroke-width:0.211043;stroke-dasharray:none;filter:url(#filter24)"
       d="m 51.905719,40.482749 c 2.163033,-0.0123 4.472795,0.200977 6.332214,0.977478 1.184688,0.494731 0.571178,1.807161 0.571178,1.807161 l -3.453716,6.907433 c 0,0 -0.863429,-0.383747 -2.398414,-0.383747 -1.534985,0 -2.431934,0.364097 -2.431934,0.364097 0,0 -5.21525,-5.881027 -5.363201,-6.546803 -0.14795,-0.665777 -0.08471,-1.326899 0.345516,-1.556535 1.494832,-0.797875 4.235324,-1.556786 6.398357,-1.569084 z"
       id="path68"
       sodipodi:nodetypes="zsccscssz"
       transform="matrix(1.1640718,0,0,1.1640718,-6.7408133,-8.1853228)" /><path
       style="display:inline;opacity:1;mix-blend-mode:normal;fill:url(#linearGradient89);fill-opacity:1;stroke:url(#linearGradient90);stroke-width:0.28256;stroke-dasharray:none;filter:url(#filter38)"
       d="m 73.841901,52.40501 c 0.904403,2.317669 1.88305,5.82459 1.81532,8.141222 -0.04315,1.475992 -2.089292,1.059228 -2.089292,1.059228 l -8.413694,-2.484251 c 0,0 -0.37037,-0.829263 -1.002801,-2.47758 -0.632431,-1.648318 -1.392964,-2.461479 -1.392964,-2.461479 0,0 4.166497,-8.023357 4.820473,-8.456538 0.653976,-0.433182 1.389965,-0.637663 1.813815,-0.270285 1.472672,1.276466 3.544741,4.632016 4.44914,6.949685 z"
       id="path69"
       sodipodi:nodetypes="zsccscssz" /><path
       style="display:inline;opacity:1;mix-blend-mode:normal;fill:url(#linearGradient87);fill-opacity:1;stroke:url(#linearGradient88);stroke-width:0.289;stroke-dasharray:none;filter:url(#filter41)"
       d="m 39.791328,47.103065 c 0.873119,-1.232323 2.406631,-0.01972 2.406631,-0.01972 l 5.811234,6.745787 c 0,0 -0.07226,0.69654 -0.46778,2.458417 -0.395521,1.761877 -0.263581,3.132082 -0.263581,3.132082 0,0 -7.051852,3.181616 -7.854161,3.179885 -0.802311,-0.0017 -1.57229,-0.765817 -1.725013,-1.318807 -0.530636,-1.921378 0.722273,-12.243456 2.09267,-14.177641 z"
       id="path70"
       sodipodi:nodetypes="sccscsss" /><path
       style="display:inline;opacity:1;mix-blend-mode:normal;fill:url(#linearGradient85);stroke:url(#linearGradient86);stroke-width:0.286122;stroke-dasharray:none;filter:url(#filter49)"
       d="m 47.069945,74.509696 c -1.99932,-1.532749 -3.763637,-2.80737 -4.920471,-4.849287 -0.737053,-1.30096 0.54768,-2.095051 0.54768,-2.095051 L 49.875399,64.8679 c 0,0 0.945957,0.768274 2.358532,1.864014 1.412576,1.09574 2.525062,1.373805 2.525062,1.373805 0,0 0.791305,9.080602 0.452197,9.798899 -0.33911,0.718297 -2.188744,-0.126153 -2.705394,-0.362099 -1.918027,-0.87594 -2.296,-1.092745 -4.485406,-2.435408 -2.189407,-1.342662 -0.950447,-0.597413 -0.950447,-0.597413 z"
       id="path71"
       sodipodi:nodetypes="zsccscsszz" /><path
       style="display:inline;opacity:1;mix-blend-mode:normal;fill:url(#linearGradient83);fill-opacity:1;stroke:url(#linearGradient84);stroke-width:0.285668;stroke-dasharray:none;filter:url(#filter66)"
       d="m 68.7869,75.035329 c -2.012057,1.509344 -2.987975,2.268256 -5.262639,2.830505 -1.449254,0.358223 -2.278709,-0.619004 -2.278709,-0.619004 l -1.023866,-9.166999 c 0,0 0.975629,-0.52247 2.257307,-1.764723 1.267914,-1.22892 1.5715,-1.592641 1.5715,-1.592641 0,0 8.408981,2.328313 9.008223,2.847787 0.599242,0.519477 1.002119,1.348909 0.759257,1.861335 -0.843871,1.780465 -3.019013,4.094401 -5.031071,5.603742 z"
       id="path72"
       sodipodi:nodetypes="zsccscsszz" /><path
       style="mix-blend-mode:normal;fill:url(#linearGradient82);fill-opacity:1;stroke-width:1.00157;stroke-dasharray:none"
       d="m 53.701372,39.73456 c 2.163033,-0.0123 4.472795,0.200977 6.332214,0.977478 1.184688,0.494731 0.571178,1.807161 0.571178,1.807161 l -3.453716,6.907433 c 0,0 -0.863429,-0.383747 -2.398414,-0.383747 -1.534985,0 -2.431934,0.364097 -2.431934,0.364097 0,0 -5.21525,-5.881027 -5.363201,-6.546803 -0.14795,-0.665777 -0.08471,-1.326899 0.345516,-1.556535 1.494832,-0.797875 4.235324,-1.556786 6.398357,-1.569084 z"
       id="path73"
       sodipodi:nodetypes="zsccscssz" /><path
       style="mix-blend-mode:normal;fill:url(#linearGradient81);fill-opacity:1;stroke-width:1.00157;stroke-dasharray:none"
       d="m 73.235147,52.543097 c 0.786327,2.015082 1.637206,5.064151 1.578318,7.078332 -0.03752,1.283291 -1.816521,0.920938 -1.816521,0.920938 l -7.315231,-2.159916 c 0,0 -0.322016,-0.720996 -0.871879,-2.154115 C 64.25997,54.795217 63.59873,54.08822 63.59873,54.08822 c 0,0 3.622534,-6.975856 4.191128,-7.352483 0.568596,-0.376627 1.208497,-0.554411 1.57701,-0.234997 1.280405,1.109816 3.081952,4.027276 3.868277,6.042358 z"
       id="path74"
       sodipodi:nodetypes="zsccscssz" /><path
       style="mix-blend-mode:normal;fill:url(#linearGradient80);fill-opacity:1;stroke-width:1.00157;stroke-dasharray:none"
       d="m 68.543886,74.515569 c -1.73033,1.298006 -2.569601,1.950656 -4.525769,2.43418 -1.246331,0.308065 -1.959645,-0.532332 -1.959645,-0.532332 l -0.880506,-7.883443 c 0,0 0.839023,-0.449314 1.941241,-1.517627 1.090381,-1.056848 1.35146,-1.369641 1.35146,-1.369641 0,0 7.231562,2.002304 7.746898,2.449042 0.515337,0.44674 0.861803,1.160036 0.652946,1.600712 -0.725712,1.531166 -2.596293,3.521106 -4.326624,4.819111 z"
       id="path75"
       sodipodi:nodetypes="zsccscsszz" /><path
       style="mix-blend-mode:normal;fill:url(#linearGradient79);fill-opacity:1;stroke-width:1.00157;stroke-dasharray:none"
       d="m 47.287745,74.086762 c -1.716651,-1.316046 -3.231524,-2.410457 -4.224801,-4.163682 -0.632847,-1.117027 0.470247,-1.798847 0.470247,-1.798847 l 6.163365,-2.316084 c 0,0 0.812215,0.659653 2.025077,1.600474 1.212862,0.940822 2.168061,1.179573 2.168061,1.179573 0,0 0.679428,7.796762 0.388265,8.413504 -0.291166,0.616742 -1.879293,-0.108317 -2.322898,-0.310905 -1.646851,-0.752097 -1.971386,-0.938249 -3.851247,-2.091082 -1.879863,-1.152834 -0.816071,-0.51295 -0.816071,-0.51295 z"
       id="path76"
       sodipodi:nodetypes="zsccscsszz" /><path
       style="mix-blend-mode:normal;fill:url(#linearGradient78);fill-opacity:1;stroke-width:1.00157;stroke-dasharray:none"
       d="m 40.241482,48.223336 c 0.742208,-1.047555 2.045794,-0.01677 2.045794,-0.01677 l 4.939928,5.734359 c 0,0 -0.06142,0.592105 -0.397644,2.089815 -0.336219,1.49771 -0.224061,2.662475 -0.224061,2.662475 0,0 -5.994534,2.704581 -6.67655,2.703109 -0.682016,-0.0015 -1.336549,-0.650995 -1.466373,-1.121072 -0.451076,-1.633297 0.613979,-10.407737 1.778906,-12.05192 z"
       id="path77"
       sodipodi:nodetypes="sccscsss" /></g><g
     style="display:inline;opacity:1"
     inkscape:label="filmové okénko"
     id="g2105"
     clip-path="url(#clipPath118)"
     transform="matrix(1.113573,0,0,1.113573,-4.592749,-16.128815)"><path
       d="m 57.5276,95.5218 h 3.6118 l 0.1966,3.2704 h -3.6118 z m -0.3848,-3.2869 h 3.6118 l 0.3848,3.2869 h -3.6118 z m -0.1174,-3.3051 h 3.6118 l 0.1174,3.3051 h -3.6118 z m 0.3949,-3.2801 h 3.6118 l -0.3949,3.28 h -3.6118 z m 1.1488,-3.0916 h 3.6118 l -1.1488,3.0915 h -3.6118 z m 1.9321,-2.6777 h 3.6118 l -1.9321,2.6777 h -3.6118 z m 2.3921,-2.2819 h 3.6118 l -2.3921,2.2819 h -3.6118 z m 2.6792,-1.9402 h 3.6118 l -2.6791,1.9402 h -3.6118 z m 2.8431,-1.6925 h 3.6118 l -2.8431,1.6925 h -3.6118 z m 2.9146,-1.5621 h 3.6118 l -2.9146,1.5621 h -3.6118 z m 3.2107,-0.723 h 3.6118 l -3.2106,0.723 h -3.6118 z m 3.2754,0.3685 h 3.6118 L 78.1528,71.6807 H 74.541 Z m 2.9057,1.4763 h 3.6118 l -2.9057,-1.4763 h -3.6118 z m 2.1252,2.5289 h 3.6118 l -2.1251,-2.5289 h -3.6118 z m 1.6807,2.8487 h 3.6118 L 86.459,76.0544 h -3.6118 z m 1.2608,3.0567 h 3.6118 L 88.1398,78.9032 H 84.528 Z m 0.6817,3.2293 h 3.6118 l -0.6817,-3.2293 h -3.6118 z m -0.3929,3.2539 h 3.6118 l 0.3929,-3.2539 h -3.6118 z m -1.5928,2.8916 h 3.6118 l 1.5928,-2.8915 h -3.6118 z m -1.9676,2.6616 h 3.6118 l 1.9676,-2.6616 h -3.6118 z m -1.9014,2.7075 h 3.6118 l 1.9014,-2.7075 h -3.6118 z m -1.2897,3.0288 h 3.6118 l 1.2897,-3.0287 h -3.6118 z m 0.3103,3.2475 h 3.6118 L 82.9378,99.7326 H 79.326 Z m 1.0247,3.147 h 3.6118 l -1.0247,-3.147 h -3.6118 z m 1.3555,3.011 h 3.6118 l -1.3555,-3.011 H 80.661 Z m 2.495,2.074 h 3.6118 l -2.495,-2.074 h -3.6118 z m 3.2702,0.296 h 3.6118 l -3.2701,-0.296 h -3.6118 z m 3.2773,-0.456 h 3.6118 l -3.2773,0.456 h -3.6118 z m 3.2244,-0.739 h 3.6118 l -3.2243,0.739 h -3.6118 z m 3.0999,-1.152 h 3.6117 l -3.0997,1.152 h -3.6118 z m 2.8517,-1.668 h 3.611 l -2.851,1.668 h -3.6117 z m 2.372,-2.291 h 3.612 l -2.373,2.29 h -3.611 z m 1.468,-2.945 h 3.612 l -1.468,2.945 h -3.612 z m 0.347,-3.2714 h 3.611 l -0.346,3.2714 h -3.612 z m -0.937,-3.1442 h 3.612 l 0.936,3.1441 h -3.612 z m -2.197,-2.4536 h 3.612 l 2.197,2.4535 h -3.612 z m -2.6461,-1.9681 h 3.6121 l 2.646,1.968 h -3.612 z"
       style="fill:#180a06;fill-opacity:0.623886;stroke-width:0.165"
       id="path6047" /><path
       d="m 56.923,95.5218 h 0.6156 l 0.1966,3.2704 h -0.6156 z m -0.3848,-3.2869 h 0.6156 l 0.3848,3.2869 H 56.923 Z m -0.1174,-3.3051 h 0.6156 l 0.1174,3.3051 h -0.6156 z m 0.3949,-3.2801 h 0.6156 l -0.3949,3.28 h -0.6156 z m 1.1488,-3.0916 h 0.6156 l -1.1488,3.0915 h -0.6156 z m 1.9321,-2.6777 h 0.6156 l -1.9321,2.6777 h -0.6156 z m 2.3921,-2.2819 h 0.6156 l -2.3921,2.2819 h -0.6156 z m 2.6792,-1.9402 h 0.6156 l -2.6791,1.9402 h -0.6156 z m 2.8431,-1.6925 h 0.6156 l -2.8431,1.6925 h -0.6156 z m 2.9146,-1.5621 h 0.6156 l -2.9146,1.5621 H 67.811 Z m 3.2107,-0.723 h 0.6156 l -3.2106,0.723 h -0.6156 z m 3.2754,0.3685 h 0.6156 L 74.552,71.6807 h -0.6156 z m 2.9057,1.4763 h 0.6156 l -2.9057,-1.4763 h -0.6156 z m 2.1252,2.5289 h 0.6156 l -2.1251,-2.5289 h -0.6156 z m 1.6807,2.8487 h 0.6156 l -1.6807,-2.8487 h -0.6156 z m 1.2608,3.0567 h 0.6156 L 84.539,78.9032 h -0.6156 z m 0.6817,3.2293 h 0.6156 l -0.6817,-3.2293 h -0.6156 z m -0.3929,3.2539 h 0.6156 l 0.3929,-3.2539 h -0.6156 z m -1.5928,2.8916 h 0.6156 l 1.5928,-2.8915 h -0.6156 z m -1.9676,2.6616 h 0.6156 l 1.9676,-2.6616 h -0.6156 z m -1.9014,2.7075 h 0.6156 l 1.9014,-2.7075 h -0.6156 z m -1.2897,3.0288 h 0.6156 l 1.2897,-3.0287 h -0.6156 z m 0.3103,3.2475 h 0.6156 L 79.337,99.7326 h -0.6156 z m 1.0247,3.147 h 0.6156 l -1.0247,-3.147 h -0.6156 z m 1.3555,3.011 h 0.6156 l -1.3555,-3.011 h -0.6156 z m 2.495,2.074 h 0.6156 l -2.495,-2.074 h -0.6156 z m 3.2702,0.296 h 0.6156 l -3.2701,-0.296 H 83.907 Z m 3.2773,-0.456 H 91.07 l -3.2773,0.456 h -0.6156 z m 3.2244,-0.739 h 0.6156 l -3.2243,0.739 h -0.6156 z m 3.0999,-1.152 h 0.6156 l -3.0998,1.152 h -0.6156 z m 2.8512,-1.668 h 0.6161 l -2.8517,1.668 h -0.6156 z m 2.3721,-2.291 h 0.616 l -2.372,2.29 h -0.6161 z m 1.469,-2.945 h 0.615 l -1.468,2.945 h -0.616 z m 0.346,-3.2714 h 0.616 l -0.347,3.2714 h -0.615 z m -0.936,-3.1442 h 0.615 l 0.936,3.1441 h -0.615 z m -2.197,-2.4536 h 0.615 l 2.197,2.4535 h -0.615 z m -2.6467,-1.9681 h 0.6156 l 2.6461,1.968 h -0.615 z"
       style="fill:#1e1e1e;stroke-width:0.0681202"
       id="path9145" /><path
       d="m 61.135,95.5218 h 0.6156 l 0.1966,3.2704 h -0.6156 z m -0.3848,-3.2869 h 0.6156 l 0.3848,3.2869 H 61.135 Z m -0.1174,-3.3051 h 0.6156 l 0.1174,3.3051 h -0.6156 z m 0.3949,-3.2801 h 0.6156 l -0.3949,3.28 h -0.6156 z m 1.1488,-3.0916 h 0.6156 l -1.1488,3.0915 h -0.6156 z m 1.9321,-2.6777 h 0.6156 l -1.9321,2.6777 h -0.6156 z m 2.3921,-2.2819 h 0.6156 l -2.3921,2.2819 h -0.6156 z m 2.6792,-1.9402 h 0.6156 l -2.6791,1.9402 h -0.6156 z m 2.8431,-1.6925 h 0.6156 l -2.8431,1.6925 h -0.6156 z m 2.9146,-1.5621 h 0.6156 l -2.9146,1.5621 H 72.023 Z m 3.2107,-0.723 h 0.6156 l -3.2106,0.723 h -0.6156 z m 3.2754,0.3685 h 0.6156 L 78.764,71.6807 h -0.6156 z m 2.9057,1.4763 h 0.6156 l -2.9057,-1.4763 h -0.6156 z m 2.1252,2.5289 h 0.6156 l -2.1251,-2.5289 h -0.6156 z m 1.6807,2.8487 h 0.6156 l -1.6807,-2.8487 h -0.6156 z m 1.2608,3.0567 h 0.6156 L 88.751,78.9032 h -0.6156 z m 0.6817,3.2293 h 0.6156 l -0.6817,-3.2293 h -0.6156 z m -0.3929,3.2539 h 0.6156 l 0.3929,-3.2539 h -0.6156 z m -1.5928,2.8916 h 0.6156 l 1.5928,-2.8915 h -0.6156 z m -1.9676,2.6616 h 0.6156 l 1.9676,-2.6616 h -0.6156 z m -1.9014,2.7075 h 0.6156 l 1.9014,-2.7075 h -0.6156 z m -1.2897,3.0288 h 0.6156 l 1.2897,-3.0287 h -0.6156 z m 0.3103,3.2475 h 0.6156 L 83.549,99.7326 h -0.6156 z m 1.0247,3.147 h 0.6156 l -1.0247,-3.147 h -0.6156 z m 1.3555,3.011 h 0.6156 l -1.3555,-3.011 h -0.6156 z m 2.495,2.074 h 0.6156 l -2.495,-2.074 h -0.6156 z m 3.2702,0.296 h 0.6156 l -3.2701,-0.296 H 88.119 Z m 3.2773,-0.456 h 0.6156 l -3.2773,0.456 h -0.6156 z m 3.2244,-0.739 h 0.6156 l -3.2243,0.739 h -0.6156 z m 3.1002,-1.152 h 0.615 l -3.0995,1.152 h -0.6156 z m 2.851,-1.668 h 0.616 l -2.852,1.668 h -0.615 z m 2.372,-2.291 h 0.616 l -2.372,2.29 h -0.616 z m 1.469,-2.945 h 0.615 l -1.468,2.945 h -0.616 z m 0.346,-3.2714 h 0.616 l -0.347,3.2714 h -0.615 z m -0.936,-3.1442 h 0.615 l 0.936,3.1441 h -0.615 z m -2.197,-2.4536 h 0.615 l 2.197,2.4535 h -0.615 z m -2.647,-1.9681 h 0.616 l 2.646,1.968 h -0.615 z"
       style="fill:#1e1e1e;stroke-width:0.0681202"
       id="path5405" /><path
       d="m 57.7441,96.9908 2.9646,1.7773 -2.9494,10e-5 z m -0.4451,-3.2803 3.1965,1.7842 -2.9493,1e-4 z m -0.2676,-3.2978 3.0811,1.7949 -2.9493,1e-4 z m 0.1361,-3.3041 2.8306,1.7938 -2.9493,1e-4 z m 0.7851,-3.207 2.4463,1.7216 h -2.9493 z m 1.6212,-2.8726 1.9799,1.5049 -2.9493,1e-4 z m 2.2094,-2.4578 1.708,1.2887 -2.9494,1e-4 z m 2.5674,-2.0862 1.5359,1.0963 -2.9494,1e-4 z m 2.7831,-1.7893 1.4334,0.9475 -2.9493,1e-4 z m 2.8843,-1.6231 1.3934,0.8801 -2.9494,1e-4 z m 3.0637,-1.2061 1.2452,0.5257 -2.9494,1e-4 z m 3.2901,-0.1055 1.1683,-0.0814 h -2.9494 z m 3.1802,0.8726 1.2627,-0.5779 h -2.9494 z m 2.4146,2.2348 1.7478,-1.3248 -2.9494,-1e-4 z m 1.8627,2.7317 2.0047,-1.5229 -2.9493,-1e-4 z m 1.4597,2.9672 2.2235,-1.6399 -2.9494,-1e-4 z m 0.9841,3.1547 2.496,-1.7362 -2.9494,-1e-4 z m 0.1841,3.2884 2.9871,-1.794 -2.9493,-10e-5 z m -1.1678,3.0729 3.75,-1.6148 -2.9493,-1e-4 z m -1.8656,2.7315 4.0174,-1.4576 h -2.9493 z m -1.9841,2.6498 4.0327,-1.4466 -2.9493,-1e-4 z m -1.6582,2.857 3.7923,-1.5942 -2.9493,-1e-4 z m -0.5133,3.2264 3.024,-1.7887 -2.9492,-10e-5 z m 0.943,3.169 2.4054,-1.711 -2.9493,-0.001 z m 1.1165,3.114 2.3136,-1.678 H 80.692 Z m 1.9004,2.669 1.7743,-1.339 h -2.9493 z m 3.0814,1.048 1.1994,-0.326 h -2.9494 z m 3.2954,-0.257 1.1758,0.214 h -2.9494 z m 3.251,-0.611 1.2019,0.367 h -2.9494 z m 3.1696,-0.944 1.2559,0.569 H 94.332 Z m 2.9833,-1.424 1.3712,0.838 h -2.9494 z m 2.6252,-2.001 1.594,1.165 h -2.949 z m 1.921,-2.671 2.039,1.54 h -2.949 z m 0.867,-3.174 2.632,1.765 h -2.949 z m -0.334,-3.2694 3.303,1.7617 -2.949,1e-4 z m -1.715,-2.7873 4.071,1.4079 -2.949,1e-4 z m -2.472,-2.1978 4.339,1.158 -2.949,1e-4 z"
       style="fill:#180a06;fill-opacity:0.455536;stroke-width:0.165;stroke-dasharray:none"
       id="path7259" /><path
       d="m 58.286,98.7682 2.945,-2.5506 0.1035,2.5622 z m -0.2131,-3.2734 2.7277,-2.5593 0.3288,2.5724 z m -0.383,-3.2871 2.9213,-2.5755 0.1343,2.5886 z m -0.1144,-3.3052 3.3137,-2.5639 -0.2596,2.577 z m 0.4008,-3.2793 3.8784,-2.4387 -0.8271,2.4515 z m 1.1548,-3.0892 4.5091,-2.1267 -1.4607,2.1384 z m 1.9374,-2.674 4.8932,-1.8067 -1.8473,1.8166 z m 2.3953,-2.2786 5.1265,-1.5353 -2.0822,1.5435 z m 2.6807,-1.9381 5.2572,-1.3423 -2.2136,1.3495 z m 2.8442,-1.6905 5.3077,-1.2542 -2.2646,1.2605 z m 2.9155,-1.5605 5.5413,-0.6516 -2.4987,0.6571 z m 3.2132,-0.7127 5.6182,0.211 -2.5768,-0.2105 z m 3.2746,0.3761 5.4039,1.0088 -2.3621,-1.012 z m 2.8997,1.4878 4.7463,1.9424 -1.7016,-1.9511 z m 2.1197,2.5336 4.3935,2.2039 -1.3462,-2.2148 z m 1.6784,2.8502 4.0823,2.3652 -1.0338,-2.3769 z m 1.2566,3.0584 3.6542,2.5054 -0.6037,-2.5179 z m 0.6753,3.2306 2.8769,2.5589 0.1767,-2.572 z m -0.4049,3.2521 1.8665,2.2848 1.1929,-2.297 z m -1.5982,2.8888 1.5274,2.0793 1.5346,-2.0902 z m -1.9688,2.6607 1.5477,2.0938 1.5149,-2.1043 z m -1.8986,2.7094 1.9524,2.3249 1.1088,-2.3363 z m -1.2815,3.0319 3.1602,2.5498 -0.1029,-2.5626 z m 0.3243,3.2458 3.8533,2.454 -0.8028,-2.466 z m 1.0247,3.148 4.0454,2.379 -0.9949,-2.391 z m 1.3611,3.008 4.8937,1.768 -1.8459,-1.779 z m 2.5064,2.061 5.5976,0.321 -2.5553,-0.326 z m 3.2718,0.283 5.6129,-0.331 -2.5714,0.333 z m 3.2771,-0.458 5.5734,-0.552 -2.5318,0.554 z m 3.2236,-0.742 5.4873,-0.857 -2.4453,0.861 z m 3.0986,-1.155 5.3057,-1.255 -2.263,1.261 z m 2.8477,-1.674 4.96,-1.731 -1.915,1.739 z m 2.367,-2.296 4.283,-2.257 -1.236,2.268 z m 1.46,-2.949 3.42,-2.544 -0.369,2.557 z m 0.336,-3.2726 2.439,-2.4914 0.617,2.5045 z m -0.946,-3.1411 1.384,-1.9507 1.677,1.9623 z m -2.205,-2.4477 1.042,-1.6095 2.023,1.6182 z"
       style="fill:#180a06;fill-opacity:0.455536;stroke-width:0.165;stroke-dasharray:none"
       id="path3274" /></g><g
     inkscape:groupmode="layer"
     id="layer4"
     inkscape:label="kotouč front"
     style="display:inline;opacity:1"
     transform="matrix(1.113573,0,0,1.113573,-4.592749,-16.128815)"><path
       style="display:inline;fill:url(#linearGradient53);fill-opacity:1;stroke:url(#linearGradient62);stroke-width:0.302362;stroke-dasharray:none"
       d="M 53.152602,36.185322 C 74.967675,37.570406 77.367123,56.50692 77.218437,62.848191 77.157009,65.46804 74.79723,81.738372 56.961583,81.893096 34.049049,82.091862 32.895747,59.558615 32.895747,59.558615 c 0,0 -1.80846,-22.814636 20.256855,-23.373293 z"
       id="path13"
       sodipodi:nodetypes="csscc"
       sodipodi:insensitive="true" /><path
       style="display:inline;opacity:1;mix-blend-mode:normal;fill:none;fill-opacity:1;stroke:url(#linearGradient65);stroke-width:0.279065;stroke-dasharray:none;filter:url(#filter65)"
       d="M 53.298196,37.946288 C 73.43239,39.22465 75.646957,56.702082 75.509728,62.55475 75.453033,64.972736 73.275078,79.989418 56.81369,80.132221 35.666596,80.315671 34.602157,59.51864 34.602157,59.51864 c 0,0 -1.669116,-21.05674 18.696039,-21.572352 z"
       id="path62"
       sodipodi:nodetypes="csscc"
       transform="matrix(0.99566808,0,0,0.99566808,0.23843806,0.25575543)"
       sodipodi:insensitive="true" /><path
       style="display:inline;opacity:1;mix-blend-mode:normal;fill:url(#linearGradient20);fill-opacity:1;stroke:url(#linearGradient23);stroke-width:0.211043;stroke-dasharray:none;filter:url(#filter24)"
       d="m 51.905719,40.482749 c 2.163033,-0.0123 4.472795,0.200977 6.332214,0.977478 1.184688,0.494731 0.571178,1.807161 0.571178,1.807161 l -3.453716,6.907433 c 0,0 -0.863429,-0.383747 -2.398414,-0.383747 -1.534985,0 -2.431934,0.364097 -2.431934,0.364097 0,0 -5.21525,-5.881027 -5.363201,-6.546803 -0.14795,-0.665777 -0.08471,-1.326899 0.345516,-1.556535 1.494832,-0.797875 4.235324,-1.556786 6.398357,-1.569084 z"
       id="path20"
       sodipodi:nodetypes="zsccscssz"
       transform="matrix(1.1640718,0,0,1.1640718,-8.5364658,-7.4371343)"
       sodipodi:insensitive="true" /><path
       style="display:inline;opacity:1;mix-blend-mode:normal;fill:url(#linearGradient26);fill-opacity:1;stroke:url(#linearGradient28);stroke-width:0.28256;stroke-dasharray:none;filter:url(#filter38)"
       d="m 72.046248,53.153199 c 0.904403,2.317669 1.88305,5.82459 1.81532,8.141222 -0.04315,1.475992 -2.089292,1.059228 -2.089292,1.059228 l -8.413694,-2.484251 c 0,0 -0.37037,-0.829263 -1.002801,-2.47758 -0.632431,-1.648318 -1.392964,-2.461479 -1.392964,-2.461479 0,0 4.166497,-8.023357 4.820473,-8.456538 0.653976,-0.433182 1.389965,-0.637663 1.813815,-0.270285 1.472672,1.276466 3.544741,4.632016 4.44914,6.949685 z"
       id="path26"
       sodipodi:nodetypes="zsccscssz"
       sodipodi:insensitive="true" /><path
       style="display:inline;opacity:1;mix-blend-mode:normal;fill:url(#linearGradient35);fill-opacity:1;stroke:url(#linearGradient37);stroke-width:0.289;stroke-dasharray:none;filter:url(#filter41)"
       d="m 37.995675,47.851254 c 0.873119,-1.232323 2.406631,-0.01972 2.406631,-0.01972 l 5.811234,6.745787 c 0,0 -0.07226,0.69654 -0.46778,2.458417 -0.395521,1.761877 -0.263581,3.132082 -0.263581,3.132082 0,0 -7.051852,3.181616 -7.854161,3.179885 -0.802311,-0.0017 -1.57229,-0.765817 -1.725013,-1.318807 -0.530636,-1.921378 0.722273,-12.243456 2.09267,-14.177641 z"
       id="path34"
       sodipodi:nodetypes="sccscsss"
       sodipodi:insensitive="true" /><path
       style="display:inline;opacity:1;mix-blend-mode:normal;fill:url(#linearGradient34);stroke:url(#linearGradient33);stroke-width:0.286122;stroke-dasharray:none;filter:url(#filter49)"
       d="m 45.274292,75.257885 c -1.99932,-1.532749 -3.763637,-2.80737 -4.920471,-4.849287 -0.737053,-1.30096 0.54768,-2.095051 0.54768,-2.095051 l 7.178245,-2.697458 c 0,0 0.945957,0.768274 2.358532,1.864014 1.412576,1.09574 2.525062,1.373805 2.525062,1.373805 0,0 0.791305,9.080602 0.452197,9.798899 -0.33911,0.718297 -2.188744,-0.126153 -2.705394,-0.362099 -1.918027,-0.87594 -2.296,-1.092745 -4.485406,-2.435408 C 44.03533,74.512638 45.27429,75.257887 45.27429,75.257887 Z"
       id="path31"
       sodipodi:nodetypes="zsccscsszz"
       sodipodi:insensitive="true" /><path
       style="display:inline;opacity:1;mix-blend-mode:normal;fill:url(#linearGradient29);fill-opacity:1;stroke:url(#linearGradient31);stroke-width:0.285668;stroke-dasharray:none;filter:url(#filter66)"
       d="m 66.991247,75.783518 c -2.012057,1.509344 -2.987975,2.268256 -5.262639,2.830505 -1.449254,0.358223 -2.278709,-0.619004 -2.278709,-0.619004 L 58.426033,68.82802 c 0,0 0.975629,-0.52247 2.257307,-1.764723 1.267914,-1.22892 1.5715,-1.592641 1.5715,-1.592641 0,0 8.408981,2.328313 9.008223,2.847787 0.599242,0.519477 1.002119,1.348909 0.759257,1.861335 -0.843871,1.780465 -3.019013,4.094401 -5.031071,5.603742 z"
       id="path28"
       sodipodi:nodetypes="zsccscsszz"
       sodipodi:insensitive="true" /><path
       style="mix-blend-mode:normal;fill:url(#linearGradient15);fill-opacity:1;stroke-width:1.00157;stroke-dasharray:none"
       d="m 51.905719,40.482749 c 2.163033,-0.0123 4.472795,0.200977 6.332214,0.977478 1.184688,0.494731 0.571178,1.807161 0.571178,1.807161 l -3.453716,6.907433 c 0,0 -0.863429,-0.383747 -2.398414,-0.383747 -1.534985,0 -2.431934,0.364097 -2.431934,0.364097 0,0 -5.21525,-5.881027 -5.363201,-6.546803 -0.14795,-0.665777 -0.08471,-1.326899 0.345516,-1.556535 1.494832,-0.797875 4.235324,-1.556786 6.398357,-1.569084 z"
       id="path14"
       sodipodi:nodetypes="zsccscssz"
       sodipodi:insensitive="true" /><path
       style="mix-blend-mode:normal;fill:url(#linearGradient16);fill-opacity:1;stroke-width:1.00157;stroke-dasharray:none"
       d="m 68.810272,49.914294 c 2.163033,-0.0123 5.314559,0.285528 7.173978,1.062029 1.184688,0.494731 0.209107,2.02587 0.209107,2.02587 l -4.637044,6.056044 c 0,0 -0.788502,0.04237 -2.323487,0.04237 -1.534985,0 -2.431934,0.364097 -2.431934,0.364097 0,0 -5.21525,-5.881027 -5.363201,-6.546803 -0.14795,-0.665777 -0.08471,-1.326899 0.345516,-1.556535 1.494832,-0.797875 4.864032,-1.434771 7.027065,-1.447069 z"
       id="path16"
       sodipodi:nodetypes="zsccscssz"
       transform="rotate(69.009041,67.668522,53.515238)"
       sodipodi:insensitive="true" /><path
       style="mix-blend-mode:normal;fill:url(#linearGradient17);fill-opacity:1;stroke-width:1.00157;stroke-dasharray:none"
       d="m 68.810272,49.914294 c 2.163033,-0.0123 3.225919,-0.0368 5.085338,0.739698 1.184688,0.494731 1.257252,1.594649 1.257252,1.594649 l -3.987385,6.857457 c 0,0 -0.941597,-0.1387 -2.463255,0.06313 -1.505321,0.199668 -1.90133,0.295471 -1.90133,0.295471 0,0 -4.617009,-5.91506 -4.76496,-6.580836 -0.14795,-0.665777 -0.0015,-1.445124 0.428714,-1.67476 1.494832,-0.797875 4.182593,-1.282513 6.345626,-1.294811 z"
       id="path17"
       sodipodi:nodetypes="zsccscsszz"
       transform="rotate(143.45043,63.593673,62.248552)"
       sodipodi:insensitive="true" /><path
       style="mix-blend-mode:normal;fill:url(#linearGradient18);fill-opacity:1;stroke-width:1.00157;stroke-dasharray:none"
       d="m 68.7476,50.936695 c 2.163033,-0.0123 4.030789,-0.07605 5.890208,0.700455 1.184688,0.494731 0.730983,1.709575 0.730983,1.709575 l -3.450385,5.607687 c 0,0 -1.046082,-0.0234 -2.581067,-0.0234 -1.534985,0 -2.436067,0.396811 -2.436067,0.396811 0,0 -5.31563,-5.744144 -5.463581,-6.40992 -0.14795,-0.665777 1.551305,-1.066268 2.025987,-1.178088 1.762227,-0.41512 2.132753,-0.466946 4.324711,-0.708242 2.191959,-0.241297 0.959211,-0.09488 0.959211,-0.09488 z"
       id="path18"
       sodipodi:nodetypes="zsccscsszz"
       transform="rotate(-142.19914,61.211047,66.86699)"
       sodipodi:insensitive="true" /><path
       style="mix-blend-mode:normal;fill:url(#linearGradient19);fill-opacity:1;stroke-width:1.00157;stroke-dasharray:none"
       d="m 75.407608,50.962394 c 1.184688,0.494731 0.464464,1.992442 0.464464,1.992442 l -4.51308,6.076008 c 0,0 -0.591181,0.06976 -2.126166,0.06976 -1.534985,0 -2.646898,0.364561 -2.646898,0.364561 0,0 -3.951931,-5.256562 -4.099882,-5.922338 -0.14795,-0.665777 0.342432,-1.446685 0.772658,-1.676321 1.494832,-0.797875 10.289485,-1.680613 12.148904,-0.904112 z"
       id="path19"
       sodipodi:nodetypes="sccscsss"
       transform="rotate(-77.347504,55.683046,73.056549)"
       sodipodi:insensitive="true" /><path
       style="fill:#000000;fill-opacity:1;stroke-width:0.302362"
       d="m 53.303773,58.963238 1.907449,-0.06288 0.251532,2.117059 -1.907449,0.02096 z"
       id="path1" /><rect
       style="mix-blend-mode:normal;fill:url(#linearGradient2);fill-opacity:1;stroke:url(#linearGradient8);stroke-width:0.16592;stroke-dasharray:none;filter:url(#filter10)"
       id="rect1"
       width="2.4707701"
       height="15.718049"
       x="75.966446"
       y="-4.0508466"
       transform="matrix(0.80146848,0.59803702,-0.47254889,0.88130446,0,0)"
       ry="1.6519468" /><rect
       style="fill:url(#linearGradient10);fill-opacity:1;stroke:url(#linearGradient11);stroke-width:0.16592;stroke-dasharray:none;filter:url(#filter10)"
       id="rect10"
       width="2.4707701"
       height="15.718049"
       x="75.966446"
       y="-4.0508466"
       transform="matrix(-0.42840203,0.90358824,-0.95713451,-0.28964378,102.7645,-5.1978288)"
       ry="1.6519468" /><rect
       style="fill:url(#linearGradient12);fill-opacity:1;stroke:url(#linearGradient13);stroke-width:0.16592;stroke-dasharray:none;filter:url(#filter10)"
       id="rect11"
       width="2.4707701"
       height="15.718049"
       x="75.966446"
       y="-4.0508466"
       transform="matrix(-0.9989073,-0.04673558,-0.10193893,-0.99479065,133.30711,79.555216)"
       ry="1.6519468" /><rect
       style="fill:url(#linearGradient22);fill-opacity:1;stroke:url(#linearGradient25);stroke-width:0.16592;stroke-dasharray:none;filter:url(#filter10)"
       id="rect13"
       width="2.4707701"
       height="15.718049"
       x="75.966446"
       y="-4.0508466"
       transform="matrix(-0.22503141,-0.97435152,0.93019808,-0.36705792,57.562809,140.84923)"
       ry="1.6519468" /><rect
       style="fill:url(#linearGradient27);fill-opacity:1;stroke:url(#linearGradient30);stroke-width:0.16592;stroke-dasharray:none;filter:url(#filter10)"
       id="rect25"
       width="2.4707701"
       height="15.718049"
       x="75.966446"
       y="-4.0508466"
       transform="matrix(0.84436943,-0.5357614,0.65507217,0.7555663,-21.352905,89.171458)"
       ry="1.6519468" /></g><g
     inkscape:groupmode="layer"
     id="layer3"
     inkscape:label="krabice front"
     style="display:inline"
     transform="matrix(1.113573,0,0,1.113573,-4.592749,-16.128815)"><path
       style="display:inline;fill:#b08a5e;fill-opacity:1"
       d="M 22.445926,62.383102 22.000197,88.734128 67.51336,106.20302 67.222824,78.222923 Z"
       id="path9"
       sodipodi:nodetypes="ccccc" /><path
       style="display:inline;fill:#9d794e;fill-opacity:1"
       d="m 67.206291,78.206389 0.26098,28.005671 25.666896,-16.866816 V 63.311678 Z"
       id="path10"
       sodipodi:nodetypes="ccccc" /><path
       style="display:inline;fill:#c29f79;fill-opacity:1"
       d="M 22.355434,62.520041 7.0739808,72.623728 53.029948,89.490545 67.452299,78.246 Z"
       id="path7"
       sodipodi:nodetypes="ccccc" /><path
       style="display:inline;fill:#c29f79;fill-opacity:1"
       d="M 93.046563,63.217108 67.141931,78.176868 85.067428,93.378614 109.0232,76.145126 Z"
       id="path8"
       sodipodi:nodetypes="ccccc" /></g><g
     inkscape:groupmode="layer"
     id="layer5"
     inkscape:label="film"
     transform="matrix(0.94716702,0,0,0.94716702,5.06688,1.4644443)"><path
       d="m 59.5334,98.7922 c 0.714215,-0.92157 -2.21753,-9.26178 0.370068,-15.2703 2.58759,-6.00856 10.6945,-9.68548 11.3684,-10.1275 1.3478,-0.884135 2.63799,-1.3622 3.83603,-1.58107 1.19804,-0.218873 2.30392,-0.178554 3.28309,-0.02592 0.979168,0.152635 1.83162,0.417586 2.5228,0.647978 0.691177,0.230392 1.53211,0.91005 2.39608,1.88346 0.863972,0.973407 1.75098,2.24057 2.53432,3.64596 0.783334,1.40539 1.46299,2.94902 1.91226,4.47537 0.449265,1.52635 0.668137,3.03542 0.529902,4.37169 -0.138235,1.33628 -0.760295,2.63799 -1.58683,3.92531 -0.826532,1.28732 -1.85754,2.56024 -2.81367,3.83891 -0.956129,1.27868 -1.83738,2.56311 -2.3644,3.87347 -0.527022,1.31036 -0.699817,2.646632 -0.239032,4.028982 0.460785,1.38235 0.840933,2.67255 1.24412,3.82164 0.403186,1.14908 0.829412,2.15705 1.38235,2.97494 0.552942,0.81789 1.2326,1.44571 2.14265,1.8345 0.91005,0.38878 2.05049,0.53854 3.525,0.4003 1.47451,-0.13824 2.90294,-0.34559 4.26514,-0.6307 1.3622,-0.28511 2.65815,-0.64798 3.86771,-1.09724 1.20956,-0.44927 2.332722,-0.98493 3.349332,-1.61562 1.0166,-0.6307 1.92666,-1.35644 2.70999,-2.18585 0.78334,-0.82941 1.38236,-1.78554 1.79706,-2.79639 0.41471,-1.01084 0.6451,-2.07641 0.69118,-3.1247 0.0461,-1.048282 -0.0922,-2.079292 -0.41471,-3.021022 -0.32255,-0.941729 -0.82941,-1.79418 -1.52059,-2.48536 -0.69118,-0.691177 -1.27868,-1.2326 -1.77114,-1.65595 -0.49247,-0.423346 -0.88989,-0.728616 -1.20092,-0.947489 -0.31103,-0.218872 -0.53566,-0.351348 -0.68254,-0.429105 -0.14687,-0.07776 -0.21599,-0.100797 -0.21599,-0.100797"
       style="display:none;fill-opacity:0.455536"
       id="path104" /></g><g
     inkscape:groupmode="layer"
     id="layer8"
     inkscape:label="filmové okénko"
     transform="matrix(1.113573,0,0,1.113573,-4.592749,-16.128815)"><g
       id="g104"
       style="display:none"
       inkscape:label="filmové okénko"
       transform="matrix(0.19823382,0,0,0.19823382,44.129606,52.23826)"><path
         id="rect57"
         style="fill:#180a06;fill-opacity:0.623886;stroke-width:0.165"
         d="M 45.913879,56.845757 H 64.133673 V 73.462208 H 45.913879 Z" /><path
         id="rect58"
         mask="url(#mask98)"
         style="fill:#1e1e1e;stroke-width:0.0681202"
         d="m 42.863922,56.845757 h 3.105466 v 16.616451 h -3.105466 z" /><path
         id="use102"
         mask="url(#mask98)"
         style="fill:#1e1e1e;stroke-width:0.0681202"
         d="m 42.863922,56.845757 h 3.105466 v 16.616451 h -3.105466 z"
         transform="translate(21.247677)" /><path
         style="fill:#180a06;fill-opacity:0.455536;stroke-width:0.165;stroke-dasharray:none"
         d="m 45.961121,64.292435 14.944006,9.032822 H 46.027539 Z"
         id="path102" /><path
         style="fill:#180a06;fill-opacity:0.455536;stroke-width:0.165;stroke-dasharray:none"
         d="M 48.684251,73.325257 64.093182,60.373785 v 13.01789 z"
         id="path103" /></g><g
       style="display:inline"
       inkscape:label="filmové okénko"
       id="g115"
       clip-path="url(#clipPath119)"><path
         d="m 57.5276,95.5218 h 3.6118 l 0.1966,3.2704 h -3.6118 z m -0.3848,-3.2869 h 3.6118 l 0.3848,3.2869 h -3.6118 z m -0.1174,-3.3051 h 3.6118 l 0.1174,3.3051 h -3.6118 z m 0.3949,-3.2801 h 3.6118 l -0.3949,3.28 h -3.6118 z m 1.1488,-3.0916 h 3.6118 l -1.1488,3.0915 h -3.6118 z m 1.9321,-2.6777 h 3.6118 l -1.9321,2.6777 h -3.6118 z m 2.3921,-2.2819 h 3.6118 l -2.3921,2.2819 h -3.6118 z m 2.6792,-1.9402 h 3.6118 l -2.6791,1.9402 h -3.6118 z m 2.8431,-1.6925 h 3.6118 l -2.8431,1.6925 h -3.6118 z m 2.9146,-1.5621 h 3.6118 l -2.9146,1.5621 h -3.6118 z m 3.2107,-0.723 h 3.6118 l -3.2106,0.723 h -3.6118 z m 3.2754,0.3685 h 3.6118 L 78.1528,71.6807 H 74.541 Z m 2.9057,1.4763 h 3.6118 l -2.9057,-1.4763 h -3.6118 z m 2.1252,2.5289 h 3.6118 l -2.1251,-2.5289 h -3.6118 z m 1.6807,2.8487 h 3.6118 L 86.459,76.0544 h -3.6118 z m 1.2608,3.0567 h 3.6118 L 88.1398,78.9032 H 84.528 Z m 0.6817,3.2293 h 3.6118 l -0.6817,-3.2293 h -3.6118 z m -0.3929,3.2539 h 3.6118 l 0.3929,-3.2539 h -3.6118 z m -1.5928,2.8916 h 3.6118 l 1.5928,-2.8915 h -3.6118 z m -1.9676,2.6616 h 3.6118 l 1.9676,-2.6616 h -3.6118 z m -1.9014,2.7075 h 3.6118 l 1.9014,-2.7075 h -3.6118 z m -1.2897,3.0288 h 3.6118 l 1.2897,-3.0287 h -3.6118 z m 0.3103,3.2475 h 3.6118 L 82.9378,99.7326 H 79.326 Z m 1.0247,3.147 h 3.6118 l -1.0247,-3.147 h -3.6118 z m 1.3555,3.011 h 3.6118 l -1.3555,-3.011 H 80.661 Z m 2.495,2.074 h 3.6118 l -2.495,-2.074 h -3.6118 z m 3.2702,0.296 h 3.6118 l -3.2701,-0.296 h -3.6118 z m 3.2773,-0.456 h 3.6118 l -3.2773,0.456 h -3.6118 z m 3.2244,-0.739 h 3.6118 l -3.2243,0.739 h -3.6118 z m 3.0999,-1.152 h 3.6117 l -3.0997,1.152 h -3.6118 z m 2.8517,-1.668 h 3.611 l -2.851,1.668 h -3.6117 z m 2.372,-2.291 h 3.612 l -2.373,2.29 h -3.611 z m 1.468,-2.945 h 3.612 l -1.468,2.945 h -3.612 z m 0.347,-3.2714 h 3.611 l -0.346,3.2714 h -3.612 z m -0.937,-3.1442 h 3.612 l 0.936,3.1441 h -3.612 z m -2.197,-2.4536 h 3.612 l 2.197,2.4535 h -3.612 z m -2.6461,-1.9681 h 3.6121 l 2.646,1.968 h -3.612 z"
         style="fill:#180a06;fill-opacity:0.623886;stroke-width:0.165"
         id="path111" /><path
         d="m 56.923,95.5218 h 0.6156 l 0.1966,3.2704 h -0.6156 z m -0.3848,-3.2869 h 0.6156 l 0.3848,3.2869 H 56.923 Z m -0.1174,-3.3051 h 0.6156 l 0.1174,3.3051 h -0.6156 z m 0.3949,-3.2801 h 0.6156 l -0.3949,3.28 h -0.6156 z m 1.1488,-3.0916 h 0.6156 l -1.1488,3.0915 h -0.6156 z m 1.9321,-2.6777 h 0.6156 l -1.9321,2.6777 h -0.6156 z m 2.3921,-2.2819 h 0.6156 l -2.3921,2.2819 h -0.6156 z m 2.6792,-1.9402 h 0.6156 l -2.6791,1.9402 h -0.6156 z m 2.8431,-1.6925 h 0.6156 l -2.8431,1.6925 h -0.6156 z m 2.9146,-1.5621 h 0.6156 l -2.9146,1.5621 H 67.811 Z m 3.2107,-0.723 h 0.6156 l -3.2106,0.723 h -0.6156 z m 3.2754,0.3685 h 0.6156 L 74.552,71.6807 h -0.6156 z m 2.9057,1.4763 h 0.6156 l -2.9057,-1.4763 h -0.6156 z m 2.1252,2.5289 h 0.6156 l -2.1251,-2.5289 h -0.6156 z m 1.6807,2.8487 h 0.6156 l -1.6807,-2.8487 h -0.6156 z m 1.2608,3.0567 h 0.6156 L 84.539,78.9032 h -0.6156 z m 0.6817,3.2293 h 0.6156 l -0.6817,-3.2293 h -0.6156 z m -0.3929,3.2539 h 0.6156 l 0.3929,-3.2539 h -0.6156 z m -1.5928,2.8916 h 0.6156 l 1.5928,-2.8915 h -0.6156 z m -1.9676,2.6616 h 0.6156 l 1.9676,-2.6616 h -0.6156 z m -1.9014,2.7075 h 0.6156 l 1.9014,-2.7075 h -0.6156 z m -1.2897,3.0288 h 0.6156 l 1.2897,-3.0287 h -0.6156 z m 0.3103,3.2475 h 0.6156 L 79.337,99.7326 h -0.6156 z m 1.0247,3.147 h 0.6156 l -1.0247,-3.147 h -0.6156 z m 1.3555,3.011 h 0.6156 l -1.3555,-3.011 h -0.6156 z m 2.495,2.074 h 0.6156 l -2.495,-2.074 h -0.6156 z m 3.2702,0.296 h 0.6156 l -3.2701,-0.296 H 83.907 Z m 3.2773,-0.456 H 91.07 l -3.2773,0.456 h -0.6156 z m 3.2244,-0.739 h 0.6156 l -3.2243,0.739 h -0.6156 z m 3.0999,-1.152 h 0.6156 l -3.0998,1.152 h -0.6156 z m 2.8512,-1.668 h 0.6161 l -2.8517,1.668 h -0.6156 z m 2.3721,-2.291 h 0.616 l -2.372,2.29 h -0.6161 z m 1.469,-2.945 h 0.615 l -1.468,2.945 h -0.616 z m 0.346,-3.2714 h 0.616 l -0.347,3.2714 h -0.615 z m -0.936,-3.1442 h 0.615 l 0.936,3.1441 h -0.615 z m -2.197,-2.4536 h 0.615 l 2.197,2.4535 h -0.615 z m -2.6467,-1.9681 h 0.6156 l 2.6461,1.968 h -0.615 z"
         style="fill:#1e1e1e;stroke-width:0.0681202"
         id="path112" /><path
         d="m 61.135,95.5218 h 0.6156 l 0.1966,3.2704 h -0.6156 z m -0.3848,-3.2869 h 0.6156 l 0.3848,3.2869 H 61.135 Z m -0.1174,-3.3051 h 0.6156 l 0.1174,3.3051 h -0.6156 z m 0.3949,-3.2801 h 0.6156 l -0.3949,3.28 h -0.6156 z m 1.1488,-3.0916 h 0.6156 l -1.1488,3.0915 h -0.6156 z m 1.9321,-2.6777 h 0.6156 l -1.9321,2.6777 h -0.6156 z m 2.3921,-2.2819 h 0.6156 l -2.3921,2.2819 h -0.6156 z m 2.6792,-1.9402 h 0.6156 l -2.6791,1.9402 h -0.6156 z m 2.8431,-1.6925 h 0.6156 l -2.8431,1.6925 h -0.6156 z m 2.9146,-1.5621 h 0.6156 l -2.9146,1.5621 H 72.023 Z m 3.2107,-0.723 h 0.6156 l -3.2106,0.723 h -0.6156 z m 3.2754,0.3685 h 0.6156 L 78.764,71.6807 h -0.6156 z m 2.9057,1.4763 h 0.6156 l -2.9057,-1.4763 h -0.6156 z m 2.1252,2.5289 h 0.6156 l -2.1251,-2.5289 h -0.6156 z m 1.6807,2.8487 h 0.6156 l -1.6807,-2.8487 h -0.6156 z m 1.2608,3.0567 h 0.6156 L 88.751,78.9032 h -0.6156 z m 0.6817,3.2293 h 0.6156 l -0.6817,-3.2293 h -0.6156 z m -0.3929,3.2539 h 0.6156 l 0.3929,-3.2539 h -0.6156 z m -1.5928,2.8916 h 0.6156 l 1.5928,-2.8915 h -0.6156 z m -1.9676,2.6616 h 0.6156 l 1.9676,-2.6616 h -0.6156 z m -1.9014,2.7075 h 0.6156 l 1.9014,-2.7075 h -0.6156 z m -1.2897,3.0288 h 0.6156 l 1.2897,-3.0287 h -0.6156 z m 0.3103,3.2475 h 0.6156 L 83.549,99.7326 h -0.6156 z m 1.0247,3.147 h 0.6156 l -1.0247,-3.147 h -0.6156 z m 1.3555,3.011 h 0.6156 l -1.3555,-3.011 h -0.6156 z m 2.495,2.074 h 0.6156 l -2.495,-2.074 h -0.6156 z m 3.2702,0.296 h 0.6156 l -3.2701,-0.296 H 88.119 Z m 3.2773,-0.456 h 0.6156 l -3.2773,0.456 h -0.6156 z m 3.2244,-0.739 h 0.6156 l -3.2243,0.739 h -0.6156 z m 3.1002,-1.152 h 0.615 l -3.0995,1.152 h -0.6156 z m 2.851,-1.668 h 0.616 l -2.852,1.668 h -0.615 z m 2.372,-2.291 h 0.616 l -2.372,2.29 h -0.616 z m 1.469,-2.945 h 0.615 l -1.468,2.945 h -0.616 z m 0.346,-3.2714 h 0.616 l -0.347,3.2714 h -0.615 z m -0.936,-3.1442 h 0.615 l 0.936,3.1441 h -0.615 z m -2.197,-2.4536 h 0.615 l 2.197,2.4535 h -0.615 z m -2.647,-1.9681 h 0.616 l 2.646,1.968 h -0.615 z"
         style="fill:#1e1e1e;stroke-width:0.0681202"
         id="path113" /><path
         d="m 57.7441,96.9908 2.9646,1.7773 -2.9494,10e-5 z m -0.4451,-3.2803 3.1965,1.7842 -2.9493,1e-4 z m -0.2676,-3.2978 3.0811,1.7949 -2.9493,1e-4 z m 0.1361,-3.3041 2.8306,1.7938 -2.9493,1e-4 z m 0.7851,-3.207 2.4463,1.7216 h -2.9493 z m 1.6212,-2.8726 1.9799,1.5049 -2.9493,1e-4 z m 2.2094,-2.4578 1.708,1.2887 -2.9494,1e-4 z m 2.5674,-2.0862 1.5359,1.0963 -2.9494,1e-4 z m 2.7831,-1.7893 1.4334,0.9475 -2.9493,1e-4 z m 2.8843,-1.6231 1.3934,0.8801 -2.9494,1e-4 z m 3.0637,-1.2061 1.2452,0.5257 -2.9494,1e-4 z m 3.2901,-0.1055 1.1683,-0.0814 h -2.9494 z m 3.1802,0.8726 1.2627,-0.5779 h -2.9494 z m 2.4146,2.2348 1.7478,-1.3248 -2.9494,-1e-4 z m 1.8627,2.7317 2.0047,-1.5229 -2.9493,-1e-4 z m 1.4597,2.9672 2.2235,-1.6399 -2.9494,-1e-4 z m 0.9841,3.1547 2.496,-1.7362 -2.9494,-1e-4 z m 0.1841,3.2884 2.9871,-1.794 -2.9493,-10e-5 z m -1.1678,3.0729 3.75,-1.6148 -2.9493,-1e-4 z m -1.8656,2.7315 4.0174,-1.4576 h -2.9493 z m -1.9841,2.6498 4.0327,-1.4466 -2.9493,-1e-4 z m -1.6582,2.857 3.7923,-1.5942 -2.9493,-1e-4 z m -0.5133,3.2264 3.024,-1.7887 -2.9492,-10e-5 z m 0.943,3.169 2.4054,-1.711 -2.9493,-0.001 z m 1.1165,3.114 2.3136,-1.678 H 80.692 Z m 1.9004,2.669 1.7743,-1.339 h -2.9493 z m 3.0814,1.048 1.1994,-0.326 h -2.9494 z m 3.2954,-0.257 1.1758,0.214 h -2.9494 z m 3.251,-0.611 1.2019,0.367 h -2.9494 z m 3.1696,-0.944 1.2559,0.569 H 94.332 Z m 2.9833,-1.424 1.3712,0.838 h -2.9494 z m 2.6252,-2.001 1.594,1.165 h -2.949 z m 1.921,-2.671 2.039,1.54 h -2.949 z m 0.867,-3.174 2.632,1.765 h -2.949 z m -0.334,-3.2694 3.303,1.7617 -2.949,1e-4 z m -1.715,-2.7873 4.071,1.4079 -2.949,1e-4 z m -2.472,-2.1978 4.339,1.158 -2.949,1e-4 z"
         style="fill:#180a06;fill-opacity:0.455536;stroke-width:0.165;stroke-dasharray:none"
         id="path114" /><path
         d="m 58.286,98.7682 2.945,-2.5506 0.1035,2.5622 z m -0.2131,-3.2734 2.7277,-2.5593 0.3288,2.5724 z m -0.383,-3.2871 2.9213,-2.5755 0.1343,2.5886 z m -0.1144,-3.3052 3.3137,-2.5639 -0.2596,2.577 z m 0.4008,-3.2793 3.8784,-2.4387 -0.8271,2.4515 z m 1.1548,-3.0892 4.5091,-2.1267 -1.4607,2.1384 z m 1.9374,-2.674 4.8932,-1.8067 -1.8473,1.8166 z m 2.3953,-2.2786 5.1265,-1.5353 -2.0822,1.5435 z m 2.6807,-1.9381 5.2572,-1.3423 -2.2136,1.3495 z m 2.8442,-1.6905 5.3077,-1.2542 -2.2646,1.2605 z m 2.9155,-1.5605 5.5413,-0.6516 -2.4987,0.6571 z m 3.2132,-0.7127 5.6182,0.211 -2.5768,-0.2105 z m 3.2746,0.3761 5.4039,1.0088 -2.3621,-1.012 z m 2.8997,1.4878 4.7463,1.9424 -1.7016,-1.9511 z m 2.1197,2.5336 4.3935,2.2039 -1.3462,-2.2148 z m 1.6784,2.8502 4.0823,2.3652 -1.0338,-2.3769 z m 1.2566,3.0584 3.6542,2.5054 -0.6037,-2.5179 z m 0.6753,3.2306 2.8769,2.5589 0.1767,-2.572 z m -0.4049,3.2521 1.8665,2.2848 1.1929,-2.297 z m -1.5982,2.8888 1.5274,2.0793 1.5346,-2.0902 z m -1.9688,2.6607 1.5477,2.0938 1.5149,-2.1043 z m -1.8986,2.7094 1.9524,2.3249 1.1088,-2.3363 z m -1.2815,3.0319 3.1602,2.5498 -0.1029,-2.5626 z m 0.3243,3.2458 3.8533,2.454 -0.8028,-2.466 z m 1.0247,3.148 4.0454,2.379 -0.9949,-2.391 z m 1.3611,3.008 4.8937,1.768 -1.8459,-1.779 z m 2.5064,2.061 5.5976,0.321 -2.5553,-0.326 z m 3.2718,0.283 5.6129,-0.331 -2.5714,0.333 z m 3.2771,-0.458 5.5734,-0.552 -2.5318,0.554 z m 3.2236,-0.742 5.4873,-0.857 -2.4453,0.861 z m 3.0986,-1.155 5.3057,-1.255 -2.263,1.261 z m 2.8477,-1.674 4.96,-1.731 -1.915,1.739 z m 2.367,-2.296 4.283,-2.257 -1.236,2.268 z m 1.46,-2.949 3.42,-2.544 -0.369,2.557 z m 0.336,-3.2726 2.439,-2.4914 0.617,2.5045 z m -0.946,-3.1411 1.384,-1.9507 1.677,1.9623 z m -2.205,-2.4477 1.042,-1.6095 2.023,1.6182 z"
         style="fill:#180a06;fill-opacity:0.455536;stroke-width:0.165;stroke-dasharray:none"
         id="path115" /></g></g></svg>
