<?xml version="1.0" encoding="UTF-8" standalone="no"?>
<!-- Created with Inkscape (http://www.inkscape.org/) -->

<svg
   width="190.49664mm"
   height="190.49664mm"
   viewBox="0 0 190.49664 190.49664"
   version="1.1"
   id="svg1"
   xml:space="preserve"
   xmlns:xlink="http://www.w3.org/1999/xlink"
   xmlns="http://www.w3.org/2000/svg"
   xmlns:svg="http://www.w3.org/2000/svg"><defs
     id="defs1"><linearGradient
       id="linearGradient33"><stop
         style="stop-color:#b2f219;stop-opacity:1;"
         offset="0"
         id="stop33" /><stop
         style="stop-color:#b2f219;stop-opacity:0;"
         offset="1"
         id="stop34" /></linearGradient><linearGradient
       id="linearGradient31"><stop
         style="stop-color:#b2f219;stop-opacity:1;"
         offset="0"
         id="stop31" /><stop
         style="stop-color:#b2f219;stop-opacity:0;"
         offset="1"
         id="stop32" /></linearGradient><linearGradient
       id="linearGradient29"><stop
         style="stop-color:#f7f7c4;stop-opacity:1;"
         offset="0"
         id="stop28" /><stop
         style="stop-color:#fefef2;stop-opacity:1;"
         offset="1"
         id="stop29" /></linearGradient><linearGradient
       id="linearGradient24"><stop
         style="stop-color:#b2f219;stop-opacity:1;"
         offset="0"
         id="stop24" /><stop
         style="stop-color:#b2f219;stop-opacity:0;"
         offset="1"
         id="stop25" /></linearGradient><linearGradient
       id="linearGradient22"><stop
         style="stop-color:#b2f219;stop-opacity:1;"
         offset="0"
         id="stop22" /><stop
         style="stop-color:#b2f219;stop-opacity:0;"
         offset="1"
         id="stop23" /></linearGradient><linearGradient
       id="linearGradient19"><stop
         style="stop-color:#b2f219;stop-opacity:1;"
         offset="0"
         id="stop19" /><stop
         style="stop-color:#b2f219;stop-opacity:0;"
         offset="1"
         id="stop20" /></linearGradient><linearGradient
       xlink:href="#linearGradient19"
       id="linearGradient20"
       x1="144.29294"
       y1="121.68338"
       x2="173.66766"
       y2="228.17215"
       gradientUnits="userSpaceOnUse" /><linearGradient
       xlink:href="#linearGradient22"
       id="linearGradient23"
       x1="101.34404"
       y1="171.07515"
       x2="35.929379"
       y2="79.961922"
       gradientUnits="userSpaceOnUse" /><linearGradient
       xlink:href="#linearGradient24"
       id="linearGradient25"
       x1="81.953262"
       y1="87.437881"
       x2="97.606049"
       y2="112.66924"
       gradientUnits="userSpaceOnUse" /><linearGradient
       xlink:href="#linearGradient29"
       id="linearGradient28"
       x1="141.71448"
       y1="190.04951"
       x2="115.78226"
       y2="159.67844"
       gradientUnits="userSpaceOnUse" /><linearGradient
       xlink:href="#linearGradient31"
       id="linearGradient32"
       x1="122.28932"
       y1="82.267601"
       x2="140.78632"
       y2="73.884384"
       gradientUnits="userSpaceOnUse" /><linearGradient
       xlink:href="#linearGradient33"
       id="linearGradient34"
       x1="126.27608"
       y1="86.487762"
       x2="125.74229"
       y2="85.879845"
       gradientUnits="userSpaceOnUse" /><linearGradient
       xlink:href="#linearGradient22"
       id="linearGradient1"
       gradientUnits="userSpaceOnUse"
       x1="101.34404"
       y1="171.07515"
       x2="35.929379"
       y2="79.961922" /><linearGradient
       xlink:href="#linearGradient22"
       id="linearGradient2"
       gradientUnits="userSpaceOnUse"
       x1="101.34404"
       y1="171.07515"
       x2="35.929379"
       y2="79.961922" /><linearGradient
       xlink:href="#linearGradient22"
       id="linearGradient3"
       gradientUnits="userSpaceOnUse"
       x1="101.34404"
       y1="171.07515"
       x2="35.929379"
       y2="79.961922" /><linearGradient
       xlink:href="#linearGradient22"
       id="linearGradient4"
       gradientUnits="userSpaceOnUse"
       x1="101.34404"
       y1="171.07515"
       x2="35.929379"
       y2="79.961922" /><linearGradient
       xlink:href="#linearGradient22"
       id="linearGradient5"
       gradientUnits="userSpaceOnUse"
       x1="101.34404"
       y1="171.07515"
       x2="35.929379"
       y2="79.961922" /><linearGradient
       xlink:href="#linearGradient22"
       id="linearGradient6"
       gradientUnits="userSpaceOnUse"
       x1="101.34404"
       y1="171.07515"
       x2="35.929379"
       y2="79.961922" /><linearGradient
       xlink:href="#linearGradient22"
       id="linearGradient7"
       gradientUnits="userSpaceOnUse"
       x1="101.34404"
       y1="171.07515"
       x2="35.929379"
       y2="79.961922" /><linearGradient
       xlink:href="#linearGradient22"
       id="linearGradient8"
       gradientUnits="userSpaceOnUse"
       x1="101.34404"
       y1="171.07515"
       x2="35.929379"
       y2="79.961922" /><linearGradient
       xlink:href="#linearGradient22"
       id="linearGradient9"
       gradientUnits="userSpaceOnUse"
       x1="101.34404"
       y1="171.07515"
       x2="35.929379"
       y2="79.961922" /></defs><g
     id="layer3"
     style="display:inline"
     transform="translate(-8.4302177,-51.850845)"><ellipse
       style="display:inline;fill:#123e1f;fill-opacity:1;stroke:none;stroke-width:1.03664;stroke-linecap:round;stroke-linejoin:round;stroke-dasharray:none;stroke-opacity:1;paint-order:normal"
       id="path6"
       cx="105.10323"
       cy="160.95454"
       rx="83.062782"
       ry="81.007828" /><ellipse
       style="display:inline;fill:url(#linearGradient20);fill-opacity:1;stroke-width:1.38314;stroke-linecap:round;stroke-linejoin:round"
       id="path2"
       cx="105.91463"
       cy="160.49695"
       rx="77.498535"
       ry="75.532799" /><ellipse
       style="display:inline;fill:#123e1f;fill-opacity:1;stroke:none;stroke-width:0.986506;stroke-linecap:round;stroke-linejoin:round;stroke-dasharray:none;stroke-opacity:1;paint-order:normal"
       id="path7"
       cx="95.706657"
       cy="163.23126"
       rx="72.715355"
       ry="72.481728" /><ellipse
       style="display:inline;fill:url(#linearGradient28);fill-opacity:1;stroke:none;stroke-width:1.1355;stroke-linecap:round;stroke-linejoin:round;stroke-dasharray:none;stroke-opacity:1;paint-order:normal"
       id="path8"
       cx="95.497475"
       cy="163.31584"
       rx="66.780846"
       ry="66.491737" /></g><g
     id="layer6"
     style="display:inline;fill:url(#linearGradient23);fill-opacity:1"
     transform="translate(-8.4302177,-51.850845)"><path
       style="display:inline;fill:url(#linearGradient1);fill-opacity:1;stroke-width:1;stroke-linecap:round;stroke-linejoin:round"
       d="m 109.24947,104.59562 c -3.32914,-0.0292 -4.70168,0.99291 -5.34414,3.79639 -0.64246,2.80348 -8.454862,42.16929 -8.454862,42.16929 0,0 -0.861078,3.97917 0.700871,4.46805 0.838738,0.26252 1.518552,0.73007 5.081321,-3.32914 3.56276,-4.05921 28.26966,-28.34541 28.26966,-28.34541 0,0 3.16924,-3.49558 3.06605,-5.37356 -0.10325,-1.87911 -0.70124,-2.84287 -3.51991,-5.104 -3.19877,-2.56603 -15.84259,-8.24691 -19.79899,-8.28162 z"
       id="path3" /><path
       style="display:inline;fill:url(#linearGradient2);fill-opacity:1;stroke-width:1.00945;stroke-linecap:round;stroke-linejoin:round"
       d="m 141.7978,123.66573 c -3.01767,-1.73728 -4.85711,-1.63372 -7.05659,0.25798 -2.19946,1.89168 -32.57142,29.36901 -32.57142,29.36901 -6.387209,6.06472 -0.53681,5.7309 5.13101,4.33435 5.58417,-1.38355 37.21457,-13.02435 37.21457,-13.02435 0,0 4.901,-1.76721 5.88804,-3.30912 0.98763,-1.54284 0.99737,-2.61476 -0.27014,-5.8586 -1.46936,-4.67927 -4.22712,-8.93863 -8.33547,-11.76927 z"
       id="path3-5" /><path
       style="display:inline;fill:url(#linearGradient3);fill-opacity:1;stroke-width:1;stroke-linecap:round;stroke-linejoin:round"
       d="m 154.36699,150.48456 c -1.61048,-2.91383 -3.17512,-3.60697 -5.93248,-2.78892 -2.75736,0.81805 -41.91703,11.51029 -45.96473,13.65088 -1.23729,0.65432 -3.077994,1.41797 -2.964836,2.75057 0.138513,1.6308 0.494553,2.42407 5.780576,3.53238 5.28603,1.10831 41.78679,9.54697 41.78679,9.54697 0,0 4.97345,1.16643 6.55836,0.1537 1.58585,-1.0133 1.96618,-1.9664 2.55043,-5.53239 0.66302,-4.04676 0.0998,-17.85037 -1.81411,-21.31323 z"
       id="path9" /><path
       style="display:inline;fill:url(#linearGradient4);fill-opacity:1;stroke-width:1;stroke-linecap:round;stroke-linejoin:round"
       d="m 148.76819,181.25031 c -1.30091,-0.8545 -35.45129,-8.70708 -42.72413,-10.80197 -9.220214,-2.65582 -10.588943,0.5357 -6.714784,5.57394 6.124354,7.96455 16.295404,30.73258 25.276814,37.66849 7.11122,5.49166 34.26574,-25.8039 24.1621,-32.44046 z"
       id="path3-2" /><path
       style="display:inline;fill:url(#linearGradient5);fill-opacity:1;stroke-width:1.00945;stroke-linecap:round;stroke-linejoin:round"
       d="m 98.690405,223.44358 c 4.082785,0.0276 10.539065,0.16131 15.197235,-1.53571 5.79234,-2.1102 5.24131,-4.07796 3.34559,-8.33441 -5.02327,-11.27871 -20.437846,-38.31061 -20.437846,-38.31061 -2.231932,-4.87139 -4.736326,-6.3252 -9.154735,2.5431 -1.297844,2.60494 -7.503492,14.97967 -11.387856,25.56973 -4.702879,12.8216 -4.453569,13.87433 2.231027,16.35029 6.733292,2.494 18.568008,3.70654 20.206585,3.71761 z"
       id="path3-5-9" /><path
       style="display:inline;fill:url(#linearGradient6);fill-opacity:1;stroke-width:1.00945;stroke-linecap:round;stroke-linejoin:round"
       d="m 87.201114,169.80226 c -1.903995,-5.36464 -43.364973,9.64794 -43.364973,9.64794 -4.19434,1.96386 -5.240146,3.75652 -2.271759,9.75532 1.724884,3.48581 9.372673,13.85974 15.958538,19.64205 7.536105,6.61661 9.824387,5.34836 12.572949,-0.13531 6.84985,-13.66617 18.445622,-35.13339 17.105245,-38.91 z"
       id="path10" /><path
       style="display:inline;fill:url(#linearGradient7);fill-opacity:1;stroke-width:1.00945;stroke-linecap:round;stroke-linejoin:round"
       d="m 35.539063,171.79006 c 1.405861,3.18561 2.95036,4.18998 5.842732,3.96542 2.892343,-0.22457 36.333116,-8.50691 36.333116,-8.50691 9.146049,-0.47033 4.238521,-5.992 -1.574005,-6.52965 -5.963582,-0.55161 -30.410542,-7.41885 -30.410542,-7.41885 -7.94897,-1.8674 -9.767715,-0.26313 -11.003377,3.95311 -1.379366,4.70658 -0.826627,9.82459 0.812076,14.53688 z"
       id="path12" /><path
       style="display:inline;fill:url(#linearGradient8);fill-opacity:1;stroke-width:1.00945;stroke-linecap:round;stroke-linejoin:round"
       d="m 84.6805,158.96573 c 5.272893,-2.14504 -12.60012,-38.15591 -12.60012,-38.15591 -4.307505,-12.7317 -14.488979,-4.98856 -14.488979,-4.98856 -4.066631,2.15896 -12.23334,11.59248 -16.32751,19.41635 -4.841508,9.25202 -2.511657,11.50803 3.186546,13.77865 14.003037,5.57995 36.518041,11.45954 40.230063,9.94947 z"
       id="path11" /><path
       style="display:inline;fill:url(#linearGradient9);fill-opacity:1;stroke-width:1.00945;stroke-linecap:round;stroke-linejoin:round"
       d="m 79.184623,105.98515 c -3.091085,1.60306 -5.222046,2.94331 -4.414407,5.72969 1.24782,4.30501 7.810047,30.43701 13.334818,39.45883 1.724668,2.81634 3.845305,2.96931 5.086381,-0.45561 2.025158,-5.5887 5.261671,-38.23382 5.261671,-38.23382 1.109117,-7.24841 1.284147,-8.51353 -4.90519,-9.10951 -5.491665,-0.52879 -9.763149,0.67915 -14.363273,2.61042 z"
       id="path13" /></g><g
     id="layer2"
     style="display:inline"
     transform="translate(-8.4302177,-51.850845)"><path
       style="display:inline;fill:none;fill-opacity:1;stroke:#123e1f;stroke-width:5.9;stroke-linecap:round;stroke-dasharray:none;stroke-opacity:1"
       d="m 84.667107,174.63429 c 0,0 3.407185,2.42633 7.661003,2.42633 4.336669,0 8.20114,-2.76088 8.20114,-2.76088"
       id="path4" /><g
       id="layer5"
       transform="translate(-3.3875404,0.35043763)"
       style="display:inline"><circle
         style="display:inline;fill:#123e1f;fill-opacity:1;stroke-width:0.27048"
         id="path1-1"
         cx="123.74861"
         cy="164.61475"
         r="10.89267" /><circle
         style="display:inline;fill:#ffffff;fill-opacity:1;stroke:none;stroke-width:1.03509;stroke-linecap:round;stroke-linejoin:round;stroke-dasharray:none;stroke-opacity:1;paint-order:normal"
         id="path5"
         cx="122.26352"
         cy="161.06001"
         r="3.4459481" /></g><g
       id="layer4"><circle
         style="display:inline;fill:#123e1f;fill-opacity:1;stroke-width:0.250226"
         id="path1"
         cx="70.985397"
         cy="164.96519"
         r="10.07701" /><circle
         style="display:inline;fill:#ffffff;fill-opacity:1;stroke:none;stroke-width:0.893978;stroke-linecap:round;stroke-linejoin:round;stroke-dasharray:none;stroke-opacity:1;paint-order:normal"
         id="path5-9"
         cx="69.420662"
         cy="161.40558"
         r="2.9761693" /></g></g><g
     id="layer7"
     style="display:inline"
     transform="translate(-8.4302177,-51.850845)"><path
       style="display:inline;fill:#123e1f;fill-opacity:1;stroke-width:1;stroke-linecap:round;stroke-linejoin:round"
       d="m 110.33163,80.45617 c 0,0 -2.96328,-0.297959 1.86743,-0.152052 1.94841,0.05885 1.56659,-4.906411 1.89974,-8.608834 0.68302,-9.826788 -0.48406,-18.607355 11.29542,-18.342861 12.48018,0.280228 6.97743,15.771972 4.39489,25.030332 -0.72988,2.616586 -1.10603,4.908711 1.00497,5.545564 2.63131,0.793826 -0.25948,2.395786 -0.81422,0.336331"
       id="path14" /><path
       style="display:inline;fill:url(#linearGradient32);fill-opacity:1;stroke-width:1;stroke-linecap:round;stroke-linejoin:round"
       d="m 112.60452,85.195218 c 0.23489,-0.118735 1.62735,-0.781046 3.44293,-5.524053 2.08568,-5.448619 -1.49879,-23.062632 7.33717,-23.163414 11.16943,-0.127397 5.58394,9.440044 3.49291,16.977837 -1.75828,7.279849 -2.74327,11.780513 0.86553,14.089191 0.66828,0.427521 4.08409,1.52726 5.60281,2.559523 2.31651,1.574508 -22.388,-0.05029 -22.388,-0.05029 0,0 -0.57549,-3.588248 0.70257,-4.701833 0.19542,-0.170275 0.75386,-0.100103 0.94408,-0.186961 z"
       id="path17" /><path
       style="display:inline;fill:#123e1f;fill-opacity:1;stroke-width:1;stroke-linecap:round;stroke-linejoin:round"
       d="m 115.16494,61.800565 c 0,0 -10.07701,-7.103465 -27.174902,-7.268663 -17.097872,-0.165198 -30.396219,8.838039 -38.490866,15.611105 -8.094646,6.773068 -14.867718,19.080239 -18.254255,29.405042 -3.386535,10.324801 -6.02968,23.292761 -6.194878,24.449141 -0.165198,1.15637 -0.841654,3.45346 0.991179,5.28629 2.043345,2.04335 40.223497,0.85795 62.444414,-16.68488 7.846851,-6.19488 14.619938,-15.776299 14.619938,-15.776299 0,0 7.66476,-14.127661 10.07702,-27.340081 0.21044,-1.152635 2.84559,-0.489181 2.74762,0.288521 -1.42052,11.276927 2.19859,2.203038 -0.76527,-7.970176 z"
       id="path15" /><path
       style="display:inline;fill:url(#linearGradient25);fill-opacity:1;stroke-width:1;stroke-linecap:round;stroke-linejoin:round"
       d="m 106.69277,65.076347 c 0,0 -7.70852,-3.942438 -20.79252,-3.504356 -14.719423,0.49284 -26.906775,8.408301 -34.284268,16.120033 -7.460067,7.798047 -12.612735,16.943542 -15.760922,31.622576 -2.959602,13.79972 -4.419018,14.16563 -4.295119,14.24823 0.123899,0.0826 31.429267,-1.90195 50.479621,-15.14967 19.342878,-13.451138 23.391598,-30.166658 24.296888,-38.314278 0.4146,-3.731399 0.35632,-5.022535 0.35632,-5.022535 z"
       id="path16" /><path
       style="display:inline;fill:#123e1f;fill-opacity:1;stroke-width:1;stroke-linecap:round;stroke-linejoin:round"
       d="m 107.42753,64.73328 c -0.82565,0.259492 -13.538544,1.797018 -20.298257,3.760046 -3.174132,0.921771 -6.756355,2.239853 -10.772294,3.685141 -21.238163,7.64336 -31.889628,28.210063 -32.824123,30.663103 -0.934495,2.45305 0.817684,2.21942 0.817684,2.21942 0,0 0.467243,0.11682 3.679571,-3.67957 13.690475,-16.709863 30.082036,-29.279614 51.929941,-31.168714 16.093778,-1.391563 5.257988,-0.577913 6.759988,-0.771657 6.605,-0.851978 0.70749,-4.707769 0.70749,-4.707769 z"
       id="path18" /><path
       style="fill:#123e1f;fill-opacity:1;stroke-width:1;stroke-linecap:round;stroke-linejoin:round"
       d="m 62.850654,80.321393 c 0,0 -2.715874,-2.015003 -5.869794,-1.314133 -3.153918,0.700871 -4.643269,3.650369 -4.322038,4.35124 0.321233,0.700871 5.752984,-0.05841 5.752984,-0.05841 l 1.781381,1.48935 3.38754,-2.686671 z"
       id="path32" /><path
       style="display:inline;fill:#123e1f;fill-opacity:1;stroke-width:1;stroke-linecap:round;stroke-linejoin:round"
       d="m 69.362294,78.386966 c 0,0 2.348718,2.316334 2.32615,5.547112 -0.0083,1.188235 -0.358187,3.460276 -1.112502,4.987133 -0.827863,1.67573 -2.083741,2.504554 -2.508181,1.219377 -0.393984,-1.192959 -0.210056,-3.735757 -1.082209,-7.175883 l -1.554188,-1.175768 2.048904,-3.807312 z"
       id="path32-0-0-1" /><path
       style="display:inline;fill:#123e1f;fill-opacity:1;stroke-width:1;stroke-linecap:round;stroke-linejoin:round"
       d="m 86.595238,68.655931 c 0,0 -2.114994,-2.638753 -5.3435,-2.761964 -3.228504,-0.123211 -5.418183,2.35126 -5.285509,3.110739 0.132681,0.759478 5.579146,1.404764 5.579146,1.404764 l 1.344664,1.892977 3.958858,-1.738123 z"
       id="path32-0" /><path
       style="display:inline;fill:#123e1f;fill-opacity:1;stroke-width:1;stroke-linecap:round;stroke-linejoin:round"
       d="m 89.287257,68.017165 c 0,0 2.623857,1.933451 3.157048,5.120007 0.338308,2.02186 -0.162785,3.37379 -0.570876,4.632684 -0.500945,1.545336 -1.593564,2.495192 -2.054401,1.815068 -0.676878,-0.998965 -0.974504,-3.793271 -2.030927,-6.808883 -0.292029,-0.876088 -1.857574,-0.789245 -1.857574,-0.789245 l 3.464244,-1.873834 z"
       id="path32-0-0" /><path
       style="fill:url(#linearGradient34);fill-opacity:1;stroke-width:1;stroke-linecap:round;stroke-linejoin:round"
       d="m 131.82148,89.299197 c -0.55421,-0.265234 -3.39354,-1.257295 -4.22985,-1.850972 -0.50467,-0.358255 -0.94554,-0.765103 -1.2553,-1.16914 -0.20355,-0.265507 -0.32619,-0.537395 -0.45861,-0.766761 -0.30937,-0.535844 -1.65197,2.049473 -1.65197,2.049473 l 7.13444,2.008174 z"
       id="path33" /></g></svg>
