<?xml version="1.0" encoding="UTF-8"?>
<svg version="1.1" xmlns="http://www.w3.org/2000/svg" width="920" height="920">
<path d="M0 0 C2.2431836 -0.00159239 4.48636671 -0.00406022 6.72954851 -0.00731641 C12.83402197 -0.01367197 18.93842813 -0.00770695 25.04289711 0.00044787 C30.97002842 0.00638893 36.89715241 0.00284255 42.82428417 -0.00038134 C54.94216856 -0.00663024 67.0600334 -0.00351402 79.17791557 0.00521278 C91.18735371 0.01385883 103.19678305 0.01873221 115.20622444 0.01854515 C115.95621151 0.01853751 116.70619858 0.01852986 117.47891253 0.01852198 C120.52424105 0.01848107 123.56956957 0.01841544 126.61489809 0.01831617 C155.14844138 0.01741141 183.68197137 0.02733187 212.21551004 0.04274584 C237.4812048 0.05634447 262.74689011 0.06260802 288.0125885 0.06193542 C289.63268655 0.06189501 291.2527846 0.06185465 292.87288266 0.06181435 C293.67388191 0.06179399 294.47488115 0.06177364 295.30015311 0.06175268 C299.33359327 0.06165186 303.36703343 0.06156128 307.40047359 0.06148243 C308.1964709 0.06146572 308.9924682 0.061449 309.81258664 0.06143178 C331.0046622 0.06106503 352.19673659 0.0656227 373.38881117 0.07180899 C374.14464073 0.07202927 374.90047029 0.07224954 375.67920377 0.07247648 C378.71763158 0.07336456 381.75605938 0.07425304 384.79448718 0.07516744 C395.29235459 0.07830635 405.79022106 0.07983397 416.2880889 0.08027893 C429.84123669 0.08088087 443.39437675 0.08496838 456.94752126 0.09471039 C463.46765955 0.09931841 469.98779054 0.10239334 476.50793076 0.10111618 C492.00641036 0.09898768 507.50400911 0.13160804 523.00209045 0.24723816 C524.43510714 0.25702472 524.43510714 0.25702472 525.89707366 0.26700899 C531.25653137 0.30608887 536.61482457 0.36770467 541.97354472 0.46553018 C543.53520708 0.49196083 545.09698313 0.51257247 546.65880912 0.52626459 C571.77475762 0.76869135 595.19614408 9.6171864 614.00209045 26.24723816 C614.66853577 26.7821991 615.33498108 27.31716003 616.0216217 27.86833191 C619.83253184 30.93200477 622.71591895 34.22199915 625.5450592 38.20817566 C626.46411732 39.49436422 627.42129926 40.7548828 628.4278717 41.97380066 C641.16593007 57.56161332 649.14386825 80.69026504 649.12069416 100.65489864 C649.12166861 101.90602442 649.12264306 103.15715019 649.12364703 104.44618887 C649.11962918 105.82159894 649.11550905 107.19700872 649.11129761 108.57241821 C649.11046678 110.04373487 649.11006861 111.51505182 649.11006469 112.98636872 C649.10873495 117.02144146 649.101046 121.05648062 649.09224927 125.09154308 C649.08382057 129.44690981 649.0811703 133.80228087 649.07765198 138.15765381 C649.06781906 148.67179258 649.04817843 159.18590445 649.02739123 169.70002636 C649.01779764 174.65652342 649.00922947 179.61302224 649.00053978 184.56952095 C648.97124102 201.05481473 648.9394537 217.54010079 648.9003191 234.02537441 C648.8901994 238.30041945 648.88008785 242.57546451 648.87001038 246.85050964 C648.8675035 247.91299425 648.86499663 248.97547887 648.86241379 250.07015998 C648.8222854 267.27279389 648.799091 284.47540651 648.78303174 301.67807805 C648.7662596 319.35633391 648.73452318 337.03451321 648.68814772 354.71271664 C648.66249162 364.63161755 648.64328049 374.55043748 648.64077187 384.4693737 C648.63858366 392.91852199 648.6227463 401.36750851 648.58943937 409.81659376 C648.57287355 414.12238457 648.56254883 418.4279386 648.56974602 422.73376083 C648.57619855 426.68639769 648.56390361 430.63854426 648.53754111 434.59109438 C648.53122361 436.01039277 648.53140185 437.42974067 648.53925679 438.84903138 C648.6077385 452.52305702 645.79531171 465.30738731 640.37709045 477.87223816 C640.04153137 478.66001648 639.70597229 479.4477948 639.36024475 480.25944519 C634.91806217 490.2354047 628.77561848 498.60052136 621.00209045 506.24723816 C619.94940028 507.50895533 618.9068698 508.77925337 617.87709045 510.05973816 C607.15828677 522.34602281 590.49211201 530.78775077 575.00209045 535.24723816 C573.82922319 535.61889066 573.82922319 535.61889066 572.63266164 535.99805129 C561.19204159 539.17534035 549.62320125 538.66414848 537.84405518 538.62818909 C535.37760582 538.63164845 532.91115801 538.63641489 530.44471341 538.64237082 C525.09551894 538.65226624 519.74644431 538.6529027 514.39725494 538.64522934 C506.44248395 538.63384951 498.48778923 538.63969993 490.5330187 538.64885426 C476.32233803 538.66462983 462.1116979 538.66329079 447.90101341 538.65461752 C435.46295879 538.64706369 423.02491901 538.64510408 410.58686256 538.64868546 C409.7610428 538.64891461 408.93522304 538.64914377 408.08437843 538.64937987 C404.73187087 538.65031392 401.37936331 538.65126913 398.02685576 538.65225916 C366.5898164 538.6614321 335.15280282 538.65312266 303.71576744 538.63696847 C275.80655596 538.62273608 247.89738555 538.62400268 219.98817444 538.63835144 C188.61227629 538.65442869 157.2364009 538.66077754 125.8604992 538.65151465 C122.51325469 538.65055254 119.16601017 538.64961402 115.81876564 538.64868546 C114.99462493 538.64844822 114.17048421 538.64821099 113.32136954 538.64796657 C100.89543504 538.64455927 88.46951704 538.64853551 76.04358482 538.65612411 C61.90734095 538.66471432 47.77114385 538.66253113 33.63490578 538.64628188 C25.73083613 538.63749516 17.82686786 538.63686581 9.92280092 538.64822041 C4.01109519 538.65577356 -1.90052182 538.64753776 -7.81221744 538.63329668 C-10.19634918 538.62995746 -12.58049456 538.63162351 -14.96461747 538.63892405 C-30.97698134 538.68417836 -46.28770775 538.20887216 -61.31040955 531.99723816 C-62.06185242 531.694953 -62.81329529 531.39266785 -63.58750916 531.08122253 C-69.863539 528.47279193 -75.51272494 525.27388265 -80.99790955 521.24723816 C-82.22960876 520.34618347 -82.22960876 520.34618347 -83.4861908 519.42692566 C-87.63176818 516.29229923 -91.41736152 513.02670552 -94.99790955 509.24723816 C-95.78037048 508.47380066 -96.56283142 507.70036316 -97.3690033 506.90348816 C-119.31013658 484.73414101 -126.16838544 456.37524389 -126.13162231 425.96617126 C-126.13349477 424.56066014 -126.13579718 423.15514954 -126.13848764 421.74963975 C-126.14455832 417.91969906 -126.14447768 414.08978035 -126.14329326 410.25983596 C-126.14308805 406.11654947 -126.1486194 401.97326982 -126.15335083 397.82998657 C-126.16163169 389.7248936 -126.1644045 381.6198079 -126.16496321 373.51471105 C-126.16543954 366.92236074 -126.16750014 360.33001282 -126.17066383 353.73766327 C-126.17946304 335.01951326 -126.1840843 316.30136897 -126.18333336 297.58321688 C-126.1832934 296.5756398 -126.18325345 295.56806272 -126.18321228 294.529953 C-126.1831714 293.52113635 -126.18313052 292.5123197 -126.1830884 291.47293285 C-126.18268203 275.12741621 -126.19225115 258.78192263 -126.20635065 242.43641266 C-126.22073609 225.62588939 -126.22761965 208.81537734 -126.22675687 192.00484776 C-126.22642567 182.57787047 -126.22913888 173.15091735 -126.23993492 163.72394562 C-126.24906845 155.69768736 -126.2511918 147.67146424 -126.2444255 139.64520302 C-126.24117478 135.55612482 -126.24105084 131.4671139 -126.24977875 127.37804222 C-126.25770917 123.62375159 -126.25614656 119.86958088 -126.24749462 116.11529294 C-126.2452619 114.13740032 -126.25273649 112.15950379 -126.26073426 110.18162608 C-126.14574496 79.86915374 -116.853083 52.42858691 -95.62290955 30.43473816 C-78.96441485 14.54509706 -57.5349073 3.10459985 -34.35324764 1.09862804 C-33.44722164 1.01717142 -32.54119563 0.93571479 -31.60771429 0.85178978 C-21.07604591 -0.0178201 -10.56039455 -0.02756804 0 0 Z " fill="#1CD21F" transform="translate(197.99790954589844,189.7527618408203)"/>
<path d="M0 0 C0.91338135 0.46317627 1.8267627 0.92635254 2.76782227 1.40356445 C4.8758258 2.42063536 6.98390311 3.43755336 9.09204102 4.4543457 C10.22174316 5.00944824 11.35144531 5.56455078 12.51538086 6.13647461 C16.35469534 8.01693641 20.22451626 9.82922958 24.09985352 11.6340332 C39.8389411 18.97106622 55.50618281 26.45085035 71.11523438 34.06054688 C72.36789055 34.67104009 73.62057637 35.28147249 74.87329102 35.8918457 C75.50851181 36.2014473 76.1437326 36.51104889 76.79820251 36.83003235 C81.57832032 39.15492392 86.37385663 41.44637413 91.173172 43.7313385 C103.50023326 49.60341246 115.75960844 55.60315956 127.97680664 61.70043945 C131.13869517 63.27650727 134.3047752 64.84393599 137.47094727 66.41137695 C151.63109508 73.45615719 165.45699131 80.97740659 179.14282227 88.90356445 C179.14282227 89.56356445 179.14282227 90.22356445 179.14282227 90.90356445 C180.46282227 91.23356445 181.78282227 91.56356445 183.14282227 91.90356445 C183.14282227 92.56356445 183.14282227 93.22356445 183.14282227 93.90356445 C183.76157227 94.15106445 184.38032227 94.39856445 185.01782227 94.65356445 C187.49350913 96.10985085 188.09407229 97.28168951 189.14282227 99.90356445 C189.80282227 99.90356445 190.46282227 99.90356445 191.14282227 99.90356445 C193.88838417 105.28028984 195.23457944 109.85990867 194.14282227 115.90356445 C192.73667603 119.39940024 191.04307844 122.65276907 189.14282227 125.90356445 C188.48282227 125.90356445 187.82282227 125.90356445 187.14282227 125.90356445 C186.89532227 126.52231445 186.64782227 127.14106445 186.39282227 127.77856445 C184.93653587 130.25425132 183.7646972 130.85481448 181.14282227 131.90356445 C181.14282227 132.56356445 181.14282227 133.22356445 181.14282227 133.90356445 C179.82282227 134.23356445 178.50282227 134.56356445 177.14282227 134.90356445 C177.14282227 135.56356445 177.14282227 136.22356445 177.14282227 136.90356445 C174.6507034 138.59389718 172.16116576 140.1721061 169.58032227 141.71606445 C168.16095689 142.57443638 166.74297685 143.43510334 165.32641602 144.2980957 C164.62758301 144.72300293 163.92875 145.14791016 163.20874023 145.58569336 C161.16927404 146.88669058 159.2410589 148.28123386 157.30297852 149.7277832 C154.14282227 151.90356445 154.14282227 151.90356445 151.14282227 151.90356445 C151.14282227 152.56356445 151.14282227 153.22356445 151.14282227 153.90356445 C150.15282227 153.90356445 149.16282227 153.90356445 148.14282227 153.90356445 C148.14282227 154.56356445 148.14282227 155.22356445 148.14282227 155.90356445 C145.84204102 157.63012695 145.84204102 157.63012695 142.83032227 159.52856445 C141.84418945 160.16020508 140.85805664 160.7918457 139.84204102 161.44262695 C137.14282227 162.90356445 137.14282227 162.90356445 134.14282227 162.90356445 C134.14282227 163.56356445 134.14282227 164.22356445 134.14282227 164.90356445 C133.15282227 164.90356445 132.16282227 164.90356445 131.14282227 164.90356445 C131.14282227 165.56356445 131.14282227 166.22356445 131.14282227 166.90356445 C129.49829102 168.19262695 129.49829102 168.19262695 127.33032227 169.52856445 C126.62262695 169.97458008 125.91493164 170.4205957 125.18579102 170.88012695 C123.14282227 171.90356445 123.14282227 171.90356445 120.14282227 171.90356445 C120.14282227 172.56356445 120.14282227 173.22356445 120.14282227 173.90356445 C119.15282227 173.90356445 118.16282227 173.90356445 117.14282227 173.90356445 C117.14282227 174.56356445 117.14282227 175.22356445 117.14282227 175.90356445 C115.72167969 177.04858398 115.72167969 177.04858398 113.74829102 178.28637695 C112.68578125 178.9534668 112.68578125 178.9534668 111.60180664 179.6340332 C110.8522168 180.09422852 110.10262695 180.55442383 109.33032227 181.02856445 C108.59233398 181.49649414 107.8543457 181.96442383 107.09399414 182.4465332 C101.52545255 185.90356445 101.52545255 185.90356445 98.14282227 185.90356445 C98.14282227 186.56356445 98.14282227 187.22356445 98.14282227 187.90356445 C95.23733344 189.9452593 93.74140181 190.90356445 90.14282227 190.90356445 C90.14282227 191.56356445 90.14282227 192.22356445 90.14282227 192.90356445 C88.53808594 194.14038086 88.53808594 194.14038086 86.31079102 195.50512695 C85.11292969 196.23989258 85.11292969 196.23989258 83.89086914 196.98950195 C83.04588867 197.49739258 82.2009082 198.0052832 81.33032227 198.52856445 C80.49694336 199.04418945 79.66356445 199.55981445 78.80493164 200.09106445 C72.52640982 203.90356445 72.52640982 203.90356445 69.14282227 203.90356445 C69.14282227 204.56356445 69.14282227 205.22356445 69.14282227 205.90356445 C58.63025451 211.97788134 58.63025451 211.97788134 53.86816406 214.71899414 C52.65761807 215.41590751 51.44708754 216.11284773 50.23657227 216.80981445 C49.63073807 217.15860657 49.02490387 217.50739868 48.40071106 217.86676025 C44.7740159 219.95688266 41.15782042 222.06388352 37.54907227 224.18481445 C28.47094073 229.49513491 19.28507908 234.47957722 9.83032227 239.09106445 C8.88133057 239.56125 7.93233887 240.03143555 6.95458984 240.51586914 C-1.6669365 244.62787511 -8.62123491 245.86314834 -17.85717773 242.90356445 C-21.41967773 241.27856445 -21.41967773 241.27856445 -23.85717773 239.90356445 C-23.85717773 239.24356445 -23.85717773 238.58356445 -23.85717773 237.90356445 C-24.78530273 237.53231445 -24.78530273 237.53231445 -25.73217773 237.15356445 C-28.2078646 235.69727806 -28.80842776 234.52543939 -29.85717773 231.90356445 C-30.51717773 231.90356445 -31.17717773 231.90356445 -31.85717773 231.90356445 C-34.81922438 228.03462205 -35.26033854 225.00603627 -35.36175537 220.20497131 C-35.37919438 219.54820353 -35.39663339 218.89143574 -35.41460085 218.21476591 C-35.46829816 216.03043691 -35.50054287 213.84637579 -35.53198242 211.66162109 C-35.56443277 210.09619215 -35.59773036 208.53078057 -35.63181686 206.96538639 C-35.99299338 189.1626207 -36.03938712 171.35425209 -36.05736637 153.5484302 C-36.06035021 150.72981064 -36.06446213 147.91119466 -36.06887054 145.09257698 C-36.08240843 136.22293197 -36.09215373 127.35329567 -36.09607244 118.48364109 C-36.10058926 108.32855339 -36.11836006 98.17359785 -36.14707303 88.01855034 C-36.16870098 80.08993812 -36.17877649 72.16136325 -36.18011355 64.23272187 C-36.18115616 59.52681896 -36.18695359 54.82104272 -36.20493317 50.11517143 C-36.22144457 45.71278832 -36.22355466 41.31062722 -36.21479416 36.90822411 C-36.21402679 35.30144401 -36.21832665 33.69465169 -36.22825241 32.08790207 C-36.3525735 10.70413896 -36.3525735 10.70413896 -28.98217773 2.90356445 C-28.32475586 2.18168945 -27.66733398 1.45981445 -26.98999023 0.71606445 C-19.2578526 -5.85483639 -8.49106964 -4.04340402 0 0 Z " fill="#FEFEFE" transform="translate(380.857177734375,339.096435546875)"/>
<path d="M0 0 C2.2431836 -0.00159239 4.48636671 -0.00406022 6.72954851 -0.00731641 C12.83402197 -0.01367197 18.93842813 -0.00770695 25.04289711 0.00044787 C30.97002842 0.00638893 36.89715241 0.00284255 42.82428417 -0.00038134 C54.94216856 -0.00663024 67.0600334 -0.00351402 79.17791557 0.00521278 C91.18735371 0.01385883 103.19678305 0.01873221 115.20622444 0.01854515 C115.95621151 0.01853751 116.70619858 0.01852986 117.47891253 0.01852198 C120.52424105 0.01848107 123.56956957 0.01841544 126.61489809 0.01831617 C155.14844138 0.01741141 183.68197137 0.02733187 212.21551004 0.04274584 C237.4812048 0.05634447 262.74689011 0.06260802 288.0125885 0.06193542 C289.63268655 0.06189501 291.2527846 0.06185465 292.87288266 0.06181435 C293.67388191 0.06179399 294.47488115 0.06177364 295.30015311 0.06175268 C299.33359327 0.06165186 303.36703343 0.06156128 307.40047359 0.06148243 C308.1964709 0.06146572 308.9924682 0.061449 309.81258664 0.06143178 C331.0046622 0.06106503 352.19673659 0.0656227 373.38881117 0.07180899 C374.14464073 0.07202927 374.90047029 0.07224954 375.67920377 0.07247648 C378.71763158 0.07336456 381.75605938 0.07425304 384.79448718 0.07516744 C395.29235459 0.07830635 405.79022106 0.07983397 416.2880889 0.08027893 C429.84123669 0.08088087 443.39437675 0.08496838 456.94752126 0.09471039 C463.46765955 0.09931841 469.98779054 0.10239334 476.50793076 0.10111618 C492.00641036 0.09898768 507.50400911 0.13160804 523.00209045 0.24723816 C524.43510714 0.25702472 524.43510714 0.25702472 525.89707366 0.26700899 C531.25653137 0.30608887 536.61482457 0.36770467 541.97354472 0.46553018 C543.53520708 0.49196083 545.09698313 0.51257247 546.65880912 0.52626459 C571.77475762 0.76869135 595.19614408 9.6171864 614.00209045 26.24723816 C614.66853577 26.7821991 615.33498108 27.31716003 616.0216217 27.86833191 C619.83253184 30.93200477 622.71591895 34.22199915 625.5450592 38.20817566 C626.46411732 39.49436422 627.42129926 40.7548828 628.4278717 41.97380066 C641.16593007 57.56161332 649.14386825 80.69026504 649.12069416 100.65489864 C649.12166861 101.90602442 649.12264306 103.15715019 649.12364703 104.44618887 C649.11962918 105.82159894 649.11550905 107.19700872 649.11129761 108.57241821 C649.11046678 110.04373487 649.11006861 111.51505182 649.11006469 112.98636872 C649.10873495 117.02144146 649.101046 121.05648062 649.09224927 125.09154308 C649.08382057 129.44690981 649.0811703 133.80228087 649.07765198 138.15765381 C649.06781906 148.67179258 649.04817843 159.18590445 649.02739123 169.70002636 C649.01779764 174.65652342 649.00922947 179.61302224 649.00053978 184.56952095 C648.97124102 201.05481473 648.9394537 217.54010079 648.9003191 234.02537441 C648.8901994 238.30041945 648.88008785 242.57546451 648.87001038 246.85050964 C648.8675035 247.91299425 648.86499663 248.97547887 648.86241379 250.07015998 C648.8222854 267.27279389 648.799091 284.47540651 648.78303174 301.67807805 C648.7662596 319.35633391 648.73452318 337.03451321 648.68814772 354.71271664 C648.66249162 364.63161755 648.64328049 374.55043748 648.64077187 384.4693737 C648.63858366 392.91852199 648.6227463 401.36750851 648.58943937 409.81659376 C648.57287355 414.12238457 648.56254883 418.4279386 648.56974602 422.73376083 C648.57619855 426.68639769 648.56390361 430.63854426 648.53754111 434.59109438 C648.53122361 436.01039277 648.53140185 437.42974067 648.53925679 438.84903138 C648.6077385 452.52305702 645.79531171 465.30738731 640.37709045 477.87223816 C640.04153137 478.66001648 639.70597229 479.4477948 639.36024475 480.25944519 C634.91806217 490.2354047 628.77561848 498.60052136 621.00209045 506.24723816 C619.94940028 507.50895533 618.9068698 508.77925337 617.87709045 510.05973816 C607.15828677 522.34602281 590.49211201 530.78775077 575.00209045 535.24723816 C573.82922319 535.61889066 573.82922319 535.61889066 572.63266164 535.99805129 C561.19204159 539.17534035 549.62320125 538.66414848 537.84405518 538.62818909 C535.37760582 538.63164845 532.91115801 538.63641489 530.44471341 538.64237082 C525.09551894 538.65226624 519.74644431 538.6529027 514.39725494 538.64522934 C506.44248395 538.63384951 498.48778923 538.63969993 490.5330187 538.64885426 C476.32233803 538.66462983 462.1116979 538.66329079 447.90101341 538.65461752 C435.46295879 538.64706369 423.02491901 538.64510408 410.58686256 538.64868546 C409.7610428 538.64891461 408.93522304 538.64914377 408.08437843 538.64937987 C404.73187087 538.65031392 401.37936331 538.65126913 398.02685576 538.65225916 C366.5898164 538.6614321 335.15280282 538.65312266 303.71576744 538.63696847 C275.80655596 538.62273608 247.89738555 538.62400268 219.98817444 538.63835144 C188.61227629 538.65442869 157.2364009 538.66077754 125.8604992 538.65151465 C122.51325469 538.65055254 119.16601017 538.64961402 115.81876564 538.64868546 C114.99462493 538.64844822 114.17048421 538.64821099 113.32136954 538.64796657 C100.89543504 538.64455927 88.46951704 538.64853551 76.04358482 538.65612411 C61.90734095 538.66471432 47.77114385 538.66253113 33.63490578 538.64628188 C25.73083613 538.63749516 17.82686786 538.63686581 9.92280092 538.64822041 C4.01109519 538.65577356 -1.90052182 538.64753776 -7.81221744 538.63329668 C-10.19634918 538.62995746 -12.58049456 538.63162351 -14.96461747 538.63892405 C-30.97698134 538.68417836 -46.28770775 538.20887216 -61.31040955 531.99723816 C-62.06185242 531.694953 -62.81329529 531.39266785 -63.58750916 531.08122253 C-69.863539 528.47279193 -75.51272494 525.27388265 -80.99790955 521.24723816 C-82.22960876 520.34618347 -82.22960876 520.34618347 -83.4861908 519.42692566 C-87.63176818 516.29229923 -91.41736152 513.02670552 -94.99790955 509.24723816 C-95.78037048 508.47380066 -96.56283142 507.70036316 -97.3690033 506.90348816 C-119.31013658 484.73414101 -126.16838544 456.37524389 -126.13162231 425.96617126 C-126.13349477 424.56066014 -126.13579718 423.15514954 -126.13848764 421.74963975 C-126.14455832 417.91969906 -126.14447768 414.08978035 -126.14329326 410.25983596 C-126.14308805 406.11654947 -126.1486194 401.97326982 -126.15335083 397.82998657 C-126.16163169 389.7248936 -126.1644045 381.6198079 -126.16496321 373.51471105 C-126.16543954 366.92236074 -126.16750014 360.33001282 -126.17066383 353.73766327 C-126.17946304 335.01951326 -126.1840843 316.30136897 -126.18333336 297.58321688 C-126.1832934 296.5756398 -126.18325345 295.56806272 -126.18321228 294.529953 C-126.1831714 293.52113635 -126.18313052 292.5123197 -126.1830884 291.47293285 C-126.18268203 275.12741621 -126.19225115 258.78192263 -126.20635065 242.43641266 C-126.22073609 225.62588939 -126.22761965 208.81537734 -126.22675687 192.00484776 C-126.22642567 182.57787047 -126.22913888 173.15091735 -126.23993492 163.72394562 C-126.24906845 155.69768736 -126.2511918 147.67146424 -126.2444255 139.64520302 C-126.24117478 135.55612482 -126.24105084 131.4671139 -126.24977875 127.37804222 C-126.25770917 123.62375159 -126.25614656 119.86958088 -126.24749462 116.11529294 C-126.2452619 114.13740032 -126.25273649 112.15950379 -126.26073426 110.18162608 C-126.14574496 79.86915374 -116.853083 52.42858691 -95.62290955 30.43473816 C-78.96441485 14.54509706 -57.5349073 3.10459985 -34.35324764 1.09862804 C-33.44722164 1.01717142 -32.54119563 0.93571479 -31.60771429 0.85178978 C-21.07604591 -0.0178201 -10.56039455 -0.02756804 0 0 Z M-82.99790955 23.24723816 C-84.31468689 24.19663269 -84.31468689 24.19663269 -85.6580658 25.16520691 C-105.20107653 39.81408459 -117.96711401 62.28232653 -121.99790955 86.24723816 C-122.16033709 87.20630475 -122.32276463 88.16537134 -122.49011421 89.15350056 C-123.24440468 94.50936665 -123.36446646 99.90198575 -123.55232239 105.30172729 C-123.59444977 106.48755266 -123.63657715 107.67337802 -123.67998111 108.89513749 C-124.10902227 122.03094836 -124.14119037 135.1625096 -124.12863421 148.30413544 C-124.12632148 151.90549716 -124.12988822 155.50685455 -124.13261414 159.10821533 C-124.13700988 166.12307008 -124.13612324 173.13791399 -124.13320149 180.15276913 C-124.13092221 185.86697034 -124.13064574 191.58116856 -124.13172531 197.2953701 C-124.13187854 198.11565856 -124.13203178 198.93594702 -124.13218965 199.7810927 C-124.13250945 201.44869934 -124.13283367 203.11630598 -124.13316225 204.78391262 C-124.13599903 220.34214682 -124.13275875 235.90037507 -124.12736188 251.45860829 C-124.12289802 264.73686874 -124.12366985 278.01512044 -124.12828064 291.29338074 C-124.13366282 306.79985389 -124.13572188 322.30632186 -124.13266838 337.81279582 C-124.13234991 339.47441685 -124.13203553 341.13603789 -124.13172531 342.79765892 C-124.13157104 343.61470597 -124.13141676 344.43175302 -124.13125781 345.27355907 C-124.13040334 350.96298123 -124.13183221 356.65240003 -124.13420486 362.34182167 C-124.13704397 369.30121545 -124.13617984 376.26059799 -124.13092412 383.21999053 C-124.12834108 386.75394099 -124.12718706 390.2878729 -124.13057327 393.82182312 C-124.14090089 408.07706992 -124.01729422 422.31985145 -123.59138489 436.568573 C-123.55788598 437.8034388 -123.52438708 439.03830459 -123.48987305 440.31059057 C-122.58586798 467.12194879 -111.03141492 490.7632007 -91.81822205 509.35661316 C-67.22740877 531.93465525 -39.37486842 537.72991357 -7.0687561 537.62818909 C-4.66372761 537.63165052 -2.25870071 537.63641833 0.14632291 537.64237082 C5.35208904 537.65224744 10.55777016 537.65291678 15.76353645 537.64522934 C23.50516491 537.63382855 31.24671522 537.6397107 38.98834324 537.64885426 C52.81993889 537.66461375 66.65149286 537.66329723 80.48309244 537.65461752 C92.58953422 537.64705814 104.69596075 537.64510666 116.8024044 537.64868546 C118.00897886 537.64902919 118.00897886 537.64902919 119.23992855 537.64937987 C122.50556424 537.65031395 125.77119992 537.65126916 129.0368356 537.65225916 C159.64774648 537.6614283 190.2586309 537.65312872 220.8695377 537.63696847 C248.03409747 537.62273661 275.19861504 537.62400303 302.36317444 537.63835144 C332.91509672 537.65443531 363.46699562 537.66077385 394.01892155 537.65151465 C397.27939077 537.65055257 400.53985999 537.64961404 403.80032921 537.64868546 C405.00445674 537.64832961 405.00445674 537.64832961 406.23291008 537.64796657 C418.32629334 537.64456199 430.41965963 537.64853042 442.51304054 537.65612411 C456.27363293 537.66472185 470.03417728 537.6625152 483.79476372 537.64628188 C491.48492754 537.63750772 499.17498718 537.63684743 506.86514817 537.64822041 C512.62283325 537.65579226 518.38041199 537.64751187 524.1380805 537.63329668 C526.45555455 537.62996606 528.77304267 537.63160384 531.09050754 537.63892405 C565.01691974 537.73780463 593.36921532 530.67955957 618.25209045 506.49723816 C624.42231023 500.31699366 628.76078006 493.89550281 633.00209045 486.24723816 C634.06322539 484.62134644 635.12564675 482.99629328 636.18959045 481.37223816 C648.65652717 460.26652737 647.45154748 434.67461826 647.39426446 411.05397975 C647.38740218 406.85827846 647.39799025 402.66261285 647.40620422 398.46691895 C647.41946776 390.2731877 647.41669709 382.07953941 647.4079663 373.88580506 C647.40116134 367.22069304 647.40028512 360.55560409 647.40353775 353.89048958 C647.40399745 352.93798591 647.40445715 351.98548224 647.40493078 351.00411483 C647.40589006 349.06848513 647.4068627 347.13285544 647.40784855 345.19722576 C647.4163807 327.09372021 647.40660234 308.99026042 647.39044745 290.88676239 C647.3770441 275.38735057 647.37937675 259.88800618 647.39320374 244.38859558 C647.40929438 226.34355151 647.4155592 208.29854742 647.40636694 190.25349718 C647.4054114 188.32572179 647.40446829 186.39794638 647.40353775 184.47017097 C647.40284351 183.04780412 647.40284351 183.04780412 647.40213525 181.59670259 C647.39955595 174.94693472 647.4038933 168.29719242 647.41097641 161.64742851 C647.41943036 153.53317489 647.41702992 145.41900823 647.40113418 137.30476444 C647.39330383 133.17283517 647.39006928 129.04105034 647.40008163 124.90912247 C647.46752228 94.44847492 645.3301348 65.68302203 625.00209045 41.24723816 C624.50451233 40.62848816 624.0069342 40.00973816 623.49427795 39.37223816 C609.03881327 22.05361381 590.18829856 9.91203063 568.00209045 5.24723816 C567.05563151 5.0104463 567.05563151 5.0104463 566.09005219 4.76887076 C560.34668861 3.37057213 554.82325689 2.83309561 548.92541504 2.63017464 C547.97234606 2.59255349 547.01927709 2.55493235 546.03732723 2.51617116 C535.10265795 2.12072953 524.16926061 2.10818115 513.22889709 2.12025452 C510.91412392 2.1190993 508.59935094 2.1175091 506.28457832 2.11552727 C499.98782784 2.11138922 493.69109269 2.11339938 487.39434218 2.11651349 C481.28110355 2.11855549 475.16786844 2.11587116 469.05463029 2.11336613 C455.79716149 2.10812493 442.53969754 2.10854678 429.2822283 2.11144504 C417.68488122 2.11396774 406.0875359 2.11461396 394.4901886 2.11342239 C393.71876477 2.11334601 392.94734094 2.11326962 392.15254062 2.11319092 C389.02060339 2.11287955 385.88866615 2.11256115 382.75672892 2.11223116 C353.42886228 2.10917796 324.10099872 2.11193684 294.77313256 2.11732806 C268.7421911 2.12207681 242.71125453 2.12164519 216.68031311 2.11686707 C187.39154263 2.11150883 158.10277485 2.10939078 128.81400394 2.11247933 C125.69049136 2.11280002 122.56697877 2.11311286 119.44346619 2.11342239 C118.2899449 2.11354101 118.2899449 2.11354101 117.11312016 2.11366202 C105.52021148 2.11479763 93.92730477 2.11347278 82.33439636 2.11094284 C69.15389752 2.10808067 55.97340425 2.10880482 42.79290611 2.11422358 C36.07118083 2.11689613 29.34946672 2.11788562 22.62774086 2.11457443 C16.47090532 2.11158738 10.31408887 2.11324436 4.15725505 2.11855198 C1.93425988 2.11966585 -0.28873691 2.11910794 -2.51173103 2.1166762 C-32.63389676 2.08626142 -58.08672137 5.10205171 -82.99790955 23.24723816 Z " fill="#F3EBF3" transform="translate(197.99790954589844,189.7527618408203)"/>
<path d="M0 0 C0.33 0 0.66 0 1 0 C1.09163567 45.079926 1.16207939 90.15984211 1.20426132 135.23984295 C1.2092639 140.56679649 1.21444122 145.89374985 1.21972656 151.22070312 C1.22130043 152.81139596 1.22130043 152.81139596 1.22290608 154.43422401 C1.24029228 171.58560476 1.27182011 188.73693166 1.30861118 205.88828051 C1.34607032 223.49846766 1.36824636 241.10862669 1.37635398 258.71885204 C1.38183144 269.57773889 1.39910643 280.43647351 1.43166587 291.29531348 C1.45287518 298.75036696 1.45918557 306.2053422 1.45400551 313.66042364 C1.45145369 317.95607531 1.45525404 322.25146171 1.4768219 326.54706573 C1.49647637 330.49067706 1.49714956 334.43384805 1.48359558 338.37748086 C1.48192372 339.79364669 1.48683696 341.20984151 1.49953273 342.62595141 C1.61484241 356.29843582 -1.20827628 369.06362193 -6.625 381.625 C-6.96055908 382.41277832 -7.29611816 383.20055664 -7.6418457 384.01220703 C-12.08402828 393.98816654 -18.22647197 402.3532832 -26 410 C-27.05269017 411.26171717 -28.09522065 412.53201521 -29.125 413.8125 C-39.84380369 426.09878465 -56.50997845 434.54051261 -72 439 C-72.78191151 439.24776833 -73.56382302 439.49553666 -74.36942881 439.75081313 C-85.81004886 442.92810219 -97.3788892 442.41691032 -109.15803528 442.38095093 C-111.62448464 442.3844103 -114.09093245 442.38917673 -116.55737704 442.39513266 C-121.90657152 442.40502808 -127.25564614 442.40566454 -132.60483551 442.39799118 C-140.55960651 442.38661135 -148.51430122 442.39246177 -156.46907176 442.4016161 C-170.67975242 442.41739167 -184.89039255 442.41605263 -199.10107705 442.40737936 C-211.53913167 442.39982553 -223.97717145 442.39786592 -236.41522789 442.4014473 C-237.24104765 442.40167645 -238.06686742 442.40190561 -238.91771202 442.40214171 C-242.27021959 442.40307576 -245.62272714 442.40403097 -248.97523469 442.405021 C-280.41227405 442.41419395 -311.84928764 442.4058845 -343.28632302 442.38973031 C-371.1955345 442.37549792 -399.1047049 442.37676452 -427.01391602 442.39111328 C-458.38981417 442.40719053 -489.76568955 442.41353938 -521.14159125 442.40427649 C-524.48883577 442.40331438 -527.83608029 442.40237586 -531.18332481 442.4014473 C-532.00746553 442.40121006 -532.83160624 442.40097283 -533.68072092 442.40072841 C-546.10665542 442.39732111 -558.53257342 442.40129735 -570.95850563 442.40888596 C-585.0947495 442.41747616 -599.23094661 442.41529297 -613.36718468 442.39904372 C-621.27125432 442.390257 -629.1752226 442.38962765 -637.07928954 442.40098225 C-642.99099526 442.40853541 -648.90261228 442.4002996 -654.81430789 442.38605852 C-657.19843963 442.3827193 -659.58258502 442.38438535 -661.96670792 442.39168589 C-677.9790718 442.4369402 -693.2897982 441.961634 -708.3125 435.75 C-709.06394287 435.44771484 -709.81538574 435.14542969 -710.58959961 434.83398438 C-716.86562946 432.22555377 -722.51481539 429.02664449 -728 425 C-729.23169922 424.09894531 -729.23169922 424.09894531 -730.48828125 423.1796875 C-734.63385863 420.04506107 -738.41945197 416.77946737 -742 413 C-742.78246094 412.2265625 -743.56492187 411.453125 -744.37109375 410.65625 C-758.91783506 395.95820529 -768.75990806 376.53160298 -772 356 C-771.67 355.01 -771.34 354.02 -771 353 C-770.34 353.33 -769.68 353.66 -769 354 C-768.36134002 356.52134485 -767.8196622 359.01448829 -767.3125 361.5625 C-761.30767121 388.93839013 -744.22952255 410.70098649 -721 426 C-699.89899356 438.34756695 -677.90951323 440.45601338 -654.07084656 440.38095093 C-651.66581807 440.38441236 -649.26079116 440.38918017 -646.85576755 440.39513266 C-641.65000142 440.40500928 -636.44432029 440.40567862 -631.238554 440.39799118 C-623.49692554 440.38659039 -615.75537524 440.39247254 -608.01374722 440.4016161 C-594.18215156 440.41737559 -580.35059759 440.41605907 -566.51899801 440.40737936 C-554.41255624 440.39981998 -542.30612971 440.3978685 -530.19968605 440.4014473 C-528.9931116 440.40179103 -528.9931116 440.40179103 -527.7621619 440.40214171 C-524.49652621 440.40307579 -521.23089053 440.404031 -517.96525486 440.405021 C-487.35434397 440.41419014 -456.74345956 440.40589056 -426.13255276 440.38973031 C-398.96799299 440.37549845 -371.80347542 440.37676487 -344.63891602 440.39111328 C-314.08699373 440.40719715 -283.53509483 440.41353569 -252.9831689 440.40427649 C-249.72269969 440.40331441 -246.46223047 440.40237588 -243.20176125 440.4014473 C-241.99763372 440.40109145 -241.99763372 440.40109145 -240.76918038 440.40072841 C-228.67579711 440.39732383 -216.58243082 440.40129226 -204.48904991 440.40888596 C-190.72845752 440.41748369 -176.96791318 440.41527704 -163.20732673 440.39904372 C-155.51716292 440.39026956 -147.82710328 440.38960927 -140.13694228 440.40098225 C-134.3792572 440.4085541 -128.62167847 440.40027371 -122.86400995 440.38605852 C-120.54653591 440.3827279 -118.22904779 440.38436568 -115.91158291 440.39168589 C-82.37986869 440.4894161 -53.91356486 433.66102085 -29.25 409.75 C-23.27432048 403.76378136 -19.13462177 397.38731734 -15 390 C-13.93824934 388.3745103 -12.87579566 386.74947948 -11.8125 385.125 C0.69353482 363.95309867 -0.54521401 338.23702247 -0.56726015 314.54287875 C-0.5678908 310.31069575 -0.55120114 306.07857376 -0.53674316 301.84642029 C-0.51407776 294.53538862 -0.50209305 287.2244042 -0.49761391 279.91333961 C-0.49112221 269.34311865 -0.4681322 258.77298268 -0.44127061 248.20279618 C-0.39811784 231.04837678 -0.36808558 213.89396099 -0.34643555 196.73950195 C-0.32539121 180.08746573 -0.29808612 163.43545893 -0.26245117 146.78344727 C-0.26025235 145.75493854 -0.25805352 144.72642982 -0.25578807 143.66675416 C-0.24471755 138.50640734 -0.23352491 133.34606079 -0.22227156 128.18571436 C-0.12924963 85.45716888 -0.05757629 42.72860697 0 0 Z " fill="#FEF9FE" transform="translate(845,286)"/>
<path d="M0 0 C0.33 0 0.66 0 1 0 C1 115.17 1 230.34 1 349 C0.34 348.67 -0.32 348.34 -1 348 C-2.24422489 340.50992145 -2.14046758 333.00963087 -2.12698364 325.43432617 C-2.1281374 324.07021162 -2.12972664 322.70609739 -2.13171089 321.3419838 C-2.13586871 317.61312225 -2.13382965 313.88428644 -2.13072467 310.15542483 C-2.12845648 306.12689465 -2.13195713 302.0983688 -2.13470459 298.06983948 C-2.13914511 290.18794344 -2.13819373 282.30605694 -2.13529195 274.42416054 C-2.13303246 268.02182726 -2.13272776 261.61949665 -2.13381577 255.21716309 C-2.133969 254.30557737 -2.13412223 253.39399165 -2.13428011 252.45478213 C-2.13459983 250.60294866 -2.13492404 248.7511152 -2.1352527 246.89928174 C-2.13810212 229.54841146 -2.13482822 212.19754648 -2.12945233 194.84667706 C-2.12497876 179.94612191 -2.12576581 165.04557455 -2.13037109 150.14501953 C-2.13571598 132.84331096 -2.13783382 115.54160701 -2.13475883 98.23989773 C-2.13444027 96.39736875 -2.1341259 94.55483977 -2.13381577 92.71231079 C-2.13366149 91.80571411 -2.13350721 90.89911744 -2.13334826 89.96504813 C-2.1324833 83.56339807 -2.13394542 77.16175093 -2.13629532 70.76010132 C-2.13909229 62.96940423 -2.13835699 55.17871722 -2.13301457 47.38802129 C-2.13037709 43.41020579 -2.12937337 39.43240714 -2.13266373 35.45459175 C-2.13562536 31.8194225 -2.13403616 28.18428585 -2.12868617 24.54911959 C-2.12702534 22.59877211 -2.13032056 20.64842239 -2.13374341 18.6980772 C-2.13113566 17.5555993 -2.12852791 16.4131214 -2.12584114 15.23602295 C-2.12567879 14.24185741 -2.12551644 13.24769188 -2.12534916 12.22340012 C-2 10 -2 10 -1 9 C-0.76807135 7.48530552 -0.58784762 5.96245438 -0.4375 4.4375 C-0.35371094 3.61121094 -0.26992187 2.78492188 -0.18359375 1.93359375 C-0.12300781 1.29550781 -0.06242187 0.65742188 0 0 Z " fill="#D5E9D5" transform="translate(74,291)"/>
<path d="M0 0 C0.33 0 0.66 0 1 0 C1.04574648 45.2842036 1.08100346 90.56840476 1.10213066 135.8526269 C1.10463217 141.19504558 1.1072208 146.53746421 1.10986328 151.87988281 C1.1103879 152.94349243 1.11091252 154.00710205 1.11145304 155.10294226 C1.12016308 172.34000659 1.13593634 189.57705763 1.15430559 206.81411406 C1.17298799 224.49204654 1.1841132 242.16997204 1.18817699 259.84791398 C1.1909255 270.76206273 1.19961619 281.6761739 1.21583293 292.59031108 C1.22637934 300.06769165 1.22960596 307.5450527 1.22700275 315.02244017 C1.2257178 319.34082973 1.22773072 323.65915348 1.23841095 327.97753143 C1.24810979 331.92781196 1.24865693 335.87798211 1.24179779 339.8282676 C1.24094945 341.26036381 1.24351501 342.69246678 1.24976636 344.1245496 C1.25774988 346.06569195 1.25228918 348.00687586 1.24609566 349.94802475 C1.24723482 351.56791168 1.24723482 351.56791168 1.24839699 353.2205236 C1.00060934 355.99318174 0.43195793 357.6414431 -1 360 C-1.33 360 -1.66 360 -2 360 C-1.92964808 359.16129927 -1.85929616 358.32259853 -1.78681237 357.45848262 C-1.09873137 348.68168828 -0.84837853 339.98590215 -0.84178162 331.18093872 C-0.83720232 329.74167366 -0.83220036 328.3024099 -0.82681805 326.86314762 C-0.81338303 322.9498368 -0.80586169 319.03653454 -0.79939139 315.12320685 C-0.7913222 310.88754778 -0.77764731 306.65190616 -0.76467896 302.41625977 C-0.74300784 295.09150877 -0.72482954 287.76675592 -0.70907402 280.4419899 C-0.6862895 269.85181678 -0.65815896 259.26166307 -0.62875474 248.67150651 C-0.58118352 231.48657935 -0.53789124 214.30164421 -0.49731445 197.11669922 C-0.45790607 180.430495 -0.41646718 163.74429784 -0.37231445 147.05810547 C-0.36822804 145.51337196 -0.36822804 145.51337196 -0.36405908 143.93743171 C-0.35037872 138.77073185 -0.33665863 133.60403209 -0.32291877 128.43733239 C-0.20911863 85.62490303 -0.10227317 42.81245835 0 0 Z " fill="#FEFDFE" transform="translate(845,286)"/>
<path d="M0 0 C0.66 0.33 1.32 0.66 2 1 C0.00080735 3.11998749 -1.94132245 4.70871207 -4.44140625 6.19921875 C-5.10277588 6.59971436 -5.76414551 7.00020996 -6.44555664 7.4128418 C-7.14414795 7.833479 -7.84273926 8.25411621 -8.5625 8.6875 C-15.10009046 12.70345892 -21.2286534 16.91776942 -27 22 C-27.6084375 22.5259375 -28.216875 23.051875 -28.84375 23.59375 C-48.40499045 41.73235478 -55.1193747 67.41745254 -57.85546875 92.86914062 C-57.97535156 93.90361328 -58.09523438 94.93808594 -58.21875 96.00390625 C-58.32123047 96.94049072 -58.42371094 97.8770752 -58.52929688 98.84204102 C-58.76229492 99.91023071 -58.76229492 99.91023071 -59 101 C-59.99 101.495 -59.99 101.495 -61 102 C-61.98844809 73.00552262 -52.94496056 45.61939023 -33.33984375 24 C-23.80878989 14.12610248 -12.69954402 5.42099939 0 0 Z " fill="#EAE7EA" transform="translate(133,199)"/>
<path d="M0 0 C0.99 0.33 1.98 0.66 3 1 C3.71994617 3.54116594 4.26432985 5.97535623 4.75 8.5625 C10.58888179 35.91943799 27.80957976 57.77741131 51 73 C58.35008396 77.18493001 65.99007767 80.31951418 74 83 C74 83.66 74 84.32 74 85 C75.485 85.495 75.485 85.495 77 86 C59.08402771 84.02464921 42.18518524 72.86213998 30 60 C29.21753906 59.2265625 28.43507813 58.453125 27.62890625 57.65625 C13.52814387 43.40882293 0 20.66424803 0 0 Z " fill="#EFEAEF" transform="translate(73,639)"/>
<path d="M0 0 C2.07192491 4.14384981 -0.93976417 9.76437297 -2.30371094 13.96191406 C-7.16448593 28.18973652 -14.20865594 40.42025092 -25 51 C-26.05269017 52.26171717 -27.09522065 53.53201521 -28.125 54.8125 C-39.24292035 67.55626677 -58.96252421 78.60911407 -75.875 80.8125 C-77.421875 80.9053125 -77.421875 80.9053125 -79 81 C-78 79 -78 79 -75.18359375 77.9921875 C-73.94738281 77.62351562 -72.71117187 77.25484375 -71.4375 76.875 C-46.80658292 69.06207905 -26.63955078 53.5830506 -14 31 C-12.93824934 29.3745103 -11.87579566 27.74947948 -10.8125 26.125 C-6.66776451 19.22843194 -3.88842315 11.01179166 -2.48828125 3.11328125 C-2.32714844 2.41589844 -2.16601562 1.71851563 -2 1 C-1.34 0.67 -0.68 0.34 0 0 Z " fill="#F8F4F8" transform="translate(844,645)"/>
<path d="M0 0 C4.48938022 0.89116637 7.45464926 3.43854908 11 6.1875 C20.60845944 13.42184398 30.59923169 18.18478226 42 22 C42 22.66 42 23.32 42 24 C42.99 24.33 43.98 24.66 45 25 C29.63894185 23.30634487 16.67913296 14.96283291 4.875 5.48046875 C3.30795205 4.24315381 1.66130828 3.10753885 0 2 C0 1.34 0 0.68 0 0 Z " fill="#EFEEEF" transform="translate(105,700)"/>
<path d="M0 0 C0.66 0 1.32 0 2 0 C2 13.2 2 26.4 2 40 C1.34 39.67 0.68 39.34 0 39 C-1.35233133 31.0571932 -1.14884491 23.03573447 -1.125 15 C-1.1285678 13.65234281 -1.13247159 12.30468647 -1.13671875 10.95703125 C-1.13478516 9.06017578 -1.13478516 9.06017578 -1.1328125 7.125 C-1.13168457 5.97257813 -1.13055664 4.82015625 -1.12939453 3.6328125 C-1 1 -1 1 0 0 Z " fill="#D6E6D6" transform="translate(73,600)"/>
<path d="M0 0 C2.06517235 4.1303447 -0.92346427 9.74254819 -2.28173828 13.93115234 C-3.51976105 17.49709557 -4.94454313 20.97159084 -6.4375 24.4375 C-6.71335937 25.0867041 -6.98921875 25.7359082 -7.2734375 26.40478516 C-9.34179268 31.05024417 -11.94332955 34.93667307 -15 39 C-15.66 38.67 -16.32 38.34 -17 38 C-15.61429547 34.2183236 -13.835128 31.02501418 -11.6875 27.625 C-7.21133878 20.08374299 -4.02058757 11.78594645 -2.4921875 3.12109375 C-2.32976563 2.42113281 -2.16734375 1.72117187 -2 1 C-1.34 0.67 -0.68 0.34 0 0 Z " fill="#EAE4EA" transform="translate(844,645)"/>
<path d="M0 0 C1.26908203 -0.020625 2.53816406 -0.04125 3.84570312 -0.0625 C5.05291016 -0.06765625 6.26011719 -0.0728125 7.50390625 -0.078125 C8.59646729 -0.0874707 9.68902832 -0.09681641 10.81469727 -0.10644531 C11.68022217 0.01118164 12.54574707 0.12880859 13.4375 0.25 C14.0975 1.24 14.7575 2.23 15.4375 3.25 C14.37390259 3.20456055 14.37390259 3.20456055 13.28881836 3.15820312 C-6.1301323 2.33477003 -6.1301323 2.33477003 -25.5625 2.25 C-25.5625 1.92 -25.5625 1.59 -25.5625 1.25 C-17.0362158 0.30495497 -8.57478522 0.03582156 0 0 Z " fill="#FAF0FA" transform="translate(745.5625,190.75)"/>
<path d="M0 0 C-20.40435512 10.8723936 -20.40435512 10.8723936 -27.3046875 9.5625 C-27.86414063 9.376875 -28.42359375 9.19125 -29 9 C-23.19009376 6.37170908 -17.22832776 4.27767412 -11.20703125 2.18359375 C-8.10781798 1.13395307 -8.10781798 1.13395307 -5.82421875 -0.21484375 C-3.5095086 -1.21111086 -2.32759011 -0.83128218 0 0 Z " fill="#ECE6EC" transform="translate(794,716)"/>
<path d="M0 0 C3.67824322 1.22608107 3.83530237 2.05725644 5.625 5.375 C10.76458032 14.28955743 17.52867893 21.96110266 25 29 C20.81752765 29 19.8825949 27.34869453 16.9375 24.4375 C10.2488176 17.71951094 3.02520115 9.07560344 0 0 Z " fill="#01CD02" transform="translate(86,672)"/>
<path d="M0 0 C5.05485927 0.73094706 9.59903179 2.68380904 14.3125 4.5625 C15.56643555 5.0565332 15.56643555 5.0565332 16.84570312 5.56054688 C18.89863546 6.36998877 20.94997286 7.18323457 23 8 C23 8.66 23 9.32 23 10 C23.99 10.33 24.98 10.66 26 11 C20.70909119 10.43189466 16.23184759 9.18800159 11.3125 7.1875 C10.33700195 6.8152832 10.33700195 6.8152832 9.34179688 6.43554688 C5.43486545 4.87038475 2.74208712 3.20025863 0 0 Z " fill="#EDE6ED" transform="translate(124,714)"/>
<path d="M0 0 C2.52775351 3.79163027 2.22443035 6.80874031 2.125 11.1875 C2.11597656 11.93708984 2.10695313 12.68667969 2.09765625 13.45898438 C2.07412578 15.30612654 2.03825561 17.15310412 2 19 C1.01 19.33 0.02 19.66 -1 20 C-1.02888514 16.85418577 -1.04675923 13.70840531 -1.0625 10.5625 C-1.07087891 9.66466797 -1.07925781 8.76683594 -1.08789062 7.84179688 C-1.09111328 6.98779297 -1.09433594 6.13378906 -1.09765625 5.25390625 C-1.10551147 4.06776733 -1.10551147 4.06776733 -1.11352539 2.85766602 C-1 1 -1 1 0 0 Z " fill="#D4E8D5" transform="translate(73,581)"/>
<path d="M0 0 C0.33 0.66 0.66 1.32 1 2 C-0.02480469 2.26554688 -1.04960937 2.53109375 -2.10546875 2.8046875 C-3.46618989 3.16129028 -4.82686453 3.51807051 -6.1875 3.875 C-7.19780273 4.13603516 -7.19780273 4.13603516 -8.22851562 4.40234375 C-11.17973106 5.17973708 -13.99084475 5.99609274 -16.80078125 7.1953125 C-19 8 -19 8 -22 7 C-17.98871765 4.36201935 -13.84731661 2.73668091 -9.3125 1.25 C-8.63638672 1.01667969 -7.96027344 0.78335938 -7.26367188 0.54296875 C-2.24791729 -1.12395864 -2.24791729 -1.12395864 0 0 Z " fill="#E7EDE7" transform="translate(156,193)"/>
<path d="M0 0 C0.66 0 1.32 0 2 0 C2.1170409 9.40228594 1.88495497 18.62895894 1 28 C0.67 28 0.34 28 0 28 C-0.16855008 24.4375865 -0.33450772 20.87505676 -0.5 17.3125 C-0.54769531 16.30509766 -0.59539062 15.29769531 -0.64453125 14.25976562 C-0.68964844 13.28330078 -0.73476562 12.30683594 -0.78125 11.30078125 C-0.82314453 10.40528564 -0.86503906 9.50979004 -0.90820312 8.5871582 C-0.99822831 6.04993241 -1.08664071 3.53785074 -1 1 C-0.67 0.67 -0.34 0.34 0 0 Z " fill="#EAF0EA" transform="translate(73,600)"/>
<path d="M0 0 C0.66 0.33 1.32 0.66 2 1 C1.21496094 1.68964844 0.42992188 2.37929687 -0.37890625 3.08984375 C-6.60243421 8.63100208 -12.1882856 14.13822419 -17 21 C-17.66 20.67 -18.32 20.34 -19 20 C-7.38202247 4.92134831 -7.38202247 4.92134831 0 0 Z " fill="#02CC02" transform="translate(112,215)"/>
<path d="M0 0 C0.99 0.33 1.98 0.66 3 1 C3.984375 3.80078125 3.984375 3.80078125 4.75 7.3125 C5.14445312 9.03919922 5.14445312 9.03919922 5.546875 10.80078125 C5.9567833 13.69487516 5.98622355 15.30121258 5 18 C2.13609892 12.14202052 0.9877064 6.42590164 0 0 Z " fill="#FCF9FC" transform="translate(73,639)"/>
<path d="M0 0 C3.58770251 1.42893505 4.96510596 3.01508697 6.8125 6.375 C7.25207031 7.14585937 7.69164062 7.91671875 8.14453125 8.7109375 C9.11623296 11.31101605 8.95272312 12.43992191 8 15 C6.85072616 13.06453884 5.70569358 11.12655872 4.5625 9.1875 C3.92441406 8.10855469 3.28632812 7.02960938 2.62890625 5.91796875 C1 3 1 3 0 0 Z " fill="#F8F3F8" transform="translate(825,233)"/>
<path d="M0 0 C0.99 0.33 1.98 0.66 3 1 C2.34 5.29 1.68 9.58 1 14 C0.01 13.67 -0.98 13.34 -2 13 C-1.85769192 11.58297487 -1.71099254 10.1663904 -1.5625 8.75 C-1.48128906 7.96109375 -1.40007812 7.1721875 -1.31640625 6.359375 C-1.02365007 4.17635361 -0.57935581 2.1226818 0 0 Z " fill="#E2EAE3" transform="translate(75,269)"/>
<path d="M0 0 C1.57156655 3.1431331 0.11705576 5.365464 -0.9375 8.625 C-1.31777344 9.81351562 -1.69804688 11.00203125 -2.08984375 12.2265625 C-2.39019531 13.14179688 -2.69054687 14.05703125 -3 15 C-3.66 15 -4.32 15 -5 15 C-4.49026224 10.07253501 -3.91479324 5.61803076 -2 1 C-1.34 0.67 -0.68 0.34 0 0 Z " fill="#F5F3F5" transform="translate(81,255)"/>
<path d="M0 0 C0.66 1.32 1.32 2.64 2 4 C0.35 6.31 -1.3 8.62 -3 11 C-3.66 10.67 -4.32 10.34 -5 10 C-3.66511872 6.40608886 -2.03977277 3.24509304 0 0 Z " fill="#E4EFE5" transform="translate(832,673)"/>
<path d="M0 0 C0.66 0 1.32 0 2 0 C2 4.62 2 9.24 2 14 C1.01 13.34 0.02 12.68 -1 12 C-1.328125 9.43359375 -1.328125 9.43359375 -1.25 6.4375 C-1.23453125 5.44621094 -1.2190625 4.45492187 -1.203125 3.43359375 C-1 1 -1 1 0 0 Z " fill="#EAF0EA" transform="translate(73,570)"/>
<path d="M0 0 C0.66 0 1.32 0 2 0 C2 4.62 2 9.24 2 14 C1.01 13.34 0.02 12.68 -1 12 C-1.328125 9.43359375 -1.328125 9.43359375 -1.25 6.4375 C-1.23453125 5.44621094 -1.2190625 4.45492187 -1.203125 3.43359375 C-1 1 -1 1 0 0 Z " fill="#EAF0EA" transform="translate(73,540)"/>
<path d="M0 0 C0.66 0 1.32 0 2 0 C2 4.62 2 9.24 2 14 C1.01 13.34 0.02 12.68 -1 12 C-1.328125 9.43359375 -1.328125 9.43359375 -1.25 6.4375 C-1.23453125 5.44621094 -1.2190625 4.45492187 -1.203125 3.43359375 C-1 1 -1 1 0 0 Z " fill="#EAF0EA" transform="translate(73,510)"/>
<path d="M0 0 C0.66 0 1.32 0 2 0 C2 4.62 2 9.24 2 14 C1.01 13.34 0.02 12.68 -1 12 C-1.328125 9.43359375 -1.328125 9.43359375 -1.25 6.4375 C-1.23453125 5.44621094 -1.2190625 4.45492188 -1.203125 3.43359375 C-1 1 -1 1 0 0 Z " fill="#EAF0EA" transform="translate(73,480)"/>
<path d="M0 0 C0.66 0 1.32 0 2 0 C2 4.62 2 9.24 2 14 C1.01 13.34 0.02 12.68 -1 12 C-1.328125 9.43359375 -1.328125 9.43359375 -1.25 6.4375 C-1.23453125 5.44621094 -1.2190625 4.45492188 -1.203125 3.43359375 C-1 1 -1 1 0 0 Z " fill="#EAF0EA" transform="translate(73,450)"/>
<path d="M0 0 C0.66 0 1.32 0 2 0 C2 4.62 2 9.24 2 14 C1.01 13.34 0.02 12.68 -1 12 C-1.328125 9.43359375 -1.328125 9.43359375 -1.25 6.4375 C-1.23453125 5.44621094 -1.2190625 4.45492188 -1.203125 3.43359375 C-1 1 -1 1 0 0 Z " fill="#EAF0EA" transform="translate(73,420)"/>
<path d="M0 0 C0.66 0 1.32 0 2 0 C2 4.62 2 9.24 2 14 C1.01 13.34 0.02 12.68 -1 12 C-1.328125 9.43359375 -1.328125 9.43359375 -1.25 6.4375 C-1.23453125 5.44621094 -1.2190625 4.45492188 -1.203125 3.43359375 C-1 1 -1 1 0 0 Z " fill="#EAF0EA" transform="translate(73,390)"/>
<path d="M0 0 C0.66 0 1.32 0 2 0 C2 4.62 2 9.24 2 14 C1.01 13.34 0.02 12.68 -1 12 C-1.328125 9.43359375 -1.328125 9.43359375 -1.25 6.4375 C-1.23453125 5.44621094 -1.2190625 4.45492188 -1.203125 3.43359375 C-1 1 -1 1 0 0 Z " fill="#EAF0EA" transform="translate(73,360)"/>
<path d="M0 0 C0.66 0 1.32 0 2 0 C2 4.62 2 9.24 2 14 C1.01 13.34 0.02 12.68 -1 12 C-1.328125 9.43359375 -1.328125 9.43359375 -1.25 6.4375 C-1.23453125 5.44621094 -1.2190625 4.45492188 -1.203125 3.43359375 C-1 1 -1 1 0 0 Z " fill="#EAF0EA" transform="translate(73,330)"/>
<path d="M0 0 C0.57492188 0.29132812 1.14984375 0.58265625 1.7421875 0.8828125 C3.17257024 1.59057974 4.61445418 2.27592471 6.0703125 2.9296875 C7.08738281 3.39761719 7.08738281 3.39761719 8.125 3.875 C8.80820313 4.18179688 9.49140625 4.48859375 10.1953125 4.8046875 C12.37775735 6.25020292 13.02820858 7.6055861 14 10 C8.63545519 7.5027119 4.3483523 5.02222588 0 1 C0 0.67 0 0.34 0 0 Z " fill="#04CD05" transform="translate(115,705)"/>
<path d="M0 0 C0.66 0.33 1.32 0.66 2 1 C-0.5550839 3.98093122 -3.38281401 5.52359755 -7 7 C-9.19140625 6.578125 -9.19140625 6.578125 -11 6 C-9.21385682 4.96953278 -7.42089982 3.95086764 -5.625 2.9375 C-4.62726563 2.36902344 -3.62953125 1.80054688 -2.6015625 1.21484375 C-1.74304688 0.81394531 -0.88453125 0.41304687 0 0 Z " fill="#E2DFE2" transform="translate(133,199)"/>
<path d="M0 0 C1.43836751 0.11458693 2.87570966 0.24209116 4.3125 0.375 C5.51326172 0.47941406 5.51326172 0.47941406 6.73828125 0.5859375 C9 1 9 1 12 3 C7.66726186 3.92844389 4.33273814 3.92844389 0 3 C0 2.01 0 1.02 0 0 Z " fill="#E2E9E2" transform="translate(760,192)"/>
<path d="M0 0 C0.66 0 1.32 0 2 0 C2.95619733 3.99795892 3.1039592 7.70803922 3.0625 11.8125 C3.05347656 12.97394531 3.04445313 14.13539063 3.03515625 15.33203125 C3.02355469 16.21246094 3.01195312 17.09289062 3 18 C2.67 18 2.34 18 2 18 C2 14.37 2 10.74 2 7 C1.34 7 0.68 7 0 7 C0 4.69 0 2.38 0 0 Z " fill="#E7E7E7" transform="translate(844,279)"/>
<path d="M0 0 C-1.66751148 3.94139078 -4.22710649 6.7892812 -7 10 C-7.67578125 8.203125 -7.67578125 8.203125 -8 6 C-6.85546875 4.296875 -6.85546875 4.296875 -5.1875 2.75 C-4.64480469 2.22921875 -4.10210937 1.7084375 -3.54296875 1.171875 C-2 0 -2 0 0 0 Z " fill="#F3EFF3" transform="translate(105,220)"/>
<path d="M0 0 C4.83256305 0.41421969 6.82679218 2.46413986 10 6 C6.62972148 6 5.93297304 5.50175992 3.3125 3.5625 C2.68988281 3.11003906 2.06726563 2.65757812 1.42578125 2.19140625 C0.95527344 1.79824219 0.48476563 1.40507812 0 1 C0 0.67 0 0.34 0 0 Z " fill="#F8F6F8" transform="translate(794,205)"/>
<path d="M0 0 C0 0.66 0 1.32 0 2 C-1.26607607 2.53229326 -2.53810412 3.05044544 -3.8125 3.5625 C-4.52019531 3.85253906 -5.22789062 4.14257812 -5.95703125 4.44140625 C-8 5 -8 5 -11 4 C-4.39130435 0 -4.39130435 0 0 0 Z " fill="#F4F1F4" transform="translate(145,196)"/>
<path d="M0 0 C3.73884332 2.65654657 5.64978174 4.58110387 7 9 C2.36285097 7.53563715 2.36285097 7.53563715 0.6875 5.0625 C0 3 0 3 0 0 Z " fill="#05CD07" transform="translate(817,225)"/>
<path d="M0 0 C-0.33 0.66 -0.66 1.32 -1 2 C-3.06640625 2.4140625 -3.06640625 2.4140625 -5.5625 2.625 C-6.38878906 2.69976563 -7.21507812 2.77453125 -8.06640625 2.8515625 C-9.02353516 2.92503906 -9.02353516 2.92503906 -10 3 C-10 2.34 -10 1.68 -10 1 C-8.71073008 0.63720544 -7.41846728 0.28503302 -6.125 -0.0625 C-5.40570312 -0.25972656 -4.68640625 -0.45695313 -3.9453125 -0.66015625 C-2 -1 -2 -1 0 0 Z " fill="#F5F3F5" transform="translate(766,725)"/>
<path d="M0 0 C0.95465783 2.16967689 1.14401212 3.56328793 0.3984375 5.82421875 C-0.35870385 7.5684743 -1.17609198 9.28627131 -2 11 C-2.66 11 -3.32 11 -4 11 C-3.39301257 6.87248551 -1.96189209 3.6678852 0 0 Z " fill="#F2EBF2" transform="translate(837,664)"/>
<path d="M0 0 C2.37706418 3.66539668 2.05094317 6.49056835 1.625 10.75 C1.51414062 11.92046875 1.40328125 13.0909375 1.2890625 14.296875 C1.19367188 15.18890625 1.09828125 16.0809375 1 17 C0.67 17 0.34 17 0 17 C-0.19386492 14.35448944 -0.38038267 11.70882217 -0.5625 9.0625 C-0.61857422 8.30775391 -0.67464844 7.55300781 -0.73242188 6.77539062 C-0.86176157 4.85254042 -0.93516912 2.92610452 -1 1 C-0.67 0.67 -0.34 0.34 0 0 Z " fill="#FFFDFF" transform="translate(73,611)"/>
<path d="M0 0 C2.31 1.65 4.62 3.3 7 5 C6.67 5.99 6.34 6.98 6 8 C1.125 4.5 1.125 4.5 0 0 Z " fill="#E1E1E1" transform="translate(803,209)"/>
<path d="M0 0 C2.31 1.98 4.62 3.96 7 6 C6.01 6.33 5.02 6.66 4 7 C1.8125 5.8125 1.8125 5.8125 0 4 C0 2.68 0 1.36 0 0 Z " fill="#FBF8FB" transform="translate(100,693)"/>
<path d="M0 0 C0.66 0 1.32 0 2 0 C1.45773019 3.79588866 -0.20127563 5.47211993 -3 8 C-2.45276317 4.62537285 -1.9451 2.91765 0 0 Z " fill="#F2EEF2" transform="translate(826,683)"/>
<path d="M0 0 C0 0.66 0 1.32 0 2 C0.99 2.33 1.98 2.66 3 3 C-3.625 2.25 -3.625 2.25 -7 0 C-4.3333581 -1.33332095 -2.83319697 -0.67102033 0 0 Z " fill="#E3DDE3" transform="translate(147,722)"/>
<path d="M0 0 C0.99 0.33 1.98 0.66 3 1 C3.33 2.65 3.66 4.3 4 6 C3.01 6.33 2.02 6.66 1 7 C0.67 4.69 0.34 2.38 0 0 Z " fill="#E9EFEA" transform="translate(73,639)"/>
</svg>
