<?xml version="1.0" encoding="UTF-8"?>
<svg width="300" height="300" viewBox="0 0 300 300" fill="none" xmlns="http://www.w3.org/2000/svg">
<path d="M0 0 C0.68875214 -0.00626404 1.37750427 -0.01252808 2.08712769 -0.01898193 C20.91890716 -0.12722828 40.3465293 2.61369925 54.28515625 16.38671875 C60.13996588 22.69837185 61.8113514 27.98259487 61.625 36.56640625 C60.4701505 47.17658604 53.98466516 55.45995772 46.12109375 62.2109375 C39.96452254 66.38623633 33.4820884 66.07249959 26.3125 65.4375 C23.47117265 64.87754529 20.67708761 64.16662431 17.875 63.4375 C0.00166468 58.85249689 -19.34280138 61.75709792 -35.40234375 71 C-49.15255812 80.15268507 -57.37254935 92.47415288 -63.75 107.4375 C-64.06146973 108.15550781 -64.37293945 108.87351562 -64.69384766 109.61328125 C-66.35065335 113.69808135 -66.91420514 116.21139442 -65.6875 120.4375 C-65.6929363 122.18798752 -65.73754755 123.93860943 -65.8125 125.6875 C-65.93340152 145.34608785 -59.44170694 164.83816698 -45.9375 179.33984375 C-32.56593705 191.80604046 -14.36085168 196.07065012 3.515625 195.62109375 C18.80485798 194.61747091 32.20868486 191.11622158 44.3125 181.4375 C45.1478125 180.80972656 45.983125 180.18195313 46.84375 179.53515625 C54.56190448 172.97716739 59.1440654 163.48489783 63.3125 154.4375 C73.1167389 158.79493951 78.874437 168.84971644 83.125 178.25 C87.67876468 190.47326309 86.09871004 204.55960974 81.3125 216.4375 C72.48364472 234.79274993 61.64831433 244.89680899 42.828125 252.04296875 C31.13984907 255.85143157 20.14911272 256.92341581 7.95483398 256.82861328 C5.51293507 256.8125849 3.07270732 256.82852374 0.63085938 256.84765625 C-13.2790936 256.8668267 -26.64654537 255.01000669 -40 251 C-40.70060547 250.80857422 -41.40121094 250.61714844 -42.12304688 250.41992188 C-46.40336386 249.16148425 -48.64108903 247.60496041 -51.6875 244.4375 C-53.0075 244.4375 -54.3275 244.4375 -55.6875 244.4375 C-84.89931218 230.96884767 -108.83937212 202.79900138 -120.6875 173.4375 C-125.47583548 160.3835854 -127.10470387 147.86509205 -127.0625 134 C-127.06118576 132.94261124 -127.06118576 132.94261124 -127.05984497 131.86386108 C-127.01138341 120.00587089 -126.01408767 108.85800345 -122.6875 97.4375 C-122.30948242 96.12966553 -122.30948242 96.12966553 -121.92382812 94.79541016 C-115.09369817 71.77852737 -104.26538478 53.64428785 -87.6875 36.4375 C-87.03394531 35.72078125 -86.38039062 35.0040625 -85.70703125 34.265625 C-72.48601859 20.17072878 -54.00902389 10.10438995 -35.6875 4.4375 C-35.01783203 4.22577148 -34.34816406 4.01404297 -33.65820312 3.79589844 C-22.58907465 0.46671823 -11.47654314 0.048745 0 0 Z M-68.6875 118.4375 C-67.6875 121.4375 -67.6875 121.4375 -67.6875 121.4375 Z M-69.6875 121.4375 C-68.6875 124.4375 -68.6875 124.4375 -68.6875 124.4375 Z M-70.6875 124.4375 C-71.0175 126.7475 -71.3475 129.0575 -71.6875 131.4375 C-69.38078085 128.72200846 -69.38078085 128.72200846 -70.0625 126.25 C-70.26875 125.651875 -70.475 125.05375 -70.6875 124.4375 Z M-72.6875 131.4375 C-73.17042321 133.77011023 -73.64889859 136.10349588 -74.125 138.4375 C-74.25970703 139.08589844 -74.39441406 139.73429688 -74.53320312 140.40234375 C-76.37814654 149.49206495 -76.8440202 158.17056074 -76.8125 167.4375 C-76.81636719 168.57445312 -76.82023437 169.71140625 -76.82421875 170.8828125 C-76.81731937 176.83008154 -76.59534982 182.55809162 -75.6875 188.4375 C-75.3575 188.4375 -75.0275 188.4375 -74.6875 188.4375 C-74.70321045 187.53733154 -74.7189209 186.63716309 -74.73510742 185.7097168 C-75.21275126 154.15096206 -75.21275126 154.15096206 -72.34375 139.921875 C-71.78833329 136.97287674 -71.54873165 134.42101943 -71.6875 131.4375 C-72.0175 131.4375 -72.3475 131.4375 -72.6875 131.4375 Z M-74.6875 188.4375 C-74.6875 190.4175 -74.6875 192.3975 -74.6875 194.4375 C-74.3575 194.4375 -74.0275 194.4375 -73.6875 194.4375 C-73.6875 192.4575 -73.6875 190.4775 -73.6875 188.4375 C-74.0175 188.4375 -74.3475 188.4375 -74.6875 188.4375 Z M-73.6875 194.4375 C-72.6875 198.4375 -72.6875 198.4375 -72.6875 198.4375 Z M-72.6875 198.4375 C-71.6875 202.4375 -71.6875 202.4375 -71.6875 202.4375 Z M-71.6875 202.4375 C-70.6875 206.4375 -70.6875 206.4375 -70.6875 206.4375 Z M-70.6875 206.4375 C-69.6875 209.4375 -69.6875 209.4375 -69.6875 209.4375 Z M-69.6875 209.4375 C-68.6875 212.4375 -68.6875 212.4375 -68.6875 212.4375 Z M-68.6875 212.4375 C-67.6875 214.4375 -67.6875 214.4375 -67.6875 214.4375 Z M-67.6875 215.4375 C-66.6875 217.4375 -66.6875 217.4375 -66.6875 217.4375 Z M-66.6875 217.4375 C-65.6875 219.4375 -65.6875 219.4375 -65.6875 219.4375 Z M-64.6875 222.4375 C-63.6875 224.4375 -63.6875 224.4375 -63.6875 224.4375 Z M-63.6875 224.4375 C-62.6875 226.4375 -62.6875 226.4375 -62.6875 226.4375 Z M-62.6875 226.4375 C-61.6875 228.4375 -61.6875 228.4375 -61.6875 228.4375 Z M-61.6875 228.4375 C-60.6875 230.4375 -60.6875 230.4375 -60.6875 230.4375 Z M-58.6875 233.4375 C-57.6875 235.4375 -57.6875 235.4375 -57.6875 235.4375 Z M-57.6875 235.4375 C-56.6875 237.4375 -56.6875 237.4375 -56.6875 237.4375 Z M-55.6875 238.4375 C-54.6875 240.4375 -54.6875 240.4375 -54.6875 240.4375 Z M-53.6875 241.4375 C-52.6875 243.4375 -52.6875 243.4375 -52.6875 243.4375 Z " fill="#24ACB8" transform="translate(126.6875,-0.4375)"/>
<path d="M0 0 C1.03261835 3.09785505 1.00973044 4.90045146 0.875 8.125 C0.75583055 27.83562768 7.20197895 47.3536166 20.75 61.90234375 C34.12156295 74.36854046 52.32664832 78.63315012 70.203125 78.18359375 C85.49235798 77.17997091 98.89618486 73.67872158 111 64 C111.8353125 63.37222656 112.670625 62.74445313 113.53125 62.09765625 C121.24940448 55.53966739 125.8315654 46.04739783 130 37 C139.8042389 41.35743951 145.561937 51.41221644 149.8125 60.8125 C154.36626468 73.03576309 152.78621004 87.12210974 148 99 C139.17114472 117.35524993 128.33581433 127.45930899 109.515625 134.60546875 C97.82734907 138.41393157 86.83661272 139.48591581 74.64233398 139.39111328 C72.20043507 139.3750849 69.76020732 139.39102374 67.31835938 139.41015625 C53.43913401 139.42919688 40.08927565 137.5655445 26.75 133.625 C26.05777344 133.44195312 25.36554688 133.25890625 24.65234375 133.0703125 C14.9438077 130.2487112 11.14405943 121.87222046 6.49609375 113.65625 C-10.92106904 81.74573223 -13.22924286 44.47617987 -3.87890625 9.640625 C-1.43263997 1.43263997 -1.43263997 1.43263997 0 0 Z " fill="#0DE6E5" transform="translate(60,117)"/>
<path d="M0 0 C40.92 0 81.84 0 124 0 C129.87332539 21.53552643 130.79300693 46.44516773 124 68 C123.78037598 68.69963867 123.56075195 69.39927734 123.33447266 70.12011719 C113.98245601 98.8843524 94.11299126 123.38268025 69 140 C69 135.98177728 70.98507904 133.80810525 73.1875 130.625 C82.09946664 117.30951453 85.31008079 103.93158191 84 88 C82.27148016 79.71298203 77.86536278 70.81704574 71.8125 64.83984375 C70 63 70 63 70 61 C69.401875 60.731875 68.80375 60.46375 68.1875 60.1875 C66 59 66 59 64.62646484 57.46264648 C62.59496588 55.63576112 61.48859683 55.56575155 58.7890625 55.41015625 C57.9626123 55.35053711 57.13616211 55.29091797 56.28466797 55.22949219 C54.96813232 55.14683105 54.96813232 55.14683105 53.625 55.0625 C41.05364142 54.02220488 30.4472497 51.34081085 20 44 C19.36449219 43.56042969 18.72898438 43.12085938 18.07421875 42.66796875 C7.87692718 34.82215905 2.72076105 21.78523051 0.296875 9.51953125 C-0.07463045 6.36662319 0 3.17471976 0 0 Z " fill="#22ADA2" transform="translate(128,97)"/>
</svg>
