<?xml version="1.0" encoding="UTF-8"?>
<svg width="128" height="128" viewBox="0 0 128 128" xmlns="http://www.w3.org/2000/svg">
  <defs>
    <linearGradient id="bg" x1="0" y1="0" x2="0" y2="1">
      <stop offset="0" stop-color="#3daee9"/>
      <stop offset="1" stop-color="#1d99f3"/>
    </linearGradient>
  </defs>
  <rect x="4" y="4" width="120" height="120" rx="26" fill="url(#bg)"/>
  <!-- TV / monitor on the couch -->
  <rect x="18" y="34" width="52" height="34" rx="4" fill="#ffffff" opacity="0.95"/>
  <rect x="24" y="40" width="40" height="22" rx="2" fill="#1d99f3"/>
  <rect x="38" y="68" width="12" height="6" fill="#ffffff" opacity="0.95"/>
  <rect x="30" y="74" width="28" height="4" rx="2" fill="#ffffff" opacity="0.95"/>
  <!-- Second monitor (desktop) -->
  <rect x="64" y="52" width="46" height="30" rx="4" fill="#ffffff" opacity="0.75"/>
  <rect x="69" y="57" width="36" height="20" rx="2" fill="#1467a6"/>
  <rect x="82" y="82" width="12" height="6" fill="#ffffff" opacity="0.75"/>
  <rect x="74" y="88" width="28" height="4" rx="2" fill="#ffffff" opacity="0.75"/>
  <!-- Stylized sofa -->
  <path d="M22 96 h60 a6 6 0 0 1 6 6 v6 h-72 v-6 a6 6 0 0 1 6 -6 z" fill="#ffffff" opacity="0.9"/>
  <rect x="18" y="90" width="10" height="14" rx="3" fill="#ffffff" opacity="0.9"/>
  <rect x="76" y="90" width="10" height="14" rx="3" fill="#ffffff" opacity="0.9"/>
</svg>
