<?xml version="1.0" encoding="UTF-8"?>
<svg height="128px" viewBox="0 0 128 128" width="128px" xmlns="http://www.w3.org/2000/svg" xmlns:xlink="http://www.w3.org/1999/xlink">
    <filter id="a" height="100%" width="100%" x="0%" y="0%">
        <feColorMatrix color-interpolation-filters="sRGB" values="0 0 0 0 1 0 0 0 0 1 0 0 0 0 1 0 0 0 1 0"/>
    </filter>
    <linearGradient id="b" gradientUnits="userSpaceOnUse" x1="13" x2="116" y1="120" y2="120">
        <stop offset="0" stop-color="#3d3846"/>
        <stop offset="0.106796" stop-color="#62596f"/>
        <stop offset="0.259709" stop-color="#3d3846"/>
        <stop offset="0.81068" stop-color="#3d3846"/>
        <stop offset="0.883495" stop-color="#756d84"/>
        <stop offset="1" stop-color="#3d3846"/>
    </linearGradient>
    <linearGradient id="c" gradientTransform="matrix(1 0 0 0.941254 0 -158.84629)" gradientUnits="userSpaceOnUse" x1="88" x2="88" y1="245.253876" y2="289.875183">
        <stop offset="0" stop-color="#585265"/>
        <stop offset="0.875" stop-color="#403b49"/>
        <stop offset="1" stop-color="#423d4c"/>
    </linearGradient>
    <mask id="d">
        <g filter="url(#a)">
            <rect fill-opacity="0.148713" height="153.6" width="153.6" x="-12.8" y="-12.8"/>
        </g>
    </mask>
    <clipPath id="e">
        <rect height="152" width="192"/>
    </clipPath>
    <mask id="f">
        <g filter="url(#a)">
            <rect fill-opacity="0.148713" height="153.6" width="153.6" x="-12.8" y="-12.8"/>
        </g>
    </mask>
    <clipPath id="g">
        <rect height="152" width="192"/>
    </clipPath>
    <mask id="h">
        <g filter="url(#a)">
            <rect fill-opacity="0.148713" height="153.6" width="153.6" x="-12.8" y="-12.8"/>
        </g>
    </mask>
    <clipPath id="i">
        <rect height="152" width="192"/>
    </clipPath>
    <mask id="j">
        <g filter="url(#a)">
            <rect fill-opacity="0.148713" height="153.6" width="153.6" x="-12.8" y="-12.8"/>
        </g>
    </mask>
    <clipPath id="k">
        <rect height="152" width="192"/>
    </clipPath>
    <linearGradient id="l" gradientTransform="matrix(1.399997 0 0 1.4 -26.399803 -268.199997)" gradientUnits="userSpaceOnUse" x1="71.714294" x2="71.714325" y1="247.285721" y2="253.217377">
        <stop offset="0" stop-color="#241f31"/>
        <stop offset="0.240837" stop-color="#46405f"/>
        <stop offset="0.73004" stop-color="#241f31"/>
        <stop offset="0.85046" stop-color="#2b263b"/>
        <stop offset="1" stop-color="#241f31"/>
    </linearGradient>
    <linearGradient id="m" gradientTransform="matrix(1.399997 0 0 1.4 -26.399803 -268.199997)" gradientUnits="userSpaceOnUse" x1="66" x2="66" y1="245.857147" y2="250.142853">
        <stop offset="0" stop-color="#241f31"/>
        <stop offset="0.374999" stop-color="#46405f"/>
        <stop offset="1" stop-color="#241f31"/>
    </linearGradient>
    <mask id="n">
        <g filter="url(#a)">
            <rect fill-opacity="0.148713" height="153.6" width="153.6" x="-12.8" y="-12.8"/>
        </g>
    </mask>
    <clipPath id="o">
        <rect height="152" width="192"/>
    </clipPath>
    <radialGradient id="p" cx="63.464794" cy="191.611404" gradientTransform="matrix(0.485671 1.812551 -1.594685 0.427293 337.736853 -176.907415)" gradientUnits="userSpaceOnUse" r="21.502907">
        <stop offset="0" stop-color="#ffe3cc"/>
        <stop offset="1" stop-color="#ffbe6f"/>
    </radialGradient>
    <path d="m 8 80 v 16 c 0 13.253906 10.746094 24 24 24 h 64 c 13.253906 0 24 -10.746094 24 -24 v -16 c 0 -8.339844 -5.390625 -15.726562 -13.332031 -18.269531 l -29.335938 -9.394531 c -8.671875 -2.777344 -17.992187 -2.777344 -26.664062 0 l -29.335938 9.394531 c -7.941406 2.542969 -13.332031 9.929687 -13.332031 18.269531 z m 0 0" fill="url(#b)"/>
    <path d="m 8 78.46875 v 14.941406 c 0 12.476563 10.746094 22.589844 24 22.589844 h 64 c 13.253906 0 24 -10.113281 24 -22.589844 v -14.941406 c 0 -7.859375 -5.375 -14.820312 -13.316406 -17.25 l -29.367188 -8.972656 c -8.65625 -2.648438 -17.976562 -2.648438 -26.632812 0 l -29.367188 8.972656 c -7.941406 2.429688 -13.316406 9.390625 -13.316406 17.25 z m 0 0" fill="url(#c)"/>
    <path d="m 46.5 43.5 l 15.5 49.5 v 24 h 7 v -22 l 14.238281 -50.878906 z m 0 0" fill="#deddda"/>
    <g mask="url(#d)">
        <g clip-path="url(#e)" transform="matrix(1 0 0 1 -8 -16)">
            <path d="m 64 88 l 8 21 v 25 l -4 -1.070312 v -24.929688 z m 0 0"/>
        </g>
    </g>
    <g mask="url(#f)">
        <g clip-path="url(#g)" transform="matrix(1 0 0 1 -8 -16)">
            <path d="m 83 88 l -8 21 v 25 l 4 -1.070312 v -24.929688 z m 0 0"/>
        </g>
    </g>
    <g mask="url(#h)">
        <g clip-path="url(#i)" transform="matrix(1 0 0 1 -8 -16)">
            <path d="m 37 78.5 l 7 9 l 14 -2 l -8 10 l 19 31 v -16 l -12.199219 -41.324219 z m 0 0"/>
        </g>
    </g>
    <path d="m 32 59 l 5 10 l 14 -2 l -8 10 l 19 31 v -16 l -11.523438 -42.308594 z m 0 0" fill="#5e5c64"/>
    <g mask="url(#j)">
        <g clip-path="url(#k)" transform="matrix(1 0 0 1 -8 -16)">
            <path d="m 109 78.5 l -7 9 l -14 -2 l 8 10 l -19 31 v -16 l 12.199219 -41.324219 z m 0 0"/>
        </g>
    </g>
    <path d="m 101 60 l -7 9 l -14 -2 l 8 10 l -19 31 v -16 l 12.199219 -41.324219 z m 0 0" fill="#5e5c64"/>
    <path d="m 34.277344 36.722656 h 7.34375 v 13.46875 h -2.449219 c -4.054687 0 -7.34375 -3.289062 -7.34375 -7.347656 v -3.671875 c 0 -1.351563 1.09375 -2.449219 2.449219 -2.449219 z m 0 0" fill="#ff7800"/>
    <path d="m 94.257812 36.722656 h -7.34375 v 13.46875 h 2.449219 c 4.054688 0 7.34375 -3.289062 7.34375 -7.347656 v -3.671875 c 0 -1.351563 -1.097656 -2.449219 -2.449219 -2.449219 z m 0 0" fill="#ff7800"/>
    <path d="m 56 71 l 8 6 h 4 l 7 -6 z m 0 0" fill="#ffbe6f"/>
    <g fill="url(#l)">
        <path d="m 78 75 c 2.667969 2.667969 2.667969 6.667969 0 12 c -6.398438 -0.667969 -9.601562 -2.667969 -9.601562 -6 v -4 c 0.691406 -1.132812 5.765624 -1.449219 9.601562 -2 z m 0 0"/>
        <path d="m 54 75 c -1.386719 2.613281 -3.710938 4.289062 0 12 c 6.398438 -0.667969 9.601562 -2.667969 9.601562 -6 v -4 c -0.691406 -1.132812 -5.765624 -1.449219 -9.601562 -2 z m 0 0"/>
        <path d="m 78 75 c 2.667969 2.667969 2.667969 6.667969 0 12 c -6.398438 -0.667969 -9.601562 -2.667969 -9.601562 -6 v -4 c 0.691406 -1.132812 5.765624 -1.449219 9.601562 -2 z m 0 0"/>
    </g>
    <path d="m 65.511719 75 h 0.976562 c 1.9375 0 3.511719 1.308594 3.511719 2.925781 v 3.148438 c 0 1.617187 -1.574219 2.925781 -3.511719 2.925781 h -0.976562 c -1.9375 0 -3.511719 -1.308594 -3.511719 -2.925781 v -3.148438 c 0 -1.617187 1.574219 -2.925781 3.511719 -2.925781 z m 0 0" fill="url(#m)"/>
    <g mask="url(#n)">
        <g clip-path="url(#o)" transform="matrix(1 0 0 1 -8 -16)">
            <path d="m 56.964844 91 h 30.605468 c 6.082032 0 11.015626 -4.933594 11.015626 -11.015625 v -33.054687 c 0 -14.871094 -12.058594 -26.929688 -26.929688 -26.929688 c -14.535156 0.339844 -26.046875 12.394531 -25.707031 26.929688 v 33.054687 c 0 6.082031 4.933593 11.015625 11.015625 11.015625 z m 0 0"/>
        </g>
    </g>
    <path d="m 48.964844 71 h 30.605468 c 6.082032 0 11.015626 -4.933594 11.015626 -11.015625 v -33.054687 c 0 -14.871094 -12.058594 -26.929688 -26.929688 -26.929688 c -14.535156 0.339844 -26.046875 12.394531 -25.707031 26.929688 v 33.054687 c 0 6.082031 4.933593 11.015625 11.015625 11.015625 z m 0 0" fill="url(#p)"/>
    <path d="m 58.355469 51.910156 h 11.824219 c 1.128906 0 2.042968 0.914063 2.042968 2.046875 c 0 1.128907 -0.914062 2.042969 -2.042968 2.042969 h -11.824219 c -1.128907 0 -2.046875 -0.914062 -2.046875 -2.042969 c 0 -1.132812 0.917968 -2.046875 2.046875 -2.046875 z m 0 0" fill="#ff7800"/>
    <path d="m 37.949219 30 h 52.636719 v 2 h -52.636719 z m 0 0" fill="#241f31"/>
    <path d="m 62 30.429688 v 5.46875 c 0 2.265624 -1.644531 4.101562 -3.671875 4.101562 h -3.671875 c -4.058594 0 -7.347656 -3.671875 -7.347656 -8.203125 v -1.367187 z m 0 0" fill="#241f31"/>
    <path d="m 66 30.429688 v 5.46875 c 0 2.265624 1.644531 4.101562 3.671875 4.101562 h 3.671875 c 4.058594 0 7.347656 -3.671875 7.347656 -8.203125 v -1.367187 z m 0 0" fill="#241f31"/>
</svg>
