<?xml version="1.0" encoding="UTF-8" standalone="no"?>
<!-- Created with Inkscape (http://www.inkscape.org/) -->

<svg
   width="210mm"
   height="297mm"
   viewBox="0 0 210 297"
   version="1.1"
   id="svg5"
   inkscape:version="1.2.2 (b0a8486541, 2022-12-01)"
   sodipodi:docname="com.github.aerocyber.sitemarker.svg"
   xmlns:inkscape="http://www.inkscape.org/namespaces/inkscape"
   xmlns:sodipodi="http://sodipodi.sourceforge.net/DTD/sodipodi-0.dtd"
   xmlns="http://www.w3.org/2000/svg"
   xmlns:svg="http://www.w3.org/2000/svg">
  <sodipodi:namedview
     id="namedview7"
     pagecolor="#ffffff"
     bordercolor="#000000"
     borderopacity="0.25"
     inkscape:showpageshadow="2"
     inkscape:pageopacity="0.0"
     inkscape:pagecheckerboard="0"
     inkscape:deskcolor="#d1d1d1"
     inkscape:document-units="mm"
     showgrid="false"
     inkscape:zoom="0.59213249"
     inkscape:cx="328.47379"
     inkscape:cy="533.66435"
     inkscape:window-width="1366"
     inkscape:window-height="699"
     inkscape:window-x="0"
     inkscape:window-y="0"
     inkscape:window-maximized="1"
     inkscape:current-layer="layer1" />
  <defs
     id="defs2" />
  <g
     inkscape:label="Layer 1"
     inkscape:groupmode="layer"
     id="layer1">
    <g
       id="g2739"
       style="stroke:#7c63e0;stroke-opacity:1"
       transform="matrix(1.533419,0,0,1.6004235,-57.100048,-90.664259)">
      <path
         id="path2402"
         style="fill:none;stroke:#7c63e0;stroke-width:1.57322;stroke-opacity:1"
         d="M 171.50853,151.0005 A 64.46314,58.529064 0 0 1 107.04539,209.52957 64.46314,58.529064 0 0 1 42.582248,151.0005 64.46314,58.529064 0 0 1 107.04539,92.47144 64.46314,58.529064 0 0 1 171.50853,151.0005 Z" />
      <path
         id="rect2588"
         style="fill:none;stroke:#7c63e0;stroke-width:1.5;stroke-opacity:1"
         d="m 99.958488,119.22658 h 14.173802 c 3.94089,0 7.11352,3.17263 7.11352,7.11352 v 48.26563 c 0,3.94089 -3.17263,7.11352 -7.11352,7.11352 l -7.0869,-19.14742 -7.086902,19.14742 c -1.367923,3.69586 -7.113519,-3.17263 -7.113519,-7.11352 V 126.3401 c 0,-3.94089 3.17263,-7.11352 7.113519,-7.11352 z"
         sodipodi:nodetypes="ssssscssss" />
      <path
         id="rect2692"
         style="fill:none;stroke:#7c63e0;stroke-width:0.768989;stroke-opacity:1"
         d="m 114.69845,131.47068 -11.44699,11.44699 -3.798323,-3.79832 -2.591688,2.59168 3.798321,3.79833 -10e-4,0.001 2.53015,2.53015 14.04034,-14.04034 z" />
      <path
         style="fill:none;stroke:#7c63e0;stroke-width:1.47884;stroke-dasharray:none;stroke-opacity:1"
         d="M 54.612949,116.59226 158.22296,114.99202"
         id="path2703" />
      <path
         style="fill:none;stroke:#7c63e0;stroke-width:1.5;stroke-dasharray:none;stroke-opacity:1"
         d="m 42.394864,146.83383 50.352302,0.80595 m 28.015104,0.16844 50.94662,0.45774"
         id="path2711"
         sodipodi:nodetypes="cccc" />
      <path
         style="fill:none;stroke:#7c63e0;stroke-width:1.5;stroke-dasharray:none;stroke-opacity:1"
         d="m 50.258048,179.85571 44.734622,0.57817 m 22.62528,0.33538 43.65848,0.46796"
         id="path2713"
         sodipodi:nodetypes="cccc" />
      <path
         style="fill:none;stroke:#7c63e0;stroke-width:1.5;stroke-dasharray:none;stroke-opacity:1"
         d="m 106.12591,92.060865 0.75903,27.416105 m 0.14934,43.67124 -0.0666,45.82802"
         id="path2715"
         sodipodi:nodetypes="cccc" />
      <path
         style="fill:none;stroke:#7c63e0;stroke-width:1.49561;stroke-dasharray:none;stroke-opacity:1"
         d="m 69.7921,103.60336 -0.693753,94.80803"
         id="path2717" />
      <path
         style="fill:none;stroke:#7c63e0;stroke-width:1.49675;stroke-dasharray:none;stroke-opacity:1"
         d="M 138.23867,99.420469 140.03345,201.2857"
         id="path2723" />
      <path
         style="fill:none;stroke:#7c63e0;stroke-width:1.5;stroke-dasharray:none;stroke-opacity:1"
         d="m 100.48033,180.38208 13.18629,0.15736"
         id="path2727" />
    </g>
  </g>
</svg>
