<svg version="1.1" id="Layer_1" xmlns="http://www.w3.org/2000/svg" xmlns:xlink="http://www.w3.org/1999/xlink" x="0px" y="0px"
	 width="100%" viewBox="0 0 512 512" enable-background="new 0 0 512 512" xml:space="preserve">
<path fill="#000000" opacity="1.000000" stroke="none" 
	d="
M291.000000,513.000000 
	C194.023544,513.000000 97.547081,513.000000 1.035313,513.000000 
	C1.035313,342.398529 1.035313,171.797028 1.035313,1.097768 
	C171.559799,1.097768 342.119690,1.097768 512.839783,1.097768 
	C512.839783,171.666550 512.839783,342.333252 512.839783,513.000000 
	C439.130341,513.000000 365.315155,513.000000 291.000000,513.000000 
M326.482941,451.000641 
	C332.753143,448.428253 339.177338,446.174133 345.266663,443.227966 
	C370.686371,430.929413 393.396454,414.899292 411.406799,392.929626 
	C419.118530,383.522644 426.178650,373.544128 433.031555,363.482483 
	C438.289673,355.762421 437.908844,355.576141 429.798798,350.962250 
	C408.694916,338.956116 387.568939,326.987457 366.546570,314.839722 
	C341.450317,300.337952 316.462494,285.648560 291.406464,271.077026 
	C283.653046,266.567993 275.830200,262.178436 267.685822,257.532623 
	C324.816010,224.547913 381.427094,191.862900 437.994141,159.203293 
	C436.057892,155.921814 434.469574,153.150543 432.806793,150.424698 
	C420.736023,130.636749 405.841156,113.150879 387.882019,98.612831 
	C370.956970,84.911873 352.379639,73.714989 331.848328,65.918274 
	C310.390503,57.769718 288.243958,53.086571 265.374481,52.111420 
	C256.980896,51.753517 248.486343,52.225269 240.122025,53.112339 
	C229.945984,54.191547 219.726532,55.525177 209.760529,57.784096 
	C188.651642,62.568695 168.851379,70.783249 150.386215,82.185806 
	C130.665558,94.363647 113.118027,109.165115 98.591194,127.137367 
	C84.903168,144.071869 73.713570,162.648605 65.908478,183.178253 
	C57.810364,204.478607 53.158661,226.464233 52.117725,249.155350 
	C51.725208,257.711731 52.559902,266.335052 53.023384,274.917725 
	C53.789436,289.103241 56.777100,302.862549 60.758255,316.489838 
	C67.463707,339.442322 78.186646,360.339508 92.238342,379.562775 
	C102.295273,393.321045 113.816673,405.872070 127.142311,416.446503 
	C144.202393,429.984406 162.672989,441.297852 183.206039,449.098297 
	C204.509293,457.191406 226.490433,462.053040 249.185165,462.814728 
	C260.828156,463.205536 272.558899,461.937012 284.208405,460.934998 
	C298.484070,459.707153 312.302521,456.248291 326.482941,451.000641 
z"/>
<path fill="#FFD700" opacity="1.000000" stroke="none" 
	d="
M326.077820,451.030579 
	C312.302521,456.248291 298.484070,459.707153 284.208405,460.934998 
	C272.558899,461.937012 260.828156,463.205536 249.185165,462.814728 
	C226.490433,462.053040 204.509293,457.191406 183.206039,449.098297 
	C162.672989,441.297852 144.202393,429.984406 127.142311,416.446503 
	C113.816673,405.872070 102.295273,393.321045 92.238342,379.562775 
	C78.186646,360.339508 67.463707,339.442322 60.758255,316.489838 
	C56.777100,302.862549 53.789436,289.103241 53.023384,274.917725 
	C52.559902,266.335052 51.725208,257.711731 52.117725,249.155350 
	C53.158661,226.464233 57.810364,204.478607 65.908478,183.178253 
	C73.713570,162.648605 84.903168,144.071869 98.591194,127.137367 
	C113.118027,109.165115 130.665558,94.363647 150.386215,82.185806 
	C168.851379,70.783249 188.651642,62.568695 209.760529,57.784096 
	C219.726532,55.525177 229.945984,54.191547 240.122025,53.112339 
	C248.486343,52.225269 256.980896,51.753517 265.374481,52.111420 
	C288.243958,53.086571 310.390503,57.769718 331.848328,65.918274 
	C352.379639,73.714989 370.956970,84.911873 387.882019,98.612831 
	C405.841156,113.150879 420.736023,130.636749 432.806793,150.424698 
	C434.469574,153.150543 436.057892,155.921814 437.994141,159.203293 
	C381.427094,191.862900 324.816010,224.547913 267.685822,257.532623 
	C275.830200,262.178436 283.653046,266.567993 291.406464,271.077026 
	C316.462494,285.648560 341.450317,300.337952 366.546570,314.839722 
	C387.568939,326.987457 408.694916,338.956116 429.798798,350.962250 
	C437.908844,355.576141 438.289673,355.762421 433.031555,363.482483 
	C426.178650,373.544128 419.118530,383.522644 411.406799,392.929626 
	C393.396454,414.899292 370.686371,430.929413 345.266663,443.227966 
	C339.177338,446.174133 332.753143,448.428253 326.077820,451.030579 
M62.000000,258.491516 
	C62.370705,265.786194 62.248726,273.145844 63.200676,280.363861 
	C66.623596,306.317749 74.320023,330.883423 87.317551,353.776306 
	C106.491722,387.548279 133.229202,413.529816 167.665955,431.184845 
	C200.904739,448.225677 236.227234,455.431458 273.770325,452.188080 
	C298.494568,450.052094 321.851532,443.701508 343.987518,432.913910 
	C374.658630,417.966858 399.468536,396.024963 418.965210,368.053345 
	C424.235840,360.491669 424.328217,360.297852 416.003418,355.424103 
	C389.747742,340.052765 363.426422,324.793060 337.088318,309.563171 
	C310.036926,293.920837 282.920990,278.390137 255.869904,262.747253 
	C250.835022,259.835724 250.939636,254.994156 255.837875,252.210358 
	C268.261169,245.149902 280.682098,238.084503 293.054932,230.936264 
	C335.523438,206.400650 377.961823,181.812958 420.447693,157.307495 
	C423.144348,155.752060 424.210602,154.316437 422.040222,151.504501 
	C415.650879,143.226456 409.945892,134.338272 402.925171,126.645233 
	C384.345398,106.286186 362.588531,90.206993 337.194122,78.979927 
	C304.467072,64.511055 270.368713,59.230698 235.001740,63.204540 
	C208.997925,66.126328 184.469910,74.200333 161.543289,87.141121 
	C128.027374,106.058975 102.292923,132.544006 84.398125,166.432999 
	C69.405632,194.825623 61.953556,225.296494 62.000000,258.491516 
z"/>
<path fill="#FFFF00" opacity="1.000000" stroke="none" 
	d="
M62.000000,257.995758 
	C61.953556,225.296494 69.405632,194.825623 84.398125,166.432999 
	C102.292923,132.544006 128.027374,106.058975 161.543289,87.141121 
	C184.469910,74.200333 208.997925,66.126328 235.001740,63.204540 
	C270.368713,59.230698 304.467072,64.511055 337.194122,78.979927 
	C362.588531,90.206993 384.345398,106.286186 402.925171,126.645233 
	C409.945892,134.338272 415.650879,143.226456 422.040222,151.504501 
	C424.210602,154.316437 423.144348,155.752060 420.447693,157.307495 
	C377.961823,181.812958 335.523438,206.400650 293.054932,230.936264 
	C280.682098,238.084503 268.261169,245.149902 255.837875,252.210358 
	C250.939636,254.994156 250.835022,259.835724 255.869904,262.747253 
	C282.920990,278.390137 310.036926,293.920837 337.088318,309.563171 
	C363.426422,324.793060 389.747742,340.052765 416.003418,355.424103 
	C424.328217,360.297852 424.235840,360.491669 418.965210,368.053345 
	C399.468536,396.024963 374.658630,417.966858 343.987518,432.913910 
	C321.851532,443.701508 298.494568,450.052094 273.770325,452.188080 
	C236.227234,455.431458 200.904739,448.225677 167.665955,431.184845 
	C133.229202,413.529816 106.491722,387.548279 87.317551,353.776306 
	C74.320023,330.883423 66.623596,306.317749 63.200676,280.363861 
	C62.248726,273.145844 62.370705,265.786194 62.000000,257.995758 
M365.681061,140.169037 
	C364.745636,138.296234 363.883606,136.382446 362.863373,134.557037 
	C353.451752,117.717865 333.240234,107.689583 313.414490,113.813141 
	C294.403687,119.684982 279.375824,141.189438 283.788269,162.543045 
	C288.482635,185.261322 313.725433,203.416702 337.377747,195.089859 
	C363.620972,185.850845 370.763245,165.588623 365.681061,140.169037 
z"/>
<path fill="#000000" opacity="1.000000" stroke="none" 
	d="
M365.826080,140.558838 
	C370.763245,165.588623 363.620972,185.850845 337.377747,195.089859 
	C313.725433,203.416702 288.482635,185.261322 283.788269,162.543045 
	C279.375824,141.189438 294.403687,119.684982 313.414490,113.813141 
	C333.240234,107.689583 353.451752,117.717865 362.863373,134.557037 
	C363.883606,136.382446 364.745636,138.296234 365.826080,140.558838 
z"/>
</svg>