<?xml version="1.0" encoding="UTF-8" standalone="no"?>
<svg
   viewBox="0 0 128 128"
   style="display:inline;enable-background:new"
   version="1.0"
   id="svg11300"
   height="128"
   width="128"
   sodipodi:docname="best-screenshot-icon.svg"
   inkscape:version="1.3.2 (091e20ef0f, 2023-11-25)"
   inkscape:export-filename="best-screenshot-icon.png"
   inkscape:export-xdpi="300"
   inkscape:export-ydpi="300"
   xmlns:inkscape="http://www.inkscape.org/namespaces/inkscape"
   xmlns:sodipodi="http://sodipodi.sourceforge.net/DTD/sodipodi-0.dtd"
   xmlns:xlink="http://www.w3.org/1999/xlink"
   xmlns="http://www.w3.org/2000/svg"
   xmlns:svg="http://www.w3.org/2000/svg"
   xmlns:rdf="http://www.w3.org/1999/02/22-rdf-syntax-ns#"
   xmlns:cc="http://creativecommons.org/ns#"
   xmlns:dc="http://purl.org/dc/elements/1.1/">
  <sodipodi:namedview
     id="namedview1"
     pagecolor="#ffffff"
     bordercolor="#000000"
     borderopacity="0.25"
     inkscape:showpageshadow="2"
     inkscape:pageopacity="0.0"
     inkscape:pagecheckerboard="0"
     inkscape:deskcolor="#d1d1d1"
     inkscape:zoom="3.6930278"
     inkscape:cx="65.528887"
     inkscape:cy="55.374617"
     inkscape:window-width="1920"
     inkscape:window-height="1011"
     inkscape:window-x="1440"
     inkscape:window-y="32"
     inkscape:window-maximized="1"
     inkscape:current-layer="svg11300"
     showgrid="false" />
  <title
     id="title4162">Adwaita Icon Template</title>
  <defs
     id="defs3">
    <linearGradient
       id="linearGradient1078">
      <stop
         style="stop-color:#77767b;stop-opacity:1"
         offset="0"
         id="stop1066" />
      <stop
         id="stop1068"
         offset="0.03571429"
         style="stop-color:#c0bfbc;stop-opacity:1" />
      <stop
         style="stop-color:#9a9996;stop-opacity:1"
         offset="0.07136531"
         id="stop1070" />
      <stop
         id="stop1072"
         offset="0.9285714"
         style="stop-color:#9a9996;stop-opacity:1" />
      <stop
         style="stop-color:#c0bfbc;stop-opacity:1"
         offset="0.96428573"
         id="stop1074" />
      <stop
         style="stop-color:#77767b;stop-opacity:1"
         offset="1"
         id="stop1076" />
    </linearGradient>
    <linearGradient
       id="linearGradient1044">
      <stop
         id="stop1040"
         offset="0"
         style="stop-color:#050582;stop-opacity:1;" />
      <stop
         id="stop1042"
         offset="1"
         style="stop-color:#e94bbc;stop-opacity:0;" />
    </linearGradient>
    <linearGradient
       id="linearGradient1034">
      <stop
         style="stop-color:#157dc6;stop-opacity:1;"
         offset="0"
         id="stop1030" />
      <stop
         style="stop-color:#2d3cc0;stop-opacity:0.1377953;"
         offset="1"
         id="stop1032" />
    </linearGradient>
    <linearGradient
       id="linearGradient6826">
      <stop
         id="stop6822"
         offset="0"
         style="stop-color:#6ccee0;stop-opacity:1;" />
      <stop
         id="stop6824"
         offset="1"
         style="stop-color:#be8ebc;stop-opacity:1;" />
    </linearGradient>
    <radialGradient
       r="225"
       fy="-60.347851"
       fx="106.66667"
       cy="-60.347851"
       cx="106.66667"
       gradientTransform="matrix(0.21428571,0,0,0.32237036,9.1428574,245.58768)"
       gradientUnits="userSpaceOnUse"
       id="radialGradient1018"
       xlink:href="#linearGradient6826" />
    <radialGradient
       r="225"
       fy="189.48123"
       fx="277.15665"
       cy="189.48123"
       cx="277.15665"
       gradientTransform="matrix(0.38857143,0,0,0.52385183,-35.474283,148.05445)"
       gradientUnits="userSpaceOnUse"
       id="radialGradient1020"
       xlink:href="#linearGradient1034" />
    <radialGradient
       r="225"
       fy="81.585953"
       fx="304.48822"
       cy="81.585953"
       cx="304.48822"
       gradientTransform="matrix(0.38857143,0,0,0.2757274,-35.474283,-281.78533)"
       gradientUnits="userSpaceOnUse"
       id="radialGradient1038"
       xlink:href="#linearGradient1044" />
    <linearGradient
       y2="-449.39401"
       x2="457.77481"
       y1="-449.39401"
       x1="88.595871"
       gradientTransform="matrix(0.25,0,0,0.25,-14.148972,400.3485)"
       gradientUnits="userSpaceOnUse"
       id="linearGradient1064"
       xlink:href="#linearGradient1078" />
    <filter
       inkscape:collect="always"
       style="color-interpolation-filters:sRGB"
       id="filter3"
       x="-0.019249262"
       y="-0.014112717"
       width="1.0384985"
       height="1.0282254">
      <feGaussianBlur
         inkscape:collect="always"
         stdDeviation="0.30062397"
         id="feGaussianBlur3" />
    </filter>
    <linearGradient
       inkscape:collect="always"
       xlink:href="#linearGradient1078"
       id="linearGradient3"
       gradientUnits="userSpaceOnUse"
       gradientTransform="matrix(0.25,0,0,0.25,-14.148972,400.3485)"
       x1="538.58405"
       y1="-1211.7336"
       x2="187.37621"
       y2="-1211.7336" />
  </defs>
  <metadata
     id="metadata4">
    <rdf:RDF>
      <cc:Work
         rdf:about="">
        <dc:format>image/svg+xml</dc:format>
        <dc:type
           rdf:resource="http://purl.org/dc/dcmitype/StillImage" />
        <dc:creator>
          <cc:Agent>
            <dc:title>GNOME Design Team</dc:title>
          </cc:Agent>
        </dc:creator>
        <dc:source />
        <cc:license
           rdf:resource="http://creativecommons.org/licenses/by-sa/4.0/" />
        <dc:title>Adwaita Icon Template</dc:title>
        <dc:subject>
          <rdf:Bag />
        </dc:subject>
        <dc:date />
        <dc:rights>
          <cc:Agent>
            <dc:title />
          </cc:Agent>
        </dc:rights>
        <dc:publisher>
          <cc:Agent>
            <dc:title />
          </cc:Agent>
        </dc:publisher>
        <dc:identifier />
        <dc:relation />
        <dc:language />
        <dc:coverage />
        <dc:description />
        <dc:contributor>
          <cc:Agent>
            <dc:title />
          </cc:Agent>
        </dc:contributor>
      </cc:Work>
      <cc:License
         rdf:about="http://creativecommons.org/licenses/by-sa/4.0/">
        <cc:permits
           rdf:resource="http://creativecommons.org/ns#Reproduction" />
        <cc:permits
           rdf:resource="http://creativecommons.org/ns#Distribution" />
        <cc:requires
           rdf:resource="http://creativecommons.org/ns#Notice" />
        <cc:requires
           rdf:resource="http://creativecommons.org/ns#Attribution" />
        <cc:permits
           rdf:resource="http://creativecommons.org/ns#DerivativeWorks" />
        <cc:requires
           rdf:resource="http://creativecommons.org/ns#ShareAlike" />
      </cc:License>
    </rdf:RDF>
  </metadata>
  <rect
     style="font-variation-settings:normal;display:none;opacity:1;vector-effect:none;fill:#12141e;fill-opacity:1;fill-rule:evenodd;stroke-width:0.25;stroke-linecap:butt;stroke-linejoin:miter;stroke-miterlimit:4;stroke-dasharray:none;stroke-dashoffset:0;stroke-opacity:1;-inkscape-stroke:none;marker:none;marker-start:none;marker-mid:none;marker-end:none"
     id="rect3"
     width="146.86621"
     height="133.50337"
     x="-135.21985"
     y="-129.84308"
     rx="7.9999995"
     ry="8"
     transform="scale(-1)" />
  <g
     id="g1"
     transform="translate(0,-8.00001)">
    <g
       transform="translate(0,-172)"
       style="display:inline"
       id="layer1">
      <g
         style="display:inline"
         id="layer9">
        <path
           id="rect1048"
           style="display:inline;opacity:1;vector-effect:none;fill:url(#linearGradient1064);stroke-width:0.25;marker:none;marker-start:none;marker-mid:none;marker-end:none;enable-background:new"
           d="m 15.999995,212 h 76.000008 c 4.432,0 7.999997,3.568 7.999997,8 v 60 c 0,4.432 -3.567997,8 -7.999997,8 H 15.999995 c -4.432,0 -7.9999998,-3.568 -7.9999998,-8 v -60 c 0,-4.432 3.5679998,-8 7.9999998,-8 z" />
        <path
           id="rect929-36-9"
           style="display:inline;opacity:1;vector-effect:none;fill:#deddda;stroke-width:0.25;marker:none;marker-start:none;marker-mid:none;marker-end:none;enable-background:new"
           d="m 15.999995,200.00002 h 76.000008 c 4.432,0 7.999997,3.568 7.999997,8 V 276 c 0,4.432 -3.567997,8 -7.999997,8 H 15.999995 c -4.432,0 -7.9999998,-3.568 -7.9999998,-8 v -67.99998 c 0,-4.432 3.5679998,-8 7.9999998,-8 z" />
        <path
           id="rect946-0-7"
           style="display:inline;opacity:1;vector-effect:none;fill:#000000;fill-opacity:1;stroke-width:0.0112982px;marker:none;marker-start:none;marker-mid:none;marker-end:none;enable-background:new"
           d="m 16,204.00002 h 76 c 2.216,0 4,1.784 4,4 V 276 c 0,2.216 -1.784,4 -4,4 H 16 c -2.216,0 -4,-1.784 -4,-4 v -67.99998 c 0,-2.216 1.784,-4 4,-4 z" />
        <path
           id="rect1012"
           style="display:inline;opacity:1;vector-effect:none;fill:url(#radialGradient1018);stroke-width:0.5;stroke-linejoin:bevel;stroke-dasharray:0.5, 1;stroke-opacity:0.948819;marker:none;marker-start:none;marker-mid:none;marker-end:none;enable-background:new"
           d="m 16,208 h 76 v 68 H 16 Z" />
        <path
           id="rect1036"
           style="display:inline;opacity:0.5;vector-effect:none;fill:url(#radialGradient1038);stroke-width:0.5;stroke-linejoin:bevel;stroke-dasharray:0.5, 1;stroke-opacity:0.948819;marker:none;marker-start:none;marker-mid:none;marker-end:none;enable-background:new"
           transform="scale(1,-1)"
           d="m 16,-276 h 76 v 68 H 16 Z" />
        <path
           id="rect1014"
           style="display:inline;opacity:0.5;vector-effect:none;fill:url(#radialGradient1020);stroke-width:0.5;stroke-linejoin:bevel;stroke-dasharray:0.5, 1;stroke-opacity:0.948819;marker:none;marker-start:none;marker-mid:none;marker-end:none;enable-background:new"
           d="m 16,208 h 76 v 68 H 16 Z" />
        <g
           transform="translate(0,12)"
           style="display:inline;opacity:0.5"
           id="g1010"
           inkscape:label="corners">
          <path
             style="display:inline;fill:none;fill-rule:evenodd;stroke:#ffffff;stroke-width:2;stroke-linecap:round;stroke-linejoin:miter;stroke-miterlimit:4;stroke-dasharray:none;stroke-opacity:1;enable-background:new"
             d="M 19,209 V 199 H 29"
             id="path1171" />
          <path
             id="path1173"
             d="M 89.01415,209 V 199 H 79.014141"
             style="display:inline;fill:none;fill-rule:evenodd;stroke:#ffffff;stroke-width:2;stroke-linecap:round;stroke-linejoin:miter;stroke-miterlimit:4;stroke-dasharray:none;stroke-opacity:1;enable-background:new"
             sodipodi:nodetypes="ccc" />
          <path
             style="display:inline;fill:none;fill-rule:evenodd;stroke:#ffffff;stroke-width:2;stroke-linecap:round;stroke-linejoin:miter;stroke-miterlimit:4;stroke-dasharray:none;stroke-opacity:1;enable-background:new"
             d="m 89.01415,251.01414 v 10 H 79.014141"
             id="path1175"
             sodipodi:nodetypes="ccc" />
          <path
             id="path1177"
             d="m 19,251.01414 v 10 h 10"
             style="display:inline;fill:none;fill-rule:evenodd;stroke:#ffffff;stroke-width:2;stroke-linecap:round;stroke-linejoin:miter;stroke-miterlimit:4;stroke-dasharray:none;stroke-opacity:1;enable-background:new" />
        </g>
      </g>
    </g>
    <path
       d="m 117.55598,50.005173 c -0.96465,-0.237234 -1.98421,-0.04871 -2.80165,0.518084 l -14.19422,9.508142 c -0.47026,0.315304 -0.752543,0.845995 -0.75218,1.414107 v 24.468911 c -3.63e-4,0.568112 0.28192,1.098803 0.75218,1.414107 l 14.2745,9.563362 c 1.09075,0.731145 2.50383,0.762554 3.62568,0.08057 1.03394,-0.660512 1.65176,-1.813774 1.63114,-3.044803 V 53.296191 c 7.8e-4,-1.549801 -1.04223,-2.903678 -2.53545,-3.291118 z"
       id="path2"
       style="display:inline;fill:url(#linearGradient3);fill-opacity:1;stroke-width:0.25;enable-background:new;font-variation-settings:normal;opacity:1;vector-effect:none;stroke-linecap:butt;stroke-linejoin:miter;stroke-miterlimit:4;stroke-dasharray:none;stroke-dashoffset:0;stroke-opacity:1;-inkscape-stroke:none;marker:none;marker-start:none;marker-mid:none;marker-end:none;stop-color:#000000;stop-opacity:1"
       sodipodi:nodetypes="cccccccccccc" />
    <path
       d="m 117.54371,46.323241 c -0.96942,-0.237234 -1.99401,-0.04871 -2.81549,0.518084 l -14.26432,9.508142 c -0.47259,0.315304 -2.756265,0.845995 -2.7559,1.414107 v 24.468911 c -3.65e-4,0.568112 2.28331,1.098803 2.7559,1.414107 l 14.345,9.563362 c 1.09613,0.731145 2.51619,0.762554 3.64358,0.08057 1.03905,-0.660512 1.65992,-1.813774 1.6392,-3.044803 V 49.614259 c 7.8e-4,-1.549801 -1.04738,-2.903678 -2.54797,-3.291118 z"
       id="path1"
       style="display:inline;fill:#deddda;fill-opacity:1;stroke-width:0.424659;enable-background:new"
       sodipodi:nodetypes="cccccccccccc" />
  </g>
  <path
     d="M 72.740912,55.596235 A 18.740915,18.740915 0 1 0 42.073961,70.041647 v 16.22154 a 1.7037196,1.7037196 0 0 0 2.466133,1.524829 l 9.459903,-4.719303 9.462033,4.729951 a 1.7186271,1.7186271 0 0 0 0.760285,0.168242 1.7037196,1.7037196 0 0 0 1.703719,-1.703719 v -16.22154 a 18.70897,18.70897 0 0 0 6.814878,-14.445412 z m -34.074391,0 A 15.333476,15.333476 0 1 1 53.999997,70.929711 15.350513,15.350513 0 0 1 38.666521,55.596235 Z m 3.40744,0 A 11.926037,11.926037 0 1 1 53.999997,67.522272 11.938815,11.938815 0 0 1 42.073961,55.596235 Z"
     id="path1-5"
     style="display:inline;opacity:0.11446897;mix-blend-mode:normal;fill:#000000;fill-opacity:1;stroke-width:0.212965;filter:url(#filter3)" />
  <path
     d="M 72.740912,55.190065 A 18.740915,18.740915 0 1 0 42.073961,69.635477 v 16.22154 a 1.7037196,1.7037196 0 0 0 2.466133,1.524829 l 9.459903,-4.719303 9.462033,4.729951 a 1.7186271,1.7186271 0 0 0 0.760285,0.168242 1.7037196,1.7037196 0 0 0 1.703719,-1.703719 v -16.22154 a 18.70897,18.70897 0 0 0 6.814878,-14.445412 z m -34.074391,0 A 15.333476,15.333476 0 1 1 53.999997,70.523541 15.350513,15.350513 0 0 1 38.666521,55.190065 Z m 3.40744,0 A 11.926037,11.926037 0 1 1 53.999997,67.116102 11.938815,11.938815 0 0 1 42.073961,55.190065 Z"
     id="path3"
     style="stroke-width:0.212965;fill:#ffc333;fill-opacity:1;opacity:1" />
</svg>
