<svg xmlns="http://www.w3.org/2000/svg" viewBox="0 -0.5 32 32" shape-rendering="crispEdges">
<metadata>Made with Pixels to Svg https://codepen.io/shshaw/pen/XbxvNj</metadata>
<path stroke="#4040a0" d="M2 0h10M20 0h10M2 1h10M20 1h10M2 4h2M28 4h2M2 5h2M28 5h2M2 6h2M28 6h2M2 7h2M28 7h2M2 8h2M28 8h2M2 9h2M28 9h2M2 10h2M28 10h2M2 11h2M28 11h2M2 12h2M28 12h2M2 13h2M28 13h2M2 14h2M28 14h2M2 15h2M28 15h2M2 16h2M28 16h2M2 17h2M28 17h2M2 24h2M28 24h2M2 25h2M28 25h2M2 26h2M28 26h2M2 27h2M28 27h2M4 28h2M14 28h4M26 28h2M4 29h2M14 29h4M26 29h2" />
<path stroke="#282830" d="M12 0h2M18 0h2M12 1h2M18 1h2M8 4h2M22 4h2M8 5h2M22 5h2M10 12h2M20 12h2M10 13h2M20 13h2M10 14h4M18 14h4M10 15h4M18 15h4M10 16h2M20 16h2M10 17h2M20 17h2M4 20h4M24 20h4M4 21h4M24 21h4M8 22h2M22 22h2M8 23h2M22 23h2M10 24h2M20 24h2M10 25h2M20 25h2" />
<path stroke="#181830" d="M14 0h4M14 1h4M10 2h2M20 2h2M10 3h2M20 3h2M8 6h2M22 6h2M8 7h2M22 7h2M8 8h2M22 8h2M8 9h2M22 9h2M6 14h2M24 14h2M6 15h2M24 15h2M4 16h2M26 16h2M4 17h2M26 17h2M2 18h2M8 18h2M22 18h2M28 18h2M2 19h2M8 19h2M22 19h2M28 19h2M2 20h2M28 20h2M2 21h2M28 21h2M2 22h2M28 22h2M2 23h2M28 23h2M6 24h2M24 24h2M6 25h2M24 25h2" />
<path stroke="#202060" d="M0 2h2M30 2h2M0 3h2M30 3h2M0 4h2M4 4h2M26 4h2M30 4h2M0 5h2M4 5h2M26 5h2M30 5h2M0 6h2M30 6h2M0 7h2M30 7h2M0 8h2M30 8h2M0 9h2M30 9h2M0 10h2M30 10h2M0 11h2M30 11h2M0 12h2M30 12h2M0 13h2M30 13h2M0 14h2M30 14h2M0 15h2M30 15h2M0 16h2M30 16h2M0 17h2M30 17h2M0 18h2M30 18h2M0 19h2M30 19h2M0 20h2M30 20h2M0 21h2M30 21h2M0 22h2M30 22h2M0 23h2M30 23h2M0 24h2M30 24h2M0 25h2M30 25h2M0 26h2M4 26h2M26 26h2M30 26h2M0 27h2M4 27h2M26 27h2M30 27h2M0 28h4M28 28h4M0 29h4M28 29h4M2 30h6M12 30h8M24 30h6M2 31h6M12 31h8M24 31h6" />
<path stroke="#7070c8" d="M2 2h2M28 2h2M2 3h2M28 3h2M6 4h2M24 4h2M6 5h2M24 5h2M4 6h4M24 6h4M4 7h4M24 7h4M4 8h4M24 8h4M4 9h4M24 9h4M4 10h4M24 10h4M4 11h4M24 11h4M4 12h4M24 12h4M4 13h4M24 13h4M4 14h2M26 14h2M4 15h2M26 15h2M4 24h2M26 24h2M4 25h2M26 25h2" />
<path stroke="#f8f8f8" d="M4 2h6M22 2h6M4 3h6M22 3h6M12 6h2M18 6h2M12 7h2M18 7h2M10 8h2M20 8h2M10 9h2M20 9h2M10 10h2M20 10h2M10 11h2M20 11h2M14 16h4M14 17h4M14 18h4M14 19h4M12 20h8M12 21h8M14 22h4M14 23h4" />
<path stroke="#384040" d="M12 2h8M12 3h8M10 4h12M10 5h12M10 6h2M14 6h4M20 6h2M10 7h2M14 7h4M20 7h2M14 8h4M14 9h4M8 14h2M22 14h2M8 15h2M22 15h2M6 16h4M12 16h2M18 16h2M22 16h4M6 17h4M12 17h2M18 17h2M22 17h4M4 18h4M10 18h2M20 18h2M24 18h4M4 19h4M10 19h2M20 19h2M24 19h4M10 20h2M20 20h2M10 21h2M20 21h2M10 22h2M20 22h2M10 23h2M20 23h2M8 24h2M22 24h2M8 25h2M22 25h2" />
<path stroke="#101010" d="M12 8h2M18 8h2M12 9h2M18 9h2M8 10h2M12 10h2M18 10h2M22 10h2M8 11h2M12 11h2M18 11h2M22 11h2M8 12h2M22 12h2M8 13h2M22 13h2M8 20h2M22 20h2M8 21h2M22 21h2M4 22h4M24 22h4M4 23h4M24 23h4M14 26h4M14 27h4M12 28h2M18 28h2M12 29h2M18 29h2M8 30h4M20 30h4M8 31h4M20 31h4" />
<path stroke="#d8a010" d="M14 10h4M14 11h4M12 12h2M18 12h2M12 13h2M18 13h2M12 26h2M18 26h2M12 27h2M18 27h2M8 28h4M20 28h4M8 29h4M20 29h4" />
<path stroke="#f8e810" d="M14 12h4M14 13h4M8 26h4M20 26h4M8 27h4M20 27h4" />
<path stroke="#704010" d="M14 14h4M14 15h4M6 26h2M24 26h2M6 27h2M24 27h2M6 28h2M24 28h2M6 29h2M24 29h2" />
<path stroke="#b0b0b0" d="M12 18h2M18 18h2M12 19h2M18 19h2M12 22h2M18 22h2M12 23h2M18 23h2M14 24h4M14 25h4" />
<path stroke="#606060" d="M12 24h2M18 24h2M12 25h2M18 25h2" />
</svg>