<?xml version="1.0" encoding="UTF-8" standalone="no"?>
<!-- Created with Inkscape (http://www.inkscape.org/) -->

<svg
   width="127.99999"
   height="127.99999"
   viewBox="0 0 33.866664 33.866664"
   version="1.1"
   id="svg1"
   xmlns="http://www.w3.org/2000/svg"
   xmlns:svg="http://www.w3.org/2000/svg">
  <defs
     id="defs1" />
  <g
     id="layer1">
    <g
       id="g1643"
       transform="matrix(0.61183966,0,0,0.61183966,362.99681,-146.07347)"
       style="display:inline;enable-background:new">
      <path
         style="fill:#fa4b00;fill-opacity:1;stroke:none;stroke-width:1.8;stroke-dasharray:none;stroke-opacity:1"
         id="path89-7-8-7"
         d="m -73.755271,68.31579 -15.844491,9.147822 -15.844488,-9.147822 0,-18.295643 15.844488,-9.147821 15.844492,9.147821 z"
         transform="matrix(0.69632885,-1.2062015,1.2062015,0.69632885,-574.58898,117.14506)" />
      <path
         style="fill:#a52c00;fill-opacity:1;stroke:#be0000;stroke-width:0;stroke-linejoin:round;stroke-dasharray:none;stroke-opacity:1"
         d="m -576.62725,259.97524 26.23639,-0.0754 -13.32701,22.85332 z"
         id="path1633-4-4" />
      <path
         style="fill:#c93a00;fill-opacity:1;stroke:#be0000;stroke-width:0;stroke-linejoin:round;stroke-dasharray:none;stroke-opacity:1"
         d="m -550.66985,259.50897 -25.92404,0.12002 10.99204,-18.49826 z"
         id="path1634-5-4" />
      <path
         style="fill:#c93a00;fill-opacity:1;stroke:#be0000;stroke-width:0;stroke-linejoin:round;stroke-dasharray:none;stroke-opacity:1"
         d="m -576.89948,260.08107 12.90937,22.7779 -23.16854,-4.25407 z"
         id="path1635-0-3" />
      <path
         style="fill:#431205;fill-opacity:1;stroke:#be0000;stroke-width:0;stroke-linejoin:round;stroke-dasharray:none;stroke-opacity:1"
         d="m -544.00735,278.85549 -19.45992,4.13022 13.35294,-23.07643 z"
         id="path1636-36-0" />
      <path
         style="fill:#000000;fill-opacity:1;stroke:#be0000;stroke-width:0;stroke-linejoin:round;stroke-dasharray:none;stroke-opacity:1"
         d="m -543.71838,253.80126 -0.079,25.17015 -5.9558,-19.19116 z"
         id="path1639-6-6" />
      <path
         style="fill:#431205;fill-opacity:1;stroke:#be0000;stroke-width:0;stroke-linejoin:round;stroke-dasharray:none;stroke-opacity:1"
         d="m -544.0066,253.71455 -6.09973,6.09027 -14.71115,-18.15736 z"
         id="path1640-3-8" />
      <path
         style="fill:#431205;fill-opacity:1;stroke:#be0000;stroke-width:0;stroke-linejoin:round;stroke-dasharray:none;stroke-opacity:1"
         d="m -563.82968,283.0708 -1.93403,8.41289 -21.72537,-12.57768 z"
         id="path1641-2-8" />
      <path
         style="fill:#000000;fill-opacity:1;stroke:#be0000;stroke-width:0;stroke-linejoin:round;stroke-dasharray:none;stroke-opacity:1"
         d="m -563.6163,283.21235 19.7561,-4.15525 -21.71031,12.55917 z"
         id="path1642-0-4" />
    </g>
  </g>
</svg>
