<svg xmlns="http://www.w3.org/2000/svg" viewBox="0 -0.5 32 32" shape-rendering="crispEdges">
<metadata>Made with Pixels to Svg https://codepen.io/shshaw/pen/XbxvNj</metadata>
<path stroke="#5595db" d="M10 2h12M10 3h12M6 4h2M22 4h2M6 5h2M22 5h2M4 6h2M4 7h2M2 10h2M2 11h2M2 12h2M2 13h2M2 14h2M2 15h2M2 16h2M2 17h2M2 18h2M2 19h2M2 20h2M2 21h2M4 22h2M4 23h2" />
<path stroke="#7dbff7" d="M8 4h2M8 5h2M4 8h2M4 9h2" />
<path stroke="#3d7bcb" d="M10 4h2M24 4h2M10 5h2M24 5h2M24 6h4M24 7h4M26 8h2M26 9h2M4 10h2M28 10h2M4 11h2M28 11h2M28 12h2M28 13h2M28 14h2M28 15h2M28 16h2M28 17h2M28 18h2M28 19h2M4 20h2M28 20h2M4 21h2M28 21h2M26 22h2M26 23h2M4 24h4M24 24h4M4 25h4M24 25h4" />
<path stroke="#354b74" d="M12 4h8M12 5h8M10 6h2M20 6h4M10 7h2M20 7h4M24 8h2M24 9h2M6 10h2M24 10h2M6 11h2M24 11h2M4 12h2M26 12h2M4 13h2M26 13h2M4 14h2M26 14h2M4 15h2M26 15h2M4 16h2M26 16h2M4 17h2M26 17h2M4 18h2M26 18h2M4 19h2M26 19h2M6 20h2M24 20h2M6 21h2M24 21h2M6 22h2M24 22h2M6 23h2M24 23h2" />
<path stroke="#1b57b3" d="M20 4h2M20 5h2M26 10h2M26 11h2M26 20h2M26 21h2" />
<path stroke="#d8f8f0" d="M6 6h4M6 7h4M6 8h2M6 9h2" />
<path stroke="#ab5d64" d="M12 12h2M18 12h2M12 13h2M18 13h2M10 14h2M16 14h2M10 15h2M16 15h2M10 16h2M10 17h2M12 18h2M12 19h2" />
<path stroke="#f98363" d="M14 12h4M14 13h4M12 14h2M12 15h2M14 16h4M14 17h4" />
<path stroke="#fbc0b0" d="M14 14h2M14 15h2M12 16h2M12 17h2" />
<path stroke="#cba18c" d="M18 14h2M18 15h2M18 16h2M18 17h2" />
<path stroke="#801c09" d="M20 14h2M20 15h2M20 16h2M20 17h2M10 18h2M18 18h4M10 19h2M18 19h4" />
<path stroke="#98583b" d="M14 18h4M14 19h4" />
<path stroke="#483910" d="M12 20h2M18 20h2M12 21h2M18 21h2M10 28h2M20 28h2M10 29h2M20 29h2M8 30h2M22 30h2M8 31h2M22 31h2" />
<path stroke="#785830" d="M14 20h4M14 21h4" />
<path stroke="#a88e51" d="M14 22h4M14 23h4" />
<path stroke="#585858" d="M8 24h4M14 24h4M20 24h4M8 25h4M14 25h4M20 25h4M6 26h2M10 26h2M20 26h2M24 26h2M6 27h2M10 27h2M20 27h2M24 27h2M10 30h2M14 30h4M20 30h2M10 31h2M14 31h4M20 31h2" />
<path stroke="#7a7a78" d="M8 26h2M22 26h2M8 27h2M22 27h2" />
<path stroke="#8f918d" d="M12 26h8M12 27h8M12 28h8M12 29h8" />
<path stroke="#1c2027" d="M6 28h2M24 28h2M6 29h2M24 29h2M6 30h2M24 30h2M6 31h2M24 31h2" />
<path stroke="#484848" d="M8 28h2M22 28h2M8 29h2M22 29h2M12 30h2M18 30h2M12 31h2M18 31h2" />
</svg>