<svg width="60" height="60" viewBox="0 0 60 60" fill="none" xmlns="http://www.w3.org/2000/svg">
<rect width="60" height="60" rx="5" fill="url(#paint0_linear)"/>
<path d="M28.4375 18.666C25.2073 21.8964 24.9124 26.9673 27.5522 30.5342L24.835 33.2515C24.3068 33.7797 24.3068 34.6364 24.835 35.1651C25.3632 35.6933 26.2198 35.6933 26.7486 35.1651L29.4657 32.4478C33.0325 35.0878 38.1032 34.7928 41.3334 31.5625C44.8889 28.0069 44.8889 22.2216 41.3334 18.6666C37.778 15.1115 31.9924 15.111 28.4375 18.666ZM39.4199 29.6488C37.2476 31.8212 33.8924 32.1058 31.4096 30.5039L32.4822 29.4313C33.0104 28.9031 33.0104 28.0464 32.4822 27.5176C31.954 26.9895 31.0973 26.9895 30.5686 27.5176L29.496 28.5903C27.8942 26.1073 28.1789 22.752 30.3511 20.5796C32.8512 18.0794 36.9197 18.0794 39.4199 20.5796C41.92 23.0799 41.92 27.1486 39.4199 29.6488ZM31.1985 35.9569C31.7267 36.4851 31.7267 37.3418 31.1985 37.8705L25.4655 43.6039C24.9373 44.132 24.0806 44.132 23.5519 43.6039C23.0237 43.0757 23.0237 42.219 23.5519 41.6902L29.2855 35.9569C29.8137 35.4287 30.6704 35.4287 31.1985 35.9569ZM16.3961 36.4478C15.868 35.9196 15.868 35.0629 16.3961 34.5341L22.1297 28.8003C22.6579 28.2721 23.5146 28.2721 24.0433 28.8003C24.5715 29.3285 24.5715 30.1852 24.0433 30.7139L18.3097 36.4478C17.781 36.9765 16.9248 36.9765 16.3961 36.4478Z" fill="white"/>
<defs>
<linearGradient id="paint0_linear" x1="1.19587e-06" y1="60.2617" x2="60" y2="60.2614" gradientUnits="userSpaceOnUse">
<stop stop-color="#2096D9"/>
<stop offset="1" stop-color="#5C35EE"/>
</linearGradient>
</defs>
</svg>
