<?xml version="1.0" encoding="UTF-8" standalone="no"?>
<svg
   clip-rule="evenodd"
   fill-rule="evenodd"
   stroke-linejoin="round"
   stroke-miterlimit="1.414"
   viewBox="0 0 512 512"
   version="1.1"
   id="svg15"
   sodipodi:docname="io.github.sigmasd.IRust.svg"
   inkscape:version="1.3 (0e150ed6c4, 2023-07-21)"
   width="512"
   height="512"
   xml:space="preserve"
   xmlns:inkscape="http://www.inkscape.org/namespaces/inkscape"
   xmlns:sodipodi="http://sodipodi.sourceforge.net/DTD/sodipodi-0.dtd"
   xmlns="http://www.w3.org/2000/svg"
   xmlns:svg="http://www.w3.org/2000/svg"><defs
     id="defs15"><rect
       x="48.986397"
       y="534.49622"
       width="232.50606"
       height="212.6347"
       id="rect17" /><rect
       x="85.607491"
       y="476.7915"
       width="245.84119"
       height="274.24905"
       id="rect16" /></defs><sodipodi:namedview
     id="namedview15"
     pagecolor="#ffffff"
     bordercolor="#000000"
     borderopacity="0.25"
     inkscape:showpageshadow="2"
     inkscape:pageopacity="0.0"
     inkscape:pagecheckerboard="0"
     inkscape:deskcolor="#d1d1d1"
     showguides="true"
     inkscape:zoom="0.54682925"
     inkscape:cx="170.98573"
     inkscape:cy="363.0018"
     inkscape:window-width="1366"
     inkscape:window-height="699"
     inkscape:window-x="0"
     inkscape:window-y="0"
     inkscape:window-maximized="1"
     inkscape:current-layer="svg15"><sodipodi:guide
       position="-0.34267242,0.57327586"
       orientation="1,0"
       id="guide17"
       inkscape:locked="false" /></sodipodi:namedview><linearGradient
     id="prefix___Linear1"
     gradientTransform="scale(1,-1)"
     gradientUnits="userSpaceOnUse"
     x1="0"
     x2="1"
     y1="0"
     y2="0"><stop
       offset="0"
       stop-color="#f74c00"
       id="stop1" /><stop
       offset=".33"
       stop-color="#f74c00"
       id="stop2" /><stop
       offset="1"
       stop-color="#f49600"
       id="stop3" /></linearGradient><linearGradient
     id="prefix___Linear2"
     gradientTransform="scale(1,-1)"
     gradientUnits="userSpaceOnUse"
     x1="0"
     x2="1"
     y1="0"
     y2="0"><stop
       offset="0"
       stop-color="#cc3a00"
       id="stop4" /><stop
       offset=".15"
       stop-color="#cc3a00"
       id="stop5" /><stop
       offset=".74"
       stop-color="#f74c00"
       id="stop6" /><stop
       offset="1"
       stop-color="#f74c00"
       id="stop7" /></linearGradient><text
     xml:space="preserve"
     id="text16"
     style="white-space:pre;shape-inside:url(#rect16);display:inline;fill:#ff6600;stroke:#ff0000;stroke-width:3.77953" /><g
     id="g1"
     transform="matrix(1.4066128,0,0,1.4066128,-104.09288,-101.3312)"><text
       xml:space="preserve"
       id="text17"
       style="font-size:66.6667px;white-space:pre;shape-inside:url(#rect17);display:inline;fill:#823300;fill-opacity:1;stroke:#251700;stroke-width:3.77953;stroke-opacity:1"
       transform="matrix(1.579102,0,0,1.579102,29.894051,-523.29578)"><tspan
         x="48.986328"
         y="595.15447"
         id="tspan1">IRUST</tspan></text><path
       style="fill:#552200;stroke:#010101;stroke-width:5;stroke-dasharray:none;stroke-opacity:1"
       d="m 251.99186,311.13271 c -1.43718,-2.27663 -2.85893,-4.78008 -3.15945,-5.56322 -1.02827,-2.67963 -5.10496,-1.58865 -7.93673,2.12399 -5.56273,7.29313 -7.91703,6.7949 -10.85822,-2.29788 -2.07499,-6.4149 -3.75041,-6.70612 -10.20908,-1.77456 -6.11148,4.66646 -7.97936,3.73162 -8.90583,-4.45723 -0.83158,-7.35025 -2.16054,-7.99335 -9.66231,-4.67572 -7.63702,3.37745 -9.0607,2.43541 -8.17329,-5.40823 0.94685,-8.36906 0.14161,-9.07503 -8.1014,-7.10276 -8.69198,2.07969 -9.39674,1.37493 -7.31705,-7.31704 1.97227,-8.24302 1.2663,-9.04826 -7.10276,-8.10141 -7.84364,0.88741 -8.78568,-0.53627 -5.40823,-8.17329 3.31764,-7.50176 2.67454,-8.83072 -4.67572,-9.66231 -8.18884,-0.92646 -9.12369,-2.79434 -4.45723,-8.90582 4.93157,-6.45868 4.64034,-8.13409 -1.77456,-10.20908 -9.09277,-2.94119 -9.591,-5.29549 -2.29788,-10.85823 5.13762,-3.91865 4.71639,-6.40433 -1.71963,-10.14759 C 146.80587,206.60936 145,204.89867 145,203.6456 c 0,-1.25307 1.80587,-2.96376 5.23249,-4.95673 6.43602,-3.74326 6.85725,-6.22894 1.71963,-10.14759 -7.29312,-5.56274 -6.79489,-7.91704 2.29788,-10.85823 6.4149,-2.07499 6.70613,-3.7504 1.77456,-10.20908 -4.66646,-6.11148 -3.73161,-7.97936 4.45723,-8.90582 7.35026,-0.83159 7.99336,-2.16055 4.67572,-9.66231 -3.37745,-7.63702 -2.43541,-9.0607 5.40823,-8.17329 8.36906,0.94685 9.07503,0.14162 7.10276,-8.1014 -2.07969,-8.69198 -1.37493,-9.39674 7.31705,-7.31705 8.24301,1.97228 9.04825,1.2663 8.1014,-7.10276 -0.88741,-7.84364 0.53627,-8.78568 8.17329,-5.40823 7.50177,3.31764 8.83073,2.67454 9.66231,-4.67572 0.92647,-8.188836 2.79435,-9.123686 8.90583,-4.45722 6.45867,4.93156 8.13409,4.64033 10.20908,-1.77457 2.94119,-9.092766 5.29549,-9.590996 10.85822,-2.297876 3.91865,5.137616 6.40432,4.716386 10.14759,-1.71963 1.99296,-3.42662 3.70365,-5.23249 4.95672,-5.23249 1.25307,0 2.96377,1.80587 4.95673,5.23249 3.74326,6.436016 6.22894,6.857246 10.14759,1.71963 5.56274,-7.29312 7.91704,-6.79489 10.85823,2.297876 2.07499,6.4149 3.75041,6.70613 10.20908,1.77457 6.11149,-4.666466 7.97936,-3.731616 8.90582,4.45722 0.8316,7.35026 2.16055,7.99336 9.66231,4.67572 7.63703,-3.37745 9.0607,-2.43541 8.1733,5.40823 -0.94686,8.36906 -0.14162,9.07504 8.1014,7.10276 8.69198,-2.07969 9.39673,-1.37493 7.31705,7.31705 -1.97227,8.24302 -1.2663,9.04825 7.10275,8.1014 7.84366,-0.88741 8.78569,0.53627 5.40823,8.17329 -3.31763,7.50176 -2.67453,8.83072 4.67573,9.66231 8.18885,0.92646 9.12369,2.79434 4.45722,8.90582 -4.93155,6.45868 -4.64033,8.13409 1.77457,10.20908 9.09278,2.94119 9.591,5.29549 2.29788,10.85823 -5.13762,3.91865 -4.71638,6.40433 1.71963,10.14759 3.42663,1.99297 5.23249,3.70366 5.23249,4.95673 0,1.25307 -1.80586,2.96376 -5.23249,4.95673 -6.43601,3.74326 -6.85725,6.22894 -1.71963,10.14759 7.29312,5.56274 6.7949,7.91704 -2.29788,10.85823 -6.4149,2.07499 -6.70612,3.7504 -1.77457,10.20908 4.66646,6.11148 3.73163,7.97936 -4.45722,8.90582 -7.35026,0.83159 -7.99336,2.16055 -4.67573,9.66231 3.37746,7.63702 2.43543,9.0607 -5.40823,8.17329 -8.36905,-0.94685 -9.07503,-0.14161 -7.10275,8.10141 2.07969,8.69197 1.37493,9.39673 -7.31705,7.31704 -8.24302,-1.97227 -9.04826,-1.2663 -8.1014,7.10276 0.8874,7.84364 -0.53627,8.78568 -8.1733,5.40823 -7.50176,-3.31763 -8.83071,-2.67453 -9.66231,4.67572 -0.92646,8.18885 -2.79433,9.12369 -8.90582,4.45723 -6.45866,-4.93156 -8.13409,-4.64034 -10.20907,1.77456 -2.94119,9.09278 -5.29549,9.59101 -10.85823,2.29788 -3.91757,-5.1362 -6.40451,-4.71609 -10.14403,1.71359 -3.87898,6.66946 -5.63431,7.00721 -8.96843,1.72564 z m 22.8797,-27.95426 c 4.23032,-1.08194 9.639,-2.82863 12.01928,-3.88154 l 4.3278,-1.91439 1.2398,-7.96984 c 0.6819,-4.38341 1.5327,-8.41935 1.89068,-8.96875 1.73053,-2.65591 4.73976,-3.07677 12.65087,-1.76927 l 8,1.32218 3.4956,-3.67562 3.49559,-3.67562 -19.09543,-0.5 c -20.45971,-0.53572 -21.16234,-0.71416 -23.93651,-6.0788 -0.77488,-1.49846 -2.53757,-7.50131 -3.91709,-13.33968 -4.53781,-19.2048 -6.15209,-20.57225 -24.29216,-20.57778 L 238.5,212.14534 v 7.5 7.5 h 9.49999 9.50001 v 12.4867 12.4867 l -33.74306,0.2633 -33.74306,0.2633 3.49306,3.67562 3.49306,3.67562 8,-1.32218 c 7.91111,-1.3075 10.92035,-0.88664 12.65087,1.76927 0.35798,0.5494 1.20879,4.58534 1.89068,8.96875 l 1.23981,7.96984 4.35068,1.92451 c 13.61582,6.02292 34.86156,7.67656 49.73952,3.87142 z m -65.00642,-6.10543 c 4.988,-3.92355 2.44766,-10.92742 -3.96342,-10.92742 -6.00021,0 -8.31318,6.17944 -3.94717,10.54545 2.9947,2.99471 4.49683,3.06724 7.91059,0.38197 z m 100.18031,-0.38197 c 2.83781,-2.8378 3.09164,-5.19085 0.89784,-8.32294 -1.04205,-1.48774 -2.58639,-2.22251 -4.67126,-2.22251 -6.56905,0 -9.19881,6.94594 -4.13718,10.92742 3.41376,2.68527 4.9159,2.61274 7.9106,-0.38197 z M 203.5,200.6456 v -26.5 h -7 c -3.85,0 -7,0.20383 -7,0.45295 0,0.24912 0.50711,1.56593 1.12692,2.92626 2.20985,4.85008 0.48502,7.29079 -8.25935,11.68737 l -8.09523,4.07021 0.50094,13.1816 c 0.27552,7.24989 1.0229,14.86911 1.66084,16.93161 l 1.15989,3.75 h 12.953 H 203.5 Z m 121.13801,23.66799 c 2.68399,-2.39814 3.24159,-3.70038 3.63961,-8.5 l 0.47003,-5.66799 h 4.37617 4.37618 v -8.48884 -8.48884 l -7.98141,-4.01297 c -10.27958,-5.16847 -10.68304,-6.41683 -5.50576,-17.03568 l 3.79206,-7.77769 -2.81146,-4.84799 c -4.21572,-7.26946 -18.83923,-21.35891 -27.20048,-26.20709 -3.96387,-2.29842 -11.51828,-5.60312 -16.78757,-7.34379 l -9.58054,-3.16485 -6.23933,6.18387 c -8.33629,8.2622 -10.03474,8.2622 -18.37104,0 l -6.23931,-6.18387 -9.58054,3.16485 c -11.50707,3.80127 -21.28832,9.33434 -29.0706,16.44471 l -5.75508,5.25818 46.43922,0.5 46.43921,0.5 6.69071,3.29514 c 10.26043,5.0532 15.77079,12.86392 16.57142,23.48935 0.62446,8.28745 -1.6211,13.39984 -8.80865,20.05424 l -5.87053,5.43507 2.53001,2.3631 c 3.33682,3.1167 6.91787,9.382 8.24671,14.42823 2.29556,8.71727 10.24514,11.95121 16.23097,6.60286 z m -52.14873,-36.91954 c 2.0829,-1.04372 3.88803,-2.89763 4.47861,-4.59959 0.88342,-2.54591 0.642,-3.16148 -2.25505,-5.75 l -3.24439,-2.89886 h -16.48422 -16.48422 v 6.83333 c 0,3.75834 0.3,7.13334 0.66667,7.5 0.36667,0.36667 7.22916,0.66597 15.24999,0.66512 11.88465,-0.001 15.22903,-0.32511 18.07261,-1.75 z m -92.98927,-5.24845 c 4.06876,-4.06876 1.45064,-11 -4.15498,-11 -3.32063,0 -6.84502,3.11271 -6.84502,6.04545 0,2.64002 4.31452,6.95455 6.95455,6.95455 1.125,0 2.94545,-0.9 4.04545,-2 z m 161.54544,-0.45455 c 2.97591,-2.97591 3.12986,-5.87013 0.45455,-8.54545 -4.06876,-4.06876 -11,-1.45065 -11,4.15499 0,3.32063 3.1127,6.84501 6.04545,6.84501 1.125,0 3.15,-1.10455 4.5,-2.45455 z M 260.5,123.1456 c 3.88815,-3.88816 1.10068,-11 -4.31145,-11 -3.10498,0 -6.68855,3.50341 -6.68855,6.53896 0,3.17505 3.30581,6.46104 6.5,6.46104 1.375,0 3.39999,-0.9 4.5,-2 z"
       id="path1" /></g></svg>
