<svg width="256" height="256" version="1.1" viewBox="0 0 67.733 67.733" xmlns="http://www.w3.org/2000/svg">
 <defs>
  <filter id="a" x="-.061273" y="-.099586" width="1.144" height="1.2339" color-interpolation-filters="sRGB">
   <feFlood flood-color="rgb(0,0,0)" flood-opacity=".50588" in="SourceGraphic" result="flood"/>
   <feGaussianBlur in="SourceGraphic" result="blur" stdDeviation="0.600000"/>
   <feOffset dx="0.600000" dy="0.600000" in="blur" result="offset"/>
   <feComposite in="offset" in2="flood" operator="in" result="comp1"/>
   <feComposite in="SourceGraphic" in2="comp1" result="comp2"/>
  </filter>
  <filter id="b" x="-.047762" y="-.11904" width="1.1131" height="1.2819" color-interpolation-filters="sRGB">
   <feFlood flood-color="rgb(0,0,0)" flood-opacity=".50588" in="SourceGraphic" result="flood"/>
   <feGaussianBlur in="SourceGraphic" result="blur" stdDeviation="0.600000"/>
   <feOffset dx="0.600000" dy="0.600000" in="blur" result="offset"/>
   <feComposite in="offset" in2="flood" operator="in" result="comp1"/>
   <feComposite in="SourceGraphic" in2="comp1" result="comp2"/>
  </filter>
 </defs>
 <rect x="8.7312" y="2.88" width="49.681" height="62.033" fill="#f9f9f9" stroke="#4d4d4d" stroke-linejoin="round" stroke-miterlimit="0" stroke-width="1.5109" style="paint-order:markers stroke fill"/>
 <rect x="9.5318" y="3.6872" width="48.042" height="60.509" fill="#ececec" style="paint-order:markers stroke fill"/>
 <g stroke="#404040">
  <g transform="matrix(1.1367 0 0 1.1367 -11.259 -5.657)" filter="url(#b)" stroke-linejoin="round" stroke-width=".37802">
   <text x="26.943686" y="23.023987" fill="#cc0000" font-family="sans-serif" font-size="19.05px" text-align="end" text-anchor="end" style="line-height:1" xml:space="preserve"><tspan x="26.943686" y="23.023987" fill="#cc0000" stroke="#404040" stroke-width=".37802"/></text>
   <path d="m25.47 28.527c0 0.36894-0.20232 0.55342-0.60697 0.55342h-1.0533c-0.20828 0-0.35704-0.05654-0.4463-0.16959-0.08926-0.11306-0.13389-0.241-0.13389-0.38382v-12.345c0-0.20828 0.05356-0.38977 0.16067-0.54449 0.11306-0.16067 0.29456-0.241 0.54449-0.241h3.5347c1.6662 0 2.9575 0.3987 3.8739 1.1961 0.95806 0.82715 1.4371 2.0084 1.4371 3.5437 0 1.5472-0.53854 2.7849-1.6156 3.7132-1.0235 0.88666-2.3178 1.33-3.8828 1.33-0.49391 0-1.0979-0.04464-1.812-0.13389zm0-5.3556 0.71409 0.08034c0.21423 0.0238 0.50581 0.0357 0.87476 0.0357 0.36894 0 0.76764-0.05654 1.1961-0.1696 0.42845-0.11306 0.80335-0.29456 1.1247-0.54449 0.70814-0.54152 1.0622-1.3508 1.0622-2.4279 0-1.3627-0.604-2.2404-1.812-2.6332-0.3749-0.11902-0.79442-0.17852-1.2586-0.17852h-1.9013zm9.9794-6.998c0-0.20827 0.06843-0.38977 0.2053-0.54449 0.14282-0.15472 0.33919-0.23208 0.58912-0.23208h2.8296c2.3565 0 4.1298 0.58317 5.3199 1.7495 1.1306 1.1187 1.696 2.7165 1.696 4.7933 0 2.2196-0.63673 3.9662-1.9102 5.2396-1.2675 1.2675-3.023 1.9013-5.2664 1.9013h-2.6689c-0.24993 0-0.4463-0.07736-0.58912-0.23208-0.13687-0.16067-0.2053-0.34514-0.2053-0.55342zm3.8918 1.1872h-0.4463c-0.19637 0-0.59805 9e-3 -1.205 0.02678v9.7205l1.455 0.02678h0.05356c2.3029 0 3.7192-0.99377 4.2488-2.9813 0.17257-0.64268 0.25886-1.3538 0.25886-2.1333 0-0.78549-0.09521-1.4609-0.28564-2.0262-0.18447-0.57128-0.46118-1.0533-0.83012-1.446-0.74384-0.79144-1.8269-1.1872-3.2491-1.1872zm9.7741-1.3925c0-0.15472 0.04761-0.28861 0.14282-0.40167 0.10117-0.11306 0.22018-0.1696 0.35704-0.1696h7.248c0.15472 0 0.27076 0.05059 0.34812 0.15174 0.08331 0.09521 0.12497 0.21423 0.12497 0.35704v0.97294c0 0.13687-0.04165 0.25588-0.12497 0.35704-0.07736 0.09521-0.1934 0.14282-0.34812 0.14282h-5.5074v4.4363h4.4363c0.15472 0 0.27076 0.05059 0.34812 0.15174 0.08331 0.10117 0.12497 0.22018 0.12497 0.35704v0.96402c0 0.13687-0.04166 0.25588-0.12497 0.35704-0.07735 0.09521-0.1934 0.14282-0.34812 0.14282h-4.4452v4.7219c0 0.15472-0.05059 0.28861-0.15174 0.40168-0.09521 0.11306-0.21125 0.16959-0.34812 0.16959h-1.2407c-0.13687 0-0.2529-0.05654-0.34812-0.16959-0.09521-0.11306-0.14282-0.24696-0.14282-0.40168z" fill="#c00" aria-label="PDF"/>
  </g>
  <g transform="matrix(1.3459 .11393 -.10997 1.2991 -15.332 -15.876)" fill="#690" filter="url(#a)" stroke-miterlimit="0">
   <rect transform="matrix(-.92866 -.37094 -.28085 .95975 0 0)" x="-58.621" y="24.432" width="15.228" height="4.4815" ry="0" stroke-width=".56126" style="paint-order:markers stroke fill"/>
   <path d="m50.377 53.284c-2.4998 0-4.5261-2.0264-4.5261-4.5261 0-2.4998 2.0264-4.5261 4.5261-4.5261 1.7706 0 3.3027 1.0173 4.0465 2.4988-3.7863 0.0219-4.8056-0.12072-4.7935 2.0566 0.01209 2.1659 1.0513 2.0679 4.7766 2.0314-0.74988 1.4634-2.2722 2.4656-4.0296 2.4656z" stroke-width=".55998" style="paint-order:markers stroke fill"/>
   <path d="m29.043 36.013c2.4998 0 4.5261 2.0264 4.5261 4.5261 0 2.4998-2.0264 4.5261-4.5261 4.5261-1.7706 0-3.3027-1.0173-4.0465-2.4988 3.7863-0.0219 4.8056 0.12072 4.7935-2.0566-0.01209-2.1659-1.0513-2.0679-4.7766-2.0314 0.74988-1.4634 2.2722-2.4656 4.0296-2.4656z" stroke-width=".55998" style="paint-order:markers stroke fill"/>
  </g>
  <g transform="matrix(1.3578 .11494 -.11494 1.3578 -13.251 -18.721)" filter="url(#a)" stroke-linecap="round" stroke-linejoin="round" stroke-miterlimit="0" stroke-width=".54534">
   <path d="m49.954 34.781-3.6096 2.5614 0.24982 0.3524-12.574 8.9212 1.4144 1.9938 12.574-8.9217 0.33327 0.46987 3.6096-2.5609z" fill="#fc0" style="paint-order:markers stroke fill"/>
   <path d="m33.594 46.109 2.1417 3.0187-5.7361 4.446-3.8575 2.3604-2.1417-3.0187 3.1875-2.8213z" fill="#36c" style="paint-order:markers stroke fill"/>
  </g>
 </g>
</svg>
