<svg id="svg" version="1.1" xmlns="http://www.w3.org/2000/svg" style="display: block;" viewBox="0 0 512 512"><path d="M0 0 C168.96 0 337.92 0 512 0 C512 168.96 512 337.92 512 512 C343.04 512 174.08 512 0 512 C0 343.04 0 174.08 0 0 Z " transform="translate(0,0)" style="fill: #FEFEFE;"/><path d="M0 0 C117.15 0 234.3 0 355 0 C355 45.54 355 91.08 355 138 C350.05 144.93 350.05 144.93 345 152 C342.9969765 154.83119668 340.9964356 157.66415398 339 160.5 C333.69632731 168.02144887 328.35584627 175.51565908 323 183 C322.21238281 184.10472656 321.42476563 185.20945313 320.61328125 186.34765625 C315.97467839 192.85365156 311.31037575 199.34009178 306.625 205.8125 C301.31057145 213.16277309 296.06103551 220.55595678 290.83984375 227.97265625 C285.78908898 235.13541851 280.68010346 242.25650065 275.578125 249.3828125 C271.0913244 255.65575984 266.62710578 261.94354291 262.1875 268.25 C254.78649596 278.7457973 247.24646455 289.13967718 239.7109375 299.5390625 C233.36320697 308.31074741 227.07265414 317.11895319 220.83984375 325.97265625 C215.78908898 333.13541851 210.68010346 340.25650065 205.578125 347.3828125 C201.0913244 353.65575984 196.62710578 359.94354291 192.1875 366.25 C186.87703309 373.78281891 181.49349235 381.26040355 176.08984375 388.7265625 C169.72826368 397.52500574 163.43844014 406.37268317 157.1875 415.25 C151.83676794 422.83881175 146.4240262 430.38053773 140.96875 437.89453125 C138.53309533 441.26278528 136.13602349 444.65890766 133.75 448.0625 C132.5125 449.691875 131.275 451.32125 130 453 C128.35 454.711875 126.7 456.42375 125 458.1875 C123.68 459.445625 122.36 460.70375 121 462 C120.67 462.66 120.34 463.32 120 464 C119.34 464 118.68 464 118 464 C116.9275 462.63875 115.855 461.2775 114.75 459.875 C110.28817823 454.35643097 105.71608237 448.96250371 101.0859375 443.5859375 C94.84638897 436.33542414 88.66363721 429.04389715 82.625 421.625 C77.89030487 415.866587 73.02079615 410.24609929 68.125 404.625 C63.98867483 399.8268628 60.01140964 394.902834 56 390 C53.83991976 387.49430692 51.67278759 384.99468205 49.5 382.5 C44.21119785 376.4276716 39.09940685 370.23260837 34 364 C31.83991976 361.49430692 29.67278759 358.99468205 27.5 356.5 C22.21119785 350.4276716 17.09940685 344.23260837 12 338 C8.68671239 334.17941477 5.35833645 330.37299066 2.015625 326.578125 C1.02046875 325.39734375 0.0253125 324.2165625 -1 323 C-2.69252627 320.68535596 -4.36782354 318.35758822 -6 316 C-3.463125 315.649375 -0.92625 315.29875 1.6875 314.9375 C3.33105469 314.66164063 4.97460938 314.38578125 6.66796875 314.1015625 C9.30732422 313.55628906 9.30732422 313.55628906 12 313 C13.72863281 312.51273437 15.45726562 312.02546875 17.23828125 311.5234375 C20.78048829 310.37162853 24.30933016 309.17797336 27.82421875 307.9453125 C31.14932779 306.6955734 34.46544862 305.42150186 37.76953125 304.1171875 C40.76892867 302.84315283 43.75042055 301.52600546 46.7109375 300.1640625 C48.12632812 299.44992187 49.54171875 298.73578125 51 298 C53.83976166 296.4016642 56.65344355 294.75600326 59.4375 293.0625 C61.98030629 291.40829532 64.50333258 289.72305216 67 288 C68.85625 286.5975 70.7125 285.195 72.625 283.75 C75.57361519 281.14424704 78.51181937 278.52583171 81.3984375 275.8515625 C83.82495512 273.50926241 86.2179478 271.13178909 88.578125 268.72265625 C89.70734375 267.49417969 90.8365625 266.26570313 92 265 C92.98484375 263.82308594 93.9696875 262.64617187 94.984375 261.43359375 C95.89703125 260.23863281 96.8096875 259.04367187 97.75 257.8125 C99.05904297 255.96011719 99.05904297 255.96011719 100.39453125 254.0703125 C101.68423828 252.05550781 101.68423828 252.05550781 103 250 C104.85896805 246.75535137 106.67093472 243.48336924 108.4375 240.1875 C109.98921895 237.14053289 111.51422327 234.07966034 113 231 C113.804375 229.1025 114.60875 227.205 115.4375 225.25 C115.953125 223.8475 116.46875 222.445 117 221 C117.99 218.69 118.98 216.38 120 214 C120.36222656 212.57945312 120.72445312 211.15890625 121.09765625 209.6953125 C121.41605469 208.18710938 121.73445313 206.67890625 122.0625 205.125 C122.38347656 203.62195313 122.70445312 202.11890625 123.03515625 200.5703125 C123.35355469 199.06210938 123.67195312 197.55390625 124 196 C124.34933594 194.53304687 124.69867188 193.06609375 125.05859375 191.5546875 C125.36925781 190.05164063 125.67992187 188.54859375 126 187 C126.30550781 184.73962891 126.30550781 184.73962891 126.6171875 182.43359375 C126.74351562 180.64050781 126.86984375 178.84742188 127 177 C127.09306278 171.6817361 127.13976417 166.38006311 127.125 161.0625 C127.12886719 159.67353516 127.13273438 158.28457031 127.13671875 156.85351562 C127.13298217 152.90208271 127.06794584 148.95085047 127 145 C126.79117188 141.99326172 126.79117188 141.99326172 126.578125 138.92578125 C126.38734375 137.30027344 126.1965625 135.67476562 126 134 C125.06401476 129.32007378 124.0612385 124.65312267 123 120 C122.38125 116.90625 122.38125 116.90625 121.75 113.75 C121.1725 111.5225 120.595 109.295 120 107 C118.98294054 104.04645932 117.91672709 101.10957033 116.8125 98.1875 C115.57436673 95.11163433 114.30359883 92.04869705 113 89 C111.74160884 86.23461495 110.45082829 83.48369386 109.125 80.75 C107.78430817 78.14869619 106.40961612 75.56460884 105 73 C103.55359567 70.54291742 102.07481476 68.10457351 100.5625 65.6875 C99.07449638 63.43628626 97.55443473 61.20586734 96 59 C94.47375 57.06125 92.9475 55.1225 91.375 53.125 C89.93125 51.43375 88.4875 49.7425 87 48 C85.88625 46.63875 84.7725 45.2775 83.625 43.875 C82.42875 42.59625 81.2325 41.3175 80 40 C78.2675 38.515 76.535 37.03 74.75 35.5 C71.07783424 32.62613114 67.39162078 29.77006295 63.6875 26.9375 C61.810625 25.638125 59.93375 24.33875 58 23 C55.7725 21.63875 53.545 20.2775 51.25 18.875 C50.07308594 18.21757812 48.89617187 17.56015625 47.68359375 16.8828125 C46.46800781 16.26148437 45.25242188 15.64015625 44 15 C41.45492699 13.87633603 38.89197662 12.79226568 36.3125 11.75 C33.899375 10.8425 31.48625 9.935 29 9 C27.040625 8.2575 25.08125 7.515 23.0625 6.75 C21.391875 6.1725 19.72125 5.595 18 5 C16.659375 4.62875 15.31875 4.2575 13.9375 3.875 C9.3047151 2.84549224 4.65845801 1.90581128 0 1 C0 0.67 0 0.34 0 0 Z " transform="translate(157,0)" style="fill: #F9B800;"/><path d="M0 0 C39.27 0 78.54 0 119 0 C125.93 0.495 125.93 0.495 133 1 C134.45535156 1.26296875 135.91070312 1.5259375 137.41015625 1.796875 C139.97901079 2.46724988 142.54520324 3.14786824 145.109375 3.8359375 C146.39328125 4.22007813 147.6771875 4.60421875 149 5 C151.248125 5.78375 153.49625 6.5675 155.8125 7.375 C157.854375 8.24125 159.89625 9.1075 162 10 C163.815 10.86625 165.63 11.7325 167.5 12.625 C170.2225 14.295625 170.2225 14.295625 173 16 C174.09828125 16.84046875 175.1965625 17.6809375 176.328125 18.546875 C178.5999822 20.42452867 180.8442099 22.33614778 183.05859375 24.28125 C184.02925781 25.1784375 184.99992188 26.075625 186 27 C187.258125 28.27875 188.51625 29.5575 189.8125 30.875 C191.3903125 32.916875 191.3903125 32.916875 193 35 C194.36125 37.0625 195.7225 39.125 197.125 41.25 C198.40375 43.4775 199.6825 45.705 201 48 C201.94875 50.124375 202.8975 52.24875 203.875 54.4375 C204.57625 56.273125 205.2775 58.10875 206 60 C206.99 62.97 206.99 62.97 208 66 C208.37125 67.69125 208.7425 69.3825 209.125 71.125 C209.558125 74.528125 209.558125 74.528125 210 78 C210.1604813 81.24770634 210.26006055 84.49875396 210.3125 87.75 C210.27962891 90.33328125 210.27962891 90.33328125 210.24609375 92.96875 C210.12427734 95.45921875 210.12427734 95.45921875 210 98 C209.84660156 99.4128125 209.69320312 100.825625 209.53515625 102.28125 C209.31730469 103.5909375 209.09945312 104.900625 208.875 106.25 C207.946875 110.08625 207.946875 110.08625 207 114 C206.56300781 115.37285156 206.12601563 116.74570313 205.67578125 118.16015625 C205.18464844 119.53042969 204.69351563 120.90070313 204.1875 122.3125 C203.16071857 124.88952006 202.10055708 127.45361303 201 130 C200.071875 131.918125 199.14375 133.83625 198.1875 135.8125 C196.6096875 138.3803125 196.6096875 138.3803125 195 141 C193.535625 142.8975 192.07125 144.795 190.5625 146.75 C187.97721516 149.72484831 185.38095913 152.69046866 182.75 155.625 C181.5125 156.73875 180.275 157.8525 179 159 C177.040625 160.485 175.08125 161.97 173.0625 163.5 C171.93585938 164.25667969 170.80921875 165.01335937 169.6484375 165.79296875 C168.44445312 166.52128906 167.24046875 167.24960938 166 168 C164.73414063 168.65613281 163.46828125 169.31226563 162.1640625 169.98828125 C160.85179687 170.59027344 159.53953125 171.19226563 158.1875 171.8125 C156.85203125 172.36808594 155.5165625 172.92367187 154.140625 173.49609375 C152.77421875 173.99238281 151.4078125 174.48867187 150 175 C148.57171875 175.42410156 147.1434375 175.84820312 145.671875 176.28515625 C143.57585937 176.82462891 143.57585937 176.82462891 141.4375 177.375 C137.7559375 178.179375 137.7559375 178.179375 134 179 C131.69 179.33 129.38 179.66 127 180 C123.70671826 180.08609009 120.41183577 180.11772208 117.11743164 180.11352539 C115.13590591 180.11344986 113.15438019 180.11337433 111.11280823 180.11329651 C108.98343307 180.10813522 106.85405792 180.10297394 104.66015625 180.09765625 C101.37890053 180.09553383 101.37890053 180.09553383 98.03135681 180.09336853 C91.04172399 180.08776915 84.05212315 180.07521669 77.0625 180.0625 C72.32487025 180.05748492 67.58724001 180.05292203 62.84960938 180.04882812 C51.23306059 180.03779991 39.61653572 180.02053564 28 180 C28.33 192.21 28.66 204.42 29 217 C34.94 223.93 34.94 223.93 41 231 C44 234.66666667 47 238.33333333 50 242 C52.97039654 245.49410281 55.95870781 248.97232229 58.94921875 252.44921875 C65.17224619 259.69215338 71.34676695 266.96888511 77.375 274.375 C82.10442523 280.12700365 86.9678795 285.74162449 91.859375 291.35546875 C94.53943598 294.46553951 97.1520936 297.63348296 99.75 300.8125 C101.1525 302.524375 102.555 304.23625 104 306 C105.505625 307.670625 107.01125 309.34125 108.5625 311.0625 C110.026875 312.691875 111.49125 314.32125 113 316 C115.67200512 319.32905555 118.33818111 322.66279422 121 326 C123.95270443 329.48767476 126.93210098 332.95138174 129.9140625 336.4140625 C136.2409127 343.76602261 142.50533531 351.1619664 148.625 358.6875 C150.790625 361.3171875 150.790625 361.3171875 153 364 C154.485 365.65 155.97 367.3 157.5 369 C158.985 370.65 160.47 372.3 162 374 C165.00711407 377.66083452 168.00652518 381.32800423 171 385 C172.99405799 387.33841339 174.99435363 389.67151829 177 392 C182.09847975 397.92247647 187.05129064 403.95157745 192 410 C194.95842174 413.48001676 197.93459253 416.94424377 200.9140625 420.40625 C205.6409145 425.9109384 210.31879664 431.4564697 215 437 C215.33 437.99 215.66 438.98 216 440 C144.72 440 73.44 440 0 440 C0 294.8 0 149.6 0 0 Z " transform="translate(0,72)" style="fill: #371D74;"/><path d="M0 0 C0.33 0 0.66 0 1 0 C1 81.18 1 162.36 1 246 C-57.41 246 -115.82 246 -176 246 C-174.68 243.69 -173.36 241.38 -172 239 C-170.68 237.39125 -169.36 235.7825 -168 234.125 C-166.35 232.10375 -164.7 230.0825 -163 228 C-160.00802265 223.8755843 -157.08813875 219.70559473 -154.171875 215.52734375 C-150.9903287 210.98619577 -147.75475166 206.48890989 -144.5 202 C-140.29486419 196.1929077 -136.12614816 190.3634737 -132 184.5 C-126.7542332 177.046582 -121.43083377 169.65208988 -116.0859375 162.26953125 C-113.37742645 158.52218621 -110.68376262 154.76508445 -108 151 C-104.23106533 145.71251398 -100.43284693 140.44703204 -96.625 135.1875 C-91.31057145 127.83722691 -86.06103551 120.44404322 -80.83984375 113.02734375 C-76.58824139 106.99790491 -72.29341933 100.99968937 -68 95 C-66.81857422 93.34291016 -66.81857422 93.34291016 -65.61328125 91.65234375 C-59.83051734 83.54157504 -54.00362807 75.46340108 -48.16796875 67.390625 C-43.75629257 61.27629204 -39.37630206 55.13967336 -35 49 C-33.33358081 46.66648992 -31.66691188 44.33315816 -30 42 C-29.175 40.845 -28.35 39.69 -27.5 38.5 C-18.33333333 25.66666667 -9.16666667 12.83333333 0 0 Z " transform="translate(511,266)" style="fill: #371D74;"/></svg>