<?xml version="1.0" encoding="UTF-8" standalone="no"?>
<svg
   xmlns:dc="http://purl.org/dc/elements/1.1/"
   xmlns:cc="http://creativecommons.org/ns#"
   xmlns:rdf="http://www.w3.org/1999/02/22-rdf-syntax-ns#"
   xmlns:svg="http://www.w3.org/2000/svg"
   xmlns="http://www.w3.org/2000/svg"
   xmlns:sodipodi="http://sodipodi.sourceforge.net/DTD/sodipodi-0.dtd"
   xmlns:inkscape="http://www.inkscape.org/namespaces/inkscape"
   width="512"
   height="512"
   viewBox="0 0 135.46666 135.46667"
   version="1.1"
   id="svg8"
   inkscape:version="1.0.1 (3bc2e813f5, 2020-09-07)"
   sodipodi:docname="io.github.tofudd.lanchat.svg">
  <defs
     id="defs2">
    <rect
       x="86.767939"
       y="69.759373"
       width="169.70109"
       height="167.43509"
       id="rect31" />
  </defs>
  <sodipodi:namedview
     id="base"
     pagecolor="#ffffff"
     bordercolor="#666666"
     borderopacity="1.0"
     inkscape:pageopacity="0.0"
     inkscape:pageshadow="2"
     inkscape:zoom="1.4"
     inkscape:cx="264.39955"
     inkscape:cy="305.00036"
     inkscape:document-units="px"
     inkscape:current-layer="g27"
     inkscape:document-rotation="0"
     showgrid="false"
     units="px"
     inkscape:window-width="1920"
     inkscape:window-height="1016"
     inkscape:window-x="0"
     inkscape:window-y="0"
     inkscape:window-maximized="1" />
  <metadata
     id="metadata5">
    <rdf:RDF>
      <cc:Work
         rdf:about="">
        <dc:format>image/svg+xml</dc:format>
        <dc:type
           rdf:resource="http://purl.org/dc/dcmitype/StillImage" />
        <dc:title></dc:title>
      </cc:Work>
    </rdf:RDF>
  </metadata>
  <g
     inkscape:label="Layer 1"
     inkscape:groupmode="layer"
     id="layer1">
    <g
       id="g27"
       transform="matrix(0.37758921,0,0,0.37758921,-2.0129458,7.9594759)">
      <path
         fill="#ff6000"
         d="m 148.984,10.378 c 28.292,-2.092 60.246,-0.947 92.846,-0.947 29.215,0 67.794,-4.206 88.109,3.79 18.095,7.122 32.394,22.523 29.37,49.265 -1.518,13.418 -10.561,27.648 -15.159,38.844 -15.217,37.058 -32.812,79.412 -47.37,114.636 -22.42,54.242 -73.281,97.021 -149.691,91.9 C 105.66,305.087 72.718,284.618 50.453,261.442 27.049,237.079 9.715,203.733 9.715,159.122 9.715,116.327 27.566,81.436 50.453,56.801 72.858,32.686 105.273,13.61 148.984,10.378 m 174.323,36.001 c 2.555,-26.637 -39.369,-29.095 -38.844,-0.947 h 14.211 c -2.135,-12.303 9.656,-12.044 11.369,-3.79 3.631,17.5 -32.326,31.788 -26.527,53.055 13.622,-0.042 27.428,-0.269 39.791,0.947 1.48,-2.172 1.48,-9.196 0,-11.369 h -24.633 c 7.006,-10.561 23.09,-21.807 24.633,-37.896 M 72.243,73.854 c -17.719,18.101 -31.533,40.191 -34.107,72.003 -4.841,59.829 25.983,97.852 58.74,117.479 33.944,20.338 81.501,23.41 119.373,2.842 34.803,-18.899 56.164,-49.133 62.529,-87.161 7.796,-46.582 -13.714,-89.051 -36.949,-109.9 C 220.669,50.13 189.321,33.98 144.246,38.8 111.955,42.252 88.753,56.987 72.243,73.854"
         id="path14"
         style="stroke-width:0.99992373;stroke-miterlimit:4;stroke-dasharray:none;opacity:0.99700002" />
      <text
         xml:space="preserve"
         id="text29"
         style="font-style:normal;font-weight:normal;font-size:28.0287px;line-height:1.25;font-family:sans-serif;white-space:pre;shape-inside:url(#rect31);fill:#ff6000;fill-opacity:1;stroke:none;"
         transform="matrix(8.924121,0,0,8.924121,-691.78337,-609.83312)"><tspan
           x="86.767578"
           y="95.006741"><tspan
             style="font-style:italic;font-variant:normal;font-weight:bold;font-stretch:normal;font-family:Arial;-inkscape-font-specification:'Arial Bold Italic';fill:#ff6000;fill-opacity:1">L</tspan></tspan></text>
      <path
         style="opacity:0.997;fill:#000000;fill-opacity:1;stroke-width:0.720744;stroke-miterlimit:4;stroke-dasharray:none"
         d="m 218.37895,83.525781 c -35.01721,0.193196 -70.39388,10.049353 -98.96618,30.650149 -20.626967,15.02185 -38.530147,33.99259 -51.821776,55.8047 -12.584927,21.09596 -20.055432,45.29032 -21.493391,69.81046 -0.863147,17.63558 -0.897318,35.4651 2.88333,52.80501 6.711826,35.10987 25.110652,67.78658 51.683567,91.70053 25.71805,23.96052 58.8816,39.59852 93.67896,44.4436 16.8754,2.73389 34.11524,2.22528 51.02353,0.09 44.06032,-6.09922 84.9502,-30.58956 112.2898,-65.49801 19.75259,-25.47459 31.45173,-56.84802 34.65481,-88.82626 1.33226,-17.91268 1.10092,-36.07841 -2.99607,-53.65044 -8.7861,-40.90021 -31.3687,-79.54845 -65.58887,-104.20818 C 293.4751,94.278398 255.92653,82.83633 218.37895,83.525781 Z M 206.02234,115.1621 c 8.41991,0 16.83982,0 25.25973,0 -14.71311,70.32091 -29.42497,140.7072 -44.08073,210.99956 1.16356,2.21253 4.57146,0.95248 6.58813,1.4417 40.56593,0.55143 81.17652,-0.24333 121.71821,0.54182 2.26585,-0.24974 0.26764,2.78079 0.37753,4.15559 -2.44198,12.21005 -5.06484,24.38808 -7.51292,36.60395 -60.3982,0.56893 -120.89748,0.23763 -181.33421,0.33048 17.81031,-84.67913 35.48308,-169.38747 53.26285,-254.0731 8.57381,0 17.14761,0 25.72141,0 z"
         id="path924"
         transform="matrix(0.7007174,0,0,0.7007174,5.3310469,-21.079723)" />
      <path
         style="opacity:0.997;fill:#000000;fill-opacity:1;stroke-width:0.509643;stroke-miterlimit:4;stroke-dasharray:none"
         d="m 425.21029,65.48789 c -7.68473,0.01719 -15.34983,3.123362 -20.48674,8.913379 -5.24646,5.331879 -7.17503,13.192052 -7.24063,20.44069 1.11405,1.603806 3.79793,0.351927 5.5287,0.74675 5.19034,-0.0934 10.4564,0.185427 15.59943,-0.14056 1.39908,-1.149658 0.36519,-3.557666 0.67553,-5.23508 -0.36547,-3.670797 2.08674,-8.338646 6.30736,-8.141752 5.01817,-0.167712 8.73721,4.810454 8.55824,9.558213 0.8375,6.029354 -2.36755,11.65809 -5.60414,16.56693 -9.3164,12.94486 -22.56168,22.89302 -29.91839,37.25655 -2.30338,4.44452 -3.54386,9.41883 -3.10617,14.43848 0.2488,1.96667 -0.29781,4.68573 1.35248,6.00029 18.69361,0.12828 37.442,-0.1125 56.08893,1.40694 2.66327,-0.12873 2.63566,-3.62361 3.00642,-5.55176 0.30608,-3.8884 0.33808,-8.17658 -1.44941,-11.70136 -1.95906,-0.92767 -4.56344,-0.11002 -6.7579,-0.38569 -9.20012,-0.0317 -18.53504,0.0833 -27.65067,-0.14091 9.84196,-13.11144 23.01746,-23.86773 30.26304,-38.82446 4.79856,-9.83539 6.46677,-22.26822 0.49937,-31.990271 -5.23441,-8.790114 -15.66829,-13.390246 -25.66545,-13.216379 z"
         id="path926"
         transform="matrix(0.7007174,0,0,0.7007174,5.3310469,-21.079723)" />
    </g>
  </g>
</svg>
