<svg
  width="320"
  height="320"
  viewBox="0 0 320 320"
  fill="none"
  xmlns="http://www.w3.org/2000/svg"
>
<rect width="320" height="320" fill="white" />
<path
    d="M250 50V40H260V50H270V60H280V70H290V80H280V90H270V100H260H240V90H230V60H240V50H250Z"
    fill="#C3C3C3"
  />
<rect
    x="195"
    y="195"
    width="100"
    height="50"
    stroke="#C3C3C3"
    stroke-width="10"
  />
<path d="M30 180H40V190H30V180Z" fill="#C3C3C3" />
<path d="M30 220H40V230H30V220Z" fill="#C3C3C3" />
<path d="M10 200H20V210H10V200Z" fill="#C3C3C3" />
<path d="M20 210H30V220H20V210Z" fill="#C3C3C3" />
<path d="M20 190H30V200H20V190Z" fill="#C3C3C3" />
<path d="M50 230V240H40V230H50Z" fill="#C3C3C3" />
<path d="M60 240V250H50V240H60Z" fill="#C3C3C3" />
<path d="M70 230V240H60V230H70Z" fill="#C3C3C3" />
<path d="M80 220V230H70V220H80Z" fill="#C3C3C3" />
<path d="M240 250V280H210V290H250V250H240Z" fill="#C3C3C3" />
<path
    d="M200 280V270H210V280H220V290H210V300H200V290H190V280H200Z"
    fill="#C3C3C3"
  />
<rect
    x="45"
    y="85"
    width="210"
    height="130"
    stroke="#C3C3C3"
    stroke-width="10"
  />
<rect y="50" width="100" height="60" fill="#C3C3C3" />
<path
    d="M200 270V260H210V270H220V280H210V290H200V280H190V270H200Z"
    fill="#3F48CC"
  />
<path d="M250 240V270H220V280H260V240H250Z" fill="black" />
<rect x="55" y="75" width="210" height="130" stroke="black" stroke-width="10" />
<rect
    x="15"
    y="45"
    width="90"
    height="50"
    fill="#22B14C"
    stroke="black"
    stroke-width="10"
  />
<rect
    x="205"
    y="185"
    width="100"
    height="50"
    fill="#B5E61D"
    stroke="black"
    stroke-width="10"
  />
<path
    d="M260 50V40H270V50H280V60H290V70H300V80H290V90H280V100H270H250V90H240V60H250V50H260Z"
    fill="black"
  />
<path d="M40 180H50V190H40V180Z" fill="black" />
<path d="M40 220H50V230H40V220Z" fill="black" />
<path d="M20 200H30V210H20V200Z" fill="black" />
<path d="M60 170V180H50V170L60 170Z" fill="black" />
<path d="M30 210H40V220H30V210Z" fill="black" />
<path d="M30 190H40V200H30V190Z" fill="black" />
<path d="M60 180H70V190H60V180Z" fill="black" />
<path d="M60 220H70V230H60V220Z" fill="black" />
<path d="M80 200H90V210H80V200Z" fill="black" />
<path d="M60 230V240H50V230H60Z" fill="black" />
<path d="M70 210H80V220H70V210Z" fill="black" />
<path d="M70 190H80V200H70V190Z" fill="black" />
<path
    d="M50 180V190H40V200H30V210H40V220H50V230H60V220H70V210H80V200H70V190H60V180H50Z"
    fill="#B5E61D"
  />
</svg>
