<svg xmlns="http://www.w3.org/2000/svg" viewBox="0 0 256 256">
  <defs>
    <linearGradient id="bg" x1="0%" x2="100%" y1="0%" y2="100%">
      <stop offset="0%" stop-color="#2563eb"/>
      <stop offset="100%" stop-color="#10b981"/>
    </linearGradient>
  </defs>
  <rect width="256" height="256" rx="56" fill="#08111f"/>
  <rect x="20" y="20" width="216" height="216" rx="44" fill="url(#bg)" opacity="0.15"/>
  <path d="M72 78h28l28 100h-24l-6-24H70l-6 24H40L72 78zm2 58h20l-10-40-10 40z" fill="#f8fafc"/>
  <path d="M142 78h24v54c0 18 8 28 24 28s24-10 24-28V78h24v58c0 17-5 30-15 40-10 9-24 14-41 14-18 0-32-5-42-14-9-10-14-23-14-40V78z" fill="#f8fafc"/>
</svg>
