<svg width="4096" height="4096" viewBox="0 0 4096 4096" fill="none" xmlns="http://www.w3.org/2000/svg">
<rect x="64" y="64" width="3968" height="3968" rx="654.596" fill="url(#paint0_radial_30_10)" stroke="#CBA6F7" stroke-width="128"/>
<g clip-path="url(#clip0_30_10)">
<path d="M2600.96 757.76H1495.04C1393.66 757.76 1310.72 840.704 1310.72 942.08V1419.47C1310.72 1469.24 1331 1515.32 1364.17 1550.34L1863.68 2048L1364.17 2547.51C1331 2580.68 1310.72 2628.61 1310.72 2676.53V3153.92C1310.72 3255.3 1393.66 3338.24 1495.04 3338.24H2600.96C2702.34 3338.24 2785.28 3255.3 2785.28 3153.92V2676.53C2785.28 2626.76 2765 2580.68 2731.83 2545.66L2232.32 2048L2731.83 1548.49C2765 1515.32 2785.28 1467.39 2785.28 1419.47V942.08C2785.28 840.704 2702.34 757.76 2600.96 757.76ZM2600.96 2676.53V3061.76C2600.96 3113.37 2560.41 3153.92 2508.8 3153.92H1587.2C1535.59 3153.92 1495.04 3113.37 1495.04 3061.76V2676.53L2048 2123.57L2600.96 2676.53Z" fill="#CBA6F7"/>
</g>
<defs>
<radialGradient id="paint0_radial_30_10" cx="0" cy="0" r="1" gradientUnits="userSpaceOnUse" gradientTransform="translate(2048 2048) rotate(90) scale(2048)">
<stop offset="0.475962" stop-color="#1E1E2E"/>
<stop offset="0.985577" stop-color="#11111B"/>
</radialGradient>
<clipPath id="clip0_30_10">
<rect width="3686.4" height="3686.4" fill="white" transform="translate(204.8 204.801)"/>
</clipPath>
</defs>
</svg>
