<?xml version="1.0" standalone="no"?>
<!DOCTYPE svg PUBLIC "-//W3C//DTD SVG 20010904//EN"
 "http://www.w3.org/TR/2001/REC-SVG-20010904/DTD/svg10.dtd">
<svg version="1.0" xmlns="http://www.w3.org/2000/svg"
 width="1024.000000pt" height="1024.000000pt" viewBox="0 0 1024.000000 1024.000000"
 preserveAspectRatio="xMidYMid meet">

<g transform="translate(0.000000,1024.000000) scale(0.100000,-0.100000)"
fill="#000000" stroke="none">
<path d="M6193 8660 c-114 -20 -153 -39 -211 -105 -29 -33 -45 -66 -66 -137
-85 -283 -121 -389 -152 -446 -19 -34 -34 -68 -34 -75 0 -13 125 -97 144 -97
7 0 34 44 59 98 52 107 88 249 107 417 14 125 26 145 83 145 24 0 52 7 63 15
28 22 45 18 81 -16 31 -31 33 -32 58 -15 19 13 25 25 25 54 0 41 -18 67 -68
101 -18 12 -30 26 -27 30 2 5 26 14 52 21 121 32 50 39 -114 10z"/>
<path d="M5664 8502 c-90 -54 -354 -243 -354 -253 0 -5 4 -9 8 -9 5 0 27 -16
51 -36 46 -40 81 -99 81 -139 0 -48 13 -41 191 106 84 70 112 100 137 147 18
33 32 70 32 82 0 22 -67 140 -79 140 -3 -1 -34 -17 -67 -38z"/>
<path d="M4285 8332 c-83 -25 -134 -54 -176 -99 -53 -55 -72 -99 -77 -178 -6
-97 21 -166 97 -248 32 -34 63 -71 69 -83 9 -17 24 -22 79 -27 37 -4 92 -4
120 0 51 6 53 7 63 44 9 32 18 42 55 58 66 29 87 69 83 156 -4 81 -22 123 -89
211 -32 42 -44 66 -38 75 28 45 -14 99 -83 105 -24 2 -70 -4 -103 -14z"/>
<path d="M5052 8162 c-38 -12 -91 -61 -113 -104 -30 -60 -37 -185 -14 -263 19
-68 70 -125 111 -125 34 0 44 -32 44 -149 l0 -98 75 -71 c45 -43 102 -85 142
-106 38 -19 94 -57 127 -85 42 -38 61 -49 70 -42 7 6 30 47 50 91 l38 81 -45
48 c-26 27 -49 60 -52 74 -8 32 -3 69 10 74 6 1 36 -20 68 -47 32 -28 62 -50
65 -49 12 0 172 252 172 270 0 14 -124 99 -145 99 -13 0 -34 -17 -57 -47 -51
-67 -193 -203 -211 -203 -9 0 -25 12 -36 26 -23 30 -61 125 -61 155 0 11 23
49 50 85 59 77 67 125 26 163 -14 13 -26 39 -30 64 -9 58 -48 113 -98 138 -44
23 -145 34 -186 21z"/>
<path d="M2845 7870 c-176 -7 -226 -17 -330 -65 -191 -88 -317 -268 -344 -490
-8 -64 -9 -550 -5 -1633 5 -1481 6 -1546 24 -1618 11 -42 34 -106 52 -142 44
-90 158 -205 254 -255 136 -70 98 -68 1009 -68 451 0 835 -3 853 -6 31 -5 32
-7 32 -54 0 -27 -11 -106 -24 -176 -33 -172 -71 -389 -96 -553 -11 -74 -23
-143 -26 -153 -5 -17 -20 -18 -212 -15 -240 4 -261 -2 -319 -86 -39 -57 -42
-100 -13 -179 23 -62 62 -103 111 -117 21 -6 514 -10 1332 -10 l1298 0 54 51
c124 117 126 230 8 308 -53 35 -39 34 -284 31 -167 -2 -187 0 -193 15 -3 9
-36 191 -72 404 -36 212 -69 411 -75 441 -5 30 -9 65 -9 78 l0 22 874 0 875 0
78 25 c169 53 322 203 393 385 l25 65 3 1580 c2 1059 -1 1606 -8 1660 -14 112
-44 195 -100 279 -83 124 -180 202 -306 247 -53 20 -89 23 -364 30 -168 4
-517 8 -776 8 l-471 1 -18 -41 c-11 -23 -34 -62 -52 -87 -42 -59 -42 -78 -2
-86 17 -3 365 -6 773 -6 777 0 786 -1 879 -45 48 -22 123 -89 151 -134 13 -20
34 -63 47 -96 l24 -60 5 -1225 c3 -674 3 -1228 0 -1233 -4 -4 -505 -6 -1114
-5 l-1109 3 7 -98 c6 -101 50 -347 67 -379 6 -10 31 -42 56 -70 60 -68 97
-147 88 -189 -6 -25 -17 -35 -53 -51 -41 -18 -60 -20 -186 -15 -114 4 -158 10
-231 31 -49 15 -95 32 -102 37 -6 6 -15 31 -19 55 l-6 44 -50 0 -50 0 6 -32
c22 -111 13 -243 -20 -279 -29 -32 -82 -50 -149 -50 -87 0 -120 18 -141 79
l-17 48 -38 -19 c-29 -14 -49 -17 -83 -12 -98 15 -119 66 -92 223 9 51 16 94
16 96 0 2 -34 6 -75 8 -57 4 -90 12 -138 36 -63 31 -142 100 -152 133 -5 14
-22 17 -98 21 -64 3 -106 10 -137 25 -47 21 -156 97 -223 154 -30 26 -42 31
-55 23 -10 -6 -63 -75 -119 -155 -56 -79 -113 -153 -128 -164 -23 -17 -40 -20
-121 -18 l-95 3 -10 -29 c-7 -19 -19 -31 -37 -34 -18 -4 -36 -21 -56 -52 -60
-96 -167 -156 -313 -174 -131 -16 -189 4 -224 77 -29 58 -21 114 27 209 35 70
211 342 298 461 l38 52 -341 0 -341 0 2 1248 3 1247 32 67 c55 117 169 204
297 227 37 7 254 11 580 12 287 1 554 4 595 8 96 8 107 22 68 89 -15 26 -34
63 -43 82 l-15 35 -447 1 c-246 0 -519 -2 -607 -6z m3614 -3453 c23 -16 47
-44 61 -72 71 -147 -86 -308 -229 -236 -84 43 -134 136 -111 205 39 119 177
170 279 103z m530 8 c65 -33 107 -111 97 -178 -14 -92 -74 -147 -162 -147 -97
0 -174 75 -174 170 0 118 138 208 239 155z m554 1 c38 -16 94 -76 103 -112 15
-61 -20 -143 -83 -191 -72 -55 -181 -24 -231 66 -75 133 70 296 211 237z"/>
<path d="M4760 7811 c0 -6 -40 -41 -90 -78 -49 -36 -90 -71 -90 -77 0 -12 94
-182 119 -215 l18 -24 97 38 c60 23 104 47 116 62 21 26 26 53 12 53 -16 0
-103 93 -123 131 -10 21 -23 55 -27 76 -7 33 -32 60 -32 34z"/>
<path d="M4400 7602 c-28 -14 -35 -23 -35 -47 0 -29 1 -30 48 -28 76 2 79 6
54 52 -12 23 -24 41 -27 40 -3 0 -21 -8 -40 -17z"/>
<path d="M4020 7508 c-74 -49 -184 -121 -245 -160 -159 -101 -298 -203 -339
-248 -29 -32 -36 -48 -36 -81 0 -47 21 -70 278 -304 145 -132 182 -160 182
-137 0 6 29 47 65 92 36 45 65 87 65 92 0 6 -53 62 -117 124 l-118 114 25 21
c27 24 180 98 243 119 28 9 41 9 51 0 11 -8 40 -1 129 35 63 25 118 45 120 45
3 0 26 9 52 20 l47 20 -68 97 c-90 131 -177 242 -189 242 -5 0 -71 -41 -145
-91z"/>
<path d="M4895 7335 c-52 -14 -265 -111 -265 -121 0 -19 64 -155 80 -169 18
-16 22 -16 81 4 71 24 123 26 157 8 31 -18 101 -114 152 -209 31 -58 43 -95
47 -138 6 -67 21 -46 -129 -186 -88 -82 -138 -187 -188 -393 -37 -150 -110
-311 -190 -416 -190 -251 -453 -472 -731 -613 -135 -68 -162 -90 -144 -116 28
-39 157 -186 163 -186 4 0 16 16 27 36 28 52 194 189 395 325 153 103 320 283
413 444 25 44 71 134 102 200 85 181 98 207 123 237 39 46 45 36 40 -74 -4
-88 -9 -114 -37 -180 -87 -205 -276 -493 -416 -633 -110 -110 -279 -238 -442
-335 -68 -40 -123 -76 -123 -80 0 -18 81 -76 129 -94 51 -18 52 -18 111 4 71
27 166 104 330 269 121 121 194 217 275 361 27 47 60 105 75 130 25 43 75 154
135 300 47 115 74 210 95 339 36 221 70 301 158 376 55 48 144 86 214 92 41 4
59 10 62 22 12 38 28 165 35 273 l7 116 38 42 c21 23 44 57 52 76 27 66 13
157 -30 193 -14 11 -16 11 -16 -4 0 -34 -77 -181 -117 -223 -60 -64 -66 -62
-221 53 -44 33 -107 77 -141 98 -33 21 -96 71 -139 112 -44 41 -88 75 -98 74
-11 0 -41 -6 -69 -14z"/>
<path d="M7063 7302 c-95 -34 -168 -108 -193 -197 -20 -71 -9 -183 24 -239 31
-53 88 -111 131 -134 17 -9 65 -17 111 -20 72 -4 89 -1 135 21 198 92 246 355
92 498 -85 79 -201 106 -300 71z"/>
<path d="M6276 7135 c-40 -21 -55 -44 -56 -82 0 -44 17 -77 50 -96 45 -27 94
-22 135 14 30 26 35 37 35 73 0 80 -90 130 -164 91z"/>
<path d="M4325 7054 c-149 -82 -223 -136 -231 -171 -4 -15 0 -58 10 -96 13
-57 14 -73 4 -88 -7 -10 -39 -52 -72 -94 -61 -78 -66 -105 -22 -105 34 0 82
-44 97 -88 15 -48 37 -72 65 -72 31 0 37 42 38 261 1 158 3 179 20 198 22 25
186 109 274 141 39 14 62 28 62 38 0 8 -17 44 -37 79 -30 51 -42 63 -63 63
-14 0 -79 -30 -145 -66z"/>
<path d="M4800 6916 c-19 -7 -75 -34 -125 -58 -49 -25 -121 -55 -160 -67 -38
-12 -89 -32 -113 -44 l-43 -22 -3 -180 c-3 -217 -13 -252 -118 -411 -115 -175
-343 -475 -523 -689 -158 -188 -250 -304 -436 -551 -95 -126 -189 -249 -209
-274 -92 -110 -240 -358 -240 -400 0 -6 26 -10 60 -10 132 0 243 76 320 219
23 45 49 81 56 81 6 0 35 -16 64 -35 81 -55 130 -45 170 35 7 14 38 59 70 100
31 41 69 92 84 113 15 21 39 42 52 47 l24 9 -40 62 c-53 82 -83 165 -76 208 8
53 50 88 199 162 188 95 319 183 451 306 268 250 359 384 411 611 63 272 108
364 236 486 l89 85 -57 113 c-64 124 -72 130 -143 104z"/>
<path d="M3010 6417 c-55 -14 -67 -85 -20 -117 23 -17 52 -18 353 -13 292 5
330 8 350 23 24 20 29 82 8 102 -9 10 -90 13 -336 13 -179 0 -338 -3 -355 -8z"/>
<path d="M6556 6420 c-16 -5 -33 -15 -37 -22 -16 -24 -9 -64 14 -86 23 -22 28
-22 359 -22 l336 0 26 31 c32 38 33 59 3 87 -23 22 -28 22 -348 21 -178 0
-337 -5 -353 -9z"/>
<path d="M7507 6412 c-33 -36 -10 -122 32 -122 31 0 71 39 71 69 0 57 -68 92
-103 53z"/>
<path d="M2706 6398 c-22 -31 -20 -41 10 -77 35 -42 92 -44 123 -5 44 56 12
104 -68 104 -40 0 -53 -4 -65 -22z"/>
<path d="M5564 6380 c-39 -4 -82 -11 -95 -15 -60 -18 -135 -103 -164 -186 -8
-22 -23 -100 -34 -173 -20 -133 -26 -153 -135 -426 -152 -382 -374 -686 -651
-894 -33 -25 -71 -54 -85 -65 l-25 -21 65 -60 c106 -98 140 -115 235 -115 117
1 130 11 193 143 28 59 88 204 132 320 83 222 122 295 184 350 48 42 58 41 41
-7 -7 -22 -23 -84 -35 -138 -11 -54 -32 -134 -47 -178 -36 -112 -129 -339
-165 -402 -17 -29 -28 -59 -25 -67 8 -20 147 -75 209 -82 77 -9 146 9 271 69
l109 52 -6 85 c-6 85 -32 280 -42 312 -4 14 -15 16 -74 11 l-69 -6 -39 39
c-33 33 -41 49 -51 105 -20 116 -10 203 28 243 17 18 21 35 21 87 0 127 51
220 131 236 16 3 33 11 38 17 6 7 11 95 12 199 l1 187 37 9 c101 26 302 63
308 58 3 -4 -15 -51 -40 -105 -26 -53 -65 -158 -86 -232 -21 -74 -44 -147 -49
-162 -15 -36 -47 -56 -113 -68 -80 -15 -91 -32 -100 -142 -5 -74 -13 -107 -38
-160 -38 -82 -41 -142 -10 -159 17 -9 32 -5 84 20 82 41 137 102 206 231 50
94 92 157 352 533 54 78 115 175 134 215 31 64 35 79 31 131 -8 109 -77 174
-213 201 -76 15 -338 21 -431 10z"/>
<path d="M2705 6065 c-32 -32 -31 -50 4 -86 l29 -29 591 0 590 0 19 28 c26 35
52 99 44 106 -3 3 -286 6 -629 6 l-624 0 -24 -25z"/>
<path d="M6397 6073 c-29 -33 -30 -66 -3 -96 l25 -27 553 0 c520 0 555 1 588
19 44 23 52 62 19 97 l-22 24 -572 0 c-532 0 -573 -1 -588 -17z"/>
<path d="M2772 5760 c-50 -21 -54 -102 -6 -120 40 -16 863 -13 892 3 24 12 81
101 72 111 -10 10 -935 16 -958 6z"/>
<path d="M6343 5758 c-32 -16 -49 -63 -33 -93 7 -13 22 -26 34 -29 11 -3 275
-6 586 -6 507 0 568 2 589 16 19 14 22 23 18 52 -4 19 -14 43 -23 53 -16 18
-42 19 -583 18 -375 0 -573 -4 -588 -11z"/>
<path d="M6039 5474 c-36 -11 -52 -100 -23 -125 13 -11 162 -14 768 -17 l753
-4 21 23 c12 12 22 35 22 49 0 59 26 57 -700 64 -366 3 -701 8 -745 11 -44 2
-87 2 -96 -1z"/>
<path d="M2750 5463 c-37 -7 -50 -22 -50 -58 0 -62 1 -62 361 -68 179 -3 332
-7 339 -9 7 -2 33 26 57 62 l45 65 -59 6 c-66 8 -655 9 -693 2z"/>
<path d="M2721 5134 c-27 -34 -26 -47 3 -81 l24 -28 210 -3 209 -3 30 38 c39
50 55 81 48 93 -4 6 -103 10 -255 10 l-249 0 -20 -26z"/>
<path d="M5765 5126 c-21 -50 -19 -64 13 -80 36 -18 1720 -35 1766 -17 59 23
71 64 30 102 l-26 24 -884 3 -884 4 -15 -36z"/>
<path d="M5496 4333 l-77 -44 23 -18 c54 -42 93 -54 191 -59 69 -3 97 -1 97 7
0 15 -119 144 -141 153 -10 4 -45 -11 -93 -39z"/>
<path d="M4838 4333 c-22 -26 -48 -131 -48 -196 0 -49 3 -57 18 -57 12 0 27
17 43 48 13 26 31 47 39 47 9 0 34 -36 60 -85 43 -82 46 -85 80 -85 l35 0 3
97 c1 54 -2 106 -7 116 -6 11 -36 29 -68 40 -34 13 -73 36 -93 57 -39 40 -42
41 -62 18z"/>
<path d="M2514 2378 c-22 -10 -44 -47 -44 -74 0 -9 13 -29 29 -45 29 -29 30
-29 151 -29 67 0 130 5 141 10 18 10 49 59 49 79 0 5 -12 23 -26 40 l-26 31
-126 -1 c-70 0 -137 -5 -148 -11z"/>
<path d="M3030 2383 c-41 -15 -61 -73 -40 -114 23 -41 61 -50 213 -47 116 2
148 6 170 21 50 32 48 105 -3 132 -22 12 -63 15 -177 14 -81 0 -155 -3 -163
-6z"/>
<path d="M6879 2361 c-16 -16 -29 -39 -29 -51 0 -12 13 -35 29 -51 l29 -29
167 0 167 0 34 34 c41 41 43 65 8 100 l-27 26 -174 0 -175 0 -29 -29z"/>
<path d="M7513 2380 c-47 -19 -57 -87 -18 -125 23 -23 31 -25 130 -25 75 0
115 4 135 15 54 28 65 80 25 120 -23 24 -30 25 -137 24 -62 0 -123 -4 -135 -9z"/>
</g>
</svg>
