<?xml version="1.0" standalone="no"?>
<!DOCTYPE svg PUBLIC "-//W3C//DTD SVG 20010904//EN"
 "http://www.w3.org/TR/2001/REC-SVG-20010904/DTD/svg10.dtd">
<svg version="1.0" xmlns="http://www.w3.org/2000/svg"
 width="64.000000pt" height="64.000000pt" viewBox="0 0 64.000000 64.000000"
 preserveAspectRatio="xMidYMid meet">
<metadata>
Created by potrace 1.16, written by Peter Selinger 2001-2019
</metadata>
<g transform="translate(0.000000,64.000000) scale(0.100000,-0.100000)"
fill="#000000" stroke="none">
<path d="M0 320 l0 -320 320 0 320 0 0 320 0 320 -320 0 -320 0 0 -320z m160
185 c18 -21 5 -47 -22 -43 -26 3 -37 36 -16 49 18 12 24 11 38 -6z m48 -124
c19 -12 11 -45 -12 -49 -24 -5 -37 17 -25 40 11 20 18 22 37 9z m-41 -147 c3
-8 -2 -23 -11 -32 -15 -15 -17 -15 -32 0 -21 21 -11 48 16 48 11 0 23 -7 27
-16z m-4 -126 c7 -23 -4 -38 -29 -38 -19 0 -24 5 -24 25 0 20 5 25 24 25 13 0
26 -6 29 -12z"/>
</g>
</svg>
