<?xml version="1.0" encoding="UTF-8" standalone="no"?>
<!-- Created with Inkscape (http://www.inkscape.org/) -->

<svg
   width="300mm"
   height="300mm"
   viewBox="0 0 300 300"
   version="1.1"
   id="svg5"
   xml:space="preserve"
   inkscape:version="1.2.2 (b0a8486541, 2022-12-01)"
   sodipodi:docname="simplesok.svg"
   xmlns:inkscape="http://www.inkscape.org/namespaces/inkscape"
   xmlns:sodipodi="http://sodipodi.sourceforge.net/DTD/sodipodi-0.dtd"
   xmlns="http://www.w3.org/2000/svg"
   xmlns:svg="http://www.w3.org/2000/svg"><sodipodi:namedview
     id="namedview7"
     pagecolor="#ffffff"
     bordercolor="#666666"
     borderopacity="1.0"
     inkscape:showpageshadow="2"
     inkscape:pageopacity="0.0"
     inkscape:pagecheckerboard="0"
     inkscape:deskcolor="#d1d1d1"
     inkscape:document-units="mm"
     showgrid="false"
     inkscape:zoom="0.1089012"
     inkscape:cx="-1501.3609"
     inkscape:cy="376.48806"
     inkscape:window-width="1920"
     inkscape:window-height="991"
     inkscape:window-x="0"
     inkscape:window-y="29"
     inkscape:window-maximized="1"
     inkscape:current-layer="layer1" /><defs
     id="defs2" /><g
     inkscape:label="Layer 1"
     inkscape:groupmode="layer"
     id="layer1"><path
       style="fill:#ffd42a;fill-rule:evenodd;stroke:none;stroke-width:0.269078px;stroke-linecap:butt;stroke-linejoin:miter;stroke-opacity:1"
       d="m 145.8507,38.875584 c 3.13971,-3.893965 5.76707,-7.296986 6.34015,-11.02664 1.66068,-3.590159 -3.47904,-10.787096 -3.29862,-12.774581 3.00319,-3.151472 8.40549,-8.4602158 11.30136,-11.3984402 7.05281,5.1875192 12.92502,18.3335112 14.09307,26.4063952 0.94072,7.410429 -3.92572,8.472762 -14.48488,19.03417 C 145.60407,63.317226 47.650478,167.9568 47.650478,167.9568 c 0,0 -6.772516,8.12301 -18.525628,5.85719 -9.964069,-1.4216 -17.050851,-5.09813 -25.5035608,-12.31741 3.2252869,-3.23836 9.5926268,-9.90879 12.5923948,-12.82331 4.99975,3.13278 9.091984,5.39747 13.010154,4.76893 2.860077,-0.4588 5.664747,-2.83812 8.477242,-5.67246 C 87.962347,97.0735 89.124231,96.601896 145.8507,38.875587 Z"
       id="path317"
       sodipodi:nodetypes="cccccsccccsccc" /><rect
       style="fill:#000000;fill-opacity:1;stroke:none;stroke-width:4.59651;stroke-linecap:round;stroke-dasharray:none;stroke-opacity:1"
       id="rect12954"
       width="24.93001"
       height="50.524651"
       x="-97.47654"
       y="176.96712"
       transform="rotate(-45.134663)" /><rect
       style="fill:#000000;fill-opacity:1;stroke:none;stroke-width:4.59651;stroke-linecap:round;stroke-dasharray:none;stroke-opacity:1"
       id="rect12954-5"
       width="24.93001"
       height="50.524651"
       x="69.815796"
       y="174.89581"
       transform="rotate(-45.134663)" /><rect
       style="fill:#000000;fill-opacity:1;stroke:none;stroke-width:4.59651;stroke-linecap:round;stroke-dasharray:none;stroke-opacity:1"
       id="rect12954-56"
       width="24.93001"
       height="50.524651"
       x="-97.208603"
       y="266.98541"
       transform="rotate(-45.134663)" /><rect
       style="fill:#000000;fill-opacity:1;stroke:none;stroke-width:4.59651;stroke-linecap:round;stroke-dasharray:none;stroke-opacity:1"
       id="rect12954-3"
       width="24.93001"
       height="50.524651"
       x="69.712692"
       y="264.67371"
       transform="rotate(-45.134663)" /><rect
       style="fill:#ffcc00;fill-opacity:1;stroke:none;stroke-width:5.11062;stroke-linecap:round;stroke-dasharray:none;stroke-opacity:1"
       id="rect13216"
       width="151.25632"
       height="178.02705"
       x="-76.525368"
       y="158.40044"
       transform="rotate(-45.134663)" /><rect
       style="fill:#000000;fill-opacity:1;stroke:none;stroke-width:4.99999;stroke-linecap:round;stroke-dasharray:none;stroke-opacity:1"
       id="rect13056"
       width="92.817734"
       height="27.256914"
       x="-49.98938"
       y="334.535"
       transform="rotate(-45.134663)" /><rect
       style="fill:#ffcc00;fill-opacity:1;stroke:#000000;stroke-width:4.7344;stroke-linecap:round;stroke-dasharray:none;stroke-opacity:1"
       id="rect13214"
       width="115.11873"
       height="138.76559"
       x="-59.77037"
       y="200.97653"
       transform="rotate(-45.134663)" /><path
       style="fill:#ff7f2a;fill-rule:evenodd;stroke:none;stroke-width:0.27017px;stroke-linecap:butt;stroke-linejoin:miter;stroke-opacity:1"
       d="M 101.92437,189.2973 71.112476,158.00525 c -12.355218,13.3451 -28.39829,21.22767 -42.822182,15.85587 L 173.85156,27.71786 c 3.86649,18.818641 -6.36268,34.147395 -18.32912,45.955763 l 31.25919,30.372047 -39.32836,3.88793 -41.25116,43.00395 z"
       id="path334"
       sodipodi:nodetypes="ccccccccc" /><path
       style="fill:#87cffc;fill-opacity:1;fill-rule:evenodd;stroke:none;stroke-width:0.281799px;stroke-linecap:butt;stroke-linejoin:miter;stroke-opacity:1"
       d="m 86.326416,143.95959 15.599804,45.31948 84.95467,-85.37092 -44.71603,-16.592988 z"
       id="path344"
       sodipodi:nodetypes="ccccc" /></g></svg>
