<?xml version="1.0" encoding="UTF-8" standalone="no"?>
<!-- Created with Inkscape (http://www.inkscape.org/) -->

<svg
   width="67.73333mm"
   height="67.733345mm"
   viewBox="0 0 67.73333 67.733345"
   version="1.1"
   id="svg1"
   xmlns="http://www.w3.org/2000/svg"
   xmlns:svg="http://www.w3.org/2000/svg">
  <defs
     id="defs1" />
  <g
     id="layer1"
     transform="translate(-88.106246,-73.554174)">
    <g
       transform="matrix(0.02669037,0,0,-0.02670132,86.733755,137.79191)"
       fill="#000000"
       stroke="none"
       id="g3"
       style="fill:#0000ba;fill-opacity:1">
      <path
         d="m 1750,2120 c -305,-42 -558,-161 -779,-365 -88,-82 -93,-85 -139,-85 -106,0 -265,-54 -373,-126 -86,-57 -197,-175 -244,-258 -36,-64 -90,-204 -83,-212 2,-1 46,2 99,8 167,20 357,-28 496,-124 215,-149 334,-370 334,-623 0,-55 -4,-121 -9,-147 -11,-55 -11,-55 69,-32 111,33 208,93 305,189 142,141 214,286 233,469 l 8,86 81,85 c 205,216 330,490 363,797 12,112 6,315 -10,331 -13,13 -269,18 -351,7 z m 252,-121 c 5,-8 6,-63 3,-129 -13,-237 -85,-462 -208,-645 -45,-68 -125,-165 -135,-165 -4,0 -13,23 -20,52 -18,76 -84,203 -143,276 -100,124 -264,233 -396,263 -29,7 -53,16 -53,20 0,15 134,116 227,172 186,111 454,182 652,172 39,-2 67,-8 73,-16 z m -885,-404 c 152,-51 283,-149 374,-278 57,-81 111,-213 113,-277 1,-44 0,-45 -80,-110 -45,-36 -116,-85 -159,-109 -77,-45 -232,-111 -258,-111 -8,0 -32,30 -53,67 -50,87 -170,213 -261,274 -40,27 -77,49 -83,49 -15,0 -12,18 10,78 55,145 135,281 227,390 52,61 62,63 170,27 z m -347,-50 c 0,-3 -25,-46 -55,-96 -30,-50 -72,-136 -92,-191 -33,-85 -41,-98 -58,-94 -102,22 -184,36 -221,36 -24,0 -44,2 -44,6 0,3 17,31 39,62 53,78 153,170 231,211 84,45 200,83 200,66 z m 765,-797 c -11,-51 -50,-143 -86,-204 -39,-64 -166,-188 -227,-222 l -42,-23 v 53 c 0,29 -9,94 -19,143 -10,50 -16,93 -12,96 3,3 35,16 71,29 74,26 194,85 260,129 58,38 63,38 55,-1 z"
         id="path1"
         style="fill:#0000ba;fill-opacity:1" />
      <path
         d="m 1615,1846 c -93,-40 -124,-168 -61,-251 69,-90 200,-85 270,9 30,39 30,143 0,183 -50,68 -134,92 -209,59 z m 118,-57 c 73,-38 76,-148 6,-185 -48,-24 -87,-18 -125,20 -37,37 -44,81 -20,125 25,45 91,64 139,40 z"
         id="path2"
         style="fill:#0000ba;fill-opacity:1" />
      <path
         d="m 1660,1696 c 0,-21 5,-26 26,-26 21,0 25,4 22,23 -2,14 -11,23 -25,25 -19,3 -23,-1 -23,-22 z"
         id="path3"
         style="fill:#0000ba;fill-opacity:1" />
    </g>
    <path
       style="fill:#2929ff;fill-opacity:1;stroke-width:1.34433"
       d="m 433.42625,440.84708 c -6.76005,-10.18444 -16.84793,-20.39501 -26.42884,-26.75029 -4.25146,-2.8201 -7.72993,-6.1164 -7.72993,-7.3251 0,-4.24641 14.65774,-31.79017 21.16314,-39.76825 6.27586,-7.69657 6.85004,-8.06275 12.53592,-7.99485 4.03461,0.0482 9.38345,1.72139 16.56407,5.18155 14.2339,6.85895 26.91195,19.40911 33.54869,33.21027 6.24704,12.99077 7.50181,20.44024 4.08334,24.24236 -6.91239,7.68815 -35.2762,24.30237 -44.71016,26.18916 -3.53483,0.70697 -4.3282,0.093 -9.02623,-6.98485 z"
       id="path5"
       transform="scale(0.26458333)" />
    <path
       style="fill:#2929ff;fill-opacity:1;stroke-width:1.34433"
       d="m 493.45644,407.68199 c -6.97067,-23.5913 -28.52663,-45.72479 -51.49557,-52.87524 -7.50601,-2.3367 -7.6545,-2.47526 -5.37734,-5.01774 3.69066,-4.12067 21.30756,-15.61954 30.3802,-19.8297 15.89289,-7.3751 31.02723,-10.95022 47.24439,-11.16033 l 14.78768,-0.1916 0.39967,9.16908 c 0.69789,16.01081 -4.83135,39.20584 -13.51696,56.70334 -4.35967,8.78271 -13.90859,22.7975 -18.09861,26.56303 -2.55842,2.29922 -2.67867,2.20575 -4.32346,-3.36084 z m 16.01907,-46.0296 c 7.63325,-7.31312 6.14553,-20.68144 -2.91642,-26.20636 -14.8395,-9.04739 -31.35609,7.18377 -23.25378,22.85191 4.56162,8.8212 18.58762,10.61902 26.1702,3.35445 z"
       id="path6"
       transform="scale(0.26458333)" />
    <path
       style="fill:#2929ff;fill-opacity:1;stroke-width:1.34433"
       d="m 372.38078,401.01296 c -14.94509,-2.55114 -13.88502,-1.92437 -11.14378,-6.58879 3.79088,-6.45046 17.96555,-19.35459 25.29907,-23.0314 7.68845,-3.85476 16.66329,-6.95507 17.55431,-6.06405 0.33536,0.33537 -1.69661,4.55653 -4.51551,9.38038 -2.81889,4.82384 -6.85969,13.07906 -8.97956,18.34492 -4.30277,10.68827 -3.71925,10.4333 -18.21453,7.95894 z"
       id="path7"
       transform="scale(0.26458333)" />
    <path
       style="fill:#2929ff;fill-opacity:1;stroke-width:1.34433"
       d="m 446.9373,482.27835 c -0.50559,-4.25046 -1.40476,-10.44055 -1.99815,-13.75575 -0.5934,-3.31521 -0.84096,-6.41263 -0.55015,-6.88317 0.29081,-0.47054 4.15047,-2.20996 8.57704,-3.86539 4.42656,-1.65542 12.70951,-5.66617 18.40655,-8.91277 5.69704,-3.2466 10.55747,-5.9029 10.80095,-5.9029 1.16879,0 0.0887,3.72601 -3.76028,12.97161 -4.55479,10.94109 -14.53644,23.05424 -24.83789,30.14183 l -5.71882,3.93465 z"
       id="path8"
       transform="scale(0.26458333)" />
  </g>
</svg>
