<?xml version="1.0" standalone="no"?>
<!DOCTYPE svg PUBLIC "-//W3C//DTD SVG 20010904//EN"
 "http://www.w3.org/TR/2001/REC-SVG-20010904/DTD/svg10.dtd">
<svg version="1.0" xmlns="http://www.w3.org/2000/svg"
 width="226.000000pt" height="226.000000pt" viewBox="0 0 226.000000 226.000000"
 preserveAspectRatio="xMidYMid meet">

<g transform="translate(0.000000,226.000000) scale(0.100000,-0.100000)"
fill="#000000" stroke="none">
<path d="M1750 2120 c-305 -42 -558 -161 -779 -365 -88 -82 -93 -85 -139 -85
-106 0 -265 -54 -373 -126 -86 -57 -197 -175 -244 -258 -36 -64 -90 -204 -83
-212 2 -1 46 2 99 8 167 20 357 -28 496 -124 215 -149 334 -370 334 -623 0
-55 -4 -121 -9 -147 -11 -55 -11 -55 69 -32 111 33 208 93 305 189 142 141
214 286 233 469 l8 86 81 85 c205 216 330 490 363 797 12 112 6 315 -10 331
-13 13 -269 18 -351 7z m252 -121 c5 -8 6 -63 3 -129 -13 -237 -85 -462 -208
-645 -45 -68 -125 -165 -135 -165 -4 0 -13 23 -20 52 -18 76 -84 203 -143 276
-100 124 -264 233 -396 263 -29 7 -53 16 -53 20 0 15 134 116 227 172 186 111
454 182 652 172 39 -2 67 -8 73 -16z m-885 -404 c152 -51 283 -149 374 -278
57 -81 111 -213 113 -277 1 -44 0 -45 -80 -110 -45 -36 -116 -85 -159 -109
-77 -45 -232 -111 -258 -111 -8 0 -32 30 -53 67 -50 87 -170 213 -261 274 -40
27 -77 49 -83 49 -15 0 -12 18 10 78 55 145 135 281 227 390 52 61 62 63 170
27z m-347 -50 c0 -3 -25 -46 -55 -96 -30 -50 -72 -136 -92 -191 -33 -85 -41
-98 -58 -94 -102 22 -184 36 -221 36 -24 0 -44 2 -44 6 0 3 17 31 39 62 53 78
153 170 231 211 84 45 200 83 200 66z m765 -797 c-11 -51 -50 -143 -86 -204
-39 -64 -166 -188 -227 -222 l-42 -23 0 53 c0 29 -9 94 -19 143 -10 50 -16 93
-12 96 3 3 35 16 71 29 74 26 194 85 260 129 58 38 63 38 55 -1z"/>
<path d="M1615 1846 c-93 -40 -124 -168 -61 -251 69 -90 200 -85 270 9 30 39
30 143 0 183 -50 68 -134 92 -209 59z m118 -57 c73 -38 76 -148 6 -185 -48
-24 -87 -18 -125 20 -37 37 -44 81 -20 125 25 45 91 64 139 40z"/>
<path d="M1660 1696 c0 -21 5 -26 26 -26 21 0 25 4 22 23 -2 14 -11 23 -25 25
-19 3 -23 -1 -23 -22z"/>
</g>
</svg>
