<?xml version="1.0" encoding="UTF-8" standalone="no"?>
<!-- Created with Inkscape (http://www.inkscape.org/) -->

<svg
   width="67.73333mm"
   height="67.733345mm"
   viewBox="0 0 67.73333 67.733345"
   version="1.1"
   id="svg1"
   xmlns="http://www.w3.org/2000/svg"
   xmlns:svg="http://www.w3.org/2000/svg">
  <defs
     id="defs1" />
  <g
     id="layer1"
     transform="translate(-88.106246,-73.554174)">
    <g
       transform="matrix(0.02669037,0,0,-0.02670132,86.733755,137.79191)"
       fill="#000000"
       stroke="none"
       id="g3"
       style="fill:#0000ba;fill-opacity:1">
      <path
         d="m 1750,2120 c -305,-42 -558,-161 -779,-365 -88,-82 -93,-85 -139,-85 -106,0 -265,-54 -373,-126 -86,-57 -197,-175 -244,-258 -36,-64 -90,-204 -83,-212 2,-1 46,2 99,8 167,20 357,-28 496,-124 215,-149 334,-370 334,-623 0,-55 -4,-121 -9,-147 -11,-55 -11,-55 69,-32 111,33 208,93 305,189 142,141 214,286 233,469 l 8,86 81,85 c 205,216 330,490 363,797 12,112 6,315 -10,331 -13,13 -269,18 -351,7 z m 252,-121 c 5,-8 6,-63 3,-129 -13,-237 -85,-462 -208,-645 -45,-68 -125,-165 -135,-165 -4,0 -13,23 -20,52 -18,76 -84,203 -143,276 -100,124 -264,233 -396,263 -29,7 -53,16 -53,20 0,15 134,116 227,172 186,111 454,182 652,172 39,-2 67,-8 73,-16 z m -885,-404 c 152,-51 283,-149 374,-278 57,-81 111,-213 113,-277 1,-44 0,-45 -80,-110 -45,-36 -116,-85 -159,-109 -77,-45 -232,-111 -258,-111 -8,0 -32,30 -53,67 -50,87 -170,213 -261,274 -40,27 -77,49 -83,49 -15,0 -12,18 10,78 55,145 135,281 227,390 52,61 62,63 170,27 z m -347,-50 c 0,-3 -25,-46 -55,-96 -30,-50 -72,-136 -92,-191 -33,-85 -41,-98 -58,-94 -102,22 -184,36 -221,36 -24,0 -44,2 -44,6 0,3 17,31 39,62 53,78 153,170 231,211 84,45 200,83 200,66 z m 765,-797 c -11,-51 -50,-143 -86,-204 -39,-64 -166,-188 -227,-222 l -42,-23 v 53 c 0,29 -9,94 -19,143 -10,50 -16,93 -12,96 3,3 35,16 71,29 74,26 194,85 260,129 58,38 63,38 55,-1 z"
         id="path1"
         style="fill:#0000ba;fill-opacity:1" />
      <path
         d="m 1615,1846 c -93,-40 -124,-168 -61,-251 69,-90 200,-85 270,9 30,39 30,143 0,183 -50,68 -134,92 -209,59 z m 118,-57 c 73,-38 76,-148 6,-185 -48,-24 -87,-18 -125,20 -37,37 -44,81 -20,125 25,45 91,64 139,40 z"
         id="path2"
         style="fill:#0000ba;fill-opacity:1" />
      <path
         d="m 1660,1696 c 0,-21 5,-26 26,-26 21,0 25,4 22,23 -2,14 -11,23 -25,25 -19,3 -23,-1 -23,-22 z"
         id="path3"
         style="fill:#0000ba;fill-opacity:1" />
    </g>
    <path
       style="fill:#2929ff;fill-opacity:1;stroke-width:1.34433"
       d="m 433.42625,440.84708 c -6.76005,-10.18444 -16.84793,-20.39501 -26.42884,-26.75029 -4.25146,-2.8201 -7.72993,-6.1164 -7.72993,-7.3251 0,-4.24641 14.65774,-31.79017 21.16314,-39.76825 6.27586,-7.69657 6.85004,-8.06275 12.53592,-7.99485 4.03461,0.0482 9.38345,1.72139 16.56407,5.18155 14.2339,6.85895 26.91195,19.40911 33.54869,33.21027 6.24704,12.99077 7.50181,20.44024 4.08334,24.24236 -6.91239,7.68815 -35.2762,24.30237 -44.71016,26.18916 -3.53483,0.70697 -4.3282,0.093 -9.02623,-6.98485 z"
       id="path5"
       transform="scale(0.26458333)" />
    <path
       style="fill:#2929ff;fill-opacity:1;stroke-width:1.34433"
       d="m 493.45644,407.68199 c -6.97067,-23.5913 -28.52663,-45.72479 -51.49557,-52.87524 -7.50601,-2.3367 -7.6545,-2.47526 -5.37734,-5.01774 3.69066,-4.12067 21.30756,-15.61954 30.3802,-19.8297 15.89289,-7.3751 31.02723,-10.95022 47.24439,-11.16033 l 14.78768,-0.1916 0.39967,9.16908 c 0.69789,16.01081 -4.83135,39.20584 -13.51696,56.70334 -4.35967,8.78271 -13.90859,22.7975 -18.09861,26.56303 -2.55842,2.29922 -2.67867,2.20575 -4.32346,-3.36084 z m 16.01907,-46.0296 c 7.63325,-7.31312 6.14553,-20.68144 -2.91642,-26.20636 -14.8395,-9.04739 -31.35609,7.18377 -23.25378,22.85191 4.56162,8.8212 18.58762,10.61902 26.1702,3.35445 z"
       id="path6"
       transform="scale(0.26458333)" />
    <path
       style="fill:#2929ff;fill-opacity:1;stroke-width:1.34433"
       d="m 372.38078,401.01296 c -14.94509,-2.55114 -13.88502,-1.92437 -11.14378,-6.58879 3.79088,-6.45046 17.96555,-19.35459 25.29907,-23.0314 7.68845,-3.85476 16.66329,-6.95507 17.55431,-6.06405 0.33536,0.33537 -1.69661,4.55653 -4.51551,9.38038 -2.81889,4.82384 -6.85969,13.07906 -8.97956,18.34492 -4.30277,10.68827 -3.71925,10.4333 -18.21453,7.95894 z"
       id="path7"
       transform="scale(0.26458333)" />
    <path
       style="fill:#2929ff;fill-opacity:1;stroke-width:1.34433"
       d="m 446.9373,482.27835 c -0.50559,-4.25046 -1.40476,-10.44055 -1.99815,-13.75575 -0.5934,-3.31521 -0.84096,-6.41263 -0.55015,-6.88317 0.29081,-0.47054 4.15047,-2.20996 8.57704,-3.86539 4.42656,-1.65542 12.70951,-5.66617 18.40655,-8.91277 5.69704,-3.2466 10.55747,-5.9029 10.80095,-5.9029 1.16879,0 0.0887,3.72601 -3.76028,12.97161 -4.55479,10.94109 -14.53644,23.05424 -24.83789,30.14183 l -5.71882,3.93465 z"
       id="path8"
       transform="scale(0.26458333)" />
    <path
       style="fill:#2929ff;fill-opacity:1;stroke-width:0.672167"
       d="m 437.76852,446.1293 c -3.61433,-3.89438 -5.37346,-6.16301 -5.03858,-6.49789 0.18608,-0.18607 -0.15694,-0.52837 -0.76227,-0.76066 -0.60533,-0.23228 -0.95369,-0.66003 -0.77414,-0.95055 0.17954,-0.29051 -0.43678,-1.02829 -1.36962,-1.63951 -0.93284,-0.61122 -1.52555,-1.38721 -1.31714,-1.72442 0.2084,-0.3372 -0.39635,-1.12108 -1.3439,-1.74194 -0.94754,-0.62085 -1.55312,-1.29852 -1.34571,-1.50592 0.52144,-0.52145 -9.18495,-10.20584 -9.82966,-9.80738 -0.28606,0.17679 -1.19722,-0.59439 -2.0248,-1.71375 -0.82758,-1.11936 -1.91101,-2.03519 -2.40762,-2.03519 -0.49662,0 -1.07705,-0.45372 -1.28985,-1.00825 -0.21279,-0.55454 -0.79322,-1.00826 -1.28984,-1.00826 -0.49661,0 -1.21124,-0.52933 -1.58806,-1.17629 -0.37682,-0.64696 -0.69433,-0.95334 -0.70557,-0.68084 -0.0348,0.84269 -8.08645,-7.27274 -8.08645,-8.15047 0,-0.45981 0.34886,-0.61081 0.7864,-0.3404 0.52876,0.3268 0.64578,0.11959 0.35718,-0.63249 -0.23639,-0.61601 -0.10441,-1.11852 0.29377,-1.11852 0.39764,0 0.55638,-0.43417 0.35275,-0.96482 -0.20363,-0.53066 -0.12913,-1.05999 0.16557,-1.1763 0.29469,-0.11631 2.27136,-3.68993 4.39258,-7.94139 6.43894,-12.90519 13.78424,-24.67153 18.52222,-29.6705 l 4.36936,-4.61004 h 4.07877 c 12.97368,0 32.99558,12.20359 44.00894,26.82398 4.20064,5.5764 8.7598,14.31272 11.08671,21.24448 2.43349,7.24924 2.16003,11.91799 -0.90234,15.40584 -1.18065,1.34469 -2.14664,2.2304 -2.14664,1.96825 0,-0.26216 -0.68057,0.14866 -1.51237,0.91293 -2.75043,2.5271 -16.85038,11.42781 -24.36607,15.3813 -4.06662,2.13916 -7.48901,4.11616 -7.60532,4.39334 -0.1163,0.27718 -0.60663,0.35232 -1.08962,0.16698 -0.48299,-0.18534 -1.29525,0.0585 -1.80503,0.54189 -0.50979,0.48337 -1.38059,0.9174 -1.93513,0.9645 -0.55454,0.0471 -2.13378,0.30597 -3.50943,0.57528 -2.22475,0.43553 -2.70762,0.26721 -4.36909,-1.52299 z"
       id="path9"
       transform="scale(0.26458333)" />
    <path
       style="fill:#2929ff;fill-opacity:1;stroke-width:0.118824"
       d="m 439.08763,448.97846 c -1.05778,-0.64328 -2.78468,-2.92379 -4.90662,-6.47958 -1.24924,-2.09337 -2.25787,-3.5997 -2.65937,-3.97159 -0.17105,-0.15844 -0.31099,-0.36063 -0.31099,-0.44932 0,-0.27513 -1.08471,-1.61595 -1.69141,-2.09076 -0.60249,-0.47152 -1.07785,-1.11645 -0.99178,-1.34556 0.0728,-0.19393 -1.23447,-1.75419 -1.94148,-2.31712 -0.3454,-0.27502 -0.63749,-0.61665 -0.68184,-0.7975 -0.10288,-0.4195 -2.60665,-3.17315 -5.65299,-6.21718 -2.71099,-2.70892 -4.08344,-3.94562 -4.2586,-3.83737 -0.22652,0.14 -0.96116,-0.4618 -1.78705,-1.46392 -0.93989,-1.14044 -2.25503,-2.28439 -2.62625,-2.28439 -0.38611,0 -1.00215,-0.4441 -1.16653,-0.84095 -0.19409,-0.46858 -1.06098,-1.12944 -1.61884,-1.23409 -0.31116,-0.0584 -0.60726,-0.26081 -1.04001,-0.71103 -1.1673,-1.21443 -7.28307,-4.9528 -8.39281,-5.13025 -0.67521,-0.10797 -0.88521,-0.40303 -0.86649,-1.2174 0.009,-0.37235 0.1071,-1.04199 0.21898,-1.4881 0.17161,-0.68428 0.17899,-0.85673 0.0472,-1.10296 -0.1819,-0.33988 -0.0182,-0.71394 0.28821,-0.65873 0.13446,0.0242 0.25133,-0.17396 0.42044,-0.71294 0.40855,-1.30207 0.86608,-2.63557 1.03074,-3.00414 0.0876,-0.19606 0.55752,-1.34567 1.04429,-2.5547 5.16678,-12.8332 12.29311,-24.94275 20.8031,-35.35001 1.42771,-1.74602 1.80511,-2.17155 3.14662,-3.54793 3.38261,-3.47055 5.22006,-3.5778 13.69039,-0.79909 5.7002,1.86997 10.28029,3.88226 14.95904,6.57234 8.86804,5.09874 16.38672,11.7236 22.64054,19.94906 4.34865,5.71964 8.38781,13.5527 10.92995,21.19622 1.28791,3.8724 1.82458,6.39591 1.9205,9.03059 0.10507,2.88619 -0.25804,3.8749 -2.10157,5.72232 -1.98393,1.98812 -7.32117,6.27631 -11.64471,9.35591 -7.94617,5.65995 -13.43117,8.77432 -22.93295,13.02128 -1.33973,0.59881 -2.52029,1.16511 -2.62347,1.25844 -0.10318,0.0933 -0.28293,0.1697 -0.39945,0.1697 -0.11652,0 -1.34213,0.45115 -2.72358,1.00256 -3.52439,1.40676 -5.98033,2.2316 -7.39322,2.48304 -0.24237,0.0431 -0.48854,-0.009 -0.728,-0.15485 z"
       id="path10"
       transform="scale(0.26458333)" />
    <path
       style="fill:#2929ff;fill-opacity:1;stroke-width:0.118824"
       d="m 494.97495,413.23858 c -0.44262,-0.87474 -0.99126,-2.51755 -1.55756,-4.66382 -1.07615,-4.07866 -2.57138,-7.87925 -5.03032,-12.78612 -3.99744,-7.97696 -7.52636,-13.08133 -13.49131,-19.51434 -9.31666,-10.04774 -22.82202,-18.59882 -34.18672,-21.64572 -3.76998,-1.01075 -4.3542,-1.17902 -5.36606,-1.54556 -1.05291,-0.38142 -1.63704,-0.73418 -1.63704,-0.98862 0,-0.88796 6.43854,-6.18533 13.66471,-11.24277 9.43666,-6.60452 16.34512,-10.37577 26.02235,-14.20532 10.67421,-4.22408 22.80687,-7.32484 33.68648,-8.6093 8.12297,-0.95901 16.73699,-0.93511 20.6753,0.0574 0.39211,0.0988 1.00662,0.32555 1.36556,0.50385 0.58363,0.2899 0.6686,0.38071 0.80374,0.85888 0.0831,0.29409 0.21019,1.62212 0.2824,2.95117 0.14615,2.68972 -0.004,8.83173 -0.3115,12.70708 -1.66728,21.04109 -7.58314,40.20056 -17.61232,57.04038 -4.02356,6.75588 -10.86694,15.91649 -15.12846,20.25109 -1.59461,1.62196 -1.7495,1.68107 -2.17925,0.83176 z m 6.46041,-47.42015 c 3.99248,-0.93273 7.7081,-3.38245 10.18548,-6.7153 1.6912,-2.27518 2.49701,-5.69025 2.37349,-10.05897 -0.10962,-3.87697 -0.70485,-6.13182 -2.24862,-8.51825 -1.89316,-2.92654 -5.41095,-5.52684 -9.03614,-6.6794 -3.35033,-1.06518 -7.12012,-1.03288 -10.42643,0.0893 -2.35896,0.80067 -4.04423,1.81883 -5.78633,3.49581 -3.09235,2.97676 -4.72624,6.4347 -5.14213,10.88274 -0.23656,2.53009 0.2418,5.64069 1.22145,7.94263 1.69906,3.99236 4.81554,7.11271 8.7693,8.7802 2.05439,0.86643 3.69349,1.12411 6.76287,1.06317 1.76527,-0.0351 2.55758,-0.10219 3.32706,-0.28196 z"
       id="path11"
       transform="scale(0.26458333)" />
    <path
       style="fill:#2929ff;fill-opacity:1;stroke-width:0.118824"
       d="m 384.98829,403.37812 c -0.16339,-0.0286 -1.52689,-0.3115 -3.03,-0.62876 -3.25652,-0.68734 -5.35683,-1.07553 -10.53194,-1.94656 -4.67305,-0.78652 -6.36326,-0.98252 -9.78689,-1.13488 -2.50505,-0.11148 -3.41322,-0.23511 -3.56812,-0.48574 -0.2401,-0.3885 4.42581,-7.3516 7.00309,-10.45095 5.33162,-6.41163 12.43084,-12.63444 18.601,-16.30469 7.03483,-4.18458 20.47853,-9.01928 21.69635,-7.80257 0.17722,0.17706 0.16304,0.2502 -0.18042,0.93059 -0.47433,0.93964 -2.13971,3.83316 -4.26594,7.41188 -2.31209,3.89154 -3.36992,5.82647 -5.17566,9.46714 -2.38357,4.80565 -3.24391,6.76419 -5.71508,13.01016 -2.69523,6.81232 -3.57273,8.192 -5.04639,7.93438 z"
       id="path12"
       transform="scale(0.26458333)" />
    <path
       style="fill:#2929ff;fill-opacity:1;stroke-width:0.118824"
       d="m 446.74508,486.43389 c -0.0433,-3.27798 -0.10739,-4.54551 -0.31095,-6.14912 -0.36143,-2.84729 -0.86077,-5.91844 -1.54556,-9.50588 -0.76473,-4.00622 -1.20091,-6.83243 -1.28614,-8.33341 -0.0671,-1.18248 -0.0631,-1.20741 0.22424,-1.3957 0.52567,-0.34444 2.42466,-1.12031 6.30303,-2.57525 5.85636,-2.19697 9.17464,-3.63967 14.50147,-6.30483 5.39098,-2.69727 8.58255,-4.49291 12.6236,-7.1023 2.99253,-1.93234 4.56854,-2.77475 5.09499,-2.72337 0.81608,0.0796 0.81964,1.11032 0.0145,4.19485 -1.3476,5.16277 -5.11359,13.8978 -8.30479,19.26257 -3.3303,5.59863 -14.6304,16.97635 -21.34176,21.48835 -1.09328,0.73501 -5.60118,3.27321 -5.81328,3.27321 -0.0576,0 -0.12935,-1.85811 -0.15935,-4.12912 z"
       id="path13"
       transform="scale(0.26458333)" />
    <path
       style="fill:#2929ff;fill-opacity:1;stroke-width:0.237647"
       d="m 495.37536,360.05939 c -2.24763,-0.71084 -4.5648,-2.50274 -6.20046,-4.7949 -4.58922,-6.43122 -0.80269,-14.87837 7.17669,-16.01005 4.69724,-0.66619 8.81686,1.53547 10.95093,5.85254 0.90387,1.82847 0.90578,1.83865 0.90578,4.81565 0,2.86199 -0.0308,3.04844 -0.75884,4.58522 -1.69662,3.5816 -5.51831,5.89182 -9.69763,5.86226 -0.78423,-0.006 -1.85365,-0.14538 -2.37647,-0.31072 z m 4.39749,-8.34292 c 0.19054,-0.22959 0.25529,-0.79041 0.18077,-1.56587 -0.1412,-1.46959 -0.85513,-2.28892 -2.27183,-2.60723 -1.44601,-0.32489 -2.08678,0.002 -2.27201,1.16087 -0.18529,1.15871 0.029,2.39904 0.51033,2.95404 0.48204,0.55581 3.40314,0.59993 3.85274,0.0582 z"
       id="path14"
       transform="scale(0.26458333)" />
    <path
       style="fill:#2929ff;fill-opacity:1;stroke-width:0.0105026"
       d="m 497.47745,360.36476 c -0.84286,-0.0468 -1.60555,-0.15651 -2.07887,-0.29892 -0.25179,-0.0758 -0.61117,-0.21112 -0.93373,-0.35168 l -0.13818,-0.0602 v -6.77274 -6.77273 l 6.72895,0.003 6.72895,0.003 0.0559,0.13544 c 0.20802,0.50429 0.29929,0.93361 0.33961,1.59749 0.006,0.10398 0.0228,0.2623 0.0366,0.35184 0.17879,1.15815 0.18046,2.38481 0.005,3.49212 -0.0321,0.20249 -0.0389,0.26136 -0.0683,0.59865 -0.0491,0.56155 -0.1502,0.96561 -0.37355,1.49296 -0.0958,0.22613 -0.30189,0.67235 -0.41542,0.89932 -0.64264,1.28482 -1.56245,2.4144 -2.71337,3.33216 -1.42476,1.13612 -3.15903,1.9021 -4.99399,2.2057 -0.36658,0.0607 -0.73452,0.10277 -1.14479,0.13104 -0.15905,0.011 -0.90822,0.0213 -1.03451,0.0143 z m 0.96803,-8.28067 c 0.6254,-0.0423 1.08799,-0.15843 1.27756,-0.3207 0.19155,-0.16395 0.2826,-0.61079 0.25383,-1.24565 -0.0375,-0.82646 -0.19015,-1.3921 -0.50336,-1.86462 -0.3923,-0.59182 -1.01606,-0.95738 -1.94866,-1.14204 -1.02926,-0.20379 -1.61435,-0.0419 -1.9096,0.5282 -0.12538,0.2421 -0.19511,0.51726 -0.2453,0.96793 -0.023,0.20625 -0.0263,0.81991 -0.006,1.01875 0.0671,0.64319 0.22193,1.15193 0.45699,1.50188 0.13368,0.19901 0.28372,0.29472 0.61633,0.39313 0.26216,0.0776 0.70105,0.14334 1.11328,0.16683 0.14926,0.009 0.75078,0.006 0.89451,-0.004 z"
       id="path15"
       transform="scale(0.26458333)" />
    <path
       style="fill:#000080;fill-opacity:1;stroke-width:0.336084"
       d="m 433.64713,505.74757 c -0.11873,-0.30941 -0.0322,-1.63274 0.19228,-2.94073 1.76798,-10.30115 1.20422,-25.35264 -1.31011,-34.97828 -3.66864,-14.04465 -11.70769,-27.12477 -22.67518,-36.89412 -11.3779,-10.13494 -23.29943,-15.95229 -38.48159,-18.77789 -5.13378,-0.95546 -15.46859,-1.18422 -21.97292,-0.48637 -5.6279,0.60382 -8.27462,0.67926 -8.27462,0.23584 0,-1.44045 4.48255,-13.01461 6.97735,-18.01588 2.79171,-5.59645 6.85512,-11.10191 12.86172,-17.42612 6.84279,-7.20462 13.35914,-12.0919 21.33119,-15.99847 10.08486,-4.9419 19.00517,-7.47066 28.4356,-8.061 4.45434,-0.27884 4.79456,-0.3511 6.48958,-1.37839 0.98384,-0.59626 4.19041,-3.2743 7.12571,-5.95119 12.23482,-11.15769 22.01775,-18.05965 34.41838,-24.28251 12.0432,-6.0435 25.67823,-10.49215 39.64766,-12.93572 7.4144,-1.29694 13.54766,-1.6331 25.54237,-1.39995 10.68949,0.20778 14.94355,0.56754 15.70408,1.32807 0.7047,0.7047 1.09175,3.75175 1.46888,11.56366 0.85117,17.6314 -1.33398,34.29373 -6.64628,50.67968 -4.79599,14.7934 -11.61793,27.85242 -21.00543,40.21004 -3.63872,4.78997 -6.44057,8.00748 -12.7494,14.64078 l -4.86046,5.11043 -0.59214,6.19476 c -1.78911,18.71712 -7.39088,31.73934 -19.4886,45.30439 -10.97999,12.31176 -23.16629,20.28803 -36.57918,23.94211 -3.79202,1.03306 -5.25212,1.11629 -5.55889,0.31686 z m 16.68329,-16.99779 c 4.41058,-2.57148 7.91239,-5.45514 13.97835,-11.51087 6.1785,-6.16809 9.08578,-9.8753 11.70273,-14.92269 4.38176,-8.45124 7.87601,-18.81478 6.7301,-19.96068 -0.35232,-0.35232 -2.10981,0.54245 -6.51094,3.31487 -5.96449,3.75722 -16.59361,9.04167 -23.86195,11.86338 -9.53262,3.70075 -8.73818,3.24022 -8.73818,5.06531 0,0.85699 0.44765,4.00886 0.99478,7.00416 1.53687,8.41373 2.02998,12.5164 2.02998,16.88951 0,2.36025 0.134,4.02145 0.32439,4.02145 0.17841,0 1.68625,-0.794 3.35074,-1.76444 z m -7.43131,-40.43733 c 6.8981,-2.30874 19.59374,-8.31415 25.69625,-12.15508 7.55784,-4.7569 17.95405,-12.79392 19.96398,-15.43358 0.89641,-1.17726 0.94579,-1.42275 0.93099,-4.62808 -0.0124,-2.68338 -0.20979,-4.04657 -0.95244,-6.57767 -1.89092,-6.44458 -5.66168,-14.64828 -9.19144,-19.99699 -9.31316,-14.11239 -22.86684,-24.36549 -39.59074,-29.94961 -8.70572,-2.90685 -10.87012,-2.84668 -14.10901,0.39221 -3.71155,3.71155 -10.18271,12.4445 -14.2514,19.23251 -4.24893,7.08872 -8.96202,16.91555 -11.48021,23.93628 -0.43095,1.2015 -0.90514,2.23527 -1.05375,2.29727 -0.14862,0.062 -0.19071,0.24136 -0.0935,0.39858 0.0972,0.15722 0.042,0.88529 -0.12263,1.61794 -0.37445,1.66655 -0.20348,1.93586 1.8327,2.88682 2.90453,1.35649 10.71829,6.82718 14.43679,10.10771 5.38979,4.75495 11.06021,10.65615 13.72459,14.28313 0.38925,0.52989 1.36664,1.82081 2.17197,2.86873 0.80532,1.04791 2.42012,3.44008 3.58844,5.31594 2.59054,4.15939 4.35594,6.26736 5.24883,6.26736 0.36891,0 1.83169,-0.38856 3.25063,-0.86347 z m 56.30649,-38.12519 c 13.5741,-15.8012 22.29782,-32.76769 27.22955,-52.95795 2.50405,-10.25143 3.64033,-19.47411 3.69569,-29.99611 0.0481,-9.13609 0.18997,-8.77167 -3.67812,-9.44527 -3.18415,-0.5545 -13.41975,-0.46946 -18.85587,0.15665 -17.60293,2.02743 -37.13746,8.4945 -51.19513,16.94856 -9.66023,5.8095 -23.40027,16.33439 -22.73323,17.41367 0.11212,0.18143 1.52983,0.73706 3.15047,1.23474 8.75067,2.68726 10.89878,3.47783 14.79119,5.4436 7.81541,3.947 15.67712,9.65527 21.93184,15.92439 6.25469,6.2691 10.47861,12.30335 14.93301,21.33319 2.6351,5.34179 3.69575,8.06122 5.08973,13.04973 0.97414,3.48603 1.59431,4.66121 2.31408,4.38501 0.26953,-0.10343 1.76658,-1.67402 3.32679,-3.49021 z M 386.48236,402.8103 c 0.93391,-0.93391 1.63026,-2.4022 4.38986,-9.25624 2.96229,-7.35744 6.51158,-14.48581 11.20397,-22.50197 1.94262,-3.31863 3.45758,-6.15434 3.36658,-6.30157 -1.03488,-1.67447 -16.85644,4.23913 -23.81969,8.90304 -5.65619,3.78847 -12.86459,10.38834 -16.96345,15.53141 -3.23233,4.05578 -6.7943,9.64897 -6.39754,10.04573 0.1835,0.1835 2.20399,0.44273 4.48997,0.57608 4.25842,0.2484 11.76079,1.41231 18.03082,2.79728 4.48228,0.99007 4.90051,1.00521 5.69948,0.20624 z"
       id="path16"
       transform="scale(0.26458333)" />
    <path
       style="fill:#000080;fill-opacity:1;stroke-width:0.336084"
       d="m 493.37093,365.68163 c -8.34184,-2.32485 -13.43613,-10.80047 -11.62876,-19.34734 1.71961,-8.13189 7.79587,-13.10726 16.00746,-13.10726 4.52369,0 8.2687,1.54752 11.69443,4.83239 3.38629,3.24705 4.42798,5.98438 4.42798,11.63571 0,5.68785 -1.06847,8.46812 -4.48115,11.66053 -3.50855,3.28207 -7.37358,4.82123 -11.98696,4.77353 -1.38634,-0.0143 -3.20119,-0.21573 -4.033,-0.44756 z m 7.83007,-5.90746 c 2.786,-0.8605 5.19957,-2.94522 6.30736,-5.448 1.05589,-2.3855 1.07196,-6.40752 0.035,-8.75107 -0.97923,-2.213 -3.43243,-4.73321 -5.45376,-5.60277 -1.73746,-0.74743 -4.9117,-0.98202 -6.87016,-0.50773 -4.67303,1.1317 -7.98197,5.21616 -8.00889,9.88596 -0.0163,2.82096 0.84703,4.78295 3.19861,7.2694 3.40763,3.60307 6.455,4.49374 10.79189,3.15421 z"
       id="path17"
       transform="scale(0.26458333)" />
    <path
       style="fill:#1a1a1a;fill-opacity:1;stroke-width:0.336084"
       d="m 495.74399,351.4138 c -0.51468,-0.96168 -0.43952,-3.24793 0.12209,-3.71403 0.64715,-0.53709 2.68138,-0.12792 3.41962,0.68783 0.34454,0.38071 0.59308,1.22282 0.61011,2.06724 l 0.0288,1.42483 -1.91201,0.10019 c -1.62206,0.085 -1.96608,-8.5e-4 -2.26856,-0.56606 z"
       id="path18"
       transform="scale(0.26458333)" />
    <path
       style="fill:#1a1a1a;fill-opacity:1;stroke-width:0.336084"
       d="m 437.92392,447.95603 c -0.62075,-0.707 -2.40979,-3.25498 -3.97565,-5.66218 -3.45469,-5.31094 -5.47139,-7.92912 -9.88689,-12.83562 -3.24994,-3.61135 -8.90327,-8.9195 -12.62441,-11.85363 -2.60536,-2.05432 -8.68116,-6.08673 -10.91979,-7.24727 l -1.94309,-1.00734 0.0713,-1.84295 c 0.0392,-1.01362 0.26663,-2.22352 0.50536,-2.68867 0.23874,-0.46514 1.13347,-2.66057 1.98829,-4.87872 2.08985,-5.42287 6.88635,-15.14735 10.11381,-20.50486 6.51581,-10.81611 14.48828,-20.70545 17.49097,-21.69643 1.88916,-0.62348 4.95912,-0.16065 10.07259,1.51855 6.28492,2.06388 11.24682,4.26605 16.07293,7.13342 13.91604,8.26804 23.61479,19.13063 30.14255,33.75965 4.49489,10.07326 5.77646,17.62733 3.49745,20.61527 -2.71245,3.55621 -16.21623,13.4839 -24.73378,18.18375 -7.09002,3.91216 -20.24277,9.57287 -23.4251,10.08174 -1.219,0.19493 -1.40259,0.11428 -2.44654,-1.07471 z"
       id="path19"
       transform="scale(0.26458333)" />
    <path
       style="fill:#1a1a1a;fill-opacity:1;stroke-width:0.336084"
       d="m 494.91057,413.12013 c -0.263,-0.40996 -0.95772,-2.409 -1.54381,-4.4423 -2.72211,-9.44376 -8.89457,-21.06646 -15.17112,-28.56712 -5.34583,-6.38843 -13.81996,-13.67718 -20.78567,-17.87813 -6.25845,-3.77441 -10.54319,-5.58172 -20.59085,-8.68529 -1.62055,-0.50056 -3.03827,-1.05866 -3.15048,-1.24022 -0.44872,-0.72605 7.01365,-6.90611 15.00315,-12.42506 17.17614,-11.86486 37.78783,-19.51845 59.13914,-21.95971 5.55132,-0.63473 18.06791,-0.54244 20.25669,0.14936 2.0248,0.63997 2.11091,1.02244 2.05024,9.10586 -0.21095,28.10482 -9.0733,54.61578 -25.51531,76.3269 -3.24575,4.28591 -8.0835,9.92736 -8.72374,10.17305 -0.28541,0.10952 -0.68973,-0.12322 -0.96824,-0.55734 z m 5.68616,-47.28843 c 4.49661,-0.73062 10.0728,-4.68798 11.86208,-8.41839 1.91447,-3.9914 1.91514,-11.43885 10e-4,-15.43636 -0.93212,-1.94705 -4.63934,-5.63451 -6.84738,-6.81088 -6.44342,-3.43283 -14.77651,-2.17232 -19.64082,2.97097 -6.15092,6.50368 -5.98203,17.13494 0.37127,23.37114 3.83743,3.76671 8.66601,5.23137 14.25345,4.32352 z"
       id="path20"
       transform="scale(0.26458333)" />
    <path
       style="fill:#1a1a1a;fill-opacity:1;stroke-width:0.336084"
       d="m 495.21939,360.05786 c -2.6562,-1.00085 -6.13604,-4.29199 -7.2854,-6.89032 -0.91132,-2.06018 -0.91132,-5.55681 0,-7.61699 1.00745,-2.27752 3.11675,-4.36552 5.48262,-5.42726 1.85632,-0.83307 2.34975,-0.91086 4.97984,-0.78511 3.37268,0.16125 5.07364,0.94385 7.22349,3.32348 1.97003,2.18058 2.66006,4.04869 2.66006,7.20151 0,4.56259 -1.93055,7.63117 -5.93033,9.42616 -2.28164,1.02394 -5.52476,1.3735 -7.13028,0.76853 z m 4.63664,-8.69045 c 0.0978,-0.37416 0.0294,-1.21805 -0.15206,-1.8753 -0.24743,-0.89612 -0.61566,-1.31438 -1.47224,-1.67229 -1.44178,-0.60241 -1.66787,-0.59745 -2.31617,0.0509 -0.68629,0.68629 -0.68629,2.96261 0,3.6489 0.33378,0.33378 1.12326,0.52814 2.14535,0.52814 1.34101,0 1.6476,-0.11619 1.79512,-0.68031 z"
       id="path21"
       transform="scale(0.26458333)" />
    <path
       style="fill:#1a1a1a;fill-opacity:1;stroke-width:0.336084"
       d="m 381.45504,402.77712 c -5.40482,-1.17873 -14.96255,-2.6812 -18.9245,-2.97492 -2.18282,-0.16182 -4.04929,-0.37475 -4.14771,-0.47317 -0.33741,-0.33741 0.26319,-1.56838 2.20055,-4.51023 5.20707,-7.90682 13.10133,-15.84819 21.0397,-21.16524 6.98362,-4.67756 23.69391,-10.89882 23.69391,-8.82127 0,0.52212 -1.09631,2.58321 -4.64078,8.72479 -3.8017,6.58726 -7.25886,13.69153 -10.14007,20.83719 -2.42642,6.01775 -3.14282,7.50507 -4.05379,8.41603 -0.78429,0.7843 -1.29434,0.78093 -5.02731,-0.0332 z"
       id="path22"
       transform="scale(0.26458333)" />
    <path
       style="fill:#008000;fill-opacity:1;stroke-width:0.336084"
       d="m 446.56314,485.2209 c -0.14119,-3.98596 -0.5265,-7.28239 -1.56005,-13.34677 -1.6157,-9.48009 -1.6668,-10.39735 -0.61637,-11.06262 0.41591,-0.26341 3.70533,-1.64113 7.30982,-3.0616 7.94149,-3.1296 17.13003,-7.65974 24.36608,-12.01299 2.95753,-1.77928 5.67981,-3.28357 6.0495,-3.34288 0.53917,-0.0865 0.69285,0.1062 0.7767,0.97392 0.31568,3.26686 -5.33365,17.20469 -9.4889,23.41068 -3.40754,5.08926 -12.25073,14.17482 -18.40885,18.91339 -1.99091,1.53196 -7.42713,4.82219 -7.96739,4.82219 -0.15018,0 -0.35742,-2.382 -0.46054,-5.29332 z"
       id="path23"
       transform="scale(0.26458333)" />
    <path
       style="fill:#008000;fill-opacity:1;stroke-width:0.336084"
       d="m 438.0804,448.25169 c -0.47969,-0.50833 -2.25142,-2.96594 -3.93718,-5.46136 -3.9542,-5.85339 -5.39444,-7.73162 -9.54551,-12.4484 -6.38408,-7.25412 -14.37577,-13.97618 -22.18544,-18.66088 l -3.88461,-2.33022 0.13712,-2.01692 c 0.27748,-4.08136 8.4136,-21.63793 14.28848,-30.83245 5.50779,-8.62003 11.40201,-16.0034 14.38681,-18.0216 1.62682,-1.09999 1.74163,-1.12535 4.35949,-0.96319 5.20016,0.32213 17.44341,5.10168 24.70216,9.64329 6.62715,4.14643 13.39776,9.97699 18.01789,15.51624 7.81065,9.36447 14.60583,23.90112 15.15078,32.41141 0.24365,3.80504 -0.11931,4.97937 -2.18207,7.05979 -3.38692,3.41592 -12.28882,10.04086 -19.41939,14.45222 -8.1681,5.05323 -25.06753,12.5763 -28.25076,12.5763 -0.42108,0 -1.15808,-0.41591 -1.63777,-0.92423 z"
       id="path24"
       transform="scale(0.26458333)" />
    <path
       style="fill:#008000;fill-opacity:1;stroke-width:0.336084"
       d="m 494.91343,413.13094 c -0.26922,-0.41591 -1.16197,-2.7979 -1.9839,-5.29332 -4.49264,-13.63993 -11.27385,-24.66927 -20.76685,-33.77642 -9.94746,-9.54313 -18.44917,-14.70233 -31.55573,-19.14935 -3.60386,-1.22279 -6.70423,-2.38053 -6.88972,-2.57277 -0.70696,-0.7327 8.23796,-8.13344 16.46694,-13.62421 15.38085,-10.26284 33.80151,-17.3233 53.05841,-20.33679 5.31559,-0.83183 19.53069,-1.23579 23.22848,-0.6601 3.80064,0.59171 3.70715,0.35245 3.6677,9.38652 -0.0789,18.06505 -3.49513,34.56378 -10.5332,50.86996 -5.14732,11.9256 -12.91078,24.07501 -21.39114,33.47606 -1.2089,1.34013 -2.33603,2.4366 -2.50474,2.4366 -0.16872,0 -0.52703,-0.34028 -0.79625,-0.75618 z m 9.72008,-48.94742 c 2.19686,-1.08858 3.55129,-2.0563 5.23604,-3.74106 2.96574,-2.96573 3.72379,-5.1001 3.75736,-10.57929 0.037,-6.03288 -1.29862,-9.09682 -5.52772,-12.68103 -3.13754,-2.6591 -5.96891,-3.65243 -10.38433,-3.64311 -4.94047,0.0104 -8.80027,1.68221 -11.93589,5.16978 -6.59283,7.3328 -5.10082,19.16959 3.10264,24.61473 2.97886,1.97726 5.04607,2.5185 9.22704,2.41585 3.45134,-0.0847 3.65305,-0.13283 6.52486,-1.55587 z"
       id="path25"
       transform="scale(0.26458333)" />
    <path
       style="fill:#008000;fill-opacity:1;stroke-width:0.336084"
       d="m 378.76637,402.43606 c -5.65637,-1.10265 -12.85847,-2.19292 -16.4681,-2.49299 -3.60298,-0.29952 -4.033,-0.42408 -4.033,-1.16815 0,-0.89381 4.08784,-6.91001 7.31673,-10.76824 5.85444,-6.99554 14.23721,-13.95667 20.74626,-17.22788 5.46263,-2.74532 14.752,-6.1524 17.30831,-6.34819 1.30495,-0.0999 1.52433,-0.0236 1.59953,0.55633 0.0479,0.36969 -1.58355,3.6213 -3.62552,7.2258 -4.38708,7.7441 -7.60216,14.22195 -10.55123,21.25897 -1.18096,2.81798 -2.40316,5.72855 -2.716,6.46794 -0.31285,0.73938 -0.93973,1.83586 -1.39307,2.43661 -1.02384,1.35672 -1.51256,1.36029 -8.18391,0.0598 z"
       id="path26"
       transform="scale(0.26458333)" />
    <path
       style="fill:#00bb00;fill-opacity:1;stroke-width:0.336084"
       d="m 493.87505,359.47681 c -2.16853,-1.24748 -4.91454,-4.05272 -5.90136,-6.02863 -0.60858,-1.21856 -0.77388,-2.09959 -0.76584,-4.08187 0.0125,-3.09188 0.56005,-4.47673 2.65562,-6.71707 2.26209,-2.41836 4.46802,-3.37271 7.79586,-3.37271 3.5488,0 5.43858,0.68474 7.45508,2.70123 3.14113,3.14113 4.0842,7.01337 2.74973,11.29032 -1.07737,3.45296 -3.08732,5.39139 -6.78294,6.5416 -3.02443,0.94131 -5.16293,0.84253 -7.20615,-0.33287 z"
       id="path27"
       transform="scale(0.26458333)" />
    <path
       style="fill:#003300;fill-opacity:1;stroke-width:0.336084"
       d="m 433.66312,505.78924 c -0.10995,-0.2865 0.0781,-2.44164 0.41777,-4.78919 0.4624,-3.19537 0.61868,-6.29582 0.62173,-12.33429 0.006,-11.09868 -0.86806,-17.16473 -3.70291,-25.71041 -7.31312,-22.04543 -25.84896,-40.44471 -48.20033,-47.84523 -10.723,-3.55038 -21.1185,-4.61502 -33.27229,-3.40754 -6.28544,0.62446 -8.4021,0.64034 -8.4021,0.063 0,-1.50272 4.62381,-13.19901 7.30564,-18.48019 3.7422,-7.36933 11.00394,-16.1286 19.24498,-23.21372 11.48613,-9.87505 27.76099,-16.59753 42.78056,-17.67091 2.51045,-0.17941 5.06903,-0.53702 5.68572,-0.79469 1.29935,-0.5429 3.69825,-2.49596 9.43665,-7.68284 19.35666,-17.49629 38.81036,-28.03053 62.58309,-33.88894 12.83187,-3.16221 19.81757,-3.867 35.45683,-3.57725 10.98236,0.20347 15.27087,0.55846 16.04017,1.32777 1.66889,1.66888 2.20572,21.10859 0.92673,33.55819 -2.02844,19.74459 -8.86189,40.33338 -18.85827,56.8189 -5.63262,9.28904 -10.4755,15.50233 -20.06579,25.74386 l -5.76241,6.15373 -0.58379,5.94529 c -1.8636,18.97868 -7.42664,31.93124 -19.53495,45.48377 -10.91384,12.21559 -22.8782,20.1093 -36.11124,23.82507 -4.00275,1.12395 -5.70525,1.25876 -6.00579,0.47557 z m 18.53755,-18.21764 c 6.53049,-4.19108 17.47598,-15.09696 21.63272,-21.55442 2.79566,-4.34304 6.62643,-12.9905 8.25885,-18.6433 1.04037,-3.60259 1.10946,-4.91964 0.25809,-4.91964 -0.3311,0 -2.93995,1.37189 -5.79744,3.04865 -6.33427,3.7169 -18.42947,9.71435 -24.35222,12.07514 -7.44452,2.96736 -8.22199,3.3638 -8.46048,4.31401 -0.1182,0.47092 0.33811,4.26785 1.014,8.43763 1.37708,8.49553 1.88453,12.85444 1.89986,16.31958 0.006,1.29393 0.10024,2.68765 0.21003,3.09716 l 0.19961,0.74457 1.3922,-0.70477 c 0.76571,-0.38763 2.45086,-1.3842 3.74478,-2.21461 z m -8.88524,-39.35766 c 7.72354,-2.62009 20.25976,-8.72758 27.03376,-13.17051 9.87959,-6.47981 17.54191,-12.73956 18.69737,-15.27484 2.7913,-6.12458 -4.84533,-25.26851 -14.88131,-37.3053 -5.5836,-6.69677 -13.83646,-13.34806 -21.8498,-17.60955 -9.31066,-4.95141 -21.19899,-8.48428 -23.83221,-7.08225 -3.96598,2.11165 -12.31357,12.86514 -18.64566,24.01964 -5.07186,8.93448 -10.83539,22.2103 -11.15037,25.68392 l -0.17517,1.93182 1.97412,1.11344 c 6.30547,3.55641 13.5971,9.17764 19.53945,15.06327 5.06142,5.01312 8.61193,9.29088 13.29455,16.01768 4.48976,6.44975 5.44277,7.57466 6.41718,7.57466 0.4083,0 2.01843,-0.43289 3.57809,-0.96198 z m 55.15845,-37.09951 c 14.84341,-16.70182 25.31431,-38.21218 29.4889,-60.57909 1.41174,-7.56391 1.75876,-11.35016 1.94059,-21.17328 0.21255,-11.48236 0.3439,-11.0157 -3.26015,-11.5824 -4.95409,-0.77897 -18.10163,-0.25881 -25.71041,1.01719 -19.10572,3.20406 -38.65085,11.23263 -53.95312,22.16238 -4.86561,3.4753 -11.43762,8.77027 -12.59989,10.15154 l -0.88882,1.05631 0.78471,0.40921 c 0.43159,0.22506 3.28013,1.26888 6.33009,2.3196 9.59134,3.30426 18.33,7.97477 25.03824,13.38207 13.29501,10.7167 21.58066,22.81366 27.53661,40.20312 1.49313,4.35947 1.98855,5.40604 2.55909,5.40604 0.14849,0 1.37886,-1.24771 2.73416,-2.77269 z m -112.29112,-7.99405 c 0.81522,-0.4363 1.74599,-2.27051 4.86034,-9.57797 2.76025,-6.47665 6.45842,-14.0035 9.88569,-20.12028 2.72378,-4.86124 4.3882,-8.12076 4.3882,-8.59365 0,-1.74019 -14.24427,3.12456 -21.34132,7.28856 -8.9272,5.23781 -19.04088,15.31571 -24.63798,24.55084 -1.75735,2.8996 -1.90861,2.78672 4.641,3.4632 3.58098,0.36986 10.53073,1.47006 16.63614,2.63363 4.02123,0.76637 4.71743,0.81084 5.56793,0.35567 z"
       id="path28"
       transform="scale(0.26458333)" />
    <path
       style="fill:#003300;fill-opacity:1;stroke-width:0.336084"
       d="m 493.82901,365.49892 c -7.21419,-1.53544 -12.79394,-9.48404 -12.08829,-17.22029 0.66365,-7.27569 5.70265,-13.04171 12.57971,-14.39469 2.77021,-0.54501 7.11408,-0.2476 9.46909,0.6483 4.0263,1.5317 7.92541,5.59117 9.10711,9.48169 0.59842,1.97015 0.68782,2.98245 0.58361,6.60851 -0.10828,3.76796 -0.22914,4.50964 -1.00681,6.17839 -1.25284,2.6884 -4.34193,5.58982 -7.83953,7.36327 -2.66267,1.3501 -2.9922,1.43249 -6.11443,1.52887 -1.81504,0.056 -3.92575,-0.0313 -4.69046,-0.19405 z m 8.50555,-6.2028 c 4.07711,-1.8297 5.96873,-4.87327 5.96714,-9.60099 -10e-4,-3.32122 -0.64867,-4.93139 -2.95093,-7.33756 -2.06153,-2.15458 -3.60062,-2.83458 -6.81521,-3.0111 -3.62521,-0.19907 -5.58771,0.453 -8.00073,2.65837 -2.55491,2.33505 -3.21418,3.84986 -3.21026,7.37629 0.003,2.51292 0.11427,3.02835 0.98219,4.54152 1.15001,2.00499 4.33013,5.0229 6.24046,5.92215 1.88935,0.88937 5.08458,0.66424 7.78734,-0.54868 z"
       id="path29"
       transform="scale(0.26458333)" />
    <path
       style="fill:#008000;fill-opacity:1;stroke-width:0.336084"
       d="m 494.449,359.62384 c -1.5144,-0.68141 -4.98746,-4.05466 -6.07014,-5.89571 -0.77839,-1.32361 -0.88747,-1.86892 -0.87396,-4.36908 0.0181,-3.34282 0.59237,-4.72183 2.89756,-6.95766 2.17738,-2.11186 4.12953,-2.84855 7.52333,-2.83909 3.41718,0.01 5.17921,0.68853 7.20578,2.77677 2.37654,2.44886 2.85704,3.68568 2.85782,7.35606 5.4e-4,2.53009 -0.14494,3.50749 -0.70086,4.70894 -1.5677,3.38806 -4.95963,5.45761 -9.21243,5.62087 -1.69051,0.0649 -2.88502,-0.0672 -3.6271,-0.4011 z"
       id="path30"
       transform="scale(0.26458333)" />
  </g>
</svg>
