<svg width="256" height="256" viewBox="0 0 256 256" fill="none" xmlns="http://www.w3.org/2000/svg">
<g clip-path="url(#clip0_3041_8586)">
<path d="M0 128C0 198.692 57.3076 256 128 256C198.692 256 256 198.692 256 128C256 57.3076 198.692 0 128 0C57.3076 0 0 57.3076 0 128Z" fill="#1ECCB0"/>
<path d="M58.5625 88.7981C68.3225 78.2381 94.3225 70.3181 129.283 70.3181C138.723 70.3181 148.562 71.7581 156.003 71.9181C163.443 72.0781 167.682 69.4381 167.682 65.5181C167.682 57.9181 151.043 48.0781 128.163 48.0781C98.3225 48.0781 72.3225 64.4781 58.5625 88.7181V88.7981Z" fill="white"/>
<path d="M169.923 130.556C180.963 131.916 190.563 125.436 192.003 115.516C193.443 105.596 186.483 97.3565 176.723 94.8765C166.963 92.3965 145.923 90.1565 128.563 90.2365C95.5226 90.3965 67.4426 96.7965 55.2026 105.836C52.0026 108.236 50.0026 111.836 49.1226 115.756C46.9626 125.996 48.1626 142.076 51.7626 151.996C54.1626 137.916 85.9226 126.956 128.563 127.356C145.443 127.516 158.803 129.196 169.843 130.556H169.923Z" fill="white"/>
<path d="M151.196 184.885C159.836 184.885 166.876 177.845 166.876 169.205C166.876 161.685 161.836 155.125 153.116 153.525C144.396 151.925 137.916 151.765 128.236 151.845C99.0364 152.165 74.7964 157.045 66.7164 165.605C62.3964 170.165 63.7564 175.205 65.9964 178.165C75.2764 190.405 89.2764 198.325 94.7964 200.725C94.7964 200.725 84.5564 184.085 128.316 184.085C136.876 184.085 145.116 184.805 151.276 184.805L151.196 184.885Z" fill="white"/>
</g>
<defs>
<clipPath id="clip0_3041_8586">
<rect width="256" height="256" rx="101" fill="white"/>
</clipPath>
</defs>
</svg>
