<svg xmlns="http://www.w3.org/2000/svg" xmlns:svg="http://www.w3.org/2000/svg" xmlns:xlink="http://www.w3.org/1999/xlink" id="svg853" width="20" height="20" version="1.1" viewBox="0 0 20 20"><metadata id="metadata859"/><defs id="defs857"><linearGradient id="fill"><stop style="stop-color:#ffb16c;stop-opacity:1" id="stop861" offset="0"/><stop style="stop-color:#ff9daf;stop-opacity:1" id="stop863" offset="1"/></linearGradient><linearGradient id="linearGradient867" x1="9" x2="5" y1="20" y2="4" gradientUnits="userSpaceOnUse" xlink:href="#fill"/><linearGradient id="linearGradient879" x1="18.164" x2="10.113" y1="20.004" y2="4.179" gradientUnits="userSpaceOnUse" xlink:href="#fill"/><linearGradient id="linearGradient885" x1="9" x2="5" y1="20" y2="4" gradientUnits="userSpaceOnUse" xlink:href="#fill"/><filter style="color-interpolation-filters:sRGB" id="filter1571"><feFlood id="feFlood1561" flood-color="#000" flood-opacity=".22" result="flood"/><feComposite id="feComposite1563" in="flood" in2="SourceGraphic" operator="in" result="composite1"/><feGaussianBlur id="feGaussianBlur1565" in="composite1" result="blur" stdDeviation=".3"/><feOffset id="feOffset1567" dx="0" dy=".5" result="offset"/><feComposite id="feComposite1569" in="SourceGraphic" in2="offset" operator="over" result="composite2"/></filter><linearGradient id="linearGradient1587" x1="5" x2="17.997" y1="11.999" y2="11.999" gradientUnits="userSpaceOnUse" xlink:href="#fill"/><linearGradient id="linearGradient854" x1="5" x2="17.997" y1="11.999" y2="11.999" gradientUnits="userSpaceOnUse" xlink:href="#fill"/><linearGradient id="linearGradient860" x1="5" x2="9" y1="12" y2="12" gradientUnits="userSpaceOnUse" xlink:href="#fill"/><linearGradient id="linearGradient868" x1="5" x2="17.997" y1="4" y2="16.586" gradientUnits="userSpaceOnUse" xlink:href="#fill"/></defs><g id="g851"><g id="g871" transform="translate(-3.4985994,-3.9991164)"><g id="g883" transform="translate(2,2)" style="filter:url(#filter1571)"><g id="g1575"><g id="g1579" style="fill-opacity:1;fill:url(#linearGradient1587)"><g id="g852" style="fill-opacity:1;fill:url(#linearGradient854)"><g id="g866" style="fill-opacity:1;fill:url(#linearGradient868)"><rect id="rect847" width="4" height="16" x="5" y="4" rx="2" ry="2" style="fill:url(#linearGradient868);fill-opacity:1"/><path id="path849" d="M 16,4 A 2.2,2.2 0 0 0 14.7,4.5 L 10,9 v 5.5 l 7.5,-7 A 2.2,2.2 0 0 0 17.4,4.6 2.2,2.2 0 0 0 15.8,4 Z m -3,9 -3,3 1,1 2.5,2.5 a 2.2,2.2 0 0 0 2.9,-0.1 2.2,2.2 0 0 0 0.1,-2.9 z" style="fill:url(#linearGradient868);fill-opacity:1"/></g></g></g></g></g></g></g></svg>