<?xml version="1.0" encoding="UTF-8" standalone="no"?>
<!-- Created with Inkscape (http://www.inkscape.org/) -->

<svg
   width="512"
   height="512"
   viewBox="0 0 126.467 126.467"
   version="1.1"
   id="svg8"
   inkscape:version="1.2.1 (9c6d41e410, 2022-07-14)"
   sodipodi:docname="logo.svg"
   xmlns:inkscape="http://www.inkscape.org/namespaces/inkscape"
   xmlns:sodipodi="http://sodipodi.sourceforge.net/DTD/sodipodi-0.dtd"
   xmlns:xlink="http://www.w3.org/1999/xlink"
   xmlns="http://www.w3.org/2000/svg"
   xmlns:svg="http://www.w3.org/2000/svg"
   xmlns:rdf="http://www.w3.org/1999/02/22-rdf-syntax-ns#"
   xmlns:cc="http://creativecommons.org/ns#"
   xmlns:dc="http://purl.org/dc/elements/1.1/">
  <defs
     id="defs2">
    <linearGradient
       inkscape:collect="always"
       id="linearGradient2673">
      <stop
         style="stop-color:#dce1ff;stop-opacity:1"
         offset="0"
         id="stop2669" />
      <stop
         style="stop-color:#000ed4;stop-opacity:1"
         offset="1"
         id="stop2671" />
    </linearGradient>
    <linearGradient
       inkscape:collect="always"
       xlink:href="#linearGradient2673"
       id="linearGradient2762"
       gradientUnits="userSpaceOnUse"
       gradientTransform="translate(-1.3229167,28.575)"
       x1="106.89167"
       y1="153.06667"
       x2="107.68542"
       y2="217.36041" />
  </defs>
  <sodipodi:namedview
     id="base"
     pagecolor="#ffffff"
     bordercolor="#666666"
     borderopacity="1.0"
     inkscape:pageopacity="0.0"
     inkscape:pageshadow="2"
     inkscape:zoom="1"
     inkscape:cx="203.5"
     inkscape:cy="197"
     inkscape:document-units="mm"
     inkscape:current-layer="svg8"
     showgrid="false"
     inkscape:window-width="1920"
     inkscape:window-height="1017"
     inkscape:window-x="-8"
     inkscape:window-y="-8"
     inkscape:window-maximized="1"
     inkscape:showpageshadow="2"
     inkscape:pagecheckerboard="0"
     inkscape:deskcolor="#d1d1d1" />
  <metadata
     id="metadata5">
    <rdf:RDF>
      <cc:Work
         rdf:about="">
        <dc:format>image/svg+xml</dc:format>
        <dc:type
           rdf:resource="http://purl.org/dc/dcmitype/StillImage" />
      </cc:Work>
    </rdf:RDF>
  </metadata>
  <rect
     style="fill:#171844;fill-opacity:1;stroke:#171845;stroke-width:14.4895;stroke-linecap:round;stroke-linejoin:round;stroke-dasharray:none;stroke-opacity:1;paint-order:markers fill stroke"
     id="rect1278"
     width="111.85336"
     height="112.0156"
     x="-158.6114"
     y="147.95482"
     transform="matrix(-1,0,0,1,-39.438578,-140.77284)"
     inkscape:label="background_rect" />
  <ellipse
     ry="88.50312"
     rx="88.635414"
     cy="261.41354"
     cx="103.45207"
     id="path2667"
     style="fill:url(#linearGradient2762);fill-opacity:1;fill-rule:evenodd;stroke-width:0.264583"
     transform="matrix(0.88444474,0,0,0.9411417,-27.473869,-128.70967)"
     inkscape:label="circle_path" />
  <rect
     y="162.81296"
     x="24.000322"
     height="35.01231"
     width="143.92464"
     id="rect980"
     style="stroke-width:1.00330399;stroke-dasharray:none;fill:#5a5a9d;fill-opacity:1;stroke:#5a5a9e;stroke-miterlimit:4;stroke-opacity:1"
     transform="matrix(0.87871593,0,0,0.94122771,-20.546848,-71.851626)"
     inkscape:label="Wall_rect" />
  <rect
     y="166.28745"
     x="142.20027"
     height="14.699827"
     width="20.17885"
     id="rect982-5"
     style="stroke-width:1.00330399;stroke-dasharray:none;fill:#4dada0;fill-opacity:1;stroke:#4cada0;stroke-miterlimit:4;stroke-opacity:1"
     transform="matrix(0.87871593,0,0,0.94122771,-20.546848,-71.851626)"
     inkscape:label="Window4_rect" />
  <rect
     y="166.15382"
     x="116.27513"
     height="14.699827"
     width="20.17885"
     id="rect982-8"
     style="stroke-width:1.00330399;stroke-dasharray:none;fill:#4dada0;fill-opacity:1;stroke:#4cada0;stroke-miterlimit:4;stroke-opacity:1"
     transform="matrix(0.87871593,0,0,0.94122771,-20.546848,-71.851626)"
     inkscape:label="Window3_rect" />
  <rect
     y="166.95563"
     x="56.40675"
     height="14.699827"
     width="20.17885"
     id="rect982-3"
     style="stroke-width:1.00330399;stroke-dasharray:none;fill:#4dada0;fill-opacity:1;stroke:#4cada0;stroke-miterlimit:4;stroke-opacity:1"
     transform="matrix(0.87871593,0,0,0.94122771,-20.546848,-71.851626)"
     inkscape:label="Window2_rect" />
  <rect
     y="166.82199"
     x="29.746618"
     height="14.699827"
     width="20.178848"
     id="rect982"
     style="stroke-width:1.00330399;stroke-dasharray:none;fill:#4dada0;fill-opacity:1;stroke:#4cada0;stroke-miterlimit:4;stroke-opacity:1"
     transform="matrix(0.87871593,0,0,0.94122771,-20.546848,-71.851626)"
     inkscape:label="Window1_rect" />
  <path
     style="stroke-width:3.77988691;stroke-dasharray:none;fill:#000080;fill-opacity:1;stroke:#000080;stroke-miterlimit:4;stroke-opacity:1"
     d="m 88.587259,827.86974 c 0.174844,-1.45841 0.534092,-9.69746 0.798331,-18.30901 0.663677,-21.62929 1.24223,-28.7261 2.482911,-30.45659 0.537554,-0.74977 2.760806,-3.08941 4.94056,-5.19919 3.386059,-3.27737 4.551599,-4.05993 8.003799,-5.37385 2.22234,-0.84583 4.83611,-1.69354 5.80838,-1.8838 0.97227,-0.19026 2.46167,-0.65932 3.30979,-1.04237 0.84811,-0.38304 3.02708,-1.36274 4.84216,-2.17711 1.81508,-0.81437 3.77687,-2.08674 4.35954,-2.82748 2.23722,-2.84416 1.90555,-11.25879 -0.66561,-16.88683 -0.6816,-1.49198 -1.23928,-3.53904 -1.23928,-4.54902 0,-2.65052 -0.76356,-4.92633 -2.24257,-6.68403 -1.05867,-1.25816 -1.29115,-2.05584 -1.28296,-4.40204 0.0174,-4.99332 0.92592,-9.62997 2.36951,-12.09327 0.89076,-1.51996 1.65922,-4.02324 2.22345,-7.243 0.47598,-2.71617 1.44532,-6.08117 2.16387,-7.51178 1.8926,-3.76807 8.23228,-11.29331 9.89626,-11.74693 0.75499,-0.20582 2.00154,-1.00131 2.77011,-1.76777 1.31783,-1.3142 1.64555,-1.39117 5.75558,-1.35166 5.13095,0.0493 8.26855,0.73349 13.58774,2.96281 3.00574,1.25974 4.26985,2.11416 5.50152,3.71852 3.37292,4.39351 4.68794,10.2819 4.70435,21.065 0.01,6.2572 0.0741,6.66936 1.33644,8.52704 1.14364,1.683 1.28887,2.31606 1.0538,4.59357 -0.37382,3.62201 -2.38582,7.34473 -5.34911,9.89725 -2.16135,1.86174 -2.56465,2.5197 -3.10487,5.06531 -0.46708,2.20098 -0.48632,3.83214 -0.0777,6.58546 0.51437,3.46566 0.68097,3.79405 3.1403,6.18975 1.42841,1.39146 3.13224,3.58596 3.78628,4.87665 1.882,3.71394 3.64483,5.44634 7.50095,7.37144 1.97625,0.9866 4.79861,2.69511 6.27193,3.79669 3.40694,2.5473 6.4369,3.92296 8.68545,3.94334 0.97228,0.009 2.98358,0.58202 4.46958,1.27379 1.48599,0.69176 3.38782,1.25775 4.22629,1.25775 1.63375,0 1.79145,-0.14223 9.08581,-8.1943 2.14065,-2.36301 4.75442,-4.70452 5.80838,-5.20335 1.05396,-0.49882 2.51645,-1.34932 3.24996,-1.88998 0.88827,-0.65473 2.40638,-1.04983 4.54569,-1.18305 4.7712,-0.29714 11.07545,-1.65617 12.89942,-2.78077 1.94847,-1.20138 4.70727,-4.26019 4.70727,-5.21917 0,-0.38329 -0.71162,-2.56043 -1.58138,-4.83811 -1.19357,-3.12565 -2.1175,-4.64572 -3.76756,-6.19848 -1.71755,-1.61629 -2.40974,-2.79332 -3.22915,-5.49106 -0.75977,-2.50136 -1.5662,-3.95179 -2.96979,-5.34144 -2.8301,-2.80195 -4.19417,-6.8297 -4.31946,-12.75421 -0.0558,-2.63902 -0.40169,-5.74216 -0.76864,-6.89586 -0.56742,-1.78398 -0.53733,-3.18117 0.20124,-9.34391 0.47764,-3.98545 1.08121,-8.08826 1.34127,-9.11735 0.60115,-2.37887 2.56564,-4.7198 5.00525,-5.9644 1.0486,-0.53495 3.35775,-2.08494 5.13145,-3.4444 4.53772,-3.47797 5.94199,-4.09401 10.11871,-4.43894 8.13909,-0.67217 14.04559,1.72907 20.69225,8.41231 5.41631,5.4461 6.16001,7.3815 6.05733,15.76353 -0.0604,4.9322 0.0515,5.64542 1.22814,7.82869 1.17811,2.18592 1.265,2.7425 0.96555,6.18443 -0.3969,4.562 -1.90756,7.10552 -3.98435,6.70851 -1.72523,-0.3298 -2.6992,1.33486 -3.32842,5.68877 -1.23052,8.51469 -0.59376,10.92732 4.10127,15.53928 4.73461,4.65084 6.58745,5.38215 15.0881,5.95525 3.76112,0.25357 8.07953,0.8033 9.59645,1.22164 1.51693,0.41834 5.6748,1.08668 9.23972,1.48521 6.33871,0.70863 6.53922,0.7692 9.09137,2.74681 1.43534,1.11221 3.9663,3.39813 5.62436,5.07983 4.31952,4.3811 4.91003,4.22661 10.04591,-2.6282 3.49479,-4.66446 12.88757,-13.84558 18.75924,-18.33651 5.8152,-4.44773 11.77354,-10.38042 13.66251,-13.60372 1.27801,-2.18075 1.46979,-2.99959 1.41931,-6.06002 -0.10412,-6.31224 -1.19034,-25.1938 -1.58373,-27.52969 -0.21053,-1.25006 -0.14764,-3.86383 0.13973,-5.80838 0.34502,-2.33458 0.35612,-4.35406 0.0327,-5.94526 -0.57717,-2.83945 0.0127,-5.55908 2.25023,-10.37563 2.21334,-4.76438 3.18358,-5.86275 6.6647,-7.54488 1.91506,-0.92539 4.11612,-2.5443 5.5507,-4.08262 3.69752,-3.96491 8.0004,-4.61677 15.55297,-2.35618 2.32024,0.69448 4.56659,1.26269 4.99187,1.26269 0.68849,0 11.53874,4.85543 15.46372,6.91993 2.21237,1.16369 4.6735,3.62602 5.02531,5.02778 0.16835,0.67074 -0.0603,2.29119 -0.50818,3.60101 -0.44784,1.30982 -0.8564,3.99977 -0.9079,5.97767 -0.0596,2.28752 -0.36175,3.91925 -0.83041,4.48395 -0.6024,0.72584 -0.74726,3.3864 -0.79422,14.58656 -0.065,15.49385 0.16044,14.32192 -5.12572,26.64919 -3.68692,8.59785 -6.11233,12.60392 -8.36631,13.81865 -2.23915,1.20675 -2.31545,1.90391 -0.49848,4.55471 0.86308,1.25915 1.47693,2.95087 1.6415,4.52382 0.21164,2.02275 0.50441,2.63255 1.50185,3.12816 1.56754,0.77887 3.02836,2.6566 3.04295,3.91137 0.006,0.53118 0.58902,1.95171 1.29521,3.15673 1.78163,3.04012 2.83172,2.89338 5.10391,-0.71324 2.56692,-4.07444 3.34536,-4.84736 8.7644,-8.70234 2.63902,-1.87735 5.78569,-4.23864 6.99258,-5.24732 1.29334,-1.08093 2.74506,-1.83853 3.53554,-1.84506 1.6947,-0.014 4.78002,-1.52498 7.44892,-3.64793 1.13693,-0.90435 3.84088,-2.89434 6.00878,-4.4222 6.03101,-4.25043 6.64925,-4.85918 8.30975,-8.18213 2.11264,-4.22777 2.06334,-6.69158 -0.22478,-11.23435 -1.38797,-2.75561 -1.76561,-4.10769 -1.76339,-6.31345 0.004,-3.58993 0.80788,-6.46464 2.30719,-8.24646 1.70046,-2.02089 1.96564,-4.32983 1.03035,-8.97154 -0.44824,-2.22457 -0.81487,-5.11966 -0.81473,-6.43353 2.3e-4,-2.2263 0.16348,-2.52785 2.39911,-4.43133 3.66143,-3.11748 5.18236,-4.04901 8.20724,-5.02676 1.52786,-0.49386 3.65227,-1.3372 4.72093,-1.87409 1.06866,-0.53689 3.56879,-1.38923 5.55584,-1.89409 l 3.61283,-0.91792 2.77792,1.38733 c 1.52785,0.76303 5.00896,2.12484 7.7358,3.02625 4.58304,1.51501 5.08897,1.81632 6.69168,3.98526 2.58419,3.49718 4.16537,7.02496 4.71273,10.51457 0.4027,2.56736 0.30626,3.94883 -0.54648,7.82868 -0.6402,2.91279 -1.0882,7.02487 -1.1736,10.77213 -0.15767,6.91826 -1.95081,16.29623 -3.95158,20.6665 -1.27295,2.78049 -3.22853,5.58672 -7.7445,11.11328 l -2.60971,3.19372 0.92521,1.52137 c 1.15922,1.90618 3.19701,3.4223 8.33482,6.20113 6.13009,3.31551 10.90729,8.17575 13.63552,13.87254 1.19733,2.50013 2.45933,5.79575 2.80445,7.32361 0.34511,1.52786 1.61709,5.577 2.82662,8.9981 1.20953,3.4211 2.19915,6.86975 2.19915,7.66366 0,0.82802 0.57608,2.12811 1.35112,3.0492 1.15283,1.37006 1.59707,1.5658 3.02704,1.33375 0.92863,-0.15069 3.55621,-1.63808 5.89276,-3.3357 2.31925,-1.68505 6.46873,-4.08272 9.22105,-5.32816 4.88558,-2.21073 5.09433,-2.25711 8.80477,-1.9562 l 3.80055,0.30821 2.2035,-2.2097 c 1.23208,-1.23554 2.77697,-3.5457 3.50431,-5.24016 1.11362,-2.59437 1.28148,-3.64796 1.16652,-7.32152 -0.12016,-3.8397 -0.34859,-4.73179 -2.17153,-8.48078 -1.12048,-2.30434 -2.59829,-4.75076 -3.28401,-5.43649 -1.88935,-1.88934 -2.70643,-4.37413 -2.70643,-8.23035 0,-3.03169 0.14542,-3.58671 1.10705,-4.2252 1.0835,-0.71942 1.09227,-0.81334 0.41275,-4.41468 -0.71882,-3.80962 -0.70979,-3.91804 1.09559,-13.15623 0.59623,-3.05099 0.87788,-3.5187 3.98545,-6.61849 3.69454,-3.68528 7.37727,-5.70979 11.32937,-6.2281 3.66182,-0.48024 9.83932,0.82918 12.50049,2.64968 1.1807,0.80771 2.94221,1.8674 3.91449,2.35486 2.92163,1.46482 4.43552,3.26177 6.14399,7.29278 1.46581,3.45848 1.66007,4.52196 1.99161,10.90334 0.51394,9.89203 -0.39832,15.10395 -3.41009,19.48229 -2.44607,3.55596 -4.24736,7.59243 -5.04435,11.30378 -0.95384,4.44182 -0.93613,4.50906 1.96033,7.44099 1.45841,1.47627 3.78808,4.2615 5.17704,6.18941 l 2.52538,3.5053 6.06091,1.91273 c 3.33351,1.05201 7.9793,2.29856 10.32401,2.77011 3.29042,0.66177 4.67322,1.21176 6.06092,2.41065 0.98879,0.8543 2.61892,1.97 3.62246,2.47933 2.17445,1.10358 6.58326,4.87883 7.96702,6.82211 1.71115,2.40311 3.68963,12.16082 4.11268,20.28357 0.20976,4.02799 0.54933,8.17593 0.75449,9.21765 l 0.3731,1.89403 H 358.36297 88.269362 Z"
     id="path940"
     inkscape:connector-curvature="0"
     transform="matrix(0.23400934,0,0,0.24901041,-20.031565,-93.003281)"
     inkscape:label="crew_path" />
  <rect
     style="fill:#ffffff;fill-opacity:1;stroke:#000080;stroke-width:0.91244;stroke-linecap:round;stroke-linejoin:round;stroke-dasharray:none;stroke-opacity:1;paint-order:markers fill stroke"
     id="rect2206"
     width="136.40907"
     height="11.178209"
     x="-3.6678498"
     y="120.68973"
     inkscape:label="White_rect" />
  <rect
     style="fill:#000080;fill-opacity:1;stroke:#000080;stroke-width:13.4745;stroke-linejoin:round;stroke-miterlimit:4;stroke-dasharray:none;stroke-opacity:1"
     id="rect938"
     width="113.12263"
     height="7.3440661"
     x="6.774044"
     y="112.51189"
     inkscape:label="Base_rect" />
</svg>
