<?xml version="1.0" encoding="UTF-8"?>
<svg width="1028px" height="1028px" viewBox="0 0 1028 1028" version="1.1" xmlns="http://www.w3.org/2000/svg" xmlns:xlink="http://www.w3.org/1999/xlink">
    <title>app_icon_cyan</title>
    <g id="app_icon_cyan" stroke="none" stroke-width="1" fill="none" fill-rule="evenodd">
        <path d="M173.502,189.406 L173.502284,301.36048 L173.865311,301.360266 C173.417505,303.718137 173.172005,306.1319 173.142345,308.578123 L173.139292,309.081719 L173.139292,654.940171 C173.139292,669.557296 180.85164,683.076694 193.404182,690.525468 L193.838943,690.779909 L467.933,848.971 L467.933,962.983 L138.97219,1015.06725 C136.817395,1015.53278 134.597953,1015.82461 132.329248,1015.92737 C112.03576,1017.14586 93.747505,1002.77218 90.5000323,982.276196 C89.8187621,977.976451 89.8504632,973.728353 90.5076656,969.652308 L90.5063167,661.360503 C90.4182539,659.655675 90.3650918,657.944665 90.3473495,656.228369 L90.3406921,654.940171 L90.3406921,309.081719 C90.3406921,265.169859 113.541606,224.560272 151.291269,202.233464 L152.439642,201.562506 L173.502,189.406 Z M937.708062,300.561337 C937.871785,302.946179 937.967212,305.343921 937.992907,307.752083 L938,309.081719 L938,654.940171 C938,698.852031 914.799086,739.461618 877.049423,761.788426 L875.90105,762.459384 L576.269296,935.38861 C570.208988,938.886251 563.926893,941.83228 557.492967,944.226697 L557.492,850.652 L834.50175,690.779909 C847.165181,683.471346 855.021431,670.035 855.198347,655.443767 L855.2014,654.940171 L855.2014,309.081719 C855.2014,306.185679 854.898658,303.332729 854.315513,300.561546 L937.708062,300.561337 Z M170.47,772.865 L170.470775,929.149193 L382.967,895.505 L170.47,772.865 Z M549.768966,219.472924 L550.437092,219.853792 L723.693548,319.846882 C745.691025,332.542487 759.326494,355.897266 759.597003,381.249018 L759.601105,382.017855 L759.601105,582.004035 C759.601105,607.395246 746.18561,630.876981 724.357574,643.787039 L723.693548,644.175008 L550.437092,744.168098 C528.439616,756.863704 501.388653,756.99066 479.290106,744.548966 L478.62198,744.168098 L305.365524,644.175008 C283.368047,631.479403 269.732578,608.124624 269.462069,582.772872 L269.457967,582.004035 L269.457967,382.017855 C269.457967,356.626644 282.873462,333.144909 304.701498,320.234851 L305.365524,319.846882 L478.62198,219.853792 C500.619456,207.158186 527.670419,207.03123 549.768966,219.472924 Z M575.11383,27.9746022 L576.269296,28.6332801 L875.90105,201.562506 C880.85028,204.418901 885.554749,207.587295 889.995407,211.034704 L726.717,211.035 L534.869996,100.312755 C522.215333,93.0092534 506.659525,92.9212594 493.934955,100.048773 L493.470696,100.312755 L263.06,233.29 L263.06,137.718 L452.071396,28.6332801 C490.11409,6.67735037 536.896344,6.45779107 575.11383,27.9746022 Z" id="app-icon-raw-short" fill="#34C7B5" fill-rule="nonzero"></path>
    </g>
</svg>