<svg width="33" height="33" viewBox="0 0 33 33" fill="none" xmlns="http://www.w3.org/2000/svg">
<path d="M0.5 7.53623C0.5 3.37409 3.87409 0 8.03623 0H24.9638C29.1259 0 32.5 3.37409 32.5 7.53623V24.4638C32.5 28.6259 29.1259 32 24.9638 32H8.03623C3.87409 32 0.5 28.6259 0.5 24.4638V7.53623Z" fill="white"/>
<path fill-rule="evenodd" clip-rule="evenodd" d="M14.6243 24.3316C15.3837 25.7075 17.334 25.7821 18.1963 24.4681L26.236 12.216C27.0886 10.9167 26.2729 9.17475 24.7289 8.9977L8.92656 7.18564C7.24179 6.99245 6.04222 8.7828 6.86168 10.2675L14.6243 24.3316Z" fill="url(#paint0_linear_4807_406325)"/>
<path fill-rule="evenodd" clip-rule="evenodd" d="M15.7906 21.9758L15.0771 23.0484C14.788 23.4829 14.141 23.4562 13.8888 22.9992L14.6243 24.3317C14.7554 24.5693 14.9221 24.7681 15.1125 24.9276L15.1125 24.9275C16.0249 25.6918 17.4829 25.5551 18.1963 24.468L26.236 12.216C27.0886 10.9167 26.2729 9.17471 24.7289 8.99768L8.92656 7.18558C7.24179 6.99242 6.04222 8.78278 6.86168 10.2674L6.92405 10.3804L20.3746 11.9367C21.2319 12.0359 21.6842 13.0036 21.2104 13.725L15.7906 21.9758Z" fill="url(#paint1_linear_4807_406325)"/>
<defs>
<linearGradient id="paint0_linear_4807_406325" x1="14.6494" y1="11.048" x2="15.2921" y2="23.5245" gradientUnits="userSpaceOnUse">
<stop stop-color="#6D4AFF"/>
<stop offset="0.988738" stop-color="#2AE0CA"/>
</linearGradient>
<linearGradient id="paint1_linear_4807_406325" x1="19.5788" y1="26.3094" x2="7.66148" y2="5.11906" gradientUnits="userSpaceOnUse">
<stop offset="0.0660125" stop-color="#ABFFEF"/>
<stop offset="0.44988" stop-color="#CAC9FF"/>
<stop offset="1" stop-color="#6D4AFF"/>
</linearGradient>
</defs>
</svg>
