<svg width="135" height="135" viewBox="0 0 135 135" fill="none" xmlns="http://www.w3.org/2000/svg">
<rect width="100.18" height="40.2048" rx="20.1024" transform="matrix(0.945137 0.326676 -0.335167 0.942159 28.6002 8)" fill="#BAEFED"/>
<path fill-rule="evenodd" clip-rule="evenodd" d="M66.5 39C57.461 39 50.1195 46.5312 50.0014 55.868C50.0005 55.937 50 56.0061 50 56.0753V56.0966V100.347V111.942C50 119.706 56.0745 126 63.5677 126C70.5562 126 75.2353 120.46 75.2353 120.46C75.2353 120.46 83 105.63 83 100.347V56.0966C83 46.6544 75.6127 39 66.5 39Z" fill="#BAEFED"/>
<rect x="50.1241" y="42.53" width="27.9576" height="83.5082" rx="13.9788" fill="#4D91BE"/>
<rect width="102.042" height="40.2048" rx="20.1024" transform="matrix(0.945137 0.326676 -0.335167 0.942159 25.4753 12.8499)" fill="#28D2C8"/>
<path fill-rule="evenodd" clip-rule="evenodd" d="M78.0817 73.5L50.1241 64.2058V56.8917C50.1241 49.1714 56.3826 42.9129 64.1029 42.9129C71.8232 42.9129 78.0817 49.1714 78.0817 56.8917V73.5Z" fill="#BAEFED"/>
</svg>
