<?xml version="1.0" encoding="utf-8"?>
<!-- Generator: Adobe Illustrator 16.0.0, SVG Export Plug-In . SVG Version: 6.00 Build 0)  -->
<!DOCTYPE svg PUBLIC "-//W3C//DTD SVG 1.1//EN" "http://www.w3.org/Graphics/SVG/1.1/DTD/svg11.dtd">
<svg version="1.1" id="Layer_1" xmlns="http://www.w3.org/2000/svg" xmlns:xlink="http://www.w3.org/1999/xlink" x="0px" y="0px"
	 width="131px" height="131px" viewBox="238.5 328.5 131 131" enable-background="new 238.5 328.5 131 131" xml:space="preserve">
<g id="Layer_1_1_" display="none">
	
		<image display="inline" overflow="visible" width="128" height="128" xlink:href="34892B6F.png"  transform="matrix(0.9999 0 0 0.9999 241.9995 332)">
	</image>
	<path display="inline" fill="none" enable-background="new    " d="z"/>
</g>
<g id="Layer_4">
	
		<linearGradient id="SVGID_1_" gradientUnits="userSpaceOnUse" x1="279.5044" y1="419.0527" x2="339.3743" y2="315.3549" gradientTransform="matrix(1 0 0 -1 0 793)">
		<stop  offset="0" style="stop-color:#FFFFFF"/>
		<stop  offset="0.3726" style="stop-color:#FDFDFD"/>
		<stop  offset="0.5069" style="stop-color:#F6F6F6"/>
		<stop  offset="0.6026" style="stop-color:#EBEBEB"/>
		<stop  offset="0.68" style="stop-color:#DADADA"/>
		<stop  offset="0.7463" style="stop-color:#C4C4C4"/>
		<stop  offset="0.805" style="stop-color:#A8A8A8"/>
		<stop  offset="0.8581" style="stop-color:#888888"/>
		<stop  offset="0.9069" style="stop-color:#626262"/>
		<stop  offset="0.9523" style="stop-color:#373737"/>
		<stop  offset="0.9926" style="stop-color:#090909"/>
		<stop  offset="1" style="stop-color:#000000"/>
	</linearGradient>
	
		<rect x="251.125" y="386.125" fill="url(#SVGID_1_)" stroke="#000000" stroke-width="3" stroke-miterlimit="10" width="105.75" height="60.5"/>
</g>
<g id="Layer_5">
	
		<rect x="251.875" y="386.93" fill="#FFFFFF" stroke="#000000" stroke-width="3" stroke-miterlimit="10" width="18" height="5.391"/>
	
		<rect x="337.875" y="386.93" fill="#FFFFFF" stroke="#000000" stroke-width="3" stroke-miterlimit="10" width="18" height="5.391"/>
	<rect x="251.125" y="441.234" stroke="#000000" stroke-width="3" stroke-miterlimit="10" width="18" height="5.391"/>
</g>
<g id="Layer_2">
	
		<rect x="251.125" y="341.375" fill="#40C745" stroke="#000000" stroke-width="3" stroke-miterlimit="10" width="31.75" height="31.25"/>
	
		<line fill="none" stroke="#000000" stroke-width="2" stroke-miterlimit="10" x1="260.375" y1="374.125" x2="260.375" y2="386.125"/>
	<circle fill="none" stroke="#000000" stroke-width="2" stroke-miterlimit="10" cx="266.875" cy="357.125" r="14"/>
</g>
<g id="Layer_3">
	<g>
		<path d="M272.337,425.569v4.556h-15.742v-23.563h5.304v19.007H272.337z"/>
		<path d="M289.88,412.751c0,0.861-0.17,1.688-0.51,2.482c-0.34,0.793-0.782,1.559-1.326,2.295
			c-0.544,0.735-1.156,1.443-1.836,2.125c-0.68,0.68-1.349,1.325-2.006,1.938c-0.34,0.317-0.708,0.675-1.105,1.071
			c-0.397,0.396-0.777,0.799-1.139,1.207c-0.363,0.408-0.686,0.788-0.969,1.139c-0.284,0.353-0.459,0.642-0.527,0.867h10.132v4.25
			h-15.708c-0.046-0.249-0.068-0.566-0.068-0.952c0-0.385,0-0.657,0-0.814c0-1.089,0.176-2.086,0.527-2.992
			c0.351-0.906,0.81-1.751,1.377-2.533c0.566-0.782,1.207-1.513,1.921-2.193c0.714-0.68,1.422-1.358,2.125-2.04
			c0.544-0.521,1.054-1.014,1.53-1.479s0.895-0.918,1.258-1.36c0.362-0.44,0.646-0.884,0.85-1.325
			c0.204-0.441,0.306-0.89,0.306-1.344c0-0.997-0.284-1.7-0.85-2.107c-0.567-0.407-1.27-0.611-2.108-0.611
			c-0.612,0-1.185,0.097-1.717,0.289c-0.533,0.193-1.02,0.42-1.462,0.68c-0.442,0.263-0.822,0.521-1.139,0.782
			s-0.556,0.471-0.714,0.629l-2.516-3.536c0.997-0.93,2.159-1.692,3.485-2.295c1.326-0.6,2.749-0.899,4.267-0.899
			c1.382,0,2.572,0.157,3.57,0.476c0.997,0.317,1.819,0.765,2.465,1.343s1.122,1.281,1.428,2.107
			C289.728,410.773,289.88,411.709,289.88,412.751z"/>
		<path d="M317.488,418.327c0,2.018-0.301,3.791-0.901,5.321c-0.601,1.528-1.423,2.811-2.465,3.842
			c-1.043,1.031-2.284,1.808-3.723,2.329c-1.44,0.521-2.987,0.78-4.643,0.78c-1.609,0-3.128-0.261-4.556-0.78
			c-1.428-0.521-2.675-1.298-3.74-2.329s-1.904-2.313-2.516-3.842c-0.612-1.53-0.918-3.305-0.918-5.321
			c0-2.018,0.317-3.791,0.952-5.321c0.634-1.529,1.49-2.815,2.567-3.859c1.076-1.041,2.323-1.823,3.74-2.346
			c1.416-0.521,2.907-0.781,4.471-0.781c1.609,0,3.128,0.261,4.558,0.781c1.428,0.521,2.674,1.304,3.738,2.346
			c1.065,1.044,1.904,2.33,2.518,3.859C317.182,414.536,317.488,416.31,317.488,418.327z M299.502,418.327
			c0,1.156,0.142,2.198,0.425,3.128c0.283,0.93,0.691,1.729,1.224,2.396c0.532,0.669,1.184,1.187,1.954,1.549
			c0.771,0.361,1.655,0.544,2.652,0.544c0.976,0,1.854-0.183,2.636-0.544c0.781-0.362,1.438-0.88,1.973-1.549
			c0.532-0.668,0.939-1.467,1.224-2.396s0.425-1.972,0.425-3.128s-0.142-2.204-0.425-3.146c-0.283-0.939-0.69-1.745-1.224-2.414
			c-0.533-0.668-1.19-1.184-1.973-1.547c-0.781-0.36-1.66-0.544-2.636-0.544c-0.997,0-1.882,0.188-2.652,0.563
			c-0.77,0.373-1.422,0.896-1.954,1.563c-0.533,0.669-0.941,1.475-1.224,2.414C299.644,416.157,299.502,417.193,299.502,418.327z"/>
		<path d="M332.347,416.729c-0.454-0.111-0.985-0.23-1.599-0.355c-0.611-0.124-1.271-0.188-1.972-0.188
			c-0.317,0-0.697,0.029-1.14,0.085c-0.441,0.059-0.776,0.119-1.003,0.188v13.668h-5.065v-16.932
			c0.905-0.317,1.978-0.617,3.213-0.901c1.234-0.283,2.611-0.425,4.131-0.425c0.271,0,0.601,0.017,0.986,0.051
			c0.385,0.034,0.771,0.08,1.155,0.137c0.386,0.058,0.771,0.124,1.156,0.203c0.385,0.08,0.714,0.176,0.985,0.289L332.347,416.729z"
			/>
		<path d="M340.982,418.663c0.498-0.541,1.013-1.104,1.545-1.689c0.531-0.585,1.047-1.166,1.546-1.74
			c0.498-0.575,0.968-1.121,1.409-1.641c0.44-0.518,0.819-0.968,1.138-1.352h6.023c-1.201,1.38-2.375,2.696-3.52,3.952
			c-1.146,1.256-2.396,2.55-3.757,3.885c0.68,0.613,1.382,1.346,2.107,2.196c0.726,0.852,1.429,1.73,2.107,2.64
			c0.68,0.909,1.304,1.816,1.87,2.725c0.565,0.909,1.042,1.737,1.428,2.486h-5.825c-0.361-0.591-0.773-1.244-1.237-1.96
			c-0.465-0.716-0.956-1.431-1.478-2.146c-0.521-0.716-1.068-1.403-1.646-2.063s-1.148-1.216-1.714-1.671v7.839h-5.066v-25.568
			l5.066-0.814v14.921H340.982z"/>
	</g>
</g>
</svg>
