<?xml version="1.0" encoding="UTF-8" standalone="no"?>
<!-- Created with Inkscape (http://www.inkscape.org/) -->

<svg
   width="100mm"
   height="100mm"
   viewBox="0 0 100 100"
   version="1.1"
   id="svg1"
   xml:space="preserve"
   inkscape:version="1.3 (0e150ed6c4, 2023-07-21)"
   sodipodi:docname="HexenII-icon.svg"
   xmlns:inkscape="http://www.inkscape.org/namespaces/inkscape"
   xmlns:sodipodi="http://sodipodi.sourceforge.net/DTD/sodipodi-0.dtd"
   xmlns="http://www.w3.org/2000/svg"
   xmlns:svg="http://www.w3.org/2000/svg"><sodipodi:namedview
     id="namedview1"
     pagecolor="#ffffff"
     bordercolor="#000000"
     borderopacity="0.25"
     inkscape:showpageshadow="2"
     inkscape:pageopacity="0.0"
     inkscape:pagecheckerboard="0"
     inkscape:deskcolor="#d1d1d1"
     inkscape:document-units="mm"
     inkscape:zoom="0.84096521"
     inkscape:cx="194.41946"
     inkscape:cy="367.43494"
     inkscape:window-width="1920"
     inkscape:window-height="1170"
     inkscape:window-x="0"
     inkscape:window-y="30"
     inkscape:window-maximized="1"
     inkscape:current-layer="layer1" /><defs
     id="defs1" /><g
     inkscape:label="Layer 1"
     inkscape:groupmode="layer"
     id="layer1"><g
       id="g2"
       transform="translate(2.9215003,9.6303234)"><path
         id="path2-6"
         style="font-variation-settings:normal;vector-effect:none;fill:#000000;fill-opacity:1;stroke-width:0.782878;stroke-linecap:butt;stroke-linejoin:miter;stroke-miterlimit:4;stroke-dasharray:none;stroke-dashoffset:0;stroke-opacity:1;-inkscape-stroke:none;stop-color:#000000"
         d="m 63.968126,67.190246 c -0.4448,-0.695947 -0.478064,-0.917087 -0.364845,-2.42509 0.160443,-2.136787 0.317457,-3.214411 0.543576,-3.730672 0.09979,-0.227848 0.228655,-0.740516 0.286361,-1.139251 0.0577,-0.398736 0.20758,-1.19104 0.33306,-1.760662 0.12548,-0.569621 0.311319,-1.455135 0.412984,-1.967794 0.337146,-1.700122 0.47101,-2.172252 0.696448,-2.456272 0.167043,-0.210453 0.127906,-0.35109 -0.155323,-0.558192 -0.364179,-0.266296 -0.361377,-0.304774 0.07343,-1.008347 0.248642,-0.402321 0.427984,-0.896826 0.398532,-1.098902 -0.113361,-0.777742 0.235294,-1.299523 0.868344,-1.299523 0.401867,0 0.607451,-0.105148 0.607451,-0.3107 0,-0.280232 -0.245933,-0.402697 -0.673189,-0.335237 -0.282634,0.04462 -0.161171,-0.541321 0.169008,-0.815351 0.513482,-0.426152 0.918457,-1.357338 0.918457,-2.111884 0,-0.381606 0.111857,-0.805691 0.248563,-0.942397 0.173823,-0.173822 0.183076,-0.314059 0.03077,-0.466368 -0.28153,-0.281531 -0.103606,-1.231209 0.208246,-1.111538 0.384683,0.147619 0.822124,-1.058569 0.560908,-1.546654 -0.33475,-0.625496 -0.269717,-0.843786 0.317951,-1.067219 0.295834,-0.112476 0.586344,-0.389803 0.645569,-0.616281 0.05926,-0.226479 0.174487,-0.411779 0.256134,-0.411779 0.08165,0 0.148457,-0.127804 0.148457,-0.284004 0,-0.156208 0.295168,-0.896028 0.655934,-1.644044 0.360758,-0.748016 0.655934,-1.465774 0.655934,-1.59502 0,-0.288146 0.517483,-0.826797 0.794308,-0.826797 0.19875,0 0.398556,1.156882 0.482966,2.796338 0.02349,0.455705 0.131836,0.947353 0.240829,1.092561 0.371687,0.495186 0.235113,2.504059 -0.204316,3.00532 -0.221366,0.252517 -0.638312,0.831972 -0.926559,1.287669 -0.28824,0.455698 -0.77292,1.222699 -1.07706,1.704435 -0.304141,0.481736 -0.552986,0.971098 -0.552986,1.087465 0,0.116367 -0.09871,0.21158 -0.219363,0.21158 -0.120649,0 -0.175262,0.07132 -0.121361,0.158564 0.05386,0.08721 -0.121652,0.623179 -0.390108,1.191032 -0.268465,0.56786 -0.495554,1.218894 -0.504659,1.446742 -0.0091,0.227849 -0.19882,0.647307 -0.421603,0.932118 -0.222784,0.284811 -0.407136,0.753434 -0.409665,1.041377 -0.0055,0.634319 -0.537485,1.444261 -0.948472,1.444261 -0.346557,0 -0.388668,0.241705 -0.09353,0.536843 0.214398,0.214399 0.189566,0.322749 -0.63201,2.757703 -0.665517,1.972429 -1.341133,5.612373 -1.603036,8.636545 -0.07992,0.922817 -0.264206,1.820739 -0.409516,1.995391 -0.217069,0.260894 -0.207831,0.33919 0.05175,0.438811 0.432579,0.165994 0.399448,0.550551 -0.0465,0.539763 -0.199375,-0.0047 -0.582735,-0.353368 -0.85192,-0.77454 z m 4.461527,-1.992605 c -0.06349,-0.165461 0.008,-0.403252 0.15876,-0.528411 0.204441,-0.169673 0.303569,-0.151033 0.389646,0.07328 0.06349,0.165462 -0.008,0.403253 -0.158759,0.528412 -0.204441,0.169673 -0.303569,0.151033 -0.389647,-0.07328 z m -2.344695,-0.590055 c -0.101195,-0.142405 -0.182388,-0.44534 -0.180438,-0.673196 0.0031,-0.319102 0.142812,-0.414268 0.609776,-0.414268 0.482652,0 0.636526,0.113282 0.754866,0.555757 0.10727,0.401108 0.06349,0.588442 -0.15739,0.673197 -0.484092,0.185761 -0.82794,0.138381 -1.026814,-0.14149 z m 3.549114,-0.441833 c -0.313746,-0.229414 -0.351105,-0.735584 -0.336974,-4.565892 0.01566,-4.239801 0.02435,-4.32223 0.548609,-5.216864 0.565708,-0.965312 0.789454,-1.078649 1.240001,-0.628103 0.208918,0.208927 0.265411,0.83252 0.220474,2.433858 -0.09044,3.222412 -0.364571,6.399988 -0.562702,6.522438 -0.09647,0.05965 -0.175396,0.419168 -0.175396,0.798989 0,0.775637 -0.392785,1.051327 -0.934012,0.655574 z m 6.525053,-0.233344 c -0.246552,-0.297071 -0.20506,-1.061418 0.140448,-2.587224 0.06451,-0.284811 0.103794,-0.953576 0.08734,-1.486137 -0.01644,-0.532568 0.06576,-1.027433 0.182669,-1.099693 0.11693,-0.07226 0.212598,-0.396802 0.212598,-0.721187 0,-0.487811 0.07163,-0.571055 0.414275,-0.481454 0.383117,0.100185 0.414268,0.28254 0.414268,2.424815 0,1.503486 -0.08576,2.402253 -0.244375,2.560864 -0.18775,0.18775 -0.18209,0.360774 0.02443,0.746655 0.147846,0.276254 0.205709,0.604373 0.128587,0.729164 -0.20466,0.331142 -1.058928,0.277256 -1.360242,-0.0858 z m -9.733772,-1.447972 c 0,-0.170887 0.09322,-0.310701 0.207141,-0.310701 0.113925,0 0.207134,0.139814 0.207134,0.310701 0,0.170887 -0.09321,0.310709 -0.207134,0.310709 -0.113924,0 -0.207141,-0.139822 -0.207141,-0.310709 z m 12.552006,-1.291616 c -0.272778,-0.272778 -0.0995,-0.676179 0.290456,-0.676179 0.227848,0 0.414275,0.12984 0.414275,0.288545 0,0.312447 -0.503156,0.58921 -0.704731,0.387634 z m 0.05926,-1.539247 c -0.131359,-0.376878 -0.0732,-2.287429 0.07234,-2.377397 0.104498,-0.06459 0.0078,-0.317316 -0.215276,-0.561629 -0.465945,-0.510702 -0.626004,-1.239562 -0.773804,-3.523671 -0.06748,-1.042268 -0.02247,-1.729494 0.124799,-1.906941 0.270742,-0.326226 0.08943,-0.709844 -0.335487,-0.709844 -0.337123,0 -0.409218,-0.735662 -0.09135,-0.932118 0.113925,-0.07038 0.207134,-0.303185 0.207134,-0.517278 0,-0.296006 0.136456,-0.379915 0.569629,-0.35026 0.549886,0.03766 0.569841,0.0031 0.576049,-0.99669 0.0039,-0.612398 0.210258,-1.52341 0.505145,-2.229057 0.385254,-0.921878 0.442701,-1.249387 0.252493,-1.439595 -0.379461,-0.379461 -0.292021,-0.949458 0.168053,-1.095481 0.234707,-0.07445 0.414268,-0.313409 0.414268,-0.551193 0,-0.238723 0.170385,-0.464262 0.395126,-0.523033 0.68876,-0.180116 0.990528,-1.873364 0.408733,-2.293464 -0.459002,-0.331431 -0.3817,-1.368619 0.109211,-1.465336 0.192306,-0.03789 0.482394,0.04126 0.64463,0.17592 0.228874,0.18995 0.354839,0.182176 0.56209,-0.03468 0.326641,-0.341781 0.780123,-1.338181 0.780123,-1.714096 0,-0.151729 0.326648,-0.818319 0.725884,-1.481322 0.461279,-0.766023 0.680462,-1.348578 0.601282,-1.598058 -0.0808,-0.254584 0.05284,-0.586023 0.380228,-0.942788 1.091167,-1.189192 1.95894,-3.664644 1.350519,-3.85255 -0.14387,-0.04447 -0.517905,-0.136957 -0.831197,-0.2056 -0.858802,-0.18818 -0.76167,-0.886366 0.17794,-1.278964 0.41116,-0.171795 0.794872,-0.493276 0.852703,-0.714407 0.07782,-0.297643 0.286408,-0.402055 0.803178,-0.402055 0.582445,0 0.752118,-0.111482 1.024638,-0.673197 0.827283,-1.70521 0.993605,-1.949663 1.539859,-2.263167 0.362582,-0.208097 0.636518,-0.58131 0.726127,-0.989307 0.114065,-0.519345 0.236546,-0.641944 0.590877,-0.591456 0.38819,0.05535 0.438936,0.177408 0.385763,0.928195 -0.05457,0.770078 0.0023,0.894681 0.517842,1.140724 0.797909,0.380612 0.913642,1.552243 0.227724,2.305333 -0.262468,0.288169 -0.751571,1.067376 -1.086901,1.731577 -0.56022,1.109667 -1.686123,2.928331 -1.965846,3.175439 -0.06451,0.05699 -0.147525,0.243381 -0.184555,0.414268 -0.03703,0.170894 -0.153538,0.341781 -0.258921,0.37975 -0.105376,0.03797 -0.193669,0.177792 -0.196205,0.310709 -0.0023,0.132909 -0.186881,0.47469 -0.409665,0.759501 -0.222783,0.284811 -0.407135,0.64023 -0.409672,0.789814 -0.0023,0.149585 -0.27598,0.848671 -0.607662,1.55352 -0.331682,0.704856 -0.717445,1.654401 -0.857243,2.110098 -0.139807,0.455698 -0.32747,1.01497 -0.417024,1.242819 -0.08956,0.227849 -0.206914,0.647299 -0.2608,0.93211 -0.05386,0.284819 -0.433746,1.678099 -0.844146,3.096188 -0.4104,1.41809 -0.746184,2.687409 -0.746184,2.820702 0,0.133293 -0.279636,1.090893 -0.62141,2.128011 -0.341773,1.037109 -0.621409,1.986067 -0.621409,2.108799 0,0.122724 -0.186427,0.608993 -0.414275,1.080583 -0.227849,0.471598 -0.414268,1.161791 -0.414268,1.533775 0,0.620274 -0.344991,1.688863 -0.62588,1.938633 -0.06404,0.05699 -0.243999,0.499719 -0.399862,0.983897 -0.155864,0.484187 -0.355889,0.880331 -0.444495,0.880331 -0.08861,0 -0.160835,0.16312 -0.160498,0.362488 7.83e-4,0.491272 -0.426833,2.11143 -0.720067,2.727954 -0.204191,0.429307 -0.705804,0.817254 -0.780311,0.603497 z m -10.47004,-6.234135 c -0.148708,-0.240618 0.71292,-2.016803 0.978362,-2.016803 0.354558,0 1.229753,-2.130211 1.121175,-2.728948 -0.06279,-0.346213 0.007,-0.581107 0.193129,-0.652631 0.160161,-0.06146 0.349288,-0.376228 0.420288,-0.699478 0.07101,-0.32325 0.351927,-0.865511 0.62429,-1.205029 l 0.495202,-0.617299 0.230541,0.600866 c 0.13763,0.358723 0.178606,1.109988 0.101665,1.864228 -0.07085,0.694844 -0.159715,1.563204 -0.197418,1.929685 -0.08398,0.816361 -0.243397,1.09433 -0.627602,1.09433 -0.382444,0 -0.63392,0.994185 -0.328692,1.299413 0.42461,0.424609 0.255516,0.771957 -0.375789,0.771957 -0.335048,0 -0.660702,0.08336 -0.723677,0.185252 -0.152011,0.245965 -1.775692,0.394148 -1.911474,0.174457 z m 3.333463,-1.461915 c -0.165845,-0.432188 0.04134,-0.714392 0.319977,-0.435781 0.117659,0.117658 0.120705,0.315358 0.0078,0.498231 -0.158924,0.257136 -0.208668,0.247656 -0.327673,-0.06247 z m 2.019973,-13.421612 c 0.0063,-0.475951 -0.103989,-0.924352 -0.2502,-1.014712 -0.257676,-0.159253 -0.204652,-1.123532 0.122263,-2.22342 0.11271,-0.379218 0.05754,-0.466063 -0.29596,-0.466063 -0.696471,0 -0.853423,-1.342424 -0.262937,-2.24888 0.30865,-0.473797 1.063375,-0.08797 1.063375,0.543607 0,0.768677 0.285993,0.360022 0.699063,-0.998874 0.342963,-1.128275 0.90543,-1.852852 1.438311,-1.852852 0.160107,0 0.421964,-0.605932 0.648991,-1.50174 0.209325,-0.825952 0.505653,-1.647489 0.658509,-1.825625 0.184016,-0.214453 0.20841,-0.393404 0.07218,-0.529624 -0.136213,-0.136213 0.0047,-0.361322 0.417101,-0.666206 0.342556,-0.253269 0.622834,-0.552806 0.622834,-0.665642 0,-0.112836 0.372846,-0.993652 0.828543,-1.957367 0.455706,-0.963723 0.828551,-1.975733 0.828551,-2.248919 0,-0.273185 0.139814,-0.612743 0.310701,-0.754561 0.170886,-0.141826 0.314795,-0.549384 0.319798,-0.905696 0.0047,-0.356303 0.125949,-0.974448 0.268785,-1.373645 0.142828,-0.399197 0.226534,-1.066139 0.186012,-1.482082 -0.04055,-0.415943 0.01738,-0.812557 0.128744,-0.881364 0.353924,-0.218736 1.685873,1.22028 1.685873,1.821373 0,0.641992 -0.785156,2.407139 -1.070719,2.407139 -0.108107,0 -0.149279,0.07649 -0.09149,0.169986 0.05778,0.09349 -0.09348,0.489643 -0.336144,0.88033 -0.242669,0.390688 -0.664076,1.1764 -0.936471,1.74603 -0.272386,0.569622 -0.584833,1.202586 -0.694326,1.406596 -0.109486,0.204003 -0.143924,0.460137 -0.07649,0.5692 0.136526,0.220896 -0.519401,1.441951 -0.77458,1.441951 -0.08937,0 -0.162478,0.167779 -0.162478,0.372846 0,0.205067 -0.0824,0.461397 -0.183108,0.569622 -0.100701,0.108233 -0.440157,0.942475 -0.754342,1.853878 -0.314183,0.911395 -0.712292,1.820207 -0.884682,2.019575 -0.17239,0.199367 -0.25741,0.362488 -0.188932,0.362488 0.0685,0 -0.01166,0.489361 -0.178113,1.087472 -0.607192,2.181983 -1.171905,3.995785 -1.353416,4.347055 -0.102228,0.197818 -0.185863,0.542981 -0.185863,0.767009 0,0.88686 -0.75745,2.083927 -1.318609,2.083927 -0.2299,0 -0.309401,-0.225453 -0.300742,-0.852812 z m -1.280553,-7.024365 c 0,-0.245581 0.178426,-0.673337 0.396504,-0.950578 0.218071,-0.277233 0.51533,-0.967723 0.660569,-1.534409 0.145232,-0.566687 0.33966,-1.030346 0.432047,-1.030346 0.09239,0 0.167974,-0.142742 0.167974,-0.317206 0,-0.174457 0.139814,-0.370858 0.310701,-0.436431 0.170894,-0.06561 0.310709,-0.342282 0.310709,-0.614912 0,-0.302512 -0.12108,-0.495679 -0.310709,-0.495679 -0.170887,0 -0.310701,-0.07696 -0.310701,-0.171028 0,-0.241126 0.913775,-1.071791 1.179022,-1.071791 0.30598,0 0.71245,-0.525115 0.539982,-0.697583 -0.362582,-0.362582 -0.241306,-1.069364 0.276168,-1.609488 0.462462,-0.482706 0.510139,-0.630255 0.289548,-0.89605 -0.21097,-0.254201 -0.212223,-0.380682 -0.0063,-0.628902 0.141818,-0.170886 0.382984,-0.310701 0.535911,-0.310701 0.336872,0 0.605908,-0.480405 0.811985,-1.44996 0.08476,-0.398735 0.258906,-0.792038 0.387,-0.874005 0.170221,-0.108929 0.163214,-0.261465 -0.02599,-0.566819 -0.357313,-0.576535 -0.33075,-0.943188 0.180695,-2.494766 0.244094,-0.740516 0.474925,-1.462338 0.512958,-1.604046 0.05363,-0.199947 0.1867,-0.204104 0.593961,-0.01855 0.429033,0.195476 0.524826,0.384291 0.524826,1.034424 0,0.43741 -0.06991,0.795709 -0.155354,0.796226 -0.08544,5.09e-4 -0.172515,0.333796 -0.193496,0.740642 -0.02341,0.453568 -0.203682,0.883266 -0.466063,1.110833 -0.451611,0.391682 -0.569481,0.840365 -0.220764,0.840365 0.300226,0 0.254835,0.776998 -0.05175,0.886437 -0.179859,0.0642 -0.116602,0.247499 0.207134,0.60024 0.256329,0.279299 0.466055,0.705913 0.466055,0.948026 0,0.357031 -0.143361,0.452347 -0.758789,0.504486 -0.816878,0.06921 -0.742356,-0.05543 -1.524967,2.549928 -0.136886,0.455697 -0.517944,1.40114 -0.846792,2.100978 -0.328848,0.699838 -0.597908,1.442805 -0.597908,1.651027 0,0.20823 -0.113963,0.868799 -0.253261,1.467943 -0.207658,0.89317 -0.355144,1.124862 -0.818968,1.28655 -0.39515,0.137755 -0.619022,0.404427 -0.742568,0.884519 -0.148144,0.575689 -0.284247,0.69785 -0.838125,0.752213 -0.559155,0.05488 -0.661258,-0.0039 -0.661258,-0.381598 z M 92.110293,20.435735 c 0,-0.398736 0.09321,-0.724976 0.207134,-0.724976 0.113924,0 0.207595,-0.116516 0.208167,-0.258922 0.0023,-0.520754 0.917909,-1.429965 1.294731,-1.285368 0.521209,0.20001 0.448832,0.616047 -0.29819,1.714104 -1.026705,1.509161 -1.411842,1.660601 -1.411842,0.555162 z M 0.82855533,80.565795 c 0.008948,-0.253786 2.64312187,-2.951694 2.88196227,-2.951694 0.1207848,0 0.219609,-0.121409 0.219609,-0.269788 0,-0.148386 0.466423,-0.437511 1.0364952,-0.642508 0.5700721,-0.204996 1.0930166,-0.464168 1.1620977,-0.575947 0.069081,-0.111772 0.6510632,-0.539364 1.2932916,-0.950187 0.6422281,-0.410831 1.4009409,-0.970792 1.6860275,-1.244353 0.2850873,-0.273569 0.7746718,-0.5913 1.0879654,-0.70607 0.313294,-0.11477 0.569625,-0.290377 0.569625,-0.390233 0,-0.09986 0.284592,-0.328723 0.632425,-0.508597 0.347835,-0.179866 0.81177,-0.506381 1.030968,-0.725579 0.219199,-0.219198 0.796814,-0.687015 1.283587,-1.039584 0.73121,-0.529617 4.643158,-4.23129 11.043799,-10.450191 0.586273,-0.569622 2.082424,-1.873528 3.32478,-2.897564 1.242366,-1.024036 3.569587,-3.1679 5.171606,-4.764141 1.602026,-1.596233 3.792496,-3.746525 4.867708,-4.778421 1.424164,-1.366787 2.199512,-2.311815 2.855758,-3.480722 0.828309,-1.475372 0.88048,-1.653681 0.648067,-2.214769 -0.321176,-0.775394 -0.549972,-0.764849 -1.445318,0.06662 -0.398743,0.370285 -1.237644,1.087644 -1.864228,1.594127 -0.626592,0.506483 -1.565881,1.309903 -2.087309,1.785369 -0.521436,0.475473 -1.346864,1.116243 -1.834276,1.423929 -0.487419,0.307695 -1.280764,0.948222 -1.762986,1.423398 -3.033072,2.988738 -4.979644,4.757024 -6.430316,5.841357 -0.909971,0.68018 -2.450815,2.028985 -3.424097,2.99735 -0.973282,0.968357 -2.092993,2.004027 -2.488237,2.301481 -0.671794,0.505583 -7.966015,7.563681 -13.5159122,13.078399 -1.4437795,1.434623 -2.6149187,2.43385 -2.8525879,2.43385 -0.5158344,0 -0.5240718,-0.34799 -0.012088,-0.510492 0.2151177,-0.06827 0.6284803,-0.482808 0.9185836,-0.921189 0.290104,-0.438372 1.0659384,-1.250999 1.7240772,-1.805833 0.6581381,-0.554825 3.3925753,-3.152641 6.0765283,-5.772918 6.267872,-6.11917 8.1977,-7.95465 10.356462,-9.850131 0.966134,-0.848311 2.185967,-1.939557 2.710738,-2.425003 0.524779,-0.485447 1.285016,-1.137921 1.689427,-1.449953 2.939527,-2.26806 6.132549,-5.302432 5.67812,-5.395994 -0.172366,-0.03546 -0.855075,0.363803 -1.517139,0.887306 -0.662056,0.523503 -1.527395,1.205021 -1.922967,1.514477 -0.395573,0.309456 -1.194461,0.989378 -1.775309,1.510931 -0.580841,0.521554 -1.795186,1.492761 -2.698526,2.15823 -1.670685,1.230755 -2.012747,1.550866 -2.933334,2.745099 -0.378819,0.49142 -0.684752,0.673189 -1.133027,0.673189 -0.777876,0 -0.683249,-0.356131 0.264949,-0.997167 0.389951,-0.263634 1.221673,-0.961374 1.848257,-1.550537 1.341916,-1.261749 4.203107,-3.570808 9.034748,-7.291279 1.923351,-1.481025 3.898897,-3.108025 4.39009,-3.615549 0.805706,-0.832505 0.993965,-0.925988 1.92422,-0.955503 0.762233,-0.02419 1.164038,-0.157577 1.540774,-0.511493 0.617839,-0.580433 0.645765,-0.82084 0.09536,-0.82084 -0.301134,0 -0.414275,-0.138091 -0.414275,-0.505621 0,-0.278086 0.09293,-0.563046 0.206507,-0.633239 0.126866,-0.07841 0.04964,-0.422652 -0.200228,-0.892559 -0.61528,-1.157101 -1.292391,-3.567716 -1.155419,-4.11346 0.08564,-0.341202 0.03233,-0.48349 -0.181079,-0.48349 -0.416805,0 -0.62862,-0.402508 -0.355529,-0.675608 0.162236,-0.162235 -0.106471,-0.443617 -0.960513,-1.005865 -2.209336,-1.454477 -6.691563,-6.370739 -10.247981,-11.240334 -1.03675,-1.419553 -1.176345,-1.784883 -0.682028,-1.784883 0.330148,0 0.482699,0.183647 3.183284,3.832031 2.139973,2.891011 5.859794,6.88516 6.580809,7.066123 0.299552,0.07516 0.497996,0.276442 0.497996,0.505066 0,0.399032 0.728319,1.024967 1.192629,1.024967 0.204644,0 0.218853,-0.09911 0.05746,-0.400708 -0.144754,-0.270469 -0.147118,-0.577811 -0.007,-0.9456 0.295529,-0.777288 0.261113,-0.932188 -0.20711,-0.932188 -0.488375,0 -0.510899,-0.165539 -0.09698,-0.712787 0.167261,-0.221139 0.301713,-0.500775 0.298777,-0.621409 -0.0031,-0.120634 -1.028255,-1.290097 -2.278503,-2.59881 -1.250241,-1.308706 -2.273165,-2.480909 -2.273165,-2.604878 0,-0.123976 -0.233321,-0.444596 -0.518484,-0.712505 -0.285171,-0.267901 -0.497402,-0.587088 -0.471614,-0.709295 0.02576,-0.122215 -0.39338,-1.090737 -0.931468,-2.15228 -0.538087,-1.061544 -0.978339,-2.148491 -0.978339,-2.415437 0,-0.421439 -0.826406,-1.356516 -1.405078,-1.589853 -0.09766,-0.03938 -0.357438,-0.410956 -0.577278,-0.825725 -0.21984,-0.414776 -0.810631,-1.264645 -1.312855,-1.888591 L 26.028371,11.385282 23.316614,11.248443 C 19.847101,11.07336 18.806179,10.92809 18.902502,10.632381 18.944433,10.503652 19.531044,10.305083 20.206076,10.19112 20.881113,10.077156 21.702179,9.8019588 22.030683,9.5795589 22.458752,9.2897531 22.946251,9.1826633 23.751605,9.201515 24.948226,9.229542 25.138919,8.9544465 24.237201,8.5010428 23.35759,8.0587637 23.233614,7.3948439 24.03063,7.3948439 c 0.252471,0 0.545314,0.2890776 0.801433,0.791114 0.513536,1.0066009 1.975506,2.8624991 2.451316,3.1118141 0.770344,0.403644 1.705632,0.49355 1.827605,0.175686 C 29.251698,11.106766 27.720866,8.6667467 26.097279,6.6698676 25.448884,5.8723968 24.719782,4.8874424 24.477051,4.4810975 24.234327,4.0747447 23.426906,3.1446466 22.682789,2.4142215 21.938671,1.6837886 21.329843,1.0162364 21.329843,0.93076176 c 0,-0.38602923 1.008002,0.37850584 1.760661,1.33540964 0.455697,0.579361 1.448801,1.7267469 2.206886,2.5497551 0.758092,0.8230005 1.496095,1.7163973 1.640019,1.985308 0.144136,0.2693335 0.298238,0.3792261 0.343089,0.2446807 0.04478,-0.1343497 -0.157257,-0.6926278 -0.448981,-1.2406188 -0.602589,-1.1319789 -0.675858,-1.7246331 -0.213193,-1.7246331 0.174464,0 0.370857,-0.1398142 0.436439,-0.3107008 0.170557,-0.4444711 0.555162,-0.3840877 1.074476,0.1687024 0.592748,0.6309448 0.568964,0.8380786 -0.07758,0.6758037 -0.510781,-0.1281963 -0.524857,-0.1053128 -0.432055,0.7024998 0.05277,0.4592597 0.381896,1.2997574 0.731404,1.8677823 0.349508,0.5680249 0.747038,1.4768447 0.883407,2.0196061 0.13637,0.5427536 0.479153,1.3701382 0.76174,1.8386282 0.46968,0.77865 0.613229,0.867577 1.671789,1.035677 0.636903,0.10114 1.130883,0.277107 1.097736,0.391032 -0.03312,0.113924 -0.266178,0.188618 -0.517842,0.165993 -0.664672,-0.05973 -1.506453,0.149452 -1.264599,0.314294 0.423271,0.288475 1.551555,2.173465 1.453664,2.428566 -0.05582,0.145506 0.169383,0.622466 0.500486,1.059915 0.331102,0.437449 0.604601,0.918386 0.607771,1.068754 0.0031,0.150359 0.285398,0.679812 0.627172,1.176571 0.341773,0.496752 0.621409,0.984657 0.621409,1.084231 0,0.09957 0.277217,0.618169 0.616031,1.152436 0.338822,0.534259 0.7952,1.517139 1.014179,2.184182 0.542292,1.651912 0.98587,2.462597 1.497168,2.736237 0.322554,0.172624 0.39872,0.356154 0.304164,0.732907 -0.130827,0.521255 0.302167,1.592115 0.762969,1.886908 0.290565,0.185894 1.640904,1.844202 1.933239,2.374163 0.104451,0.189355 0.516151,0.702015 0.914887,1.139244 0.398743,0.437237 0.973853,1.128511 1.278032,1.536179 0.47242,0.633152 0.668703,0.738841 1.346387,0.724976 0.834313,-0.01707 1.14171,-0.19525 1.368047,-0.792993 0.07547,-0.199367 0.237095,-0.362488 0.359107,-0.362488 0.122011,0 0.587299,-0.372845 1.033978,-0.828551 0.446679,-0.455697 0.866215,-0.828543 0.932298,-0.828543 0.174495,0 1.437371,-0.904208 1.518814,-1.087464 0.03797,-0.08544 0.177839,-0.155355 0.310806,-0.155355 0.132956,0 0.629128,-0.349539 1.102589,-0.776763 0.473462,-0.427217 0.995422,-0.869973 1.159897,-0.983898 0.164482,-0.113924 0.825693,-0.569872 1.469352,-1.013224 0.643667,-0.443344 1.170293,-0.8861 1.170293,-0.983897 0,-0.0978 0.09322,-0.177808 0.207142,-0.177808 0.463346,0 0.144824,0.411301 -0.983084,1.269413 -1.51782,1.154761 -1.517366,1.154385 -2.645336,2.200122 -0.522258,0.484179 -1.07039,0.880331 -1.21808,0.880331 -0.14769,0 -0.483477,0.186419 -0.746188,0.414267 -0.262718,0.227857 -0.533312,0.414573 -0.60132,0.414934 -0.06803,3.6e-4 -0.939258,0.777421 -1.936104,1.726793 -1.228539,1.170051 -1.812441,1.876081 -1.812441,2.191542 0,0.25597 0.06991,0.432062 0.155346,0.391321 0.626318,-0.298636 1.730184,-1.039638 2.773478,-1.861762 0.676462,-0.533061 1.529266,-1.034134 1.895116,-1.113487 0.365847,-0.07936 0.711785,-0.202491 0.768747,-0.273623 0.05699,-0.07116 0.375727,-0.269146 0.708372,-0.440033 0.645287,-0.331502 1.022665,-0.923404 0.448182,-0.702954 -0.493926,0.189535 -0.394305,-0.198232 0.192572,-0.749574 0.401671,-0.377355 0.576738,-0.432916 0.766406,-0.243248 0.46636,0.46636 0.827189,0.290894 0.689645,-0.335369 -0.105242,-0.479137 -0.0081,-0.688596 0.553166,-1.192879 1.167999,-1.049401 4.685673,-4.175753 8.120409,-7.217054 1.813278,-1.605573 4.264743,-3.842005 5.447711,-4.96985 1.664398,-1.586847 2.206666,-1.994812 2.397657,-1.803821 0.181479,0.181486 0.184947,0.285648 0.01307,0.393537 -0.321073,0.201575 -3.967774,3.524125 -4.70793,4.289458 -0.501253,0.518297 -0.542652,0.63291 -0.249519,0.690741 0.193301,0.03813 0.509059,-0.102384 0.701678,-0.312266 0.431718,-0.470408 3.160494,-2.844164 3.490367,-3.036267 0.274399,-0.159793 0.899018,0.03155 0.899018,0.275432 0,0.08938 -0.219895,0.217703 -0.488649,0.285163 -0.268762,0.06748 -1.676674,1.289306 -3.128701,2.715225 -1.452019,1.425926 -2.770112,2.592586 -2.929098,2.592586 -0.331581,0 -0.391862,-0.533422 -0.08192,-0.724976 0.113925,-0.07038 0.207142,-0.226448 0.207142,-0.346753 0,-0.245306 -0.880785,0.286307 -1.57086,0.94812 -0.249081,0.238872 -0.806913,0.708254 -1.239633,1.043068 -0.467151,0.361455 -0.680438,0.644199 -0.525021,0.696002 0.143963,0.04799 0.510593,-0.143979 0.814733,-0.426583 0.912523,-0.847927 1.634853,-1.242161 1.796548,-0.980531 0.186552,0.301847 -1.267401,1.761703 -2.446752,2.456695 -1.915005,1.128518 -5.321612,4.277731 -5.321612,4.919534 0,0.19561 0.06991,0.285751 0.155354,0.200299 0.08544,-0.08544 0.155354,-0.253934 0.155354,-0.374434 0,-0.120493 0.185002,-0.322452 0.411121,-0.448793 0.226111,-0.126341 0.518954,-0.369526 0.650751,-0.540421 0.629153,-0.815743 3.696398,-3.032712 4.585285,-3.31418 0.839879,-0.265952 1.039036,-0.438639 1.38268,-1.198931 0.365408,-0.808439 0.45385,-0.876721 0.98461,-0.760143 0.522587,0.114778 0.754459,-0.04815 2.232971,-1.568973 0.907403,-0.933379 1.700928,-1.858052 1.763378,-2.05482 0.06247,-0.196769 0.368336,-0.489197 0.679742,-0.649844 0.311405,-0.160646 0.834915,-0.553635 1.163348,-0.873308 0.39443,-0.383907 0.710869,-0.532177 0.932111,-0.436759 0.184226,0.07945 0.591292,0.188462 0.904584,0.242238 0.3133,0.05378 0.569629,0.174049 0.569629,0.267258 0,0.378937 -1.589336,2.056558 -2.071369,2.186445 -0.470933,0.126889 -2.859626,1.471192 -3.107047,1.748574 -0.05699,0.06388 -0.562271,0.437558 -1.122913,0.83043 -0.560643,0.392871 -1.399543,1.116642 -1.864228,1.608383 -1.308142,1.384301 -2.973668,3.049255 -5.425469,5.423591 -2.405636,2.329625 -3.231345,3.35345 -3.140453,3.893964 0.03899,0.232022 -0.138976,0.375922 -0.564415,0.456308 -0.412233,0.0779 -0.612274,0.233729 -0.594275,0.462963 0.01495,0.190051 -0.287379,0.559695 -0.67178,0.821419 -0.384401,0.261732 -0.699548,0.573231 -0.700331,0.692229 -7.75e-4,0.118997 -0.490771,0.578844 -1.088882,1.021882 -0.598103,0.443047 -1.415842,1.137984 -1.817204,1.544305 -0.40135,0.40633 -0.940432,0.878107 -1.197952,1.048407 -0.383657,0.253715 -0.461092,0.478166 -0.428767,1.242819 0.02169,0.513254 0.129433,1.049698 0.23942,1.192103 0.261912,0.339135 0.994725,0.339135 0.868141,0 -0.05668,-0.151886 0.238707,-0.399424 0.714627,-0.598831 0.496129,-0.207862 1.012601,-0.650423 1.329534,-1.139244 0.747977,-1.153641 4.245797,-4.676693 4.492075,-4.524486 0.281946,0.174245 -0.400708,1.309152 -0.878718,1.460866 -0.203203,0.06451 -0.369455,0.201693 -0.369455,0.304892 0,0.103199 -0.362911,0.586273 -0.806466,1.073505 -0.443563,0.487232 -1.281971,1.435783 -1.863132,2.107891 -0.58117,0.672101 -1.431133,1.542536 -1.888803,1.934288 -1.264493,1.082352 -1.341685,1.331261 -0.898208,2.896343 0.209968,0.741002 0.599536,1.583316 0.865707,1.871806 0.266167,0.288483 0.537285,0.860579 0.602475,1.271308 0.06521,0.410737 0.236703,0.933214 0.381136,1.161063 0.144434,0.227856 0.411418,0.995241 0.593305,1.705311 0.372955,1.455981 2.26236,4.83305 3.214199,5.744978 0.753481,0.721876 0.812126,1.29899 0.148919,1.465446 -0.263673,0.06615 -0.566616,0.10352 -0.673197,0.08299 -0.528693,-0.101876 -0.71162,0.06349 -0.71162,0.643416 0,0.842267 0.411606,1.580286 1.432886,2.56917 0.976217,0.945263 1.037759,1.148999 0.347065,1.148999 -0.764136,0 -2.074079,-1.698164 -2.396726,-3.107047 -0.143502,-0.626592 -0.436274,-1.594433 -0.650611,-2.150769 -0.214336,-0.556337 -0.389708,-1.153297 -0.389708,-1.326579 0,-0.173282 -0.24894,-1.14456 -0.553198,-2.158387 -0.431843,-1.438929 -0.681777,-1.934875 -1.139251,-2.26063 -0.322331,-0.229516 -0.586051,-0.600303 -0.586051,-0.823971 0,-0.223668 -0.163121,-0.466079 -0.362488,-0.538683 -0.199376,-0.07265 -0.656279,-0.372618 -1.015354,-0.666691 -0.359067,-0.29408 -1.034855,-0.842885 -1.50174,-1.219575 -0.466877,-0.376682 -0.848874,-0.863045 -0.848874,-1.080786 0,-0.669079 -0.649531,-0.239498 -2.826323,1.869246 -1.739868,1.685481 -3.386448,3.146081 -5.666275,5.026233 -0.284811,0.234887 -1.83166,1.702368 -3.437445,3.26107 -1.605784,1.558702 -3.376795,3.146926 -3.93559,3.529378 -0.558795,0.382459 -1.13482,0.811977 -1.280052,0.954493 -0.145232,0.142507 -0.704324,0.613001 -1.242427,1.045525 -0.538104,0.432532 -1.38268,1.15927 -1.876841,1.614968 -0.49416,0.455697 -1.053158,0.915881 -1.242223,1.022618 -0.189065,0.106746 -0.577224,0.414057 -0.862583,0.682928 -0.285351,0.268872 -0.811038,0.629826 -1.168187,0.802121 -0.357149,0.172296 -1.313239,0.872079 -2.124645,1.555086 -0.811409,0.682998 -1.573897,1.180877 -1.694418,1.106394 -0.243259,-0.150344 0.345091,-0.922849 0.702853,-0.922849 0.11516,0 0.72989,-0.473743 1.366071,-1.052767 0.636174,-0.579024 2.461642,-2.012482 4.056591,-3.18546 1.594957,-1.172986 3.645604,-2.851907 4.557007,-3.73093 3.086724,-2.977073 4.306557,-4.087484 4.865555,-4.429116 0.603889,-0.369064 3.701956,-3.187018 7.343802,-6.679804 1.259604,-1.208059 2.608644,-2.475108 2.997868,-2.815675 0.68739,-0.60147 0.697779,-0.633333 0.362488,-1.112031 -0.189856,-0.271048 -0.345187,-0.647628 -0.345187,-0.836842 0,-0.189214 -0.186802,-0.392872 -0.415129,-0.452582 -0.263415,-0.06889 -0.371805,-0.221453 -0.296578,-0.417477 0.249519,-0.650235 -0.381222,-0.561809 -1.316722,0.184602 -0.536279,0.427882 -2.419821,2.201453 -4.185665,3.941274 -1.765836,1.739821 -3.533793,3.425052 -3.928794,3.744951 -0.395001,0.319908 -1.140692,1.005262 -1.657094,1.523019 -0.516394,0.517764 -1.265147,1.182623 -1.663882,1.477478 -0.398743,0.294856 -1.101979,0.89656 -1.562757,1.337124 -0.460779,0.440565 -2.041761,1.872958 -3.513291,3.183096 -1.471521,1.310138 -3.331599,2.999307 -4.133494,3.753712 -5.034337,4.736169 -7.600339,6.808916 -11.107473,8.972313 -2.1807809,1.345235 -3.5612143,2.296893 -4.9590592,3.418734 -0.7179085,0.576159 -1.4299289,1.047569 -1.5822676,1.047569 -0.1523386,0 -0.812246,0.559266 -1.4664603,1.24282 -1.0635107,1.111194 -1.7201135,1.530104 -1.70451153,1.087465 z M 49.293005,50.272089 c 0,-0.113932 -0.145318,-0.207141 -0.322929,-0.207141 -0.177612,0 -0.265318,0.09321 -0.194906,0.207141 0.07038,0.113925 0.215722,0.207134 0.322931,0.207134 0.107199,0 0.194904,-0.09321 0.194904,-0.207134 z m -0.786651,-1.879854 c -0.06075,-0.413696 -0.164287,-0.566248 -0.295412,-0.435123 -0.215909,0.215917 -0.03092,1.072159 0.231607,1.072159 0.08652,0 0.115225,-0.286667 0.06381,-0.637036 z m -0.352592,-1.227192 c 0.07038,-0.113933 -0.0173,-0.207142 -0.194913,-0.207142 -0.177612,0 -0.32293,0.09321 -0.32293,0.207142 0,0.113924 0.08771,0.207133 0.194914,0.207133 0.107199,0 0.252517,-0.09321 0.322929,-0.207133 z m -1.526769,-1.29892 c -0.344857,-0.34485 -0.54017,-0.0023 -0.219198,0.38451 0.194123,0.233901 0.306395,0.261842 0.363522,0.09045 0.04548,-0.136385 -0.01949,-0.350118 -0.144324,-0.474956 z M 34.270685,46.00113 c 0.184454,-0.184446 0.297665,-0.373065 0.251577,-0.419145 -0.153271,-0.15328 -0.730785,0.160788 -0.845539,0.459816 -0.152043,0.396222 0.179796,0.373495 0.593962,-0.04071 z M 58.821291,25.829991 c 0,-0.113925 -0.08771,-0.207142 -0.194913,-0.207142 -0.1072,0 -0.252518,0.09322 -0.32293,0.207142 -0.07038,0.113924 0.0173,0.207134 0.194914,0.207134 0.177611,0 0.322929,-0.09321 0.322929,-0.207134 z m 0.555765,-0.660248 c -0.06615,-0.165242 -0.115201,-0.116164 -0.125143,0.125143 -0.009,0.218352 0.04001,0.340693 0.108796,0.271862 0.06882,-0.06882 0.07617,-0.247483 0.01636,-0.397005 z m 4.619512,48.456981 c -0.670488,-1.562296 -2.802539,-5.307686 -3.487533,-6.126584 -0.774987,-0.926465 -1.361863,-1.747344 -3.471688,-4.855871 -0.523503,-0.771307 -1.128573,-1.49698 -1.344601,-1.612595 -0.216027,-0.115608 -0.392777,-0.400184 -0.392777,-0.632378 0,-0.682012 0.63085,-0.388362 1.385271,0.644833 0.373965,0.512144 1.082532,1.397226 1.574602,1.966848 0.49207,0.569622 1.118819,1.361926 1.392779,1.760661 0.273953,0.398736 0.652717,0.838149 0.841688,0.976468 0.188971,0.138319 0.39771,0.511165 0.463871,0.828543 0.06615,0.317379 0.344693,0.814859 0.618982,1.105502 0.957969,1.015096 3.043939,4.396189 3.046773,4.938441 0.0016,0.29704 0.05903,0.749794 0.127727,1.006132 0.0924,0.344748 0.0364,0.466055 -0.215088,0.466055 -0.186999,0 -0.429996,-0.209726 -0.540006,-0.466055 z m -47.84539,-7.577265 c 0,-0.243083 1.007179,-0.753958 1.168455,-0.592685 0.211896,0.211894 -0.351672,0.764817 -0.779545,0.764817 -0.213901,0 -0.38891,-0.07743 -0.38891,-0.172132 z m 1.449955,-0.742716 c 0,-0.180383 0.147585,-0.327971 0.327966,-0.327971 0.365788,0 0.302086,0.44592 -0.08199,0.573944 -0.135286,0.04509 -0.245975,-0.06561 -0.245976,-0.245973 z M 56.16735,25.609908 c 0.04987,-0.14953 0.212967,-0.31265 0.362489,-0.362488 0.155354,-0.05183 0.233031,0.02591 0.181244,0.181244 -0.04987,0.149522 -0.212959,0.312642 -0.362489,0.362488 -0.155346,0.05175 -0.233023,-0.02591 -0.181244,-0.181244 z M 67.032068,23.6149 c -0.233275,-0.233274 -0.142069,-0.477688 0.178245,-0.477688 0.170887,0 0.310709,0.08771 0.310709,0.194913 0,0.261191 -0.323462,0.44826 -0.488954,0.282775 z m 3.1913,-7.096091 c -0.474017,-0.299326 0.07508,-1.113409 1.424978,-2.11269 0.635063,-0.470111 1.489488,-1.191337 1.89873,-1.602724 1.003469,-1.008738 1.773132,-1.680095 1.926107,-1.680095 0.06936,0 0.12616,0.169799 0.12616,0.37734 0,0.207533 -0.483395,0.790103 -1.07421,1.294598 -0.590814,0.504494 -1.73265,1.591473 -2.537417,2.415491 -1.099842,1.126155 -1.538003,1.45101 -1.764348,1.30808 z m 0.520042,-2.547383 c 0.07879,-0.25633 0.154978,-0.472459 0.169313,-0.480272 1.005098,-0.548555 2.034034,-1.330932 2.228681,-1.694634 0.140339,-0.262225 0.913908,-1.155747 1.719036,-1.985605 0.805135,-0.8298506 1.856657,-1.9381396 2.336718,-2.4628559 0.662448,-0.7240682 0.978214,-0.9264734 1.309989,-0.8397149 0.628573,0.1643731 0.378686,0.9340986 -0.582797,1.7951472 -2.067268,1.8513266 -2.036821,1.8201126 -1.537392,1.5763951 0.262303,-0.1280084 0.629324,-0.2033838 0.815602,-0.1675124 0.270719,0.05214 0.199743,0.2234647 -0.353642,0.8537439 -0.490864,0.559061 -0.738927,0.713124 -0.85246,0.529421 -0.09438,-0.1527 -0.01738,-0.374724 0.187429,-0.540671 0.30966,-0.250857 0.29109,-0.266883 -0.170276,-0.14693 -0.284811,0.07406 -0.797471,0.403284 -1.139244,0.73163 -1.886055,1.811979 -3.733028,3.297913 -4.099211,3.297913 -0.09625,0 -0.110543,-0.209725 -0.03171,-0.466055 z M 32.979053,11.333245 c -0.326374,-0.522618 -0.322851,-0.62422 0.02161,-0.62422 0.353978,0 1.010813,0.712904 0.826578,0.897139 -0.252141,0.252149 -0.587745,0.144159 -0.848217,-0.272919 z M 32.135056,9.8739288 C 31.870881,9.5927191 31.477876,8.9769621 31.261724,8.5055756 31.045563,8.0341892 30.446396,7.1537566 29.930244,6.5490695 29.376327,5.900142 29.06792,5.3734765 29.177601,5.2637954 c 0.413915,-0.4139154 1.280139,0.4163344 2.277423,2.182828 0.241189,0.4272246 0.62963,1.1141764 0.863201,1.526573 0.23358,0.4123888 0.395988,0.8988065 0.360915,1.0809116 -0.05175,0.268676 -0.154329,0.234707 -0.544084,-0.1801792 z" /><path
         id="path2"
         style="font-variation-settings:normal;vector-effect:none;fill:#ff0000;fill-opacity:1;stroke-width:0.782878;stroke-linecap:butt;stroke-linejoin:miter;stroke-miterlimit:4;stroke-dasharray:none;stroke-dashoffset:0;stroke-opacity:1;-inkscape-stroke:none;stop-color:#000000"
         d="m 63.139575,66.361695 c -0.4448,-0.695947 -0.478064,-0.917087 -0.364845,-2.42509 0.160443,-2.136787 0.317457,-3.214411 0.543576,-3.730672 0.09979,-0.227848 0.228655,-0.740516 0.286361,-1.139251 0.0577,-0.398736 0.20758,-1.19104 0.33306,-1.760662 0.12548,-0.569622 0.311319,-1.455135 0.412984,-1.967795 0.337146,-1.700121 0.47101,-2.172251 0.696448,-2.456271 0.167043,-0.210453 0.127906,-0.35109 -0.155323,-0.558192 -0.364179,-0.266296 -0.361377,-0.304774 0.07343,-1.008347 0.248642,-0.402321 0.427984,-0.896826 0.398532,-1.098902 -0.113361,-0.777742 0.235294,-1.299523 0.868344,-1.299523 0.401867,0 0.607451,-0.105148 0.607451,-0.3107 0,-0.280232 -0.245933,-0.402697 -0.673189,-0.335237 -0.282634,0.04462 -0.161171,-0.541321 0.169008,-0.815351 0.513482,-0.426152 0.918457,-1.357338 0.918457,-2.111884 0,-0.381606 0.111857,-0.805691 0.248563,-0.942397 0.173823,-0.173822 0.183076,-0.314059 0.03077,-0.466368 -0.28153,-0.281529 -0.103606,-1.231204 0.208246,-1.111534 0.384683,0.14762 0.822123,-1.058568 0.560908,-1.546653 -0.33475,-0.625496 -0.269717,-0.843786 0.317951,-1.067219 0.295834,-0.112476 0.586344,-0.389803 0.645569,-0.616282 0.05926,-0.226479 0.174487,-0.411778 0.256134,-0.411778 0.08165,0 0.148457,-0.127805 0.148457,-0.284005 0,-0.156207 0.295168,-0.896027 0.655934,-1.644043 0.360758,-0.748017 0.655934,-1.465775 0.655934,-1.59502 0,-0.288146 0.517483,-0.826797 0.794308,-0.826797 0.19875,0 0.398556,1.156882 0.482966,2.796338 0.02349,0.455705 0.131836,0.947353 0.240829,1.092561 0.371686,0.495186 0.235113,2.504058 -0.204316,3.005319 -0.221367,0.252518 -0.638312,0.831972 -0.926559,1.28767 -0.28824,0.455698 -0.77292,1.222694 -1.07706,1.70443 -0.304141,0.481736 -0.552986,0.971098 -0.552986,1.087465 0,0.116367 -0.09871,0.21158 -0.219363,0.21158 -0.120649,0 -0.175263,0.07132 -0.121361,0.158564 0.05386,0.08721 -0.121652,0.623179 -0.390108,1.191032 -0.268465,0.56786 -0.495554,1.218894 -0.504659,1.446742 -0.0091,0.227849 -0.19882,0.647307 -0.421603,0.932118 -0.222784,0.284811 -0.407136,0.753434 -0.409665,1.041377 -0.0055,0.634319 -0.537485,1.444261 -0.948472,1.444261 -0.346557,0 -0.388668,0.241705 -0.09353,0.536843 0.214398,0.214399 0.189566,0.322749 -0.63201,2.757703 -0.665517,1.972429 -1.341133,5.612373 -1.603037,8.636545 -0.07992,0.922817 -0.264205,1.820739 -0.409515,1.995391 -0.217069,0.260894 -0.207831,0.33919 0.05175,0.438811 0.432579,0.165994 0.399448,0.550551 -0.0465,0.539763 -0.199375,-0.0047 -0.582735,-0.353368 -0.85192,-0.77454 z m 4.461527,-1.992605 c -0.06349,-0.165461 0.008,-0.403252 0.15876,-0.528411 0.204441,-0.169673 0.303569,-0.151033 0.389646,0.07328 0.06349,0.165462 -0.008,0.403253 -0.158759,0.528412 -0.204441,0.169673 -0.303569,0.151032 -0.389647,-0.07328 z m -2.344696,-0.590055 c -0.101194,-0.142405 -0.182387,-0.44534 -0.180437,-0.673197 0.0031,-0.319101 0.142812,-0.414267 0.609776,-0.414267 0.482652,0 0.636526,0.113282 0.754866,0.555757 0.10727,0.401108 0.06349,0.588442 -0.15739,0.673197 -0.484092,0.185761 -0.82794,0.138381 -1.026815,-0.14149 z m 3.549115,-0.441833 c -0.313746,-0.229414 -0.351105,-0.735584 -0.336974,-4.565892 0.01566,-4.239801 0.02435,-4.32223 0.548609,-5.216864 0.565708,-0.965312 0.789454,-1.078649 1.240001,-0.628103 0.208918,0.208927 0.265411,0.83252 0.220474,2.433858 -0.09044,3.222412 -0.364571,6.399988 -0.562702,6.522438 -0.09647,0.05965 -0.175396,0.419168 -0.175396,0.798989 0,0.775637 -0.392785,1.051327 -0.934012,0.655574 z m 6.525053,-0.233344 c -0.246552,-0.297071 -0.20506,-1.061418 0.140448,-2.587224 0.06451,-0.284811 0.103794,-0.953576 0.08734,-1.486137 -0.01644,-0.532568 0.06576,-1.027433 0.182669,-1.099693 0.11693,-0.07226 0.212598,-0.396802 0.212598,-0.721187 0,-0.487811 0.07163,-0.571055 0.414275,-0.481454 0.383117,0.100185 0.414268,0.28254 0.414268,2.424815 0,1.503486 -0.08576,2.402253 -0.244375,2.560864 -0.18775,0.18775 -0.18209,0.360774 0.02443,0.746655 0.147846,0.276254 0.205709,0.604373 0.128587,0.729164 -0.20466,0.331142 -1.058928,0.277256 -1.360242,-0.0858 z m -9.733772,-1.447972 c 0,-0.170887 0.09322,-0.310701 0.207141,-0.310701 0.113925,0 0.207134,0.139814 0.207134,0.310701 0,0.170887 -0.09321,0.310709 -0.207134,0.310709 -0.113924,0 -0.207141,-0.139822 -0.207141,-0.310709 z M 78.148809,60.36427 c -0.272778,-0.272778 -0.0995,-0.676179 0.290455,-0.676179 0.227848,0 0.414275,0.12984 0.414275,0.288545 0,0.312447 -0.503156,0.58921 -0.70473,0.387634 z m 0.05926,-1.539247 c -0.131359,-0.376878 -0.0732,-2.287429 0.07234,-2.377397 0.104497,-0.06459 0.0078,-0.317316 -0.215276,-0.561629 -0.465946,-0.510702 -0.626005,-1.239562 -0.773805,-3.523671 -0.06748,-1.042268 -0.02247,-1.729494 0.124799,-1.906941 0.270743,-0.326226 0.08943,-0.709844 -0.335487,-0.709844 -0.337123,0 -0.409218,-0.735662 -0.09135,-0.932118 0.113925,-0.07038 0.207134,-0.303185 0.207134,-0.517278 0,-0.296007 0.136456,-0.379915 0.56963,-0.35026 0.549885,0.03766 0.56984,0.0031 0.576048,-0.99669 0.0039,-0.612398 0.210258,-1.52341 0.505145,-2.229057 0.385254,-0.921875 0.442701,-1.249382 0.252493,-1.43959 -0.379461,-0.379461 -0.292021,-0.949459 0.168053,-1.095481 0.234707,-0.07445 0.414268,-0.31341 0.414268,-0.551193 0,-0.238723 0.170385,-0.464262 0.395126,-0.523033 0.68876,-0.180117 0.990528,-1.873364 0.408733,-2.293464 -0.459002,-0.331432 -0.3817,-1.36862 0.109211,-1.465337 0.192306,-0.03789 0.482394,0.04126 0.64463,0.175921 0.228874,0.18995 0.354839,0.182176 0.56209,-0.03468 0.32664,-0.341781 0.780123,-1.338181 0.780123,-1.714095 0,-0.15173 0.326648,-0.818319 0.725884,-1.481323 0.461279,-0.766022 0.680462,-1.348577 0.601282,-1.598057 -0.0808,-0.254584 0.05284,-0.586023 0.380228,-0.942788 1.091167,-1.189192 1.95894,-3.664644 1.350519,-3.852551 -0.14387,-0.04447 -0.517905,-0.136956 -0.831197,-0.205599 -0.858802,-0.18818 -0.76167,-0.886367 0.17794,-1.278964 0.41116,-0.171795 0.794872,-0.493276 0.852703,-0.714408 0.07782,-0.297642 0.286408,-0.402054 0.803178,-0.402054 0.582445,0 0.752118,-0.111482 1.024638,-0.673197 0.827283,-1.70521 0.993605,-1.949664 1.539858,-2.263167 0.362583,-0.208097 0.636519,-0.58131 0.726128,-0.989307 0.114065,-0.519346 0.236546,-0.641944 0.590877,-0.591457 0.38819,0.05535 0.438936,0.177408 0.385763,0.928196 -0.05457,0.770078 0.0023,0.894681 0.517842,1.140724 0.797909,0.380611 0.913642,1.552243 0.227724,2.305332 -0.262468,0.28817 -0.751571,1.067376 -1.086901,1.731578 -0.56022,1.109666 -1.686123,2.928331 -1.965846,3.175439 -0.06451,0.05699 -0.147525,0.243381 -0.184555,0.414267 -0.03703,0.170895 -0.153538,0.341781 -0.258921,0.379751 -0.105376,0.03797 -0.193669,0.177791 -0.196205,0.310708 -0.0023,0.13291 -0.186881,0.474691 -0.409665,0.759502 -0.222783,0.284811 -0.407135,0.640229 -0.409672,0.789814 -0.0023,0.149584 -0.27598,0.848671 -0.607662,1.553519 -0.331682,0.704857 -0.717445,1.654401 -0.857243,2.110099 -0.139807,0.455698 -0.32747,1.01497 -0.417024,1.242819 -0.08956,0.227849 -0.206914,0.647299 -0.2608,0.93211 -0.05386,0.284819 -0.433746,1.678099 -0.844146,3.096188 -0.4104,1.41809 -0.746184,2.687404 -0.746184,2.820697 0,0.133293 -0.279636,1.090893 -0.62141,2.128011 -0.341773,1.037109 -0.621409,1.986067 -0.621409,2.108799 0,0.122724 -0.186427,0.608993 -0.414275,1.080583 -0.227849,0.471598 -0.414268,1.161791 -0.414268,1.533775 0,0.620274 -0.344991,1.688863 -0.62588,1.938633 -0.06404,0.05699 -0.243999,0.499719 -0.399862,0.983897 -0.155864,0.484187 -0.355889,0.880331 -0.444495,0.880331 -0.08861,0 -0.160835,0.16312 -0.160498,0.362488 7.83e-4,0.491272 -0.426833,2.11143 -0.720068,2.727954 -0.20419,0.429307 -0.705802,0.817254 -0.780309,0.603497 z M 67.738028,52.590888 c -0.148708,-0.240618 0.71292,-2.016803 0.978362,-2.016803 0.354558,0 1.229753,-2.130211 1.121175,-2.728949 -0.06279,-0.346212 0.007,-0.581106 0.193129,-0.65263 0.160161,-0.06146 0.349288,-0.376228 0.420288,-0.699478 0.07101,-0.32325 0.351927,-0.865511 0.62429,-1.205029 l 0.495202,-0.617299 0.230541,0.600866 c 0.13763,0.358723 0.178606,1.109988 0.101665,1.864228 -0.07085,0.694844 -0.159715,1.563204 -0.197418,1.929685 -0.08398,0.816361 -0.243397,1.09433 -0.627602,1.09433 -0.382444,0 -0.63392,0.994185 -0.328692,1.299413 0.42461,0.424609 0.255516,0.771957 -0.375789,0.771957 -0.335048,0 -0.660702,0.08336 -0.723677,0.185252 -0.152011,0.245965 -1.775692,0.394148 -1.911474,0.174457 z m 3.333463,-1.461915 c -0.165845,-0.432188 0.04134,-0.714392 0.319977,-0.435781 0.117659,0.117658 0.120705,0.315358 0.0078,0.498231 -0.158924,0.257136 -0.208668,0.247656 -0.327673,-0.06247 z m 2.019973,-13.421608 c 0.0063,-0.47595 -0.103989,-0.924352 -0.2502,-1.014711 -0.257676,-0.159253 -0.204652,-1.123532 0.122262,-2.223421 0.112711,-0.379218 0.05754,-0.466062 -0.295959,-0.466062 -0.696471,0 -0.853423,-1.342425 -0.262937,-2.24888 0.30865,-0.473798 1.063375,-0.08797 1.063375,0.543607 0,0.768677 0.285993,0.360022 0.699063,-0.998874 0.342963,-1.128276 0.90543,-1.852853 1.438311,-1.852853 0.160107,0 0.421964,-0.605932 0.64899,-1.50174 0.209326,-0.825952 0.505654,-1.647488 0.65851,-1.825624 0.184016,-0.214454 0.20841,-0.393404 0.07218,-0.529625 -0.136213,-0.136213 0.0047,-0.361321 0.417101,-0.666205 0.342557,-0.253269 0.622835,-0.552806 0.622835,-0.665642 0,-0.112837 0.372844,-0.993652 0.828542,-1.957367 0.455705,-0.963723 0.828551,-1.975734 0.828551,-2.248919 0,-0.273185 0.139814,-0.612743 0.310701,-0.754561 0.170886,-0.141826 0.314795,-0.549385 0.319798,-0.905696 0.0047,-0.356303 0.125949,-0.974448 0.268785,-1.373645 0.142828,-0.399198 0.226534,-1.066139 0.186012,-1.482082 -0.04055,-0.415943 0.01738,-0.812557 0.128744,-0.881364 0.353924,-0.218736 1.685873,1.220279 1.685873,1.821373 0,0.641991 -0.785156,2.407138 -1.070719,2.407138 -0.108107,0 -0.149279,0.07649 -0.0915,0.169987 0.05778,0.09349 -0.09348,0.489643 -0.336144,0.88033 -0.242669,0.390688 -0.664076,1.176399 -0.936471,1.746029 -0.272386,0.569622 -0.584833,1.202587 -0.694326,1.406597 -0.109486,0.204002 -0.143924,0.460137 -0.07649,0.569199 0.136526,0.220897 -0.519401,1.441952 -0.77458,1.441952 -0.08937,0 -0.162478,0.167778 -0.162478,0.372845 0,0.205067 -0.0824,0.461397 -0.183107,0.569622 -0.100701,0.108233 -0.440157,0.942476 -0.754342,1.853879 -0.314184,0.911395 -0.712293,1.820207 -0.884683,2.019574 -0.17239,0.199368 -0.25741,0.362488 -0.188932,0.362488 0.0685,0 -0.01167,0.489362 -0.178113,1.087473 -0.607192,2.181982 -1.171905,3.995785 -1.353416,4.347055 -0.102228,0.197817 -0.185863,0.54298 -0.185863,0.767009 0,0.886859 -0.75745,2.083927 -1.318609,2.083927 -0.2299,0 -0.309401,-0.225453 -0.300742,-0.852813 z m -1.280553,-7.024364 c 0,-0.245581 0.178426,-0.673338 0.396504,-0.950578 0.218071,-0.277233 0.51533,-0.967723 0.660569,-1.53441 0.145232,-0.566686 0.339659,-1.030345 0.432047,-1.030345 0.09239,0 0.167974,-0.142742 0.167974,-0.317207 0,-0.174456 0.139814,-0.370857 0.310701,-0.436431 0.170894,-0.06561 0.310709,-0.342282 0.310709,-0.614911 0,-0.302512 -0.12108,-0.495679 -0.310709,-0.495679 -0.170887,0 -0.310701,-0.07696 -0.310701,-0.171028 0,-0.241126 0.913775,-1.071791 1.179022,-1.071791 0.30598,0 0.71245,-0.525115 0.539982,-0.697583 -0.362582,-0.362583 -0.241306,-1.069365 0.276168,-1.609488 0.462462,-0.482707 0.510139,-0.630256 0.289548,-0.896051 -0.21097,-0.2542 -0.212223,-0.380682 -0.0063,-0.628901 0.141818,-0.170887 0.382984,-0.310701 0.535911,-0.310701 0.336872,0 0.605908,-0.480405 0.811985,-1.44996 0.08476,-0.398736 0.258906,-0.792038 0.387,-0.874005 0.170222,-0.10893 0.163215,-0.261466 -0.02599,-0.566819 -0.357313,-0.576535 -0.33075,-0.943188 0.180696,-2.494766 0.244093,-0.740517 0.474925,-1.462338 0.512957,-1.604047 0.05363,-0.199947 0.1867,-0.204104 0.593961,-0.01855 0.429033,0.195477 0.524826,0.384291 0.524826,1.034425 0,0.437409 -0.06991,0.795709 -0.155355,0.796226 -0.08544,5.08e-4 -0.172515,0.333795 -0.193496,0.740641 -0.02341,0.453568 -0.203681,0.883267 -0.466063,1.110834 -0.45161,0.391681 -0.56948,0.840364 -0.220762,0.840364 0.300225,0 0.254833,0.776999 -0.05175,0.886437 -0.179858,0.0642 -0.116602,0.247499 0.207133,0.600241 0.25633,0.279299 0.466055,0.705913 0.466055,0.948026 0,0.357031 -0.14336,0.452346 -0.758788,0.504486 -0.816878,0.06921 -0.742356,-0.05543 -1.524968,2.549927 -0.136886,0.455698 -0.517944,1.401141 -0.846792,2.100979 -0.328847,0.699838 -0.597907,1.442805 -0.597907,1.651027 0,0.208229 -0.113963,0.868798 -0.253261,1.467943 -0.207658,0.893169 -0.355145,1.124862 -0.818969,1.28655 -0.395149,0.137755 -0.619021,0.404427 -0.742567,0.884519 -0.148144,0.575689 -0.284247,0.697849 -0.838126,0.752212 -0.559155,0.05488 -0.661258,-0.0039 -0.661258,-0.381598 z M 91.281742,19.607189 c 0,-0.398736 0.09321,-0.724977 0.207134,-0.724977 0.113924,0 0.207595,-0.116515 0.208167,-0.258921 0.0023,-0.520755 0.917909,-1.429966 1.294731,-1.285368 0.521209,0.20001 0.448832,0.616047 -0.29819,1.714103 -1.026705,1.509162 -1.411842,1.660602 -1.411842,0.555163 z M 8.9888779e-6,79.737244 C 0.00895728,79.483458 2.6431309,76.78555 2.8819713,76.78555 c 0.1207848,0 0.219609,-0.121409 0.219609,-0.269788 0,-0.148386 0.466423,-0.437511 1.0364952,-0.642508 0.5700721,-0.204996 1.0930165,-0.464168 1.1620977,-0.575947 0.069081,-0.111772 0.6510632,-0.539364 1.2932916,-0.950187 0.6422284,-0.410831 1.4009409,-0.970792 1.6860274,-1.244353 0.2850874,-0.273569 0.7746718,-0.5913 1.0879655,-0.70607 0.3132936,-0.11477 0.5696251,-0.290377 0.5696251,-0.390233 0,-0.09986 0.2845922,-0.328723 0.6324252,-0.508597 0.347834,-0.179866 0.811769,-0.506381 1.030968,-0.725579 0.219199,-0.219198 0.796813,-0.687015 1.283587,-1.039584 0.73121,-0.529617 4.643157,-4.23129 11.043798,-10.450191 0.586274,-0.569622 2.082424,-1.873528 3.324781,-2.897564 1.242365,-1.024036 3.569587,-3.1679 5.171605,-4.764141 1.602027,-1.596233 3.792496,-3.746525 4.867708,-4.778421 1.424165,-1.366787 2.199512,-2.311815 2.855759,-3.480717 0.828308,-1.475373 0.880479,-1.653681 0.648066,-2.21477 -0.321175,-0.775393 -0.549971,-0.764848 -1.445318,0.06662 -0.398743,0.370286 -1.237643,1.087645 -1.864228,1.594128 -0.626592,0.506482 -1.565881,1.309898 -2.087309,1.785364 -0.521436,0.475473 -1.346863,1.116243 -1.834275,1.423929 -0.48742,0.307695 -1.280765,0.948222 -1.762986,1.423398 -3.033073,2.988738 -4.979644,4.757024 -6.430317,5.841357 -0.90997,0.68018 -2.450815,2.028985 -3.424096,2.99735 -0.973282,0.968357 -2.092993,2.004027 -2.488237,2.301481 -0.671795,0.505583 -7.966015,7.563681 -13.5159125,13.078399 -1.4437796,1.434623 -2.6149187,2.43385 -2.8525879,2.43385 -0.5158344,0 -0.5240718,-0.34799 -0.012088,-0.510492 0.2151176,-0.06827 0.6284803,-0.482808 0.9185836,-0.921189 0.290104,-0.438372 1.0659384,-1.250999 1.7240772,-1.805833 0.6581381,-0.554825 3.3925753,-3.152641 6.0765276,-5.772918 6.267873,-6.11917 8.1977,-7.95465 10.356462,-9.850131 0.966134,-0.848311 2.185967,-1.939557 2.710738,-2.425004 0.524779,-0.485446 1.285016,-1.13792 1.689427,-1.449952 2.939527,-2.26806 6.132549,-5.302432 5.67812,-5.395994 -0.172366,-0.03546 -0.855075,0.363803 -1.517139,0.887306 -0.662057,0.523503 -1.527395,1.205021 -1.922968,1.514477 -0.395572,0.309456 -1.19446,0.989378 -1.775308,1.510931 -0.580841,0.521554 -1.795186,1.492761 -2.698526,2.15823 -1.670685,1.230755 -2.012748,1.550866 -2.933334,2.745099 -0.378819,0.49142 -0.684752,0.673189 -1.133028,0.673189 -0.777875,0 -0.683248,-0.356131 0.26495,-0.997167 0.389951,-0.263634 1.221673,-0.961374 1.848257,-1.550537 1.341916,-1.261749 4.203107,-3.570808 9.034748,-7.291279 1.923351,-1.481025 3.898896,-3.10802 4.39009,-3.615544 0.805706,-0.832505 0.993965,-0.925988 1.92422,-0.955503 0.762233,-0.02419 1.164037,-0.157578 1.540774,-0.511493 0.617839,-0.580434 0.645765,-0.82084 0.09536,-0.82084 -0.301134,0 -0.414275,-0.138092 -0.414275,-0.505622 0,-0.278086 0.09293,-0.563045 0.206507,-0.633238 0.126866,-0.07841 0.04964,-0.422653 -0.200229,-0.892559 -0.615279,-1.157102 -1.29239,-3.567716 -1.155418,-4.11346 0.08564,-0.341202 0.03233,-0.48349 -0.181079,-0.48349 -0.416805,0 -0.62862,-0.402509 -0.355529,-0.675608 0.162236,-0.162236 -0.106471,-0.443618 -0.960513,-1.005865 -2.209336,-1.454478 -6.691563,-6.37074 -10.247981,-11.240334 -1.03675,-1.419554 -1.176345,-1.784884 -0.682028,-1.784884 0.330148,0 0.482699,0.183648 3.183284,3.832031 2.139973,2.891012 5.859794,6.885161 6.580809,7.066123 0.299552,0.07516 0.497996,0.276442 0.497996,0.505066 0,0.399033 0.728319,1.024967 1.192629,1.024967 0.204644,0 0.218853,-0.09911 0.05746,-0.400708 -0.144754,-0.270468 -0.147119,-0.577811 -0.007,-0.945599 0.295529,-0.777288 0.261113,-0.932188 -0.20711,-0.932188 -0.488375,0 -0.510899,-0.16554 -0.09698,-0.712787 0.167262,-0.22114 0.301714,-0.500776 0.298778,-0.621409 -0.0031,-0.120634 -1.028255,-1.290097 -2.278504,-2.598811 -1.25024,-1.308705 -2.273164,-2.480909 -2.273164,-2.604877 0,-0.123977 -0.233321,-0.444597 -0.518484,-0.712505 -0.285171,-0.267901 -0.497402,-0.587088 -0.471614,-0.709296 0.02576,-0.122215 -0.39338,-1.090736 -0.931468,-2.15228 -0.538088,-1.061543 -0.978339,-2.148491 -0.978339,-2.415436 0,-0.421439 -0.826406,-1.356516 -1.405078,-1.589853 -0.09766,-0.03938 -0.357439,-0.410956 -0.577278,-0.825725 -0.21984,-0.414777 -0.810631,-1.264645 -1.312855,-1.888591 L 25.19986,10.556733 22.488104,10.419894 C 19.018591,10.244811 17.977669,10.09954 18.073992,9.8038316 18.115922,9.675103 18.702534,9.4765338 19.377566,9.3625703 20.052602,9.2486068 20.873669,8.9734095 21.202173,8.7510096 21.630242,8.4612038 22.11774,8.3541139 22.923095,8.3729656 24.119716,8.4009926 24.310409,8.1258972 23.408691,7.6724932 22.52908,7.2302142 22.405104,6.5662945 23.20212,6.5662945 c 0.252471,0 0.545314,0.2890777 0.801432,0.7911138 0.513537,1.0066012 1.975507,2.8624997 2.451317,3.1118147 0.770344,0.403644 1.705632,0.49355 1.827605,0.175686 C 28.423151,10.278219 26.892319,7.8382004 25.268732,5.8413213 24.620337,5.0438505 23.891235,4.0588961 23.648504,3.6525512 23.40578,3.2461984 22.598359,2.3161003 21.854242,1.5856752 21.110124,0.85524223 20.501295,0.18769009 20.501295,0.10221548 c 0,-0.38602928 1.008003,0.37850582 1.760662,1.33540962 0.455697,0.579361 1.448801,1.7267469 2.206885,2.5497551 0.758092,0.8230004 1.496096,1.7163972 1.64002,1.985308 0.144136,0.2693335 0.298237,0.379226 0.343089,0.2446806 C 26.496731,6.0830192 26.294694,5.5247411 26.00297,4.97675 25.400381,3.8447712 25.327112,3.2521169 25.789777,3.2521169 c 0.174464,0 0.370857,-0.1398141 0.436438,-0.3107007 0.170558,-0.4444711 0.555163,-0.3840878 1.074477,0.1687023 0.592748,0.6309448 0.568964,0.8380787 -0.07758,0.6758037 -0.510781,-0.1281962 -0.524857,-0.1053127 -0.432055,0.7024999 0.05277,0.4592597 0.381896,1.2997574 0.731404,1.8677823 0.349508,0.5680249 0.747038,1.4768447 0.883407,2.0196061 0.13637,0.5427536 0.479153,1.3701381 0.76174,1.8386275 0.46968,0.778651 0.613229,0.867578 1.671789,1.035677 0.636903,0.10114 1.130883,0.277108 1.097736,0.391032 -0.03312,0.113925 -0.266179,0.188619 -0.517843,0.165994 -0.664671,-0.05973 -1.506452,0.149451 -1.264598,0.314294 0.423271,0.288475 1.551555,2.173465 1.453663,2.428566 -0.05582,0.145505 0.169384,0.622466 0.500487,1.059915 0.331102,0.437448 0.6046,0.918386 0.607771,1.068753 0.0031,0.15036 0.285398,0.679812 0.627171,1.176572 0.341774,0.496752 0.62141,0.984657 0.62141,1.084231 0,0.09957 0.277217,0.618168 0.616031,1.152435 0.338822,0.53426 0.7952,1.51714 1.014179,2.184183 0.542292,1.651911 0.98587,2.462597 1.497168,2.736236 0.322553,0.172625 0.39872,0.356155 0.304164,0.732907 -0.130827,0.521256 0.302167,1.592116 0.762969,1.886908 0.290565,0.185895 1.640904,1.844202 1.933239,2.374164 0.104451,0.189354 0.516151,0.702014 0.914887,1.139244 0.398743,0.437237 0.973853,1.12851 1.278032,1.536178 0.47242,0.633153 0.668703,0.738841 1.346386,0.724977 0.834313,-0.01707 1.14171,-0.19525 1.368048,-0.792993 0.07547,-0.199368 0.237095,-0.362488 0.359106,-0.362488 0.122012,0 0.5873,-0.372846 1.033979,-0.828551 0.446678,-0.455698 0.866215,-0.828543 0.932298,-0.828543 0.174495,0 1.437371,-0.904209 1.518814,-1.087465 0.03797,-0.08544 0.177839,-0.155354 0.310799,-0.155354 0.132964,0 0.629134,-0.349539 1.102592,-0.776764 0.473462,-0.427216 0.995422,-0.869973 1.159897,-0.983897 0.164482,-0.113925 0.825693,-0.569873 1.469352,-1.013224 0.643667,-0.443344 1.170293,-0.886101 1.170293,-0.983898 0,-0.0978 0.09322,-0.177807 0.207142,-0.177807 0.463346,0 0.144824,0.411301 -0.983084,1.269413 -1.51782,1.154761 -1.517366,1.154385 -2.645336,2.200122 -0.522258,0.484179 -1.070388,0.88033 -1.218075,0.88033 -0.14769,0 -0.483478,0.186419 -0.746189,0.414268 -0.262718,0.227857 -0.533312,0.414573 -0.601321,0.414933 -0.06803,3.6e-4 -0.939257,0.777422 -1.936104,1.726794 -1.228539,1.17005 -1.81244,1.876081 -1.81244,2.191542 0,0.255969 0.06991,0.432062 0.155346,0.391321 0.626318,-0.298636 1.730184,-1.039638 2.773478,-1.861762 0.676462,-0.533061 1.529266,-1.034135 1.895109,-1.113487 0.365852,-0.07936 0.71179,-0.202492 0.76875,-0.273624 0.05699,-0.07116 0.375727,-0.269145 0.708372,-0.440032 0.645287,-0.331502 1.022665,-0.923405 0.448181,-0.702954 -0.493925,0.189535 -0.394304,-0.198232 0.192573,-0.749574 0.401671,-0.377355 0.576738,-0.432916 0.766406,-0.243248 0.46636,0.46636 0.827189,0.290894 0.689645,-0.335369 -0.105242,-0.479137 -0.0081,-0.688596 0.553166,-1.192879 1.167999,-1.049401 4.685673,-4.175754 8.120409,-7.217054 1.813278,-1.605573 4.264743,-3.842005 5.447711,-4.96985 1.664398,-1.586847 2.206666,-1.994813 2.397657,-1.803822 0.181479,0.181487 0.184947,0.285649 0.01307,0.393537 -0.321073,0.201576 -3.967774,3.524125 -4.70793,4.289459 -0.501253,0.518297 -0.542652,0.63291 -0.249519,0.690741 0.193301,0.03813 0.509059,-0.102385 0.701678,-0.312266 0.431718,-0.470408 3.160494,-2.844165 3.490367,-3.036267 0.274399,-0.159793 0.899018,0.03155 0.899018,0.275432 0,0.08938 -0.219895,0.217703 -0.488649,0.285163 -0.268762,0.06748 -1.676674,1.289306 -3.128701,2.715224 -1.452019,1.425926 -2.770112,2.592587 -2.929098,2.592587 -0.331581,0 -0.391862,-0.533422 -0.08192,-0.724977 0.113925,-0.07038 0.207142,-0.226447 0.207142,-0.346752 0,-0.245307 -0.880785,0.286306 -1.57086,0.94812 -0.249081,0.238872 -0.806913,0.708254 -1.239633,1.043068 -0.467151,0.361454 -0.680438,0.644198 -0.525021,0.696001 0.143963,0.04799 0.510593,-0.143979 0.814733,-0.426582 0.912523,-0.847927 1.634853,-1.242161 1.796548,-0.980531 0.186552,0.301846 -1.267401,1.761702 -2.446752,2.456694 -1.915005,1.128519 -5.321612,4.277732 -5.321612,4.919535 0,0.19561 0.06991,0.28575 0.155354,0.200299 0.08544,-0.08544 0.155354,-0.253934 0.155354,-0.374435 0,-0.120492 0.185002,-0.322451 0.411121,-0.448792 0.226111,-0.126341 0.518954,-0.369526 0.650751,-0.540421 0.629152,-0.815743 3.696398,-3.032712 4.585285,-3.314181 0.839879,-0.265951 1.039036,-0.438638 1.38268,-1.19893 0.365408,-0.808439 0.45385,-0.876722 0.98461,-0.760143 0.522587,0.114777 0.754459,-0.04815 2.232971,-1.568974 0.907403,-0.933378 1.700928,-1.858051 1.763378,-2.054819 0.06247,-0.196769 0.368336,-0.489197 0.679742,-0.649844 0.311405,-0.160646 0.834915,-0.553635 1.163348,-0.873308 0.39443,-0.383908 0.710869,-0.532177 0.93211,-0.43676 0.184227,0.07945 0.591293,0.188462 0.904585,0.242238 0.3133,0.05378 0.569629,0.17405 0.569629,0.267259 0,0.378937 -1.589336,2.056558 -2.071369,2.186445 -0.470933,0.126889 -2.859626,1.471192 -3.107047,1.748574 -0.05699,0.06388 -0.562271,0.437558 -1.122913,0.83043 -0.560643,0.392871 -1.399543,1.116642 -1.864228,1.608383 -1.308142,1.3843 -2.973668,3.049255 -5.42547,5.42359 -2.405635,2.329626 -3.231344,3.35345 -3.140452,3.893965 0.03899,0.232021 -0.138976,0.375922 -0.564416,0.456308 -0.412232,0.0779 -0.612273,0.233728 -0.594274,0.462963 0.01495,0.190051 -0.287379,0.559695 -0.67178,0.821419 -0.384401,0.261731 -0.699548,0.573231 -0.700331,0.692228 -7.75e-4,0.118998 -0.490771,0.578844 -1.088882,1.021883 -0.598103,0.443046 -1.415838,1.137983 -1.8172,1.544305 -0.401351,0.406329 -0.940432,0.878107 -1.197952,1.048407 -0.383657,0.253715 -0.461092,0.478166 -0.428767,1.242818 0.02169,0.513255 0.129433,1.049699 0.23942,1.192104 0.261912,0.339135 0.994725,0.339135 0.868141,0 -0.05668,-0.151886 0.238707,-0.399424 0.714627,-0.598831 0.496127,-0.207862 1.012597,-0.650423 1.32953,-1.139244 0.747977,-1.153641 4.245797,-4.676694 4.492075,-4.524486 0.281946,0.174245 -0.400708,1.309152 -0.878718,1.460865 -0.203203,0.06451 -0.369455,0.201693 -0.369455,0.304892 0,0.103199 -0.362911,0.586274 -0.806466,1.073506 -0.443563,0.487232 -1.281971,1.435782 -1.863132,2.107891 -0.58117,0.672101 -1.43113,1.542536 -1.888806,1.934288 -1.264486,1.08235 -1.341678,1.331255 -0.898201,2.896338 0.209968,0.741002 0.599536,1.583316 0.865707,1.871806 0.266167,0.288483 0.537283,0.860579 0.602474,1.271308 0.06521,0.410737 0.236703,0.933214 0.381133,1.161063 0.144434,0.227856 0.411418,0.995241 0.593305,1.705311 0.372955,1.455981 2.26236,4.83305 3.214199,5.744978 0.753481,0.721876 0.812126,1.29899 0.148919,1.465446 -0.263673,0.06615 -0.566616,0.103519 -0.673197,0.08299 -0.528693,-0.101876 -0.71162,0.06349 -0.71162,0.643416 0,0.842267 0.411606,1.580286 1.432886,2.56917 0.976217,0.945263 1.037759,1.148999 0.347065,1.148999 -0.764136,0 -2.074079,-1.698164 -2.396726,-3.107047 -0.143502,-0.626592 -0.436274,-1.594433 -0.650611,-2.150769 -0.214336,-0.556337 -0.389709,-1.153297 -0.389709,-1.326579 0,-0.173282 -0.248939,-1.14456 -0.553197,-2.158387 -0.431843,-1.438929 -0.681774,-1.934875 -1.139247,-2.26063 -0.322331,-0.229516 -0.586051,-0.600303 -0.586051,-0.823971 0,-0.223669 -0.163121,-0.466079 -0.362488,-0.538683 -0.199376,-0.07265 -0.656279,-0.372618 -1.015354,-0.666691 -0.359067,-0.29408 -1.034855,-0.842885 -1.501739,-1.219575 -0.466878,-0.376682 -0.848875,-0.863045 -0.848875,-1.080786 0,-0.669079 -0.649531,-0.239498 -2.826323,1.869246 -1.739868,1.685481 -3.386448,3.146081 -5.666274,5.026233 -0.284811,0.234887 -1.831662,1.702368 -3.437446,3.26107 -1.605784,1.558702 -3.376795,3.146926 -3.93559,3.529378 -0.558794,0.382459 -1.134821,0.811977 -1.280052,0.954493 -0.145232,0.142507 -0.704324,0.613001 -1.242428,1.045525 -0.538103,0.432532 -1.382679,1.15927 -1.87684,1.614968 -0.49416,0.455697 -1.053158,0.915881 -1.242223,1.022618 -0.189066,0.106746 -0.577224,0.414057 -0.862583,0.682928 -0.285351,0.268872 -0.811038,0.629826 -1.168187,0.802121 -0.357149,0.172296 -1.313239,0.872079 -2.124645,1.555086 -0.811409,0.682998 -1.573897,1.180877 -1.694418,1.106394 -0.243259,-0.150344 0.345091,-0.922849 0.702853,-0.922849 0.11516,0 0.72989,-0.473743 1.366071,-1.052767 0.636174,-0.579024 2.461642,-2.012482 4.056591,-3.18546 1.594957,-1.172986 3.645604,-2.851907 4.557007,-3.73093 3.086724,-2.977073 4.306557,-4.087484 4.865555,-4.429116 0.603889,-0.369064 3.701956,-3.187018 7.343802,-6.679804 1.259604,-1.208059 2.608643,-2.475108 2.997868,-2.815675 0.68739,-0.60147 0.697779,-0.633333 0.362488,-1.112031 -0.189856,-0.271048 -0.345187,-0.647628 -0.345187,-0.836842 0,-0.189214 -0.186802,-0.392872 -0.415129,-0.452582 -0.263415,-0.06889 -0.371805,-0.221453 -0.296578,-0.417477 0.249519,-0.650235 -0.381222,-0.561809 -1.316722,0.184602 -0.53628,0.427882 -2.419821,2.201453 -4.185665,3.941274 -1.765836,1.739821 -3.533794,3.425052 -3.928794,3.744951 -0.395001,0.319908 -1.140693,1.005262 -1.657094,1.523019 -0.516395,0.517764 -1.265147,1.182623 -1.663882,1.477478 -0.398743,0.294856 -1.101979,0.89656 -1.562757,1.337124 -0.460779,0.440565 -2.041762,1.872958 -3.513291,3.183096 -1.47152,1.310138 -3.331599,2.999307 -4.133493,3.753712 -5.034337,4.736168 -7.600339,6.808916 -11.1074734,8.972313 -2.1807804,1.345235 -3.5612142,2.296893 -4.9590592,3.418734 -0.7179084,0.576159 -1.4299296,1.047569 -1.5822675,1.047569 -0.1523386,0 -0.8122468,0.559265 -1.4664603,1.24282 -1.06351069,1.111194 -1.72011432,1.530104 -1.70451156414,1.087465 z M 48.464459,49.443538 c 0,-0.113932 -0.145318,-0.207141 -0.32293,-0.207141 -0.177611,0 -0.265317,0.09321 -0.194905,0.207141 0.07038,0.113925 0.215722,0.207134 0.322929,0.207134 0.1072,0 0.194906,-0.09321 0.194906,-0.207134 z m -0.786652,-1.879854 c -0.06075,-0.413696 -0.164287,-0.566248 -0.295411,-0.435124 -0.21591,0.215918 -0.03092,1.07216 0.231607,1.07216 0.08652,0 0.115224,-0.286667 0.0638,-0.637036 z m -0.352592,-1.227192 c 0.07038,-0.113933 -0.0173,-0.207142 -0.194913,-0.207142 -0.177612,0 -0.32293,0.09321 -0.32293,0.207142 0,0.113924 0.08771,0.207133 0.194913,0.207133 0.1072,0 0.252518,-0.09321 0.32293,-0.207133 z m -1.526769,-1.29892 c -0.344858,-0.34485 -0.54017,-0.0023 -0.219198,0.38451 0.194123,0.233901 0.306395,0.261842 0.363522,0.09045 0.04548,-0.136385 -0.01949,-0.350118 -0.144324,-0.474956 z m -12.356308,0.135007 c 0.184453,-0.184446 0.297665,-0.373065 0.251577,-0.419145 -0.153271,-0.15328 -0.730785,0.160788 -0.845539,0.459816 -0.152043,0.396222 0.179796,0.373495 0.593962,-0.04071 z M 57.99274,25.001444 c 0,-0.113924 -0.08771,-0.207141 -0.194913,-0.207141 -0.1072,0 -0.252518,0.09322 -0.32293,0.207141 -0.07038,0.113925 0.0173,0.207134 0.194914,0.207134 0.177611,0 0.322929,-0.09321 0.322929,-0.207134 z m 0.555765,-0.660247 c -0.06615,-0.165242 -0.115201,-0.116164 -0.125143,0.125143 -0.009,0.218352 0.04001,0.340692 0.108796,0.271862 0.06882,-0.06882 0.07617,-0.247484 0.01636,-0.397005 z m 4.619512,48.456975 c -0.670488,-1.562295 -2.802539,-5.307685 -3.487533,-6.126583 -0.774987,-0.926465 -1.361863,-1.747344 -3.471688,-4.855871 -0.523503,-0.771307 -1.128573,-1.49698 -1.344601,-1.612595 -0.216027,-0.115608 -0.392777,-0.400184 -0.392777,-0.632378 0,-0.682012 0.63085,-0.388362 1.385271,0.644833 0.373965,0.512144 1.082532,1.397226 1.574602,1.966848 0.49207,0.569622 1.118819,1.361926 1.392779,1.760661 0.273953,0.398736 0.652717,0.838149 0.841688,0.976468 0.188971,0.138319 0.39771,0.511165 0.463871,0.828543 0.06615,0.317379 0.344693,0.814859 0.618982,1.105502 0.957969,1.015096 3.043939,4.396189 3.046773,4.938441 0.0016,0.29704 0.05903,0.749794 0.127727,1.006131 0.0924,0.344749 0.0364,0.466056 -0.215088,0.466056 -0.186999,0 -0.429996,-0.209726 -0.540006,-0.466056 z M 15.322631,65.220908 c 0,-0.243083 1.007179,-0.753958 1.168455,-0.592685 0.211896,0.211894 -0.351672,0.764817 -0.779545,0.764817 -0.213901,0 -0.38891,-0.07743 -0.38891,-0.172132 z m 1.449955,-0.742716 c 0,-0.180383 0.147585,-0.327971 0.327966,-0.327971 0.365788,0 0.302086,0.44592 -0.08199,0.573944 -0.135286,0.04509 -0.245974,-0.06561 -0.245974,-0.245973 z m 38.566213,-39.69683 c 0.04987,-0.14953 0.212967,-0.31265 0.362488,-0.362488 0.155355,-0.05183 0.233032,0.02591 0.181245,0.181244 -0.04987,0.149522 -0.212959,0.312642 -0.362489,0.362488 -0.155346,0.05175 -0.233023,-0.02591 -0.181244,-0.181244 z m 10.864718,-1.995008 c -0.233275,-0.233274 -0.142069,-0.477689 0.178245,-0.477689 0.170887,0 0.310709,0.08771 0.310709,0.194914 0,0.261191 -0.323462,0.44826 -0.488954,0.282775 z m 3.1913,-7.096092 c -0.474017,-0.299325 0.07508,-1.113409 1.424978,-2.11269 0.635063,-0.47011 1.489488,-1.191336 1.89873,-1.602723 1.003469,-1.008738 1.773132,-1.680095 1.926107,-1.680095 0.06936,0 0.12616,0.169798 0.12616,0.377339 0,0.207533 -0.483395,0.790104 -1.07421,1.294598 -0.590814,0.504495 -1.73265,1.591474 -2.537417,2.415492 -1.099842,1.126154 -1.538003,1.451009 -1.764348,1.308079 z m 0.520042,-2.547383 c 0.07879,-0.256329 0.154978,-0.472459 0.169313,-0.480272 1.005098,-0.548554 2.034034,-1.330931 2.228681,-1.694633 0.140339,-0.262225 0.913908,-1.1557469 1.719036,-1.9856054 0.805135,-0.8298506 1.856657,-1.9381398 2.336718,-2.4628558 0.662448,-0.7240682 0.978214,-0.9264734 1.30999,-0.8397149 0.628572,0.164373 0.378686,0.9340986 -0.582798,1.7951469 -2.067268,1.8513265 -2.036821,1.8201131 -1.537392,1.5763954 0.262303,-0.1280084 0.629324,-0.2033839 0.815602,-0.1675124 0.270719,0.05214 0.199743,0.2234647 -0.353642,0.853744 -0.490864,0.5590612 -0.738927,0.7131232 -0.85246,0.5294212 -0.09438,-0.1527 -0.01738,-0.3747245 0.187429,-0.5406711 0.30966,-0.2508576 0.29109,-0.2668831 -0.170276,-0.1469306 -0.284811,0.07406 -0.797471,0.403284 -1.139244,0.7316307 -1.886055,1.811979 -3.733028,3.297912 -4.099211,3.297912 -0.09625,0 -0.110543,-0.209725 -0.03171,-0.466055 z M 32.150506,10.504698 c -0.326374,-0.5226177 -0.322851,-0.6242196 0.02161,-0.6242196 0.353978,0 1.010813,0.7129046 0.826578,0.8971386 -0.252141,0.25215 -0.587746,0.144159 -0.848217,-0.272919 z M 31.306509,9.0453825 C 31.042335,8.7641727 30.64933,8.1484158 30.433178,7.6770291 30.217017,7.2056426 29.617849,6.3252103 29.101698,5.7205232 28.54778,5.0715957 28.239374,4.5449302 28.349055,4.435249 c 0.413915,-0.4139154 1.280138,0.4163345 2.277423,2.1828281 0.241189,0.4272243 0.62963,1.1141762 0.863201,1.526573 0.23358,0.4123888 0.395988,0.8988065 0.360915,1.0809117 -0.05175,0.2686759 -0.154329,0.2347068 -0.544085,-0.1801793 z" /></g></g></svg>
