<svg width="802" height="802" viewBox="0 0 802 802" fill="none" xmlns="http://www.w3.org/2000/svg">
<rect width="802" height="802" rx="110" fill="black"/>
<path d="M222 554C201.908 554 182.012 550.043 163.449 542.354C144.887 534.665 128.02 523.395 113.813 509.187C99.6053 494.98 88.3354 478.113 80.6464 459.551C72.9575 440.988 69 421.092 69 401C69 380.908 72.9575 361.012 80.6464 342.449C88.3354 323.887 99.6053 307.02 113.813 292.813C128.02 278.605 144.887 267.335 163.449 259.646C182.012 251.957 201.908 248 222 248" stroke="white" stroke-width="60"/>
<rect x="282" y="218" width="60" height="366" fill="white"/>
<rect x="402" y="299" width="60" height="285" fill="#DB0000"/>
<circle cx="432" cy="248" r="30" fill="#DB0000"/>
<rect x="522" y="218" width="60" height="366" fill="#DB0000"/>
<rect x="582" y="238.521" width="60" height="366" transform="rotate(-20 582 238.521)" fill="#DB0000"/>
<rect x="563" y="371" width="100" height="60" fill="#DB0000"/>
</svg>
