<?xml version="1.0" encoding="UTF-8" standalone="no"?>
<!-- Created with Inkscape (http://www.inkscape.org/) -->

<svg
   xmlns:dc="http://purl.org/dc/elements/1.1/"
   xmlns:cc="http://creativecommons.org/ns#"
   xmlns:rdf="http://www.w3.org/1999/02/22-rdf-syntax-ns#"
   xmlns:svg="http://www.w3.org/2000/svg"
   xmlns="http://www.w3.org/2000/svg"
   xmlns:sodipodi="http://sodipodi.sourceforge.net/DTD/sodipodi-0.dtd"
   xmlns:inkscape="http://www.inkscape.org/namespaces/inkscape"
   width="1024"
   height="1024"
   id="svg2"
   version="1.1"
   inkscape:version="0.48.0 r9654"
   sodipodi:docname="WoP_vektor.svg">
  <defs
     id="defs4" />
  <sodipodi:namedview
     id="base"
     pagecolor="#ffffff"
     bordercolor="#666666"
     borderopacity="1.0"
     inkscape:pageopacity="0.0"
     inkscape:pageshadow="2"
     inkscape:zoom="0.35355339"
     inkscape:cx="405.02936"
     inkscape:cy="253.12571"
     inkscape:document-units="px"
     inkscape:current-layer="layer1"
     showgrid="false"
     inkscape:window-width="1440"
     inkscape:window-height="829"
     inkscape:window-x="0"
     inkscape:window-y="24"
     inkscape:window-maximized="1" />
  <metadata
     id="metadata7">
    <rdf:RDF>
      <cc:Work
         rdf:about="">
        <dc:format>image/svg+xml</dc:format>
        <dc:type
           rdf:resource="http://purl.org/dc/dcmitype/StillImage" />
        <dc:title />
      </cc:Work>
    </rdf:RDF>
  </metadata>
  <g
     inkscape:label="Ebene 1"
     inkscape:groupmode="layer"
     id="layer1"
     transform="translate(0,-28.362183)">
    <g
       id="g3167"
       transform="matrix(1.0220852,0,0,1.0220852,13.966132,66.824174)">
      <path
         style="fill:#fee13c"
         d="m 802.97051,823.19456 c -5.08407,-0.74031 -10.70907,-2.101 -12.5,-3.02375 -1.79092,-0.92278 -37.90623,-20.66951 -80.25623,-43.88165 -42.35,-23.21214 -78.42598,-42.93782 -80.16884,-43.83487 -3.04591,-1.56769 -5.19869,-1.31674 -55.5,6.46979 l -52.33116,8.10074 -70.78421,-4.19017 c -38.93132,-2.3046 -74.58636,-4.3509 -79.23344,-4.54733 -8.08426,-0.34172 -11.61401,-1.46623 -81.71579,-26.03326 C 250.18423,698.1322 216.18522,685.92961 214.92748,685.13719 212.85875,683.8338 84.959539,580.18077 81.938422,577.35919 81.236699,576.70381 69.842706,546.2703 56.618438,509.72917 43.39417,473.18804 31.950132,442.02285 31.187242,440.4732 c -1.243508,-2.52594 -0.361278,-10.71887 8.523929,-79.1585 9.263264,-71.35167 10.061058,-76.49451 12.207055,-78.69069 1.26283,-1.29237 26.761883,-31.43915 56.664564,-66.99285 l 54.36851,-64.6431 57.63149,-28.10982 57.63149,-28.109837 77.5,-17.512758 77.5,-17.512758 71.168,1.562688 71.16799,1.562688 69.87935,21.83354 69.87934,21.833537 55.45266,35.55618 c 30.49896,19.55588 56.41713,36.60086 57.59593,37.8777 1.73531,1.87964 83.64254,99.47679 88.14006,105.02393 0.70583,0.87057 7.13921,27.037 14.2964,58.14765 l 13.01307,56.56484 -10.12472,58.29255 c -9.28787,53.4744 -10.34444,58.58185 -12.7829,61.79256 -22.85231,30.08945 -77.03141,97.92804 -79.25366,99.23487 -2.16053,1.27055 -71.89738,57.01726 -77.17267,61.69083 -0.40764,0.36113 10.95486,32.80551 25.25,72.09861 14.29513,39.29309 25.99115,71.56209 25.99115,71.70885 0,0.41348 -2.73178,0.12851 -12.74377,-1.32935 z"
         id="path3189"
         inkscape:connector-curvature="0" />
      <path
         style="fill:#fdd700"
         d="m 802.97051,823.19456 c -5.08407,-0.74031 -10.70907,-2.101 -12.5,-3.02375 -1.79092,-0.92278 -37.90623,-20.66951 -80.25623,-43.88165 -42.35,-23.21214 -78.42598,-42.93782 -80.16884,-43.83487 -3.04591,-1.56769 -5.19869,-1.31674 -55.5,6.46979 l -52.33116,8.10074 -70.78421,-4.19017 c -38.93132,-2.3046 -74.58636,-4.3509 -79.23344,-4.54733 -8.08426,-0.34172 -11.61401,-1.46623 -81.71579,-26.03326 C 250.18423,698.1322 216.18522,685.92961 214.92748,685.13719 212.85875,683.8338 84.959539,580.18077 81.938422,577.35919 81.236699,576.70381 69.842706,546.2703 56.618438,509.72917 43.39417,473.18804 31.950132,442.02285 31.187242,440.4732 c -1.243508,-2.52594 -0.361278,-10.71887 8.523929,-79.1585 9.263264,-71.35167 10.061058,-76.49451 12.207055,-78.69069 1.26283,-1.29237 26.761883,-31.43915 56.664564,-66.99285 l 54.36851,-64.6431 57.63149,-28.10982 57.63149,-28.109837 77.5,-17.512758 77.5,-17.512758 71.168,1.562688 71.16799,1.562688 69.87935,21.83354 69.87934,21.833537 55.45266,35.55618 c 30.49896,19.55588 56.41713,36.60086 57.59593,37.8777 1.73531,1.87964 83.64254,99.47679 88.14006,105.02393 0.70583,0.87057 7.13921,27.037 14.2964,58.14765 l 13.01307,56.56484 -10.12472,58.29255 c -9.28787,53.4744 -10.34444,58.58185 -12.7829,61.79256 -22.85231,30.08945 -77.03141,97.92804 -79.25366,99.23487 -2.16053,1.27055 -71.89738,57.01726 -77.17267,61.69083 -0.40764,0.36113 10.95486,32.80551 25.25,72.09861 14.29513,39.29309 25.99115,71.56209 25.99115,71.70885 0,0.41348 -2.73178,0.12851 -12.74377,-1.32935 z M 223.04853,658.54075 c -16.40815,-18.32745 -41.66277,-48.67584 -70.6273,-84.87262 l -35.66867,-44.57486 -16.08154,-42.60786 -16.081543,-42.60787 7.55173,-51.51555 7.55173,-51.51554 28.495133,-45.2968 28.49514,-45.29679 50.76553,-37.91409 50.76554,-37.91409 73.05578,-35.69933 73.05577,-35.69933 67.44423,-2.61963 67.44422,-2.619632 45.40932,4.044632 c 24.97513,2.22455 46.10297,3.91106 46.95075,3.74779 0.84778,-0.16327 -12.38641,-4.44705 -29.40932,-9.519522 l -30.95075,-9.222667 -63.95033,-1.087917 c -35.17268,-0.598355 -64.25335,-1.275196 -64.62372,-1.504092 -0.37036,-0.228895 -18.61771,2.725127 -40.54966,6.564495 -34.18049,5.983574 -45.27892,8.400986 -77.70014,16.924313 l -37.82385,9.94365 -55.20367,28.53199 -55.20367,28.53201 -48.47248,56.7228 c -26.65986,31.19754 -49.277724,57.73967 -50.261912,58.98251 -1.242715,1.56932 -5.901403,22.20026 -15.248087,67.52595 l -13.458653,65.26623 24.617089,65.52591 c 19.483232,51.86058 25.137504,65.92565 27.112503,67.44266 1.37248,1.05422 26.85642,23.09802 56.631,48.98622 45.68636,39.7231 64.96251,55.59703 67.513,55.59703 0.25916,0 -0.43526,-1.0125 -1.54317,-2.25 z M 636.38095,106.12408 c -0.36667,-0.36667 -0.96667,-0.36667 -1.33334,0 -0.36666,0.36667 -0.0667,0.66667 0.66667,0.66667 0.73333,0 1.03333,-0.3 0.66667,-0.66667 z"
         id="path3187"
         inkscape:connector-curvature="0" />
      <path
         style="fill:#fdca00"
         d="m 802.97051,823.19456 c -5.08407,-0.74031 -10.70907,-2.101 -12.5,-3.02375 -1.79092,-0.92278 -37.90623,-20.66951 -80.25623,-43.88165 -42.35,-23.21214 -78.42598,-42.93782 -80.16884,-43.83487 -3.04591,-1.56769 -5.19869,-1.31674 -55.5,6.46979 l -52.33116,8.10074 -70.78421,-4.19017 c -38.93132,-2.3046 -74.58636,-4.3509 -79.23344,-4.54733 -8.08426,-0.34172 -11.61401,-1.46623 -81.71579,-26.03326 C 250.18423,698.1322 216.18522,685.92961 214.92748,685.13719 212.85875,683.8338 84.959539,580.18077 81.938422,577.35919 81.236699,576.70381 69.842706,546.2703 56.618438,509.72917 43.39417,473.18804 31.950132,442.02285 31.187242,440.4732 c -1.243508,-2.52594 -0.361278,-10.71887 8.523929,-79.1585 9.263264,-71.35167 10.061058,-76.49451 12.207055,-78.69069 1.26283,-1.29237 26.761883,-31.43915 56.664564,-66.99285 l 54.36851,-64.6431 57.63149,-28.10982 57.63149,-28.109837 77.5,-17.512758 77.5,-17.512758 71.168,1.562688 71.16799,1.562688 69.87935,21.83354 69.87934,21.833537 55.45266,35.55618 c 30.49896,19.55588 56.41713,36.60086 57.59593,37.8777 1.73531,1.87964 83.64254,99.47679 88.14006,105.02393 0.70583,0.87057 7.13921,27.037 14.2964,58.14765 l 13.01307,56.56484 -10.12472,58.29255 c -9.28787,53.4744 -10.34444,58.58185 -12.7829,61.79256 -22.85231,30.08945 -77.03141,97.92804 -79.25366,99.23487 -2.16053,1.27055 -71.89738,57.01726 -77.17267,61.69083 -0.40764,0.36113 10.95486,32.80551 25.25,72.09861 14.29513,39.29309 25.99115,71.56209 25.99115,71.70885 0,0.41348 -2.73178,0.12851 -12.74377,-1.32935 z M 235.43049,657.50217 c 4.51892,-1.76629 8.21671,-3.66143 8.21731,-4.21142 6e-4,-0.55 -10.93136,-17.875 -24.29324,-38.5 -13.36189,-20.625 -27.39268,-42.702 -31.17954,-49.05999 l -6.88521,-11.55998 -9.27304,-5.28327 c -8.26719,-4.71017 -9.16119,-5.49227 -8.24181,-7.21015 0.86833,-1.62248 0.53824,-2.20015 -2.08959,-3.65674 -6.26557,-3.47299 -6.20356,-3.23246 -2.41735,-9.37569 l 3.47964,-5.64583 -5.14229,-8.60417 c -2.82827,-4.73231 -5.60671,-8.60418 -6.17434,-8.60418 -0.56762,0 -4.57599,2.25 -8.9075,5 -4.3315,2.75 -8.25947,5 -8.72881,5 -0.46934,0 -1.17326,-2.13751 -1.56427,-4.75 -0.92426,-6.17548 -1.23333,-6.56152 -3.80888,-4.75753 l -2.16142,1.51392 -4.2467,-22.7532 c -2.33568,-12.51425 -5.45586,-29.40487 -6.93373,-37.53471 l -2.68705,-14.78152 3.08427,-17.71848 c 1.69634,-9.74516 5.63185,-32.25361 8.74557,-50.01876 l 5.66131,-32.30025 24.7618,-44.05725 24.76181,-44.05723 38.15342,-19.45408 c 37.35892,-19.04896 38.15343,-19.39767 38.15343,-16.74549 0,1.61984 -1.4788,4.55883 -3.6789,7.31158 -2.0234,2.53165 -4.15011,5.22165 -4.72602,5.97779 -0.57592,0.75614 2.65459,-0.48638 7.1789,-2.76116 l 8.22602,-4.13596 0,2.6852 c 0,1.80359 -1.97409,5.09041 -6.01278,10.01115 -3.30703,4.02928 -5.76578,7.32598 -5.46388,7.32598 0.30189,0 5.50667,-4.10341 11.56617,-9.11867 10.60532,-8.7777 10.99168,-9.23521 10.33266,-12.23571 -0.69461,-3.16253 -2.89979,-5.55601 -5.17217,-5.61383 -0.6875,-0.0175 -1.2696,-0.3693 -1.29355,-0.7818 -0.024,-0.4125 -0.41353,-2.6625 -0.86573,-5 -0.46091,-2.38258 -0.43855,-4.25 0.0509,-4.25 0.48019,0 6.94146,1.35 14.35837,3 7.41691,1.65 14.31032,3 15.31867,3 1.00836,0 23.62417,-8.96255 50.25736,-19.91678 l 48.42398,-19.91676 75.62902,-15.11109 75.62903,-15.11106 78.87097,-1.47811 c 43.37904,-0.81296 79.99598,-1.58793 81.37098,-1.72215 6.54686,-0.63908 -9.52481,-6.24829 -69.71275,-24.33058 l -64.21276,-19.291473 -64.23601,-1.12482 c -35.3298,-0.618651 -64.53973,-1.312535 -64.91096,-1.541965 -0.37122,-0.229429 -18.61928,2.724157 -40.55123,6.563525 -34.18049,5.983574 -45.27892,8.400986 -77.70014,16.924313 l -37.82385,9.94365 -55.20367,28.53199 -55.20367,28.53201 -48.47248,56.7228 c -26.65986,31.19754 -49.277724,57.73967 -50.261912,58.98251 -1.242715,1.56932 -5.901403,22.20026 -15.248087,67.52595 l -13.458653,65.26623 24.617089,65.52591 c 19.483232,51.86058 25.137504,65.92565 27.112503,67.44266 1.37248,1.05422 26.85642,23.09802 56.631,48.98622 51.07324,44.40685 64.9522,55.64914 68.58869,55.55846 0.85079,-0.0212 5.24419,-1.48372 9.7631,-3.25 z"
         id="path3185"
         inkscape:connector-curvature="0" />
      <path
         style="fill:#fd8a3b"
         d="m 802.97051,823.19456 c -5.08407,-0.74031 -10.70907,-2.101 -12.5,-3.02375 -1.79092,-0.92278 -37.90623,-20.66951 -80.25623,-43.88165 -42.35,-23.21214 -78.42598,-42.93782 -80.16884,-43.83487 -3.04591,-1.56769 -5.19869,-1.31674 -55.5,6.46979 l -52.33116,8.10074 -70.78421,-4.19017 c -38.93132,-2.3046 -74.58636,-4.3509 -79.23344,-4.54733 -8.08426,-0.34172 -11.61401,-1.46623 -81.71579,-26.03326 C 250.18423,698.1322 216.18522,685.92961 214.92748,685.13719 212.85875,683.8338 84.959539,580.18077 81.938422,577.35919 81.236699,576.70381 69.842706,546.2703 56.618438,509.72917 43.39417,473.18804 31.950132,442.02285 31.187242,440.4732 c -1.243508,-2.52594 -0.361278,-10.71887 8.523929,-79.1585 9.263264,-71.35167 10.061058,-76.49451 12.207055,-78.69069 1.26283,-1.29237 26.761883,-31.43915 56.664564,-66.99285 l 54.36851,-64.6431 57.63149,-28.10982 57.63149,-28.109837 77.5,-17.512758 77.5,-17.512758 71.168,1.562688 71.16799,1.562688 69.87935,21.83354 69.87934,21.833537 55.45266,35.55618 c 30.49896,19.55588 56.41713,36.60086 57.59593,37.8777 1.73531,1.87964 83.64254,99.47679 88.14006,105.02393 0.70583,0.87057 7.13921,27.037 14.2964,58.14765 l 13.01307,56.56484 -10.12472,58.29255 c -9.28787,53.4744 -10.34444,58.58185 -12.7829,61.79256 -22.85231,30.08945 -77.03141,97.92804 -79.25366,99.23487 -2.16053,1.27055 -71.89738,57.01726 -77.17267,61.69083 -0.40764,0.36113 10.95486,32.80551 25.25,72.09861 14.29513,39.29309 25.99115,71.56209 25.99115,71.70885 0,0.41348 -2.73178,0.12851 -12.74377,-1.32935 z m -486.32252,-148.60629 54.56629,-53.82603 38.4684,6.96252 c 21.15763,3.82938 38.53822,6.8733 38.62356,6.76425 0.28325,-0.36196 -45.08263,-73.68637 -45.59196,-73.6898 -0.275,-0.002 -5.41284,10.36262 -11.41743,23.03218 -7.40546,15.62538 -11.1977,22.62121 -11.78868,21.74747 -0.47919,-0.70846 -1.7711,-2.9915 -2.87091,-5.07343 -1.09982,-2.08194 -2.36065,-3.56222 -2.80185,-3.28954 -0.44121,0.27268 -4.62559,-6.12393 -9.29864,-14.21468 -4.67305,-8.09075 -15.57252,-26.94285 -24.22105,-41.89353 l -15.7246,-27.18306 -13.52219,-4.52019 -13.52218,-4.52019 -14.66462,11.0214 c -8.06554,6.06176 -14.94384,11.55323 -15.28511,12.20325 -0.34127,0.65002 -5.96103,23.74203 -12.48836,51.31558 l -11.86788,50.13372 -2.3935,-3.63372 c -1.31643,-1.99855 -3.016,-4.13781 -3.77684,-4.7539 -0.76083,-0.6161 -9.61838,-13.62196 -19.68344,-28.90192 L 199.08689,564.4869 180.97903,553.92651 c -15.85048,-9.2439 -17.98725,-10.78576 -17.14035,-12.36821 0.78825,-1.47285 0.38927,-2.12834 -2.15331,-3.53768 -1.71646,-0.95144 -3.76248,-2.17988 -4.54672,-2.72987 -1.15354,-0.80901 1.80696,-6.01365 15.50035,-27.25 9.30942,-14.4375 16.74248,-26.25 16.51791,-26.25 -0.22458,0 -12.33246,7.43583 -26.90641,16.52406 -14.57396,9.08824 -27.12646,16.7652 -27.89445,17.05991 -1.0477,0.40203 -1.56981,-0.85244 -2.09102,-5.02407 -0.38206,-3.05794 -0.89339,-5.5599 -1.13628,-5.5599 -0.24288,0 -1.31504,0.54547 -2.38256,1.21215 -1.06752,0.66667 -2.12915,1.00416 -2.35917,0.75 -0.23003,-0.25419 -3.45911,-17.04733 -7.17575,-37.31811 -6.2782,-34.2417 -6.68286,-37.29177 -5.70479,-43 9.48821,-55.3755 16.58915,-93.48187 17.88917,-96.00011 1.33992,-2.59553 20.34502,-36.5534 43.37284,-77.49759 l 4.69826,-8.35364 38.12377,-19.39882 c 36.80928,-18.72997 38.12376,-19.3088 38.12376,-16.78815 0,1.6329 -1.89754,4.99534 -5.06645,8.97776 l -5.06644,6.36709 8.56644,-4.55709 8.56645,-4.55708 0,2.61295 c 0,1.88895 -4.50268,8.15901 -16.25,22.6284 -8.9375,11.00849 -17.23824,21.45696 -18.44609,23.21883 -2.51454,3.66791 -22.30195,58.66388 -22.30772,62.00076 -0.002,1.21145 1.63786,12.77764 3.64435,25.70264 2.50456,16.13346 4.1178,23.88071 5.14638,24.7145 0.82403,0.66797 4.1096,3.7228 7.30126,6.78851 l 5.80302,5.57401 8.3044,-4.15475 c 4.56742,-2.28512 8.37918,-4.21495 8.47058,-4.28851 0.0914,-0.0736 0.70193,-9.11454 1.35675,-20.09104 l 1.19058,-19.95728 24.14324,-27.22857 c 13.27879,-14.97572 24.4574,-27.14494 24.84137,-27.04272 1.09748,0.29217 38.80188,40.44137 38.80188,41.31784 0,0.43102 1.55557,2.37766 3.45683,4.32585 3.04617,3.12137 3.82268,5.0865 6.53657,16.54217 4.86936,20.55416 4.52889,19.71444 9.19687,22.68258 2.3204,1.47541 4.52196,2.49527 4.89236,2.26635 0.3704,-0.22892 2.91547,-4.36108 5.65569,-9.18257 l 4.98224,-8.76636 0.73331,-20.67478 0.73332,-20.67477 -16.26721,-27.13059 -16.2672,-27.13059 -25.57418,-17.19464 c -14.0658,-9.45705 -28.64252,-19.20012 -32.39271,-21.65126 -5.16822,-3.37797 -6.95793,-5.15359 -7.39446,-7.33625 -0.36645,-1.83224 -1.52444,-3.28564 -3.18368,-3.99586 -1.43426,-0.61393 -2.71973,-1.1746 -2.8566,-1.24594 -0.71799,-0.37422 -1.87266,-9.46532 -1.20221,-9.46532 0.97652,0 83.91855,18.6848 89.44543,20.14986 6.10355,1.61792 72.32936,47.29962 73.11619,50.43461 0.33769,1.34546 1.88669,3.45187 3.44222,4.68092 2.41647,1.90927 4.14723,6.27959 11.88773,30.01755 4.98272,15.28061 9.05949,27.90603 9.05949,28.05649 0,0.19254 45.35433,-5.93781 46.62868,-6.3026 0.0708,-0.0203 0.67859,-1.36442 1.35069,-2.98703 0.95582,-2.30755 5.97679,-5.90186 23.0492,-16.5 12.00495,-7.45239 22.27752,-13.5498 22.82792,-13.5498 0.5504,0 12.17036,2.96071 25.82212,6.57936 20.9834,5.56203 25.28526,7.01932 27.82139,9.4247 5.16456,4.8983 4.60102,5.23313 49.17817,-29.21916 0.74171,-0.57325 2.31359,-0.32341 4.24321,0.67443 1.68577,0.87175 4.22919,2.02761 5.65204,2.56858 l 2.587,0.98357 -0.70814,-6.75575 c -0.41919,-3.99918 -3.86348,-16.54851 -8.44122,-30.75574 -4.25319,-13.2 -8.05095,-25.0125 -8.43946,-26.25 -0.70297,-2.23915 -0.65367,-2.25 10.2195,-2.25 l 10.92587,0 30.452,12.34161 30.45199,12.34161 30.73082,1.78376 c 16.90195,0.98107 30.91928,1.5953 31.14962,1.36495 0.23035,-0.23035 -8.32808,-16.82426 -19.01873,-36.87537 -18.05068,-33.85538 -19.52331,-37.00952 -20.6394,-44.20656 -0.66102,-4.2625 -1.54815,-7.75 -1.9714,-7.75 -1.48175,0 -37.15708,-22.96189 -38.41032,-24.72223 -0.69611,-0.97777 -3.22223,-2.80313 -5.6136,-4.05635 -2.39137,-1.25322 -32.7938,-10.78828 -67.56095,-21.18901 L 571.78827,86.912728 507.55251,85.787912 c -35.32966,-0.618648 -64.53948,-1.31253 -64.91071,-1.54196 -0.37122,-0.229429 -18.61928,2.724157 -40.55123,6.563525 -34.18049,5.983574 -45.27892,8.400986 -77.70014,16.924313 l -37.82385,9.94365 -55.20367,28.53199 -55.20367,28.53201 -48.47248,56.7228 c -26.65986,31.19754 -49.277724,57.73967 -50.261912,58.98251 -1.242715,1.56932 -5.901403,22.20026 -15.248087,67.52595 l -13.458653,65.26623 24.617089,65.52591 c 19.483232,51.86058 25.137504,65.92565 27.112503,67.44266 1.37248,1.05422 26.85642,23.09802 56.631,48.98622 48.80857,42.43777 64.92647,55.59703 68.09712,55.59703 39.43832,14.15151 38.73975,18.93623 91.47217,13.79752 z"
         id="path3183"
         inkscape:connector-curvature="0"
         sodipodi:nodetypes="scssscsssssssssscccccccccsssscssscsssccsccsssssscccssscscscssscssscssscsssscssscccssscssscscscsssssssscccccsssscsssssscsssssssscsssscccscsssssscsssscccssscssscc" />
      <path
         style="fill:#fdbb00"
         d="m 808.21428,823.75124 c -10.69705,-2.11046 -8.49613,-1.03536 -49.76958,-24.31146 -10.87327,-6.13197 -35.88556,-21.09768 -55.58286,-33.25713 -31.82506,-19.64611 -37.42002,-22.73639 -50.2413,-27.75 -7.93541,-3.10305 -15.42035,-5.6419 -16.63321,-5.6419 -1.21286,0 -3.78825,-0.75491 -5.72308,-1.67756 -2.77973,-1.32556 -3.99338,-1.4407 -5.78393,-0.54873 -1.24632,0.62085 -24.92107,4.58487 -52.61055,8.80893 l -50.3445,7.6801 -79.1555,-4.6929 -79.15549,-4.69289 -73,-25.54487 c -40.15,-14.04968 -74.04752,-26.20533 -75.32783,-27.01253 -2.57242,-1.62187 -60.77894,-48.70537 -63.17217,-51.10026 -0.825,-0.82556 -0.9375,-1.18609 -0.25,-0.80115 3.65226,2.04493 -0.80878,-1.81809 -21.15377,-18.31802 -20.72299,-16.80649 -23.03668,-19.01224 -30.840236,-29.40146 l -8.436471,-11.23186 -24.989497,-69.9834 -24.989497,-69.9834 8.596011,-72.08169 c 6.004257,-50.34859 9.043363,-72.72773 10.079736,-74.22442 0.816049,-1.17849 25.558725,-30.65983 54.983724,-65.51409 l 53.5,-63.37138 54.5,-27.20249 54.5,-27.2025 79.37906,-17.9345 79.37906,-17.934501 69.62094,2.519127 69.62094,2.519127 71.5,18.145688 71.5,18.145689 53.5,34.24677 c 29.425,18.83572 54.46499,35.29132 55.64443,36.56798 7.29633,7.89778 88.69407,105.68817 89.33089,107.32119 0.42895,1.09999 2.27101,8.61088 4.09347,16.69087 6.26453,24.22712 9.07183,34.07706 15.24109,60.87354 l 7.77521,33.89484 -10.12087,58.27037 c -9.2842,53.45329 -10.34061,58.55971 -12.77904,61.77038 -22.76882,29.97951 -77.02707,97.92562 -79.23596,99.225 -5.38513,3.16778 -77.45077,62.0063 -77.34517,63.14904 0.0572,0.61928 11.41972,32.22967 25.25,70.24532 13.83027,38.01565 25.14595,69.85315 25.14595,70.75 0,1.75505 -0.41107,1.79244 -6.5,0.59113 z m -26.5,-27.46049 c 0,-0.275 -0.225,-0.5 -0.5,-0.5 -0.275,0 -0.5,0.225 -0.5,0.5 0,0.27499 0.225,0.5 0.5,0.5 0.275,0 0.5,-0.22501 0.5,-0.5 z m 8.01365,-3.6834 c 0.91164,-0.57894 -6.58663,-15.10793 -24.58137,-55.37194 -13.50569,-30.21956 -25.39741,-56.8452 -26.42604,-59.16807 l -1.87025,-4.2234 3.83651,-4.64271 c 2.33114,-2.821 6.52255,-6.10357 10.68201,-8.36578 46.06923,-25.05583 46.24574,-25.16543 64.34549,-39.95638 15.50431,-12.66997 18.52636,-15.65072 26.5,-26.13782 4.95,-6.51035 21.67043,-28.19377 37.15652,-48.18538 l 28.15652,-36.34839 11.70341,-55.98511 11.70341,-55.98512 -13.13111,-50.47325 c -7.22211,-27.76029 -13.75445,-51.82326 -14.51632,-53.47325 -1.07179,-2.32121 -61.04509,-68.40279 -70.79003,-78 -1.74599,-1.71952 45.69077,56.0077 62.30797,75.82447 5.18269,6.18058 5.93247,7.69017 7.94693,16 5.4757,18.11466 9.06213,37.7863 13.02563,54.55665 l 9.06294,38.10012 -9.06294,44.3744 c -3.39915,18.3302 -7.12974,38.51714 -11.55563,55.79477 -0.74282,2.94851 -11.46003,17.46429 -40.81683,55.2838 l -39.80953,51.28544 -45.06482,30.89017 c -24.78566,16.9896 -45.53477,31.18864 -46.10915,31.55344 -0.92936,0.59025 7.27088,21.07964 12.14133,30.33674 0.86812,1.64999 2.08441,4.40444 2.70286,6.12099 3.57935,9.93464 38.1381,88.32863 38.98064,88.31591 0.55745,-0.008 2.79763,-1.68578 3.48185,-2.1203 z M 581.23617,719.76679 c 26.93796,-6.06317 51.37616,-10.81499 52.20116,-11.11381 1.26658,-0.45875 -0.49606,-1.14999 -1.97744,-1.98163 -1.27517,-0.71587 -15.51689,1.76925 -52.13777,9.09782 l -50.38337,10.08271 -78.36223,-4.03841 -78.36224,-4.03842 -56.79689,-22.16638 -56.79689,-22.16638 -6.56406,-9.41482 c -3.61024,-5.17814 -6.17664,-9.78909 -5.70311,-10.24654 0.47352,-0.45746 17.06095,-6.93365 36.86095,-14.39154 l 36,-13.55981 26,-2.53367 26,-2.53367 38.4684,6.96252 c 21.15763,3.82938 38.53822,6.8733 38.62356,6.76425 0.28325,-0.36196 -45.08263,-73.68636 -45.59196,-73.6898 -0.275,-0.002 -5.41284,10.36262 -11.41743,23.03218 -7.40546,15.62538 -11.1977,22.62121 -11.78868,21.74747 -0.47919,-0.70846 -1.7711,-2.9915 -2.87091,-5.07343 -1.09982,-2.08193 -2.36065,-3.56222 -2.80185,-3.28954 -0.44121,0.27268 -4.62559,-6.12393 -9.29864,-14.21468 -4.67305,-8.09075 -15.57252,-26.94284 -24.22105,-41.89352 l -15.7246,-27.18306 -13.52219,-4.52019 -13.52218,-4.52019 -14.66462,11.0214 c -8.06554,6.06175 -14.94384,11.55323 -15.28511,12.20325 -0.34127,0.65001 -5.96103,23.74203 -12.48836,51.31558 l -11.86788,50.13372 -2.3935,-3.63372 c -1.31643,-1.99856 -3.016,-4.13781 -3.77684,-4.75391 -0.76083,-0.61609 -9.61838,-13.62195 -19.68344,-28.90192 L 199.08689,564.4869 180.97903,553.92651 c -15.85048,-9.2439 -17.98725,-10.78576 -17.14035,-12.36821 0.78825,-1.47285 0.38927,-2.12834 -2.15331,-3.53768 -1.71646,-0.95144 -3.76248,-2.17988 -4.54672,-2.72987 -1.15354,-0.80901 1.80696,-6.01365 15.50035,-27.25 9.30942,-14.4375 16.74248,-26.25 16.51791,-26.25 -0.22458,0 -12.33246,7.43583 -26.90641,16.52406 -14.57396,9.08824 -27.12646,16.7652 -27.89445,17.05991 -1.0477,0.40203 -1.56981,-0.85244 -2.09102,-5.02407 -0.38206,-3.05794 -0.89339,-5.5599 -1.13628,-5.5599 -0.24288,0 -1.31504,0.54547 -2.38256,1.21215 -1.06752,0.66667 -2.12915,1.00416 -2.35917,0.75 -0.23003,-0.25419 -3.45911,-17.04733 -7.17575,-37.31811 -6.2782,-34.2417 -6.68286,-37.29177 -5.70479,-43 9.48821,-55.3755 16.58915,-93.48187 17.88917,-96.00011 1.33992,-2.59553 20.34502,-36.5534 43.37284,-77.49759 l 4.69826,-8.35364 38.12377,-19.39882 c 36.80928,-18.72997 38.12376,-19.3088 38.12376,-16.78815 0,1.6329 -1.89754,4.99534 -5.06645,8.97776 l -5.06644,6.36709 8.56644,-4.55709 8.56645,-4.55708 0,2.61295 c 0,1.88895 -4.50268,8.15901 -16.25,22.6284 -8.9375,11.00849 -17.23824,21.45696 -18.44609,23.21883 -2.51454,3.66791 -22.30195,58.66388 -22.30772,62.00076 -0.002,1.21145 1.63786,12.77764 3.64435,25.70264 2.50456,16.13346 4.1178,23.88071 5.14638,24.7145 0.82403,0.66797 4.1096,3.7228 7.30126,6.78851 l 5.80302,5.57401 8.3044,-4.15475 c 4.56742,-2.28512 8.37918,-4.21495 8.47058,-4.28851 0.0914,-0.0736 0.70193,-9.11454 1.35675,-20.09104 l 1.19058,-19.95728 24.14324,-27.22857 c 13.27879,-14.97572 24.4574,-27.14494 24.84137,-27.04272 1.09748,0.29217 38.80188,40.44137 38.80188,41.31784 0,0.43102 1.55557,2.37766 3.45683,4.32585 3.04617,3.12137 3.82268,5.0865 6.53657,16.54217 4.86936,20.55416 4.52889,19.71444 9.19687,22.68258 2.3204,1.47541 4.52196,2.49527 4.89236,2.26635 0.3704,-0.22892 2.91547,-4.36108 5.65569,-9.18257 l 4.98224,-8.76636 0.73331,-20.67478 0.73332,-20.67477 -16.26721,-27.13059 -16.2672,-27.13059 -25.57418,-17.19464 c -14.0658,-9.45705 -28.64252,-19.20012 -32.39271,-21.65126 -5.16822,-3.37797 -6.95793,-5.15359 -7.39446,-7.33625 -0.36645,-1.83224 -1.52444,-3.28564 -3.18368,-3.99586 -1.43426,-0.61393 -2.71973,-1.1746 -2.8566,-1.24594 -0.71799,-0.37422 -1.87266,-9.46532 -1.20221,-9.46532 0.97652,0 83.91855,18.6848 89.44543,20.14986 6.10355,1.61792 72.32936,47.29962 73.11619,50.43461 0.33769,1.34546 1.88669,3.45187 3.44222,4.68092 2.41647,1.90927 4.14723,6.27959 11.88773,30.01755 4.98272,15.28061 9.05949,27.90603 9.05949,28.05649 0,0.19254 45.35433,-5.93781 46.62868,-6.3026 0.0708,-0.0203 0.67859,-1.36442 1.35069,-2.98703 0.95582,-2.30755 5.97679,-5.90186 23.0492,-16.5 12.00495,-7.45239 22.27752,-13.5498 22.82792,-13.5498 0.5504,0 12.17036,2.96071 25.82212,6.57936 20.9834,5.56203 25.28526,7.01932 27.82139,9.4247 5.16456,4.8983 4.60102,5.23313 49.17817,-29.21916 0.74171,-0.57325 2.31359,-0.32341 4.24321,0.67443 1.68577,0.87175 4.22919,2.02761 5.65204,2.56858 l 2.587,0.98357 -0.70814,-6.75575 c -0.41919,-3.99918 -3.86348,-16.54851 -8.44122,-30.75574 -4.25319,-13.2 -8.05095,-25.0125 -8.43946,-26.25 -0.70297,-2.23915 -0.65367,-2.25 10.2195,-2.25 l 10.92587,0 30.452,12.34161 30.45199,12.34161 30.73082,1.78376 c 16.90195,0.98107 30.91928,1.5953 31.14962,1.36495 0.23035,-0.23035 -8.32808,-16.82426 -19.01873,-36.87537 -18.05068,-33.85538 -19.52331,-37.00952 -20.6394,-44.20656 -0.66102,-4.2625 -1.54815,-7.75 -1.9714,-7.75 -1.48175,0 -37.15708,-22.96189 -38.41032,-24.72223 -0.69611,-0.97777 -3.22223,-2.80313 -5.6136,-4.05635 -2.39137,-1.25322 -32.7938,-10.78828 -67.56095,-21.18901 L 571.78827,86.912728 507.55251,85.787912 c -35.32966,-0.618648 -64.53948,-1.31253 -64.91071,-1.54196 -0.37122,-0.229429 -18.61928,2.724157 -40.55123,6.563525 -34.18049,5.983574 -45.27892,8.400986 -77.70014,16.924313 l -37.82385,9.94365 -55.2336,28.54746 -55.2336,28.54747 -18.99788,22.25919 c -10.44884,12.24255 -32.42692,38.00919 -48.84017,57.25919 -16.413254,19.25 -30.458317,35.71868 -31.211252,36.59706 -0.752934,0.8784 -7.435645,31.01674 -14.85047,66.9741 l -13.4815,65.37702 24.617089,65.52591 c 19.264786,51.27911 25.150691,65.93613 27.071313,67.41266 33.19201,27.67731 70.05529,60.25965 96.9589,89.71802 6.82879,7.48263 13.52536,14.11024 14.88128,14.72805 1.77931,0.8107 129.47764,50.5227 158.10849,61.30405 2.04768,0.77109 142.55514,10.12977 159.66402,10.53862 3.14755,0.0752 20.5191,-5.79 51.21697,-12.69945 z"
         id="path3181"
         inkscape:connector-curvature="0"
         sodipodi:nodetypes="sssssssscccsssssscccssscccccccccssscccssscssssssssssscssssscccsssscccccscsssscssssscccccscscccsccsssssscccssscssscssscssscssscsssscssscccssscssscscscsssssssscccccsssscsssssscsssssssscsssscccscsssssscsssscccsssscsccssss" />
      <path
         style="fill:#fc6502"
         d="m 808.21428,823.75124 c -10.69705,-2.11046 -8.49613,-1.03536 -49.76958,-24.31146 -10.87327,-6.13197 -35.88556,-21.09768 -55.58286,-33.25713 -31.82506,-19.64611 -37.42002,-22.73639 -50.2413,-27.75 -7.93541,-3.10305 -15.42035,-5.6419 -16.63321,-5.6419 -1.21286,0 -3.78825,-0.75491 -5.72308,-1.67756 -2.77973,-1.32556 -3.99338,-1.4407 -5.78393,-0.54873 -1.24632,0.62085 -24.92107,4.58487 -52.61055,8.80893 l -50.3445,7.6801 -79.1555,-4.6929 -79.15549,-4.69289 -73,-25.54487 c -40.15,-14.04968 -74.04752,-26.20533 -75.32783,-27.01253 -2.57242,-1.62187 -60.77894,-48.70537 -63.17217,-51.10026 -0.825,-0.82556 -0.9375,-1.18609 -0.25,-0.80115 3.65226,2.04493 -0.80878,-1.81809 -21.15377,-18.31802 -20.72299,-16.80649 -23.03668,-19.01224 -30.840236,-29.40146 l -8.436471,-11.23186 -24.989497,-69.9834 -24.989497,-69.9834 8.596011,-72.08169 c 6.004257,-50.34859 9.043363,-72.72773 10.079736,-74.22442 0.816049,-1.17849 25.558725,-30.65983 54.983724,-65.51409 l 53.5,-63.37138 54.5,-27.20249 54.5,-27.2025 79.37906,-17.9345 79.37906,-17.934501 69.62094,2.519127 69.62094,2.519127 71.5,18.145688 71.5,18.145689 53.5,34.24677 c 29.425,18.83572 54.46499,35.29132 55.64443,36.56798 7.29633,7.89778 88.69407,105.68817 89.33089,107.32119 0.42895,1.09999 2.27101,8.61088 4.09347,16.69087 6.26453,24.22712 9.07183,34.07706 15.24109,60.87354 l 7.77521,33.89484 -10.12087,58.27037 c -9.2842,53.45329 -10.34061,58.55971 -12.77904,61.77038 -22.76882,29.97951 -77.02707,97.92562 -79.23596,99.225 -5.38513,3.16778 -77.45077,62.0063 -77.34517,63.14904 0.0572,0.61928 11.41972,32.22967 25.25,70.24532 13.83027,38.01565 25.14595,69.85315 25.14595,70.75 0,1.75505 -0.41107,1.79244 -6.5,0.59113 z m -21.9744,-27.87984 c -0.43987,-1.38591 -0.0216,-2.10584 1.50493,-2.59034 1.16276,-0.36905 1.89969,-1.19284 1.63761,-1.83065 -0.26208,-0.63782 -10.24273,-22.98467 -22.17923,-49.65966 -11.9365,-26.675 -23.64874,-52.87589 -26.02719,-58.22417 l -4.32446,-9.72416 3.83588,-4.64195 c 2.3305,-2.82023 6.52237,-6.10305 10.68137,-8.36502 46.06923,-25.05583 46.24574,-25.16543 64.34549,-39.95638 15.50431,-12.66997 18.52636,-15.65072 26.5,-26.13782 4.95,-6.51035 21.67043,-28.19377 37.15652,-48.18538 l 28.15652,-36.34839 11.70341,-55.98511 11.70341,-55.98512 -13.13111,-50.47325 c -7.22211,-27.76029 -13.75543,-51.82326 -14.5185,-53.47325 -0.76307,-1.65001 -18.86604,-21.93043 -40.22882,-45.06764 -21.36279,-23.13719 -40.41643,-43.91128 -42.34143,-46.16462 -2.50365,-2.9307 -20.14327,-14.5586 -61.96467,-40.84661 l -58.46468,-36.74959 -64.24808,-19.27477 -64.24808,-19.274783 -64.23601,-1.12482 c -35.3298,-0.618651 -64.53973,-1.312535 -64.91096,-1.541965 -0.37122,-0.229429 -18.61928,2.724157 -40.55123,6.563525 -34.18049,5.983574 -45.27892,8.400986 -77.70014,16.924313 l -37.82385,9.94365 -55.2336,28.54746 -55.2336,28.54747 -18.99788,22.25919 c -10.44884,12.24255 -32.42692,38.00919 -48.84017,57.25919 -16.413254,19.25 -30.458317,35.71868 -31.211252,36.59706 -0.752934,0.8784 -7.435645,31.01674 -14.85047,66.9741 l -13.4815,65.37702 24.617089,65.52591 c 19.264786,51.27911 25.150691,65.93613 27.071313,67.41266 33.19201,27.67731 70.05529,60.25965 96.9589,89.71802 6.82879,7.48263 13.52536,14.11024 14.88128,14.72805 1.35593,0.61779 37.00333,14.23177 79.21645,30.25327 42.21313,16.0215 77.51128,29.53257 78.44034,30.0246 0.92905,0.49203 37.73558,2.94192 81.79229,5.44421 l 80.10309,4.54961 50.97501,-11.51095 50.975,-11.51095 72.73271,43.10733 c 40.00298,23.70903 73.2952,43.80145 73.9827,44.64982 0.6875,0.84838 1.25,1.20913 1.25,0.80168 0,-0.40745 0.7875,-0.28214 1.75,0.27846 2.63498,1.53474 3.45078,1.28807 2.7756,-0.83925 z M 240.26492,624.70857 c -1.61365,-2.67734 -3.15621,-4.64558 -3.42793,-4.37387 -0.27171,0.27171 -8.89749,-12.26125 -19.16839,-27.85101 l -18.67436,-28.34505 -17.38998,-10.09687 c -14.38224,-8.35054 -17.34863,-10.45699 -17.15089,-12.1789 0.1732,-1.50832 -0.98436,-2.84352 -4.20082,-4.8455 l -4.43991,-2.76347 17.0219,-26.32716 c 9.36205,-14.47994 16.87742,-26.44908 16.70082,-26.5981 -0.17659,-0.14902 -12.68976,7.50493 -27.80704,17.00877 -15.11727,9.50384 -27.78761,17.09328 -28.15631,16.86541 -0.3687,-0.22787 -0.98392,-2.69414 -1.36716,-5.48061 -0.44187,-3.21277 -1.11639,-4.89381 -1.84368,-4.59482 -0.63079,0.25932 -1.8462,0.75396 -2.70091,1.09921 -1.32255,0.53422 -2.56465,-4.92519 -8.33935,-36.65407 l -6.78533,-37.28178 7.55449,-43 c 4.15497,-23.65 8.15866,-46.17206 8.89709,-50.04902 1.39268,-7.31196 0.0492,-4.77394 43.31364,-81.82497 l 7.2288,-12.87399 38.09234,-19.36111 c 36.70393,-18.65544 38.09234,-19.26649 38.09234,-16.7648 0,1.5179 -1.56865,4.52311 -3.77656,7.2351 -2.0771,2.55133 -4.42881,5.48244 -5.22602,6.51358 -1.00715,1.3027 1.05395,0.61611 6.75436,-2.25 4.5121,-2.26864 8.43881,-4.1248 8.72602,-4.1248 2.66666,0 -2.23062,7.25246 -17.68472,26.18961 l -18.20692,22.3104 -10.71721,30.06257 -10.71722,30.06258 3.91497,24.40992 c 2.15323,13.42546 4.03159,24.67724 4.17413,25.00394 0.14254,0.32671 3.48745,3.62383 7.43313,7.32689 l 7.17396,6.73289 8.32604,-4.16564 c 4.57932,-2.2911 8.39994,-4.22583 8.49026,-4.2994 0.0903,-0.0736 0.71405,-9.12277 1.38605,-20.10933 l 1.22181,-19.97558 24.04576,-27.02442 c 13.22517,-14.86343 24.22769,-27.24943 24.45004,-27.52442 0.22235,-0.27501 1.25251,0.54624 2.28923,1.825 1.03673,1.27876 9.66049,10.43189 19.16392,20.3403 9.50343,9.90841 17.64124,18.98714 18.08401,20.17498 0.44277,1.18784 2.07432,3.50971 3.62566,5.15972 2.31086,2.45782 3.52035,5.86851 6.69244,18.87223 l 3.87182,15.87223 4.1827,2.87777 c 2.30048,1.58276 4.55161,2.86793 5.00252,2.85593 0.4509,-0.012 3.1316,-4.17451 5.9571,-9.25 l 5.13728,-9.22816 0.72113,-20.70527 0.72113,-20.70526 -16.14878,-27.06771 c -12.458,-20.88143 -17.01903,-27.69096 -19.95654,-29.79473 -2.09428,-1.49988 -16.65387,-11.27704 -32.35465,-21.72703 -23.76887,-15.81991 -28.64432,-19.46213 -29.12907,-21.76106 -0.36889,-1.74941 -1.59814,-3.19759 -3.35499,-3.95249 -1.52503,-0.65528 -2.88477,-1.24978 -3.02164,-1.32113 -0.70741,-0.36871 -1.87784,-9.46532 -1.21787,-9.46532 0.42628,0 13.75569,2.95445 29.62089,6.56545 15.86521,3.611 36.63615,8.32364 46.15765,10.47253 l 17.31181,3.90706 34.39445,23.69009 c 28.75842,19.80813 34.49617,24.15323 35.01521,26.51646 0.3572,1.62631 1.83476,3.54347 3.48,4.51533 1.57257,0.92894 3.14129,2.8464 3.48605,4.26103 0.34476,1.41463 7.61476,23.88614 16.15555,49.93669 l 15.52871,47.36464 -1.20568,34.49117 -1.20568,34.49117 -12.82283,38.44005 -12.82284,38.44005 -17.83076,18.70413 -17.83076,18.70415 -5.98106,12.5 c -3.28958,6.875 -8.48508,17.6439 -11.54555,23.93088 l -5.56449,11.43088 -3.1355,-5.43088 c -1.72453,-2.98699 -3.47483,-5.20588 -3.88957,-4.93088 -0.41474,0.27499 -3.73466,-4.675 -7.3776,-11 -26.90416,-46.71191 -40.33078,-69.65867 -41.31917,-70.6165 -0.63366,-0.61409 -6.99396,-2.95358 -14.13401,-5.19889 l -12.9819,-4.08239 -15.03622,11.28638 -15.03622,11.28641 -10.93279,45.91249 c -6.01303,25.25188 -11.40835,48.22679 -11.9896,51.05536 l -1.05683,5.14286 z m 412.64551,-5.93563 c 1.14954,-2.76611 1.86039,-5.25899 1.57966,-5.53972 -0.28073,-0.28073 -2.65485,-0.0298 -5.27581,0.55753 -2.62096,0.58737 -4.88,0.94016 -5.02008,0.78397 -0.14008,-0.15618 4.83685,-13.40852 11.05984,-29.44964 l 11.31454,-29.16566 2.0814,-35.33434 c 1.14477,-19.43388 2.28663,-37.80933 2.53748,-40.83433 0.25085,-3.025 0.72566,-10.22501 1.05513,-16 0.32947,-5.775 0.93198,-15.92368 1.33892,-22.55262 0.40694,-6.62894 0.42999,-15.62894 0.0512,-20 -0.37873,-4.37106 -0.9859,-11.54739 -1.34925,-15.94738 -0.36334,-4.4 -0.86484,-9.80001 -1.11445,-12 -0.2496,-2.2 -2.73025,-31 -5.51253,-64 l -5.05871,-60 -8.31667,-25.70842 c -4.57416,-14.13963 -8.07295,-25.95213 -7.77507,-26.25 0.29787,-0.29788 5.03203,-0.54158 10.52036,-0.54158 l 9.97878,0 30.60456,12.3779 30.60455,12.37791 11.5,0.66026 c 6.325,0.36315 14.875,0.89053 19,1.17197 4.125,0.28143 13.1507,0.85189 20.0571,1.26769 l 12.55711,0.75599 23.6378,14.40654 c 17.96872,10.95141 23.78126,14.97813 24.23597,16.78985 0.32899,1.31082 1.87627,3.57774 3.43838,5.03759 2.09409,1.957 5.59555,9.62973 13.3286,29.20692 l 10.48839,26.55263 1.62173,36.1454 1.62173,36.1454 -9.34335,18.80198 c -5.13884,10.34107 -10.56866,21.50196 -12.06626,24.80197 l -2.7229,6 -26.79232,18.5 c -16.70167,11.53244 -27.87987,18.61106 -29.67993,18.79491 -1.58817,0.16222 -11.43223,-0.81691 -21.87567,-2.17581 -10.44344,-1.35891 -19.14622,-2.31259 -19.33952,-2.11931 -0.19329,0.19331 0.17478,12.87242 0.81795,28.17582 l 1.16939,27.82439 5.34635,16.5 c 11.65868,35.98126 18.62187,58.20903 18.31831,58.47546 -0.17537,0.15392 -17.3225,-2.07165 -38.10472,-4.9457 l -37.78587,-5.22559 -20.21413,4.84456 c -11.11778,2.66449 -21.20278,5.07363 -22.41111,5.35365 l -2.19696,0.5091 z M 780.43627,424.7702 798.34151,413.74964 801.1336,396.1759 c 1.53565,-9.66556 2.40702,-17.91982 1.93638,-18.34279 -0.47063,-0.42298 -5.96416,-5.36722 -12.20784,-10.98722 L 779.51,356.62772 l -5.64786,0.53356 c -3.10632,0.29346 -10.65338,0.84058 -16.77124,1.21583 l -11.12338,0.68227 -0.67649,8.33744 c -0.37208,4.5856 -0.88149,10.26266 -1.13203,12.61569 -2.84781,26.74625 -3.43491,52.71874 -1.19472,52.85336 0.6875,0.0413 4.85,0.66248 9.25,1.38037 4.4,0.71789 8.52127,1.35909 9.15837,1.42488 0.6371,0.0658 9.21573,-4.83962 19.06362,-10.90092 z m -210.47541,193.65029 -22.25341,-3.12974 -20.99659,-20.99108 c -11.54812,-11.54508 -20.99658,-21.42612 -20.99658,-21.95783 0,-0.53172 -1.56293,-2.56735 -3.47318,-4.52363 -3.00785,-3.08032 -5.54833,-9.26643 -18.9618,-46.17223 l -15.48862,-42.61536 3.0528,-51.80867 3.0528,-51.80868 14.159,-28.29625 14.159,-28.29624 21.84308,-13.51502 c 12.0137,-7.43325 22.3637,-13.4923 23,-13.46452 0.63631,0.0278 12.217,3.06527 25.73487,6.75 l 24.57795,6.69951 19.67205,20.47593 c 10.81963,11.26177 19.67205,20.91534 19.67205,21.4524 0,0.53705 1.40494,2.42599 3.12209,4.19763 2.66558,2.75018 4.78253,8.38671 14.4776,38.54762 l 11.3555,35.32642 0.88131,33.5 0.88131,33.5 -7.80715,37.83701 -7.80714,37.83702 -10.87678,17.99073 -10.87678,17.99073 -18.84747,8.92225 c -10.3661,4.90724 -18.88234,8.86814 -18.92498,8.802 -0.0426,-0.0661 -10.09155,-1.52864 -22.33093,-3.25 z m 24.72537,-63.11569 c 12.34831,-6.18775 12.98776,-6.65901 13.90844,-10.25 0.53078,-2.07023 2.60143,-10.96406 4.60144,-19.76405 l 3.6364,-16 -3.44355,-16.30111 c -1.89394,-8.9656 -3.60805,-16.41591 -3.80911,-16.55624 -0.20106,-0.14033 -4.96892,-4.39233 -10.59524,-9.44889 -5.62632,-5.05658 -10.43044,-9.19376 -10.67583,-9.19376 -0.24538,0 -6.21631,3.35987 -13.26874,7.46638 l -12.82259,7.46639 -7.14995,23.60804 -7.14996,23.60805 5.91661,17.72094 5.9166,17.72094 9.23176,3.11664 c 5.07748,1.71415 10.0257,3.15623 10.99605,3.20462 0.97035,0.0484 7.58881,-2.83068 14.70767,-6.39795 z"
         id="path3179"
         inkscape:connector-curvature="0"
         sodipodi:nodetypes="sssssssscccsssssscccssscccccccccssscccssscsssssssscssssscccssssscccsssscccsssscscccssscccsssssscscssscscsssssscssscssssssscccscscscscscssssscssscccssssscssscssssscccccccsscscscscccsscsssccscsssscssscscscccssscsssscccsscssscscssscsccsscscscsscsscscsscsssscccccscscsssscccccccscsssscssssscccccscs" />
      <path
         style="fill:#b28900"
         d="m 811.71428,823.17327 c -0.825,-0.13715 -3.20227,-0.52747 -5.28281,-0.8674 -3.58726,-0.58611 -3.98521,-1.04191 -7.69771,-8.81659 -2.15319,-4.50919 -9.30015,-23.49853 -15.88212,-42.19853 -6.58198,-18.70001 -16.51364,-45.70001 -22.07037,-60 -10.00313,-25.74266 -10.09268,-26.04927 -9.04701,-30.97667 0.92087,-4.3393 2.23587,-6.19627 10.26807,-14.5 7.67649,-7.93598 12.79559,-11.91177 30.71195,-23.85267 20.28703,-13.52094 22.47962,-15.29808 38.86381,-31.5 9.5501,-9.44387 27.7272,-28.42066 40.39356,-42.17066 22.69993,-24.64198 29.70509,-33.82137 45.6434,-59.81012 1.94004,-3.16341 3.49638,-11.06503 9.169,-46.55161 5.75977,-36.03179 7.00148,-46.03806 7.90985,-63.74107 1.01154,-19.7137 0.9498,-21.66141 -1.00826,-31.80785 -1.14718,-5.94454 -1.93358,-10.96046 -1.74756,-11.14649 0.18603,-0.18602 2.66438,9.77258 5.50746,22.13022 l 5.16924,22.46844 -9.9436,57.22924 c -5.46899,31.47608 -10.11662,57.67923 -10.32809,58.22924 -1.21248,3.15352 -79.2461,101.29657 -81.67674,102.725 -3.85742,2.26691 -77.35148,61.66994 -77.79041,62.87564 -0.18609,0.51116 11.21221,32.68683 25.32956,71.50148 14.11734,38.81466 25.51959,70.67507 25.33834,70.80092 -0.18126,0.12585 -1.00456,0.11662 -1.82956,-0.0205 z m -106.86434,-66.6037 c -116.34487,-71.10614 -48.1914,-35.10987 1.54443,-5.64067 40.05095,23.73752 73.38241,43.85324 74.06991,44.7016 0.6875,0.84838 1.25,1.21566 1.25,0.81619 0,-0.39948 0.9,-0.24465 2,0.34406 2.42443,1.29751 2.45057,1.8569 0.22203,4.7519 l -1.73351,2.2519 z m -267.63566,-15.46152 -73,-4.43345 -73,-25.54832 c -40.15,-14.05158 -74.0472,-26.20856 -75.32711,-27.01551 -2.58939,-1.63253 -55.80431,-44.69044 -58.17289,-47.06957 -0.825,-0.82867 1.425,0.0831 5,2.02616 58.17775,31.62038 101.22937,53.78395 132.36033,68.14095 l 22.86033,10.54275 31.13967,5.99658 31.13967,5.99659 31.5,1.01884 c 40.53464,1.31105 105.21048,1.30801 139,-0.007 22.53932,-0.87687 48.02762,-3.28862 69.12666,-6.54088 3.44087,-0.53038 3.64989,-0.40069 4.08026,2.53159 0.36847,2.51052 0.0632,3.18001 -1.62666,3.56694 -9.27692,2.12421 -101.30315,15.44914 -106.02537,15.35194 -3.33019,-0.0681 -38.90489,-2.11923 -79.05489,-4.55761 z M 240.26492,624.70857 c -8.95723,-10.54222 -16.23437,-22.58133 -22.59632,-32.22488 l -18.67436,-28.34505 -17.38998,-10.09687 c -14.38224,-8.35054 -17.34863,-10.45699 -17.15089,-12.1789 0.1732,-1.50832 -0.98436,-2.84352 -4.20082,-4.8455 l -4.43991,-2.76347 17.0219,-26.32716 c 9.36205,-14.47994 16.87742,-26.44908 16.70082,-26.5981 -0.17659,-0.14902 -12.68976,7.50493 -27.80704,17.00877 -15.11727,9.50384 -27.78761,17.09328 -28.15631,16.86541 -0.3687,-0.22787 -0.98392,-2.69414 -1.36716,-5.48061 -0.44187,-3.21277 -1.11639,-4.89381 -1.84368,-4.59482 -0.63079,0.25932 -1.8462,0.75396 -2.70091,1.09921 -1.32255,0.53422 -2.56465,-4.92519 -8.33935,-36.65407 l -6.78533,-37.28178 7.55449,-43 c 4.15497,-23.65 8.15866,-46.17206 8.89709,-50.04902 1.39268,-7.31196 0.0492,-4.77394 43.31364,-81.82497 l 7.2288,-12.87399 38.09234,-19.36111 c 36.70393,-18.65544 38.09234,-19.26649 38.09234,-16.7648 0,1.5179 -1.56865,4.52311 -3.77656,7.2351 -2.0771,2.55133 -4.42881,5.48244 -5.22602,6.51358 -1.00715,1.3027 1.05395,0.61611 6.75436,-2.25 4.5121,-2.26864 8.43881,-4.1248 8.72602,-4.1248 2.66666,0 -2.23062,7.25246 -17.68472,26.18961 l -18.20692,22.3104 -10.71721,30.06257 -10.71722,30.06258 3.91497,24.40992 c 2.15323,13.42546 4.03159,24.67724 4.17413,25.00394 0.14254,0.32671 3.48745,3.62383 7.43313,7.32689 l 7.17396,6.73289 8.32604,-4.16564 c 4.57932,-2.2911 8.39994,-4.22583 8.49026,-4.2994 0.0903,-0.0736 0.71405,-9.12277 1.38605,-20.10933 l 1.22181,-19.97558 24.04576,-27.02442 c 13.22517,-14.86343 24.22769,-27.24943 24.45004,-27.52442 0.22235,-0.27501 1.25251,0.54624 2.28923,1.825 1.03673,1.27876 9.66049,10.43189 19.16392,20.3403 9.50343,9.90841 17.64124,18.98714 18.08401,20.17498 0.44277,1.18784 2.07432,3.50971 3.62566,5.15972 2.31086,2.45782 3.52035,5.86851 6.69244,18.87223 l 3.87182,15.87223 4.1827,2.87777 c 2.30048,1.58276 4.55161,2.86793 5.00252,2.85593 0.4509,-0.012 3.1316,-4.17451 5.9571,-9.25 l 5.13728,-9.22816 0.72113,-20.70527 0.72113,-20.70526 -16.14878,-27.06771 c -12.458,-20.88143 -17.01903,-27.69096 -19.95654,-29.79473 -2.09428,-1.49988 -16.65387,-11.27704 -32.35465,-21.72703 -23.76887,-15.81991 -28.64432,-19.46213 -29.12907,-21.76106 -0.36889,-1.74941 -1.59814,-3.19759 -3.35499,-3.95249 -1.52503,-0.65528 -2.88477,-1.24978 -3.02164,-1.32113 -0.70741,-0.36871 -1.87784,-9.46532 -1.21787,-9.46532 0.42628,0 13.75569,2.95445 29.62089,6.56545 15.86521,3.611 36.63615,8.32364 46.15765,10.47253 l 17.31181,3.90706 34.39445,23.69009 c 28.75842,19.80813 34.49617,24.15323 35.01521,26.51646 0.3572,1.62631 1.83476,3.54347 3.48,4.51533 1.57257,0.92894 3.14129,2.8464 3.48605,4.26103 0.34476,1.41463 7.61476,23.88614 16.15555,49.93669 l 15.52871,47.36464 -1.20568,34.49117 -1.20568,34.49117 -12.82283,38.44005 -12.82284,38.44005 -17.83076,18.70413 -17.83076,18.70415 -5.98106,12.5 c -3.28958,6.875 -8.48508,17.6439 -11.54555,23.93088 l -5.56449,11.43088 -3.1355,-5.43088 c -1.72453,-2.98699 -3.47483,-5.20588 -3.88957,-4.93088 -0.41474,0.27499 -3.73466,-4.675 -7.3776,-11 -26.90416,-46.71191 -40.33078,-69.65867 -41.31917,-70.6165 -0.63366,-0.61409 -6.99396,-2.95358 -14.13401,-5.19889 l -12.9819,-4.08239 -15.03622,11.28638 -15.03622,11.28641 -10.93279,45.91249 c -6.01303,25.25188 -11.40835,48.22679 -11.9896,51.05536 l -1.05683,5.14286 z m 412.64551,-5.93563 c 1.14954,-2.76611 1.86039,-5.25899 1.57966,-5.53972 -0.28073,-0.28073 -2.65485,-0.0298 -5.27581,0.55753 -2.62096,0.58737 -4.88,0.94016 -5.02008,0.78397 -0.14008,-0.15618 4.83685,-13.40852 11.05984,-29.44964 l 11.31454,-29.16566 2.0814,-35.33434 c 1.14477,-19.43388 2.28663,-37.80933 2.53748,-40.83433 0.25085,-3.025 0.72566,-10.22501 1.05513,-16 0.32947,-5.775 0.93198,-15.92368 1.33892,-22.55262 0.40694,-6.62894 0.42999,-15.62894 0.0512,-20 -0.37873,-4.37106 -0.9859,-11.54739 -1.34925,-15.94738 -0.36334,-4.4 -0.86484,-9.80001 -1.11445,-12 -0.2496,-2.2 -2.73025,-31 -5.51253,-64 l -5.05871,-60 -8.31667,-25.70842 c -4.57416,-14.13963 -8.07295,-25.95213 -7.77507,-26.25 0.29787,-0.29788 5.03203,-0.54158 10.52036,-0.54158 l 9.97878,0 30.60456,12.3779 30.60455,12.37791 11.5,0.66026 c 6.325,0.36315 14.875,0.89053 19,1.17197 4.125,0.28143 13.1507,0.85189 20.0571,1.26769 l 12.55711,0.75599 23.6378,14.40654 c 17.96872,10.95141 23.78126,14.97813 24.23597,16.78985 0.32899,1.31082 1.87627,3.57774 3.43838,5.03759 2.09409,1.957 5.59555,9.62973 13.3286,29.20692 l 10.48839,26.55263 1.62173,36.1454 1.62173,36.1454 -9.34335,18.80198 c -5.13884,10.34107 -10.56866,21.50196 -12.06626,24.80197 l -2.7229,6 -26.79232,18.5 c -16.70167,11.53244 -27.87987,18.61106 -29.67993,18.79491 -1.58817,0.16222 -11.43223,-0.81691 -21.87567,-2.17581 -10.44344,-1.35891 -19.14622,-2.31259 -19.33952,-2.11931 -0.19329,0.19331 0.17478,12.87242 0.81795,28.17582 l 1.16939,27.82439 5.34635,16.5 c 11.65868,35.98126 18.62187,58.20903 18.31831,58.47546 -0.17537,0.15392 -17.3225,-2.07165 -38.10472,-4.9457 l -37.78587,-5.22559 -20.21413,4.84456 c -11.11778,2.66449 -21.20278,5.07363 -22.41111,5.35365 l -2.19696,0.5091 z M 780.43627,424.7702 798.34151,413.74964 801.1336,396.1759 c 1.53565,-9.66556 2.40702,-17.91982 1.93638,-18.34279 -0.47063,-0.42298 -5.96416,-5.36722 -12.20784,-10.98722 L 779.51,356.62772 l -5.64786,0.53356 c -3.10632,0.29346 -10.65338,0.84058 -16.77124,1.21583 l -11.12338,0.68227 -0.67649,8.33744 c -0.37208,4.5856 -0.88149,10.26266 -1.13203,12.61569 -2.84781,26.74625 -3.43491,52.71874 -1.19472,52.85336 0.6875,0.0413 4.85,0.66248 9.25,1.38037 4.4,0.71789 8.52127,1.35909 9.15837,1.42488 0.6371,0.0658 9.21573,-4.83962 19.06362,-10.90092 z m -210.47541,193.65029 -22.25341,-3.12974 -20.99659,-20.99108 c -11.54812,-11.54508 -20.99658,-21.42612 -20.99658,-21.95783 0,-0.53172 -1.56293,-2.56735 -3.47318,-4.52363 -3.00785,-3.08032 -5.54833,-9.26643 -18.9618,-46.17223 l -15.48862,-42.61536 3.0528,-51.80867 3.0528,-51.80868 14.159,-28.29625 14.159,-28.29624 21.84308,-13.51502 c 12.0137,-7.43325 22.3637,-13.4923 23,-13.46452 0.63631,0.0278 12.217,3.06527 25.73487,6.75 l 24.57795,6.69951 19.67205,20.47593 c 10.81963,11.26177 19.67205,20.91534 19.67205,21.4524 0,0.53705 1.40494,2.42599 3.12209,4.19763 2.66558,2.75018 4.78253,8.38671 14.4776,38.54762 l 11.3555,35.32642 0.88131,33.5 0.88131,33.5 -7.80715,37.83701 -7.80714,37.83702 -10.87678,17.99073 -10.87678,17.99073 -18.84747,8.92225 c -10.3661,4.90724 -18.88234,8.86814 -18.92498,8.802 -0.0426,-0.0661 -10.09155,-1.52864 -22.33093,-3.25 z m 24.72537,-63.11569 c 12.34831,-6.18775 12.98776,-6.65901 13.90844,-10.25 0.53078,-2.07023 2.60143,-10.96406 4.60144,-19.76405 l 3.6364,-16 -3.44355,-16.30111 c -1.89394,-8.9656 -3.60805,-16.41591 -3.80911,-16.55624 -0.20106,-0.14033 -4.96892,-4.39233 -10.59524,-9.44889 -5.62632,-5.05658 -10.43044,-9.19376 -10.67583,-9.19376 -0.24538,0 -6.21631,3.35987 -13.26874,7.46638 l -12.82259,7.46639 -7.14995,23.60804 -7.14996,23.60805 5.91661,17.72094 5.9166,17.72094 9.23176,3.11664 c 5.07748,1.71415 10.0257,3.15623 10.99605,3.20462 0.97035,0.0484 7.58881,-2.83068 14.70767,-6.39795 z m -437.82439,54.75242 c -157.16010762,444.81058 -78.580053,222.40529 0,0 z M 123.29372,580.36231 93.373168,556.07329 68.525153,490.29106 43.677138,424.50884 55.155746,358.13242 c 6.313234,-36.50704 11.882298,-67.0978 12.375698,-67.97944 0.493401,-0.88166 23.986956,-27.6336 52.207896,-59.44878 l 51.31081,-57.84575 57.58207,-29.95783 57.58206,-29.95784 75.14065,-17.609046 75.14065,-17.609046 70.08397,2.575308 70.08398,2.575309 62.95792,18.887595 62.95793,18.88759 51.56745,35.15226 c 28.3621,19.33375 51.56745,35.36687 51.56745,35.62914 0,0.26229 -0.5625,0.12984 -1.25,-0.29431 -26.09227,-16.098 -93.39492,-59.12616 -93.60963,-59.84683 -1.09705,-3.68221 -12.11694,-7.57764 -73.84981,-26.10519 L 572.7954,85.914724 509.00484,84.816739 c -35.08481,-0.603892 -64.55703,-1.330437 -65.49383,-1.614545 -0.93679,-0.284107 -19.83679,2.656745 -42,6.535227 -34.65844,6.065105 -45.58902,8.443161 -78.12058,16.995899 l -37.82385,9.94412 -55.25167,28.5568 -55.25167,28.55682 -18.5515,21.74984 c -10.20333,11.96241 -32.59887,38.17485 -49.76787,58.24985 -17.169005,20.07499 -31.554869,37.39999 -31.968589,38.5 -0.41372,1.09999 -6.728407,31.08542 -14.032639,66.63427 l -13.280422,64.63426 24.745033,65.86574 c 19.813603,52.73937 25.251091,66.25409 27.28434,67.81446 2.943947,2.25925 49.755837,42.81059 52.694907,45.64756 4.85126,4.68273 -0.90938,0.19176 -28.89278,-22.52473 z"
         id="path3177"
         inkscape:connector-curvature="0"
         sodipodi:nodetypes="cssssssssssssscscssssscccccssssccscssssscccscssscscccssscscsssssscssscssssssscccscscscscscssssscssscccssssscssscssssscccccccsscscscscccssccssccscsssscssscscscccssscsssscccsscssscscssscsccsscscscsscsscscsscsssscccccscscsssscccccccscsssscssssscccccscsccscccssscccccccccsscsscsssscccsssscssss" />
      <path
         style="fill:#e64c00"
         d="m 811.71428,823.17327 c -0.825,-0.13715 -3.20227,-0.52747 -5.28281,-0.8674 -3.58726,-0.58611 -3.98521,-1.04191 -7.69771,-8.81659 -2.15319,-4.50919 -9.30015,-23.49853 -15.88212,-42.19853 -6.58198,-18.70001 -16.51364,-45.70001 -22.07037,-60 -10.00313,-25.74266 -10.09268,-26.04927 -9.04701,-30.97667 0.92087,-4.3393 2.23587,-6.19627 10.26807,-14.5 7.67649,-7.93598 12.79559,-11.91177 30.71195,-23.85267 20.28703,-13.52094 22.47962,-15.29808 38.86381,-31.5 9.5501,-9.44387 27.7272,-28.42066 40.39356,-42.17066 22.69993,-24.64198 29.70509,-33.82137 45.6434,-59.81012 1.94004,-3.16341 3.49638,-11.06503 9.169,-46.55161 5.75977,-36.03179 7.00148,-46.03806 7.90985,-63.74107 1.01154,-19.7137 0.9498,-21.66141 -1.00826,-31.80785 -1.14718,-5.94454 -1.93358,-10.96046 -1.74756,-11.14649 0.18603,-0.18602 2.66438,9.77258 5.50746,22.13022 l 5.16924,22.46844 -9.9436,57.22924 c -5.46899,31.47608 -10.11662,57.67923 -10.32809,58.22924 -1.21248,3.15352 -79.2461,101.29657 -81.67674,102.725 -3.85742,2.26691 -77.35148,61.66994 -77.79041,62.87564 -0.18609,0.51116 11.21221,32.68683 25.32956,71.50148 14.11734,38.81466 25.51959,70.67507 25.33834,70.80092 -0.18126,0.12585 -1.00456,0.11662 -1.82956,-0.0205 z M 704.84994,756.56957 C 632.5734,712.44375 629.5638,711.3245 630.53577,708.55719 c 1.51126,-4.30272 9.21695,2.87436 75.8586,42.37171 24.1354,10.18706 55.12627,34.66333 77.31991,45.86185 2.42443,1.29751 2.45057,1.8569 0.22203,4.7519 l -1.73351,2.2519 z m -267.63566,-15.46152 -73,-4.43345 -73,-25.54832 c -40.15,-14.05158 -74.0472,-26.20856 -75.32711,-27.01551 -2.58939,-1.63253 -55.80431,-44.69044 -58.17289,-47.06957 -0.825,-0.82867 1.425,0.0831 5,2.02616 58.17775,31.62038 101.22937,53.78395 132.36033,68.14095 l 22.86033,10.54275 31.13967,5.99658 31.13967,5.99659 31.5,1.01884 c 40.53464,1.31105 105.21048,1.30801 139,-0.007 22.53932,-0.87687 48.02762,-3.28862 69.12666,-6.54088 3.44087,-0.53038 3.64989,-0.40069 4.08026,2.53159 0.36847,2.51052 0.0632,3.18001 -1.62666,3.56694 -9.27692,2.12421 -101.30315,15.44914 -106.02537,15.35194 -3.33019,-0.0681 -38.90489,-2.11923 -79.05489,-4.55761 z M 214.62492,587.53043 194.03556,556.29075 175.31512,545.41777 c -10.46844,-6.08016 -18.52766,-11.37535 -18.28311,-12.01265 0.24053,-0.6268 10.31136,-16.45223 22.37961,-35.16758 12.06825,-18.71536 21.76086,-34.57218 21.53914,-35.23736 -0.22173,-0.66519 -0.83236,-1.20943 -1.35696,-1.20943 -0.52459,0 -7.57459,4.2085 -15.66666,9.35221 -19.1087,12.14644 -46.43918,29.22855 -52.41303,32.75923 -4.16694,2.46275 -4.7588,2.58565 -5.21693,1.08323 -0.28422,-0.93207 -3.43281,-17.58322 -6.99688,-37.00256 l -6.48013,-35.30789 7.39973,-42.19211 c 4.06985,-23.20567 8.03297,-45.79211 8.80693,-50.19211 1.33665,-7.59893 2.63379,-10.18086 25.87322,-51.5 l 24.46602,-43.5 37.42411,-19.22613 c 20.58325,-10.57436 37.7616,-19.23686 38.1741,-19.25 2.77105,-0.0882 -1.11757,6.00403 -14,21.93369 -8.1125,10.03143 -16.38613,20.33225 -18.38585,22.89071 -2.85859,3.65731 -5.86922,10.96837 -14.08321,34.19997 l -10.44737,29.54825 4.16359,26.45175 4.16359,26.45176 6.91962,6.61444 c 3.8058,3.63795 8.58859,8.05579 10.62842,9.81741 l 3.7088,3.20296 8.41021,-3.94114 8.4102,-3.94117 0.60885,-5.37625 c 0.4872,-4.30199 1.88811,-28.22696 1.96813,-33.61175 0.0189,-1.27147 47.00319,-54.53249 48.56905,-55.05749 0.48061,-0.16114 9.45494,8.80398 19.94294,19.92248 l 19.06909,20.21545 3.62774,15.07752 c 1.99526,8.29264 4.06033,16.76257 4.58904,18.82207 0.80401,3.13181 2.17776,4.5654 8.39518,8.76087 l 7.43387,5.01632 5.7973,-9.90444 5.7973,-9.90445 0.31351,-20.8717 0.31351,-20.8717 -18.26709,-30.51571 c -15.06204,-25.16159 -18.94148,-30.94891 -22.11079,-32.98472 -2.11404,-1.35796 -17.29386,-11.469 -33.73293,-22.469 -29.06651,-19.4495 -29.90796,-20.10508 -30.57024,-23.81739 -0.37456,-2.09957 -0.52385,-3.95579 -0.33174,-4.12495 0.47812,-0.42102 90.73968,20.07938 92.96461,21.11431 0.97905,0.45541 16.81021,11.15988 35.18036,23.78771 l 33.40027,22.9597 4.08824,12.5403 c 2.24854,6.89717 9.58235,29.36601 16.29737,49.93076 l 12.20912,37.39044 -0.67279,22.10956 c -0.37003,12.16026 -0.91275,27.73456 -1.20602,34.60956 l -0.53324,12.5 -12.5898,38 -12.5898,38 -17.87753,18.65692 -17.87754,18.65693 -11.34573,23.63348 c -6.24015,12.99841 -11.55554,23.8433 -11.81199,24.09974 -0.25645,0.25645 -12.35076,-20.00777 -26.87626,-45.03159 l -26.40999,-45.49786 -14.93301,-4.99441 -14.933,-4.9944 -15.11248,11.34364 -15.11248,11.34363 -1.20514,5.39195 c -5.07374,22.70059 -22.67202,94.88989 -23.13022,94.88165 -0.31552,-0.006 -9.83888,-14.06817 -21.16303,-31.25 z m 430.08936,26.31409 c 0,-0.34844 4.98695,-13.44059 11.08211,-29.09366 l 11.0821,-28.46011 3.8733,-63.5 3.87329,-63.5 -5.45195,-64.5 c -2.99858,-35.47501 -5.66134,-66.525 -5.91724,-69 -0.25591,-2.47501 -0.7226,-7.875 -1.0371,-12 -0.97994,-12.85316 -1.45867,-14.8582 -9.58472,-40.14326 -4.35589,-13.55378 -7.91979,-24.91627 -7.91979,-25.25 0,-0.33371 4.93688,-0.60674 10.97084,-0.60674 l 10.97085,0 29.72891,12.01882 29.72892,12.01882 31.72455,1.97006 31.72456,1.97006 23.30547,14.26112 23.30547,14.26112 10.74634,27.23486 10.74635,27.23486 1.61537,35.63857 1.61537,35.63857 -12.20032,25.12657 -12.20031,25.12657 -27.64119,19.10849 -27.64118,19.10848 -21,-2.73962 c -11.55,-1.50679 -21.14587,-2.60974 -21.32415,-2.451 -0.17828,0.15873 0.21061,12.7901 0.86422,28.06971 l 1.18837,27.7811 11.81012,36.78448 c 6.49556,20.23147 12.09572,37.2466 12.44479,37.81142 0.80505,1.30259 4.52084,1.69929 -32.13335,-3.4306 -17.5175,-2.45163 -34.55,-4.82116 -37.85,-5.2656 -5.32284,-0.71688 -8.51115,-0.23144 -28.25,4.30119 -12.2375,2.81009 -22.25,4.82417 -22.25,4.47572 z m 135.68904,-188.7121 c 9.56374,-5.86207 17.60275,-11.00479 17.86447,-11.42826 0.26172,-0.42347 1.76434,-8.93555 3.33915,-18.91574 l 2.86331,-18.1458 -4.62798,-4.26878 c -2.5454,-2.34784 -9.73645,-8.87619 -15.98013,-14.50746 L 772.51,347.62771 l -5.64786,0.5265 c -3.10632,0.28958 -10.52404,0.84026 -16.48382,1.22375 -6.45575,0.41539 -10.98186,1.14503 -11.19689,1.80501 -1.25716,3.85852 -3.45541,40.64583 -3.53203,59.10777 l -0.0913,22 10.82809,1.62675 c 16.74272,2.51532 14.73515,3.03379 34.01713,-8.78507 z m -217.37823,184.36749 -22.1892,-3.0704 -20.92667,-21.06938 -20.92668,-21.06938 -15.4746,-43 -15.4746,-43 3.13201,-51.5 3.13201,-51.5 14.16112,-28.14847 14.16112,-28.14848 21.29734,-13.29188 c 11.71354,-7.31053 21.97234,-13.29862 22.79734,-13.30684 0.825,-0.008 12.47477,2.88995 25.88838,6.44036 l 24.38837,6.45531 19.11043,19.81889 c 10.51073,10.90037 19.47165,20.46438 19.91317,21.25331 0.44151,0.78895 5.73262,16.89718 11.75801,35.79609 l 10.95525,34.36167 0.82822,33.88502 0.82822,33.88502 -7.68685,37.27215 -7.68686,37.27216 -10.89817,18.11302 -10.89817,18.113 -6,2.76277 c -3.3,1.51953 -11.79123,5.50871 -18.86941,8.86484 -7.07817,3.35613 -12.92817,6.05246 -13,5.99185 -0.0718,-0.0606 -10.11573,-1.4919 -22.31978,-3.18063 z m 49.64409,-80.5959 4.4549,-19.38672 -2.3002,-11.11328 c -1.26512,-6.1123 -2.98171,-14.15327 -3.81466,-17.86882 l -1.51445,-6.75555 -13.96796,-12.55188 c -7.68237,-6.90353 -14.30793,-12.41354 -14.72346,-12.24445 -3.74511,1.52395 -26.09134,15.43817 -26.0989,16.25088 -0.005,0.5811 -3.11059,11.0986 -6.9004,23.37221 l -6.89057,22.31566 7.21591,21.62234 7.21591,21.62234 12.43449,4.17731 12.43449,4.17731 14,-7.11531 14,-7.11531 z M 123.29372,580.36231 93.373168,556.07329 68.525153,490.29106 43.677138,424.50884 55.155746,358.13242 c 6.313234,-36.50704 11.882298,-67.0978 12.375698,-67.97944 0.493401,-0.88166 23.986956,-27.6336 52.207896,-59.44878 l 51.31081,-57.84575 57.58207,-29.95783 57.58206,-29.95784 75.14065,-17.609046 75.14065,-17.609046 70.08397,2.575308 70.08398,2.575309 62.95792,18.887595 62.95793,18.88759 51.56745,35.15226 c 28.3621,19.33375 51.56745,35.36687 51.56745,35.62914 0,0.26229 -0.5625,0.12984 -1.25,-0.29431 -26.09227,-16.098 -92.92828,-59.52867 -93.60963,-59.84683 -8.07992,-3.7729 -12.11694,-7.57764 -73.84981,-26.10519 L 572.7954,85.914724 509.00484,84.816739 c -35.08481,-0.603892 -64.55703,-1.330437 -65.49383,-1.614545 -0.93679,-0.284107 -19.83679,2.656745 -42,6.535227 -34.65844,6.065105 -45.58902,8.443161 -78.12058,16.995899 l -37.82385,9.94412 -55.25167,28.5568 -55.25167,28.55682 -18.5515,21.74984 c -10.20333,11.96241 -32.59887,38.17485 -49.76787,58.24985 -17.169005,20.07499 -31.554869,37.39999 -31.968589,38.5 -0.41372,1.09999 -6.728407,31.08542 -14.032639,66.63427 l -13.280422,64.63426 24.745033,65.86574 c 19.813603,52.73937 25.251091,66.25409 27.28434,67.81446 2.943947,2.25925 49.755837,42.81059 52.694907,45.64756 4.85126,4.68273 -0.90938,0.19176 -28.89278,-22.52473 z"
         id="path3175"
         inkscape:connector-curvature="0"
         sodipodi:nodetypes="cssssssssssssscscssssscccssccscsscssssscccscssscsscscssssssscssscscssscccsscccsssscssscccccsssscsscsscsscccccscscccccscssscccsssssscccccccccccccccscscscssssssscsscsssscssscccccccccscscscscccccccsscsccsscsscsccccccccscccssscccccccccsscsscsssscccsssscssss" />
      <path
         style="fill:#353535"
         d="m 214.62492,587.53043 -20.58936,-31.23968 -18.72044,-10.87298 c -10.46844,-6.08016 -18.52766,-11.37535 -18.28311,-12.01265 0.24053,-0.6268 10.31136,-16.45223 22.37961,-35.16758 12.06825,-18.71536 21.76086,-34.57218 21.53914,-35.23736 -0.22173,-0.66519 -0.83236,-1.20943 -1.35696,-1.20943 -0.52459,0 -7.57459,4.2085 -15.66666,9.35221 -19.1087,12.14644 -46.43918,29.22855 -52.41303,32.75923 -4.16694,2.46275 -4.7588,2.58565 -5.21693,1.08323 -0.28422,-0.93207 -3.43281,-17.58322 -6.99688,-37.00256 l -6.48013,-35.30789 7.39973,-42.19211 c 4.06985,-23.20567 8.03297,-45.79211 8.80693,-50.19211 1.33665,-7.59893 2.63379,-10.18086 25.87322,-51.5 l 24.46602,-43.5 37.42411,-19.22613 c 20.58325,-10.57436 37.7616,-19.23686 38.1741,-19.25 2.77105,-0.0882 -1.11757,6.00403 -14,21.93369 -8.1125,10.03143 -16.38613,20.33225 -18.38585,22.89071 -2.85859,3.65731 -5.86922,10.96837 -14.08321,34.19997 l -10.44737,29.54825 4.16359,26.45175 4.16359,26.45176 6.91962,6.61444 c 3.8058,3.63795 8.58859,8.05579 10.62842,9.81741 l 3.7088,3.20296 8.41021,-3.94114 8.4102,-3.94117 0.60885,-5.37625 c 0.4872,-4.30199 1.88811,-28.22696 1.96813,-33.61175 0.0189,-1.27147 47.00319,-54.53249 48.56905,-55.05749 0.48061,-0.16114 9.45494,8.80398 19.94294,19.92248 l 19.06909,20.21545 3.62774,15.07752 c 1.99526,8.29264 4.06033,16.76257 4.58904,18.82207 0.80401,3.13181 2.17776,4.5654 8.39518,8.76087 l 7.43387,5.01632 5.7973,-9.90444 5.7973,-9.90445 0.31351,-20.8717 0.31351,-20.8717 -18.26709,-30.51571 c -15.06204,-25.16159 -18.94148,-30.94891 -22.11079,-32.98472 -2.11404,-1.35796 -17.29386,-11.469 -33.73293,-22.469 -29.06651,-19.4495 -29.90796,-20.10508 -30.57024,-23.81739 -0.37456,-2.09957 -0.52385,-3.95579 -0.33174,-4.12495 0.47812,-0.42102 90.73968,20.07938 92.96461,21.11431 0.97905,0.45541 16.81021,11.15988 35.18036,23.78771 l 33.40027,22.9597 4.08824,12.5403 c 2.24854,6.89717 9.58235,29.36601 16.29737,49.93076 l 12.20912,37.39044 -0.67279,22.10956 c -0.37003,12.16026 -0.91275,27.73456 -1.20602,34.60956 l -0.53324,12.5 -12.5898,38 -12.5898,38 -17.87753,18.65692 -17.87754,18.65693 -11.34573,23.63348 c -6.24015,12.99841 -11.55554,23.8433 -11.81199,24.09974 -0.25645,0.25645 -12.35076,-20.00777 -26.87626,-45.03159 l -26.40999,-45.49786 -14.93301,-4.99441 -14.933,-4.9944 -15.11248,11.34364 -15.11248,11.34363 -1.20514,5.39195 c -5.07374,22.70059 -22.67202,94.88989 -23.13022,94.88165 -0.31552,-0.006 -9.83888,-14.06817 -21.16303,-31.25 z m 430.08936,26.31409 c 0,-0.34844 4.98695,-13.44059 11.08211,-29.09366 l 11.0821,-28.46011 3.8733,-63.5 3.87329,-63.5 -5.45195,-64.5 c -2.99858,-35.47501 -5.66134,-66.525 -5.91724,-69 -0.25591,-2.47501 -0.7226,-7.875 -1.0371,-12 -0.97994,-12.85316 -1.45867,-14.8582 -9.58472,-40.14326 -4.35589,-13.55378 -7.91979,-24.91627 -7.91979,-25.25 0,-0.33371 4.93688,-0.60674 10.97084,-0.60674 l 10.97085,0 29.72891,12.01882 29.72892,12.01882 31.72455,1.97006 31.72456,1.97006 23.30547,14.26112 23.30547,14.26112 10.74634,27.23486 10.74635,27.23486 1.61537,35.63857 1.61537,35.63857 -12.20032,25.12657 -12.20031,25.12657 -27.64119,19.10849 -27.64118,19.10848 -21,-2.73962 c -11.55,-1.50679 -21.14587,-2.60974 -21.32415,-2.451 -0.17828,0.15873 0.21061,12.7901 0.86422,28.06971 l 1.18837,27.7811 11.81012,36.78448 c 6.49556,20.23147 12.09572,37.2466 12.44479,37.81142 0.80505,1.30259 4.52084,1.69929 -32.13335,-3.4306 -17.5175,-2.45163 -34.55,-4.82116 -37.85,-5.2656 -5.32284,-0.71688 -8.51115,-0.23144 -28.25,4.30119 -12.2375,2.81009 -22.25,4.82417 -22.25,4.47572 z m 135.68904,-188.7121 c 9.56374,-5.86207 17.60275,-11.00479 17.86447,-11.42826 0.26172,-0.42347 1.76434,-8.93555 3.33915,-18.91574 l 2.86331,-18.1458 -4.62798,-4.26878 c -2.5454,-2.34784 -9.73645,-8.87619 -15.98013,-14.50746 L 772.51,347.62771 l -5.64786,0.5265 c -3.10632,0.28958 -10.52404,0.84026 -16.48382,1.22375 -6.45575,0.41539 -10.98186,1.14503 -11.19689,1.80501 -1.25716,3.85852 -3.45541,40.64583 -3.53203,59.10777 l -0.0913,22 10.82809,1.62675 c 16.74272,2.51532 14.73515,3.03379 34.01713,-8.78507 z m -217.37823,184.36749 -22.1892,-3.0704 -20.92667,-21.06938 -20.92668,-21.06938 -15.4746,-43 -15.4746,-43 3.13201,-51.5 3.13201,-51.5 14.16112,-28.14847 14.16112,-28.14848 21.29734,-13.29188 c 11.71354,-7.31053 21.97234,-13.29862 22.79734,-13.30684 0.825,-0.008 12.47477,2.88995 25.88838,6.44036 l 24.38837,6.45531 19.11043,19.81889 c 10.51073,10.90037 19.47165,20.46438 19.91317,21.25331 0.44151,0.78895 5.73262,16.89718 11.75801,35.79609 l 10.95525,34.36167 0.82822,33.88502 0.82822,33.88502 -7.68685,37.27215 -7.68686,37.27216 -10.89817,18.11302 -10.89817,18.113 -6,2.76277 c -3.3,1.51953 -11.79123,5.50871 -18.86941,8.86484 -7.07817,3.35613 -12.92817,6.05246 -13,5.99185 -0.0718,-0.0606 -10.11573,-1.4919 -22.31978,-3.18063 z m 49.64409,-80.5959 4.4549,-19.38672 -2.3002,-11.11328 c -1.26512,-6.1123 -2.98171,-14.15327 -3.81466,-17.86882 l -1.51445,-6.75555 -13.96796,-12.55188 c -7.68237,-6.90353 -14.30793,-12.41354 -14.72346,-12.24445 -3.74511,1.52395 -26.09134,15.43817 -26.0989,16.25088 -0.005,0.5811 -3.11059,11.0986 -6.9004,23.37221 l -6.89057,22.31566 7.21591,21.62234 7.21591,21.62234 12.43449,4.17731 12.43449,4.17731 14,-7.11531 14,-7.11531 z"
         id="path3173"
         inkscape:connector-curvature="0"
         sodipodi:nodetypes="scscssssssscssscscssscccsscccsssscssscccccsssscsscsscsscccccscscccccscssscccsssssscccccccccccccccscscscssssssscsscsssscssscccccccccscscscscccccccsscsccsscsscscccccccc" />
      <path
         style="fill:#171717"
         d="m 750.21428,612.64634 c -7.15,-1.0549 -23.8,-3.4354 -37,-5.29002 l -24,-3.37202 -14,3.28604 c -7.7,1.80732 -14.1395,3.16177 -14.31,3.00988 -0.86654,-0.77192 11.76247,-34.25356 18.85702,-49.99314 5.94879,-13.19766 8.24426,-19.4629 8.60863,-23.49634 0.27327,-3.025 1.77864,-29.575 3.34528,-59 l 2.84843,-53.5 -5.90546,-78 c -3.248,-42.9 -6.38073,-79.98112 -6.96163,-82.40249 -0.58089,-2.42137 -3.70062,-9.28387 -6.93273,-15.25 -3.23211,-5.96613 -5.60121,-10.8475 -5.26466,-10.8475 0.33655,0 4.23513,1.08573 8.66352,2.41276 4.42838,1.32702 21.3266,4.77633 37.5516,7.66514 l 29.5,5.25236 19,-3.70387 c 10.45,-2.03713 20.37434,-3.68644 22.05409,-3.66514 2.12909,0.027 10.11918,4.35467 26.38108,14.28875 l 23.32698,14.25 10.73138,27.16063 10.73138,27.16063 1.59144,35.77673 1.59144,35.77673 -11.57957,24.06264 c -6.36876,13.23444 -12.31051,24.83411 -13.20389,25.77704 -0.89338,0.94293 -13.32433,9.82397 -27.62433,19.73566 -16.66913,11.55379 -26.8972,18.02456 -28.5,18.03047 -1.375,0.005 -11.04701,-1.07896 -21.49335,-2.40897 -10.44635,-1.33001 -19.1824,-2.22916 -19.41345,-1.99811 -0.23104,0.23105 0.0788,12.76371 0.68846,27.85035 l 1.10855,27.43026 12.0549,37.59829 c 6.63019,20.67905 12.05489,37.81188 12.05489,38.07296 0,0.26107 -0.3375,0.42373 -0.75,0.36148 -0.4125,-0.0623 -6.6,-0.97631 -13.75,-2.0312 z m 18,-167.43665 c 8.91297,-2.02523 17.67067,-4.62479 19.77177,-5.86887 4.05694,-2.40215 22.97266,-25.70441 24.11504,-29.70729 0.36774,-1.28852 2.01867,-8.86779 3.66875,-16.84278 l 3.00014,-14.5 -3.27785,-7.11444 -3.27785,-7.11442 -20.82395,-10.75198 -20.82396,-10.75199 -4.17604,2.9745 c -3.84152,2.73622 -5.09609,3.03143 -15.66132,3.68502 -6.31691,0.39078 -11.56329,0.79215 -11.65864,0.89191 -0.72203,0.75547 -4.35609,48.79646 -4.35609,57.58591 0,9.19599 -0.25679,11.09549 -1.5,11.09549 -0.825,0 -1.46447,0.7875 -1.42105,1.75 0.0472,1.04543 0.28201,1.24673 0.58333,0.5 1.25053,-3.09916 2.33772,-0.70874 2.33772,5.13999 0,6.0027 0.27838,6.77546 4.59304,12.75 5.37413,7.44159 9.30756,11.01913 11.40696,10.37484 0.825,-0.25317 8.7,-2.09633 17.5,-4.09589 z m -33.5,-6.91894 c 0,-0.275 -0.225,-0.5 -0.5,-0.5 -0.275,0 -0.5,0.225 -0.5,0.5 0,0.27499 0.225,0.5 0.5,0.5 0.275,0 0.5,-0.22501 0.5,-0.5 z m -1.33333,-9.16668 c -0.36667,-0.36665 -0.66667,-0.0667 -0.66667,0.66668 0,0.73333 0.3,1.03332 0.66667,0.66667 0.36666,-0.36667 0.36666,-0.96668 0,-1.33335 z m -162.59339,181.12273 -8.42672,-1.31466 -23.79006,-23.8207 -23.79006,-23.82069 -13.35968,-44 -13.35968,-44 1.9558,-43.92562 1.9558,-43.9256 12.42942,-27.14687 12.42942,-27.14686 22.49545,-16.6853 c 14.40812,-10.68678 22.23723,-17.10311 21.77719,-17.84747 -0.46977,-0.76011 -0.18326,-0.95686 0.8282,-0.56873 0.85055,0.32639 6.88687,2.01323 13.41405,3.74855 24.14566,6.41936 19.8276,3.69883 41.33732,26.04388 l 19.23392,19.98086 11.30542,35.23658 11.30542,35.23658 0.76815,31.5 c 0.42248,17.325 0.71851,33.075 0.65784,35 -0.0607,1.925 -3.50222,19.84557 -7.6479,39.82348 l -7.53759,36.3235 -10.7775,17.89812 -10.77749,17.89813 -18.11153,8.52838 c -19.84546,9.34487 -19.55898,9.28656 -34.31519,6.98445 z m 32.70996,-39.84797 c 2.59422,-1.31556 5.42781,-3.22806 6.29687,-4.25 4.13063,-4.85732 18.8684,-29.45314 19.86423,-33.15137 0.82252,-3.05462 0.8426,-9.48142 0.0748,-23.94111 -0.57723,-10.87108 -1.29574,-20.8906 -1.59667,-22.2656 -0.30094,-1.375 -2.80617,-8.575 -5.56719,-16 -4.83788,-13.01014 -5.20754,-13.64378 -10.18766,-17.46245 -4.91392,-3.76792 -5.70766,-4.0228 -16.16762,-5.1917 -15.53225,-1.73572 -17.25632,-1.68898 -17.94681,0.48655 -0.31987,1.00782 -5.64175,4.81899 -11.82639,8.46927 l -11.24481,6.63686 -7.17171,23.37454 -7.1717,23.37455 4.32217,13.40618 c 2.57901,7.99938 3.92884,13.65254 3.34691,14.01701 -0.60244,0.3773 -0.2123,3.24437 1.02056,7.5 1.0977,3.78904 2.71579,9.45195 3.59575,12.58421 1.39857,4.97825 2.32213,6.26238 7.33798,10.20282 l 5.73805,4.50781 16.28324,0.0472 c 15.24138,0.0442 16.58504,-0.10587 21,-2.34474 z m -382.21938,-2.22688 c -11.94607,-19.1957 -20.14449,-31.34944 -22.20956,-32.92454 -1.80037,-1.37322 -6.32911,-3.42983 -10.06386,-4.57026 -3.73474,-1.14043 -7.18201,-2.44548 -7.66059,-2.90011 -0.48115,-0.45707 6.47819,-12.59728 15.56736,-27.15645 9.04063,-14.48142 16.75404,-26.8645 17.14092,-27.51797 0.44817,-0.75699 -1.84417,-2.83613 -6.31736,-5.72982 -3.86142,-2.49794 -7.02077,-5.02052 -7.02077,-5.60572 0,-0.58521 -0.5625,-0.94986 -1.25,-0.81036 -0.6875,0.1395 -2.31081,-0.33247 -3.60736,-1.04881 -2.7276,-1.507 -3.0223,-1.29195 -7.46564,5.44776 -2.77435,4.20817 -6.34549,6.80959 -28.177,20.52571 -13.75,8.63874 -25.26464,15.41488 -25.5881,15.05809 -0.32345,-0.3568 -1.99077,-16.17372 -3.70516,-35.14872 l -3.11706,-34.5 7.28681,-47.6085 7.28682,-47.6085 20.91835,-38.28141 20.91834,-38.2814 14,-7.40195 c 7.7,-4.07108 20.04709,-10.59771 27.43797,-14.50363 15.02944,-7.94277 14.91393,-8.49817 1.60961,7.73949 l -7.95241,9.70578 -10.72818,30.20578 -10.72817,30.2058 2.76791,17.75983 2.76791,17.75983 -2.33732,1.06496 c -1.28553,0.58572 -2.33732,1.447 -2.33732,1.91396 0,0.46695 4.45885,9.7582 9.90855,20.64723 l 9.90854,19.79822 7.97672,3.12231 7.97672,3.12232 9.65838,-3.56204 c 9.41206,-3.47118 9.77204,-3.7213 14.11474,-9.80705 l 4.45635,-6.24502 0,-19.88153 0,-19.88154 21.8565,-21.83956 c 19.7564,-19.74109 22.03844,-21.71879 23.75,-20.58262 1.04143,0.69132 7.2935,7.02338 13.8935,14.07124 l 12,12.81429 4.59001,18.77685 c 2.52451,10.32727 5.79888,21.72447 7.27638,25.32711 l 2.68636,6.55025 8.22363,1.70439 c 12.85251,2.66374 12.96739,2.63506 21.12021,-5.27027 10.69005,-10.36557 11.07163,-11.83695 9.62372,-37.10924 -0.63486,-11.08118 -1.54953,-21.18714 -2.03258,-22.45766 -1.26767,-3.33421 -40.92901,-72.63144 -42.76827,-74.72573 -0.84917,-0.96691 -10.35843,-7.11004 -21.1317,-13.65141 -33.79888,-20.52216 -36.65125,-22.34283 -34.08776,-21.7582 1.375,0.31358 17.8,4.00103 36.5,8.19432 l 34,7.62415 12.5,8.47451 c 6.875,4.66097 22.37136,15.31452 34.43636,23.67456 l 21.93636,15.20008 7.73738,23.5 c 4.25555,12.925 11.63095,35.34724 16.38977,49.8272 l 8.6524,26.3272 -1.18698,34.51951 -1.18698,34.51951 -12.83176,38.46681 -12.83176,38.46681 -17.52404,17.94868 -17.52403,17.94869 -6.78336,14.04743 -6.78336,14.04744 -22.82975,-40.8586 c -27.47496,-49.17217 -24.73537,-46.22597 -45.69588,-49.1421 -7.4109,-1.03105 -13.98353,-1.59202 -14.60584,-1.24661 -0.6223,0.34541 -6.0223,5.21667 -12,10.82502 -5.97769,5.60835 -14.80603,13.15775 -19.61853,16.77645 -4.8125,3.61869 -8.75,6.87591 -8.75,7.23826 0,1.72117 -18.3171,77.87105 -18.86863,78.44279 -0.34726,0.35997 -9.15263,-13.038 -19.56751,-29.77328 z m 423.43614,-349.8812 c 0,-0.27501 0.225,-0.5 0.5,-0.5 0.275,0 0.5,0.22499 0.5,0.5 0,0.27499 -0.225,0.5 -0.5,0.5 -0.275,0 -0.5,-0.22501 -0.5,-0.5 z m -378.84211,-18.5 c 0,-1.375 0.22698,-1.9375 0.50439,-1.25 0.27741,0.6875 0.27741,1.8125 0,2.5 -0.27741,0.6875 -0.50439,0.125 -0.50439,-1.25 z"
         id="path3171"
         inkscape:connector-curvature="0" />
      <path
         style="fill:#000000"
         d="m 723.71428,608.69144 c -33.96978,-4.83038 -34.59796,-4.88203 -40.87428,-3.36084 -3.50585,0.8497 -6.5738,1.3454 -6.81767,1.10153 -0.24387,-0.24387 3.43628,-5.66052 8.17812,-12.03701 4.74184,-6.37648 9.47584,-13.52493 10.52001,-15.88544 2.34407,-5.29917 15.99408,-84.10547 15.99317,-92.33425 -3.5e-4,-3.23658 -2.49163,-38.95968 -5.53618,-79.38468 l -5.53553,-73.5 -7.31377,-41.5 c -4.02258,-22.825 -7.20716,-41.63664 -7.07685,-41.80365 0.13031,-0.167 7.50542,1.9705 16.38913,4.75 10.62763,3.32513 17.93447,5.05878 21.36303,5.06865 2.86595,0.008 19.61082,-2.74271 37.21082,-6.11326 l 32,-6.12826 21.7672,13.35391 21.76721,13.35392 10.63244,26.50934 10.63244,26.50935 1.67104,36.5 1.67103,36.5 -12.16411,25 -12.1641,25 -27.31104,18.91386 -27.31104,18.91387 -21.09554,-2.68765 c -11.60254,-1.4782 -21.46878,-2.67695 -21.92499,-2.66387 -0.4562,0.0131 -0.59199,1.26128 -0.30176,2.77378 0.29023,1.5125 0.77813,10.175 1.08421,19.25 1.16905,34.66021 0.75602,32.31306 11.70209,66.50001 5.45911,17.04999 10.77799,33.58749 11.81972,36.75 l 1.89405,5.75 -3.18442,-0.0968 c -1.75144,-0.0532 -18.70943,-2.30434 -37.68443,-5.0025 z m 66.22694,-158.98911 c 24.2953,-9.97017 24.76727,-10.46459 36.85938,-38.61252 l 9.17451,-21.35635 -2.38042,-11.61169 -2.38041,-11.6117 -15.85911,-14.35966 c -13.03547,-11.803 -16.41833,-14.37639 -19,-14.4536 -1.72749,-0.0517 -7.41589,-0.40624 -12.64089,-0.78795 l -9.5,-0.694 -9,6.16601 c -8.85473,6.06648 -9.13616,6.17636 -17.4357,6.80697 -4.63964,0.35253 -8.53493,0.7449 -8.6562,0.87193 -1.10022,1.15247 -4.4081,43.361 -4.4081,56.24739 0,10.86962 -0.21063,12.48359 -1.62913,12.48359 -1.42897,0 -1.54532,1.01357 -0.94701,8.25 0.37515,4.5375 0.90694,9.01654 1.18174,9.95344 0.27479,0.9369 2.83845,3.37699 5.69701,5.42242 2.85857,2.04542 6.32239,4.72681 7.69739,5.95863 2.06932,1.85384 20.06572,7.9006 24.72694,8.30821 0.67482,0.059 8.99982,-3.0825 18.5,-6.98113 z m -209.3428,160.19651 c -3.16169,-0.53171 -6.61577,-3.82213 -27.5,-26.19705 l -23.88414,-25.58895 -14.25,-40.0634 -14.25,-40.0634 -2e-4,-34.84765 -1.9e-4,-34.84764 7.63031,-25.94095 7.63031,-25.94095 9.11988,-12.23742 9.11989,-12.23743 21.5,-8.21298 c 11.825,-4.51714 26.31628,-10.10532 32.20285,-12.41819 l 10.70286,-4.2052 18.51968,19.23477 18.51968,19.23477 11.48143,35.86179 11.48142,35.86179 0.64414,34 0.64414,34 -7.65879,36.76957 -7.65879,36.76956 -10.68931,17.92954 -10.68931,17.92954 -17.32009,8.05089 c -9.52605,4.42799 -18.30105,7.98703 -19.5,7.90898 -1.19895,-0.078 -3.80705,-0.41554 -5.79577,-0.75 z m 46.33824,-49.43878 c 5.21198,-7.79313 10.05469,-15.74432 10.76158,-17.66931 0.70688,-1.92501 2.04642,-14.9702 2.97674,-28.98933 1.36805,-20.61529 1.46122,-26.54307 0.48721,-31 -0.96098,-4.39728 -14.37921,-36.27532 -15.91606,-37.81216 -0.21315,-0.21315 -7.26397,-2.11796 -15.66849,-4.23289 l -15.28095,-3.84537 -6.83256,5.06518 c -3.7579,2.78585 -7.11233,4.78541 -7.45428,4.44346 -0.34195,-0.34194 -1.38143,0.61417 -2.30996,2.12469 -0.95327,1.55077 -6.24911,5.4449 -12.16453,8.94482 l -10.47629,6.19842 -7.24961,23.56799 -7.24961,23.56799 3.68239,11.0511 c 3.65848,10.97936 3.67499,11.10422 2.5431,19.23359 -0.62661,4.50038 -1.35852,9.30751 -1.62647,10.68251 -0.38253,1.96292 1.3253,4.97055 7.94964,14 l 8.43683,11.5 17.83447,3.05262 17.83447,3.05262 10.12303,-4.38331 10.12303,-4.38332 9.47632,-14.16931 z m -387.48045,23.18991 c -1.85513,-2.94757 -7.39348,-12.05058 -12.30745,-20.2289 -8.93897,-14.87716 -12.10611,-18.48152 -25.16213,-28.63577 l -3.22142,-2.50544 15.47111,-26.91465 c 8.50911,-14.80305 15.31882,-27.06693 15.13268,-27.25307 -0.18614,-0.18614 -7.4971,-5.71319 -16.24658,-12.28234 l -15.90814,-11.94391 -10.11627,10.70243 c -7.86698,8.32279 -12.35909,12.09508 -20.20338,16.96593 -5.54791,3.44492 -10.67699,6.48985 -11.39796,6.76651 -0.98776,0.37903 -2.72682,-6.60562 -7.05577,-28.33837 l -5.74493,-28.84139 7.53161,-46.36588 7.53161,-46.36588 18.22755,-33.96896 18.22754,-33.96897 11.88887,-7.36809 c 6.53888,-4.05243 12.03955,-7.21738 12.22372,-7.03323 0.18416,0.18417 -4.37178,13.57337 -10.12432,29.75376 l -10.45917,29.41888 0.9779,6.02407 c 1.24941,7.69666 1.26104,7.52405 -0.507,7.52405 -1.85603,0 -1.85638,0.20281 -0.0654,37.1508 0.76385,15.75794 1.84759,29.48293 2.4083,30.5 0.56072,1.01706 4.807,5.59618 9.43618,10.17581 l 8.4167,8.32662 16.1138,1.51121 16.1138,1.51121 10.78829,-8.78103 c 5.93357,-4.82957 10.90907,-8.85236 11.05667,-8.93954 0.14761,-0.0872 1.62307,-13.38772 3.2788,-29.55679 1.80584,-17.63497 3.57396,-30.48729 4.4188,-32.11986 1.81692,-3.51099 28.47905,-37.77843 29.39392,-37.77843 0.64073,0 5.19612,4.58821 18.99245,19.1293 l 5.34099,5.62931 -1.59665,14.62577 c -2.49929,22.89418 -3.49859,19.86876 10.50447,31.80263 12.84024,10.94289 12.58782,10.83882 21.89888,9.02805 10.73295,-2.0873 14.32711,-3.99062 21.86434,-11.5785 l 7.183,-7.23126 4.51818,-16.6564 4.51817,-16.65639 -1.47674,-8.46042 -1.47674,-8.46043 -21.21695,-31.83583 c -16.28763,-24.43944 -24.49237,-35.67093 -35.3151,-48.34296 -7.75399,-9.07891 -14.68719,-17.25699 -15.40712,-18.1735 -1.21473,-1.54643 -0.89078,-1.56727 4.5,-0.28948 3.19493,0.7573 10.35128,2.35801 15.90301,3.55715 l 10.09404,2.18025 34.33047,23.61635 34.33046,23.61636 2.7635,8.5 c 1.51993,4.675 8.84041,27.07524 16.26774,49.77834 l 13.50424,41.27834 -1.01985,34.22166 -1.01985,34.22166 -13.05348,39.08026 -13.05348,39.08027 -16.88013,16.91973 c -9.28407,9.30586 -17.80993,18.65761 -18.94635,20.78168 -1.91379,3.57704 -2.15948,3.72458 -3.33016,2 -0.69516,-1.02407 -7.61023,-14.24428 -15.36681,-29.37826 l -14.10288,-27.51631 -8.80575,-5.62855 -8.80576,-5.62855 -21,-0.93088 c -11.55,-0.51198 -21.45,-0.62134 -22,-0.24302 -0.55,0.37831 -2.125,0.96815 -3.5,1.31074 -1.375,0.34259 -5.2,2.35564 -8.5,4.47344 -5.21593,3.34736 -6.23503,4.52816 -7.79857,9.03595 -1.63985,4.72783 -2.70859,5.86743 -12.11144,12.91444 l -10.31287,7.72905 -8.28372,35.00001 c -4.55605,19.25 -8.41755,35.16165 -8.58111,35.35922 -0.16357,0.19757 -1.81523,-2.05243 -3.67036,-5 z"
         id="path3169"
         inkscape:connector-curvature="0" />
    </g>
  </g>
</svg>
