<?xml version="1.0" encoding="UTF-8" standalone="no"?>
<!-- Created with Inkscape (http://www.inkscape.org/) -->

<svg
   xmlns:dc="http://purl.org/dc/elements/1.1/"
   xmlns:cc="http://creativecommons.org/ns#"
   xmlns:rdf="http://www.w3.org/1999/02/22-rdf-syntax-ns#"
   xmlns:svg="http://www.w3.org/2000/svg"
   xmlns="http://www.w3.org/2000/svg"
   xmlns:sodipodi="http://sodipodi.sourceforge.net/DTD/sodipodi-0.dtd"
   xmlns:inkscape="http://www.inkscape.org/namespaces/inkscape"
   width="320"
   height="320"
   viewBox="0 0 320.00001 320.00001"
   id="svg4164"
   version="1.1"
   inkscape:version="0.91 r13725"
   sodipodi:docname="drawing3.svg">
  <defs
     id="defs4166" />
  <sodipodi:namedview
     id="base"
     pagecolor="#ffffff"
     bordercolor="#666666"
     borderopacity="1.0"
     inkscape:pageopacity="0.0"
     inkscape:pageshadow="2"
     inkscape:zoom="0.7743275"
     inkscape:cx="149.8973"
     inkscape:cy="125.64778"
     inkscape:document-units="px"
     inkscape:current-layer="layer1"
     showgrid="true"
     units="px"
     inkscape:window-width="1366"
     inkscape:window-height="709"
     inkscape:window-x="0"
     inkscape:window-y="0"
     inkscape:window-maximized="1">
    <inkscape:grid
       type="xygrid"
       id="grid4176"
       snapvisiblegridlinesonly="false" />
  </sodipodi:namedview>
  <metadata
     id="metadata4169">
    <rdf:RDF>
      <cc:Work
         rdf:about="">
        <dc:format>image/svg+xml</dc:format>
        <dc:type
           rdf:resource="http://purl.org/dc/dcmitype/StillImage" />
        <dc:title />
      </cc:Work>
    </rdf:RDF>
  </metadata>
  <g
     inkscape:label="Layer 1"
     inkscape:groupmode="layer"
     id="layer1"
     transform="translate(0,-732.36222)"
     style="display:inline">
    <circle
       style="fill:#000000;fill-opacity:1;fill-rule:evenodd;stroke:none;stroke-width:1px;stroke-linecap:butt;stroke-linejoin:miter;stroke-opacity:1;image-rendering:auto"
       id="path3558"
       cx="158"
       cy="892"
       r="162" />
    <circle
       style="fill:#ffff00;fill-opacity:1"
       id="path4362"
       cx="158"
       cy="892"
       r="144.5" />
    <circle
       style="fill:#000000;fill-opacity:1"
       id="path4364"
       cx="158"
       cy="892"
       r="126.5" />
    <path
       style="fill:#ffff00;fill-opacity:1"
       d="m 161.50939,925.23277 c 23.47352,-18.46426 24.35742,-18.46426 47.15983,0 34.80772,28.18559 40.91111,23.58011 40.91111,-30.87054 0,-54.45066 -6.10339,-59.05614 -40.91111,-30.87055 -22.80241,18.46426 -23.68631,18.46426 -47.15983,0 -13.15703,-10.34933 -34.49848,-18.81695 -47.42546,-18.81695 -23.613568,0 -63.253582,31.13836 -63.253582,49.6875 0,18.54913 39.640014,49.68749 63.253582,49.68749 12.92698,0 34.26843,-8.46762 47.42546,-18.81695 z"
       id="path4915"
       inkscape:connector-curvature="0" />
    <path
       style="fill:#000000"
       d="m 80.642845,909.26847 c -16.169884,-19.48352 3.072341,-44.71874 34.098685,-44.71874 11.95019,0 30.4081,6.70781 41.01758,14.90625 19.09497,14.75555 19.09497,15.05694 0,29.81249 -10.60948,8.19844 -29.06739,14.90625 -41.01758,14.90625 -11.95018,0 -27.294586,-6.70781 -34.098685,-14.90625 z"
       id="path4913"
       inkscape:connector-curvature="0" />
    <path
       style="fill:#ffff00;fill-opacity:1"
       d="m 110.45534,883.83824 c 0,-5.78818 -4.47187,-7.76021 -9.9375,-4.38226 -5.465621,3.37794 -9.937496,8.11373 -9.937496,10.52398 0,2.41025 4.471875,4.38227 9.937496,4.38227 5.46563,0 9.9375,-4.7358 9.9375,-10.52399 z"
       id="path4911"
       inkscape:connector-curvature="0" />
    <path
       style="fill:#000000"
       d="m 209.41641,907.47829 c -10.56138,-12.72568 -9.90882,-18.28119 3.75196,-31.94196 15.42428,-15.42429 16.53696,-14.38778 16.53696,15.40499 0,36.23052 -2.35302,38.14841 -20.28892,16.53697 z"
       id="path4259"
       inkscape:connector-curvature="0" />
  </g>
</svg>
