<svg xmlns="http://www.w3.org/2000/svg" xmlns:xlink="http://www.w3.org/1999/xlink" width="300" height="300" viewBox="0 0 300 300">
  <defs>
    <style>
      .cls-1, .cls-2, .cls-3 {
        fill: #fff;
        fill-rule: evenodd;
      }

      .cls-1 {
        stroke: #fff;
        stroke-width: 30px;
        filter: url(#filter);
      }

      .cls-2 {
        filter: url(#filter-2);
      }

      .cls-3 {
        filter: url(#filter-3);
      }
    </style>
    <filter id="filter" x="5" y="12" width="290" height="275" filterUnits="userSpaceOnUse">
      <feFlood result="flood" flood-color="#fff"/>
      <feComposite result="composite" operator="in" in2="SourceGraphic"/>
      <feBlend result="blend" in2="SourceGraphic"/>
    </filter>
    <filter id="filter-2" x="20" y="27" width="260.031" height="245" filterUnits="userSpaceOnUse">
      <feFlood result="flood" flood-color="#1b293d"/>
      <feComposite result="composite" operator="in" in2="SourceGraphic"/>
      <feBlend result="blend" in2="SourceGraphic"/>
    </filter>
    <filter id="filter-3" x="65.5" y="89.5" width="207.219" height="89.188" filterUnits="userSpaceOnUse">
      <feFlood result="flood" flood-color="#34547f"/>
      <feComposite result="composite" operator="in" in2="SourceGraphic"/>
      <feBlend result="blend" in2="SourceGraphic"/>
    </filter>
  </defs>
  <g style="fill: #fff; filter: url(#filter)">
    <path id="outer" class="cls-1" d="M279.932,192.669c0.829,20.631-7.067,49.708-11.552,65.834-1.217,4.376-8.952,11.26-14.441,12.3-8.755,1.656-37.061,1.787-56.319-.724s-66.67-16.841-127.8-21.7C54.286,247.139,55.539,228.21,49.6,227.4c-4.6-.631-18.2-7.77-18.773-15.916s-1.119-19.038-1.444-26.044c-6.5-22.728-9.63-35.854-9.386-47.748s4.365-27.283,7.942-36.9S68.565,26.106,145.634,27c56.18,0.652,82,32.825,93.142,54.982,1.716,2.519,3.265,4.575,5.055,7.511,9.924,12.417,20.8,41.53,25.916,59.57C271.683,155.893,279.1,172.039,279.932,192.669Z" style="stroke: inherit; filter: none; fill: inherit"/>
  </g>
  <use xlink:href="#outer" style="stroke: #fff; filter: none; fill: none"/>
  <path id="inner_edge_copy" data-name="inner edge copy" class="cls-2" d="M82,105c83.819-3.726,116.8-17.76,154-28-8.819-16.616-34.186-49.348-90.366-50C68.565,26.106,31.52,91.179,27.942,100.792s-7.7,25-7.942,36.9,2.882,25.02,9.386,47.748c0.325,7.006.875,17.9,1.444,26.044S45.006,226.764,49.6,227.4c5.935,0.815,4.683,19.744,20.217,20.98,61.13,4.862,108.543,19.193,127.8,21.7s47.564,2.38,56.319.724c5.489-1.039,13.224-7.923,14.441-12.3,4.485-16.126,12.577-45.212,11.552-65.834-0.57-11.481-.084-14.5-1.932-13.669-30.473,13.748-74.073,14.788-127,13-42.9-1.449-63.541-24.7-75-36-26.936-26.552-26.694-35.993-23-43C56.956,105.5,66.89,105.672,82,105Z"/>
  <path id="inner_glass" data-name="inner glass" class="cls-3" d="M65.488,120.6c85.349-2.344,126.169-15.127,178.343-31.108,13.681,17.117,29.175,65.964,28.881,73.792-0.354,9.446-78.592,21.218-137.748,12.154C106.452,171.07,78.53,139.155,65.488,120.6Z"/>
</svg>
