<?xml version="1.0" encoding="UTF-8" standalone="no"?>
<!-- Created with Inkscape (http://www.inkscape.org/) -->

<svg
   xmlns:dc="http://purl.org/dc/elements/1.1/"
   xmlns:cc="http://creativecommons.org/ns#"
   xmlns:rdf="http://www.w3.org/1999/02/22-rdf-syntax-ns#"
   xmlns:svg="http://www.w3.org/2000/svg"
   xmlns="http://www.w3.org/2000/svg"
   xmlns:xlink="http://www.w3.org/1999/xlink"
   xmlns:sodipodi="http://sodipodi.sourceforge.net/DTD/sodipodi-0.dtd"
   xmlns:inkscape="http://www.inkscape.org/namespaces/inkscape"
   width="33"
   height="33"
   id="svg3652"
   version="1.1"
   inkscape:version="0.48.5 r10040"
   sodipodi:docname="anki.svg">
  <defs
     id="defs3654">
    <linearGradient
       inkscape:collect="always"
       xlink:href="#linearGradient3769"
       id="linearGradient2973"
       gradientUnits="userSpaceOnUse"
       gradientTransform="matrix(0.954545,0,0,0.965517,1.704545,0.551724)"
       x1="15.5"
       y1="5.9497476"
       x2="4"
       y2="31" />
    <linearGradient
       id="linearGradient3769"
       inkscape:collect="always">
      <stop
         id="stop3771"
         offset="0"
         style="stop-color:#3c3c3c;stop-opacity:1" />
      <stop
         id="stop3773"
         offset="1"
         style="stop-color:#9e9e9e;stop-opacity:1" />
    </linearGradient>
    <linearGradient
       inkscape:collect="always"
       xlink:href="#linearGradient4825"
       id="linearGradient2975"
       gradientUnits="userSpaceOnUse"
       x1="253.74718"
       y1="412.82977"
       x2="188.00023"
       y2="542.33295" />
    <linearGradient
       id="linearGradient4825">
      <stop
         id="stop4827"
         offset="0"
         style="stop-color:#0084dd;stop-opacity:1" />
      <stop
         id="stop4829"
         offset="1"
         style="stop-color:white;stop-opacity:1" />
    </linearGradient>
    <linearGradient
       inkscape:collect="always"
       xlink:href="#linearGradient4825"
       id="linearGradient2977"
       gradientUnits="userSpaceOnUse"
       x1="253.74718"
       y1="412.82977"
       x2="188.00023"
       y2="542.33295" />
    <linearGradient
       id="linearGradient3681">
      <stop
         id="stop3683"
         offset="0"
         style="stop-color:#0084dd;stop-opacity:1" />
      <stop
         id="stop3685"
         offset="1"
         style="stop-color:white;stop-opacity:1" />
    </linearGradient>
    <linearGradient
       inkscape:collect="always"
       xlink:href="#linearGradient4843"
       id="linearGradient2979"
       gradientUnits="userSpaceOnUse"
       gradientTransform="matrix(0.09240924,0,0,0.09240924,-5.65772,-25.6423)"
       x1="247"
       y1="441.86218"
       x2="292"
       y2="282.36218" />
    <linearGradient
       id="linearGradient4843">
      <stop
         style="stop-color:white;stop-opacity:0.49411765;"
         offset="0"
         id="stop4845" />
      <stop
         style="stop-color:white;stop-opacity:0.25098041;"
         offset="1"
         id="stop4847" />
    </linearGradient>
    <linearGradient
       y2="282.36218"
       x2="292"
       y1="441.86218"
       x1="247"
       gradientTransform="matrix(0.09240924,0,0,0.09240924,-5.65772,-25.6423)"
       gradientUnits="userSpaceOnUse"
       id="linearGradient3698"
       xlink:href="#linearGradient4843"
       inkscape:collect="always" />
    <linearGradient
       inkscape:collect="always"
       xlink:href="#linearGradient3769"
       id="linearGradient3094"
       gradientUnits="userSpaceOnUse"
       gradientTransform="matrix(0.954545,0,0,0.965517,1.704545,0.551724)"
       x1="15.5"
       y1="5.9497476"
       x2="4"
       y2="31" />
    <linearGradient
       inkscape:collect="always"
       xlink:href="#linearGradient4825"
       id="linearGradient3096"
       gradientUnits="userSpaceOnUse"
       x1="253.74718"
       y1="412.82977"
       x2="188.00023"
       y2="542.33295" />
    <linearGradient
       inkscape:collect="always"
       xlink:href="#linearGradient4825"
       id="linearGradient3098"
       gradientUnits="userSpaceOnUse"
       x1="253.74718"
       y1="412.82977"
       x2="188.00023"
       y2="542.33295" />
    <linearGradient
       inkscape:collect="always"
       xlink:href="#linearGradient4843"
       id="linearGradient3100"
       gradientUnits="userSpaceOnUse"
       gradientTransform="matrix(0.09240924,0,0,0.09240924,-5.65772,-25.6423)"
       x1="247"
       y1="441.86218"
       x2="292"
       y2="282.36218" />
    <linearGradient
       inkscape:collect="always"
       xlink:href="#linearGradient4843"
       id="linearGradient3103"
       gradientUnits="userSpaceOnUse"
       gradientTransform="matrix(0.09240924,0,0,0.09240924,-5.65772,-25.1423)"
       x1="247"
       y1="441.86218"
       x2="292"
       y2="282.36218" />
    <linearGradient
       inkscape:collect="always"
       xlink:href="#linearGradient3769"
       id="linearGradient3109"
       gradientUnits="userSpaceOnUse"
       gradientTransform="matrix(0.954545,0,0,0.965517,1.704545,1020.4139)"
       x1="15.5"
       y1="5.9497476"
       x2="4"
       y2="31" />
  </defs>
  <sodipodi:namedview
     id="base"
     pagecolor="#ffffff"
     bordercolor="#666666"
     borderopacity="1.0"
     inkscape:pageopacity="0.0"
     inkscape:pageshadow="2"
     inkscape:zoom="22.627417"
     inkscape:cx="7.6663386"
     inkscape:cy="15.935691"
     inkscape:document-units="px"
     inkscape:current-layer="layer1"
     showgrid="false"
     inkscape:window-width="1920"
     inkscape:window-height="1145"
     inkscape:window-x="-2"
     inkscape:window-y="-3"
     inkscape:window-maximized="1"
     inkscape:snap-global="false" />
  <metadata
     id="metadata3657">
    <rdf:RDF>
      <cc:Work
         rdf:about="">
        <dc:format>image/svg+xml</dc:format>
        <dc:type
           rdf:resource="http://purl.org/dc/dcmitype/StillImage" />
        <dc:title></dc:title>
      </cc:Work>
    </rdf:RDF>
  </metadata>
  <g
     inkscape:label="Layer 1"
     inkscape:groupmode="layer"
     id="layer1"
     transform="translate(0,-1019.3622)">
    <path
       style="fill:#000000;fill-opacity:1;stroke:none;display:inline"
       d="M 9.625 1.5 C 7.0662299 1.5 5 3.5662299 5 6.125 L 5 26.875 C 5 29.43377 7.0662299 31.5 9.625 31.5 L 23.375 31.5 C 25.93377 31.5 28 29.43377 28 26.875 L 28 6.125 C 28 3.5662299 25.93377 1.5 23.375 1.5 L 9.625 1.5 z "
       transform="translate(0,1019.3622)"
       id="rect2802" />
    <rect
       rx="4"
       ry="4"
       y="1021.8622"
       x="6"
       height="28"
       width="21"
       id="rect4875"
       style="fill:url(#linearGradient3109);fill-opacity:1;stroke:none" />
    <path
       sodipodi:type="star"
       style="fill:none;stroke:none"
       id="path4877"
       sodipodi:sides="5"
       sodipodi:cx="229"
       sodipodi:cy="456"
       sodipodi:r1="121.55363"
       sodipodi:r2="60.646587"
       sodipodi:arg1="0.81345017"
       sodipodi:arg2="1.4167054"
       inkscape:flatsided="false"
       inkscape:rounded="0.36"
       inkscape:randomized="0"
       d="m 312.50679,544.32837 c -20.28396,20.1643 -45.83498,-32.08006 -74.19864,-28.40036 -29.32333,3.80421 -41.202,60.28859 -67.50841,46.78663 -25.44547,-13.06007 16.34617,-53.50493 4.08171,-79.34329 -12.67942,-26.71258 -70.06997,-20.55523 -65.35797,-49.74645 4.55778,-28.23586 55.93746,-0.9878 76.72126,-20.63649 21.48703,-20.31349 -2.10362,-72.99241 27.11497,-77.53162 28.26233,-4.39065 18.22508,52.89443 43.33464,66.58923 25.95913,14.15816 68.76986,-24.55656 82.11594,1.82928 12.9093,25.52229 -44.67374,33.67836 -49.93898,61.7909 -5.4434,29.06371 44.60573,57.81562 23.63548,78.66217 z"
       transform="matrix(0.09169279,0.01148462,-0.01148462,0.09169279,1.24989,991.24215)" />
    <path
       transform="matrix(0.07507522,4.398431e-4,-4.398431e-4,0.07507522,-2.36792,1006.9382)"
       d="m 294.46869,523.45259 c -9.08043,8.81335 -45.57491,-17.76993 -58.10148,-15.97712 -12.52658,1.79282 -40.09949,37.54547 -51.28749,31.63294 -11.18801,-5.91252 2.81678,-48.83551 -2.75921,-60.19499 -5.57599,-11.35947 -48.09928,-26.53469 -45.93342,-39.00218 2.16586,-12.46749 47.31577,-12.41208 56.39619,-21.22544 9.08043,-8.81335 10.3725,-53.9448 22.89908,-55.73762 12.52657,-1.79281 26.42597,41.16443 37.61397,47.07695 11.188,5.91252 54.50984,-6.80503 60.08583,4.55445 5.57599,11.35947 -30.98363,37.85309 -33.14948,50.32059 -2.16586,12.46749 23.31643,49.73906 14.23601,58.55242 z"
       inkscape:randomized="0"
       inkscape:rounded="0.21"
       inkscape:flatsided="false"
       sodipodi:arg2="1.428641"
       sodipodi:arg1="0.80032243"
       sodipodi:r2="52"
       sodipodi:r1="94"
       sodipodi:cy="456"
       sodipodi:cx="229"
       sodipodi:sides="5"
       id="path4879"
       style="fill:url(#linearGradient3096);fill-opacity:1;stroke:#ffffff;stroke-width:15.98369503;stroke-miterlimit:4;stroke-opacity:1;stroke-dasharray:none"
       sodipodi:type="star" />
    <path
       sodipodi:type="star"
       style="fill:url(#linearGradient3098);fill-opacity:1;stroke:#ffffff;stroke-width:24.86989784;stroke-miterlimit:4;stroke-opacity:1;stroke-dasharray:none"
       id="path4889"
       sodipodi:sides="5"
       sodipodi:cx="229"
       sodipodi:cy="456"
       sodipodi:r1="94"
       sodipodi:r2="52"
       sodipodi:arg1="0.80032243"
       sodipodi:arg2="1.428641"
       inkscape:flatsided="false"
       inkscape:rounded="0.21"
       inkscape:randomized="0"
       d="m 294.46869,523.45259 c -9.08043,8.81335 -45.57491,-17.76993 -58.10148,-15.97712 -12.52658,1.79282 -40.09949,37.54547 -51.28749,31.63294 -11.18801,-5.91252 2.81678,-48.83551 -2.75921,-60.19499 -5.57599,-11.35947 -48.09928,-26.53469 -45.93342,-39.00218 2.16586,-12.46749 47.31577,-12.41208 56.39619,-21.22544 9.08043,-8.81335 10.3725,-53.9448 22.89908,-55.73762 12.52657,-1.79281 26.42597,41.16443 37.61397,47.07695 11.188,5.91252 54.50984,-6.80503 60.08583,4.55445 5.57599,11.35947 -30.98363,37.85309 -33.14948,50.32059 -2.16586,12.46749 23.31643,49.73906 14.23601,58.55242 z"
       transform="matrix(0.03131375,-0.02522366,0.02522366,0.03131375,2.32085,1020.069)" />
    <path
       style="fill:url(#linearGradient3103);fill-opacity:1;stroke:none;display:inline"
       d="M 9.625 1.5 C 7.0662299 1.5 5 3.5662 5 6.125 L 5 11.09375 C 13.080118 11.574249 23.411903 16.044761 28 19.625 L 28 6.125 C 28 3.5662 25.933769 1.5 23.375 1.5 L 9.625 1.5 z "
       transform="translate(0,1019.3622)"
       id="path4881" />
  </g>
</svg>
