<svg version="1.2" width="3617.8" height="3617.8" xmlns="http://www.w3.org/2000/svg"><path fill="#077" d="M2873.385 670.476H748.415c-251.482 0-455.386 203.904-455.386 455.386v1366.076c0 251.482 203.904 455.387 455.386 455.387h2124.97c251.482 0 455.386-203.905 455.386-455.387V1125.862c-.084-251.482-203.904-455.386-455.386-455.386z"/><g fill="#bf4"><path d="M1611.61 1125.862h398.58c15.69 0 28.361 12.755 28.361 28.362v398.579c0 15.691-12.754 28.362-28.362 28.362h-398.578c-15.692 0-28.362-12.755-28.362-28.362v-398.579c0-15.691 12.67-28.362 28.362-28.362zM1611.61 2491.854h1717.077v-455.303H1611.611c-15.692 0-28.362 12.671-28.362 28.362v398.579c0 15.691 12.67 28.362 28.362 28.362z"/></g></svg>