<svg width="192" height="200" fill="none" xmlns="http://www.w3.org/2000/svg"><path d="M12.06 8.624L122.978.456c13.62-1.168 17.124-.386 25.685 5.833l35.406 24.885c5.842 4.28 7.789 5.444 7.789 10.11v136.483c0 8.554-3.116 13.612-14.01 14.386l-128.806 7.778c-8.178.39-12.07-.775-16.353-6.222L6.615 159.88C1.943 153.653 0 148.995 0 143.544V22.228c0-6.995 3.117-12.83 12.06-13.604z" fill="#fff"/><path fill-rule="evenodd" clip-rule="evenodd" d="M122.977.456L12.061 8.624C3.117 9.4 0 15.234 0 22.228v121.316c0 5.451 1.943 10.109 6.615 16.336l26.073 33.829c4.283 5.447 8.175 6.612 16.353 6.222l128.806-7.778c10.894-.774 14.01-5.832 14.01-14.386V41.283c0-4.422-1.749-5.699-6.907-9.464l-.882-.645-35.406-24.885C140.101.07 136.597-.712 122.977.456zM51.972 39.045c-10.517.71-12.906.871-18.878-3.98L17.907 23.01c-1.549-1.559-.772-3.503 3.117-3.889l106.633-7.777c8.948-.78 13.617 2.336 17.122 5.057l18.289 13.221c.779.388 2.721 2.718.385 2.718L53.329 38.953l-1.357.092zM39.688 176.598V60.728c0-5.053 1.557-7.388 6.224-7.78l126.474-7.386c4.29-.389 6.232 2.335 6.232 7.386V168.04c0 5.058-.78 9.342-7.788 9.727L49.804 184.77c-7.004.385-10.116-1.944-10.116-8.172zM159.17 66.944c.776 3.503 0 7.003-3.509 7.397l-5.832 1.162v85.542c-5.063 2.721-9.731 4.277-13.622 4.277-6.229 0-7.789-1.946-12.454-7.775l-38.143-59.88v57.936l12.07 2.723s0 6.996-9.738 6.996l-26.846 1.557c-.78-1.557 0-5.442 2.723-6.221l7.005-1.941V82.115l-9.726-.78c-.78-3.502 1.163-8.553 6.615-8.945l28.799-1.941 39.695 60.659V77.447l-10.121-1.162c-.776-4.282 2.332-7.392 6.224-7.777l26.86-1.564z" fill="#000"/></svg>