<svg width="82" height="82" viewBox="0 0 82 82" fill="none" xmlns="http://www.w3.org/2000/svg">
<path fill-rule="evenodd" clip-rule="evenodd" d="M51.1238 72.178C56.0945 72.178 60.9675 70.6955 65.2301 67.8983C72.8426 61.0365 77.2085 51.2429 77.2085 41.001C77.2085 30.76 72.8435 20.9673 65.233 14.1055C60.9685 11.3064 56.0945 9.82391 51.1238 9.82391C42.9891 9.82391 35.2743 13.7823 29.9596 20.6839C25.8287 25.5636 23.3946 32.632 23.2259 40.146L23.2268 41.8986C23.3946 49.3689 25.8287 56.4373 29.9046 61.2488C29.9236 61.2725 29.9416 61.2943 29.9605 61.318C35.2743 68.2196 42.9882 72.178 51.1238 72.178ZM4.79151 41.001C4.79151 60.3739 19.9386 76.2596 39.2734 77.1667C43.0185 77.3449 46.8366 76.9317 50.4347 75.961C41.3834 75.7449 32.8705 71.2927 26.9823 63.6659C22.3728 58.2042 19.623 50.2884 19.4353 41.9413V40.1033C19.623 31.6946 22.3841 23.7636 27.0107 18.3028C32.8459 10.7225 41.3683 6.257 50.4319 6.04088C47.4252 5.23043 44.3029 4.80483 41.136 4.79346L41.0355 4.79251C21.0344 4.79156 4.79151 21.0355 4.79151 41.001ZM41.1085 1.0019C50.9485 1.03886 60.3628 4.65411 67.6596 11.1832C76.1374 18.7672 81 29.6358 81 41.001C81 52.3671 76.1364 63.2356 67.6567 70.8206L67.6482 70.8263C60.3116 77.3876 50.847 81 41.0005 81C40.3626 81 39.7284 80.9839 39.0981 80.9545C17.7338 79.9526 1 62.4024 1 41.001C1 18.9445 18.9443 1 41.0005 1C41.0119 1 41.0962 1.00095 41.1085 1.0019ZM60.3806 41.0521C60.3806 29.9677 55.4671 20.3855 48.3312 15.8031C57.44 16.558 64.6687 27.5722 64.6687 41.0521C64.6687 54.5321 57.44 65.5463 48.3312 66.3012C55.4671 61.7197 60.3806 52.1365 60.3806 41.0521Z" fill="#FA1E4E"/>
</svg>
