<?xml version="1.0" encoding="UTF-8"?>
<!DOCTYPE svg PUBLIC "-//W3C//DTD SVG 1.1//EN" "http://www.w3.org/Graphics/SVG/1.1/DTD/svg11.dtd">
<svg xmlns="http://www.w3.org/2000/svg" version="1.1" width="500px" height="500px" style="shape-rendering:geometricPrecision; text-rendering:geometricPrecision; image-rendering:optimizeQuality; fill-rule:evenodd; clip-rule:evenodd" xmlns:xlink="http://www.w3.org/1999/xlink">
<g><path style="opacity:1" fill="#521b93" d="M 179.5,119.5 C 172.833,119.5 166.167,119.5 159.5,119.5C 159.5,112.833 159.5,106.167 159.5,99.5C 166.167,99.5 172.833,99.5 179.5,99.5C 179.5,106.167 179.5,112.833 179.5,119.5 Z"/></g>
<g><path style="opacity:1" fill="#5d5e5d" d="M 339.5,119.5 C 332.833,119.5 326.167,119.5 319.5,119.5C 319.5,112.833 319.5,106.167 319.5,99.5C 326.167,99.5 332.833,99.5 339.5,99.5C 339.5,106.167 339.5,112.833 339.5,119.5 Z"/></g>
<g><path style="opacity:1" fill="#521b93" d="M 159.5,119.5 C 159.5,126.167 159.5,132.833 159.5,139.5C 146.167,139.5 132.833,139.5 119.5,139.5C 119.5,132.833 119.5,126.167 119.5,119.5C 132.833,119.5 146.167,119.5 159.5,119.5 Z"/></g>
<g><path style="opacity:1" fill="#000000" d="M 159.5,119.5 C 166.167,119.5 172.833,119.5 179.5,119.5C 179.5,126.167 179.5,132.833 179.5,139.5C 192.833,139.5 206.167,139.5 219.5,139.5C 219.5,146.167 219.5,152.833 219.5,159.5C 226.167,159.5 232.833,159.5 239.5,159.5C 239.5,186.167 239.5,212.833 239.5,239.5C 232.833,239.5 226.167,239.5 219.5,239.5C 219.5,246.167 219.5,252.833 219.5,259.5C 206.167,259.5 192.833,259.5 179.5,259.5C 179.5,266.167 179.5,272.833 179.5,279.5C 172.833,279.5 166.167,279.5 159.5,279.5C 159.5,272.833 159.5,266.167 159.5,259.5C 146.167,259.5 132.833,259.5 119.5,259.5C 119.5,252.833 119.5,246.167 119.5,239.5C 112.833,239.5 106.167,239.5 99.5,239.5C 99.5,212.833 99.5,186.167 99.5,159.5C 106.167,159.5 112.833,159.5 119.5,159.5C 119.5,152.833 119.5,146.167 119.5,139.5C 132.833,139.5 146.167,139.5 159.5,139.5C 159.5,132.833 159.5,126.167 159.5,119.5 Z"/></g>
<g><path style="opacity:1" fill="#521b93" d="M 179.5,119.5 C 192.833,119.5 206.167,119.5 219.5,119.5C 219.5,126.167 219.5,132.833 219.5,139.5C 206.167,139.5 192.833,139.5 179.5,139.5C 179.5,132.833 179.5,126.167 179.5,119.5 Z"/></g>
<g><path style="opacity:1" fill="#5d5e5d" d="M 319.5,119.5 C 319.5,126.167 319.5,132.833 319.5,139.5C 306.167,139.5 292.833,139.5 279.5,139.5C 279.5,132.833 279.5,126.167 279.5,119.5C 292.833,119.5 306.167,119.5 319.5,119.5 Z"/></g>
<g><path style="opacity:1" fill="#000000" d="M 319.5,119.5 C 326.167,119.5 332.833,119.5 339.5,119.5C 339.5,126.167 339.5,132.833 339.5,139.5C 352.833,139.5 366.167,139.5 379.5,139.5C 379.5,146.167 379.5,152.833 379.5,159.5C 386.167,159.5 392.833,159.5 399.5,159.5C 399.5,186.167 399.5,212.833 399.5,239.5C 392.833,239.5 386.167,239.5 379.5,239.5C 379.5,246.167 379.5,252.833 379.5,259.5C 366.167,259.5 352.833,259.5 339.5,259.5C 339.5,266.167 339.5,272.833 339.5,279.5C 332.833,279.5 326.167,279.5 319.5,279.5C 319.5,272.833 319.5,266.167 319.5,259.5C 306.167,259.5 292.833,259.5 279.5,259.5C 279.5,252.833 279.5,246.167 279.5,239.5C 272.833,239.5 266.167,239.5 259.5,239.5C 259.5,212.833 259.5,186.167 259.5,159.5C 266.167,159.5 272.833,159.5 279.5,159.5C 279.5,152.833 279.5,146.167 279.5,139.5C 292.833,139.5 306.167,139.5 319.5,139.5C 319.5,132.833 319.5,126.167 319.5,119.5 Z"/></g>
<g><path style="opacity:1" fill="#5d5e5d" d="M 339.5,119.5 C 352.833,119.5 366.167,119.5 379.5,119.5C 379.5,126.167 379.5,132.833 379.5,139.5C 366.167,139.5 352.833,139.5 339.5,139.5C 339.5,132.833 339.5,126.167 339.5,119.5 Z"/></g>
<g><path style="opacity:1" fill="#521b93" d="M 119.5,139.5 C 119.5,146.167 119.5,152.833 119.5,159.5C 112.833,159.5 106.167,159.5 99.5,159.5C 99.5,152.833 99.5,146.167 99.5,139.5C 106.167,139.5 112.833,139.5 119.5,139.5 Z"/></g>
<g><path style="opacity:1" fill="#521b93" d="M 219.5,139.5 C 226.167,139.5 232.833,139.5 239.5,139.5C 239.5,146.167 239.5,152.833 239.5,159.5C 239.5,152.833 239.5,146.167 239.5,139.5C 232.833,139.5 226.167,139.5 219.5,139.5 Z"/></g>
<g><path style="opacity:1" fill="#5d5e5d" d="M 279.5,139.5 C 279.5,146.167 279.5,152.833 279.5,159.5C 272.833,159.5 266.167,159.5 259.5,159.5C 259.5,152.833 259.5,146.167 259.5,139.5C 266.167,139.5 272.833,139.5 279.5,139.5 Z"/></g>
<g><path style="opacity:1" fill="#5d5e5d" d="M 379.5,139.5 C 386.167,139.5 392.833,139.5 399.5,139.5C 399.5,146.167 399.5,152.833 399.5,159.5C 399.5,152.833 399.5,146.167 399.5,139.5C 392.833,139.5 386.167,139.5 379.5,139.5 Z"/></g>
<g><path style="opacity:1" fill="#521b93" d="M 99.5,159.5 C 99.5,186.167 99.5,212.833 99.5,239.5C 92.8333,239.5 86.1667,239.5 79.5,239.5C 79.5,212.833 79.5,186.167 79.5,159.5C 86.1667,159.5 92.8333,159.5 99.5,159.5 Z"/></g>
<g><path style="opacity:1" fill="#00fdfe" d="M 139.5,159.5 C 146.167,159.5 152.833,159.5 159.5,159.5C 159.5,166.167 159.5,172.833 159.5,179.5C 152.833,179.5 146.167,179.5 139.5,179.5C 139.5,172.833 139.5,166.167 139.5,159.5 Z"/></g>
<g><path style="opacity:1" fill="#00fdfe" d="M 179.5,159.5 C 186.167,159.5 192.833,159.5 199.5,159.5C 199.5,166.167 199.5,172.833 199.5,179.5C 192.833,179.5 186.167,179.5 179.5,179.5C 179.5,172.833 179.5,166.167 179.5,159.5 Z"/></g>
<g><path style="opacity:1" fill="#521b93" d="M 239.5,159.5 C 246.167,159.5 252.833,159.5 259.5,159.5C 259.5,186.167 259.5,212.833 259.5,239.5C 252.833,239.5 246.167,239.5 239.5,239.5C 239.5,212.833 239.5,186.167 239.5,159.5 Z"/></g>
<g><path style="opacity:1" fill="#fe2f91" d="M 299.5,159.5 C 306.167,159.5 312.833,159.5 319.5,159.5C 319.5,166.167 319.5,172.833 319.5,179.5C 312.833,179.5 306.167,179.5 299.5,179.5C 299.5,172.833 299.5,166.167 299.5,159.5 Z"/></g>
<g><path style="opacity:1" fill="#fe2f91" d="M 339.5,159.5 C 346.167,159.5 352.833,159.5 359.5,159.5C 359.5,166.167 359.5,172.833 359.5,179.5C 352.833,179.5 346.167,179.5 339.5,179.5C 339.5,172.833 339.5,166.167 339.5,159.5 Z"/></g>
<g><path style="opacity:1" fill="#5d5e5d" d="M 399.5,159.5 C 406.167,159.5 412.833,159.5 419.5,159.5C 419.5,186.167 419.5,212.833 419.5,239.5C 412.833,239.5 406.167,239.5 399.5,239.5C 399.5,212.833 399.5,186.167 399.5,159.5 Z"/></g>
<g><path style="opacity:1" fill="#521b93" d="M 99.5,239.5 C 106.167,239.5 112.833,239.5 119.5,239.5C 119.5,246.167 119.5,252.833 119.5,259.5C 112.833,259.5 106.167,259.5 99.5,259.5C 99.5,252.833 99.5,246.167 99.5,239.5 Z"/></g>
<g><path style="opacity:1" fill="#521b93" d="M 239.5,239.5 C 239.5,246.167 239.5,252.833 239.5,259.5C 232.833,259.5 226.167,259.5 219.5,259.5C 219.5,252.833 219.5,246.167 219.5,239.5C 226.167,239.5 232.833,239.5 239.5,239.5 Z"/></g>
<g><path style="opacity:1" fill="#5d5e5d" d="M 259.5,239.5 C 266.167,239.5 272.833,239.5 279.5,239.5C 279.5,246.167 279.5,252.833 279.5,259.5C 272.833,259.5 266.167,259.5 259.5,259.5C 259.5,252.833 259.5,246.167 259.5,239.5 Z"/></g>
<g><path style="opacity:1" fill="#5d5e5d" d="M 399.5,239.5 C 399.5,246.167 399.5,252.833 399.5,259.5C 392.833,259.5 386.167,259.5 379.5,259.5C 379.5,252.833 379.5,246.167 379.5,239.5C 386.167,239.5 392.833,239.5 399.5,239.5 Z"/></g>
<g><path style="opacity:1" fill="#521b93" d="M 119.5,259.5 C 132.833,259.5 146.167,259.5 159.5,259.5C 159.5,266.167 159.5,272.833 159.5,279.5C 159.5,286.167 159.5,292.833 159.5,299.5C 152.833,299.5 146.167,299.5 139.5,299.5C 139.5,292.833 139.5,286.167 139.5,279.5C 132.833,279.5 126.167,279.5 119.5,279.5C 119.5,272.833 119.5,266.167 119.5,259.5 Z"/></g>
<g><path style="opacity:1" fill="#521b93" d="M 219.5,259.5 C 219.5,266.167 219.5,272.833 219.5,279.5C 212.833,279.5 206.167,279.5 199.5,279.5C 199.5,286.167 199.5,292.833 199.5,299.5C 192.833,299.5 186.167,299.5 179.5,299.5C 179.5,292.833 179.5,286.167 179.5,279.5C 179.5,272.833 179.5,266.167 179.5,259.5C 192.833,259.5 206.167,259.5 219.5,259.5 Z"/></g>
<g><path style="opacity:1" fill="#5d5e5d" d="M 279.5,259.5 C 292.833,259.5 306.167,259.5 319.5,259.5C 319.5,266.167 319.5,272.833 319.5,279.5C 319.5,286.167 319.5,292.833 319.5,299.5C 312.833,299.5 306.167,299.5 299.5,299.5C 299.5,292.833 299.5,286.167 299.5,279.5C 292.833,279.5 286.167,279.5 279.5,279.5C 279.5,272.833 279.5,266.167 279.5,259.5 Z"/></g>
<g><path style="opacity:1" fill="#5d5e5d" d="M 379.5,259.5 C 379.5,266.167 379.5,272.833 379.5,279.5C 372.833,279.5 366.167,279.5 359.5,279.5C 359.5,286.167 359.5,292.833 359.5,299.5C 352.833,299.5 346.167,299.5 339.5,299.5C 339.5,292.833 339.5,286.167 339.5,279.5C 339.5,272.833 339.5,266.167 339.5,259.5C 352.833,259.5 366.167,259.5 379.5,259.5 Z"/></g>
<g><path style="opacity:1" fill="#521b93" d="M 119.5,279.5 C 119.5,286.167 119.5,292.833 119.5,299.5C 112.833,299.5 106.167,299.5 99.5,299.5C 99.5,292.833 99.5,286.167 99.5,279.5C 106.167,279.5 112.833,279.5 119.5,279.5 Z"/></g>
<g><path style="opacity:1" fill="#521b93" d="M 219.5,279.5 C 226.167,279.5 232.833,279.5 239.5,279.5C 239.5,286.167 239.5,292.833 239.5,299.5C 232.833,299.5 226.167,299.5 219.5,299.5C 219.5,292.833 219.5,286.167 219.5,279.5 Z"/></g>
<g><path style="opacity:1" fill="#5d5e5d" d="M 279.5,279.5 C 279.5,286.167 279.5,292.833 279.5,299.5C 272.833,299.5 266.167,299.5 259.5,299.5C 259.5,292.833 259.5,286.167 259.5,279.5C 266.167,279.5 272.833,279.5 279.5,279.5 Z"/></g>
<g><path style="opacity:1" fill="#5d5e5d" d="M 379.5,279.5 C 386.167,279.5 392.833,279.5 399.5,279.5C 399.5,286.167 399.5,292.833 399.5,299.5C 392.833,299.5 386.167,299.5 379.5,299.5C 379.5,292.833 379.5,286.167 379.5,279.5 Z"/></g>
<g><path style="opacity:1" fill="#521b93" d="M 99.5,299.5 C 99.5,306.167 99.5,312.833 99.5,319.5C 92.8333,319.5 86.1667,319.5 79.5,319.5C 79.5,312.833 79.5,306.167 79.5,299.5C 86.1667,299.5 92.8333,299.5 99.5,299.5 Z"/></g>
<g><path style="opacity:1" fill="#521b93" d="M 119.5,299.5 C 126.167,299.5 132.833,299.5 139.5,299.5C 139.5,306.167 139.5,312.833 139.5,319.5C 132.833,319.5 126.167,319.5 119.5,319.5C 119.5,312.833 119.5,306.167 119.5,299.5 Z"/></g>
<g><path style="opacity:1" fill="#521b93" d="M 199.5,299.5 C 206.167,299.5 212.833,299.5 219.5,299.5C 219.5,306.167 219.5,312.833 219.5,319.5C 212.833,319.5 206.167,319.5 199.5,319.5C 199.5,312.833 199.5,306.167 199.5,299.5 Z"/></g>
<g><path style="opacity:1" fill="#521b93" d="M 239.5,299.5 C 246.167,299.5 252.833,299.5 259.5,299.5C 259.5,306.167 259.5,312.833 259.5,319.5C 252.833,319.5 246.167,319.5 239.5,319.5C 239.5,312.833 239.5,306.167 239.5,299.5 Z"/></g>
<g><path style="opacity:1" fill="#5d5e5d" d="M 279.5,299.5 C 286.167,299.5 292.833,299.5 299.5,299.5C 299.5,306.167 299.5,312.833 299.5,319.5C 292.833,319.5 286.167,319.5 279.5,319.5C 279.5,312.833 279.5,306.167 279.5,299.5 Z"/></g>
<g><path style="opacity:1" fill="#5d5e5d" d="M 359.5,299.5 C 366.167,299.5 372.833,299.5 379.5,299.5C 379.5,306.167 379.5,312.833 379.5,319.5C 372.833,319.5 366.167,319.5 359.5,319.5C 359.5,312.833 359.5,306.167 359.5,299.5 Z"/></g>
<g><path style="opacity:1" fill="#5d5e5d" d="M 399.5,299.5 C 406.167,299.5 412.833,299.5 419.5,299.5C 419.5,306.167 419.5,312.833 419.5,319.5C 412.833,319.5 406.167,319.5 399.5,319.5C 399.5,312.833 399.5,306.167 399.5,299.5 Z"/></g>
<g><path style="opacity:1" fill="#521b93" d="M 79.5,319.5 C 79.5,339.5 79.5,359.5 79.5,379.5C 72.8333,379.5 66.1667,379.5 59.5,379.5C 59.5,359.5 59.5,339.5 59.5,319.5C 66.1667,319.5 72.8333,319.5 79.5,319.5 Z"/></g>
<g><path style="opacity:1" fill="#521b93" d="M 99.5,319.5 C 106.167,319.5 112.833,319.5 119.5,319.5C 119.5,339.5 119.5,359.5 119.5,379.5C 112.833,379.5 106.167,379.5 99.5,379.5C 99.5,359.5 99.5,339.5 99.5,319.5 Z"/></g>
<g><path style="opacity:1" fill="#521b93" d="M 219.5,319.5 C 226.167,319.5 232.833,319.5 239.5,319.5C 239.5,339.5 239.5,359.5 239.5,379.5C 232.833,379.5 226.167,379.5 219.5,379.5C 219.5,359.5 219.5,339.5 219.5,319.5 Z"/></g>
<g><path style="opacity:1" fill="#521b93" d="M 259.5,319.5 C 266.167,319.5 272.833,319.5 279.5,319.5C 279.5,339.5 279.5,359.5 279.5,379.5C 272.833,379.5 266.167,379.5 259.5,379.5C 259.5,359.5 259.5,339.5 259.5,319.5 Z"/></g>
<g><path style="opacity:1" fill="#5d5e5d" d="M 379.5,319.5 C 386.167,319.5 392.833,319.5 399.5,319.5C 399.5,339.5 399.5,359.5 399.5,379.5C 392.833,379.5 386.167,379.5 379.5,379.5C 379.5,359.5 379.5,339.5 379.5,319.5 Z"/></g>
<g><path style="opacity:1" fill="#5d5e5d" d="M 419.5,319.5 C 426.167,319.5 432.833,319.5 439.5,319.5C 439.5,339.5 439.5,359.5 439.5,379.5C 432.833,379.5 426.167,379.5 419.5,379.5C 419.5,359.5 419.5,339.5 419.5,319.5 Z"/></g>
</svg>
