<svg xmlns="http://www.w3.org/2000/svg" height="1000" width="1000"><rect id="backgroundrect" width="100%" height="100%" x="0" y="0" fill="none" stroke="none"/>




























<g class="currentLayer" style=""><title>Layer 1</title><rect width="1000" height="1000" style="fill:#1c1c1c;" id="svg_1" class="selected" opacity="0"/><path d="M809.44,173.8l-101,106.43c7.66,7.33,15,15,21.85,23L842,207.5A442.61,442.61,0,0,0,809.44,173.8Z" style="fill:#33b0d0;" id="svg_2"/><path d="M754.7,129.14l-44,63.82c8.1,5.58,16,11.32,23.46,17.55l48.81-60.3Q769.33,139.19,754.7,129.14Z" style="fill:#99d7e7;" id="svg_3"/><path d="M682.92,88.93l-42.6,95.39a324.24,324.24,0,0,1,31.91,16L724.88,110A452.89,452.89,0,0,0,682.92,88.93Z" style="fill:#66c4dc;" id="svg_4"/><path d="M604.9,62.12,570.6,205.7c10.37,2.56,20.58,5.58,30.47,9.09l49-138.47A434.52,434.52,0,0,0,604.9,62.12Z" style="fill:#66c4dc;" id="svg_5"/><path d="M535.18,51.59,525.61,173.8c8.62,0,17.1,1.76,25.37,3l19.3-121.26C558.8,53.67,547,52.39,535.18,51.59Z" style="fill:#009cc4;" id="svg_6"/><path d="M451.26,130.89a377,377,0,0,1,48.66-3.19V50a443.64,443.64,0,0,0-58.72,4Z" style="fill:#66c4dc;" id="svg_7"/><path d="M413.76,209.23c7.66-2.23,16-4.31,23.14-5.91L406.4,59.73c-11.65,2.39-23.14,5.26-34.3,8.62Z" style="fill:#009cc4;" id="svg_8"/><path d="M339.57,163.91c8.78-4.3,17.72-8,27-11.48l-27.89-72.6c-11,4.32-21.87,8.94-31.92,13.88Z" style="fill:#66c4dc;" id="svg_9"/><path d="M309.1,264.27a317.19,317.19,0,0,1,39.25-26.65L275,110A440.19,440.19,0,0,0,216.92,150Z" style="fill:#99d7e7;" id="svg_10"/><path d="M157.86,207.79l59,50.4A369.66,369.66,0,0,1,243.69,230l-53.45-56.16A465.37,465.37,0,0,0,157.86,207.79Z" style="fill:#66c4dc;" id="svg_11"/><path d="M116.38,264.91l125.1,76.74a237.62,237.62,0,0,1,13.23-19.8L136,235.55C129.78,245,122.43,254.86,116.38,264.91Z" style="fill:#33b0d0;" id="svg_12"/><path d="M72,361l99.25,31.94A335.53,335.53,0,0,1,192,342.81L99.14,294.9A443.6,443.6,0,0,0,72,361Z" style="fill:#66c4dc;" id="svg_13"/><path d="M132.17,441.69q2.43-14.54,5.74-28.72L62.45,395c-2.7,11.32-5.11,22.81-6.87,34.14Z" style="fill:#33b0d0;" id="svg_14"/><path d="M50,499.92H196.62c0-8,0-16,1.28-23.77L51.59,464.66C50,476.94,50,488,50,499.92Z" style="fill:#99d7e7;" id="svg_15"/><path d="M51.59,535.18a412.8,412.8,0,0,0,8.31,58.23l75.78-15.95a394.12,394.12,0,0,1-6.87-47.87Z" style="fill:#009cc4;" id="svg_16"/><path d="M84.15,672.07l135.61-56.16a314.87,314.87,0,0,1-10.22-29.83l-141,41.64A454.72,454.72,0,0,0,84.15,672.07Z" style="fill:#009cc4;" id="svg_17"/><path d="M99.14,704.14a467.22,467.22,0,0,0,23.45,40.66l65.11-42.09c-7-11-13.56-22.18-19.47-33.83Z" style="fill:#66c4dc;" id="svg_18"/><path d="M165.67,801l91.74-82.29a204.91,204.91,0,0,1-16-19.8L143,773.7C150.2,783.11,157.69,792.21,165.67,801Z" style="fill:#66c4dc;" id="svg_19"/><path d="M190.24,826.2c11.49,10.68,23.45,21.06,35.9,30.6L315.5,740.2a271.81,271.81,0,0,1-24.11-20.6Z" style="fill:#009cc4;" id="svg_20"/><path d="M254.86,877.1A448.37,448.37,0,0,0,317,910.92l42.4-95.74a325.12,325.12,0,0,1-47.86-25.84Z" style="fill:#66c4dc;" id="svg_21"/><path d="M417.91,942.18c11.49,2.08,23.14,4,34.95,5.11l8.1-77.22c-9.74-1-19.47-2.39-28.88-4.15Z" style="fill:#99d7e7;" id="svg_22"/><path d="M499.92,949.84a447.06,447.06,0,0,0,58.72-4l-19.15-145.5a325.78,325.78,0,0,1-39.6,2.87h-8L488.11,950Z" style="fill:#33b0d0;" id="svg_23"/><path d="M598,831.14c-8.62,2.55-17.39,5-26.33,6.7l21.7,101.79c11.65-2.39,23-5.4,34.31-8.62Z" style="fill:#99d7e7;" id="svg_24"/><path d="M637.45,769.87a295.36,295.36,0,0,1-29,12.93L661.1,919.85a402.88,402.88,0,0,0,43.07-19.15Z" style="fill:#33b0d0;" id="svg_25"/><path d="M705.73,754.24a336.17,336.17,0,0,1-34.94,24.41l63.82,104.82a441.71,441.71,0,0,0,47.86-34Z" style="fill:#33b0d0;" id="svg_26"/><path d="M730.3,696.8a294,294,0,0,1-21.85,22.8l101,106.6a438.19,438.19,0,0,0,31.91-34.15Z" style="fill:#009cc4;" id="svg_27"/><path d="M398.77,785.34l-49,138.33,4,1.44c9.73,3.35,19.46,6.54,29.51,9.26h0L421.42,792.5C413.76,790.61,406.27,787.9,398.77,785.34Z" style="fill:#33b0d0;" id="svg_28"/></g></svg>