<?xml version="1.0" encoding="UTF-8" standalone="no"?>
<svg version="1.0" xmlns="http://www.w3.org/2000/svg" viewBox="0 0 224 192">
  <defs>
    <style type="text/css">
      .cls-1{fill:#d7d5d0}.cls-2{fill:#2f4647}.cls-3{fill:#536666}.cls-4{opacity:.1}.cls-5{opacity:.3}.cls-6{fill:#fff}.cls-7{fill:#88c425}.cls-8{fill:#233333}
    </style>
  </defs>
  <rect class="cls-1" x="18.33" y="98.72" width="20.13" height="23.47" rx="4.49" ry="4.49"
      transform="translate(46 -2.23) rotate(23.3)" />
  <path class="cls-2"
      d="M30.12,125.32a7.29,7.29,0,0,1-2.89-.6h0l-8.42-3.63a7.3,7.3,0,0,1-3.82-9.6L20,100a7.33,7.33,0,0,1,9.62-3.82L38,99.81a7.32,7.32,0,0,1,3.82,9.61l-5,11.49A7.33,7.33,0,0,1,30.12,125.32Zm-1.44-4a3.66,3.66,0,0,0,4.8-1.91l5-11.49a3.65,3.65,0,0,0-1.91-4.8l-8.42-3.62a3.66,3.66,0,0,0-4.8,1.91l-5,11.49a3.65,3.65,0,0,0,1.91,4.8Z" />
  <path class="cls-1"
      d="M54.57,58.62s-25.13-6.44-26,19.52c0,0,20.62-1.93,23.19,16.52,0,0,4.08,4.29,2.79-7.94S54.57,58.62,54.57,58.62Z" />
  <path class="cls-2"
      d="M53.2,97.22a4,4,0,0,1-2.75-1.3l-.4-.43L50,94.91C49,88,45.23,83.44,38.74,81.25a27.28,27.28,0,0,0-10-1.29l-2.06.19.07-2.07c.27-8.25,2.92-14.31,7.87-18,8.3-6.22,19.91-3.34,20.4-3.22l1.49.38-.12,1.54c0,.16-1.26,15.85,0,27.76.67,6.35.07,9.47-2,10.43A2.78,2.78,0,0,1,53.2,97.22ZM30.53,76.27c5.28.09,18.84,1.65,22.45,15.11a35,35,0,0,0-.23-4.47c-1.06-10.1-.41-22.41-.12-26.81-3.12-.49-10.5-1.1-15.82,2.9C33.17,65.73,31.07,70.19,30.53,76.27Z" />
  <path class="cls-1"
      d="M31.16,78.09s-3.6,9.74-2.57,12.48,12.93,8.71,15.68,8.32,7.05-6.64,7.05-6.64S46.43,76.28,31.16,78.09Z" />
  <path class="cls-2"
      d="M44.09,100.73c-4,0-15.92-6.06-17.22-9.51-1.18-3.14,1.67-11.32,2.57-13.76l.39-1,1.11-.13C47.53,74.3,53,91.55,53.07,91.72l.26.84-.5.73c-1.12,1.62-5,6.94-8.3,7.41A3.06,3.06,0,0,1,44.09,100.73ZM32.49,79.81c-1.57,4.52-2.58,9.08-2.18,10.12.9,1.87,11.43,7.35,13.71,7.15,1-.15,3.46-2.68,5.26-5.11C48.12,89,43.48,79.16,32.49,79.81Z" />
  <path class="cls-3" d="M30.69,92.8,28.4,98.91s4.8,4.75,9.42,5.07l3.7-5.59S32.8,95,30.69,92.8Z" />
  <path class="cls-2"
      d="M38.13,104.61l-.36,0c-4.79-.33-9.6-5-9.8-5.24l-.28-.28,2.78-7.4.67.71c2,2.1,10.51,5.41,10.59,5.44l.71.27Zm-9-5.86c1,1,4.78,4.16,8.39,4.59l3.08-4.66c-1.92-.77-7.23-3-9.63-4.84Z" />
  <path class="cls-3"
      d="M14.45,157c-5-6.53-4.67-19.11,3.37-27.14a47.82,47.82,0,0,1-8-4.94c-5.35,6.31-16.2,23.5-.35,36.68C9.49,161.6,19.87,164.06,14.45,157Z" />
  <path class="cls-2"
      d="M12.85,163.25a16.73,16.73,0,0,1-3.64-.46l-.28-.07-.22-.18C3.49,158.2.59,153,.08,147.21c-.93-10.66,6.53-20.36,8.83-23.08l.77-.91.93.75a47.35,47.35,0,0,0,7.77,4.81l1.47.77-1.17,1.17c-7.63,7.63-7.85,19.58-3.26,25.54h0c.67.86,2.69,3.5,1.41,5.47C16.06,162.92,14.44,163.25,12.85,163.25Zm-2.8-2.77c2.11.45,4.4.43,4.72-.07,0,0,.27-.62-1.29-2.66-5.07-6.59-5.18-18.92,2.36-27.55a47.05,47.05,0,0,1-5.8-3.58C7.36,130,1.75,138.21,2.51,147,3,152.08,5.49,156.61,10.05,160.48Z" />
  <path d="M6.84,131.16l6.21,3s1-1.61,1.63-2.47A44.68,44.68,0,0,1,9,128C8.5,128.7,6.84,131.16,6.84,131.16Z"
      class="cls-4" />
  <path class="cls-3"
      d="M32.37,133.92a50.85,50.85,0,0,1-6.54-1l1.91,16.45s-9.19,8.74-5.55,8.64,10.65-6.32,10.65-6.32Z" />
  <path class="cls-2"
      d="M22.13,159.26a1.86,1.86,0,0,1-1.88-1.1c-.24-.58-1-2.31,6.2-9.23l-2-17.56,1.69.39a49.23,49.23,0,0,0,6.36.94l1.09.09.52,19.47-.42.38c-.75.67-7.45,6.51-11.43,6.62Zm5.1-24.78L29,149.86l-.44.42a41,41,0,0,0-5.67,6.41c2.44-.64,6.32-3.47,8.7-5.5L31.18,135C30.2,134.93,28.74,134.75,27.23,134.48Z" />
  <path class="cls-1"
      d="M8.59,122.08c5.17-2.36,17.57-5.74,25.93,10.63a1.8,1.8,0,0,1-1.73,2.63A45.12,45.12,0,0,1,8.21,125.11,1.8,1.8,0,0,1,8.59,122.08Z" />
  <path class="cls-2"
      d="M32.95,137.17h-.3a46.88,46.88,0,0,1-25.6-10.63,3.63,3.63,0,0,1,.78-6.11,21.63,21.63,0,0,1,12.87-1.84c6.36,1.2,11.56,5.68,15.45,13.3a3.66,3.66,0,0,1-.21,3.69A3.56,3.56,0,0,1,32.95,137.17ZM8.59,122.08l.76,1.66a43.52,43.52,0,0,0,23.59,9.77C25.48,119,15,121.18,9.35,123.74h0Z" />
  <path d="M31.56,82.74c4.44.62,12.63,2,16.44,10.91L49.27,92S45.05,79.14,32.48,79.82C32.35,80.24,32.09,81,31.56,82.74Z"
      class="cls-4" />
  <path d="M39.15,100.83l1.42-2.15S33.73,96,30.95,93.82L30,96.29S35.51,100.78,39.15,100.83Z" class="cls-4" />
  <g class="cls-5">
    <path class="cls-6" d="M33.41,66.75s12.38,5.24,15.12-7C48.54,59.72,38,59,33.41,66.75Z" />
  </g>
  <path d="M27.46,136.41l3.78.61.06,2.4H27.79S27.49,136.7,27.46,136.41Z" class="cls-4" />
  <rect class="cls-1" x="185.53" y="98.72" width="20.13" height="23.47" rx="4.49" ry="4.49"
      transform="translate(418.94 134.54) rotate(156.7)" />
  <path class="cls-2"
      d="M193.87,125.32a7.33,7.33,0,0,1-6.72-4.42l-5-11.49A7.31,7.31,0,0,1,186,99.81l8.42-3.62A7.32,7.32,0,0,1,204,100l5,11.49a7.31,7.31,0,0,1-3.82,9.6l-8.42,3.63A7.31,7.31,0,0,1,193.87,125.32Zm3.46-26.08a3.66,3.66,0,0,0-1.45.3l-8.42,3.63a3.65,3.65,0,0,0-1.91,4.8l5,11.49a3.66,3.66,0,0,0,4.8,1.91h0l8.42-3.62a3.65,3.65,0,0,0,1.91-4.8l-5-11.49a3.63,3.63,0,0,0-2-1.95A3.67,3.67,0,0,0,197.33,99.24Z" />
  <path class="cls-1"
      d="M169.43,58.62s25.13-6.44,26,19.52c0,0-20.62-1.93-23.19,16.52,0,0-4.08,4.29-2.79-7.94S169.43,58.62,169.43,58.62Z" />
  <path class="cls-2"
      d="M170.8,97.22a2.78,2.78,0,0,1-1.17-.26c-2.08-1-2.69-4.08-2-10.43,1.26-11.92,0-27.61,0-27.76l-.13-1.54,1.49-.38c.49-.12,12.1-3,20.4,3.22,4.95,3.71,7.6,9.77,7.87,18l.07,2.08L195.24,80a27.47,27.47,0,0,0-10,1.29C178.77,83.44,175,88,174,94.91l-.08.58-.4.43A4,4,0,0,1,170.8,97.22Zm.57-37.12c.29,4.39.94,16.71-.12,26.81a34.86,34.86,0,0,0-.23,4.47c3.61-13.47,17.18-15,22.45-15.12-.54-6.09-2.65-10.55-6.29-13.28C181.84,59,174.49,59.6,171.37,60.1Z" />
  <path class="cls-1"
      d="M192.84,78.09s3.6,9.74,2.57,12.48-12.93,8.71-15.68,8.32-7.05-6.64-7.05-6.64S177.58,76.28,192.84,78.09Z" />
  <path class="cls-2"
      d="M179.91,100.73a3,3,0,0,1-.43,0c-3.28-.47-7.18-5.79-8.3-7.41l-.5-.73.26-.84c.05-.18,5.56-17.42,22.13-15.44l1.11.13.39,1c.9,2.43,3.75,10.62,2.57,13.76C195.83,94.67,183.94,100.73,179.91,100.73ZM174.73,92c1.8,2.44,4.23,5,5.27,5.12,2.26.18,12.8-5.28,13.71-7.17.38-1-.62-5.58-2.19-10.1C180.57,79.17,175.88,89,174.73,92Z" />
  <path class="cls-3" d="M193.31,92.8l2.29,6.11s-4.8,4.75-9.42,5.07l-3.7-5.59S191.2,95,193.31,92.8Z" />
  <path class="cls-2"
      d="M185.87,104.61l-4.31-6.52.71-.27c.09,0,8.61-3.34,10.6-5.44l.67-.71,2.78,7.4-.28.28c-.2.2-5,4.91-9.8,5.24Zm-2.46-5.93,3.08,4.66c3.61-.43,7.35-3.63,8.39-4.59L193,93.84C190.64,95.69,185.33,97.9,183.41,98.68Z" />
  <path class="cls-3"
      d="M209.55,157c5-6.53,4.67-19.11-3.37-27.14a47.82,47.82,0,0,0,8-4.94c5.35,6.31,16.2,23.5.35,36.68C214.51,161.6,204.13,164.06,209.55,157Z" />
  <path class="cls-2"
      d="M211.15,163.25c-1.58,0-3.2-.33-4-1.52-1.28-2,.74-4.61,1.41-5.47h0c4.58-6,4.37-17.91-3.27-25.54l-1.17-1.17,1.47-.77a47.33,47.33,0,0,0,7.77-4.81l.93-.75.77.91c2.31,2.72,9.76,12.41,8.83,23.08-.51,5.83-3.41,11-8.63,15.33l-.22.18-.28.07A16.73,16.73,0,0,1,211.15,163.25Zm-.62-5.5c-1.57,2-1.3,2.66-1.29,2.66.32.5,2.61.52,4.72.07,4.56-3.87,7.1-8.4,7.54-13.48.77-8.79-4.85-17-7.53-20.39a46.8,46.8,0,0,1-5.8,3.58c7.54,8.63,7.43,21,2.36,27.55Z" />
  <path d="M217.16,131.16l-6.21,3s-1-1.61-1.63-2.47A44.68,44.68,0,0,0,215,128C215.5,128.7,217.16,131.16,217.16,131.16Z"
      class="cls-4" />
  <path class="cls-3"
      d="M191.63,133.92a50.85,50.85,0,0,0,6.54-1l-1.91,16.45s9.19,8.74,5.55,8.64-10.65-6.32-10.65-6.32Z" />
  <path class="cls-2"
      d="M201.87,159.26h-.09c-4-.11-10.68-6-11.43-6.62l-.42-.38.52-19.47,1.09-.09a49.19,49.19,0,0,0,6.36-.94l1.69-.39-2,17.56c7.17,6.91,6.45,8.65,6.2,9.23A1.86,1.86,0,0,1,201.87,159.26Zm-9.47-8.08c2.4,2.06,6.34,4.92,8.71,5.53a40.64,40.64,0,0,0-5.69-6.43l-.44-.42,1.79-15.38c-1.51.27-3,.45-3.94.55Z" />
  <path class="cls-1"
      d="M215.41,122.08c-5.17-2.36-17.57-5.74-25.93,10.63a1.8,1.8,0,0,0,1.73,2.63,45.12,45.12,0,0,0,24.58-10.23A1.8,1.8,0,0,0,215.41,122.08Z" />
  <path class="cls-2"
      d="M191.05,137.17a3.56,3.56,0,0,1-3-1.6,3.66,3.66,0,0,1-.21-3.69c3.9-7.62,9.1-12.1,15.45-13.3a21.63,21.63,0,0,1,12.87,1.84,3.63,3.63,0,0,1,.78,6.11,46.88,46.88,0,0,1-25.59,10.63Zm15.7-15.27c-5.12,0-11,2.54-15.65,11.64a43.46,43.46,0,0,0,23.49-9.82A19.25,19.25,0,0,0,206.76,121.89Z" />
  <path
      d="M192.44,82.74c-4.44.62-12.63,2-16.44,10.91L174.73,92s4.22-12.83,16.79-12.15C191.65,80.24,191.92,81,192.44,82.74Z"
      class="cls-4" />
  <path d="M184.85,100.83l-1.42-2.15s6.83-2.65,9.62-4.86l.9,2.47S188.5,100.78,184.85,100.83Z" class="cls-4" />
  <g class="cls-5">
    <path class="cls-6" d="M190.59,66.75s-12.38,5.24-15.12-7C175.46,59.72,186,59,190.59,66.75Z" />
  </g>
  <path d="M196.54,136.41l-3.78.61-.06,2.4h3.51S196.51,136.7,196.54,136.41Z" class="cls-4" />
  <path class="cls-1"
      d="M61.46,61.48S57.55,1.83,112.29,1.83s50,59.66,50,59.66-36.77-6.09-50,1.41C112.29,62.9,80.82,54.21,61.46,61.48Z" />
  <path class="cls-2"
      d="M112.53,64.86l-.73-.2c-.31-.09-31.13-8.44-49.69-1.46l-2.31.87-.16-2.46c-.08-1.18-1.7-29.09,15.17-47.09C83.84,4.88,96.45,0,112.29,0s28.38,4.88,37.28,14.51c16.66,18,14.66,45.94,14.56,47.12l-.16,2-2-.33c-.36-.06-36.29-5.89-48.82,1.2ZM80.74,56.74a135.5,135.5,0,0,1,31.32,4.21c12.35-6.27,40.58-2.73,48.5-1.58.12-6.59-.56-28.21-13.69-42.39C138.68,8.14,127,3.66,112.29,3.66S85.79,8.15,77.48,17C64.44,30.93,63.25,51.91,63.24,59A61.71,61.71,0,0,1,80.74,56.74Z" />
  <path class="cls-3"
      d="M110.15,14.15c-42.55,0-37.81,44.11-37.81,44.11h0c18.58-.87,38.2,4.63,38.2,4.63,8.65-5,26.59-4.49,39.4-3.34l1.25-.81S157,14.15,110.15,14.15Z" />
  <path class="cls-2"
      d="M110.73,64.21l-.49-.14c-.2-.05-19.66-5.45-37.82-4.59h-.17l-1-.24-.11-.86C71,57.54,69,37.53,81,24.22c6.74-7.49,16.54-11.29,29.14-11.29,14.48,0,25.53,4.21,32.84,12.5,11.86,13.46,9.55,32.66,9.45,33.47l-.07.56-2.08,1.35-.42,0c-13.08-1.18-30.41-1.59-38.69,3.18ZM76.41,57c15.63,0,31.07,3.87,34,4.64,8.88-4.77,26.1-4.45,39.25-3.28l.41-.27c.28-3.19,1.14-19.61-8.92-31-6.82-7.74-17.25-11.66-31-11.66-11.88,0-21.07,3.53-27.32,10.48C73.14,36.63,73.24,52.64,73.47,57,74.45,57,75.43,57,76.41,57Z" />
  <path
      d="M160.53,55.57a90.7,90.7,0,0,0-48.53.86,90.86,90.86,0,0,0-48.71-.81c-.13,3.34-.07,5.58-.07,5.58,19.35-7.27,49.07,1.7,49.07,1.7,13.25-7.5,48.3-1.49,48.3-1.49S160.62,58.94,160.53,55.57Z"
      class="cls-4" />
  <path class="cls-7" d="M84.75,41a10.35,10.35,0,0,1,20.71,0" />
  <path class="cls-7" d="M119.09,41a10.35,10.35,0,0,1,20.71,0" />
  <circle class="cls-7" cx="100.22" cy="48.92" r="2.25" />
  <circle class="cls-7" cx="108.39" cy="48.92" r="2.25" />
  <path class="cls-8" d="M91.25,162.81l-7.81,20.43a76.37,76.37,0,0,1-3.18-31.7C81,145.13,91.25,162.81,91.25,162.81Z" />
  <path class="cls-3"
      d="M92.59,158.77a.67.67,0,0,1,0,.52,98.77,98.77,0,0,0-9.1,23.95c-.14.62-1.13.41-1.3-.28A79.23,79.23,0,0,1,82,145.34c.15-.6,1-.87,1.24-.41q1.23,2.07,2.57,4.16.52-2.71,1.22-5.39c1-3.71-1-6.65-4.72-6.65H49.3c-3.74,0-7.88,2.94-8.86,6.65a79.23,79.23,0,0,0,0,40.44c1,3.71,5.11,6.65,8.86,6.65H84.58a4.57,4.57,0,0,0,4.93-4.12,87.13,87.13,0,0,1,4.86-20A7.31,7.31,0,0,0,92.59,158.77Z" />
  <path class="cls-2"
      d="M84.58,192H49.3a10.85,10.85,0,0,1-10-7.56,80.57,80.57,0,0,1,0-41.06,10.85,10.85,0,0,1,10-7.55H82.36a6.08,6.08,0,0,1,5,2.23,6.72,6.72,0,0,1,.93,5.94c-.46,1.75-.87,3.53-1.2,5.31l-.57,3-1.65-2.57c-.64-1-1.26-2-1.87-3a78.37,78.37,0,0,0-.11,33.82,101.08,101.08,0,0,1,8.51-21.65L90,154.74l3.43,3.12a8.53,8.53,0,0,1,2.1,9.17,86,86,0,0,0-4.8,19.76C90.36,190,87.95,192,84.58,192ZM49.3,138.27A8.52,8.52,0,0,0,41.62,144a78.13,78.13,0,0,0,0,39.82,8.52,8.52,0,0,0,7.68,5.74H84.58a3.38,3.38,0,0,0,3.72-3,88.33,88.33,0,0,1,4.93-20.32,6.27,6.27,0,0,0-.29-5,96.71,96.71,0,0,0-8.29,22.33A1.68,1.68,0,0,1,83,184.82a2.09,2.09,0,0,1-2-1.57A80.77,80.77,0,0,1,80.85,145a2.09,2.09,0,0,1,1.71-1.55,1.72,1.72,0,0,1,1.77.81l1,1.58q.29-1.25.62-2.49a4.36,4.36,0,0,0-.5-3.83,3.66,3.66,0,0,0-3-1.28Zm33,44.69h0Zm9.21-24.25h0Zm-9.24-13.17h0Z" />
  <rect class="cls-2" x="39.99" y="143.07" width="40.28" height="1.22" />
  <rect class="cls-2" x="39.99" y="150.39" width="40.28" height="1.22" />
  <rect class="cls-2" x="37.55" y="158.92" width="42.72" height="1.22" />
  <rect class="cls-2" x="37.55" y="167.46" width="42.72" height="1.22" />
  <rect class="cls-2" x="38.77" y="175.99" width="42.72" height="1.22" />
  <rect class="cls-2" x="39.99" y="183.31" width="42.72" height="1.22" />
  <path
      d="M80.88,145a13.87,13.87,0,0,1-.61-5.7l-3.21-1.08H59.17c1.15,4.88,6.26,26.29,20.3,37.67A79.55,79.55,0,0,1,80.88,145Z"
      class="cls-4" />
  <path class="cls-8"
      d="M132.75,162.81l7.81,20.43a76.37,76.37,0,0,0,3.18-31.7C143,145.13,132.75,162.81,132.75,162.81Z" />
  <path class="cls-3"
      d="M131.41,158.77a.67.67,0,0,0,0,.52,98.77,98.77,0,0,1,9.1,23.95c.14.62,1.13.41,1.3-.28a79.23,79.23,0,0,0,.11-37.63c-.15-.6-1-.87-1.24-.41q-1.23,2.07-2.57,4.16-.52-2.71-1.22-5.39c-1-3.71,1-6.65,4.72-6.65H174.7c3.74,0,7.88,2.94,8.86,6.65a79.23,79.23,0,0,1,0,40.44c-1,3.71-5.11,6.65-8.86,6.65H139.42a4.57,4.57,0,0,1-4.93-4.12,87.13,87.13,0,0,0-4.86-20A7.31,7.31,0,0,1,131.41,158.77Z" />
  <path class="cls-2"
      d="M174.7,192H139.42c-3.37,0-5.78-2-6.14-5.2A86,86,0,0,0,128.49,167a8.53,8.53,0,0,1,2.1-9.17l3.43-3.12-1.38,4.18a101.15,101.15,0,0,1,8.51,21.65,78.37,78.37,0,0,0-.11-33.82c-.61,1-1.23,2-1.87,3l-1.65,2.57-.57-3c-.34-1.77-.74-3.56-1.2-5.31a6.72,6.72,0,0,1,.93-5.94,6.08,6.08,0,0,1,5-2.23H174.7a10.85,10.85,0,0,1,10,7.56,80.57,80.57,0,0,1,0,41.06A10.85,10.85,0,0,1,174.7,192Zm-43.63-30.81a6.28,6.28,0,0,0-.29,5,88.32,88.32,0,0,1,4.93,20.32,3.38,3.38,0,0,0,3.72,3H174.7a8.52,8.52,0,0,0,7.68-5.74,78.13,78.13,0,0,0,0-39.82,8.52,8.52,0,0,0-7.68-5.74H141.64a3.66,3.66,0,0,0-3,1.28,4.37,4.37,0,0,0-.5,3.83c.22.82.42,1.66.62,2.49l1-1.58a1.72,1.72,0,0,1,1.77-.81,2.09,2.09,0,0,1,1.71,1.55,80.76,80.76,0,0,1-.11,38.21,2.08,2.08,0,0,1-2,1.57h0a1.68,1.68,0,0,1-1.65-1.32A96.72,96.72,0,0,0,131.07,161.19ZM141.74,183h0Zm0-37.42h0Z" />
  <rect class="cls-2" x="143.73" y="143.07" width="40.28" height="1.22" />
  <rect class="cls-2" x="143.73" y="150.39" width="40.28" height="1.22" />
  <rect class="cls-2" x="143.73" y="158.92" width="42.72" height="1.22" />
  <rect class="cls-2" x="143.73" y="167.46" width="42.72" height="1.22" />
  <rect class="cls-2" x="142.51" y="175.99" width="42.72" height="1.22" />
  <rect class="cls-2" x="141.29" y="183.31" width="42.72" height="1.22" />
  <path
      d="M143.12,145a13.87,13.87,0,0,0,.61-5.7l3.21-1.08h17.89c-1.15,4.88-6.26,26.29-20.3,37.67A79.55,79.55,0,0,0,143.12,145Z"
      class="cls-4" />
  <circle class="cls-7" cx="116.56" cy="48.92" r="2.25" />
  <g class="cls-5">
    <path class="cls-6"
        d="M90.08,39.08C91,31.54,92.9,23.94,97.38,17c-7.37,2.18-11,5.08-14.49,8.74C79,38.23,79.26,49.65,79.63,58.22c3.37.11,6.69.37,9.83.73A117.3,117.3,0,0,1,90.08,39.08Z" />
  </g>
  <circle class="cls-7" cx="124.74" cy="48.92" r="2.25" />
  <path class="cls-1"
      d="M169.34,83.87a84.48,84.48,0,0,0,0-20.75C140.91,52.57,112,61.3,112,61.3s-28.91-8.74-57.33,1.82a84.48,84.48,0,0,0,0,20.75c1.46,10.56-4.21,19.29-.65,31.3s16.93,45.5,58,55c41-9.46,54.42-43,58-55S167.88,94.43,169.34,83.87Zm-56,20.27,4.59,25.43-6.52,1.68-6.52-1.68,4.88-25.45a9.82,9.82,0,1,1,3.58,0Z" />
  <path class="cls-2"
      d="M112,172l-.41-.09c-41.32-9.53-55.25-42.49-59.33-56.23-2.14-7.23-1.15-13.24-.18-19.06.7-4.23,1.36-8.23.77-12.52a85.52,85.52,0,0,1,0-21.26L53,61.79l1-.38c26.9-10,53.76-3.19,58-2,4.21-1.18,31.07-8,58,2l1,.38.15,1.08a85.52,85.52,0,0,1,0,21.26c-.59,4.28.07,8.28.77,12.52,1,5.81,2,11.83-.18,19.06-4.07,13.73-18,46.7-59.33,56.23ZM56.35,64.46a83.19,83.19,0,0,0,.13,19.16c.67,4.83-.07,9.3-.79,13.61-.94,5.66-1.82,11,.08,17.42,3.88,13.07,17.1,44.39,56.23,53.6,39.12-9.22,52.35-40.53,56.23-53.6,1.91-6.42,1-11.76.08-17.42-.72-4.32-1.46-8.78-.79-13.61a83.19,83.19,0,0,0,.13-19.16c-27.2-9.64-54.84-1.49-55.12-1.41l-.53.16-.53-.16C111.19,63,83.5,54.84,56.35,64.46Zm55,68.68-8.65-2.22,4.88-25.48a11.64,11.64,0,1,1,7.8,0L120,130.92Zm-4.4-4.91,4.4,1.13,4.42-1.14-4.28-23.72Zm4.6-41.71a8,8,0,0,0-1.5,15.81l1.46.28,1.46-.26a8,8,0,0,0-1.42-15.82Z" />
  <path class="cls-7"
      d="M76.76,149.25l20.81-24.32-3.42-5.55-12.66,6.86-8.7-11.69-15.1,5.54S65.33,140.61,76.76,149.25Z" />
  <path class="cls-7" d="M102.87,165.49l5.52-24.44-10.82-5.71L83.73,155.19S90.59,161.95,102.87,165.49Z" />
  <path class="cls-7" d="M147,149.45l-20.81-24.32,3.42-5.55,12.66,6.86,8.7-11.69,15.27,5.6S159.37,139.59,147,149.45Z" />
  <path class="cls-7" d="M121.09,165.56,115.53,141l10.82-5.71,14,20A67.18,67.18,0,0,1,121.09,165.56Z" />
  <path class="cls-2"
      d="M112,162.1l-.14,0c-34.46-7.95-46.09-35.45-49.48-46.9-1.75-5.91-.93-10.88-.13-15.7.61-3.65,1.18-7.1.66-10.87a72.79,72.79,0,0,1,0-17.71l.05-.36.34-.13c22.88-8.5,46.43-2.24,48.7-1.6,2.27-.64,25.82-6.9,48.7,1.6l.34.13.05.36a72.79,72.79,0,0,1,0,17.71h0c-.52,3.76.05,7.21.66,10.87.8,4.81,1.62,9.79-.13,15.7-3.4,11.46-15,39-49.48,46.9ZM64.07,71.42a71.58,71.58,0,0,0,0,17c.55,3.95-.07,7.65-.66,11.23-.78,4.68-1.58,9.51.1,15.15,3.33,11.23,14.72,38.19,48.45,46,33.73-7.84,45.12-34.79,48.45-46,1.67-5.64.87-10.47.1-15.15-.59-3.58-1.21-7.29-.66-11.23h0a71.43,71.43,0,0,0,0-17c-23.46-8.56-47.51-1.47-47.75-1.4l-.18.05-.18-.05C111.58,69.95,87.52,62.87,64.07,71.42Z" />
  <ellipse class="cls-2" cx="112.2" cy="94.38" rx="9.61" ry="9.6" />
  <polygon class="cls-2" points="110.95 98.36 104.87 129.66 118.54 129.66 110.95 98.36" />
  <polygon class="cls-7" points="131.53 85.4 157.16 79.4 157.16 96.74 131.53 96.74 131.53 85.4" />
  <polygon class="cls-7" points="92.47 85.4 66.84 79.4 66.84 96.74 92.47 96.74 92.47 85.4" />
  <path
      d="M168.85,112c-.52.53-36.93,40.55-82.6,45.33,7.35,5.42,14.79,8.12,25.74,11C152.67,159.38,166.29,123.67,168.85,112Z"
      class="cls-4" />
</svg>
