<?xml version="1.0" encoding="UTF-8"?>
<svg height="128px" viewBox="0 0 128 128" width="128px" xmlns="http://www.w3.org/2000/svg" xmlns:xlink="http://www.w3.org/1999/xlink">
    <linearGradient id="a" gradientUnits="userSpaceOnUse">
        <stop offset="0" stop-color="#454447"/>
        <stop offset="0.0357143" stop-color="#8c8c89"/>
        <stop offset="0.0713653" stop-color="#666563"/>
        <stop offset="0.928571" stop-color="#666563"/>
        <stop offset="0.964286" stop-color="#8c8c89"/>
        <stop offset="1" stop-color="#454447"/>
    </linearGradient>
    <linearGradient id="b" x1="8.0000455" x2="120.0000455" xlink:href="#a" y1="115.999977" y2="115.999977"/>
    <linearGradient id="c" x1="24.0000155" x2="104.000008" xlink:href="#a" y1="99.999977" y2="99.9999845"/>
    <linearGradient id="d" gradientUnits="userSpaceOnUse" x1="12.0000155" x2="124.0000155" y1="113.999977" y2="113.999977">
        <stop offset="0" stop-color="#454400"/>
        <stop offset="0.0357143" stop-color="#8c8c00"/>
        <stop offset="0.0713653" stop-color="#666500"/>
        <stop offset="0.928571" stop-color="#666500"/>
        <stop offset="0.964286" stop-color="#8c8c00"/>
        <stop offset="1" stop-color="#454400"/>
    </linearGradient>
    <path d="m 16 40 h 96 c 4.417969 0 8 3.582031 8 8 v 60 c 0 4.417969 -3.582031 8 -8 8 h -96 c -4.417969 0 -8 -3.582031 -8 -8 v -60 c 0 -4.417969 3.582031 -8 8 -8 z m 0 0" fill="url(#b)"/>
    <path d="m 16 28 h 96 c 4.417969 0 8 3.582031 8 8 v 68 c 0 4.417969 -3.582031 8 -8 8 h -96 c -4.417969 0 -8 -3.582031 -8 -8 v -68 c 0 -4.417969 3.582031 -8 8 -8 z m 0 0" fill="#4d4d4d"/>
    <path d="m 32 24 h 64 c 4.417969 0 8 3.582031 8 8 v 60 c 0 4.417969 -3.582031 8 -8 8 h -64 c -4.417969 0 -8 -3.582031 -8 -8 v -60 c 0 -4.417969 3.582031 -8 8 -8 z m 0 0" fill="url(#c)"/>
    <path d="m 32 24 h 64 c 4.417969 0 8 3.582031 8 8 v 56 c 0 4.417969 -3.582031 8 -8 8 h -64 c -4.417969 0 -8 -3.582031 -8 -8 v -56 c 0 -4.417969 3.582031 -8 8 -8 z m 0 0" fill="#404040"/>
    <g fill="#999999">
        <path d="m 16 52 c 1.105469 0 2 0.894531 2 2 v 44 c 0 1.105469 -0.894531 2 -2 2 s -2 -0.894531 -2 -2 v -44 c 0 -1.105469 0.894531 -2 2 -2 z m 0 0"/>
        <path d="m 26 104 h 76 c 1.105469 0 2 0.894531 2 2 s -0.894531 2 -2 2 h -76 c -1.105469 0 -2 -0.894531 -2 -2 s 0.894531 -2 2 -2 z m 0 0"/>
        <path d="m 112 40 c 1.105469 0 2 0.894531 2 2 v 56 c 0 1.105469 -0.894531 2 -2 2 s -2 -0.894531 -2 -2 v -56 c 0 -1.105469 0.894531 -2 2 -2 z m 0 0"/>
    </g>
    <path d="m 14 38 h 4 c 1.105469 0 2 0.894531 2 2 v 6 c 0 1.105469 -0.894531 2 -2 2 h -4 c -1.105469 0 -2 -0.894531 -2 -2 v -6 c 0 -1.105469 0.894531 -2 2 -2 z m 0 0" fill="url(#d)"/>
    <path d="m 14 38 h 4 c 1.105469 0 2 0.894531 2 2 v 4 c 0 1.105469 -0.894531 2 -2 2 h -4 c -1.105469 0 -2 -0.894531 -2 -2 v -4 c 0 -1.105469 0.894531 -2 2 -2 z m 0 0" fill="#e5e500"/>
    <path d="m 32 62 c 0 -2.210938 1.789062 -4 4 -4 h 56 c 2.210938 0 4 1.789062 4 4 s -1.789062 4 -4 4 h -56 c -2.210938 0 -4 -1.789062 -4 -4 z m 0 0" fill="#cccccc"/>
    <path d="m 32 84 c 0 -2.210938 1.789062 -4 4 -4 h 56 c 2.210938 0 4 1.789062 4 4 s -1.789062 4 -4 4 h -56 c -2.210938 0 -4 -1.789062 -4 -4 z m 0 0" fill="#cccccc"/>
    <path d="m 32 40 c 0 -2.210938 1.789062 -4 4 -4 h 56 c 2.210938 0 4 1.789062 4 4 s -1.789062 4 -4 4 h -56 c -2.210938 0 -4 -1.789062 -4 -4 z m 0 0" fill="#cccccc"/>
    <path d="m 64 76 c 4.417969 0 8 3.582031 8 8 s -3.582031 8 -8 8 s -8 -3.582031 -8 -8 s 3.582031 -8 8 -8 z m 0 0" fill="#bcbcbc"/>
    <path d="m 46 54 c 4.417969 0 8 3.582031 8 8 s -3.582031 8 -8 8 s -8 -3.582031 -8 -8 s 3.582031 -8 8 -8 z m 0 0" fill="#bcbcbc"/>
    <path d="m 72 32 c 4.417969 0 8 3.582031 8 8 s -3.582031 8 -8 8 s -8 -3.582031 -8 -8 s 3.582031 -8 8 -8 z m 0 0" fill="#bcbcbc"/>
    <path d="m 64 74 c 4.417969 0 8 3.582031 8 8 s -3.582031 8 -8 8 s -8 -3.582031 -8 -8 s 3.582031 -8 8 -8 z m 0 0" fill="#ffffff"/>
    <path d="m 46 52 c 4.417969 0 8 3.582031 8 8 s -3.582031 8 -8 8 s -8 -3.582031 -8 -8 s 3.582031 -8 8 -8 z m 0 0" fill="#ffffff"/>
    <path d="m 72 30 c 4.417969 0 8 3.582031 8 8 s -3.582031 8 -8 8 s -8 -3.582031 -8 -8 s 3.582031 -8 8 -8 z m 0 0" fill="#ffffff"/>
</svg>
