<svg width="16" height="16" viewBox="0 0 16 16" fill="none" xmlns="http://www.w3.org/2000/svg">
<path fill-rule="evenodd" clip-rule="evenodd" d="M3.33334 13H12.6667L8 4.25L3.33334 13ZM7.11765 1.65441L0.784315 13.5294C0.429059 14.1955 0.911748 15 1.66667 15H14.3333C15.0883 15 15.5709 14.1955 15.2157 13.5294L8.88235 1.65441C8.50588 0.948529 7.49412 0.94853 7.11765 1.65441Z" fill="black"/>
<path fill-rule="evenodd" clip-rule="evenodd" d="M6.24104 9C5.85514 9 5.61471 9.41861 5.80915 9.75194L7.56811 12.7673C7.76105 13.0981 8.23895 13.0981 8.43189 12.7673L10.1909 9.75193C10.3853 9.41861 10.1449 9 9.75896 9H6.24104ZM4.94537 10.2558C4.36204 9.25582 5.08335 8 6.24104 8H9.75896C10.9166 8 11.638 9.25582 11.0546 10.2558L9.29567 13.2712C8.71685 14.2634 7.28315 14.2634 6.70433 13.2712L4.94537 10.2558Z" fill="black"/>
</svg>
