<svg width="128" height="128" viewBox="0 0 128 128" fill="none" xmlns="http://www.w3.org/2000/svg">
<path d="M109.528 116H18.4721C16.1541 116 14.4678 113.148 14.4669 110C14.4667 109.11 14.4668 104 14.4668 104H113.533C113.533 104 113.533 109.11 113.533 110C113.532 113.148 111.846 116 109.528 116Z" fill="url(#paint0_linear)"/>
<path d="M14.8943 102.211L60.4222 11.1554C61.8963 8.20723 66.1035 8.20723 67.5776 11.1554L113.105 102.211C114.435 104.871 112.501 108 109.528 108H18.472C15.4985 108 13.5645 104.871 14.8943 102.211Z" fill="#0091A7"/>
<rect x="38" y="56" width="52" height="4" fill="#00ACC1"/>
<path d="M37.9999 56L60.4222 11.1554C61.8963 8.20723 66.1035 8.20722 67.5776 11.1554L89.9999 56H37.9999Z" fill="#37DCEB"/>
<path d="M14.8943 102.211L37.9999 56L63.9999 108H18.472C15.4985 108 13.5645 104.871 14.8943 102.211Z" fill="#37DCEB"/>
<path d="M63.9999 108L89.9999 56L113.105 102.211C114.435 104.871 112.501 108 109.528 108H63.9999Z" fill="#37DCEB"/>
<defs>
<linearGradient id="paint0_linear" x1="14" y1="110" x2="114" y2="110" gradientUnits="userSpaceOnUse">
<stop stop-color="#00838F"/>
<stop offset="0.0667778" stop-color="#0097A7"/>
<stop offset="0.121011" stop-color="#00838F"/>
<stop offset="0.877367" stop-color="#00838F"/>
<stop offset="0.938727" stop-color="#0097A7"/>
<stop offset="1" stop-color="#00838F"/>
</linearGradient>
</defs>
</svg>
