<?xml version="1.0" encoding="UTF-8" standalone="no"?>
<svg
   class="typst-doc"
   viewBox="0 0 141.73228 141.73228"
   width="141.73228pt"
   height="141.73228pt"
   version="1.1"
   id="svg30"
   xml:space="preserve"
   xmlns="http://www.w3.org/2000/svg"
   xmlns:svg="http://www.w3.org/2000/svg"><defs
     id="defs30" /><g
     id="layer1"><g
       id="g26"
       transform="matrix(2,0,0,2,9.3885413,9.8367766)"><path
         class="typst-shape"
         fill="#27AE60"
         fill-rule="nonzero"
         stroke="#27AE60"
         stroke-width="1"
         stroke-linecap="butt"
         stroke-linejoin="round"
         stroke-miterlimit="4"
         transform="translate(28.612816)"
         d="M 0,0 M 2.1259842,0 C 1.7716535,1.2598425 1.0629921,3.1496062 0,5.6692915 c 1.4173229,-0.9448819 2.8346457,-0.9448819 4.2519684,0 C 3.1889763,3.1496062 2.480315,1.2598425 2.1259842,0 Z"
         id="path1" /><path
         class="typst-shape"
         fill="#27AE60"
         fill-rule="nonzero"
         stroke="#27AE60"
         stroke-width="1"
         stroke-linecap="butt"
         stroke-linejoin="round"
         stroke-miterlimit="4"
         transform="translate(16.348849,3.5468045)"
         d="M 0,0 C 0.27173376,1.2802008 0.52246225,3.282835 0.75218546,6.007902 1.568054,4.5125879 2.8230311,3.8539253 4.5171167,4.0319141 2.4049279,2.2948407 0.89922246,0.9508694 0,0 Z"
         id="path2" /><path
         class="typst-shape"
         fill="#27AE60"
         fill-rule="nonzero"
         stroke="#27AE60"
         stroke-width="1"
         stroke-linecap="butt"
         stroke-linejoin="round"
         stroke-miterlimit="4"
         transform="translate(5.2554614,13.374688)"
         d="M 0,0 C 0.83554727,1.0072806 1.9882268,2.6640058 3.4580386,4.9701753 3.4855473,3.2669873 4.2906785,2.1005535 5.8734322,1.4708739 3.1959236,0.914355 1.2381132,0.4240637 0,0 Z"
         id="path3" /><path
         class="typst-shape"
         fill="#27AE60"
         fill-rule="nonzero"
         stroke="#27AE60"
         stroke-width="1"
         stroke-linecap="butt"
         stroke-linejoin="round"
         stroke-miterlimit="4"
         transform="translate(0,25.805075)"
         d="M 0,0 M 0,1.4271258 C 1.207947,1.9307303 2.9985125,2.8620107 5.371697,4.2209668 4.6045437,2.7000849 4.775383,1.293096 5.8842149,-2e-7 3.2547717,0.75152705 1.2933669,1.2272357 0,1.4271258 Z"
         id="path4" /><path
         class="typst-shape"
         fill="#27AE60"
         fill-rule="nonzero"
         stroke="#27AE60"
         stroke-width="1"
         stroke-linecap="butt"
         stroke-linejoin="round"
         stroke-miterlimit="4"
         transform="translate(1.7864274,37.946565)"
         d="M 0,0 M 0,3.9981883 C 1.3036206,3.882747 3.3218753,3.8752373 6.054764,3.9756597 4.6686947,2.9854995 4.166105,1.6602797 4.5469954,5.1999999e-8 2.567991,1.8874076 1.052326,3.2201371 0,3.9981883 Z"
         id="path5" /><path
         class="typst-shape"
         fill="#27AE60"
         fill-rule="nonzero"
         stroke="#27AE60"
         stroke-width="1"
         stroke-linecap="butt"
         stroke-linejoin="round"
         stroke-miterlimit="4"
         transform="translate(10.205495,48.488564)"
         d="M 0,0 M 0,5.6533136 C 1.1006504,4.9452729 2.8842363,4.0006938 5.3507576,2.8195766 3.6633036,2.5869719 2.6024222,1.6471129 2.1681135,-1e-7 1.2929143,2.5909053 0.5702098,4.4753429 0,5.6533136 Z"
         id="path6" /><path
         class="typst-shape"
         fill="#27AE60"
         fill-rule="nonzero"
         stroke="#27AE60"
         stroke-width="1"
         stroke-linecap="butt"
         stroke-linejoin="round"
         stroke-miterlimit="4"
         transform="translate(22.621038,55.016027)"
         d="M 0,0 M 0.7074568,6.0133333 C 1.3529913,4.8748965 2.4933104,3.2096395 4.1284141,1.0175628 2.5261509,1.5958006 1.1500129,1.2566131 9.9999999e-8,2e-7 0.42910353,2.7008586 0.66492246,4.7053029 0.7074568,6.0133333 Z"
         id="path7" /><path
         class="typst-shape"
         fill="#27AE60"
         fill-rule="nonzero"
         stroke="#27AE60"
         stroke-width="1"
         stroke-linecap="butt"
         stroke-linejoin="round"
         stroke-miterlimit="4"
         transform="translate(34.728149,55.016027)"
         d="M 0,0 M 3.4209573,6.0133333 C 3.4634917,4.7053027 3.6993105,2.7008583 4.1284141,0 2.9784009,1.2566129 1.6022629,1.5958004 9.9999999e-8,1.0175626 1.6351037,3.2096396 2.7754227,4.8748966 3.4209573,6.0133333 Z"
         id="path8" /><path
         class="typst-shape"
         fill="#27AE60"
         fill-rule="nonzero"
         stroke="#27AE60"
         stroke-width="1"
         stroke-linecap="butt"
         stroke-linejoin="round"
         stroke-miterlimit="4"
         transform="translate(45.921349,48.488564)"
         d="M 0,0 M 5.3507576,5.6533136 C 4.7805476,4.4753432 4.0578432,2.5909054 3.1826441,0 2.7483353,1.6471131 1.687454,2.586972 0,2.8195767 2.4665213,4.0006937 4.2501073,4.9452729 5.3507576,5.6533136 Z"
         id="path9" /><path
         class="typst-shape"
         fill="#27AE60"
         fill-rule="nonzero"
         stroke="#27AE60"
         stroke-width="1"
         stroke-linecap="butt"
         stroke-linejoin="round"
         stroke-miterlimit="4"
         transform="translate(53.63641,37.946565)"
         d="M 0,0 M 6.054764,3.9981883 C 5.0024383,3.2201369 3.4867732,1.8874076 1.507769,0 1.8886592,1.6602796 1.3860697,2.9854994 1e-7,3.9756596 2.7328888,3.8752372 4.7511436,3.8827469 6.054764,3.9981883 Z"
         id="path10" /><path
         class="typst-shape"
         fill="#27AE60"
         fill-rule="nonzero"
         stroke="#27AE60"
         stroke-width="1"
         stroke-linecap="butt"
         stroke-linejoin="round"
         stroke-miterlimit="4"
         transform="translate(55.593386,25.805075)"
         d="M 0,0 M 5.884215,1.4271258 C 4.5908481,1.2272359 2.6294433,0.75152724 0,0 1.108832,1.2930961 1.2796714,2.700085 0.51251817,4.220967 2.8857024,2.8620109 4.6762679,1.9307305 5.884215,1.4271258 Z"
         id="path11" /><path
         class="typst-shape"
         fill="#27AE60"
         fill-rule="nonzero"
         stroke="#27AE60"
         stroke-width="1"
         stroke-linecap="butt"
         stroke-linejoin="round"
         stroke-miterlimit="4"
         transform="translate(50.348707,13.374688)"
         d="M 0,0 M 5.873432,0 C 4.6353191,0.42406368 2.6775084,0.9143549 0,1.4708738 1.5827537,2.1005535 2.3878849,3.2669873 2.4153934,4.9701752 3.8852053,2.6640057 5.0378848,1.0072805 5.873432,0 Z"
         id="path12" /><path
         class="typst-shape"
         fill="#27AE60"
         fill-rule="nonzero"
         stroke="#27AE60"
         stroke-width="1"
         stroke-linecap="butt"
         stroke-linejoin="round"
         stroke-miterlimit="4"
         transform="translate(40.611636,3.5468045)"
         d="M 0,0 M 4.5171165,0 C 3.6178944,0.95086944 2.1121888,2.2948408 0,4.031914 1.6940856,3.8539252 2.9490626,4.5125878 3.7649312,6.0079019 3.9946544,3.2828348 4.2453828,1.2802009 4.5171165,0 Z"
         id="path13" /><path
         class="typst-shape"
         fill="none"
         stroke="#27AE60"
         stroke-width="1"
         stroke-linecap="butt"
         stroke-linejoin="miter"
         stroke-miterlimit="4"
         transform="translate(4.234403,2.6181102)"
         d="M 0,0 M 26.504398,0 0,38.39825"
         id="path14" /><path
         class="typst-shape"
         fill="none"
         stroke="#27AE60"
         stroke-width="1"
         stroke-linecap="butt"
         stroke-linejoin="miter"
         stroke-miterlimit="4"
         transform="translate(11.941623,5.865026)"
         d="M 0,0 M 5.6239223,0 0,46.31717"
         id="path15" /><path
         class="typst-shape"
         fill="none"
         stroke="#27AE60"
         stroke-width="1"
         stroke-linecap="butt"
         stroke-linejoin="miter"
         stroke-miterlimit="4"
         transform="translate(7.4101239,14.861944)"
         d="M 0,0 16.544926,43.62538"
         id="path16" /><path
         class="typst-shape"
         fill="none"
         stroke="#27AE60"
         stroke-width="1"
         stroke-linecap="butt"
         stroke-linejoin="miter"
         stroke-miterlimit="4"
         transform="translate(2.5990213,27.547779)"
         d="M 0,0 34.92353,30.939548"
         id="path17" /><path
         class="typst-shape"
         fill="none"
         stroke="#27AE60"
         stroke-width="1"
         stroke-linecap="butt"
         stroke-linejoin="miter"
         stroke-miterlimit="4"
         transform="translate(4.234403,41.016359)"
         d="M 0,0 45.301575,11.165835"
         id="path18" /><path
         class="typst-shape"
         fill="none"
         stroke="#27AE60"
         stroke-width="1"
         stroke-linecap="butt"
         stroke-linejoin="miter"
         stroke-miterlimit="4"
         transform="translate(11.941623,41.016359)"
         d="M 0,0 M 0,11.165835 45.301575,0"
         id="path19" /><path
         class="typst-shape"
         fill="none"
         stroke="#27AE60"
         stroke-width="1"
         stroke-linecap="butt"
         stroke-linejoin="miter"
         stroke-miterlimit="4"
         transform="translate(23.955049,27.547779)"
         d="M 0,0 M 0,30.939548 34.92353,0"
         id="path20" /><path
         class="typst-shape"
         fill="none"
         stroke="#27AE60"
         stroke-width="1"
         stroke-linecap="butt"
         stroke-linejoin="miter"
         stroke-miterlimit="4"
         transform="translate(37.522552,14.861944)"
         d="M 0,0 M 0,43.62538 16.544926,0"
         id="path21" /><path
         class="typst-shape"
         fill="none"
         stroke="#27AE60"
         stroke-width="1"
         stroke-linecap="butt"
         stroke-linejoin="miter"
         stroke-miterlimit="4"
         transform="translate(43.912056,5.865026)"
         d="M 0,0 M 5.6239223,46.31717 0,0"
         id="path22" /><path
         class="typst-shape"
         fill="none"
         stroke="#27AE60"
         stroke-width="1"
         stroke-linecap="butt"
         stroke-linejoin="miter"
         stroke-miterlimit="4"
         transform="translate(30.7388,2.6181102)"
         d="M 0,0 M 26.504398,38.39825 0,0"
         id="path23" /><path
         class="typst-shape"
         fill="none"
         stroke="#27AE60"
         stroke-width="1"
         stroke-linecap="butt"
         stroke-linejoin="miter"
         stroke-miterlimit="4"
         transform="translate(17.565545,5.865026)"
         d="M 0,0 M 41.313034,21.682753 0,0"
         id="path24" /><path
         class="typst-shape"
         fill="none"
         stroke="#27AE60"
         stroke-width="1"
         stroke-linecap="butt"
         stroke-linejoin="miter"
         stroke-miterlimit="4"
         transform="translate(7.4101239,14.861944)"
         d="M 0,0 M 46.657352,0 H 0"
         id="path25" /><path
         class="typst-shape"
         fill="none"
         stroke="#27AE60"
         stroke-width="1"
         stroke-linecap="butt"
         stroke-linejoin="miter"
         stroke-miterlimit="4"
         transform="translate(2.5990213,5.865026)"
         d="M 0,0 M 41.313034,0 0,21.682753"
         id="path26" /></g><path
       d="M 87.908143,79.999535 V 60.36799 c 0,-2.904489 -2.344588,-5.249077 -5.249076,-5.249077 H 72.160914 c -2.904488,0 -5.249075,2.344588 -5.249075,5.249077 v 19.77152 m 20.996304,-0.139975 c 0,3.604366 -2.904489,6.508854 -6.508855,6.508854 -3.604365,0 -6.508855,-2.904488 -6.508855,-6.508854 0,-3.604366 2.90449,-6.508855 6.508855,-6.508855 3.604366,0 6.508855,2.904489 6.508855,6.508855 z M 66.911839,80.13951 c 0.03499,3.604366 -2.974477,6.473861 -6.578843,6.473861 -3.604366,0 -6.508855,-2.90449 -6.508855,-6.508855 0,-3.604366 2.904489,-6.508854 6.508855,-6.508854 3.604366,0 6.613836,2.974476 6.613836,6.578841 z"
       id="path0"
       stroke-width="6.99877"
       stroke-linecap="round"
       stroke-linejoin="round"
       stroke="#27AE60"
       fill="none"
       class="foreground-stroke transparent-fill" /></g><style
     type="text/css"
     id="style1">
    .not-initial-state {
      display: none;
    }
  </style></svg>
