<?xml version="1.0" encoding="UTF-8"?>
<svg width="194.68mm" height="194.68mm" version="1.1" viewBox="0 0 194.68 194.68" xmlns="http://www.w3.org/2000/svg" xmlns:cc="http://creativecommons.org/ns#" xmlns:dc="http://purl.org/dc/elements/1.1/" xmlns:rdf="http://www.w3.org/1999/02/22-rdf-syntax-ns#"><metadata><rdf:RDF><cc:Work rdf:about=""><dc:format>image/svg+xml</dc:format><dc:type rdf:resource="http://purl.org/dc/dcmitype/StillImage"/></cc:Work></rdf:RDF></metadata><g transform="translate(-7.7021 -29.663)"><circle cx="105.04" cy="127" r="96.909" fill="#fff" stroke="#000" stroke-linecap="round" stroke-linejoin="round" stroke-width=".85678"/><path d="m119.34 109.32c-3e-3 -7e-3 0.15688 0.0182 0.46674 0.0829 0.30986 0.0632 0.49646 0.0814 1.0907 0.24237 0.59444 0.15989 1.0778 0.23402 1.9271 0.51411 0.84939 0.2798 1.59 0.47326 2.6642 0.89118 1.074 0.41793 2.0258 0.78537 3.2935 1.3554 1.2676 0.57003 2.1949 1.0024 3.5866 1.8054 1.3917 0.80304 2.4992 1.424 3.9635 2.4755 1.4645 1.0516 2.6658 1.9352 4.1521 3.2411 1.4862 1.3059 2.6868 2.4971 4.1454 4.0539 1.4586 1.5568 2.517 2.9126 3.8138 4.7726 1.297 1.86 2.3556 3.4579 3.4246 5.5854 1.069 2.1276 2.0226 3.9894 2.8049 6.3363 0.78231 2.347 1.4206 4.5739 1.9884 7.0559 0.56788 2.4821 0.76823 4.8188 0.9701 7.4088 0.20192 2.5899 0.0572 5.0415-0.1314 7.6634-0.18848 2.6218-0.7014 5.1195-1.2855 7.693-0.58413 2.5735-1.4569 5.0497-2.4193 7.4957-0.9624 2.4461-2.1994 4.823-3.5014 7.0706-1.3021 2.2476-2.8853 4.4468-4.4719 6.4378-1.5867 1.991-3.4653 3.9528-5.2709 5.6435-1.8056 1.6907-3.9105 3.3825-5.863 4.7442-1.9527 1.3618-4.2095 2.7816-6.2346 3.8003-2.0252 1.0187-4.2769 2.023-6.2648 2.7955-1.9879 0.77247-4.3946 1.5174-6.322 1.9609-1.9273 0.44358-4.1249 0.89017-5.9121 1.1219-1.7871 0.23184-3.8715 0.42879-5.4766 0.47811-1.6051 0.0494-3.3133 0.029-4.7021 4e-3 -1.3887-0.0254-3.0977-0.2213-4.2411-0.35575-1.1435-0.13445-2.3919-0.32486-3.2729-0.47188-0.88104-0.14681-1.8654-0.34703-2.4661-0.47566-0.60078-0.12865-1.0607-0.22458-1.3696-0.28598-0.30891-0.0611-0.46686-0.0879-0.46377-0.0771 0.0059 0.0181 0.0138 0.0327 0.02178 0.0509 0.0089 0.0181 0.01891 0.0327 0.03015 0.0494 0.01094 0.0146 0.02394 0.0327 0.03784 0.0484 0.0138 0.0145 0.02867 0.0327 0.04483 0.0469 0.01597 0.0146 0.03311 0.029 0.05143 0.0458 0.01813 0.0146 0.03734 0.029 0.05735 0.0447 0.02039 0.0145 0.04099 0.029 0.06267 0.044 0.02177 0.0145 0.04434 0.029 0.06749 0.0433 0.02364 0.0146 0.0471 0.029 0.07173 0.0422 0.02473 0.0145 0.04956 0.029 0.07537 0.0418 0.02621 0.0109 0.05173 0.029 0.07833 0.0411 0.0269 0.0109 0.0536 0.0254 0.08089 0.0407 0.02759 0.0109 0.05488 0.0254 0.08277 0.0403 0.02837 0.0109 0.05597 0.0254 0.08415 0.0403 0.02837 0.0109 0.05666 0.0254 0.08484 0.04 0.02867 0.0109 0.05676 0.0254 0.08503 0.04 0.02867 0.0109 0.05676 0.0254 0.08454 0.04 0.02837 0.0109 0.05607 0.0254 0.08365 0.04 0.02798 0.0109 0.05518 0.0254 0.08218 0.0403 0.02729 0.0109 0.0537 0.0254 0.08001 0.0403 0.0265 0.0109 0.05203 0.0254 0.07725 0.0411 0.02581 0.0109 0.04986 0.029 0.07409 0.0414 0.02433 0.0146 0.04739 0.029 0.07015 0.0421 0.02286 0.0145 0.04464 0.029 0.06582 0.0428 0.02109 0.0145 0.04138 0.029 0.0609 0.0435 0.01922 0.0146 0.03784 0.029 0.05518 0.0447 0.01744 0.0146 0.03379 0.029 0.04927 0.0454 0.01528 0.0146 0.02946 0.029 0.04237 0.0465 0.01271 0.0145 0.02473 0.0327 0.03527 0.0476 0.01015 0.0145 0.01932 0.0327 0.02729 0.049 0.0079 0.0181 0.01419 0.0327 0.01892 0.0506 0.0049 0.0181 0.0089 0.0328 0.0099 0.0519-3e-3 0.0145 0.13292 0.0654 0.40092 0.1468 0.26792 0.0814 0.96548 0.24093 1.494 0.35684 0.52849 0.11592 1.4685 0.33358 2.2432 0.45575 0.7747 0.1221 1.9503 0.33358 2.9545 0.43566 1.0043 0.1021 2.4005 0.24855 3.6158 0.30706 1.2153 0.0588 2.8102 0.0865 4.2161 0.0821 1.4058-4e-3 3.4381-0.15697 5.0067-0.31977 1.5686-0.16279 3.7171-0.49088 5.4121-0.83831 1.6949-0.34739 3.9153-0.91644 5.6975-1.4671 1.7822-0.55056 4.0178-1.4084 5.8467-2.1733 1.829-0.76495 4.2364-1.9839 6.0221-3.0536 1.7857-1.0697 3.9054-2.4674 5.6458-3.7512 1.7404-1.2838 3.8626-3.0918 5.4448-4.6571 1.5822-1.5653 3.3373-3.5108 4.7886-5.2572 1.4513-1.7464 3.0184-4.0831 4.2102-6.0475 1.1919-1.9644 2.5141-4.4207 3.4017-6.5499 0.88761-2.1291 1.7843-4.5679 2.4498-6.7671 0.66578-2.1992 1.2668-4.8195 1.5887-7.0674 0.32184-2.2478 0.55532-4.7211 0.64848-6.9447 0.0932-2.2237 7e-3 -4.7281-0.22413-6.8783-0.23035-2.1503-0.58792-4.4199-1.0101-6.4581-0.42222-2.0382-1.0139-4.2158-1.6915-6.0788-0.67748-1.863-1.4109-3.7723-2.2122-5.4566-0.80115-1.6842-1.6844-3.3641-2.5722-4.849-0.8879-1.4848-1.8421-2.9327-2.7758-4.2033-0.9337-1.2706-1.878-2.504-2.814-3.5527-0.93598-1.0487-1.8461-2.0267-2.6976-2.8953-0.85154-0.86862-1.6734-1.6688-2.445-2.3193-0.77164-0.65041-1.4445-1.2628-2.0661-1.7404-0.62163-0.47763-1.1492-0.88537-1.5754-1.218-0.42622-0.33286-0.76771-0.57468-0.9925-0.74082-0.22479-0.16607-0.33732-0.25691-0.3297-0.26818 7e-3 -0.0109 0.13522 0.06 0.37568 0.20786 0.24041 0.14789 0.60238 0.37766 1.0456 0.69656 0.44318 0.31904 0.98789 0.71473 1.6268 1.182 0.63898 0.46723 1.3852 1.0608 2.1426 1.7427 0.75735 0.68178 1.6288 1.4459 2.4987 2.313 0.86995 0.86702 1.8051 1.8603 2.7593 2.911 0.9542 1.0507 1.9267 2.3241 2.8779 3.6009 0.95121 1.2768 1.9271 2.7743 2.8312 4.269 0.90409 1.4946 1.8004 3.2324 2.6162 4.93 0.81577 1.6975 1.6673 3.7243 2.2659 5.6343 0.59867 1.91 1.2354 4.0681 1.6666 6.1251 0.43116 2.057 0.76253 4.3984 0.99903 6.5691 0.23652 2.1708 0.25778 4.7705 0.16683 7.016-0.0909 2.2454-0.38329 4.7851-0.70576 7.0552-0.3225 2.2701-1.0342 4.9664-1.7042 7.1877-0.67014 2.2213-1.6369 4.911-2.6386 7.014-1.0017 2.1029-2.2725 4.4885-3.4746 6.4732-1.2021 1.9846-2.924 4.3324-4.3883 6.0971-1.4643 1.7647-3.4195 3.9267-5.0904 5.43-1.671 1.5033-3.7179 3.2099-5.474 4.5083-1.7562 1.2984-4.1585 2.8423-6.01 3.838-1.8514 0.99577-4.1457 2.1134-5.9915 2.8893-1.8458 0.77596-4.1854 1.5596-5.9842 2.1201-1.7988 0.56043-4.1175 1.0406-5.8284 1.3972-1.711 0.35647-3.9505 0.58151-5.5343 0.75291-1.5839 0.17151-3.698 0.20749-5.1183 0.22058-1.4202 0.0145-3.3796-0.0564-4.6039-0.16751-1.2244-0.1112-2.6718-0.25874-3.682-0.40136-1.0102-0.14245-2.2373-0.3463-3.016-0.49568-0.77871-0.14936-1.7737-0.34849-2.3056-0.47767-0.53196-0.129-0.9404-0.22711-1.2165-0.29216-0.27614-0.065-0.41992-0.097-0.42259-0.0934-0.0099 0.0145 0.16541 0.0767 0.51642 0.18568 0.35106 0.10901 1.2069 0.37657 1.9053 0.54031 0.69835 0.16389 1.8916 0.47595 2.9191 0.65495 1.0275 0.17916 2.5463 0.44958 3.8815 0.60892 1.3351 0.15916 3.4886 0.39684 5.1105 0.42409 1.622 0.0254 4.0379 0.0763 5.9069-0.0799 1.869-0.15626 4.4941-0.41887 6.5642-0.80002 2.0701-0.38111 4.8262-1.0543 7.0467-1.6915 2.2204-0.63722 5.2979-1.8844 7.5688-2.9087 2.2708-1.0242 5.2763-2.741 7.5097-4.1636 2.2334-1.4227 5.039-3.658 7.1457-5.4732 2.1067-1.8153 4.8329-4.7194 6.6156-6.9936 1.7827-2.2742 3.9132-5.3893 5.3806-7.9762 1.4674-2.587 3.2376-6.3019 4.176-9.1879 0.93827-2.886 1.9947-6.5898 2.492-9.6202 0.49727-3.0305 0.80921-6.8563 0.84728-9.9394 0.0381-3.0831-0.35469-7.1057-0.91741-10.125-0.56273-3.0195-1.5646-6.6111-2.5456-9.4837-0.98066-2.8727-2.666-6.3536-4.1442-8.9358-1.4782-2.5822-3.5163-5.4844-5.2961-7.7629-1.7798-2.2784-4.3109-4.8866-6.4134-6.7098s-4.6974-3.8491-6.9334-5.2724c-2.2359-1.4231-4.9662-2.9586-7.2465-3.9686-2.2801-1.01-4.8743-1.9666-7.0725-2.6865-2.1982-0.71993-4.8721-1.3017-6.9517-1.6492-2.0796-0.34739-4.3912-0.60891-6.2665-0.73326-1.8754-0.12428-3.9486-0.11737-5.5742-0.06577-1.6257 0.0516-3.4151 0.20349-4.7536 0.37544-1.3383 0.17188-2.672 0.38656-3.7046 0.56643-1.0326 0.17987-2.0408 0.4189-2.7473 0.57174-0.70656 0.15262-1.38 0.33321-1.743 0.42126-0.36309 0.0879-0.55274 0.12464-0.55748 0.10684-0.0049-0.0182 0.17584-0.0883 0.53019-0.20822 0.35429-0.11992 1.0272-0.33249 1.7269-0.51415 0.69976-0.18133 1.7136-0.45037 2.7411-0.65601 1.0275-0.20567 2.3723-0.44721 3.7068-0.64198 1.3346-0.19477 3.1597-0.37177 4.7835-0.44369 1.6239-0.07195 3.7412-0.09774 5.6163 0.0073 1.8751 0.10647 4.2376 0.35611 6.3181 0.68824 2.0804 0.33213 4.8375 0.91742 7.038 1.624 2.2005 0.70651 4.8535 1.6706 7.1362 2.6691 2.2826 0.99864 5.1004 2.5646 7.3393 3.9782 2.2388 1.4135 4.9176 3.4846 7.0232 5.2994 2.1057 1.815 4.7366 4.5053 6.5199 6.7768 1.7833 2.2715 3.8871 5.2465 5.3688 7.8225 1.4817 2.5761 3.0203 5.9859 4.1409 8.8028 1.1205 2.8169 2.1092 6.7899 2.6759 9.8048 0.56664 3.0145 0.99335 7.1776 0.95977 10.257-0.0334 3.0786-0.33565 7.0157-0.82779 10.042-0.49213 3.0265-1.5539 6.8452-2.4863 9.7279-0.93245 2.8826-2.7364 6.7507-4.1969 9.3356-1.4605 2.5848-3.6321 5.8098-5.407 8.083-1.7749 2.2732-4.4311 4.9974-6.439 6.9129-2.008 1.9155-5.2152 4.3648-7.4394 5.7906-2.2242 1.4258-5.3155 3.2306-7.5769 4.2603-2.2614 1.0297-5.1396 2.1452-7.3172 2.8961-2.1777 0.75089-5.3725 1.4775-7.4337 1.8694-2.0611 0.3919-4.767 0.70422-6.6279 0.87399-1.8608 0.1697-4.367 0.16679-5.9818 0.15625-1.6148-0.0109-3.8686-0.20676-5.1985-0.34629-1.3299-0.13954-2.9013-0.38068-3.9248-0.53711-1.0235-0.15626-2.2747-0.43867-2.9706-0.57639-0.69592-0.13773-1.616-0.37461-1.9663-0.45492-0.35045-0.0803-0.52619-0.11264-0.51574-0.0941 0.02069 0.0368 0.24993 0.13263 0.67469 0.28344 0.42467 0.15116 1.4565 0.44891 2.2712 0.66501 0.81456 0.21694 2.2319 0.54606 3.4164 0.78424 1.1846 0.23802 3.3866 0.6074 4.9265 0.75027 1.5399 0.14281 4.0853 0.36193 5.9428 0.34267 1.8576-0.0181 4.6993-0.11011 6.828-0.34703 2.1286-0.23656 5.6123-0.75669 7.9317-1.3685 2.3193-0.61197 5.5044-1.6077 7.9691-2.521 2.4645-0.91382 6.3962-2.835 8.8145-4.3069 2.4179-1.4726 5.8311-3.8358 8.1471-5.7529 2.316-1.9171 5.7163-5.2364 7.7104-7.6811 1.9942-2.4447 4.5621-6.1204 6.2323-8.9386 1.6702-2.8184 3.6944-7.4396 4.796-10.625 1.1016-3.185 2.3202-8.1588 2.7678-11.566 0.44772-3.4077 0.71903-8.5396 0.48082-12.008-0.23812-3.4687-0.97932-8.5339-1.8877-11.904-0.90872-3.3691-2.6307-8.1514-4.1579-11.273-1.5273-3.1213-4.1375-7.4356-6.2053-10.176-2.068-2.7407-5.43-6.4391-7.9356-8.6845-2.5056-2.2454-6.4446-5.2294-9.2603-6.8894-2.8156-1.66-6.8051-3.5959-9.724-4.7674-2.9192-1.1714-7.4554-2.4555-10.403-2.9893-2.9473-0.53384-7.0334-1.0111-9.8499-1.092-2.8168-0.08103-6.7084 0.12973-9.3031 0.44052-2.5947 0.31105-6.1729 1.0512-8.4715 1.6748-2.2986 0.62352-5.5092 1.7079-7.4572 2.5518-1.9481 0.84373-4.4104 2.0221-6.0187 2.9095-1.6083 0.88752-3.6705 2.1697-4.9283 3.0298-1.2579 0.86023-2.9598 2.0953-3.8682 2.854-0.90841 0.75873-1.9676 1.6406-2.568 2.1935-0.60055 0.55273-1.0607 0.97672-1.3708 1.2623-0.31007 0.28561-0.7205 0.70993-0.7205 0.70993l3.0029-2.7932 2.894-2.3509 3.0258-2.1783 3.4714-2.1826 3.2862-1.765 3.384-1.572 3.4712-1.3739 3.9224-1.2448 3.6281-0.9083 3.678-0.69507 4.1092-0.49045 3.7475-0.20168 3.7562 0.0218 4.1552 0.29107 3.7296 0.52243 3.6944 0.74329 3.6462 0.96121 3.5844 1.1744 3.881 1.5782 3.3991 1.6382 3.2952 1.837 3.5171 2.2686 3.0182 2.2585 2.8786 2.4319 2.7299 2.5963 2.8213 3.0765 2.3621 2.9316 2.1878 3.0637 2.1958 3.548 1.7689 3.325 1.5741 3.4228 1.4996 3.905 1.114 3.6056 0.90288 3.667 0.68771 3.7168 0.46989 4.1861 0.18867 3.7855-0.0356 3.7937-0.32697 4.2283-0.54326 3.765-0.76599 3.7288-0.98566 3.6793-1.3726 4.037-1.4628 3.5199-1.6687 3.4266-1.8687 3.321-2.335 3.5636-2.293 3.0388-2.4672 2.8972-2.9558 3.0534-2.8266 2.5427-2.9691 2.3734-3.1016 2.1972-3.6247 2.2092-3.3636 1.7727-3.4617 1.5762-3.983 1.4981-3.6446 1.1105-3.706 0.89743-4.2161 0.72988-3.8027 0.39983-3.8234 0.17551-3.8312-0.0509-4.3013-0.36302s10.851 1.4744 14.771 1.0258c2.7093-0.30996 7.1699-1.19 10.316-2.0263 3.1468-0.83647 8.7942-3.0255 12.064-4.8082 3.2695-1.7828 8.2763-5.0339 11.459-7.6667 3.183-2.6328 7.8941-7.6838 10.551-11.286 2.6569-3.6024 6.6275-10.729 8.3533-15.712 1.7258-4.9823 3.6122-13.576 3.79-19.345 0.1778-5.7691-0.90681-15.27-2.7358-20.956-1.829-5.6867-5.9566-14.258-9.4957-18.951-3.539-4.6929-10.305-11.55-15.214-14.784-4.909-3.2339-12.825-7.0496-17.735-8.4618-4.9101-1.4122-12.22-2.5167-15.945-2.6211-3.7258-0.10429-8.1153 0.22929-8.4281 0.26745-0.31272 0.03852-2.2542 0.23002-4.3946 0.56102-2.1404 0.3314-6.3503 1.2953-9.3359 2.1976-2.9856 0.90223-8.014 3.0658-11.317 4.7893-3.3027 1.7235-8.5741 5.39-11.521 7.9552-2.9467 2.5651-7.0859 7.0778-9.6028 10.31-2.5169 3.2314-5.8257 9.276-7.4747 13.026-1.6489 3.7496-3.6515 10.364-4.2943 14.219-0.64283 3.8542-1.1293 9.9144-1.028 13.443 0.10135 3.5282 0.81066 9.2712 1.5435 12.527 0.73279 3.2553 2.4178 8.592 3.6465 11.408 1.2286 2.8167 3.4252 7.0203 4.8638 9.3502 1.4386 2.3298 4.0924 5.8798 5.5882 7.6695 1.4958 1.7898 3.8806 4.2181 5.202 5.5212 5.466 3.8343 4.1243 2.2321 9.1476 4.1536 7.2963 2.8664 16.937-0.23147 18.59-3.4427 1.6545-3.2111-0.4884-11.878-9.2897-20.64-1.3313-1.2223-1.9027-1.6822-3.4376-3.3875-1.5349-1.7053-1.9158-2.096-3.4331-4.358-1.5173-2.262-1.9865-3.0915-3.3335-5.8787-1.3469-2.7872-1.5113-3.4105-2.3924-6.7044-0.8811-3.2939-0.9825-4.1786-1.239-7.8358-0.25658-3.6572-0.34263-4.2972 0.37908-8.4705 0.72174-4.1733 0.73474-5.306 2.595-9.4868 1.8603-4.1808 2.3818-5.5265 5.2696-9.2199 2.8879-3.6934 4.0025-4.8101 7.591-7.6436 3.5885-2.8336 4.531-3.4954 8.7093-5.2005 4.1783-1.7051 5.516-2.3143 9.3551-2.8959 3.8391-0.58166 5.19-0.83443 7.9842-0.71771 2.7942 0.11665 3.8245 0.17006 4.0507 0.1984 0.22621 0.0291 1.031 0.0254 3.1231 0.38333 2.0921 0.35721 3.3757 0.45262 6.502 1.4865 3.1263 1.0338 4.8512 1.5974 8.4443 3.651 3.5931 2.0535 5.4216 3.3287 8.747 6.5105 3.3254 3.1818 5.0136 5.0769 7.4998 9.4128 2.4863 4.3359 3.884 7.1431 5.0807 12.186 1.1968 5.0429 1.7474 8.482 1.4229 13.629-0.32446 5.1469-1.0518 8.9233-2.5751 13.602-1.5233 4.6788-3.2239 8.0015-5.9577 11.879-2.7338 3.877-5.3763 6.7954-8.7324 9.7057-3.3562 2.9099-6.5794 4.9405-10.149 6.7791 0.23495-0.0327 0.55413-0.11009 0.95255-0.22929 0.3984-0.11882 0.81635-0.26381 1.3581-0.48983 0.5418-0.22602 1.1164-0.44768 1.7825-0.78817 0.66614-0.34049 1.3682-0.6669 2.1396-1.1278 0.77139-0.46083 1.57-0.91459 2.4272-1.4999 0.85769-0.58478 1.72-1.1844 2.6449-1.8953 0.9249-0.71088 1.8179-1.4689 2.7917-2.3057 0.97375-0.8368 1.8231-1.7144 2.7798-2.7229 0.9568-1.0085 1.8414-1.9714 2.7488-3.1474 0.90747-1.1759 1.7619-2.3546 2.6542-3.6457 0.89222-1.2911 1.5783-2.5695 2.3694-4.0086 0.79106-1.4392 1.3948-2.8082 2.0583-4.3776 0.6635-1.5695 1.1591-3.0171 1.6726-4.6948 0.51346-1.6777 0.88304-3.186 1.2292-4.9462 0.34644-1.7602 0.56471-3.3098 0.73259-5.1244 0.16793-1.8144 0.21354-3.3812 0.19748-5.2204-0.016-1.8392-0.15369-3.393-0.3534-5.2273-0.19967-1.8344-0.51994-3.3432-0.89781-5.144-0.3779-1.8008-0.87011-3.2334-1.4158-4.9734-0.54599-1.74-1.0543-2.932-1.8324-4.5508-0.77819-1.6188-1.3829-2.8885-2.292-4.3924-0.909-1.504-1.6079-2.646-2.6263-4.0165-1.0184-1.3704-1.773-2.3786-2.8768-3.6002-1.1038-1.2216-1.8729-2.1006-3.0356-3.1618-1.1628-1.0612-2.1468-1.9112-3.295-2.8621-1.1482-0.95092-1.9539-1.4731-3.1106-2.2552-1.1567-0.78203-1.8471-1.2445-2.9818-1.8593-1.1347-0.61483-1.9838-1.0748-3.0414-1.5838s-1.8278-0.83613-2.7905-1.2446c-0.9626-0.40848-1.6257-0.6273-2.4757-0.94253-0.84998-0.31505-1.3802-0.45583-2.1002-0.68733-0.71988-0.23184-1.0956-0.32922-1.6687-0.48871l8e-5 -5.1e-4" stroke="#fff" stroke-width=".27897"/><path d="m46.688 62.696-8.8253 16.046s6.7321 3.7309 10.43 4.6132c17.517 4.1796 34.772 4.1988 53.954 2.808l0.0606-0.0044c14.267-1.0344 27.064-7.7516 38.45-14.437 8.5407-5.1068 30.294-21.866 23.467-18.453-9.2264 4.6132-18.508 11.662-28.883 14.642-15.679 4.5041-23.066 6.8195-48.739 4.4126-25.673-2.4069-39.914-9.6276-39.914-9.6276z" stroke="#fff" stroke-width=".20057px"/></g></svg>
