<?xml version="1.0" encoding="UTF-8" standalone="no"?>
<svg
   xmlns:dc="http://purl.org/dc/elements/1.1/"
   xmlns:cc="http://creativecommons.org/ns#"
   xmlns:rdf="http://www.w3.org/1999/02/22-rdf-syntax-ns#"
   xmlns:svg="http://www.w3.org/2000/svg"
   xmlns="http://www.w3.org/2000/svg"
   viewBox="0 0 256 256"
   height="256"
   width="256"
   id="svg4539"
   version="1.1">
  <title
     id="title852">Hikou icon</title>
  <metadata
     id="metadata4545">
    <rdf:RDF>
      <cc:Work
         rdf:about="">
        <dc:format>image/svg+xml</dc:format>
        <dc:type
           rdf:resource="http://purl.org/dc/dcmitype/StillImage" />
        <dc:title>Hikou icon</dc:title>
        <cc:license
           rdf:resource="http://artlibre.org/licence/lal" />
        <dc:date>2010-2020</dc:date>
        <dc:creator>
          <cc:Agent>
            <dc:title>Duncan Deveaux</dc:title>
          </cc:Agent>
        </dc:creator>
      </cc:Work>
      <cc:License
         rdf:about="http://artlibre.org/licence/lal">
        <cc:permits
           rdf:resource="http://creativecommons.org/ns#Reproduction" />
        <cc:permits
           rdf:resource="http://creativecommons.org/ns#Distribution" />
        <cc:permits
           rdf:resource="http://creativecommons.org/ns#DerivativeWorks" />
        <cc:requires
           rdf:resource="http://creativecommons.org/ns#ShareAlike" />
        <cc:requires
           rdf:resource="http://creativecommons.org/ns#Notice" />
        <cc:requires
           rdf:resource="http://creativecommons.org/ns#Attribution" />
      </cc:License>
    </rdf:RDF>
  </metadata>
  <defs
     id="defs4543" />
  <g
     transform="matrix(2.6119308,0,0,2.6119308,-538.27598,124.66738)"
     id="g5292">
    <path
       style="fill:#fff3e0;fill-opacity:1;fill-rule:evenodd;stroke:none;stroke-width:1px;stroke-linecap:butt;stroke-linejoin:miter;stroke-opacity:1"
       d="m 232.3125,26.177086 3.81697,5.062581 4.05868,4.416242 3.05658,1.947719 2.3689,0.895111 11.94887,0.147097 7.8898,-3.406596 6.5477,-3.812154 1.38516,-3.634564 1.53671,-6.037311 2.01563,-0.234375 2.1929,-2.766023 1.0571,-4.171477 -0.19531,-4.181222 -1.23744,-2.099223 -2.2539,-1.2153398 -2.03293,0.1546796 -1.43631,1.4805049 -1.21534,2.7621363 -0.44132,-4.839032 -1.92187,0.25 -0.0781,-3.09375 -0.90625,0.453125 -0.82883,-2.7582227 -2.38649,2.1655145 -0.48611,-1.3589749 -1.81199,0.4750914 -1.37002,-2.6516504 -2.76213,2.9831067 -1.34792,-2.0550291 -1.55783,1.8340542 -1.13616,-0.9307688 -0.39844,-0.796875 -1.21651,0.2692401 -0.9788,4.3166974 -1.02344,-1.03125 -0.57031,-1.7734375 -3.125,5.8281251 -2.625,2.875 0.53125,-2.78125 -0.32813,-3.828125 -1.39062,2.578125 -1.40589,-2.9577143 -0.84409,-1.1516567 -1.46875,2.296875 -1.6875,-1.875 -1.56047,2.6612864 -0.89154,-0.8929416 -0.73457,-0.3235875 -0.34818,2.2902282 -1.15274,-0.2974855 -0.50454,3.435272 -0.60058,0.119967 0.0481,0.653431 -1.10486,0.265165 0.01,3.392008 -1.67801,0.508128 -0.60736,1.313525 0.0312,3.1875 0.5,2.53125 1.28125,2.0625 z"
       id="path5233" />
    <path
       style="fill:#3b3b3b;fill-opacity:1;fill-rule:evenodd;stroke:none;stroke-width:1px;stroke-linecap:butt;stroke-linejoin:miter;stroke-opacity:1"
       d="m 272,31.427086 8.53125,2.78125 -1.03125,-2.4375 14.875,0.625 -4.39493,-6.967703 -1.35507,-5.344797 4.29398,-0.444639 -3.41898,-1.180361 1.54073,-1.869037 8.49052,-5.193463 3.15625,-2.3125 -5.34375,-1.6875 -6.71875,-4.6874999 1.10074,-8.5033865 4.77426,-19.3091136 -5.08362,2.515328 -8.72888,3.297172 -9.0625,-9.75 -7.9375,-9.5 -2.90625,4.625 -2.75,7.5 -7.5,-6.78125 -7.07681,-6.007932 -0.64194,8.726682 -1,2.625 -10.59985,-4.810944 -12.57693,-4.345306 3.07519,6.599209 2.56326,4.905553 1.78833,5.213988 -16.52709,0.509158 3.46459,4.365842 3.03125,4.40625 2.96875,6.5 -7.375,1.375 -6,1.9375 5.71875,2.25 3.5,1.09375 4.125,2.15625 -1.25,2.40625 -2.59375,3.15625 -1.3125,2.90625 3.59375,-2.4375 2.625,-0.78125 -2.875,5.78125 -1.53125,3.875 4.15625,-2.78125 2.625,-1.1875 -0.18646,5.000174 2.45213,0.304917 0.45308,5.569909 1.44727,-2.785676 1.39648,0.660676 -0.9375,-5.3125 0.3125,-2.5 2.0625,-1.375 -0.006,-2.963661 1.10486,-0.265165 0.55248,-0.773398 0.50454,-3.435272 1.10604,0.5587087 0.56581,-2.5430877 1.5625,0.890625 1.40625,-2.140625 1.8125,1.375 1.39065,-1.999996 2.24998,4.109371 1.39062,-2.578125 0.36338,4.525964 -0.5665,2.083411 2.625,-2.875 3.1122,-6.0364068 1.52757,3.0230496 1.05778,-4.3267778 1.5212,-0.05049 1.19675,1.6856745 1.59099,-2.010835 1.34792,2.0550291 2.76213,-2.9831067 1.37002,2.6516504 1.81199,-0.4750914 0.48611,1.3589749 2.38649,-2.1655145 0.82883,2.7582227 0.90625,-0.453125 0.0781,3.09375 1.92187,-0.25 0.44132,4.839032 1.58998,-3.292161 2.21875,-1.28125 2.96875,1.359375 1.65625,2.890625 -0.3125,4.765625 -1.5625,4.171875 -1.4375,1.421875 -2.01563,0.234375 z"
       id="path5239" />
    <path
       style="fill:#353535;fill-opacity:1;fill-rule:evenodd;stroke:none;stroke-width:1px;stroke-linecap:butt;stroke-linejoin:miter;stroke-opacity:1"
       d="m 280.10267,31.416444 0.33617,-9.611582 c 1.10991,-0.43704 2.94222,-0.913648 3.32973,-1.311121 -0.26813,-0.603987 -1.40538,-0.997243 -1.49188,-1.593211 1.71902,-2.66307 2.99407,-5.581506 3.48284,-8.189056 -0.56912,-0.9133467 -1.99481,-1.7234949 -3.49134,-2.408583 -0.83367,-1.6670574 -0.31751,-3.1100072 -1.63519,-5.347495 -1.16711,0.3515972 -1.91441,1.6729886 -2.49049,1.7882937 -1.16952,-0.4167039 -1.91879,-1.7124254 -3.25854,-2.0313617 -1.55275,0.4079231 -3.41534,2.5335622 -5.12273,3.800699 l 1.61332,0.132813 0.44171,4.839032 1.92244,-3.8006994 1.8859,-0.7727116 2.96875,1.359375 1.39883,2.131278 0.17677,2.784233 -0.48613,3.999573 -1.87825,3.49134 -0.86747,0.843576 -2.01524,0.234375 -2.92187,9.671875 4.76601,1.447766 3.49134,1.325825 -0.61872,-2.165515 z"
       id="path5247" />
    <path
       style="fill:#353535;fill-opacity:1;fill-rule:evenodd;stroke:none;stroke-width:1px;stroke-linecap:butt;stroke-linejoin:miter;stroke-opacity:1"
       d="m 242.55145,37.276198 0.4798,2.625325 1.78125,-0.255687 0.59375,3.09375 1.72757,-1.998171 1.28024,-2.212766 -3.02591,-0.107429 z"
       id="path5249" />
    <path
       style="fill:#e9d6bb;fill-opacity:1;fill-rule:evenodd;stroke:none;stroke-width:1px;stroke-linecap:butt;stroke-linejoin:miter;stroke-opacity:0.55254241"
       d="m 257.873,38.04557 c 4.61876,-3.035433 6.64386,-4.151522 9.81111,-9.678524 2.61127,-9.590315 1.44367,-14.142136 2.16551,-21.2132035 l 1.52494,-0.5080025 0.44171,4.839032 1.58959,-3.292161 2.21875,-1.28125 2.96875,1.359375 1.39883,2.131278 0.19531,4.806222 -1.59375,4.375 -1.65664,1.9375 -2.01524,0.234375 -1.53671,6.037311 -1.69766,3.853314 -6.2352,3.593404 -6.5773,2.969096 z"
       id="path5251" />
    <path
       style="fill:none;fill-rule:evenodd;stroke:#000000;stroke-width:1.00155795;stroke-linecap:butt;stroke-linejoin:miter;stroke-miterlimit:4;stroke-dasharray:none;stroke-opacity:1"
       d="m 271.625,13.020836 c 0.48606,-3.1711456 2.09208,-6.3293473 4.375,-6 4.69699,1.1473926 4.25007,4.953278 4.1875,7.5625 -0.54593,3.367855 -1.54167,5.65625 -3.25,6.9375 l -2.01563,0.234375 c -0.97395,3.223958 -0.85224,4.444077 -2.92187,9.671875 -5.37552,3.549702 -12.35584,6.664749 -14.4375,7.21875 -8.29768,0.140875 -8.37596,-0.19918 -11.85512,-0.615847 -2.81897,-0.821366 -3.67467,-1.447037 -5.4095,-2.564058 -3.46346,-2.592067 -6.39524,-6.79795 -7.65975,-9.308594 l -1.41421,-6.629126"
       id="path4562" />
    <path
       style="fill:#4c4c4c;fill-opacity:1;fill-rule:evenodd;stroke:none;stroke-width:1px;stroke-linecap:butt;stroke-linejoin:miter;stroke-opacity:1"
       d="m 228.0625,-20.291664 c 1.41488,2.337431 3.82904,4.619615 4.24464,7.012294 -0.50982,1.101983 -4.69947,1.127733 -5.83839,2.112706 0.0922,1.4102959 4.41028,6.3028087 4.42434,7.6750947 -0.007,1.291404 -2.73257,2.2575934 -2.95554,3.34053031 0.0115,1.01195099 1.80208,2.06249999 2.1875,2.95312499 0.11333,0.8623579 -0.73163,3.27314 -0.39063,4.328125 0.41596,0.5033142 2.36459,1.3854167 3.54688,2.078125 l 0.11619,1.698553 -0.94004,0.01294 0.0426,1.069757 -1.19162,-0.544194 0.10226,3.785041 -1.67801,0.508128 -0.60736,1.313525 1.08655,7.05351 -1.63955,-0.776686 -1.44727,2.785676 -0.45308,-5.569909 -2.45213,-0.304917 0.18646,-5.000174 -6.625,3.65625 2.19525,-5.510615 2.05475,-3.833135 -2.625,0.78125 -3.59375,2.4375 1.51235,-3.1642169 3.6439,-5.3045331 -5.38957,-2.5620298 -7.71188,-2.9168155 6.0325,-2.032932 7.26994,-1.5026019 -3.60724,-7.3293708 -6.02709,-7.740842 12.75002,-0.618719 z"
       id="path5241" />
    <path
       style="fill:none;fill-rule:evenodd;stroke:#000000;stroke-width:1.00157475;stroke-linecap:butt;stroke-linejoin:miter;stroke-miterlimit:4;stroke-dasharray:none;stroke-opacity:1"
       d="m 232.8125,26.489586 c -1.10417,-1.15625 -2.01471,-2.319113 -2.61553,-3.637159 -0.59838,-2.309658 -1.41572,-4.571174 -0.85322,-6.675341 0.89265,-1.008111 1.37007,-0.8792 2.06662,-0.946653 l -0.10199,-3.785041 1.19162,0.544194 -0.0426,-1.069757 0.94004,-0.01294 0.16508,-3.542299 1.10604,0.5587087 0.39488,-2.5514514 c 0.65141,0.2023847 0.94611,0.4431136 1.62611,1.2165291 0.51649,-0.8759105 0.95211,-1.9393537 1.56047,-2.6612864 0.83575,0.8850071 1.14919,1.1830191 1.6875,1.875 0.48958,-0.765625 0.98146,-1.8578457 1.46875,-2.296875 1.25901,1.4095916 1.58289,3.1763563 2.19204,4.26735 l 1.63518,-3.3145631 c 0.0168,1.8063173 0.20695,2.8408334 -0.0496,5.3890084 -0.0951,0.6575517 -0.45201,1.6258637 -0.83432,2.4775547 1.06066,-1.193243 2.44949,-2.4957613 3.18198,-3.5797282 1.48463,-2.5129036 2.03293,-4.0069384 3.0494,-6.0104076 0.53002,0.9451832 0.29134,2.1787532 1.52757,3.0230496 0.74913,-1.4969928 0.74812,-2.9396528 1.05778,-4.3267778 0.95979,-0.2757301 1.08723,-0.2789426 1.59099,0.1546796 0.2861,1.0328992 0.46241,1.0687019 1.12696,1.4805049 0.4206,-0.8617864 1.06722,-1.3589709 1.59099,-2.010835 0.44931,0.6850097 0.54868,1.3699883 1.34792,2.0550291 1.75229,-1.1936935 1.84142,-1.9887378 2.76213,-2.9831067 l 1.37002,2.6516504 c 0.57793,-0.1609511 1.13502,-0.2385023 1.76777,-0.6187184 0.0496,0.3737318 0.13266,0.780845 0.53033,1.5026019 1.45899,-1.0167233 1.59099,-1.4436763 2.38649,-2.1655145 0.27506,0.9202202 0.43795,1.9152161 0.82883,2.7582227 l 0.90625,-0.453125 c 0.026,1.03125 0.18975,1.8789446 0.0781,3.09375 1.03198,-0.05072 1.34036,-0.1617403 1.92187,-0.25 l 0.34756,5.832487"
       id="path4583" />
    <path
       style="fill:none;fill-rule:evenodd;stroke:#000000;stroke-width:1px;stroke-linecap:butt;stroke-linejoin:miter;stroke-opacity:1"
       d="m 248.52594,22.113571 c -0.81759,1.06066 -1.37935,1.913235 -1.81197,3.0273 0.41467,1.425736 1.32583,1.69411 2.09923,1.988738"
       id="path4585" />
    <path
       style="fill:none;fill-rule:evenodd;stroke:#000000;stroke-width:1px;stroke-linecap:butt;stroke-linejoin:miter;stroke-opacity:0.93559325"
       d="m 247.96875,33.302086 c 1.51605,0.03469 6.08922,-0.690892 8.5625,-1.3125"
       id="path4587" />
    <path
       style="fill:#ffffff;fill-opacity:1;fill-rule:evenodd;stroke:none;stroke-width:1px;stroke-linecap:butt;stroke-linejoin:miter;stroke-opacity:1"
       d="m 254.86688,12.556255 2.54653,6.876636 4.2161,-0.43501 3.49134,-1.731155 0.44194,-3.969893 -0.1986,-2.583789 -3.07177,-0.288833 -3.88909,0.574525 z"
       id="path5235" />
    <path
       style="fill:none;fill-rule:evenodd;stroke:#000000;stroke-width:1px;stroke-linecap:butt;stroke-linejoin:miter;stroke-opacity:1"
       d="m 254.47986,12.587505 c 4.4764,-2.258155 9.23539,-2.332974 10.88433,-1.874461 0.16889,1.642894 0.18523,3.930917 -0.24334,6.553682 -3.21174,2.263041 -5.42164,1.995146 -8.17619,2.228665"
       id="path4589" />
    <path
       style="fill:#ffffff;fill-opacity:1;fill-rule:evenodd;stroke:none;stroke-width:1px;stroke-linecap:butt;stroke-linejoin:miter;stroke-opacity:1"
       d="m 241.75,21.333336 -1.4375,-6.1875 -3.09375,0.28125 -3.72262,1.007533 0.91012,3.929967 1.95177,2.158106 3.07948,-0.09561 z"
       id="path5237" />
    <path
       style="fill:none;fill-rule:evenodd;stroke:#000000;stroke-width:1.00157475;stroke-linecap:butt;stroke-linejoin:miter;stroke-miterlimit:4;stroke-dasharray:none;stroke-opacity:1"
       d="m 240.74175,15.184238 c -2.39346,0.01912 -4.44761,0.109643 -7.24562,1.250381 0.58536,3.79123 1.37668,4.652465 2.86189,6.088073 3.56046,0.146562 4.52376,-0.60628 5.82291,-1.445464"
       id="path4591" />
    <circle
       style="opacity:1;fill:#000000;fill-opacity:1;stroke:none;stroke-width:0.84761465;stroke-miterlimit:4;stroke-dasharray:none;stroke-dashoffset:0;stroke-opacity:0.42033901"
       id="path4593"
       cx="238.75902"
       cy="18.622232"
       r="1.3479222" />
    <circle
       style="opacity:1;fill:#000000;fill-opacity:1;stroke:none;stroke-width:0.94488192;stroke-miterlimit:4;stroke-dasharray:none;stroke-dashoffset:0;stroke-opacity:0.42033901"
       id="path4593-3"
       cx="260.61423"
       cy="14.622658"
       r="1.5026019" />
    <path
       style="fill:#353535;fill-opacity:1;fill-rule:evenodd;stroke:none;stroke-width:1px;stroke-linecap:butt;stroke-linejoin:miter;stroke-opacity:1"
       d="m 263.70663,-35.316758 c 6.27071,5.490059 11.42885,11.243628 18.86185,16.541992 -0.84607,-1.853877 -11.28618,-12.993537 -16.88098,-19.766898 z"
       id="path5243" />
    <path
       style="fill:#353535;fill-opacity:1;fill-rule:evenodd;stroke:none;stroke-width:1px;stroke-linecap:butt;stroke-linejoin:miter;stroke-opacity:1"
       d="m 291.41638,-22.588836 c -0.42721,8.441087 -1.3744,15.5585781 -1.28163,25.3232612 l 0.7955,-2.98310679 1.19324,-7.09316491 L 296.5,-25.104164 Z"
       id="path5245" />
    <path
       style="fill:none;fill-rule:evenodd;stroke:#000000;stroke-width:1.00157475;stroke-linecap:butt;stroke-linejoin:miter;stroke-miterlimit:4;stroke-dasharray:none;stroke-opacity:1"
       d="m 272,31.427086 c 3.03474,0.915941 6.17205,1.688302 8.8125,3.15625 -0.69979,-1.024931 -1.11245,-1.95415 -1.3125,-2.8125 6.14006,0.222681 10.56376,0.832955 14.875,0.625 -2.59473,-3.643083 -5.18877,-7.286634 -5.75,-12.3125 1.57772,-0.09049 3.13044,-0.114233 4.60938,-0.375 -1.29803,-0.440071 -2.53115,-0.938365 -3.73438,-1.25 1.58345,-3.221979 9.21547,-5.614298 13.1875,-9.375 -5.50371,-1.4506789 -8.27455,-3.0747645 -12.0625,-6.3749999 0.70504,-10.1759864 3.91667,-18.5416671 5.875,-27.8125001 -4.33877,2.379833 -9.14784,3.975816 -13.8125,5.8125 -5.9546,-5.984764 -11.51114,-12.566628 -17,-19.25 -2.62375,3.389307 -4.22744,7.694726 -5.8125,12.4375 -5.20897,-4.351205 -8.67317,-9.540627 -14.42056,-13.101682 -0.42429,4.662561 -0.62387,9.527764 -2.16551,13.214058 l 0.27931,-1.987553 c -7.1713,-3.390505 -14.9464,-6.944271 -22.93252,-9.031073 2.43879,5.559648 5.7351,10.710844 7.42678,16.71875 -5.60417,0.01282 -11.20833,0.207174 -16.8125,0.46875 4.8389,5.069817 7.18047,8.982258 9.625,14.890625 l 1.875,-0.015625 c -5.04167,1.25 -9.7056,1.3667907 -15.125,3.75 4.76487,2.375471 9.48513,2.7632819 13.34375,5.5 -1.47228,3.4285297 -4.18932,5.1211851 -5.4375,8.625 2.14002,-1.169408 3.91677,-2.944264 6.5,-3.375 -1.49453,3.19297 -3.28109,6.093905 -4.40625,9.65625 2.2431,-1.461429 4.46011,-3.131634 6.78125,-3.96875 0.0802,1.666725 0.14175,3.333449 -0.18646,5.000174 0.92068,-0.208261 1.69574,0.02032 2.45213,0.304917 l 0.37564,6.496544 1.52471,-3.712311 3.22793,2.027403"
       id="path4610" />
    <path
       style="fill:none;fill-rule:evenodd;stroke:#000000;stroke-width:1px;stroke-linecap:butt;stroke-linejoin:miter;stroke-opacity:1"
       d="m 242.51761,36.988556 c 0.0936,0.833123 0.27335,2.050514 0.51364,2.912967 l 1.78125,-0.255687 c -0.0349,1.011845 0.28467,2.053236 0.59375,3.09375 1.20145,-1.331337 2.12634,-2.763244 3.00781,-4.210937"
       id="path4612" />
    <path
       style="fill:none;fill-rule:evenodd;stroke:#000000;stroke-width:1px;stroke-linecap:butt;stroke-linejoin:miter;stroke-opacity:1"
       d="m 254.82361,9.1646774 c 2.67069,-2.557573 5.30593,-3.6549515 8.3306,-5.2370096"
       id="path4614" />
    <path
       style="fill:none;fill-rule:evenodd;stroke:#000000;stroke-width:1.00157475;stroke-linecap:butt;stroke-linejoin:miter;stroke-miterlimit:4;stroke-dasharray:none;stroke-opacity:1"
       d="m 239.86388,11.971007 c -1.70901,-0.960379 -4.04341,-1.134017 -6.46644,-1.064118"
       id="path4616" />
  </g>
</svg>
