<?xml version="1.0" encoding="UTF-8" standalone="no"?>
<svg width="50px" height="50px" viewBox="0 0 50 50" version="1.1" xmlns="http://www.w3.org/2000/svg"
     xmlns:sketch="http://www.bohemiancoding.com/sketch/ns">
    <!-- Generator: Sketch 3.4.4 (17249) - http://www.bohemiancoding.com/sketch -->
    <title>Avatar TMM</title>
    <desc>Created with Sketch.</desc>
    <defs>
        <radialGradient cx="50%" cy="45.5179706%" fx="50%" fy="45.5179706%" r="60.5550275%" id="radialGradient-1">
            <stop stop-color="#494949" offset="0%"></stop>
            <stop stop-color="#303030" offset="100%"></stop>
        </radialGradient>
        <filter x="-50%" y="-50%" width="200%" height="200%" filterUnits="objectBoundingBox" id="filter-2">
            <feOffset dx="0" dy="0" in="SourceAlpha" result="shadowOffsetOuter1"></feOffset>
            <feGaussianBlur stdDeviation="0.5" in="shadowOffsetOuter1" result="shadowBlurOuter1"></feGaussianBlur>
            <feColorMatrix values="0 0 0 0 0   0 0 0 0 0   0 0 0 0 0  0 0 0 0.170918252 0" in="shadowBlurOuter1"
                           type="matrix" result="shadowMatrixOuter1"></feColorMatrix>
            <feMerge>
                <feMergeNode in="shadowMatrixOuter1"></feMergeNode>
                <feMergeNode in="SourceGraphic"></feMergeNode>
            </feMerge>
        </filter>
    </defs>
    <g id="Page-1" stroke="none" stroke-width="1" fill="none" fill-rule="evenodd" sketch:type="MSPage">
        <rect id="Rectangle-path" fill="url(#radialGradient-1)" sketch:type="MSShapeGroup" x="0" y="0" width="50"
              height="50" rx="3.90625"></rect>
        <g id="Group" sketch:type="MSLayerGroup" transform="translate(7.000000, 7.000000)" filter="url(#filter-2)"
           fill="#FF7D00">
            <path d="M17.9998759,36 C8.0745088,36 0,27.9254912 0,17.9998759 C0,8.07426053 8.0745088,-3.55271368e-15 17.9998759,-3.55271368e-15 C27.9254912,-3.55271368e-15 36,8.07426053 36,17.9998759 C36,27.9254912 27.9254912,36 17.9998759,36 L17.9998759,36 Z M21.7547223,4.45422508 L19.0957428,16.9303256 C18.9388357,17.5961877 18.8881885,18.1160666 18.8881885,18.5835603 C18.8881885,20.0270063 19.5595126,20.4907761 21.0029586,20.4907761 C23.0169307,20.4907761 24.8739957,18.5272029 25.6498417,15.9469252 L27.8169969,15.9469252 C24.8739957,24.3615649 19.765329,25.4983966 16.9787384,25.4983966 C13.8785818,25.4983966 11.4552113,23.6358696 11.4552113,19.3015593 C11.4552113,18.3216347 11.6083943,17.1845548 11.8665959,15.9469252 L14.3237312,4.43188072 C8.34363427,6.05507472 3.92664979,11.5152928 3.92664979,17.9998759 C3.92664979,25.7563499 10.2396778,32.0691296 17.9998759,32.0691296 C25.7600739,32.0691296 32.0733502,25.7563499 32.0733502,17.9998759 C32.0733502,11.5413612 27.6955925,6.10348751 21.7547223,4.45422508 L21.7547223,4.45422508 Z"
                  id="Shape" sketch:type="MSShapeGroup"></path>
        </g>
    </g>
</svg>
