<?xml version="1.0" encoding="UTF-8" standalone="no"?>
<!-- Created with Inkscape (http://www.inkscape.org/) -->
<svg
   xmlns:dc="http://purl.org/dc/elements/1.1/"
   xmlns:cc="http://creativecommons.org/ns#"
   xmlns:rdf="http://www.w3.org/1999/02/22-rdf-syntax-ns#"
   xmlns:svg="http://www.w3.org/2000/svg"
   xmlns="http://www.w3.org/2000/svg"
   xmlns:sodipodi="http://sodipodi.sourceforge.net/DTD/sodipodi-0.dtd"
   xmlns:inkscape="http://www.inkscape.org/namespaces/inkscape"
   id="svg2440"
   sodipodi:version="0.32"
   inkscape:version="0.46"
   width="250"
   height="250"
   version="1.0"
   sodipodi:docname="irssi.svg"
   inkscape:output_extension="org.inkscape.output.svg.inkscape">
  <metadata
     id="metadata2445">
    <rdf:RDF>
      <cc:Work
         rdf:about="">
        <dc:format>image/svg+xml</dc:format>
        <dc:type
           rdf:resource="http://purl.org/dc/dcmitype/StillImage" />
      </cc:Work>
    </rdf:RDF>
  </metadata>
  <defs
     id="defs2443">
    <inkscape:perspective
       sodipodi:type="inkscape:persp3d"
       inkscape:vp_x="0 : 526.18109 : 1"
       inkscape:vp_y="0 : 1000 : 0"
       inkscape:vp_z="744.09448 : 526.18109 : 1"
       inkscape:persp3d-origin="372.04724 : 350.78739 : 1"
       id="perspective2447" />
  </defs>
  <sodipodi:namedview
     inkscape:window-height="712"
     inkscape:window-width="1024"
     inkscape:pageshadow="2"
     inkscape:pageopacity="0.0"
     guidetolerance="10.0"
     gridtolerance="10.0"
     objecttolerance="10.0"
     borderopacity="1.0"
     bordercolor="#666666"
     pagecolor="#ffffff"
     id="base"
     showgrid="false"
     inkscape:zoom="1.5006295"
     inkscape:cx="150.1661"
     inkscape:cy="122.08154"
     inkscape:window-x="-4"
     inkscape:window-y="-4"
     inkscape:current-layer="svg2440" />
  <path
     style="fill:#000000;fill-rule:evenodd;stroke:#000000;stroke-width:1px;stroke-linecap:butt;stroke-linejoin:miter;stroke-opacity:1"
     d="M 142.23344,227.08088 C 213.54544,205.30439 193.13152,150.26388 203.58455,144.3603 C 198.05888,150.06657 191.42707,159.64432 187.04043,161.36398 C 188.87254,150.04316 191.54448,137.58997 186.12131,110.12317 C 182.08782,121.16262 180.37378,134.81146 167.04962,135.3989 C 165.82723,100.23954 167.64622,93.748372 165.21138,87.834559 L 154.18197,71.97978 L 153.95219,93.349265 C 150.5055,103.79615 147.74815,109.37254 144.30146,105.75735 L 142.00366,80.481618 C 128.78492,53.188631 120.85582,37.722876 121.09374,39.351103 C 115.37024,27.964851 116.70288,22.096106 114.43013,14.764706 C 112.56488,23.985952 109.62422,30.33946 111.21322,48.772059 C 114.00725,60.980358 118.73146,73.960729 118.79594,85.077206 C 106.46445,77.132614 92.754284,64.976926 80.422788,64.16728 C 89.730418,72.588262 95.009934,82.784544 91.452194,96.106618 L 87.545948,121.15258 L 63.419118,101.16177 C 72.047338,123.54153 69.825198,140.33018 65.487128,153.3217 C 57.545218,148.4831 50.076818,140.32987 41.590078,139.30515 C 52.191908,180.61383 63.664328,206.61601 78.124998,215.8217 C 84.068938,219.84322 93.591924,223.36771 112.36212,228 C 92.551574,210.52516 78.114088,194.00612 74.218748,178.36765 C 79.120708,178.74398 85.631128,181.30659 90.533088,184.11214 C 91.856724,172.1413 90.301648,156.33215 94.898884,148.72611 C 97.625054,163.55111 102.13727,175.47841 109.1452,182.96324 C 108.41219,164.17269 105.64474,139.9974 110.06432,137.23714 C 115.42584,154.09682 120.78736,156.52249 126.14888,158.37684 C 126.32331,152.24939 127.36131,146.12194 125.9191,139.99449 C 121.10366,124.79677 121.36194,123.77421 121.32351,119.54412 C 128.7054,128.82923 134.35003,136.56017 137.40807,146.88787 L 136.71874,173.19762 C 139.93039,171.81894 140.55514,170.21049 140.39521,170.21049 L 149.58639,151.48346 L 153.49264,148.03677 C 151.49098,160.59804 146.80337,173.15932 154.64153,185.72059 L 164.06249,168.02758 C 164.14051,185.94697 157.46911,205.48621 142.23344,227.08088 z"
     id="path2451"
     sodipodi:nodetypes="cccccccccccccccccccccccccccccccccccccc" />
  <rect
     style="fill:#ffffff"
     id="rect2453"
     width="0.91911763"
     height="19.30147"
     x="-3.6764705"
     y="-23.838236" />
</svg>
