<svg xmlns="http://www.w3.org/2000/svg" width="256" height="256" version="1.0"><path d="M256 196.25c0 40.122-21.534 60.038-64.603 59.747H67.495C22.498 255.997 0 236.663 0 197.994V60.184C0 20.06 22.016 0 66.049 0h124.384C234.144 0 256 20.206 256 60.62v135.63" style="text-align:start;line-height:125%;-inkscape-font-specification:Kimberley" font-size="108.872" font-weight="400" fill="#1b2019" font-family="Kimberley"/><path d="M19.006 169.515c5.949-3.124 17.076 1.966 22.115 10.12 4.518 7.31 27.406 14.114 35.516 10.558 5.412-2.372 6.779-5.378 7.202-15.844.798-19.685-3.636-35.098-17.99-62.536-7.205-13.77-14.753-29-16.775-33.835C47.052 73.14 41.601 64.6 36.961 59c-9.876-11.91-10.183-15.164-2.078-22.074C47.02 26.581 67.52 43.327 63.095 59.97c-2.178 8.191 2.003 20.14 15.85 45.295 16.431 29.85 33.084 41.94 43.03 31.243 2.57-2.763 5.759-18.178 8.698-42.04 4.421-35.889 4.399-38.037-.47-45.252-8.418-12.475-.48-25.42 12.84-20.943 13.43 4.513 22.192 22.778 13.775 28.714-3.735 2.633-4.942 10.29-6.636 42.097-2.173 40.785-.53 51.7 8.609 57.187 8.121 4.876 10.946 3.885 28.067-9.889 18.167-14.612 25.636-24.069 26.115-33.067.446-8.37 5.992-12.847 14.832-11.972 5.635.56 8.15 2.41 11.3 8.312 6.431 12.053 4.589 19.71-5.212 21.667-7.987 1.592-21.708 19.27-42.815 55.16-22.288 37.897-27.173 41.845-52.152 42.147-10.268.123-24.634-3.295-58.453-13.914-24.663-7.746-48.043-14.468-51.957-14.943-14.142-1.708-21.187-24.12-9.51-30.257z" fill="#ededed"/></svg>