<?xml version="1.0" encoding="UTF-8" standalone="no"?>
<!-- Created with Inkscape (http://www.inkscape.org/) -->

<svg
   width="128"
   height="128"
   viewBox="0 0 128 128"
   version="1.1"
   id="svg1"
   xml:space="preserve"
   inkscape:version="1.3.2 (091e20ef0f, 2023-11-25)"
   sodipodi:docname="page.codeberg.kissg.icons.svg"
   xmlns:inkscape="http://www.inkscape.org/namespaces/inkscape"
   xmlns:sodipodi="http://sodipodi.sourceforge.net/DTD/sodipodi-0.dtd"
   xmlns="http://www.w3.org/2000/svg"
   xmlns:svg="http://www.w3.org/2000/svg"><sodipodi:namedview
     id="namedview1"
     pagecolor="#ffffff"
     bordercolor="#000000"
     borderopacity="0.25"
     inkscape:showpageshadow="2"
     inkscape:pageopacity="0.0"
     inkscape:pagecheckerboard="0"
     inkscape:deskcolor="#d1d1d1"
     inkscape:document-units="px"
     inkscape:zoom="1.5182292"
     inkscape:cx="147.54031"
     inkscape:cy="80.027444"
     inkscape:window-width="1271"
     inkscape:window-height="659"
     inkscape:window-x="3203"
     inkscape:window-y="739"
     inkscape:window-maximized="0"
     inkscape:current-layer="layer1" /><defs
     id="defs1" /><g
     inkscape:label="Layer 1"
     inkscape:groupmode="layer"
     id="layer1"><g
       style="fill:#ff0000"
       id="g1"
       transform="matrix(6.290622,0,0,6.290622,-11.095885,-14.641996)"><g
         style="fill:#c30000;fill-opacity:1"
         id="g2"
         transform="translate(-0.040698,1.3248294)"><path
           d="M 2,9.1371 C 2,14 6.01943,16.5914 8.96173,18.9109 10,19.7294 11,20.5 12,20.5 c 1,0 2,-0.7706 3.0383,-1.5891 C 17.9806,16.5914 22,14 22,9.1371 22,4.27416 16.4998,0.825464 12,5.50063 7.50016,0.825464 2,4.27416 2,9.1371 Z"
           fill="#1c274c"
           id="path1-2"
           style="fill:#c30000;fill-opacity:1" /></g><path
         d="M 2,9.1371 C 2,14 6.01943,16.5914 8.96173,18.9109 10,19.7294 11,20.5 12,20.5 c 1,0 2,-0.7706 3.0383,-1.5891 C 17.9806,16.5914 22,14 22,9.1371 22,4.27416 16.4998,0.825464 12,5.50063 7.50016,0.825464 2,4.27416 2,9.1371 Z"
         fill="#1c274c"
         id="path1"
         style="fill:#ff0000" /></g><g
       id="g3"
       transform="matrix(5.3143074,0,0,4.1324766,22.133023,24.730324)"><path
         fill="#444444"
         d="M 2.1,3.1 C 2.3,4.4 2.5,4.7 2.5,6 2.5,6.8 1,7.5 1,7.5 v 1 c 0,0 1.5,0.7 1.5,1.5 0,1.3 -0.2,1.6 -0.4,2.9 C 1.8,15 2.9,16 3.9,16 4.9,16 6,16 6,16 V 14 C 6,14 4.2,14.2 4.2,13 4.2,12.1 4.4,12.1 4.6,10.1 4.7,9.2 4.1,8.5 3.5,8 4.1,7.5 4.7,6.9 4.6,6 4.3,4 4.2,4 4.2,3.1 4.2,1.9 6,2 6,2 V 0 C 6,0 5,0 3.9,0 2.8,0 1.8,1 2.1,3.1 Z"
         id="path1-9" /><path
         fill="#444444"
         d="M 13.9,3.1 C 13.7,4.4 13.5,4.7 13.5,6 13.5,6.8 15,7.5 15,7.5 v 1 c 0,0 -1.5,0.7 -1.5,1.5 0,1.3 0.2,1.6 0.4,2.9 0.3,2.1 -0.8,3.1 -1.8,3.1 -1,0 -2.1,0 -2.1,0 v -2 c 0,0 1.8,0.2 1.8,-1 0,-0.9 -0.2,-0.9 -0.4,-2.9 C 11.3,9.2 11.9,8.5 12.5,8 11.9,7.5 11.3,6.9 11.4,6 11.6,4 11.8,4 11.8,3.1 11.8,1.9 10,2 10,2 V 0 c 0,0 1,0 2.1,0 1.1,0 2.1,1 1.8,3.1 z"
         id="path2" /></g></g></svg>
