<?xml version="1.0" encoding="UTF-8" standalone="no"?>
<!DOCTYPE svg PUBLIC "-//W3C//DTD SVG 1.1//EN" "http://www.w3.org/Graphics/SVG/1.1/DTD/svg11.dtd">
<svg width="100%" height="100%" viewBox="0 0 1280 1280" version="1.1" xmlns="http://www.w3.org/2000/svg" xmlns:xlink="http://www.w3.org/1999/xlink" xml:space="preserve" xmlns:serif="http://www.serif.com/" style="fill-rule:evenodd;clip-rule:evenodd;stroke-linejoin:round;stroke-miterlimit:1.41421;">
    <g transform="matrix(1,0,0,1,-1330,-10850)">
        <g id="peercoin-icon-green-whiteback" transform="matrix(1,0,0,1,1330,10850)">
            <rect x="0" y="0" width="1280" height="1280" style="fill:none;"/>
            <rect x="0" y="0" width="1280" height="1280" style="fill:white;"/>
            <g transform="matrix(1,0,0,1,-1330,-10850)">
                <path d="M1970,10850C2323.23,10850 2610,11136.8 2610,11490C2610,11843.2 2323.23,12130 1970,12130C1616.77,12130 1330,11843.2 1330,11490C1330,11136.8 1616.77,10850 1970,10850ZM2056.99,11829.8C2045.59,11830.8 2036.56,11831 2031.04,11831C1850.7,11831.4 1704.29,11684.6 1704.29,11504.2C1704.29,11502.8 1704.3,11501.3 1704.32,11499.9L1704.32,11495.3L1704.29,11495.3L1704.29,11148.9L1704.32,11148.9L1704.32,11148.9L1704.32,11148.9C1813.76,11147.2 2083.79,11171.1 2232.7,11378.2C2271.26,11431.9 2293.97,11497.6 2293.97,11568.6C2293.97,11611.3 2285.79,11652 2270.91,11689.4L2270.81,11689.3C2261.26,11714.6 2235.86,11766.8 2169.6,11800C2158.93,11805.3 2148.04,11809.8 2137.27,11813.4C2184.82,11631.4 2122.66,11367.6 1846.46,11240.9C2014.2,11344.8 2146.69,11606.7 2056.99,11829.8Z" style="fill:rgb(60,176,84);"/>
            </g>
        </g>
    </g>
</svg>
