<svg id="Layer_1" data-name="Layer 1" xmlns="http://www.w3.org/2000/svg" viewBox="4 0 28 28"><defs><style>.cls-1{fill:#26b99a;}.cls-2{fill:#209e84;}.cls-3{fill:#2c3e50;}</style></defs><title>logo-tower-only-green</title><rect class="cls-1" x="12.2" y="20.67" width="11.59" height="1.86"/><polygon class="cls-1" points="22.51 20.21 13.49 20.21 14.64 8.04 21.36 8.04 22.51 20.21"/><polygon class="cls-1" points="21.37 4.44 21.37 5.06 20.02 5.06 20.02 4.44 18.68 4.44 18.68 5.06 17.32 5.06 17.32 4.44 15.98 4.44 15.98 5.06 14.63 5.06 14.63 4.44 13.29 4.44 13.29 5.06 13.29 5.78 13.29 6.69 22.71 6.69 22.71 5.78 22.71 5.06 22.71 4.44 21.37 4.44"/><polygon class="cls-2" points="13.29 6.69 14.64 8.04 21.36 8.04 22.71 6.69 13.29 6.69"/><polygon class="cls-2" points="12.2 20.67 13.49 19.75 22.51 19.75 23.8 20.67 12.2 20.67"/><path class="cls-2" d="M19.73,13.66l-.48-.1a1.27,1.27,0,0,0,0-.25v-.52a1.27,1.27,0,1,0-2.53,0v.52s0,.05,0,.08l-.49,0s0-.08,0-.12v-.52a1.76,1.76,0,1,1,3.52,0v.52A1.76,1.76,0,0,1,19.73,13.66Z"/><circle class="cls-2" cx="18" cy="14.34" r="0.32"/><path class="cls-2" d="M20.19,14.35A2.2,2.2,0,1,1,18,12.26,2.12,2.12,0,0,1,20.19,14.35Zm-3.68,0A1.48,1.48,0,0,0,18,15.82a1.47,1.47,0,1,0-1.49-1.47Z"/><polygon class="cls-2" points="17.91 14.56 17.77 15.04 18.23 15.04 18.07 14.56 17.91 14.56"/></svg>
