<?xml version="1.0" encoding="UTF-8" standalone="no"?>
<!-- Created with Inkscape (http://www.inkscape.org/) -->

<svg
   version="1.1"
   id="svg209"
   width="64"
   height="64"
   viewBox="0 0 64 64"
   sodipodi:docname="vpuppr-icon.svg"
   xml:space="preserve"
   inkscape:version="1.2.2 (b0a8486541, 2022-12-01)"
   xmlns:inkscape="http://www.inkscape.org/namespaces/inkscape"
   xmlns:sodipodi="http://sodipodi.sourceforge.net/DTD/sodipodi-0.dtd"
   xmlns="http://www.w3.org/2000/svg"
   xmlns:svg="http://www.w3.org/2000/svg"><defs
     id="defs213" /><sodipodi:namedview
     id="namedview211"
     pagecolor="#ffffff"
     bordercolor="#666666"
     borderopacity="1.0"
     inkscape:showpageshadow="2"
     inkscape:pageopacity="0.0"
     inkscape:pagecheckerboard="0"
     inkscape:deskcolor="#d1d1d1"
     showgrid="false"
     inkscape:zoom="9.7558639"
     inkscape:cx="35.619603"
     inkscape:cy="38.899682"
     inkscape:window-width="1920"
     inkscape:window-height="1061"
     inkscape:window-x="0"
     inkscape:window-y="0"
     inkscape:window-maximized="1"
     inkscape:current-layer="g513" /><g
     inkscape:groupmode="layer"
     inkscape:label="Image"
     id="g215"><g
       id="g513"
       transform="matrix(1.1134894,0,0,1.1134894,-4.7273592,-4.7273557)"><path
         style="fill:#fefefe;stroke-width:0.0550381"
         d="m 11.84938,17.133037 v -1.76122 h 1.76122 1.76122 v 1.76122 1.76122 H 13.6106 11.84938 Z m 31.701962,0 v -1.76122 h 1.76122 1.76122 v 1.76122 1.76122 h -1.76122 -1.76122 z"
         id="path497"
         inkscape:label="eyeSparkle" /><path
         style="fill:#feef3c;stroke-width:0.0550381"
         d="M 4.8044999,29.461578 V 18.894257 H 6.56572 8.3269401 v -3.52244 -3.52244 H 10.08816 11.84938 V 8.3269368 4.8044966 h 21.134641 21.134641 v 3.5224402 3.5224402 h 1.76122 1.761221 v 3.52244 3.52244 h 1.76122 1.76122 v 10.567321 10.567321 h -1.76122 -1.76122 v -3.522441 -3.52244 h -5.283661 -5.28366 v -1.76122 -1.76122 h -5.28366 -5.283661 v -1.76122 -1.76122 h -3.52244 -3.52244 v 1.76122 1.76122 h -5.28366 -5.283661 v 1.76122 1.76122 H 13.6106 8.3269401 v 3.52244 3.522441 H 6.56572 4.8044999 Z m 17.6122011,-8.8061 V 15.371817 H 17.13304 11.84938 v 5.283661 5.28366 h 5.28366 5.283661 z m 31.701961,0 v -5.283661 h -5.28366 -5.28366 v 5.283661 5.28366 h 5.28366 5.28366 z"
         id="path495"
         inkscape:label="headColor" /><path
         style="fill:#44b6de;stroke-width:0.0550381"
         d="M 4.8044999,57.6411 V 54.118659 H 6.56572 8.3269401 v 1.76122 1.761221 h 1.7612199 1.76122 v 1.76122 1.76122 H 8.3269401 4.8044999 Z M 54.118662,59.40232 V 57.6411 h 1.76122 1.761221 v -1.761221 -1.76122 h 1.76122 1.76122 v 3.522441 3.52244 h -3.52244 -3.522441 z M 4.8044999,10.088157 V 4.8044966 H 8.3269401 11.84938 V 6.5657167 8.3269368 H 10.08816 8.3269401 v 3.5224402 3.52244 H 6.56572 4.8044999 Z m 52.8366031,1.76122 V 8.3269368 h -1.761221 -1.76122 V 6.5657167 4.8044966 h 3.522441 3.52244 v 5.2836604 5.28366 h -1.76122 -1.76122 z"
         id="path493"
         inkscape:label="backGround" /><path
         style="fill:#fe7366;stroke-width:0.0550381"
         d="m 18.89426,45.312559 v -1.76122 h -1.76122 -1.76122 v -1.76122 -1.76122 H 13.6106 11.84938 v -1.761221 -1.76122 H 10.08816 8.3269401 v -1.76122 -1.76122 H 13.6106 18.89426 v -1.76122 -1.76122 h 5.283661 5.28366 v -1.76122 -1.76122 h 3.52244 3.52244 v 1.76122 1.76122 h 5.283661 5.28366 v 1.76122 1.76122 h 5.28366 5.283661 v 1.76122 1.76122 h -1.761221 -1.76122 v 1.76122 1.761221 h -1.76122 -1.76122 v 1.76122 1.76122 h -1.76122 -1.76122 v 1.76122 1.76122 H 32.984021 18.89426 Z"
         id="path491"
         inkscape:label="beakTop" /><path
         style="fill:#fec400;stroke-width:0.0550381"
         d="M 11.84938,59.40232 V 57.6411 H 10.08816 8.3269401 v -1.761221 -1.76122 H 6.56572 4.8044999 v -7.04488 -7.04488 H 6.56572 8.3269401 v 3.52244 3.52244 h 1.7612199 1.76122 v 1.76122 1.76122 h 1.76122 1.76122 v 1.76122 1.76122 h 3.52244 3.522441 v 1.76122 1.761221 h 10.56732 10.567321 v -1.761221 -1.76122 h 3.52244 3.52244 v -1.76122 -1.76122 h 1.76122 1.76122 v -1.76122 -1.76122 h 1.76122 1.761221 v -3.52244 -3.52244 h 1.76122 1.76122 v 7.04488 7.04488 h -1.76122 -1.76122 v 1.76122 1.761221 h -1.761221 -1.76122 v 1.76122 1.76122 H 32.984021 11.84938 Z M 4.8044999,17.133037 v -1.76122 H 6.56572 8.3269401 v 1.76122 1.76122 H 6.56572 4.8044999 Z m 52.8366031,0 v -1.76122 h 1.76122 1.76122 v 1.76122 1.76122 h -1.76122 -1.76122 z M 8.3269401,10.088157 V 8.3269368 h 1.7612199 1.76122 v 1.7612202 1.76122 H 10.08816 8.3269401 Z m 45.7917219,0 V 8.3269368 h 1.76122 1.761221 v 1.7612202 1.76122 h -1.761221 -1.76122 z"
         id="path489"
         inkscape:label="headShade" /><path
         style="fill:#fb4a2e;stroke-width:0.0550381"
         d="m 22.416701,55.879879 v -1.76122 H 18.89426 15.37182 v -1.76122 -1.76122 H 13.6106 11.84938 v -1.76122 -1.76122 H 10.08816 8.3269401 v -5.28366 -5.283661 h 1.7612199 1.76122 v 1.76122 1.761221 h 1.76122 1.76122 v 1.76122 1.76122 h 1.76122 1.76122 v 1.76122 1.76122 h 14.089761 14.089761 v -1.76122 -1.76122 h 1.76122 1.76122 v -1.76122 -1.76122 h 1.76122 1.76122 v -1.761221 -1.76122 h 1.76122 1.761221 v 5.283661 5.28366 h -1.761221 -1.76122 v 1.76122 1.76122 h -1.76122 -1.76122 v 1.76122 1.76122 h -3.52244 -3.52244 v 1.76122 1.761221 H 32.984021 22.416701 Z"
         id="path487"
         inkscape:label="beakBottom" /><path
         style="fill:#003775;stroke-width:0.0550381"
         d="m 11.84938,22.416698 v -3.522441 h 1.76122 1.76122 v -1.76122 -1.76122 h 3.52244 3.522441 v 5.283661 5.28366 H 17.13304 11.84938 Z m 31.701962,0 v -3.522441 h 1.76122 1.76122 v -1.76122 -1.76122 h 3.52244 3.52244 v 5.283661 5.28366 h -5.28366 -5.28366 z"
         id="path485"
         inkscape:label="eyes" /></g></g></svg>
