<?xml version="1.0" encoding="UTF-8" standalone="no"?>
<!-- Created with Inkscape (http://www.inkscape.org/) -->

<svg
   width="56.705402mm"
   height="56.705402mm"
   viewBox="0 0 56.705403 56.705401"
   version="1.1"
   id="svg1"
   xml:space="preserve"
   xmlns:xlink="http://www.w3.org/1999/xlink"
   xmlns="http://www.w3.org/2000/svg"
   xmlns:svg="http://www.w3.org/2000/svg"><defs
     id="defs1"><linearGradient
       id="linearGradient4"><stop
         style="stop-color:#286fa2;stop-opacity:1;"
         offset="0"
         id="stop2" /><stop
         style="stop-color:#4e9cd3;stop-opacity:1;"
         offset="0.1638298"
         id="stop3" /><stop
         style="stop-color:#2d3384;stop-opacity:1;"
         offset="1"
         id="stop4" /></linearGradient><filter
       style="color-interpolation-filters:sRGB"
       id="filter49"
       x="-0.18499603"
       y="-0.10993715"
       width="1.369992"
       height="1.2422247"><feFlood
         result="flood"
         in="SourceGraphic"
         flood-opacity="1.000000"
         flood-color="rgb(0,0,0)"
         id="feFlood48" /><feGaussianBlur
         result="blur"
         in="SourceGraphic"
         stdDeviation="3.000000"
         id="feGaussianBlur48" /><feOffset
         result="offset"
         in="blur"
         dx="0.000000"
         dy="0.000000"
         id="feOffset48" /><feComposite
         result="comp1"
         operator="in"
         in="flood"
         in2="offset"
         id="feComposite48" /><feComposite
         result="comp2"
         operator="over"
         in="SourceGraphic"
         in2="comp1"
         id="feComposite49" /></filter><linearGradient
       xlink:href="#linearGradient4"
       id="linearGradient2"
       x1="65.569504"
       y1="95.265907"
       x2="65.569504"
       y2="154.22949"
       gradientUnits="userSpaceOnUse" /><filter
       style="color-interpolation-filters:sRGB"
       id="filter7"
       x="-0.11901763"
       y="-0.11901763"
       width="1.2380353"
       height="1.2380353"><feFlood
         result="flood"
         in="SourceGraphic"
         flood-opacity="1.000000"
         flood-color="rgb(0,0,0)"
         id="feFlood6" /><feGaussianBlur
         result="blur"
         in="SourceGraphic"
         stdDeviation="3.000000"
         id="feGaussianBlur6" /><feOffset
         result="offset"
         in="blur"
         dx="0.000000"
         dy="0.000000"
         id="feOffset6" /><feComposite
         result="comp1"
         operator="in"
         in="flood"
         in2="offset"
         id="feComposite6" /><feComposite
         result="comp2"
         operator="over"
         in="SourceGraphic"
         in2="comp1"
         id="feComposite7" /></filter><linearGradient
       id="linearGradient3895"><stop
         style="stop-color:#ffffff;stop-opacity:1;"
         offset="0"
         id="stop3897" /><stop
         id="stop3903"
         offset="0.66910732"
         style="stop-color:#ffffff;stop-opacity:1;" /><stop
         style="stop-color:#0b0b0b;stop-opacity:1;"
         offset="1"
         id="stop3899" /></linearGradient><linearGradient
       id="linearGradient3948"><stop
         style="stop-color:#59595a;stop-opacity:1;"
         offset="0"
         id="stop3950" /><stop
         style="stop-color:#e1e1e1;stop-opacity:1;"
         offset="1"
         id="stop3952" /></linearGradient><linearGradient
       id="linearGradient3808"><stop
         style="stop-color:#dac5c5;stop-opacity:1;"
         offset="0"
         id="stop3810" /><stop
         style="stop-color:#fffbfb;stop-opacity:1;"
         offset="1"
         id="stop3812" /></linearGradient><linearGradient
       id="linearGradient3765"><stop
         id="stop3767"
         offset="0"
         style="stop-color:#cc1200;stop-opacity:1;" /><stop
         id="stop3769"
         offset="1"
         style="stop-color:#fcff00;stop-opacity:1;" /></linearGradient><linearGradient
       xlink:href="#linearGradient3765"
       id="linearGradient3763"
       x1="30"
       y1="59"
       x2="30"
       y2="4"
       gradientUnits="userSpaceOnUse" /><linearGradient
       xlink:href="#linearGradient3948"
       id="linearGradient3954"
       x1="33.700081"
       y1="1056.1953"
       x2="33.046333"
       y2="1000.4432"
       gradientUnits="userSpaceOnUse" /><radialGradient
       xlink:href="#linearGradient3895"
       id="radialGradient3901"
       cx="35.606064"
       cy="37.463051"
       fx="35.606064"
       fy="37.463051"
       r="11.339286"
       gradientTransform="matrix(1.3258515,-0.51152583,0.65662715,1.5705741,-35.660736,-5.0071536)"
       gradientUnits="userSpaceOnUse" /><filter
       id="filter4087"
       width="1.5"
       height="1.5"
       x="-0.25"
       y="-0.25"><feGaussianBlur
         id="feGaussianBlur4089"
         in="SourceAlpha"
         stdDeviation="1.5"
         result="blur" /><feColorMatrix
         id="feColorMatrix4091"
         result="bluralpha"
         type="matrix"
         values="1 0 0 0 0 0 1 0 0 0 0 0 1 0 0 0 0 0 0.6 0 " /><feOffset
         id="feOffset4093"
         in="bluralpha"
         dx="2"
         dy="1.1"
         result="offsetBlur" /><feMerge
         id="feMerge4095"><feMergeNode
           id="feMergeNode4097"
           in="offsetBlur" /><feMergeNode
           id="feMergeNode4099"
           in="SourceGraphic" /></feMerge></filter><radialGradient
       xlink:href="#linearGradient3895"
       id="radialGradient6547"
       gradientUnits="userSpaceOnUse"
       gradientTransform="matrix(1.3258515,-0.51152583,0.65662715,1.5705741,-35.660736,-5.0071536)"
       cx="35.606064"
       cy="37.463051"
       fx="35.606064"
       fy="37.463051"
       r="11.339286" /><linearGradient
       xlink:href="#linearGradient3948"
       id="linearGradient3132"
       gradientUnits="userSpaceOnUse"
       x1="33.700081"
       y1="1056.1953"
       x2="33.046333"
       y2="1000.4432"
       gradientTransform="matrix(0.96070958,0,0,0.96070958,-0.50049529,-948.04099)" /><radialGradient
       xlink:href="#linearGradient3895"
       id="radialGradient3134"
       gradientUnits="userSpaceOnUse"
       gradientTransform="matrix(1.3258515,-0.51152583,0.65662715,1.5705741,-35.660736,-5.0071536)"
       cx="35.606064"
       cy="37.463051"
       fx="35.606064"
       fy="37.463051"
       r="11.339286" /><filter
       style="color-interpolation-filters:sRGB"
       id="filter9"
       x="-0.52377564"
       y="-0.52371203"
       width="2.0475513"
       height="2.0474241"><feFlood
         result="flood"
         in="SourceGraphic"
         flood-opacity="1.000000"
         flood-color="rgb(0,0,0)"
         id="feFlood7" /><feGaussianBlur
         result="blur"
         in="SourceGraphic"
         stdDeviation="3.000000"
         id="feGaussianBlur7" /><feOffset
         result="offset"
         in="blur"
         dx="0.000000"
         dy="0.000000"
         id="feOffset7" /><feComposite
         result="comp1"
         operator="in"
         in="flood"
         in2="offset"
         id="feComposite8" /><feComposite
         result="comp2"
         operator="over"
         in="SourceGraphic"
         in2="comp1"
         id="feComposite9" /></filter></defs><g
     id="layer1"
     transform="translate(-38.47135,-96.520452)"><circle
       style="fill:url(#linearGradient2);stroke-width:1.13;stroke-linecap:round;stroke-linejoin:round"
       id="path1"
       cx="66.824051"
       cy="124.87315"
       r="28.352701" /><path
       id="path57"
       style="fill:none;stroke:#ffffff;stroke-width:4.14216704;stroke-linecap:butt;stroke-linejoin:miter;stroke-dasharray:none;stroke-opacity:1;filter:url(#filter49)"
       d="M 91.903068,110.17757 H 131.62881 M 85.870878,93.855056 c 0.817007,5.838774 -0.107096,12.257834 6.03219,16.322514 0,0 -4.410641,8.41855 -4.958871,13.03486 -0.306064,2.57718 0.227116,5.2415 0.98702,7.72305 5.16519,16.86746 23.835243,47.25034 23.835243,47.25034 0,0 18.66963,-30.38293 23.83472,-47.25034 0.75989,-2.48155 1.29313,-5.14588 0.98702,-7.72305 -0.54832,-4.61636 -4.95939,-13.03486 -4.95939,-13.03486 6.13929,-4.06468 5.21571,-10.48374 6.03271,-16.322514 z"
       transform="matrix(0.48283905,0,0,0.48283905,12.858967,61.293738)" /><path
       style="fill:#ffffff;fill-opacity:1;stroke:none;stroke-width:0.238;stroke-dasharray:none;filter:url(#filter9)"
       d="m 66.760701,118.52864 c -0.377237,-0.004 -0.75706,0.0268 -1.162533,0.11923 v 1.14017 c -0.372775,0.52616 -0.666642,1.31044 -2.153659,0.94642 l -0.78992,-0.78993 c -0.580073,0.44243 -0.966079,0.84976 -1.363738,1.38609 l 0.75267,0.75267 c 0.546048,1.23335 -0.08085,1.76203 -0.886801,2.17602 h -1.110366 c -0.153229,0.76369 -0.0965,1.5316 -0.0072,2.29525 h 1.080552 c 1.123606,0.39457 1.211699,1.18068 0.92406,2.13875 l -0.767559,0.76757 c 0.228793,0.32958 0.819483,1.00333 1.378636,1.40844 l 0.797374,-0.79738 c 1.047763,-0.11205 1.70823,0.0511 2.146205,0.96132 v 1.13273 c 0.746244,0.12297 1.500825,0.16347 2.287798,0.0149 v -1.14018 c 0.379471,-0.90198 1.168527,-1.09749 2.153658,-0.96132 l 0.856995,0.857 c 0.669003,-0.52165 1.034685,-0.87121 1.38609,-1.36374 l -0.849514,-0.84954 c -0.162909,-0.77872 -0.368025,-1.59865 0.931514,-2.16856 h 1.237052 c 0.116303,-0.77237 0.137159,-1.5421 0,-2.29525 h -1.259404 c -1.212042,-0.52726 -1.062625,-1.35224 -0.92406,-2.15366 l 0.871893,-0.87189 c -0.376552,-0.60101 -0.887107,-0.99856 -1.415896,-1.37119 l -0.842087,0.83463 c -1.022968,0.30593 -1.697415,-0.0786 -2.146214,-0.9017 v -1.17744 c -0.376597,-0.0431 -0.748038,-0.0855 -1.125265,-0.0894 z m 0.08941,4.49361 c 0.873056,-0.004 1.725715,0.4555 2.176011,1.27431 0.654969,1.191 0.214769,2.69103 -0.976227,3.346 -1.190996,0.65497 -2.683574,0.21477 -3.338544,-0.97622 -0.65497,-1.19101 -0.222223,-2.68358 0.968773,-3.33855 0.372189,-0.20467 0.773139,-0.30349 1.169987,-0.30554 z"
       id="path3847"
       transform="matrix(0.82980659,0,0,0.82980659,11.373013,21.342646)" /></g></svg>
