<?xml version="1.0" encoding="UTF-8" standalone="no"?>
<svg
   xmlns:dc="http://purl.org/dc/elements/1.1/"
   xmlns:cc="http://creativecommons.org/ns#"
   xmlns:rdf="http://www.w3.org/1999/02/22-rdf-syntax-ns#"
   xmlns:svg="http://www.w3.org/2000/svg"
   xmlns="http://www.w3.org/2000/svg"
   xmlns:sodipodi="http://sodipodi.sourceforge.net/DTD/sodipodi-0.dtd"
   xmlns:inkscape="http://www.inkscape.org/namespaces/inkscape"
   id="svg62"
   viewBox="0 0 256 256"
   version="1.1"
   sodipodi:docname="q2pro.svg"
   inkscape:version="1.0 (4035a4fb49, 2020-05-01)"
   height="256pt"
   width="256pt">
  <metadata
     id="metadata66">
    <rdf:RDF>
      <cc:Work
         rdf:about="">
        <dc:format>image/svg+xml</dc:format>
        <dc:type
           rdf:resource="http://purl.org/dc/dcmitype/StillImage" />
      </cc:Work>
    </rdf:RDF>
  </metadata>
  <defs
     id="defs64" />
  <sodipodi:namedview
     inkscape:document-rotation="0"
     id="namedview57"
     showgrid="false"
     pagecolor="#ffffff"
     objecttolerance="10"
     inkscape:zoom="0.69140625"
     inkscape:window-y="0"
     inkscape:window-x="0"
     inkscape:window-width="1920"
     inkscape:window-maximized="1"
     inkscape:window-height="1016"
     inkscape:pageshadow="2"
     inkscape:pageopacity="0"
     inkscape:cy="170.66667"
     inkscape:cx="-154.75706"
     inkscape:current-layer="#000000ff"
     guidetolerance="10"
     gridtolerance="10"
     borderopacity="1"
     bordercolor="#666666" />
  <g
     id="#000000ff">
    <path
       style="fill:#006400;fill-opacity:1"
       id="path59"
       d="m165.94 4.69c0.89-0.02 1.79-0.04 2.7-0.06 10.26 5.79 20.67 12.01 28.12 21.36 6.15 6.9 11.32 14.7 14.93 23.22 2.11 4.74 4.68 9.52 4.8 14.84-0.05 2.77 1.37 5.22 2.13 7.81 0.93 2.49 0.64 5.2 0.85 7.81 0.73 1.56 1.03 3.26 1.14 4.97-0.49 1.36-0.92 2.73-1.3 4.12 0.87 1.91 1.25 3.98 1.41 6.06-1.65 2.05-3.16 4.21-4.66 6.36 0.84 0.81 1.68 1.62 2.53 2.44-3.17 11.67-7.97 23.03-15.02 32.92-3.27 5.12-8.19 8.86-11.62 13.87-0.78 0.07-2.35 0.21-3.14 0.28-0.24-1.74-0.49-3.46-0.78-5.19-0.37 1.86-0.74 3.73-1.19 5.57-0.2 1.76 0.36 4.1-1.51 5.15-5.08 3.76-10.62 6.89-16.24 9.79-6.95 3.1-14.18 5.56-21.49 7.66 1.36 6.35-0.21 12.76 0.23 19.16 0.24 9.53-2.33 18.76-3.34 28.17-1.73 7.57-2.46 15.31-3.15 23.03-0.19 2.64-0.96 5.2-2.04 7.61-0.37-0.9-1.1-2.71-1.47-3.61-3.01-13.41-2.86-27.29-5.89-40.7-0.39-3.8-0.96-7.57-1.35-11.37-0.35-2.84 2.86-5.3 1.25-8.09-1.64-4-1.13-8.38-1.12-12.59-2.12-0.03-4.23-0.05-6.35-0.07-0.45 4.76 0.42 9.6-0.73 14.29-0.49 1.81-0.03 3.65 0.27 5.44-0.13 3.99 0.09 8.01-0.71 11.95-1.01 5-2.57 9.93-2.74 15.05-0.27 5.05-1.79 9.94-2 15-0.21 5.22-0.78 10.5-2.55 15.45-1.73-2.58-1.84-5.73-2.25-8.71-0.55-4.25-1.89-8.37-2.12-12.66-0.33-7.4-2.05-14.65-2.54-22.04-1.15-5.44-2.03-10.95-1.78-16.54 0.59-0.03 1.78-0.1 2.37-0.13-0.93-1.29-2.2-2.51-2.2-4.23-0.9-5.02-0.47-10.14-0.7-15.21-3.54-0.91-7.15-1.64-10.52-3.07-0.51-1.43-0.76-2.93-1.08-4.41-2.63 0.13-5.22 1-7.86 0.79-6.18-2.71-11.4-7.08-17.28-10.32-1.07-2.28-2.15-4.56-3.39-6.75 0.38-1.19 0.77-2.37 1.15-3.55-1.04 1.22-1.73 3.29-3.71 3.13-4.78-2.63-8.06-7.15-11.47-11.27-3.24-4.1-6.81-8.25-8.18-13.41-0.19-1.77 2.04-2.29 3-3.4-3.01 0.38-6.12-0.77-7.29-3.76-4.72-10.71-3.76-22.74-5.69-34.07 0.32-0.39 0.96-1.16 1.28-1.55-1.17-10.24 3.73-19.58 6.1-29.23 0.37-0.45 1.11-1.34 1.47-1.79 0.53-2.24 1.18-4.5 2.61-6.36 1.76-2.41 2.52-5.43 4.58-7.62 3.22-3.54 5.4-7.86 8.51-11.49 0.56-0.14 1.67-0.44 2.23-0.59 0.16-0.55 0.47-1.67 0.63-2.23 3.32-2.79 6.44-5.98 10.47-7.76 5.24-4.6 11.54-9.07 18.88-8.58-0.57 3.58-4.25 4.71-6.99 6.24-12.47 6.41-22.7 17.12-28.32 29.99-1.76 4.09-3.71 8.12-4.92 12.43-1.9 4.34-1.6 9.18-2.64 13.74-1.21 4.3 0.54 8.66-0.05 13.03 0.15 3.14 0.81 6.41-0.79 9.32-0.71 0.12-2.12 0.35-2.83 0.47 1.94 0.62 3.89 1.23 5.83 1.86 0.03 1.4 0.07 2.81 0.11 4.21 4.14 8.07 7.09 16.81 12.52 24.16 1.82 2.12 3.79 4.11 5.62 6.23 2.07 2.69 5.3 4.02 7.74 6.31 2.06 1.96 4.26 3.78 6.57 5.46 0.98 1.9 2.07 3.75 3.34 5.48 2.15-2.17 4.88-0.33 7.24 0.31 2.06 1.21 4.24 2.2 6.49 3.03 0.52 1.65 1.06 3.29 1.61 4.93 1.89-0.91 3.76-1.81 5.65-2.7-0.02-1.1-0.04-2.2-0.05-3.31 0.45-0.47 1.36-1.41 1.81-1.88-0.43-0.46-1.3-1.38-1.73-1.83 0.3-8.16 0.17-16.37-2.07-24.28-2.98-0.95-6-1.75-9.02-2.55 0.08-1.25 0.18-2.5 0.29-3.75 9.16 1.2 18.56 1.83 27.71 0.22 5.93-0.71 11.8 1.09 17.74 0.69 6.03 0.05 12.4-2.24 18.19 0.38-2.13 4.22-8.07 1.83-10.59 5.68-3.39 5.26-0.74 11.92-2.73 17.6 0.86 4.18 0.89 8.47 0.79 12.72 10.79-1.72 20.33-7.68 28.96-14.09 4.93-4.06 9.93-8.21 13.57-13.52 2.39-2.1 4.51-4.45 5.75-7.43 0.56-0.14 1.7-0.42 2.27-0.57 1.37-5.99 4.31-11.46 6.16-17.29 1.41-6.58 3.17-13.16 3.24-19.93 1.22-0.8 2.45-1.61 3.69-2.4-0.89-0.02-2.66-0.07-3.54-0.09-0.65-3.79-1.02-7.62-1.21-11.45-0.31-6.35-3.4-12.13-4.08-18.41-3.26-3.01-4.3-7.49-7.12-10.81-3.73-4.95-7.17-10.23-12.15-14.05-5.95-4.63-11.69-9.83-18.81-12.59 0.39-0.62 1.17-1.84 1.56-2.45m-39.26 114.9c-0.89 2.74-1.93 5.47-2.27 8.36-0.54 3.94 0.24 7.92-0.2 11.87-0.46 3.79-0.6 7.61-0.8 11.43 2.65 0.04 5.29 0.07 7.94 0.1-0.07-6.78-0.2-13.56-0.04-20.34 0.21-3.92-0.93-7.74-2.04-11.46-0.86 0.01-1.73 0.03-2.59 0.04z" />
  </g>
</svg>
