<svg width="48" height="48" viewBox="0 0 48 48" fill="none" xmlns="http://www.w3.org/2000/svg">
<g clip-path="url(#clip0_225_8)">
<rect x="4" y="10" width="40" height="31" rx="4" fill="url(#paint0_linear_225_8)"/>
<path d="M8 11H40C44 11 44 15 44 15V14C44 11.7909 42.2091 10 40 10H8C5.79086 10 4 11.7909 4 14V15C4 15 4 11 8 11Z" fill="white" fill-opacity="0.18"/>
<path d="M40 40H8C4 40 4 36 4 36V37C4 39.2091 5.79086 41 8 41H40C42.2091 41 44 39.2091 44 37V36C44 36 44 40 40 40Z" fill="black" fill-opacity="0.18"/>
<path d="M11 35.9998L19.0715 25.9998L32 40L15 40L11 35.9998Z" fill="url(#paint1_linear_225_8)" fill-opacity="0.26"/>
<circle cx="14.5" cy="30.5" r="6.5" fill="url(#paint2_linear_225_8)"/>
<path d="M13.394 26.4644C13.2924 25.8549 13.7625 25.3 14.3804 25.3H14.6195C15.2374 25.3 15.7075 25.8549 15.6059 26.4644L15.2568 28.5589C15.1951 28.9289 14.875 29.2 14.5 29.2V29.2C14.1249 29.2 13.8048 28.9289 13.7431 28.5589L13.394 26.4644Z" fill="url(#paint3_linear_225_8)"/>
<path d="M25.9999 34.5699L27.9286 32.5699L26 30.5699L27.9286 28.5699L25.9999 26.5699L39.9999 25.4303L44 30L44 36C44 38 42.5 40 40 40L31.0713 40L25.9999 34.5699Z" fill="url(#paint4_linear_225_8)" fill-opacity="0.26"/>
<path d="M25 25.5C25 24.9477 25.4477 24.5 26 24.5H39C39.5523 24.5 40 24.9477 40 25.5V25.5C40 26.0523 39.5523 26.5 39 26.5H26C25.4477 26.5 25 26.0523 25 25.5V25.5Z" fill="url(#paint5_linear_225_8)"/>
<rect x="25" y="28.5" width="15" height="2" rx="1" fill="url(#paint6_linear_225_8)"/>
<path d="M25 33.5C25 32.9477 25.4477 32.5 26 32.5H39C39.5523 32.5 40 32.9477 40 33.5V33.5C40 34.0523 39.5523 34.5 39 34.5H26C25.4477 34.5 25 34.0523 25 33.5V33.5Z" fill="url(#paint7_linear_225_8)"/>
<rect x="8" y="14" width="32" height="7" rx="2" fill="url(#paint8_linear_225_8)"/>
<path d="M8 17C8 17 8.00002 15 9.88233 15H38C40 15 40 17 40 17V16C40 14.8954 39.1046 14 38 14H10C8.89543 14 8 14.8954 8 16V17Z" fill="black" fill-opacity="0.2"/>
<path d="M12 17C11.4477 17 11 17.4477 11 18V21H13V18C13 17.4477 12.5523 17 12 17Z" fill="url(#paint9_linear_225_8)"/>
<path d="M18 16C17.4477 16 17 16.4477 17 17V21H19V17C19 16.4477 18.5523 16 18 16Z" fill="url(#paint10_linear_225_8)"/>
<path d="M36 16C35.4477 16 35 16.4477 35 17V21H37V17C37 16.4477 36.5523 16 36 16Z" fill="url(#paint11_linear_225_8)"/>
<path d="M24 19C23.4477 19 23 19.4477 23 20V21H25V20C25 19.4477 24.5523 19 24 19Z" fill="url(#paint12_linear_225_8)"/>
<path d="M30 17C29.4477 17 29 17.4477 29 18V21H31V18C31 17.4477 30.5523 17 30 17Z" fill="url(#paint13_linear_225_8)"/>
<rect x="12" y="7" width="27" height="1" fill="url(#paint14_linear_225_8)"/>
<path d="M12 7H13C13.5523 7 14 7.44772 14 8V8H12V7Z" fill="black" fill-opacity="0.2"/>
<path d="M9.54415 8.36754C9.81638 7.55086 10.5807 7 11.4415 7H11.5585C12.4193 7 13.1836 7.55086 13.4558 8.36754L14 10H9L9.54415 8.36754Z" fill="url(#paint15_linear_225_8)"/>
</g>
<defs>
<linearGradient id="paint0_linear_225_8" x1="42.0395" y1="32.0357" x2="22.1232" y2="6.33723" gradientUnits="userSpaceOnUse">
<stop stop-color="#2A7FFF"/>
<stop offset="1" stop-color="#00CCFF"/>
</linearGradient>
<linearGradient id="paint1_linear_225_8" x1="14.0714" y1="30.1429" x2="25.4444" y2="32.7432" gradientUnits="userSpaceOnUse">
<stop/>
<stop offset="0.982143" stop-opacity="0"/>
</linearGradient>
<linearGradient id="paint2_linear_225_8" x1="21" y1="36.8604" x2="8" y2="24" gradientUnits="userSpaceOnUse">
<stop stop-color="#BCBCBC"/>
<stop offset="1" stop-color="#FAFAFA"/>
</linearGradient>
<linearGradient id="paint3_linear_225_8" x1="-15.0079" y1="29.2" x2="-15.0079" y2="25.3" gradientUnits="userSpaceOnUse">
<stop stop-color="#2A2C2F"/>
<stop offset="1" stop-color="#424649"/>
</linearGradient>
<linearGradient id="paint4_linear_225_8" x1="27.9655" y1="26.1632" x2="42.4983" y2="40.5757" gradientUnits="userSpaceOnUse">
<stop/>
<stop offset="1" stop-opacity="0"/>
</linearGradient>
<linearGradient id="paint5_linear_225_8" x1="40" y1="26.4785" x2="39.4705" y2="22.5497" gradientUnits="userSpaceOnUse">
<stop stop-color="#BCBCBC"/>
<stop offset="1" stop-color="#FAFAFA"/>
</linearGradient>
<linearGradient id="paint6_linear_225_8" x1="40" y1="30.4785" x2="39.4705" y2="26.5497" gradientUnits="userSpaceOnUse">
<stop stop-color="#BCBCBC"/>
<stop offset="1" stop-color="#FAFAFA"/>
</linearGradient>
<linearGradient id="paint7_linear_225_8" x1="40" y1="34.4785" x2="39.4705" y2="30.5497" gradientUnits="userSpaceOnUse">
<stop stop-color="#BCBCBC"/>
<stop offset="1" stop-color="#FAFAFA"/>
</linearGradient>
<linearGradient id="paint8_linear_225_8" x1="40" y1="20.9248" x2="37.0484" y2="7.57666" gradientUnits="userSpaceOnUse">
<stop stop-color="#BCBCBC"/>
<stop offset="1" stop-color="#FAFAFA"/>
</linearGradient>
<linearGradient id="paint9_linear_225_8" x1="15" y1="22" x2="15" y2="14" gradientUnits="userSpaceOnUse">
<stop stop-color="#B05757"/>
<stop offset="1" stop-color="#DE5757"/>
</linearGradient>
<linearGradient id="paint10_linear_225_8" x1="21" y1="22.25" x2="21" y2="12.25" gradientUnits="userSpaceOnUse">
<stop stop-color="#B05757"/>
<stop offset="1" stop-color="#DE5757"/>
</linearGradient>
<linearGradient id="paint11_linear_225_8" x1="39" y1="22.25" x2="39" y2="12.25" gradientUnits="userSpaceOnUse">
<stop stop-color="#B05757"/>
<stop offset="1" stop-color="#DE5757"/>
</linearGradient>
<linearGradient id="paint12_linear_225_8" x1="27" y1="21.5" x2="27" y2="17.5" gradientUnits="userSpaceOnUse">
<stop stop-color="#B05757"/>
<stop offset="1" stop-color="#DE5757"/>
</linearGradient>
<linearGradient id="paint13_linear_225_8" x1="33" y1="22" x2="33" y2="14" gradientUnits="userSpaceOnUse">
<stop stop-color="#B05757"/>
<stop offset="1" stop-color="#DE5757"/>
</linearGradient>
<linearGradient id="paint14_linear_225_8" x1="17.4" y1="6.8" x2="17.4704" y2="8.86506" gradientUnits="userSpaceOnUse">
<stop stop-color="#A2A2A2"/>
<stop offset="1" stop-color="#808080"/>
</linearGradient>
<linearGradient id="paint15_linear_225_8" x1="10" y1="6.4" x2="12.6251" y2="11.1523" gradientUnits="userSpaceOnUse">
<stop stop-color="#A2A2A2"/>
<stop offset="1" stop-color="#808080"/>
</linearGradient>
<clipPath id="clip0_225_8">
<rect width="48" height="48" fill="white"/>
</clipPath>
</defs>
</svg>
