<?xml version="1.0" encoding="UTF-8" standalone="no"?>
<!-- Created with Inkscape (http://www.inkscape.org/) -->

<svg
   xmlns:dc="http://purl.org/dc/elements/1.1/"
   xmlns:cc="http://creativecommons.org/ns#"
   xmlns:rdf="http://www.w3.org/1999/02/22-rdf-syntax-ns#"
   xmlns:svg="http://www.w3.org/2000/svg"
   xmlns="http://www.w3.org/2000/svg"
   xmlns:sodipodi="http://sodipodi.sourceforge.net/DTD/sodipodi-0.dtd"
   xmlns:inkscape="http://www.inkscape.org/namespaces/inkscape"
   width="31.157333mm"
   height="31.157333mm"
   viewBox="0 0 31.157333 31.157333"
   version="1.1"
   id="svg8"
   inkscape:version="0.92.5 (2060ec1f9f, 2020-04-08)"
   sodipodi:docname="Icon.svg">
  <defs
     id="defs2" />
  <sodipodi:namedview
     id="base"
     pagecolor="#ffffff"
     bordercolor="#666666"
     borderopacity="1.0"
     inkscape:pageopacity="0.0"
     inkscape:pageshadow="2"
     inkscape:zoom="3.959798"
     inkscape:cx="144.92876"
     inkscape:cy="33.248433"
     inkscape:document-units="mm"
     inkscape:current-layer="layer1"
     showgrid="false"
     inkscape:window-width="1842"
     inkscape:window-height="1016"
     inkscape:window-x="78"
     inkscape:window-y="27"
     inkscape:window-maximized="1" />
  <metadata
     id="metadata5">
    <rdf:RDF>
      <cc:Work
         rdf:about="">
        <dc:format>image/svg+xml</dc:format>
        <dc:type
           rdf:resource="http://purl.org/dc/dcmitype/StillImage" />
        <dc:title></dc:title>
      </cc:Work>
    </rdf:RDF>
  </metadata>
  <g
     inkscape:label="Layer 1"
     inkscape:groupmode="layer"
     id="layer1"
     transform="translate(-84.207054,-126.45109)">
    <rect
       style="opacity:1;fill:#b1a867;fill-opacity:1;stroke:none;stroke-width:0;stroke-miterlimit:4;stroke-dasharray:none;stroke-opacity:1"
       id="rect897"
       width="31.157"
       height="31.157"
       x="84.273872"
       y="126.45142" />
    <path
       style="fill:#3c0000;fill-opacity:1;stroke-width:0.08466667"
       d="m 88.271054,150.15776 v -3.38667 h 3.386667 3.386666 v 3.38667 3.38666 h -3.386666 -3.386667 z m 5.418667,0 v -2.032 h -2.032 -2.032 v 2.032 2.032 h 2.032 2.032 z m -2.709334,0 v -0.67734 h 0.677334 0.677333 v 0.67734 0.67733 h -0.677333 -0.677334 z m 6.773334,2.70933 v -0.67733 h 0.677333 0.677333 v -0.67734 -0.67733 h 0.677333 0.67733 v 0.67733 0.67734 h 0.67734 0.67733 v 0.67733 0.67733 h -2.032 -2.031999 z m 5.418669,0 v -0.67733 h 0.67733 0.67733 v -0.67734 -0.67733 h 0.67734 0.67733 v -0.67733 -0.67734 h -0.67733 -0.67734 v -0.67733 -0.67733 h 0.67734 0.67733 v -1.35467 -1.35467 h 1.35467 1.35466 v -0.67733 -0.67733 h 0.67734 0.67733 v 0.67733 0.67733 h 0.67733 0.67734 v 0.67734 0.67733 h -0.67734 -0.67733 v -0.67733 -0.67734 h -0.67733 -0.67734 v 0.67734 0.67733 h -0.67733 -0.67733 v 0.67733 0.67734 h -0.67734 -0.67733 v 0.67733 0.67733 h 0.67733 0.67734 v 0.67734 0.67733 h -0.67734 -0.67733 v 0.67733 0.67734 h -0.67733 -0.67734 v 0.67733 0.67733 h -0.67733 -0.67733 z m 5.41866,0 v -0.67733 h 0.67734 0.67733 v -0.67734 -0.67733 h 0.67733 0.67734 v 1.35467 1.35466 h -1.35467 -1.35467 z m -12.191996,-2.70933 v -0.67734 h 0.677333 0.677334 v -0.67733 -0.67733 h 0.677333 0.677333 v -0.67734 -0.67733 h 0.677333 0.67733 v 0.67733 0.67734 h 0.67734 0.67733 v 0.67733 0.67733 h 0.67733 0.67734 v 0.67734 0.67733 h -0.67734 -0.67733 v -0.67733 -0.67734 h -0.67733 -0.67734 v -0.67733 -0.67733 h -0.67733 -0.677333 v 0.67733 0.67733 h -0.677333 -0.677333 v 0.67734 0.67733 h -0.677334 -0.677333 z m 12.191996,-1.35467 v -0.67733 h 0.67734 0.67733 v 0.67733 0.67733 h -0.67733 -0.67734 z m -20.319996,-6.77333 v -3.38667 h 0.677333 0.677334 v 3.38667 3.38666 h -0.677334 -0.677333 z m 6.773333,2.70933 v -0.67733 h 1.354667 1.354667 v -0.67734 -0.67733 h -1.354667 -1.354667 v -2.032 -2.032 h 2.032 2.032 v 0.67733 0.67734 h -1.354666 -1.354667 v 0.67733 0.67733 h 1.354667 1.354666 v 2.032 2.032 h -2.032 -2.032 z m 6.773333,0 v -0.67733 h -0.67733 -0.67734 v -2.032 -2.032 h 0.67734 0.67733 v -0.67734 -0.67733 h 1.35467 1.35466 v 0.67733 0.67734 h -1.35466 -1.35467 v 2.032 2.032 h 1.35467 1.35466 v -0.67734 -0.67733 h -0.67733 -0.67733 v -0.67733 -0.67734 h 1.35466 1.35467 v 1.35467 1.35467 h -0.67733 -0.67734 v 0.67733 0.67733 h -1.35466 -1.35467 z m -10.837333,-1.35467 v -0.67733 h 0.677334 0.677333 v -0.67733 -0.67734 h -0.677333 -0.677334 v -0.67733 -0.67733 h 0.677334 0.677333 v 0.67733 0.67733 h 0.677333 0.677334 v 0.67734 0.67733 h -0.677334 -0.677333 v 0.67733 0.67734 h -0.677333 -0.677334 z m 16.256003,-1.35466 v -0.67734 h 0.67733 0.67733 v -0.67733 -0.67733 h -0.67733 -0.67733 v -0.67734 -0.67733 h 0.67733 0.67733 v 0.67733 0.67734 h 0.67734 0.67733 v -0.67734 -0.67733 h 0.67733 0.67734 v 2.032 2.032 h -0.67734 -0.67733 v -0.67733 -0.67734 h -0.67733 -0.67734 v 0.67734 0.67733 h -0.67733 -0.67733 z m -18.965336,-8.128 v -3.38667 h 3.386667 3.386666 v 3.38667 3.38666 h -3.386666 -3.386667 z m 5.418667,0 v -2.032 h -2.032 -2.032 v 2.032 2.032 h 2.032 2.032 z m -2.709334,0 v -0.67734 h 0.677334 0.677333 v 0.67734 0.67733 h -0.677333 -0.677334 z m 8.128,2.70933 v -0.67733 h -0.677333 -0.677333 v -0.67734 -0.67733 h 0.677333 0.677333 v 0.67733 0.67734 h 0.677333 0.67733 v -0.67734 -0.67733 h 0.67734 0.67733 v 0.67733 0.67734 h -0.67733 -0.67734 v 0.67733 0.67733 h -0.67733 -0.677333 z m 5.418663,-2.70933 v -3.38667 h 3.38667 3.38667 v 3.38667 3.38666 h -3.38667 -3.38667 z m 5.41867,0 v -2.032 h -2.032 -2.032 v 2.032 2.032 h 2.032 2.032 z m -2.70933,0 v -0.67734 h 0.67733 0.67733 v 0.67734 0.67733 h -0.67733 -0.67733 z m -10.837336,-2.032 v -1.35467 h 3.386666 3.38667 v 1.35467 1.35466 h -0.67734 -0.67733 v -0.67733 -0.67733 h -0.67733 -0.67734 v 0.67733 0.67733 h -0.67733 -0.677333 v -0.67733 -0.67733 h -0.677333 -0.677333 v 0.67733 0.67733 h -0.677334 -0.677333 z"
       id="path880"
       inkscape:connector-curvature="0" />
  </g>
</svg>
