<?xml version="1.0" encoding="UTF-8" standalone="no"?>
<!-- Created with Inkscape (http://www.inkscape.org/) -->

<svg
   xmlns:dc="http://purl.org/dc/elements/1.1/"
   xmlns:cc="http://creativecommons.org/ns#"
   xmlns:rdf="http://www.w3.org/1999/02/22-rdf-syntax-ns#"
   xmlns:svg="http://www.w3.org/2000/svg"
   xmlns="http://www.w3.org/2000/svg"
   xmlns:xlink="http://www.w3.org/1999/xlink"
   xmlns:sodipodi="http://sodipodi.sourceforge.net/DTD/sodipodi-0.dtd"
   xmlns:inkscape="http://www.inkscape.org/namespaces/inkscape"
   width="32"
   height="32"
   id="svg2"
   sodipodi:version="0.32"
   inkscape:version="0.92.5 (2060ec1f9f, 2020-04-08)"
   sodipodi:docname="tennix.svg"
   inkscape:output_extension="org.inkscape.output.svg.inkscape"
   version="1.1">
  <defs
     id="defs4">
    <linearGradient
       inkscape:collect="always"
       id="linearGradient12186">
      <stop
         style="stop-color:#8ae234;stop-opacity:1;"
         offset="0"
         id="stop12188" />
      <stop
         style="stop-color:#8ae234;stop-opacity:0;"
         offset="1"
         id="stop12190" />
    </linearGradient>
    <linearGradient
       id="linearGradient3359">
      <stop
         style="stop-color:#ffffff;stop-opacity:1;"
         offset="0"
         id="stop3361" />
      <stop
         style="stop-color:#ffffff;stop-opacity:0;"
         offset="1"
         id="stop3363" />
    </linearGradient>
    <linearGradient
       id="linearGradient3605">
      <stop
         style="stop-color:#ffffff;stop-opacity:1;"
         offset="0"
         id="stop3607" />
      <stop
         style="stop-color:#ffffff;stop-opacity:0;"
         offset="1"
         id="stop3609" />
    </linearGradient>
    <linearGradient
       inkscape:collect="always"
       id="linearGradient3251">
      <stop
         style="stop-color:#c4a000;stop-opacity:1;"
         offset="0"
         id="stop3253" />
      <stop
         style="stop-color:#c4a000;stop-opacity:0;"
         offset="1"
         id="stop3255" />
    </linearGradient>
    <linearGradient
       inkscape:collect="always"
       id="linearGradient3238">
      <stop
         style="stop-color:#eeeeec;stop-opacity:1;"
         offset="0"
         id="stop3240" />
      <stop
         style="stop-color:#eeeeec;stop-opacity:0;"
         offset="1"
         id="stop3242" />
    </linearGradient>
    <linearGradient
       id="linearGradient3134">
      <stop
         style="stop-color:#e0f18d;stop-opacity:1;"
         offset="0"
         id="stop3136" />
      <stop
         style="stop-color:#edd400;stop-opacity:1;"
         offset="1"
         id="stop3138" />
    </linearGradient>
    <filter
       inkscape:collect="always"
       x="-0.10516628"
       width="1.2103326"
       y="-0.1223027"
       height="1.2446054"
       id="filter3331">
      <feGaussianBlur
         inkscape:collect="always"
         stdDeviation="1.4858337"
         id="feGaussianBlur3333" />
    </filter>
    <pattern
       patternUnits="userSpaceOnUse"
       width="8.06974"
       height="8.13914"
       patternTransform="translate(140,466.15625)"
       id="pattern3499">
      <path
         id="rect3456"
         d="M 0,0 L 0,1.21772 L 0,2.71305 L 0,3.93076 L 0,5.42609 L 0,6.64381 L 0,8.13914 L 1.21772,8.13914 L 1.21772,6.64381 L 2.68781,6.64381 L 2.68781,8.13914 L 3.90553,8.13914 L 3.90553,6.64381 L 5.38193,6.64381 L 5.38193,8.13914 L 6.59334,8.13914 L 6.59334,6.64381 L 8.06974,6.64381 L 8.06974,5.42609 L 6.59334,5.42609 L 6.59334,3.93076 L 8.06974,3.93076 L 8.06974,2.71305 L 6.59334,2.71305 L 6.59334,1.21772 L 8.06974,1.21772 L 8.06974,0 L 6.59334,0 L 5.38193,0 L 3.90553,0 L 2.68781,0 L 1.21772,0 L 0,0 z M 1.21772,1.21772 L 2.68781,1.21772 L 2.68781,2.71305 L 1.21772,2.71305 L 1.21772,1.21772 z M 3.90553,1.21772 L 5.38193,1.21772 L 5.38193,2.71305 L 3.90553,2.71305 L 3.90553,1.21772 z M 1.21772,3.93076 L 2.68781,3.93076 L 2.68781,5.42609 L 1.21772,5.42609 L 1.21772,3.93076 z M 3.90553,3.93076 L 5.38193,3.93076 L 5.38193,5.42609 L 3.90553,5.42609 L 3.90553,3.93076 z "
         style="opacity:0.82722515;color:#000000;fill:#000000;fill-opacity:0.47486034;fill-rule:evenodd;stroke:none;stroke-width:1;stroke-linecap:butt;stroke-linejoin:round;marker:none;marker-start:none;marker-mid:none;marker-end:none;stroke-miterlimit:4;stroke-dasharray:none;stroke-dashoffset:0;stroke-opacity:1;visibility:visible;display:inline;overflow:visible" />
    </pattern>
    <radialGradient
       inkscape:collect="always"
       xlink:href="#linearGradient3251"
       id="radialGradient3599"
       gradientUnits="userSpaceOnUse"
       gradientTransform="matrix(-3.8504351,5.4642869,-3.7208976,-2.8248669,3588.4444,375.14162)"
       cx="325.09344"
       cy="571.14868"
       fx="325.09344"
       fy="571.14868"
       r="14.484375" />
    <radialGradient
       inkscape:collect="always"
       xlink:href="#linearGradient3238"
       id="radialGradient3601"
       gradientUnits="userSpaceOnUse"
       gradientTransform="matrix(1.0472545,0.1070136,-0.3757488,1.0270592,172.3901,-47.607388)"
       cx="318.72839"
       cy="498.87436"
       fx="318.72839"
       fy="498.87436"
       r="13.081475" />
    <linearGradient
       inkscape:collect="always"
       xlink:href="#linearGradient3605"
       id="linearGradient3611"
       x1="328"
       y1="612.92743"
       x2="327"
       y2="590.36218"
       gradientUnits="userSpaceOnUse"
       gradientTransform="matrix(1,0,0,1.15,5.6568543,-85.018793)" />
    <radialGradient
       inkscape:collect="always"
       xlink:href="#linearGradient3251"
       id="radialGradient3787"
       gradientUnits="userSpaceOnUse"
       gradientTransform="matrix(-0.3285138,0.4662548,-0.3174618,-0.2410393,356.74187,404.98519)"
       cx="325.09344"
       cy="571.14868"
       fx="325.09344"
       fy="571.14868"
       r="14.484375" />
    <radialGradient
       inkscape:collect="always"
       xlink:href="#linearGradient3238"
       id="radialGradient3789"
       gradientUnits="userSpaceOnUse"
       gradientTransform="matrix(1.0472545,0.1070136,-0.3757488,1.0270592,172.3901,-47.607388)"
       cx="318.72839"
       cy="498.87436"
       fx="318.72839"
       fy="498.87436"
       r="13.081475" />
    <radialGradient
       inkscape:collect="always"
       xlink:href="#linearGradient3251"
       id="radialGradient3706"
       gradientUnits="userSpaceOnUse"
       gradientTransform="matrix(-0.6983099,0.9909958,-0.6748171,-0.5123141,1093.4989,65.81335)"
       cx="325.09344"
       cy="571.14868"
       fx="325.09344"
       fy="571.14868"
       r="14.484375" />
    <radialGradient
       inkscape:collect="always"
       xlink:href="#linearGradient3238"
       id="radialGradient3708"
       gradientUnits="userSpaceOnUse"
       gradientTransform="matrix(1.0472545,0.1070136,-0.3757488,1.0270592,172.3901,-47.607388)"
       cx="318.72839"
       cy="498.87436"
       fx="318.72839"
       fy="498.87436"
       r="13.081475" />
    <linearGradient
       inkscape:collect="always"
       xlink:href="#linearGradient12186"
       id="linearGradient17234"
       gradientUnits="userSpaceOnUse"
       x1="613.58252"
       y1="961.26532"
       x2="626.19495"
       y2="961.26532" />
  </defs>
  <sodipodi:namedview
     id="base"
     pagecolor="#ffffff"
     bordercolor="#666666"
     borderopacity="1.0"
     gridtolerance="10000"
     guidetolerance="10"
     objecttolerance="10"
     inkscape:pageopacity="0.0"
     inkscape:pageshadow="2"
     inkscape:zoom="4"
     inkscape:cx="66.369533"
     inkscape:cy="53.821751"
     inkscape:document-units="px"
     inkscape:current-layer="layer1"
     showguides="true"
     inkscape:guide-bbox="true"
     inkscape:window-width="1920"
     inkscape:window-height="999"
     inkscape:window-x="1920"
     inkscape:window-y="0"
     showgrid="false"
     inkscape:window-maximized="1"
     fit-margin-top="0"
     fit-margin-left="0"
     fit-margin-right="0"
     fit-margin-bottom="0" />
  <metadata
     id="metadata7">
    <rdf:RDF>
      <cc:Work
         rdf:about="">
        <dc:format>image/svg+xml</dc:format>
        <dc:type
           rdf:resource="http://purl.org/dc/dcmitype/StillImage" />
        <dc:creator>
          <cc:Agent>
            <dc:title>Thomas Perl</dc:title>
          </cc:Agent>
        </dc:creator>
        <cc:license
           rdf:resource="http://creativecommons.org/licenses/GPL/2.0/" />
        <dc:title>Tennix! Game Data</dc:title>
        <dc:date>2007-09-09</dc:date>
      </cc:Work>
      <cc:License
         rdf:about="http://creativecommons.org/licenses/GPL/2.0/">
        <cc:permits
           rdf:resource="http://web.resource.org/cc/Reproduction" />
        <cc:permits
           rdf:resource="http://web.resource.org/cc/Distribution" />
        <cc:requires
           rdf:resource="http://web.resource.org/cc/Notice" />
        <cc:permits
           rdf:resource="http://web.resource.org/cc/DerivativeWorks" />
        <cc:requires
           rdf:resource="http://web.resource.org/cc/ShareAlike" />
        <cc:requires
           rdf:resource="http://web.resource.org/cc/SourceCode" />
      </cc:License>
    </rdf:RDF>
  </metadata>
  <g
     inkscape:label="Layer 1"
     inkscape:groupmode="layer"
     id="layer1"
     transform="translate(-477.95996,-84.402256)">
    <circle
       style="color:#000000;display:inline;overflow:visible;visibility:visible;opacity:1;fill:#edd400;fill-opacity:1;fill-rule:evenodd;stroke:#2e3436;stroke-width:1.48340511;stroke-linecap:butt;stroke-linejoin:round;stroke-miterlimit:4;stroke-dasharray:none;stroke-dashoffset:0;stroke-opacity:1;marker:none;marker-start:none;marker-mid:none;marker-end:none"
       id="path3684"
       transform="matrix(0.6423427,0,0,0.6423427,280.88921,-230.62253)"
       inkscape:export-filename="/home/thp/icon.png"
       inkscape:export-xdpi="91.909401"
       inkscape:export-ydpi="91.909401"
       cx="331.70883"
       cy="515.33984"
       r="23.359777" />
    <path
       style="color:#000000;display:inline;overflow:visible;visibility:visible;opacity:1;fill:url(#radialGradient3706);fill-opacity:1;fill-rule:evenodd;stroke:none;stroke-width:1;stroke-linecap:butt;stroke-linejoin:round;stroke-miterlimit:4;stroke-dasharray:none;stroke-dashoffset:0;stroke-opacity:1;marker:none;marker-start:none;marker-mid:none;marker-end:none"
       d="m 482.88954,110.18762 c 8.24466,-0.82366 14.29365,-8.43967 13.50012,-16.99742 -0.26523,-2.86038 -1.27577,-5.45785 -2.79238,-7.62865 -0.47428,6.2e-4 -0.93639,0.01031 -1.418,0.05843 -8.24464,0.82366 -14.29363,8.43969 -13.50012,16.99742 0.26565,2.86491 1.27173,5.45578 2.7924,7.62862 0.46773,-0.001 0.94311,-0.011 1.41798,-0.0584 z"
       id="path3686"
       inkscape:export-filename="/home/thp/icon.png"
       inkscape:export-xdpi="91.909401"
       inkscape:export-ydpi="91.909401"
       inkscape:connector-curvature="0" />
    <ellipse
       style="color:#000000;display:inline;overflow:visible;visibility:visible;opacity:0.83769633;fill:url(#radialGradient3708);fill-opacity:1;fill-rule:evenodd;stroke:none;stroke-width:1;stroke-linecap:butt;stroke-linejoin:round;stroke-miterlimit:4;stroke-dasharray:none;stroke-dashoffset:0;stroke-opacity:1;marker:none;marker-start:none;marker-mid:none;marker-end:none"
       id="path3688"
       transform="matrix(0.6193321,-0.2684133,0.313692,1.1098036,146.22979,-368.26255)"
       inkscape:export-filename="/home/thp/icon.png"
       inkscape:export-xdpi="91.909401"
       inkscape:export-ydpi="91.909401"
       cx="318.72839"
       cy="498.87436"
       rx="13.081475"
       ry="12.020815" />
    <path
       style="opacity:0.71204188;fill:none;fill-rule:evenodd;stroke:#8ae234;stroke-width:0.28585631;stroke-linecap:butt;stroke-linejoin:miter;stroke-miterlimit:4;stroke-dasharray:none;stroke-opacity:1"
       d="m 494.69451,87.22248 c 2.6e-4,0.05908 -0.0293,0.23409 -0.0798,0.63858 -0.0266,0.21288 0.0532,-0.42573 0.0798,-0.63858 0.30221,-2.41778 -0.58404,2.49978 0.55876,1.35698 1.21938,-1.21937 0.0358,2.96166 1.35701,0.31931 0.26784,-0.53568 -0.0142,2.90207 0.87806,1.11752 1.4351,-2.87019 0.42595,-0.10595 1.27717,1.59647 0.24503,0.49006 0.53215,0.9579 0.79824,1.43684 0.31679,0.57021 -0.1074,-1.33235 -0.39912,-1.91576 -0.14965,-0.29931 0.017,2.83568 1.51664,1.83594 0.97234,-0.64821 2.31772,1.81442 2.39471,2.31489 0.0909,0.59098 0.34193,-1.15716 0.63859,-1.6763 0.12135,-0.21234 0.9579,5.11966 0.9579,2.07542 0,-3.8254 0.88529,-1.36421 0.47892,1.27717 -0.0825,0.53639 0.21288,1.06431 0.3193,1.59647 0.4961,2.48046 -5.70565,-4.02356 -5.18852,-5.74731 2.08797,-6.95991 4.6579,7.65404 4.4701,8.78062 -0.0764,0.45836 -0.21283,0.90467 -0.31928,1.357 -0.067,0.2849 0.0574,-0.59106 0,-0.87806 -0.14748,-0.73747 -1.33062,6.44 -0.79822,4.31048 0.24909,-0.99641 0.34963,-2.07276 0.87804,-2.95347 0.18006,-0.3001 -0.10643,0.69179 -0.15964,1.0377 -0.2547,1.65559 -0.14523,-2.6525 0.87806,-1.11752 0.099,0.14849 0.15964,0.31928 0.23946,0.47894 0.17023,0.34043 0.41129,-1.01868 0.63861,-2.15525 -0.63958,0.30252 -0.47894,4.32142 -0.47894,1.75613 0,-0.26609 0,-0.53216 0,-0.79825 0,-0.41562 -0.58615,0.61238 -0.95789,0.79825 -2.47387,1.23692 -5.78702,-8.50032 -5.18854,-5.50785 0.90441,4.52208 -0.93599,1.71233 0.87806,-1.91574 1.03494,-2.0699 -1.04321,7.37123 -0.39912,4.15081 0.39624,-1.9812 0.29676,-3.10971 1.43683,-4.62978 0.43096,-0.57462 -0.57755,6.19339 0.55878,3.3526 1.88309,-4.70775 0.40223,4.45764 0.95786,2.23507 0.44621,-1.78479 0.45087,-4.1991 -0.15964,-5.82713 -0.36401,-0.97068 -2.31375,-5.3516 -3.11313,-2.95349 -0.78372,2.35113 -0.44885,3.60131 -0.23946,2.55437 0.15196,-0.7598 -0.47051,1.47868 -0.6386,2.23505 -0.42084,1.89372 -1.53774,4.2426 -1.91575,1.59649 -0.30999,-2.16978 0.65502,-5.08666 -0.6386,-4.31048 -0.68639,0.41182 0.15832,-1.67452 0.6386,-2.31489 1.31201,-1.74938 -0.47896,2.08395 -0.47896,3.67187 -0.23548,-1.7049 -0.47895,-3.38941 -0.47895,-5.10872 0,-1.16709 -0.83635,2.19219 -1.4368,3.19298 -0.14555,0.24252 -0.37254,0.42572 -0.55878,0.63858 -0.87614,1.00129 1.21828,-6.10846 -1.03771,-1.59647 -0.3193,0.63859 -0.6386,1.27719 -0.9579,1.91577 -0.0222,0.04446 -0.47894,-2.76802 -0.47894,-3.11313 0,-2.91686 0.29701,-1.80307 -0.79823,1.11752 -0.14623,0.38997 -0.37249,0.74503 -0.55878,1.11755 -0.0623,0.12455 -0.31355,-2.34349 0.0798,-4.3105 0.45876,-2.2938 -0.71637,2.07137 -1.19734,3.03331 -1.42525,2.85047 -0.22191,-4.29217 -0.0798,-4.78942 0.33138,-1.15985 -2.73441,8.02484 -2.07543,4.07102 0.82658,-4.95961 -0.74406,1.9243 -3.11314,2.71401 -0.19227,0.0641 1.50935,-5.7034 0.95789,-2.39473 -0.63723,3.82342 0.79824,0.53854 0.79824,3.03331 0,0.8 0.10645,1.59647 0.15966,2.39471 0,-2.90322 0,-1.11754 0,-0.63858 0,4.76626 -0.39912,4.31892 -0.39912,0.15964 0,-0.45395 -0.53938,0.95888 -0.71842,1.27717 -0.24569,0.43681 0.30431,-3.25029 -0.63859,-1.83593 -0.27763,0.41643 -0.95788,4.28791 -0.95788,1.59646 0,-2.97898 -0.6386,2.79943 -0.6386,-0.07984 0,-0.60674 -0.31928,-1.17071 -0.47892,-1.7561 -0.18259,-0.66943 -2.17635,6.50787 -0.87807,3.91137 0.46951,-0.93905 5.95574,-10.67648 4.47012,-3.99119 -0.139,0.62554 -0.10643,1.27716 -0.15964,1.91576 -0.005,0.05529 2.10114,-2.54143 2.15523,-2.63417 0.12798,-0.2194 -0.30671,4.59199 0.23948,2.95346 1.51495,-4.54491 1.40433,-7.78401 1.83593,-0.87805 0.0537,0.85805 0.72172,-1.56807 0.95788,-2.39471 0.7872,-2.75518 2.71401,-2.75606 2.71401,-0.15966 0,1.16525 -0.60588,3.57572 1.11755,2.71401 0.37002,-0.18501 0.38097,-5.31556 1.11752,-0.15964 0.52018,3.64129 3.86077,-5.66511 0.63858,-4.94908 -0.34746,0.07724 -3.6376,-3.79432 -3.83153,-4.23064 -0.34792,-0.78284 0.15964,-0.0045 0.15964,-0.87806 0,-0.20545 3.47944,0.18784 3.83156,0.39912 1.12407,0.67443 1.99558,-1.75392 1.99558,2.15523 0,1.81742 -1.91923,3.35745 0.0798,0.55876 1.29687,-1.81563 -1.68076,6.71413 -0.3193,3.99118 0.3645,-0.72899 1.51667,-7.08222 1.51667,-1.11752 0,4.55811 1.357,1.28279 1.357,2.71401 0,6.55374 0.0798,-2.51336 0.0798,2.23505 0,1.51792 -0.16842,4.40787 -0.95789,5.98678 -0.74545,1.4909 -3.36565,4.17444 -4.78942,2.39471 -2.17967,-2.72458 -4.06335,-3.71593 -1.67631,-6.78501 2.72848,-3.50803 -0.78379,3.43984 -1.27718,4.54994 -1.67195,3.76193 -0.31763,-3.04654 -0.15964,-4.31046 0.0626,-0.50095 0.31928,-0.9579 0.47894,-1.43684 0.86937,-2.60812 -2.64221,5.87104 0,4.54996 0.0779,-0.039 -3.26867,-0.47895 -3.51223,-0.47895 -2.10441,0 -4.07102,-4.0265 -4.07102,-0.7184 0,2.35039 -0.98686,2.3296 -1.35701,0.47894 -1.35372,-6.76859 -1.43682,4.73167 -1.43682,-0.47894 0,-0.50626 0.2189,1.02989 0.0798,1.51665 -0.852,2.98191 0.20232,-4.12672 2.79381,-0.23948 0.49062,0.73593 2.75425,1.79698 2.47455,0.95788 -0.55236,-1.65696 -0.66447,1.08622 -0.71842,1.43683 -0.11192,0.72738 0.30045,-1.44129 0.47894,-2.15523 0.19705,-0.7882 1.29734,-4.21751 2.39471,-4.94908 1.20857,-0.80571 -0.25642,2.90917 -0.63858,4.31048 -0.23369,0.85679 -0.26609,1.75612 -0.39913,2.63419 -0.22851,1.50807 -0.30455,-2.61272 0.79825,-3.9912 2.27992,-2.84991 0.64588,3.04792 1.27716,4.3105 0.93438,1.86874 -0.5145,-2.51881 1.11755,-4.15084 1.442,-1.442 -1.52037,4.39123 0.7184,3.83154 0.7022,-0.17554 0.42573,-1.38362 0.63858,-2.07541 0.21057,-0.68432 1.06433,-0.95789 1.59649,-1.43683 0.51013,-0.45912 -0.50016,2.62763 0.71842,4.15082 0.59023,0.73782 -0.43773,-2.56466 0.47892,-2.79383 0.0668,-0.0167 1.51345,-5.48536 0.87807,-1.03771 -0.0828,0.5795 0,1.17074 0,1.75613 0,0.80925 0.39912,-1.58546 0.39912,-2.39471 0,-0.52412 0.93962,0.47285 1.43683,0.63858 2.04719,0.68241 1.83594,-7.36622 1.83594,-1.59646 0,0.22577 0.3193,-0.3193 0.47895,-0.47895 0.80375,-0.80377 0.49621,2.23406 0.95788,3.27278 0.58895,1.3251 -0.46764,1.22013 1.35701,1.67629 1.74058,0.43516 0.63764,2.27638 1.99558,0.23948 1.77466,-2.662 0.74036,-1.00179 0.47895,-0.47897 -0.16185,0.32372 0.23152,-0.68658 0.3193,-1.0377 0.18513,-0.74053 0.28819,-1.63177 0.47894,-2.39471 0.17315,-0.69263 -0.38671,1.48741 -0.95791,1.91579 -2.28945,1.71708 -9.02007,-3.80453 -9.02007,0.3991 0,2.09674 0.6386,4.29878 0.6386,6.46573 0,1.17195 5.98678,1.09213 5.98678,-0.0798 0,-0.71576 -1.3335,-4.16011 -0.95788,-3.0333 0.20489,0.61471 -0.42575,1.22396 -0.63858,1.83593 -0.0376,0.10802 0.0798,-4.50843 0.0798,-2.39471 0,3.22213 -1.91577,5.88904 -1.91577,0.9579 0,-0.55949 -0.60999,2.00158 -1.11752,0.47893 -0.9277,-2.78309 0.20553,-7.05942 -1.91577,-1.75611 -3.05268,7.63163 -1.75613,1.78218 -1.75613,-2.23507 0,-0.79283 -1.0377,9.03578 -1.0377,4.47014 0,-5.55742 0.3512,6.90871 -4.7096,3.11311 -1.09749,-0.82312 -0.61323,-6.35209 -1.59647,-7.66309 -0.17578,-0.23433 -5.37783,1.80632 -3.51225,3.6719 0.66128,0.6613 0.0264,-2.23575 0.63858,-0.39911 0.10169,0.305 0.22079,-0.61056 0.39912,-0.87806 0.82873,-1.24306 -1.12962,-1.29551 0.71842,-0.23948 1.1709,0.66909 1.91577,-6.05051 1.91577,-6.30607 0,-1.58982 1.0377,6.01905 1.0377,3.43242 0,-0.17037 0.21288,-0.26607 0.31931,-0.39912 0.68329,-0.85411 0.22585,2.91848 0.79824,6.06662 0.51184,2.81515 0.21652,5.06381 0.7184,2.55433 0.56537,-2.82684 6.04388,-11.9508 2.79383,-8.70077 -0.70037,0.70037 -0.12099,8.13954 0.15964,8.70077 2.08721,4.17438 1.90978,-3.27974 2.15525,-4.62976 0.41821,-2.3001 0.75936,-7.61447 1.75613,-8.86043 0.615,-0.76878 0,1.96898 0,2.95347 0,2.46211 -0.0222,6.64753 0.87804,8.06219 1.00501,1.57929 -0.15964,-1.62058 -0.15964,-3.99118 0,-2.592 0.50722,-7.53171 2.07543,-9.09989 0.51972,-0.51974 0.0902,2.81827 -0.15966,6.0666 -0.083,1.07926 0.0308,6.35228 0.79825,7.50341 0.36986,0.55481 -0.48639,-1.28461 -0.95789,-1.7561 -2.2887,-2.28871 -3.7709,-4.69577 -6.54555,-6.54555 -1.65147,-1.10099 1.37227,-2.93706 2.47453,-3.6719 1.89894,-1.26596 -0.7985,4.95099 -1.27716,8.30168 -0.56905,3.98319 -3.11315,-8.53935 -3.11315,-9.0999 0,-0.50555 0,-1.01112 0,-1.51667 0,-1.04021 -0.48334,0.7598 -0.87805,2.07541 -1.05195,3.50653 -1.26317,6.28778 -1.7561,9.7385 -0.19485,1.36383 -0.79825,2.3092 -0.79825,4.071"
       id="path3690"
       sodipodi:nodetypes="cssssssssssssssssssssssscsssssssssssssssscssssssssssssssscsssssssssssssssssssssssssssssssssssssssssssssssssssssssssssssssssssssssssssssssssssssssssssssssssssssssssssc"
       inkscape:export-filename="/home/thp/icon.png"
       inkscape:export-xdpi="91.909401"
       inkscape:export-ydpi="91.909401"
       inkscape:connector-curvature="0" />
    <path
       style="color:#000000;display:inline;overflow:visible;visibility:visible;opacity:1;fill:none;fill-opacity:1;fill-rule:evenodd;stroke:#555753;stroke-width:1.99003613;stroke-linecap:butt;stroke-linejoin:round;stroke-miterlimit:4;stroke-dasharray:none;stroke-dashoffset:0;stroke-opacity:1;marker:none;marker-start:none;marker-mid:none;marker-end:none"
       d="m 508.36886,98.32782 c -9.7781,6.48037 -11,14.12141 -11.2839,16.51984"
       id="path3692"
       sodipodi:nodetypes="cs"
       inkscape:export-filename="/home/thp/icon.png"
       inkscape:export-xdpi="91.909401"
       inkscape:export-ydpi="91.909401"
       inkscape:connector-curvature="0" />
    <path
       style="color:#000000;display:inline;overflow:visible;visibility:visible;opacity:1;fill:none;fill-opacity:1;fill-rule:evenodd;stroke:#ffffff;stroke-width:1.99003613;stroke-linecap:butt;stroke-linejoin:round;stroke-miterlimit:4;stroke-dasharray:none;stroke-dashoffset:0;stroke-opacity:1;marker:none;marker-start:none;marker-mid:none;marker-end:none"
       d="m 480.55486,106.7841 c 6.97411,-1.2902 12.27292,-7.40162 12.2729,-14.74741 0,-2.15698 -0.45658,-4.21246 -1.27719,-6.06662"
       id="path3694"
       sodipodi:nodetypes="csc"
       inkscape:export-filename="/home/thp/icon.png"
       inkscape:export-xdpi="91.909401"
       inkscape:export-ydpi="91.909401"
       inkscape:connector-curvature="0" />
    <path
       style="opacity:0.49214663;fill:none;fill-rule:evenodd;stroke:#ce5c00;stroke-width:0.59684914;stroke-linecap:butt;stroke-linejoin:miter;stroke-miterlimit:4;stroke-dasharray:none;stroke-opacity:1;filter:url(#filter3331)"
       d="m 126.92101,345.22337 c 6.49098,0.67479 -7.08524,2.33238 1.25,6.5 4.38455,2.19227 -4.24177,2.50823 -0.75,6 2.00071,2.00071 -1.50958,3.02692 -3.25,3.375 -1.11144,0.22229 1.83333,1.33334 2.75,2 5.2259,3.80065 7.56571,2.15793 2.5,4 -3.44947,1.25435 -7.33333,0.33334 -11,0.5 -1.59044,0.0723 3.22506,0.0425 4.75,0.5 3.93027,1.17908 7.25603,0.76944 3.625,2.75 -1.55019,0.84556 3.38639,1.03284 5,1.75 4.5255,2.01133 2.6434,-1.92992 7.375,-4 0.5163,-0.22588 -0.60707,-0.13393 -6.75,0.25 -0.73637,0.046 -16.73071,1.24228 -11.75,-0.75 9.11436,-3.64574 18.34876,-5.26519 28,-6.75 0.88812,-0.13663 -8.15863,-0.74347 -8.25,-0.75 -14.59208,-1.04229 -7.69603,-1.85795 -5,-7.25 0.80617,-1.61233 -15.95024,-4.5 -10.5,-4.5 2.94214,0 5.91005,-0.5 8.875,-0.5 2.6396,0 -14.6177,0.77943 -7,-1.125 2.40893,-0.60223 26.9441,-2.32446 9.625,-0.75 -2.6609,0.2419 -5.33333,0.33334 -8,0.5 -1.35456,0.0847 2.61486,-0.74594 3.875,-1.25 5.49931,-2.19972 25.97716,-1 17.125,-1 -1.94365,0 -3.33333,2 -5,3 -2.60957,1.56574 -10.0398,4.21974 -12.5,7.5 -2.53673,3.38231 5.55925,-1.18641 9.5,-2.5 1.54161,-0.51387 3.25,0 4.875,0 1.50231,0 -2.6877,1.43771 -3.75,2.5 -4.57594,4.57595 3.71684,2.78316 -3.25,9.75 -0.0417,0.0417 0.0833,0.0833 0.125,0.125 0.97539,0.97539 -2.5,1.16667 -3.75,1.75 -5.72318,2.67082 2.89464,3.03928 3.5,4.25"
       id="path3696"
       transform="matrix(0.6385897,0,0,0.6385897,406.45991,-127.8056)"
       inkscape:export-filename="/home/thp/icon.png"
       inkscape:export-xdpi="91.909401"
       inkscape:export-ydpi="91.909401"
       inkscape:connector-curvature="0" />
    <circle
       transform="matrix(0.6423427,0,0,0.6423427,280.88921,-230.62253)"
       id="path3698"
       style="color:#000000;display:inline;overflow:visible;visibility:visible;opacity:1;fill:none;fill-opacity:1;fill-rule:evenodd;stroke:#2e3436;stroke-width:3.09809136;stroke-linecap:butt;stroke-linejoin:round;stroke-miterlimit:4;stroke-dasharray:none;stroke-dashoffset:0;stroke-opacity:1;marker:none;marker-start:none;marker-mid:none;marker-end:none"
       inkscape:export-filename="/home/thp/icon.png"
       inkscape:export-xdpi="91.909401"
       inkscape:export-ydpi="91.909401"
       cx="331.70883"
       cy="515.33984"
       r="23.359777" />
    <path
       style="color:#000000;display:inline;overflow:visible;visibility:visible;opacity:1;fill:none;fill-opacity:1;fill-rule:evenodd;stroke:#ffffff;stroke-width:1.99003613;stroke-linecap:butt;stroke-linejoin:round;stroke-miterlimit:4;stroke-dasharray:none;stroke-dashoffset:0;stroke-opacity:1;marker:none;marker-start:none;marker-mid:none;marker-end:none"
       d="m 506.70657,97.07925 c -9.77811,6.48037 -11.00001,14.12141 -11.28393,16.51984"
       id="path3700"
       sodipodi:nodetypes="cs"
       inkscape:export-filename="/home/thp/icon.png"
       inkscape:export-xdpi="91.909401"
       inkscape:export-ydpi="91.909401"
       inkscape:connector-curvature="0" />
    <path
       style="color:#000000;display:inline;overflow:visible;visibility:visible;opacity:1;fill:none;fill-opacity:1;fill-rule:evenodd;stroke:#555753;stroke-width:1.99003613;stroke-linecap:butt;stroke-linejoin:round;stroke-miterlimit:4;stroke-dasharray:none;stroke-dashoffset:0;stroke-opacity:1;marker:none;marker-start:none;marker-mid:none;marker-end:none"
       d="m 482.5859,107.26642 c 6.9741,-1.29024 12.27289,-7.40164 12.27289,-14.74744 0,-2.15694 -0.4566,-4.21245 -1.27719,-6.06659"
       id="path3702"
       sodipodi:nodetypes="csc"
       inkscape:export-filename="/home/thp/icon.png"
       inkscape:export-xdpi="91.909401"
       inkscape:export-ydpi="91.909401"
       inkscape:connector-curvature="0" />
    <path
       sodipodi:type="inkscape:offset"
       inkscape:radius="-2.9720924"
       inkscape:original="M 331.71875 491.96875 C 318.82415 491.96875 308.34374 502.44915 308.34375 515.34375 C 308.34375 528.23835 318.82415 538.68748 331.71875 538.6875 C 344.61335 538.6875 355.06251 528.23835 355.0625 515.34375 C 355.0625 502.44915 344.61335 491.96874 331.71875 491.96875 z "
       style="color:#000000;display:inline;overflow:visible;visibility:visible;opacity:0.82722515;fill:none;fill-opacity:1;fill-rule:evenodd;stroke:#eeeeec;stroke-width:3.09809136;stroke-linecap:butt;stroke-linejoin:round;stroke-miterlimit:4;stroke-dasharray:none;stroke-dashoffset:0;stroke-opacity:1;marker:none;marker-start:none;marker-mid:none;marker-end:none"
       id="path3704"
       d="m 331.71875,494.94141 c -11.28417,0 -20.40235,9.11817 -20.40234,20.40234 0,11.28417 9.11336,20.37108 20.40234,20.37109 11.28897,0 20.3711,-9.08212 20.37109,-20.37109 0,-11.28897 -9.08692,-20.40235 -20.37109,-20.40234 z"
       transform="matrix(0.6423427,0,0,0.6423427,280.88921,-230.62253)"
       inkscape:export-xdpi="91.909401"
       inkscape:export-ydpi="91.909401"
       inkscape:export-filename="/home/thp/icon.png" />
  </g>
</svg>
