<svg version="1.1" id="svg1" xml:space="preserve" inkscape:export-filename="Materialious.png" inkscape:export-xdpi="192.00003" inkscape:export-ydpi="192.00003" inkscape:version="1.3.2 (091e20e, 2023-11-25, custom)" sodipodi:docname="Meterialious.svg" xmlns:inkscape="http://www.inkscape.org/namespaces/inkscape" xmlns:sodipodi="http://sodipodi.sourceforge.net/DTD/sodipodi-0.dtd" xmlns="http://www.w3.org/2000/svg" xmlns:svg="http://www.w3.org/2000/svg" viewBox="37.25 80.75 135.5 135.5"><sodipodi:namedview id="namedview1" pagecolor="#ffffff" bordercolor="#000000" borderopacity="0.25" inkscape:showpageshadow="2" inkscape:pageopacity="0.0" inkscape:pagecheckerboard="0" inkscape:deskcolor="#d1d1d1" inkscape:document-units="mm" inkscape:zoom="0.35055065" inkscape:cx="852.9438" inkscape:cy="494.93562" inkscape:window-width="1920" inkscape:window-height="1001" inkscape:window-x="1644" inkscape:window-y="-9" inkscape:window-maximized="1" inkscape:current-layer="layer1"/><defs id="defs1"/><g inkscape:label="Laag 1" inkscape:groupmode="layer" id="layer1"><path id="rect1" style="opacity:1;fill:#8a3ba5;fill-opacity:1;stroke-width:4.05609;stroke-linecap:square;paint-order:stroke markers fill" d="M 37.266649,80.766659 V 216.23333 H 172.73331 V 80.766659 Z"/><g id="g6" transform="matrix(1.0140222,0,0,1.0140222,-1.4722742,-56.323482)"><g id="g1" transform="matrix(-1,0,0,1,201.63735,-7.4456246e-6)"><g id="g5"><path id="path5" style="color:#000000;fill:#ffffff;stroke-linecap:square;-inkscape-stroke:none;paint-order:stroke markers fill" d="m 114.65661,173.40906 -1.29294,4.82606 h -5.2e-4 l -44.404523,11.89798 32.504993,32.50551 10e-4,0.001 -6.12107,22.84563 -26.381853,-26.38185 -26.381335,-26.38134 36.03811,-9.65625 z m -4.28191,15.97939 -5.37486,20.05872 -0.54622,2.03915 -16.176276,-16.17679 z"/><path style="color:#000000;fill:#ffffff;stroke-linecap:square;-inkscape-stroke:none;paint-order:stroke markers fill" d="M 131.38171,245.48534 105,219.10365 l -26.381696,-26.3817 36.038076,-9.65637 36.03807,-9.65638 -9.65637,36.03807 z" id="path3"/></g></g><circle style="opacity:1;fill:#ffffff;fill-opacity:1;stroke:none;stroke-width:10.8326;stroke-linecap:square;stroke-dasharray:none;stroke-opacity:1;paint-order:stroke markers fill" id="path6" cx="86.980743" cy="163.40662" r="4.9097047"/></g></g></svg>