<svg xmlns="http://www.w3.org/2000/svg" viewBox="0 -0.5 48 48" shape-rendering="crispEdges">
<path stroke="#030303" d="M0 0h44M0 1h43M0 2h42M0 3h41M0 4h40M0 5h39M47 5h1M0 6h38M46 6h2M0 7h37M45 7h3M0 8h36M44 8h4M0 9h35M43 9h5M0 10h34M42 10h6M0 11h33M41 11h7M0 12h32M40 12h8M0 13h31M39 13h9M0 14h30M38 14h10M0 15h29M37 15h11M0 16h28M36 16h12M0 17h27M35 17h13M0 18h26M34 18h14M0 19h25M33 19h15M0 20h24M32 20h16M0 21h23M31 21h17M0 22h22M30 22h18M0 23h21M29 23h19M0 24h17M18 24h2M28 24h20M0 25h16M18 25h1M27 25h21M0 26h15M26 26h22M0 27h15M25 27h23M0 28h7M8 28h7M24 28h24M0 29h5M9 29h5M23 29h25M0 30h5M9 30h5M23 30h25M0 31h4M10 31h3M24 31h24M0 32h4M11 32h2M25 32h23M0 33h5M12 33h1M22 33h26M0 34h6M19 34h29M0 35h8M16 35h32M0 36h8M15 36h33M0 37h8M16 37h32M0 38h7M17 38h31M0 39h7M19 39h29M0 40h5M10 40h3M20 40h28M0 41h5M9 41h5M20 41h28M0 42h4M8 42h6M20 42h28M0 43h3M7 43h8M18 43h30M0 44h2M6 44h10M17 44h31M5 45h43M5 46h43M4 47h44" />
<path stroke="#666666" d="M44 0h1M43 1h1M42 2h1M41 3h1M40 4h1M47 4h1M39 5h1M46 5h1M38 6h1M45 6h1M37 7h1M44 7h1M43 8h1M42 9h1M41 10h1M33 12h1M39 12h1M32 13h1M31 14h1M36 14h1M30 15h1M29 16h1M34 16h1M28 17h1M30 17h1M32 17h2M27 18h4M32 18h1M26 19h2M29 19h1M31 19h1M25 20h6M25 21h5M24 22h5M23 23h5M22 24h5M21 25h5M20 26h5M17 27h1M19 27h5M16 28h6M16 29h6M8 30h1M15 30h5M9 31h1M15 31h7M10 32h1M14 32h1M16 32h2M21 32h1M11 33h1M14 33h4M12 34h1M13 35h1M14 36h1M15 37h1M16 38h1M17 39h1M2 45h1M2 46h1" />
<path stroke="#cccccc" d="M45 0h1M47 0h1M44 1h1M47 1h1M43 2h1M46 2h2M42 3h1M44 3h3M41 4h1M44 4h1M40 5h1M42 5h3M40 6h3M39 7h2M42 7h1M38 8h2M37 9h1M37 10h1" />
<path stroke="#ffffff" d="M46 0h1M44 2h1M43 3h1" />
<path stroke="#ccccff" d="M45 1h2M45 2h1M42 4h2M45 4h1M41 5h1" />
<path stroke="#9999cc" d="M47 3h1M46 4h1M45 5h1M44 6h1M41 7h1M40 8h1M38 9h3M36 10h1M38 10h1M35 11h2" />
<path stroke="#999999" d="M39 6h1M38 7h1M43 7h1M37 8h1M41 8h2M36 9h1M41 9h1M35 10h1M40 10h1M34 11h1M37 11h3M34 12h5M33 13h5M32 14h4M31 15h1M34 15h1M31 16h1M33 16h1M29 17h1M31 18h1M9 32h1M11 34h1M12 35h1M13 36h1M15 38h1" />
<path stroke="#99cccc" d="M43 6h1M39 10h1" />
<path stroke="#323232" d="M36 8h1M35 9h1M34 10h1M33 11h1M32 12h1M31 13h1M38 13h1M30 14h1M37 14h1M29 15h1M28 16h1M35 16h1M27 17h1M34 17h1M26 18h1M33 18h1M25 19h1M32 19h1M24 20h1M31 20h1M23 21h2M30 21h1M22 22h2M29 22h1M21 23h2M28 23h1M17 24h1M20 24h2M27 24h1M16 25h2M19 25h2M26 25h1M15 26h5M25 26h1M15 27h2M18 27h1M24 27h1M7 28h1M15 28h1M22 28h2M6 29h1M8 29h1M14 29h2M22 29h1M14 30h1M22 30h1M13 31h2M22 31h2M4 32h1M13 32h1M15 32h1M22 32h2M13 33h1M19 33h3M14 34h5M14 35h2M10 39h2M18 39h1M6 40h1M9 40h1M13 40h1M19 40h1M5 41h1M4 42h1M19 42h1M15 43h1M1 45h1M4 45h1M3 46h1M0 47h1M3 47h1" />
<path stroke="#333366" d="M40 11h1" />
<path stroke="#666699" d="M32 15h1M35 15h1M30 16h1M32 16h1M31 17h1M28 19h1M30 19h1" />
<path stroke="#669999" d="M33 15h1" />
<path stroke="#663334" d="M36 15h1M20 30h1M18 33h1M9 36h1M8 38h1M7 39h1M8 40h1M6 41h2M14 41h1M6 42h1M4 43h2M3 44h2" />
<path stroke="#330200" d="M5 29h1M8 37h1M7 38h1M5 40h1" />
<path stroke="#666633" d="M7 29h1M6 30h1M5 31h1M5 32h3M6 33h2M7 34h1M8 35h2M10 36h1M9 37h1M12 37h1M11 38h3M8 39h1M12 39h2M7 40h1M14 40h1M15 41h1M19 41h1M5 42h1M15 42h1M18 42h1M16 43h2M3 45h1M1 47h2" />
<path stroke="#323300" d="M5 30h1M4 31h1M5 33h1M6 34h1M8 41h1M7 42h1M14 42h1M3 43h1M6 43h1M2 44h1M5 44h1M16 44h1M0 45h1M0 46h1" />
<path stroke="#999966" d="M7 30h1M7 31h2M9 33h2M10 34h1M11 35h1M10 37h1M13 37h2M16 39h1M16 40h1M18 40h1" />
<path stroke="#336666" d="M21 30h1M18 32h1" />
<path stroke="#666600" d="M6 31h1M15 40h1" />
<path stroke="#999933" d="M8 32h1M8 33h1M9 34h1M10 35h1M11 36h2M11 37h1M14 39h2M16 41h2M16 42h2" />
<path stroke="#663366" d="M19 32h1M13 34h1" />
<path stroke="#336632" d="M20 32h1" />
<path stroke="#000433" d="M24 32h1M4 46h1" />
<path stroke="#996633" d="M8 34h1M9 38h1M14 38h1M9 39h1" />
<path stroke="#003300" d="M8 36h1" />
<path stroke="#996666" d="M10 38h1M1 46h1" />
<path stroke="#cc9999" d="M17 40h1" />
<path stroke="#cccc99" d="M18 41h1" />
</svg>
