<?xml version="1.0" encoding="UTF-8"?>
<!-- Created with Inkscape (http://www.inkscape.org/) -->
<svg width="32" height="32" version="1.1" viewBox="0 0 32 32" xml:space="preserve" xmlns="http://www.w3.org/2000/svg" xmlns:cc="http://creativecommons.org/ns#" xmlns:dc="http://purl.org/dc/elements/1.1/" xmlns:rdf="http://www.w3.org/1999/02/22-rdf-syntax-ns#"><metadata><rdf:RDF><cc:Work rdf:about=""><dc:format>image/svg+xml</dc:format><dc:type rdf:resource="http://purl.org/dc/dcmitype/StillImage"/></cc:Work></rdf:RDF></metadata><defs><clipPath id="clipPath16"><path d="m0 0h256v256h-256v-256z"/></clipPath><clipPath id="clipPath32"><path d="m0 0h256v256h-256v-256z"/></clipPath></defs><g transform="matrix(1.25 0 0 -1.25 -144.82 170.57)"><g transform="matrix(.43056 0 0 .43056 65.627 62.916)"><g clip-path="url(#clipPath16)"><g transform="translate(120.61 141.08)"><path d="m0 0c0 13.939 11.296 25.238 25.227 25.238s25.227-11.299 25.227-25.238c0-13.938-11.296-25.237-25.227-25.237s-25.227 11.299-25.227 25.237"/></g></g></g><g transform="matrix(.43056 0 0 .43056 128.75 117.77)"><path d="m 0,0 8.326,16.613 -16.648,0 L 0,0 Z" fill="#fff"/></g><g transform="matrix(.43056 0 0 .43056 65.627 62.916)"><g clip-path="url(#clipPath32)"><g transform="translate(146.49 137.63)"><path d="m0 0c1.285 0 2.336 1.074 2.336 2.389 0 1.306-1.024 2.336-2.336 2.336-1.313 0-2.395-1.051-2.395-2.336 0-1.315 1.082-2.389 2.395-2.389" fill="#fff"/></g><g transform="translate(130.75 151.96)"><path d="m0 0 14.255-28.514c0.283-0.557 0.852-0.908 1.476-0.908 0.623 0 1.194 0.351 1.482 0.908l14.255 28.514c0.25 0.51 0.219 1.113-0.08 1.602-0.299 0.482-0.825 0.783-1.403 0.783h-0.509c-0.623 0-1.202-0.354-1.477-0.91l-12.268-24.489-12.267 24.489c-0.276 0.556-0.843 0.91-1.47 0.91h-0.515c-0.574 0-1.103-0.301-1.4-0.783-0.301-0.489-0.326-1.092-0.079-1.602" fill="#fff"/></g></g></g></g></svg>
