<svg xmlns="http://www.w3.org/2000/svg" viewBox="0 0 48 48">
 <defs>
  <linearGradient id="linearGradient3764" x1="1" x2="47" gradientUnits="userSpaceOnUse" gradientTransform="matrix(0,-1,1,0,-1.5e-6,47.999998)">
   <stop style="stop-color:#3c6178;stop-opacity:1"/>
   <stop offset="1" style="stop-color:#436c85;stop-opacity:1"/>
  </linearGradient>
  <linearGradient id="linearGradient4168" y1="34" x2="0" y2="14" gradientUnits="userSpaceOnUse">
   <stop style="stop-color:#fbedd1;stop-opacity:1"/>
   <stop offset="1" style="stop-color:#fef4e2;stop-opacity:1"/>
  </linearGradient>
 </defs>
 <g>
  <path d="m 36.31 5 c 5.859 4.062 9.688 10.831 9.688 18.5 c 0 12.426 -10.07 22.5 -22.5 22.5 c -7.669 0 -14.438 -3.828 -18.5 -9.688 c 1.037 1.822 2.306 3.499 3.781 4.969 c 4.085 3.712 9.514 5.969 15.469 5.969 c 12.703 0 23 -10.298 23 -23 c 0 -5.954 -2.256 -11.384 -5.969 -15.469 c -1.469 -1.475 -3.147 -2.744 -4.969 -3.781 z m 4.969 3.781 c 3.854 4.113 6.219 9.637 6.219 15.719 c 0 12.703 -10.297 23 -23 23 c -6.081 0 -11.606 -2.364 -15.719 -6.219 c 4.16 4.144 9.883 6.719 16.219 6.719 c 12.703 0 23 -10.298 23 -23 c 0 -6.335 -2.575 -12.06 -6.719 -16.219 z" style="opacity:0.05"/>
  <path d="m 41.28 8.781 c 3.712 4.085 5.969 9.514 5.969 15.469 c 0 12.703 -10.297 23 -23 23 c -5.954 0 -11.384 -2.256 -15.469 -5.969 c 4.113 3.854 9.637 6.219 15.719 6.219 c 12.703 0 23 -10.298 23 -23 c 0 -6.081 -2.364 -11.606 -6.219 -15.719 z" style="opacity:0.1"/>
  <path d="m 31.25 2.375 c 8.615 3.154 14.75 11.417 14.75 21.13 c 0 12.426 -10.07 22.5 -22.5 22.5 c -9.708 0 -17.971 -6.135 -21.12 -14.75 a 23 23 0 0 0 44.875 -7 a 23 23 0 0 0 -16 -21.875 z" style="opacity:0.2"/>
 </g>
 <g>
  <path d="m 12.645 4 c -6.952 3.956 -11.645 11.427 -11.645 19.998 0 0.133 0.008 0.264 0.01 0.396 7.51 20.07 10.7 14.711 23.02 22.604 c 0 0 0.002 0 0.002 0 c 9.592 -0.014 17.804 -5.899 21.242 -14.254 -0.275 -9.746 -0.275 -14.746 -0.559 -18.746 -3.505 -7.248 -10.702 -12.372 -19.15 -12.941 -5.232 0.736 -9.492 1.679 -12.923 2.943" style="fill:url(#linearGradient3764);fill-opacity:1"/>
  <path d="m 24 1 c -3.396 0 -6.616 0.741 -9.518 2.063 c -1.336 2.091 -1.679 5.844 0.375 5.32 c 1.744 -0.445 0.416 -5.655 3.098 -2.961 c 1.479 1.486 3.467 1.551 3.314 2.215 c -1.067 4.626 3.504 2.47 5.695 0.361 c 4.122 -3.967 5.368 -4.754 -0.955 -4.03 c -2.616 0.299 1.523 -3.48 2.873 -2.234 c 0.23 -0.003 0.402 -0.036 0.531 -0.086 c -1.737 -0.419 -3.548 -0.646 -5.414 -0.646 z m -1.434 2.09 c 0.156 0.01 0.331 0.036 0.525 0.084 c -0.981 3.523 -2.86 -0.231 -0.525 -0.084 z m 11.529 2.348 c -2.87 0.031 -0.687 3.479 1.885 3.125 c 3.673 -0.506 0.394 -2.874 -1.242 -3.084 c -0.238 -0.03 -0.451 -0.043 -0.643 -0.041 z m -20.848 4.967 c -1.352 0.219 -1.275 4.248 -1.578 5.537 c -0.908 3.86 -8.528 2.689 -6.234 7.148 c 0.638 1.24 2.665 -1.501 4.096 0.229 c 1.913 1.452 3.887 1.305 5.465 0.17 c 0 0.208 0.004 0.29 0.004 0.512 c 0 5 3 9 5.5 11 c 1.799 -1.439 2.817 -2.724 3.621 -4.076 c 0.757 0.193 1.497 0.445 2.207 0.711 c 0.74 1.1 1.69 2.18 3.172 3.365 c 2.167 -1.734 4.707 -4.971 5.346 -9.06 c 0.571 2.102 0.762 4.632 2.023 4.166 c 8.04 -2.973 -0.302 5.614 7.779 4.03 c 1.505 -3.059 2.352 -6.498 2.352 -10.137 c 0 -3.343 -0.718 -6.515 -2 -9.381 c -2.402 -1.231 -5.01 -2.074 -7.801 -2.326 c -0.227 -0.021 -0.449 -0.032 -0.664 -0.033 c -2.485 -0.015 -4.159 1.216 -5.436 2.74 l -1.1 0 l 0 1.4 c 0.021 0.005 0.034 0.011 0.055 0.016 c -1.489 2.236 -2.455 4.493 -3.979 4.254 c -1.716 -0.269 1.322 -8.449 -4.305 -1.135 c -1.016 1.321 -0.314 2.044 -0.041 3.539 c 0 0.001 0 0.001 0 0.002 c -0.13 0.445 -0.066 1.14 0.076 1.496 c -0.046 0.646 -0.191 1.402 -0.512 2.322 c -0.311 0.892 -1.058 2.466 0.494 3.373 c -0.405 0.751 -0.845 1.492 -1.289 2.232 c -2.5 -3.5 -2.5 -6.5 -2.5 -7.5 c 0 -8 0 -8.1 2 -8.6 l 0 -1.4 l -3.658 0 c 0.181 -0.314 0.511 -0.685 1.09 -1.164 c 1.203 -0.906 0.573 -3.125 -1.291 -2.193 c -0.687 0.361 -1.238 -0.282 -1.705 -0.701 c -0.487 -0.436 -0.875 -0.588 -1.188 -0.537 z m 25.08 7.04 c 0.651 0.129 1.549 2.216 1.787 3.727 c 0.421 2.67 -2.825 0.253 -2.412 -2.652 c 0.1 -0.703 0.28 -1.021 0.498 -1.072 c 0.041 -0.01 0.084 -0.011 0.127 -0.002 z m -6.338 6.05 c 0.001 0.55 0.01 0.861 0.01 1.512 c 0 0.111 -0.014 0.33 -0.018 0.488 c -0.54 -0.933 -0.95 -1.556 -0.301 -1.871 c 0.107 -0.052 0.209 -0.091 0.309 -0.129 z m -30.971 1.295 c 0.41 12.242 10.382 22.05 22.687 22.21 c -3.199 -2.201 -1.138 -6.982 -4.127 -9.381 c -3.351 -2.254 -8.942 0.462 -12.342 -2.064 c -2.087 -1.551 0.659 -4.779 2.168 -5.953 c 1.564 -1.25 -2.257 -0.529 -3.383 -1.365 c -1.601 -1.188 -3.251 -2.422 -5 -3.445 z m 32.07 10.803 c -4.233 0.769 1.402 7.343 1.738 2.596 c 0.013 -0.873 -0.866 -2.754 -1.738 -2.596 z" style="fill:#000;fill-opacity:0.098"/>
  <path d="m 24 1 c -4.132 0 -8 1.095 -11.355 3 -0.507 1.866 -0.286 3.763 1.213 3.381 1.744 -0.445 0.416 -5.653 3.098 -2.959 1.479 1.486 3.467 1.549 3.314 2.213 c -1.067 4.626 3.504 2.472 5.695 0.363 4.122 -3.967 5.368 -4.756 -0.955 -4.03 -1.58 0.181 -0.687 -1.119 0.558 -1.908 -0.519 -0.035 -1.04 -0.059 -1.568 -0.059 m -2.434 1.09 c 0.156 0.01 0.331 0.036 0.525 0.084 -0.981 3.523 -2.86 -0.231 -0.525 -0.084 z m 11.529 2.348 c -2.87 0.031 -0.687 3.479 1.885 3.125 c 3.673 -0.506 0.394 -2.874 -1.242 -3.084 -0.238 -0.03 -0.451 -0.043 -0.643 -0.041 m -20.848 4.967 c -1.352 0.219 -1.275 4.248 -1.578 5.537 -0.908 3.86 -8.528 2.689 -6.234 7.148 0.638 1.24 2.665 -1.501 4.096 0.229 3.284 2.493 6.759 0.298 8.07 -3.578 1.29 -3.809 -3.657 -3.02 -0.172 -5.904 1.203 -0.906 0.573 -3.125 -1.291 -2.193 -0.687 0.361 -1.238 -0.282 -1.705 -0.701 -0.487 -0.436 -0.875 -0.588 -1.188 -0.537 z m 23.287 1.855 c -6.665 -0.04 -7.505 8.873 -10.459 8.41 -1.716 -0.269 1.322 -8.449 -4.305 -1.135 -1.626 2.114 1.149 2.698 -0.477 7.359 -0.361 1.034 -1.315 2.988 1.42 3.752 5.063 0.602 9.73 5.499 10.344 -1.408 0.277 -3.12 -2.678 -4.987 -1.377 -5.619 4.191 -2.037 2.856 7.35 5.188 6.488 8.529 -3.152 -1.393 6.706 9.406 3.639 c 1.11 -2.697 1.725 -5.649 1.725 -8.746 0 -3.585 -0.821 -6.976 -2.283 -10 -2.595 -1.44 -5.449 -2.43 -8.518 -2.707 c -0.227 -0.021 -0.449 -0.032 -0.664 -0.033 z m 1.666 5.182 c 0.655 -0.153 1.66 2.113 1.914 3.725 0.421 2.67 -2.825 0.253 -2.412 -2.652 0.1 -0.703 0.28 -1.021 0.498 -1.072 z m -36.19 7.955 c 0.212 12.519 10.42 22.604 22.99 22.604 c 0.011 0 0.022 0 0.033 0 -0.488 -0.403 -0.95 -0.758 -1.279 -0.971 c -3.273 -2.185 -1.168 -7.01 -4.174 -9.418 -3.351 -2.254 -8.942 0.462 -12.342 -2.064 -2.087 -1.551 0.659 -4.779 2.168 -5.953 1.564 -1.25 -2.257 -0.529 -3.383 -1.365 -1.295 -0.962 -2.626 -1.946 -4.01 -2.832 m 31.08 10.189 c -4.233 0.769 1.402 7.343 1.738 2.596 0.013 -0.873 -0.866 -2.754 -1.738 -2.596 z" style="fill:#5eac5e;fill-opacity:1"/>
  <path d="m 13 15 0 1.4 c 1.71 0.428 1.947 0.703 1.982 5.191 0.681 -0.766 1.243 -1.735 1.621 -2.852 c 0.796 -2.349 -0.773 -2.949 -1.281 -3.74 m 14.678 0 0 1.4 c 1.714 0.429 1.947 0.876 1.982 5.945 1.691 0.241 1.974 3.267 2.508 5.205 c 0.321 -1.111 0.51 -2.299 0.51 -3.551 c 0 -7.199 0 -7.1 2 -7.6 l 0 -1.4 m -12 7 c -1 0 -2.01 0.338 -3 0.699 -0.57 0.208 -0.331 2.133 0 2.102 l 1.5 -0.201 c 0 1.829 -0.597 3.498 -1.414 5.109 0.809 0.129 1.594 0.364 2.363 0.627 c 0.187 -0.341 0.373 -0.679 0.551 -1.035 c 0.261 0.522 0.523 1.024 0.811 1.516 1.228 0.471 2.363 0.919 3.311 1.037 c -1.361 -2.288 -2.621 -4.603 -2.621 -7.254 l 1.5 0.201 c 0.331 0.031 0.557 -1.86 0 -2.102 c -1.01 -0.438 -2 -0.699 -3 -0.699" style="fill:#000;fill-opacity:0.098"/>
 </g>
 <g>
  <g>
   <g transform="translate(1,1)">
    <g style="opacity:0.1">
     <!-- color: #20a0db -->
    </g>
   </g>
  </g>
 </g>
 <g>
  <g>
   <!-- color: #20a0db -->
  </g>
 </g>
 <g>
  <path d="m 40.03 7.531 c 3.712 4.084 5.969 9.514 5.969 15.469 0 12.703 -10.297 23 -23 23 c -5.954 0 -11.384 -2.256 -15.469 -5.969 4.178 4.291 10.01 6.969 16.469 6.969 c 12.703 0 23 -10.298 23 -23 0 -6.462 -2.677 -12.291 -6.969 -16.469 z" style="opacity:0.1"/>
 </g>
 <path d="m 12 14 0 1.4 c 2 0.5 2 0.401 2 7.6 0 5 3 9 5.5 11 2.5 -2 3.5 -3.7 4.5 -5.7 1 2 2 3.7 4.5 5.7 2.5 -2 5.5 -6 5.5 -11 0 -7.199 0 -7.1 2 -7.6 l 0 -1.4 -7 0 0 1.4 c 2 0.5 2 0.6 2 8.6 c 0 1 0 4 -2.5 7.5 -1.5 -2.5 -3 -5 -3 -7.9 l 1.5 0.201 c 0.331 0.031 0.557 -1.86 0 -2.102 c -1.01 -0.438 -2 -0.699 -3 -0.699 c -1 0 -2.01 0.338 -3 0.699 -0.57 0.208 -0.331 2.133 0 2.102 l 1.5 -0.201 c 0 2.9 -1.5 5.4 -3 7.9 -2.5 -3.5 -2.5 -6.5 -2.5 -7.5 c 0 -8 0 -8.1 2 -8.6 l 0 -1.4" style="fill:url(#linearGradient4168);opacity:1;fill-opacity:1;stroke:none"/>
</svg>
