<?xml version="1.0" encoding="UTF-8" standalone="no"?>
<svg
   xmlns:dc="http://purl.org/dc/elements/1.1/"
   xmlns:cc="http://creativecommons.org/ns#"
   xmlns:rdf="http://www.w3.org/1999/02/22-rdf-syntax-ns#"
   xmlns:svg="http://www.w3.org/2000/svg"
   xmlns="http://www.w3.org/2000/svg"
   xmlns:xlink="http://www.w3.org/1999/xlink"
   xmlns:sodipodi="http://sodipodi.sourceforge.net/DTD/sodipodi-0.dtd"
   xmlns:inkscape="http://www.inkscape.org/namespaces/inkscape"
   height="256"
   width="256"
   version="1.0"
   id="svg29"
   sodipodi:docname="wine-logo.svg"
   inkscape:version="1.0 (4035a4fb49, 2020-05-01)">
  <metadata
     id="metadata33">
    <rdf:RDF>
      <cc:Work
         rdf:about="">
        <dc:format>image/svg+xml</dc:format>
        <dc:type
           rdf:resource="http://purl.org/dc/dcmitype/StillImage" />
        <dc:title></dc:title>
      </cc:Work>
    </rdf:RDF>
  </metadata>
  <sodipodi:namedview
     inkscape:document-rotation="0"
     pagecolor="#ffffff"
     bordercolor="#666666"
     borderopacity="1"
     objecttolerance="10"
     gridtolerance="10"
     guidetolerance="10"
     inkscape:pageopacity="0"
     inkscape:pageshadow="2"
     inkscape:window-width="1837"
     inkscape:window-height="1110"
     id="namedview31"
     showgrid="false"
     inkscape:zoom="1.0276773"
     inkscape:cx="55.179803"
     inkscape:cy="200.80231"
     inkscape:window-x="305"
     inkscape:window-y="248"
     inkscape:window-maximized="0"
     inkscape:current-layer="svg29" />
  <defs
     id="defs4">
    <filter
       id="filter10933"
       color-interpolation-filters="sRGB">
      <feGaussianBlur
         id="feGaussianBlur10935"
         stdDeviation="1.30068" />
    </filter>
    <radialGradient
       id="radialGradient2896"
       gradientUnits="userSpaceOnUse"
       cy="8.3155003"
       cx="11.947"
       gradientTransform="matrix(0.18962778,-2.8444735,0.97153919,0.06476798,1.6026509,66.548371)"
       r="28.634001">
      <stop
         id="stop3849"
         stop-opacity="0.99215686"
         stop-color="#f1f1f1"
         offset="0" />
      <stop
         id="stop3851"
         stop-opacity="0.98431373"
         stop-color="#cfcfcf"
         offset="1" />
    </radialGradient>
    <radialGradient
       id="radialGradient2898"
       gradientUnits="userSpaceOnUse"
       cy="-119.36"
       cx="73.077003"
       gradientTransform="matrix(-1.0984108,0.2943179,-0.86637889,-3.23337,49.933906,-352.62446)"
       r="64.761002">
      <stop
         id="stop2975"
         stop-opacity="0.99215686"
         stop-color="#f1f1f1"
         offset="0" />
      <stop
         id="stop2977"
         stop-color="#cfcfcf"
         offset="1" />
    </radialGradient>
    <radialGradient
       id="radialGradient2900"
       gradientUnits="userSpaceOnUse"
       cy="-92.025002"
       cx="89.904999"
       gradientTransform="matrix(1.1076647,-0.29679787,0.49462864,1.8459792,35.83864,324.94279)"
       r="52.050999">
      <stop
         id="stop3841"
         stop-color="#c10112"
         offset="0" />
      <stop
         id="stop3843"
         stop-color="#5e0513"
         offset="1" />
    </radialGradient>
    <radialGradient
       id="radialGradient2902"
       gradientUnits="userSpaceOnUse"
       cy="27.659"
       cx="130.88"
       gradientTransform="matrix(2.5590945,0,3.3150639e-6,4.5137433,-204.0605,138.51923)"
       r="13.818">
      <stop
         id="stop3857"
         stop-color="#cfcfcf"
         offset="0" />
      <stop
         id="stop3859"
         stop-color="#c1c1c1"
         offset="1" />
    </radialGradient>
  </defs>
  <g
     id="g2992"
     transform="matrix(0.73119362,0,0,0.73119362,57.252139,13.567971)">
    <path
       id="ellipse9968"
       d="m 35.331,80.275 c -9.6003,1.8985 -17.005,5.3965 -16.528,7.808 0.47689,2.4116 8.6555,2.828 18.256,0.92949 9.6003,-1.8985 17.005,-5.3965 16.528,-7.808 -0.477,-2.411 -8.655,-2.827 -18.256,-0.929 z m -0.27189,3.4246 c 1.962,-0.44 4.752,-2.048 5.979,-3.904 -7.449,-2.939 -7.684,-10.908 -8.686,-17.022 l 0.09316,-1.4319 c 0.4151,-1.9839 2.4566,-6.4055 3.6946,-8.5496 5.734,-9.93 0.012,-29.792 -4.297,-46.694 -4.71,-4.2941 -25.074,0.3183 -28.884,6.6915 3.0326,11.411 7.2395,34.224 16.802,43.211 2.1452,2.0163 5.2021,2.8029 8.1146,6.3175 l 0.6879,1.1573 c 2.2174,6.1909 5.0839,14.147 0.4529,18.696 1.5984,1.2193 4.0831,1.973 6.0435,1.5293 z"
       fill-opacity="0.501961"
       transform="matrix(3.4014139,0,0,3.4014139,0.55162226,-4.43821)"
       filter="url(#filter10933)"
       fill="#000000" />
    <ellipse
       id="ellipse9861"
       rx="28.634001"
       ry="113.99"
       transform="matrix(-0.10262566,-0.5189629,-0.5189629,0.10262566,127.53236,278.74732)"
       cy="0"
       cx="0"
       stroke-miterlimit="79.84"
       fill="url(#radialGradient2896)"
       style="fill:url(#radialGradient2896)" />
    <path
       id="path9863"
       d="m 123.67,275.54 c 6.6724,-1.4982 16.161,-6.965 20.336,-13.28 -25.338,-9.9973 -26.137,-37.103 -29.545,-57.899 l 0.31688,-4.8706 c 1.4119,-6.7481 8.3558,-21.788 12.567,-29.081 19.505,-33.778 0.0402,-101.33 -14.615,-158.83 -16.034,-14.609 -85.299,1.08 -98.257,22.757 10.316,38.815 24.626,116.41 57.148,146.98 7.2967,6.8581 17.694,9.5339 27.601,21.488 l 2.3398,3.9364 c 7.5421,21.058 17.292,48.12 1.5405,63.593 5.4367,4.1475 13.888,6.7111 20.556,5.2018 z"
       style="fill:url(#radialGradient2898);marker-start:none;marker-end:none"
       stroke-miterlimit="79.8403"
       fill="url(#radialGradient2898)" />
    <path
       id="path9865"
       d="M 119.84,52.694 C 85.556,36.629 95.852,117.74 29.155,83.137 c 23.9,90.575 44.907,102.5 75.911,113.22 9.5767,-8.7425 48.312,-37.499 14.774,-143.66 z"
       style="fill:url(#radialGradient2900);marker-start:none;marker-end:none"
       stroke-miterlimit="79.8403"
       fill="url(#radialGradient2900)" />
    <path
       id="path11024"
       d="m 105.02,201.56 3.037,-0.30371 c 4.0704,14.85 10.413,49.894 24.6,62.562 -6.0108,4.8235 -13.381,5.8405 -21.411,5.011 7.013,-21.462 -1.5549,-51.162 -6.2258,-67.269 z"
       fill="url(#radialGradient2902)"
       fill-rule="evenodd"
       style="fill:url(#radialGradient2902)" />
    <path
       id="path11022"
       d="m 143.21,263.44 3.1888,2.8851 c 30.836,-5.0817 36.692,1.0325 23.992,12.376 15.903,-5.3607 24.724,-23.162 -27.181,-15.261 z"
       fill="#c2c2c2"
       fill-rule="evenodd" />
  </g>
</svg>
