/* XPM */
static char * wxBriscola_xpm[] = {
"32 32 587 2",
"  	c None",
". 	c #F2F2F2",
"+ 	c #F1F1F2",
"@ 	c #F8F7F1",
"# 	c #F7F6F3",
"$ 	c #FFFFFF",
"% 	c #CBCBCB",
"& 	c #2A2A2A",
"* 	c #5B5B5B",
"= 	c #575757",
"- 	c #616161",
"; 	c #5A5A5A",
"> 	c #585858",
", 	c #595959",
"' 	c #585857",
") 	c #4F4F4E",
"! 	c #4E4E4D",
"~ 	c #565656",
"{ 	c #545455",
"] 	c #444444",
"^ 	c #F1F1F1",
"/ 	c #F8F8F9",
"( 	c #FFFDF6",
"_ 	c #DDDEDF",
": 	c #525252",
"< 	c #515151",
"[ 	c #515353",
"} 	c #505253",
"| 	c #555657",
"1 	c #515252",
"2 	c #4F5252",
"3 	c #535252",
"4 	c #5A5B5B",
"5 	c #F8F7F2",
"6 	c #F7F6F0",
"7 	c #FFFDF8",
"8 	c #DEDFE0",
"9 	c #414141",
"0 	c #3E3E3E",
"a 	c #303030",
"b 	c #3B3B3B",
"c 	c #373737",
"d 	c #38393A",
"e 	c #3B3532",
"f 	c #3C3532",
"g 	c #3A3330",
"h 	c #3D3E3E",
"i 	c #3F4040",
"j 	c #403D3B",
"k 	c #3B3430",
"l 	c #484A4A",
"m 	c #575656",
"n 	c #F3F3F3",
"o 	c #F1F2F2",
"p 	c #F0F0F1",
"q 	c #F8F6F0",
"r 	c #F7F5F0",
"s 	c #DFDFE0",
"t 	c #505050",
"u 	c #333333",
"v 	c #353535",
"w 	c #2C2C2C",
"x 	c #363636",
"y 	c #333232",
"z 	c #303334",
"A 	c #362822",
"B 	c #40302A",
"C 	c #352721",
"D 	c #343738",
"E 	c #313333",
"F 	c #37302D",
"G 	c #3D2D25",
"H 	c #484B4C",
"I 	c #F9F9FA",
"J 	c #F4F4F5",
"K 	c #F4F3F0",
"L 	c #F4F4F4",
"M 	c #F5F4F3",
"N 	c #F3F3F1",
"O 	c #F4F3F1",
"P 	c #F3F4F3",
"Q 	c #FCF8EF",
"R 	c #4A4A4A",
"S 	c #2D2C2C",
"T 	c #383939",
"U 	c #343434",
"V 	c #343433",
"W 	c #303234",
"X 	c #353739",
"Y 	c #27282A",
"Z 	c #3C3B3B",
"` 	c #3A3939",
" .	c #353637",
"..	c #2A2D2E",
"+.	c #4A4949",
"@.	c #FEFFFF",
"#.	c #FDFCFB",
"$.	c #FDFDFD",
"%.	c #F9F8F7",
"&.	c #FCFBF8",
"*.	c #F3F2F1",
"=.	c #FCF9F0",
"-.	c #FFFFFD",
";.	c #F3F2EF",
">.	c #F8F9F9",
",.	c #E1E1E1",
"'.	c #4D4D4D",
").	c #4E4E4E",
"!.	c #313131",
"~.	c #303131",
"{.	c #2B2D2E",
"].	c #353636",
"^.	c #2D3132",
"/.	c #333434",
"(.	c #222725",
"_.	c #393A39",
":.	c #363738",
"<.	c #323435",
"[.	c #303232",
"}.	c #4B4B4B",
"|.	c #777778",
"1.	c #989897",
"2.	c #A4A4A4",
"3.	c #A6A6A7",
"4.	c #AAAAAA",
"5.	c #B4B5B6",
"6.	c #B6B6B4",
"7.	c #B8B7B8",
"8.	c #BDBDBF",
"9.	c #C1C1C1",
"0.	c #C9C9C9",
"a.	c #D3D3D2",
"b.	c #DDDCDB",
"c.	c #E8E8E8",
"d.	c #CCCCCC",
"e.	c #2E2F2F",
"f.	c #2E2B29",
"g.	c #251D1A",
"h.	c #2D2E2E",
"i.	c #27292A",
"j.	c #2E2623",
"k.	c #501B02",
"l.	c #3A2726",
"m.	c #4E0018",
"n.	c #332A30",
"o.	c #392418",
"p.	c #442A1E",
"q.	c #3A2116",
"r.	c #414547",
"s.	c #595857",
"t.	c #F6F6F6",
"u.	c #F9F9F9",
"v.	c #F8F6F1",
"w.	c #F4F5F4",
"x.	c #F4F5F5",
"y.	c #F2F2F3",
"z.	c #FDFBF5",
"A.	c #F8F6EF",
"B.	c #DBDBDB",
"C.	c #555555",
"D.	c #333435",
"E.	c #39322E",
"F.	c #322119",
"G.	c #313435",
"H.	c #2E2E2F",
"I.	c #2F2A28",
"J.	c #45291B",
"K.	c #352A2A",
"L.	c #441624",
"M.	c #363135",
"N.	c #382B25",
"O.	c #3E2F28",
"P.	c #372922",
"Q.	c #414445",
"R.	c #585757",
"S.	c #CBCBCC",
"T.	c #FBFAF7",
"U.	c #FDF9F0",
"V.	c #F6F4F0",
"W.	c #FAF7EF",
"X.	c #F5F4F0",
"Y.	c #F9F8F6",
"Z.	c #F3F2F0",
"`.	c #FFFEF7",
" +	c #F8F7F3",
".+	c #FAF7F2",
"++	c #E1E1E0",
"@+	c #545454",
"#+	c #353434",
"$+	c #353839",
"%+	c #232C30",
"&+	c #363737",
"*+	c #363535",
"=+	c #413A35",
"-+	c #372E24",
";+	c #3A4041",
">+	c #363838",
",+	c #323536",
"'+	c #2F3233",
")+	c #4B4B4A",
"!+	c #C5C5C5",
"~+	c #FAFAFA",
"{+	c #F8F8F7",
"]+	c #FBFAF3",
"^+	c #FDFCFC",
"/+	c #F5F4EE",
"(+	c #FFFFF5",
"_+	c #FAF8F1",
":+	c #F5F5F5",
"<+	c #FAF8F3",
"[+	c #2E2F30",
"}+	c #36312F",
"|+	c #412112",
"1+	c #383431",
"2+	c #282B2C",
"3+	c #332119",
"4+	c #3E2419",
"5+	c #32211C",
"6+	c #3D3531",
"7+	c #313233",
"8+	c #323130",
"9+	c #30302F",
"0+	c #494949",
"a+	c #AFAFB4",
"b+	c #FBF9F4",
"c+	c #FAF9F8",
"d+	c #FDFCF9",
"e+	c #F1EFE9",
"f+	c #E9E5DC",
"g+	c #F4F3EF",
"h+	c #FFFDF7",
"i+	c #F2F1EE",
"j+	c #F7F8F8",
"k+	c #4E5153",
"l+	c #3F2E27",
"m+	c #402B22",
"n+	c #3D1C0D",
"o+	c #474646",
"p+	c #545657",
"q+	c #5A5655",
"r+	c #45291C",
"s+	c #372E29",
"t+	c #3C2B24",
"u+	c #352B26",
"v+	c #2A2C2D",
"w+	c #4C4C4C",
"x+	c #5D5D5D",
"y+	c #A8A8A8",
"z+	c #F4F4F3",
"A+	c #F6F6F7",
"B+	c #FAFAF8",
"C+	c #D8D8D6",
"D+	c #958F84",
"E+	c #726C5D",
"F+	c #7A7F86",
"G+	c #746E60",
"H+	c #9C9589",
"I+	c #DEDED8",
"J+	c #535353",
"K+	c #3F3E3E",
"L+	c #3D3D3D",
"M+	c #2E3031",
"N+	c #393939",
"O+	c #444343",
"P+	c #373736",
"Q+	c #515354",
"R+	c #464849",
"S+	c #3B3C3D",
"T+	c #333536",
"U+	c #A1A09E",
"V+	c #FFFFF7",
"W+	c #E9E8E6",
"X+	c #888A8A",
"Y+	c #312729",
"Z+	c #614033",
"`+	c #848482",
" @	c #5B4029",
".@	c #3E3735",
"+@	c #868789",
"@@	c #DEDEDF",
"#@	c #565555",
"$@	c #505354",
"%@	c #3D312A",
"&@	c #402011",
"*@	c #37312F",
"=@	c #555757",
"-@	c #313130",
";@	c #272626",
">@	c #464646",
",@	c #404040",
"'@	c #292A2A",
")@	c #383533",
"!@	c #322B27",
"~@	c #494B4C",
"{@	c #5B5A5A",
"]@	c #959595",
"^@	c #F5F5F2",
"/@	c #FFFFFA",
"(@	c #7D7B78",
"_@	c #626769",
":@	c #826B4D",
"<@	c #561200",
"[@	c #470902",
"}@	c #5E1800",
"|@	c #927248",
"1@	c #515759",
"2@	c #91908E",
"3@	c #DEDDD8",
"4@	c #4E5152",
"5@	c #3A2B25",
"6@	c #3A2D28",
"7@	c #3F2013",
"8@	c #35302E",
"9@	c #666868",
"0@	c #202020",
"a@	c #747474",
"b@	c #3D3633",
"c@	c #382820",
"d@	c #4A4D4E",
"e@	c #5B5B5A",
"f@	c #878786",
"g@	c #FFFFFC",
"h@	c #FFFEFC",
"i@	c #75777A",
"j@	c #5A4A33",
"k@	c #692B00",
"l@	c #B24F13",
"m@	c #C96E3B",
"n@	c #89450D",
"o@	c #6D2B00",
"p@	c #61410E",
"q@	c #61605C",
"r@	c #DDDCDA",
"s@	c #545353",
"t@	c #342F2D",
"u@	c #372C27",
"v@	c #531C04",
"w@	c #3C3430",
"x@	c #5E6061",
"y@	c #302F2F",
"z@	c #3C3F3E",
"A@	c #4D4044",
"B@	c #381D27",
"C@	c #36332E",
"D@	c #3B2821",
"E@	c #474A4C",
"F@	c #595958",
"G@	c #7B7B7A",
"H@	c #FFFFF9",
"I@	c #F2F2EF",
"J@	c #FFFEF4",
"K@	c #6F7272",
"L@	c #5D4837",
"M@	c #661400",
"N@	c #C3711F",
"O@	c #E28B46",
"P@	c #A56A1F",
"Q@	c #632400",
"R@	c #6B350F",
"S@	c #666565",
"T@	c #D3D2D1",
"U@	c #4E4F4F",
"V@	c #343536",
"W@	c #282C2E",
"X@	c #656565",
"Y@	c #1E1E1E",
"Z@	c #989898",
"`@	c #2F2F2F",
" #	c #323333",
".#	c #757574",
"+#	c #FFFFF8",
"@#	c #F0EFEE",
"##	c #636C6E",
"$#	c #9B6951",
"%#	c #96552B",
"&#	c #671A03",
"*#	c #662618",
"=#	c #4F1400",
"-#	c #956C34",
";#	c #5F5A4D",
">#	c #716D6C",
",#	c #D8D8D8",
"'#	c #2E2E2E",
")#	c #282929",
"!#	c #3D4041",
"~#	c #505252",
"{#	c #333735",
"]#	c #3B2B31",
"^#	c #441F2E",
"/#	c #474E4B",
"(#	c #585657",
"_#	c #6E6D6D",
":#	c #F0F0F0",
"<#	c #FFFEF5",
"[#	c #C6C7C2",
"}#	c #877270",
"|#	c #77552D",
"1#	c #5B3A1A",
"2#	c #7F4D25",
"3#	c #8B4721",
"4#	c #5D4F36",
"5#	c #867E85",
"6#	c #D6CFCA",
"7#	c #DCDBDC",
"8#	c #2D2D2D",
"9#	c #1C1C1C",
"0#	c #2C2E30",
"a#	c #33231C",
"b#	c #615955",
"c#	c #6A6C6D",
"d#	c #686868",
"e#	c #272727",
"f#	c #252424",
"g#	c #292A2B",
"h#	c #2C2522",
"i#	c #302018",
"j#	c #454849",
"k#	c #676767",
"l#	c #F1F0F0",
"m#	c #B2B6B4",
"n#	c #594D35",
"o#	c #684D19",
"p#	c #7F7462",
"q#	c #6E593E",
"r#	c #5A4216",
"s#	c #BAB8AE",
"t#	c #F9F9FB",
"u#	c #D9D9D9",
"v#	c #3C3C3C",
"w#	c #2B2B2A",
"x#	c #3C3E3E",
"y#	c #403936",
"z#	c #3C3837",
"A#	c #484948",
"B#	c #242323",
"C#	c #383838",
"D#	c #2F3133",
"E#	c #EDEEEF",
"F#	c #F9F7F1",
"G#	c #FBF9F3",
"H#	c #F9FAF8",
"I#	c #FBFBEE",
"J#	c #C1BFBA",
"K#	c #B1B1AE",
"L#	c #C7C8C4",
"M#	c #F0EFED",
"N#	c #D8D8D7",
"O#	c #373839",
"P#	c #2B302F",
"Q#	c #212326",
"R#	c #2B2F2E",
"S#	c #232628",
"T#	c #2E2D2D",
"U#	c #5E5E5E",
"V#	c #F2F2F1",
"W#	c #F3F4F5",
"X#	c #F3F3F2",
"Y#	c #FDFCF8",
"Z#	c #F9F8F4",
"`#	c #FBFBFA",
" $	c #F7F7F8",
".$	c #DADADA",
"+$	c #222222",
"@$	c #372327",
"#$	c #4C1D00",
"$$	c #392526",
"%$	c #2D231B",
"&$	c #302D2C",
"*$	c #2F3030",
"=$	c #282828",
"-$	c #F3F4F4",
";$	c #F3F3F4",
">$	c #F5F5F6",
",$	c #ECECEE",
"'$	c #F4F4F6",
")$	c #F4F5F6",
"!$	c #FAFAFB",
"~$	c #D4D4D4",
"{$	c #262626",
"]$	c #323534",
"^$	c #471E32",
"/$	c #530A18",
"($	c #4D152E",
"_$	c #4A1718",
":$	c #393834",
"<$	c #3A3A3B",
"[$	c #FBFAFA",
"}$	c #FFFEFD",
"|$	c #FEFEFC",
"1$	c #FCFCFC",
"2$	c #FFFFFE",
"3$	c #FEFEFD",
"4$	c #E2E2E2",
"5$	c #323232",
"6$	c #3A3C3A",
"7$	c #3C222D",
"8$	c #3B3739",
"9$	c #3A292C",
"0$	c #3B3B39",
"a$	c #3B3B3C",
"b$	c #3D3D3E",
"c$	c #A5A5A5",
"d$	c #D1D1CF",
"e$	c #DDDBD8",
"f$	c #D1D1D2",
"g$	c #CECDC9",
"h$	c #D0CEC9",
"i$	c #C1C1C3",
"j$	c #B5B5B5",
"k$	c #BCB9B3",
"l$	c #B9B6B0",
"m$	c #B4B3B0",
"n$	c #ACACAC",
"o$	c #AEADAA",
"p$	c #A0A0A1",
"q$	c #252525",
"r$	c #2D2F30",
"s$	c #352B28",
"t$	c #501B00",
"u$	c #3D2920",
"v$	c #451D08",
"w$	c #2C2D2D",
"x$	c #E9E6DF",
"y$	c #D8D8D4",
"z$	c #E4E3E1",
"A$	c #DEDEE0",
"B$	c #E3E3E2",
"C$	c #DFE0E0",
"D$	c #DBDCDE",
"E$	c #DFDEDD",
"F$	c #E3E1DF",
"G$	c #DCDDDE",
"H$	c #DCDCDD",
"I$	c #D9D9DA",
"J$	c #D8D5CE",
"K$	c #DBDBD9",
"L$	c #BBBBBB",
"M$	c #2F3132",
"N$	c #362C29",
"O$	c #541600",
"P$	c #3F281F",
"Q$	c #3F1C0F",
"R$	c #2D3031",
"S$	c #323231",
"T$	c #FDFCF5",
"U$	c #F7F7F6",
"V$	c #FBFBF8",
"W$	c #FFFEF8",
"X$	c #FDFDF9",
"Y$	c #FEFEF8",
"Z$	c #E1E1E2",
"`$	c #4F4F4F",
" %	c #343535",
".%	c #402416",
"+%	c #39312D",
"@%	c #412315",
"#%	c #3A3431",
"$%	c #2B2B2B",
"%%	c #EEEFEF",
"&%	c #F0F0EE",
"*%	c #EEEEEE",
"=%	c #EFEFEF",
"-%	c #EEEEEF",
";%	c #F6F6F3",
">%	c #FDFCF7",
",%	c #D7D7D7",
"'%	c #505051",
")%	c #4B4C4C",
"!%	c #454A4C",
"~%	c #494A4B",
"{%	c #444A4C",
"]%	c #494A4A",
"^%	c #FBFBFC",
"/%	c #FBFBFB",
"(%	c #FDFDFA",
"_%	c #E2E2E1",
":%	c #5F5F5F",
"<%	c #666666",
"[%	c #626262",
"}%	c #636363",
"|%	c #5C5B5A",
"1%	c #CACACA",
"2%	c #CBCAC8",
"3%	c #D2D2D1",
"4%	c #B1AFAB",
"5%	c #212121",
"6%	c #474747",
". . . . . . . . . . + @ # $ % & * = - ; > = , ' ) ! > = = ~ { ] ",
". . . . . . . . . . ^ / # ( _ : ; ~ ; > : < ~ [ } | ' < 1 2 3 4 ",
". . . . . . . . . . + 5 6 7 8 ) ~ 9 0 a b c d e f g h i j k l m ",
". n ^ ^ . o ^ ^ . o p q r 7 s t < u v w x y z A B C D E F G H = ",
"^ I J . ^ K L M N O L P Q 7 s R t b 0 S T U V W X Y Z `  ...+.= ",
"@.K #.$.%.( $ &.*.=.-./ ;.>.,.'.).!.~.{.b x ].^./.(._.:.<.[.}.= ",
"|.1.2.3.4.5.6.7.8.9.0.a.b.c.d.: ).e.f.g.h.i.j.k.l.m.n.o.p.q.r.s.",
"'.$ / J t.u.v.q w.x.y.z.A./ B.t C.D.E.F.G.H.I.J.K.L.M.N.O.P.Q.R.",
"S.T.U.V.W.X.t.Y.Z.`. +.+Z./ ++@+> #+$+%+&+*+<.!.=+-+;+>+,+'+)+= ",
"!+~+{+]+v.^+/ /+(+_+:+<+K / ,.> t [+}+|+1+h.2+3+4+5+6+7+8+9+0+m ",
"a+b+T.:+c+d+@.e+f+g+$ h+i+j+,.R.k+l+m+n+~.w o+p+q+r+s+t+u+v+w+x+",
"y+h+z+A+B+C+D+E+F+G+H+I+B+I ,.J+C.K+L+M+N+O+x+P+Q+R+S+V T T+}.* ",
"U+V+J z+W+X+Y+Z+`+ @.@+@_+d+@@#@$@O.%@&@*@=@-@u ;@>@,@'@)@!@~@{@",
"]@$.^@/@(@_@:@<@[@}@|@1@2@$ 3@R.4@5@6@7@8@9@0@a@& N+t v+b@c@d@e@",
"f@g@M h@i@j@k@l@m@n@o@p@q@$ r@s@1 t@u@v@w@x@!.] y@z@A@B@C@D@E@F@",
"G@H@I@J@K@L@M@N@O@P@Q@R@S@g@T@U@< <.V@W@h X@Y@Z@x 9 t `@ #[.+.~ ",
".#+#@#/@##$#%#&#*#=#-#;#>#$ ,#> < '#U )#v !#~#!.).w+` {#]#^#/#(#",
"_#$ :#<#[#}#|#1#2#3#4#5#6#@.7#= t 8#'#9#0#a#b#c#d#e#f#g#h#i#j#= ",
"k#$ l#;.-.m#n#o#p#q#r#s#`.t#u#}.J+b v#w#x#y#z#A#v#B#C#C#V@D#}.> ",
"; $ E#F#G#H#I#J#K#L#B+J@M#/ N#w+@+N+c e#x O#P#Q#R#S#].b v T#).U#",
": $ :#V#/ W#X#Y#Z#/@O `#z+ $.$J+'.`@8#+$'#g#@$#$$$%$&$*$u =$}.x+",
"w+$ ^ -$t.;$>$p ,$'$)$!$:#L ~$t C.C#c {$#+]$^$/$($_$:$<$x !.}.= ",
"8#$ [$}$>.c+|$1$$.-.2$$ 3$$ 4$0+: b L+5$b h 6$7$8$9$0$a$N+U 0+~ ",
"b$c$d$e$f$g$h$i$j$k$l$m$n$o$p$@+'.8#'#q$y@r$s$t$u$v$&$w$S {$>@* ",
"x$y$z$A$B$C$D$E$F$G$H$I$J$K$L$: '.`@!.q$`@M$N$O$P$Q$R$S$8#e#w+x+",
"T$-.1$:+t.U$A+V$W$u.u.X$Y$$ Z$`$).u 5$& v  %}+.%+%@%#%V@-@$%}.; ",
"%%&%*%. :#=%=%-%-%=%=%&%;%>%,%'%`$R J+0+0+}.)%!%~%{%]%}.}.0+R x+",
"1$^%1$/%1$1$1$1$1$1$1$^%(%$ _%* :%, <%[%, ; }%|%{@|%; ; ; ; x+x+",
"1%1%1%1%1%1%1%1%1%1%1%1%2%3%4%5%< t < t R t < }.6%6%0+t R ).~ U ",
"                                                                ",
"                                                                ",
"                                                                "};
