<svg width="10" height="10" viewBox="0 0 10 10" fill="none" xmlns="http://www.w3.org/2000/svg">
<path fill-rule="evenodd" clip-rule="evenodd" d="M5 10C5.65661 10 6.30679 9.87067 6.91342 9.6194C7.52005 9.36812 8.07124 8.99983 8.53553 8.53553C8.99983 8.07124 9.36812 7.52005 9.6194 6.91342C9.87067 6.30679 10 5.65661 10 5C10 4.34339 9.87067 3.69321 9.6194 3.08658C9.36812 2.47995 8.99983 1.92876 8.53553 1.46447C8.07124 1.00017 7.52005 0.631876 6.91342 0.380602C6.30679 0.129329 5.65661 -9.78424e-09 5 0C3.67392 1.97602e-08 2.40215 0.526784 1.46447 1.46447C0.526784 2.40215 0 3.67392 0 5C0 6.32608 0.526784 7.59785 1.46447 8.53553C2.40215 9.47322 3.67392 10 5 10ZM4.87111 7.02222L7.64889 3.68889L6.79556 2.97778L4.40667 5.84389L3.17056 4.60722L2.385 5.39278L4.05167 7.05944L4.48167 7.48945L4.87111 7.02222Z" fill="#63AD62"/>
</svg>
