<?xml version="1.0" encoding="utf-8"?>
<!-- Generator: Adobe Illustrator 25.4.1, SVG Export Plug-In . SVG Version: 6.00 Build 0)  -->
<svg version="1.1" id="Capa_1" xmlns="http://www.w3.org/2000/svg" xmlns:xlink="http://www.w3.org/1999/xlink" x="0px" y="0px"
	 viewBox="0 0 37.22 37.22" style="enable-background:new 0 0 37.22 37.22;" xml:space="preserve">
<style type="text/css">
	.st0{fill:#FFFFFF;}
	.st1{fill:url(#SVGID_1_);}
</style>
<circle cx="18.61" cy="18.61" r="18.61"/>
<path class="st0" d="M18.56,3.51v5.43c5.39,0,9.75,4.37,9.75,9.75s-4.37,9.75-9.75,9.75v5.43c8.39,0,15.19-6.8,15.19-15.19
	S26.94,3.51,18.56,3.51z"/>
<linearGradient id="SVGID_1_" gradientUnits="userSpaceOnUse" x1="11.074" y1="18.2778" x2="25.5185" y2="18.2778">
	<stop  offset="0" style="stop-color:#906DEC"/>
	<stop  offset="1" style="stop-color:#1D9EFE"/>
</linearGradient>
<path class="st1" d="M22.32,19.61c1.78-0.1,3.19-1.56,3.19-3.37c0-1.87-1.52-3.39-3.39-3.39h-9.8c-0.7,0-1.26,0.56-1.26,1.26v9.59
	h2.7v-4.07h5.11l3.03,4.07h3.38l-2.93-4.08L22.32,19.61z M21.69,17.3h-7.87v-2.19h7.87c0.6,0,1.09,0.49,1.09,1.09
	C22.78,16.81,22.29,17.3,21.69,17.3z"/>
</svg>
