<svg xmlns="http://www.w3.org/2000/svg" version="1.1" width="26px" height="26px" viewBox="0 0 128 128" style="shape-rendering:geometricPrecision; text-rendering:geometricPrecision; image-rendering:optimizeQuality; fill-rule:evenodd; clip-rule:evenodd" xmlns:xlink="http://www.w3.org/1999/xlink">
    <g><path style="opacity:0.987" fill="#393d45" d="M 41.5,-0.5 C 56.1667,-0.5 70.8333,-0.5 85.5,-0.5C 95.6675,0.550776 105.001,4.05078 113.5,10 C 121.955,18.8839 126.622,29.3839 127.5,41.5 C 127.5,56.1667 127.5,70.8333 127.5,85.5 C 126.684,101.638 119.351,113.804 105.5,122 C 98.8821,124.485 92.2155,126.318 85.5,127.5 C 70.8333,127.5 56.1667,127.5 41.5,127.5 C 31.3325,126.449 21.9991,122.949 13.5,117 C 5.04459,108.116 0.377921,97.6161 -0.5,85.5 C -0.5,70.8333 -0.5,56.1667 -0.5,41.5 C 0.315994,25.3624 7.64933,13.1957 21.5,5 C 28.1179,2.51516 34.7845,0.681829 41.5,-0.5 Z"/></g>
    <g><path style="opacity:1" fill="#f3b204" d="M 10.5,32.5 C 11.8734,32.3433 13.2068,32.51 14.5,33 C 22.1312,38.8988 30.6312,43.0654 40,45.5 C 42.6342,45.0664 45.1342,44.233 47.5,43 C 56.9041,33.2077 67.9041,30.8744 80.5,36 C 85.0328,39.0977 89.6995,41.931 94.5,44.5 C 94.8333,44.3333 95.1667,44.1667 95.5,44 C 93.5029,41.5084 92.5029,38.675 92.5,35.5 C 94.1992,35.3398 95.8659,35.5065 97.5,36 C 103.928,40.4234 109.761,45.5901 115,51.5 C 115.825,53.7008 115.325,55.5341 113.5,57 C 108.5,57.3333 103.5,57.6667 98.5,58 C 94.7403,59.4612 91.9069,61.9612 90,65.5 C 88.8669,71.7617 85.7002,76.7617 80.5,80.5 C 79.1195,80.0004 78.4528,79.0004 78.5,77.5 C 79.6441,74.713 80.6441,71.8797 81.5,69 C 79.9072,62.2036 75.9072,60.2036 69.5,63 C 62.8645,69.4956 60.6978,77.3289 63,86.5 C 64.6576,91.1486 66.8243,95.482 69.5,99.5 C 69.5658,101.266 68.7324,102.266 67,102.5 C 65.018,102.01 63.3513,101.01 62,99.5 C 53.4081,86.716 52.2415,73.216 58.5,59 C 58.1667,58.5 57.8333,58 57.5,57.5 C 45.3824,60.5319 34.3824,58.3652 24.5,51 C 20.0332,47.5349 15.8666,43.7016 12,39.5 C 10.7978,37.3225 10.2978,34.9892 10.5,32.5 Z"/></g>
</svg>
