<?xml version="1.0" encoding="UTF-8" standalone="no"?>
<!-- Created with Inkscape (http://www.inkscape.org/) -->

<svg
   version="1.1"
   id="svg1"
   width="682.66669"
   height="682.66669"
   viewBox="0 0 682.66669 682.66669"
   sodipodi:docname="icon.svg"
   inkscape:export-filename="TheIDE_512x512.svg"
   inkscape:export-xdpi="96"
   inkscape:export-ydpi="96"
   inkscape:version="1.3.2 (091e20ef0f, 2023-11-25, custom)"
   xmlns:inkscape="http://www.inkscape.org/namespaces/inkscape"
   xmlns:sodipodi="http://sodipodi.sourceforge.net/DTD/sodipodi-0.dtd"
   xmlns="http://www.w3.org/2000/svg"
   xmlns:svg="http://www.w3.org/2000/svg">
  <defs
     id="defs1" />
  <sodipodi:namedview
     id="namedview1"
     pagecolor="#ffffff"
     bordercolor="#666666"
     borderopacity="1.0"
     inkscape:showpageshadow="2"
     inkscape:pageopacity="0.0"
     inkscape:pagecheckerboard="0"
     inkscape:deskcolor="#d1d1d1"
     inkscape:zoom="1"
     inkscape:cx="457.5"
     inkscape:cy="381"
     inkscape:window-width="1720"
     inkscape:window-height="1368"
     inkscape:window-x="1720"
     inkscape:window-y="0"
     inkscape:window-maximized="0"
     inkscape:current-layer="g1" />
  <g
     inkscape:groupmode="layer"
     inkscape:label="Image"
     id="g1">
    <path
       style="fill:#000000;fill-opacity:1;stroke-width:0.586483"
       d="m 257.04493,616.29431 -0.009,-21.71038 c -53.44778,-0.35611 -117.49766,0.31862 -170.945674,0.5468 -0.142387,-42.46393 -0.527842,-84.92556 -1.195401,-127.38453 -14.048026,0.59277 -28.080446,-0.0159 -42.11153,-0.72728 0.281051,-70.88346 -0.283662,-141.76162 0.106704,-212.64456 13.725802,0.44976 28.354077,0.88641 42.088381,0.57438 0.01882,-56.75649 0.496505,-113.50938 1.352324,-170.25929 57.052566,0.280085 114.104826,0.251848 171.156686,-0.161099 -0.1507,-13.913561 0.0233,-27.824393 0.37433,-41.733737 h 210.54749 c 0.32765,13.603091 0.52104,27.208028 0.56399,40.815035 42.88191,-0.595961 85.7628,-0.439396 128.64301,0.216547 0.22778,57.142324 0.58955,114.283804 1.08595,171.424434 13.8811,0.12812 29.06933,0.0174 42.41263,0.38708 l -0.0175,211.35184 c -14.19042,-0.0468 -28.47776,0.13539 -42.6563,0.20576 -0.69523,42.80697 -0.89672,85.61649 -0.65662,128.4283 -42.36446,-0.48736 -85.77533,-0.65206 -128.1418,-0.42861 l -0.24316,42.16399 c -70.78469,0.70578 -141.56955,0.71454 -212.35458,0.0486 -10e-6,-7.03779 -3e-5,-14.07557 -4e-5,-21.11336 z M 448.3692,339.70868 c 0.14519,-92.49894 0.29037,-184.99789 0.43556,-277.496829 -56.95446,0.289591 -113.90908,0.545075 -170.8638,0.777488 -0.29024,184.491821 -0.34931,368.983721 -0.17117,553.475691 56.63392,0.7552 113.27004,1.23189 169.90897,1.35065 0.23015,-92.70233 0.46029,-185.40467 0.69044,-278.107 z M 256.00041,521.69443 c -0.12991,-18.11428 -0.25981,-36.22855 -0.38972,-54.34283 -49.81196,0.50176 -99.62528,0.66176 -149.43957,0.577 0.73772,35.70254 1.17793,71.40884 1.35357,107.11851 49.44715,0.22774 98.89335,0.1629 148.33779,-0.44328 0.046,-17.63647 0.0919,-35.27293 0.13793,-52.9094 z m 320.68873,0.0874 c -0.17097,-17.83298 -0.34193,-35.66596 -0.5129,-53.49894 -35.20384,-0.44742 -70.40913,-0.70175 -105.61568,-0.78787 -0.25038,35.61291 -0.23044,71.22556 0.0949,106.83793 34.76292,0.14485 69.52556,0.33623 104.2877,0.61328 0.58201,-17.72147 1.16401,-35.44293 1.74602,-53.1644 z m -321.3437,-160.46076 1.167,-86.13423 c -64.01311,0.62821 -128.02744,0.78667 -192.042938,0.49752 -0.389178,56.61901 -0.482992,113.23845 -0.254376,169.85836 58.992534,2.01981 117.989744,3.05853 177.000954,1.16583 14.31951,3.46819 12.62779,-4.30869 10.24559,-17.1246 -0.198,-22.75429 4.08177,-45.50859 3.88377,-68.26288 z m 363.40474,0.13209 c -0.0438,-28.76373 -0.0877,-57.52745 -0.13147,-86.29118 -49.29897,1.08679 -98.60346,1.25717 -147.9115,0.83916 -2.1753,55.97249 -2.57298,111.95324 -0.83847,167.9439 4.31513,6.28684 19.9767,1.07139 28.74079,2.84816 40.09746,0.2588 80.19538,0.15223 120.29325,0.0821 -0.0509,-28.47404 -0.10173,-56.94808 -0.1526,-85.42212 z M 256.86131,179.79564 c -0.0348,-24.6658 -0.0695,-49.33161 -0.10425,-73.99741 -49.88031,-0.61965 -99.7583,-0.43022 -149.6343,0.44921 -0.0555,49.49999 0.10526,98.99931 0.46216,148.49803 49.28087,-0.20581 98.56187,-0.28909 147.8431,-0.18144 0.47776,-24.9228 0.95553,-49.84559 1.43329,-74.76839 z m 319.77759,0.0232 c -0.27742,-24.91449 -0.55485,-49.82899 -0.83227,-74.74348 -35.39848,-0.21069 -70.79707,-0.40259 -106.19573,-0.57964 0.11747,49.88848 -0.0559,99.77585 -0.561,149.66197 36.07404,0.11078 72.14792,0.2566 108.22158,0.45703 z"
       id="path2"
       sodipodi:nodetypes="cccccccccccccccccccccscccccccccccccsccccsscccccccscccccsscccccccccccc" />
    <path
       style="fill:#c0c0c0;fill-opacity:1;stroke-width:0.5"
       d="m 279.12671,233.34485 v -41 h 2.90925 c 4.43454,0 7.65825,-1.18328 11.15756,-4.09543 4.07709,-3.39299 76.85235,-75.81197 96.68283,-96.209521 17.31487,-17.809988 17.25036,-17.719176 17.25036,-24.284121 v -3.41093 h 20 20 v 30.5 30.500002 h -3.48125 c -2.34052,0 -4.42496,0.35309 -6.36128,1.07756 -2.73239,1.02232 -5.73877,3.92556 -58.64376,56.63196 -30.67004,30.55491 -63.37475,63.05087 -72.67714,72.21324 -18.24586,17.97123 -19.64543,19.06245 -24.46157,19.07235 l -2.375,0.005 z"
       id="path41" />
    <path
       style="fill:#c0c0c0;fill-opacity:1;stroke-width:0.5"
       d="m 279.12671,233.39177 v -41.04692 l 3.625,-4e-4 c 7.09002,-7.7e-4 5.5643,1.26907 43.72269,-36.38996 29.3682,-28.98388 66.47418,-66.404636 74.47783,-75.109642 3.1782,-3.456706 6.23301,-7.916894 6.13449,-8.95668 -0.0413,-0.436326 -0.0493,-2.31207 -0.0176,-4.16832 l 0.0576,-3.375 h 20 20 v 30.5 30.500002 h -3.56699 c -4.79829,0 -7.03931,0.76266 -9.80267,3.33602 -1.27807,1.19019 -2.47113,2.16398 -2.65126,2.16398 -0.18014,0 -30.11787,29.61884 -66.5283,65.81964 -36.41043,36.20081 -68.53402,67.93501 -71.38576,70.52044 -5.81888,5.27549 -7.65733,6.38393 -11.44002,6.89742 l -2.625,0.35634 z"
       id="path42" />
    <path
       style="fill:#c0c0c0;fill-opacity:1;stroke-width:0.5"
       d="m 277.24259,126.54712 0.28052,-63.811088 64.05938,-0.542166 62.0743,-0.05195 3.76237,-0.04241 c 7.47138,4.268131 1.31272,14.859995 -12.77079,29.385425 -17.86543,18.426029 -88.19825,92.467119 -92.10791,95.711449 -3.12816,2.59582 -23.3564,10.61489 -23.38318,6.66354 l -2.37997,-1.27609 z"
       id="path43"
       sodipodi:nodetypes="cccccssscc" />
    <path
       style="fill:#c0c0c0;fill-opacity:1;stroke-width:0.5"
       d="m 323.04464,615.03824 c 0.12257,-1.44375 0.65046,-3.52015 1.17309,-4.61422 1.32482,-2.77338 18.07971,-19.99857 62.79632,-64.55896 49.49592,-49.323 51.03966,-50.79627 54.63572,-52.14173 1.55835,-0.58305 3.61242,-1.06009 4.5646,-1.06009 h 1.73125 v 62.5 62.5 H 385.3837 322.82179 Z"
       id="path44" />
    <path
       style="fill:#c0c0c0;fill-opacity:1;stroke-width:0.51836"
       d="m 468.59857,361.84229 -0.40899,-87.41987 78.62994,0.31124 h 75.6928 v 87.10863 87.10861 h -75.6928 l -78.31927,0.43665 z"
       id="path45"
       sodipodi:nodetypes="ccccccccc" />
    <path
       style="fill:none;fill-opacity:1;stroke-width:0.5"
       d="m 279.12671,329.66737 v -51.67749 l 3.45819,-0.28992 c 5.64229,-0.47303 7.32596,-1.21277 11.49904,-5.05224 2.08602,-1.91926 32.93027,-32.42361 68.54277,-67.78744 35.6125,-35.36383 67.23671,-66.673 70.27602,-69.57593 5.84394,-5.5817 8.25315,-6.9395 12.31305,-6.9395 h 1.91093 v 51.75 51.75 l -3.375,0.0219 c -3.85358,0.0251 -6.29114,0.76488 -9.23558,2.80308 -1.13221,0.78374 -33.18798,32.41247 -71.23503,70.28607 -38.04705,37.87359 -70.73985,70.20666 -72.65066,71.85124 -3.49596,3.00888 -6.8969,4.53767 -10.09448,4.53767 h -1.40925 z"
       id="path47" />
    <path
       style="fill:none;fill-opacity:1;stroke-width:0.5"
       d="m 279.12671,233.45447 v -40.98422 l 4.19833,-0.22036 c 3.67512,-0.19289 4.55894,-0.43438 7.09189,-1.9377 3.37915,-2.00554 26.67511,-24.73728 71.63919,-69.9041 30.60274,-30.740723 40.73751,-41.276827 43.30681,-45.021721 1.54636,-2.253909 1.6561,-2.758112 1.72316,-7.916521 l 0.0406,-3.125 h 20 20 v 30.5 30.500002 h -3.90183 c -6.50097,0 -6.91083,0.30327 -26.32681,19.48031 -9.33825,9.22333 -16.98825,16.92719 -17,17.11969 -0.0334,0.54773 -1.27136,1.65633 -1.27136,1.13853 0,-0.2538 -17.60625,17.1006 -39.125,38.56535 -43.74096,43.63119 -63.55527,63.17279 -68.37071,67.42971 -3.92093,3.46615 -5.92416,4.53489 -9.37929,5.00391 l -2.625,0.35634 z"
       id="path48" />
    <path
       style="fill:#ff0000;fill-opacity:1;stroke-width:0.5"
       d="m 276.9003,233.08882 10e-4,-40.52311 6.42346,-0.31582 c 3.67574,-0.18072 4.55894,-0.43438 7.09189,-1.9377 3.37915,-2.00554 26.67511,-24.73728 71.63919,-69.9041 30.60274,-30.740723 40.73751,-41.276827 43.30681,-45.021721 1.54636,-2.253909 1.6561,-2.758112 1.72316,-7.916521 l 0.39047,-5.406674 19.04826,-0.01915 22.32267,0.07901 -0.0333,32.683676 0.002,30.369151 -0.20868,2.62343 c -0.51551,6.4805 -2.53889,7.40831 -21.95487,26.58535 -9.33825,9.22333 -18.15834,14.972 -18.03534,15.12055 6.8029,8.21582 -5.85412,8.41469 -5.85412,7.89689 0,-0.2538 2.06246,21.87875 -39.54151,41.00363 -39.95973,18.36903 -60.78099,50.33973 -65.59643,54.59665 -3.92093,3.46615 -5.89838,5.20686 -9.37929,5.00391 l -11.41208,0.10993 z"
       id="path49"
       sodipodi:nodetypes="ccssssscccccssssssscc" />
    <path
       style="fill:#ffff00;fill-opacity:1;stroke-width:0.707107"
       d="m 277.51516,329.3631 0.12312,-52.3021 5.64485,0.36003 c 2.52593,0.16111 4.9052,-0.50401 6.70913,-1.42431 1.72567,-0.88037 30.32028,-28.81294 74.87507,-73.1415 39.64575,-39.44445 73.02692,-72.20521 74.18037,-72.80168 1.15344,-0.59646 3.40336,-1.29335 4.99982,-1.54864 l 4.50102,-0.55015 0.0135,51.34814 0.0847,52.13582 -0.31565,6.51233 c -0.10567,2.18006 -5.96267,3.99076 -7.28624,4.54378 -1.54085,0.6438 -22.86374,26.23946 -69.22148,72.36783 -40.86166,40.65948 -73.32179,66.65307 -74.67169,67.28921 -1.31551,0.61993 -10.30243,5.15346 -11.5035,4.28325 l -8.23783,-1.4481 z"
       id="path50"
       sodipodi:nodetypes="ccssssscccssssscc" />
    <path
       style="fill:#00ff00;fill-opacity:1;stroke-width:0.707107"
       d="m 277.2387,424.97764 0.079,-41.20003 5.76048,0.40106 c 2.04763,-0.009 4.98064,-0.59203 6.54074,-1.30116 1.98052,-0.90022 24.5077,-22.84759 75.14573,-73.21159 73.72742,-73.32845 75.10995,-74.61474 80.24098,-74.65572 l 3.61351,0.20951 -0.0341,41.09551 0.17798,40.74515 -0.44275,5.11057 c -0.63731,7.35641 -2.82585,-1.7909 -58.40047,53.47248 -102.39053,101.81709 -92.39666,95.63892 -98.10733,95.51221 l -14.54969,-0.34348 z"
       id="path51"
       sodipodi:nodetypes="cccssscccssscc" />
    <path
       style="fill:#00ffff;fill-opacity:1;stroke-width:0.707107"
       d="m 277.43458,510.55883 -0.11166,-41.08576 4.96608,0.28103 c 7.37176,0.41716 4.67989,2.38067 61.77711,-54.39695 79.49988,-79.05487 91.05182,-90.43062 93.86093,-92.42933 1.479,-1.05232 3.94282,-1.98455 5.79758,-2.19361 l 4.8633,-0.18217 0.20418,41.25904 -0.2391,40.97613 -0.0345,4.49586 c -2.06236,0.009 -6.6964,1.56856 -8.28665,2.29089 -2.02687,0.92066 -20.89672,20.71163 -72.08429,71.63314 -73.67582,73.29287 -76.1875,74.92707 -81.30087,74.61561 l -9.60121,1.98609 z"
       id="path52"
       sodipodi:nodetypes="ccssssccccssscc" />
    <path
       style="fill:#0000ff;fill-opacity:1;stroke-width:0.707107"
       d="m 277.61653,584.84746 c -0.1691,-10.07721 -0.0846,-18.43635 -0.0148,-28.51474 8.08427,0.84982 16.70647,-3.20459 21.83799,-8.92829 47.03517,-45.55044 92.57795,-92.63328 140.04248,-137.74039 3.43435,-1.95311 10.71988,-4.87932 8.65331,1.74116 -0.10154,27.10713 -0.10106,54.21437 -0.0735,81.32163 -9.94202,0.30664 -15.40439,9.94195 -22.37401,15.65346 -31.88935,31.59164 -63.71447,63.2606 -95.14925,95.30173 -4.16571,3.75519 -5.49049,9.27068 -7.62784,14.2194 -14.32415,0.005 -31.19934,0.0744 -45.52225,0.26941 l 0.26549,-31.08303 z"
       id="path53"
       sodipodi:nodetypes="sccccccccccs" />
    <rect
       style="fill:#ffff00;fill-opacity:1;stroke-width:1.02893"
       id="rect1"
       width="132.55225"
       height="135.06255"
       x="124.3284"
       y="119.33778"
       ry="0" />
    <rect
       style="fill:#ffff00;fill-opacity:1;stroke-width:1.02321"
       id="rect2"
       width="87.653168"
       height="135.67593"
       x="468.55774"
       y="119.5209" />
    <rect
       style="fill:#ffff00;fill-opacity:1"
       id="rect3"
       width="2.6620083"
       height="0.42070782"
       x="506.30811"
       y="184.34274" />
    <rect
       style="fill:#ffff00;fill-opacity:1;stroke-width:1.7081"
       id="rect4"
       width="88.751282"
       height="92.663376"
       x="470.4801"
       y="467.14706"
       ry="0"
       rx="0" />
    <rect
       style="fill:#ffff00;fill-opacity:1"
       id="rect5"
       width="5.9988408"
       height="1.0235008"
       x="492.06567"
       y="503.84644" />
    <rect
       style="fill:#ffff00;fill-opacity:1"
       id="rect6"
       width="2.1775987"
       height="1.5063134"
       x="492.96457"
       y="481.08124" />
    <rect
       style="fill:#ffff00;fill-opacity:1;stroke-width:2.28005"
       id="rect7"
       width="128.17393"
       height="91.036324"
       x="127.86127"
       y="467.08905" />
    <rect
       style="fill:#c0c0c0;fill-opacity:1"
       id="rect8"
       width="22.044197"
       height="18.598171"
       x="105.86214"
       y="557.08356" />
    <rect
       style="fill:#c0c0c0;fill-opacity:1;stroke-width:1.03604"
       id="rect8-3"
       width="22.340134"
       height="19.721426"
       x="555.71027"
       y="104.15434" />
    <rect
       style="fill:#808080;fill-opacity:1"
       id="rect10"
       width="128.12231"
       height="18.325613"
       x="127.89343"
       y="557.34766"
       ry="0"
       rx="0" />
    <rect
       style="fill:#808080;fill-opacity:1"
       id="rect11"
       width="107.30872"
       height="16.71257"
       x="470.32031"
       y="558.79437"
       ry="0" />
    <rect
       style="fill:#808080;fill-opacity:1"
       id="rect12"
       width="20.606628"
       height="92.414261"
       x="556.9837"
       y="467.14578" />
    <rect
       style="fill:#808080;fill-opacity:1"
       id="rect13"
       width="22.59613"
       height="133.37941"
       x="555.68939"
       y="122.17364" />
    <rect
       style="fill:#ffffff;fill-opacity:1"
       id="rect14"
       width="22.15008"
       height="90.196129"
       x="105.87434"
       y="467.1636" />
    <rect
       style="fill:#ffffff;fill-opacity:1"
       id="rect15"
       width="0.011566443"
       height="3.3399508"
       x="115.58783"
       y="506.25391" />
    <rect
       style="fill:#ffffff;fill-opacity:1;stroke-width:1.0201"
       id="rect16"
       width="20.518188"
       height="149.34436"
       x="107.20342"
       y="105.42752" />
    <rect
       style="fill:#ffffff;fill-opacity:1;stroke-width:1.01582"
       id="rect17"
       width="150.06485"
       height="19.564308"
       x="107.05978"
       y="105.52651" />
    <rect
       style="fill:#ffffff;fill-opacity:1;stroke-width:1.03097"
       id="rect18"
       width="87.394821"
       height="18.410194"
       x="468.51627"
       y="104.07081" />
    <path
       style="fill:#c0c0c0;fill-opacity:1;stroke-width:0.595373"
       d="m 61.72729,361.9667 v -89.08 h 97.64515 97.64512 v 89.08 89.07997 H 159.37244 61.72729 Z"
       id="path45-1" />
  </g>
</svg>
