<?xml version="1.0" encoding="UTF-8" standalone="no"?>
<svg
   xmlns:dc="http://purl.org/dc/elements/1.1/"
   xmlns:cc="http://creativecommons.org/ns#"
   xmlns:rdf="http://www.w3.org/1999/02/22-rdf-syntax-ns#"
   xmlns:svg="http://www.w3.org/2000/svg"
   xmlns="http://www.w3.org/2000/svg"
   xmlns:sodipodi="http://sodipodi.sourceforge.net/DTD/sodipodi-0.dtd"
   xmlns:inkscape="http://www.inkscape.org/namespaces/inkscape"
   height="128px"
   viewBox="0 0 128 128"
   width="128px"
   version="1.1"
   id="svg75"
   sodipodi:docname="com.xilinx.Vivado.svg"
   inkscape:version="1.0.2 (e86c870879, 2021-01-15)">
  <metadata
     id="metadata81">
    <rdf:RDF>
      <cc:Work
         rdf:about="">
        <dc:format>image/svg+xml</dc:format>
        <dc:type
           rdf:resource="http://purl.org/dc/dcmitype/StillImage" />
      </cc:Work>
    </rdf:RDF>
  </metadata>
  <defs
     id="defs79" />
  <sodipodi:namedview
     pagecolor="#ffffff"
     bordercolor="#666666"
     borderopacity="1"
     objecttolerance="10"
     gridtolerance="10"
     guidetolerance="10"
     inkscape:pageopacity="0"
     inkscape:pageshadow="2"
     inkscape:window-width="1920"
     inkscape:window-height="1016"
     id="namedview77"
     showgrid="false"
     inkscape:zoom="1.6169876"
     inkscape:cx="241.67332"
     inkscape:cy="207.20581"
     inkscape:window-x="0"
     inkscape:window-y="0"
     inkscape:window-maximized="1"
     inkscape:current-layer="svg75" />
  <linearGradient
     id="a"
     gradientUnits="userSpaceOnUse"
     x1="64"
     x2="64"
     y1="262.5"
     y2="232">
    <stop
       offset="0"
       stop-color="#9a9996"
       id="stop2" />
    <stop
       offset="1"
       stop-color="#77767b"
       id="stop4" />
  </linearGradient>
  <radialGradient
     id="b"
     cx="-243.066583"
     cy="-74.599978"
     gradientUnits="userSpaceOnUse"
     r="28.266656">
    <stop
       offset="0"
       stop-color="#d5d3cf"
       id="stop7" />
    <stop
       offset="1"
       stop-color="#949390"
       id="stop9" />
  </radialGradient>
  <linearGradient
     id="c"
     gradientUnits="userSpaceOnUse"
     x1="203.999985"
     x2="267.999985"
     y1="-64"
     y2="-64">
    <stop
       offset="0"
       stop-color="#d5d3cf"
       id="stop12" />
    <stop
       offset="1"
       stop-color="#f6f5f4"
       id="stop14" />
  </linearGradient>
  <g
     stroke-width="8"
     id="g65">
    <path
       d="m 67 122 h -6 l -2 -16 h 10 z m 0 0"
       fill="#9a9996"
       stroke="#9a9996"
       stroke-linecap="round"
       stroke-linejoin="round"
       id="path17" />
    <path
       d="m 61 10 h 6 l 2 16 h -10 z m 0 0"
       fill="#9a9996"
       stroke="#9a9996"
       stroke-linecap="round"
       stroke-linejoin="round"
       id="path19" />
    <path
       d="m 667.000092 291.999908 h -6 l -2 -16 h 10 z m 0 0"
       fill="#9a9996"
       stroke="#9a9996"
       stroke-linecap="round"
       stroke-linejoin="round"
       transform="matrix(0 1 -1 0 299.999908 -598.000092)"
       id="path21" />
    <path
       d="m 661.000092 179.999908 h 6 l 2 16 h -10 z m 0 0"
       fill="#9a9996"
       stroke="#9a9996"
       stroke-linecap="round"
       stroke-linejoin="round"
       transform="matrix(0 1 -1 0 299.999908 -598.000092)"
       id="path23" />
    <path
       d="m 666.999051 291.998922 l -5.999272 -0.00042 l -2.001544 -15.998026 l 9.999915 0.000049 z m 0 0"
       fill="#9a9996"
       stroke="#9a9996"
       stroke-linecap="round"
       stroke-linejoin="round"
       transform="matrix(-0.5 0.866025 -0.866025 -0.5 600.381916 -391.041005)"
       id="path25" />
    <path
       d="m 661.001107 180.000804 l 5.999273 0.000419 l 2.001544 15.998026 l -10.003298 0.001905 z m 0 0"
       fill="#9a9996"
       stroke="#9a9996"
       stroke-linecap="round"
       stroke-linejoin="round"
       transform="matrix(-0.5 0.866025 -0.866025 -0.5 600.381916 -391.041005)"
       id="path27" />
    <path
       d="m 667.000347 291.998468 l -5.999273 0.00042 l -2.002482 -16.00035 l 10.003298 0.001905 z m 0 0"
       fill="#9a9996"
       stroke="#9a9996"
       stroke-linecap="round"
       stroke-linejoin="round"
       transform="matrix(-0.866025 0.5 -0.5 -0.866025 757.040822 -61.618176)"
       id="path29" />
    <path
       d="m 660.999745 180.00119 l 5.999273 -0.00042 l 2.002481 16.00035 l -10.003298 -0.001904 z m 0 0"
       fill="#9a9996"
       stroke="#9a9996"
       stroke-linecap="round"
       stroke-linejoin="round"
       transform="matrix(-0.866025 0.5 -0.5 -0.866025 757.040822 -61.618176)"
       id="path31" />
    <path
       d="m 666.999018 291.999047 l -5.999273 -0.00042 l -2.001544 -15.998026 l 10.003298 -0.001904 z m 0 0"
       fill="#9a9996"
       stroke="#9a9996"
       stroke-linecap="round"
       stroke-linejoin="round"
       transform="matrix(0.866025 0.5 -0.5 0.866025 -393.040914 -470.382008)"
       id="path33" />
    <path
       d="m 661.001074 180.000929 l 5.999273 0.00042 l 2.001543 15.998025 l -10.003298 0.001905 z m 0 0"
       fill="#9a9996"
       stroke="#9a9996"
       stroke-linecap="round"
       stroke-linejoin="round"
       transform="matrix(0.866025 0.5 -0.5 0.866025 -393.040914 -470.382008)"
       id="path35" />
    <path
       d="m 667.00038 291.998593 l -5.999273 0.00042 l -2.002481 -16.00035 l 10.003298 0.001905 z m 0 0"
       fill="#9a9996"
       stroke="#9a9996"
       stroke-linecap="round"
       stroke-linejoin="round"
       transform="matrix(0.5 0.866025 -0.866025 0.5 -63.618084 -627.040914)"
       id="path37" />
    <path
       d="m 660.999779 180.001315 l 5.999272 -0.00042 l 1.999099 15.998397 l -9.999915 0.000049 z m 0 0"
       fill="#9a9996"
       stroke="#9a9996"
       stroke-linecap="round"
       stroke-linejoin="round"
       transform="matrix(0.5 0.866025 -0.866025 0.5 -63.618084 -627.040914)"
       id="path39" />
    <path
       d="m 67 120 h -6 l -2 -16 h 10 z m 0 0"
       fill="#f6f5f4"
       stroke="#f6f5f4"
       stroke-linecap="round"
       stroke-linejoin="round"
       id="path41" />
    <path
       d="m 61 8 h 6 l 2 16 h -10 z m 0 0"
       fill="#f6f5f4"
       stroke="#f6f5f4"
       stroke-linecap="round"
       stroke-linejoin="round"
       id="path43" />
    <path
       d="m 667.000092 291.999908 h -6 l -2 -16 h 10 z m 0 0"
       fill="#f6f5f4"
       stroke="#f6f5f4"
       stroke-linecap="round"
       stroke-linejoin="round"
       transform="matrix(0 1 -1 0 299.999908 -600.000092)"
       id="path45" />
    <path
       d="m 661.000092 179.999908 h 6 l 2 16 h -10 z m 0 0"
       fill="#f6f5f4"
       stroke="#f6f5f4"
       stroke-linecap="round"
       stroke-linejoin="round"
       transform="matrix(0 1 -1 0 299.999908 -600.000092)"
       id="path47" />
    <path
       d="m 666.999051 291.998922 l -5.999272 -0.00042 l -2.001544 -15.998026 l 9.999915 0.000049 z m 0 0"
       fill="#f6f5f4"
       stroke="#f6f5f4"
       stroke-linecap="round"
       stroke-linejoin="round"
       transform="matrix(-0.5 0.866025 -0.866025 -0.5 600.381916 -393.041005)"
       id="path49" />
    <path
       d="m 661.001107 180.000804 l 5.999273 0.000419 l 2.001544 15.998026 l -10.003298 0.001905 z m 0 0"
       fill="#f6f5f4"
       stroke="#f6f5f4"
       stroke-linecap="round"
       stroke-linejoin="round"
       transform="matrix(-0.5 0.866025 -0.866025 -0.5 600.381916 -393.041005)"
       id="path51" />
    <path
       d="m 667.000347 291.998468 l -5.999273 0.00042 l -2.002482 -16.00035 l 10.003298 0.001905 z m 0 0"
       fill="#f6f5f4"
       stroke="#f6f5f4"
       stroke-linecap="round"
       stroke-linejoin="round"
       transform="matrix(-0.866025 0.5 -0.5 -0.866025 757.040822 -63.618176)"
       id="path53" />
    <path
       d="m 660.999745 180.00119 l 5.999273 -0.00042 l 2.002481 16.00035 l -10.003298 -0.001904 z m 0 0"
       fill="#f6f5f4"
       stroke="#f6f5f4"
       stroke-linecap="round"
       stroke-linejoin="round"
       transform="matrix(-0.866025 0.5 -0.5 -0.866025 757.040822 -63.618176)"
       id="path55" />
    <path
       d="m 666.999018 291.999047 l -5.999273 -0.00042 l -2.001544 -15.998026 l 10.003298 -0.001904 z m 0 0"
       fill="#f6f5f4"
       stroke="#f6f5f4"
       stroke-linecap="round"
       stroke-linejoin="round"
       transform="matrix(0.866025 0.5 -0.5 0.866025 -393.040914 -472.382008)"
       id="path57" />
    <path
       d="m 661.001074 180.000929 l 5.999273 0.00042 l 2.001543 15.998025 l -10.003298 0.001905 z m 0 0"
       fill="#f6f5f4"
       stroke="#f6f5f4"
       stroke-linecap="round"
       stroke-linejoin="round"
       transform="matrix(0.866025 0.5 -0.5 0.866025 -393.040914 -472.382008)"
       id="path59" />
    <path
       d="m 667.00038 291.998593 l -5.999273 0.00042 l -2.002481 -16.00035 l 10.003298 0.001905 z m 0 0"
       fill="#f6f5f4"
       stroke="#f6f5f4"
       stroke-linecap="round"
       stroke-linejoin="round"
       transform="matrix(0.5 0.866025 -0.866025 0.5 -63.618084 -629.040914)"
       id="path61" />
    <path
       d="m 660.999779 180.001315 l 5.999272 -0.00042 l 1.999099 15.998397 l -9.999915 0.000049 z m 0 0"
       fill="#f6f5f4"
       stroke="#f6f5f4"
       stroke-linecap="round"
       stroke-linejoin="round"
       transform="matrix(0.5 0.866025 -0.866025 0.5 -63.618084 -629.040914)"
       id="path63" />
  </g>
  <path
     d="m 100 238 c 0 19.882812 -16.117188 36 -36 36 s -36 -16.117188 -36 -36 s 16.117188 -36 36 -36 s 36 16.117188 36 36 z m 0 0"
     fill="none"
     stroke="url(#a)"
     stroke-width="24"
     transform="matrix(1 0 0 1 0 -172)"
     id="path67" />
  <path
     d="m 102 64 c 0 20.988281 -17.011719 38 -38 38 s -38 -17.011719 -38 -38 s 17.011719 -38 38 -38 s 38 17.011719 38 38 z m 0 0"
     fill="none"
     stroke="#f6f5f4"
     stroke-width="20"
     id="path69" />
  <path
     d="m -209.5 -64 c 0 14.636719 -11.863281 26.5 -26.5 26.5 s -26.5 -11.863281 -26.5 -26.5 s 11.863281 -26.5 26.5 -26.5 s 26.5 11.863281 26.5 26.5 z m 0 0"
     fill="none"
     stroke="url(#b)"
     stroke-linecap="square"
     stroke-linejoin="round"
     stroke-width="5"
     transform="matrix(0 -1 -1 0 0 -172)"
     id="path71" />
  <path
     d="m 268 -64 c 0 17.671875 -14.328125 32 -32 32 s -32 -14.328125 -32 -32 s 14.328125 -32 32 -32 s 32 14.328125 32 32 z m 0 0"
     fill="none"
     stroke="url(#c)"
     stroke-linecap="square"
     stroke-linejoin="round"
     stroke-width="8"
     transform="matrix(0 1 -1 0 0 -172)"
     id="path73" />
  <text
     xml:space="preserve"
     style="font-style:normal;font-weight:normal;font-size:40px;line-height:1.25;font-family:sans-serif;fill:#ff0000;fill-opacity:1;stroke:none;"
     x="6.0800781"
     y="78.560547"
     id="text85"><tspan
       sodipodi:role="line"
       id="tspan83"
       x="6.0800781"
       y="78.560547">TODO</tspan></text>
</svg>
