<svg xmlns="http://www.w3.org/2000/svg" width="128" height="128" viewBox="0 0 128 128">
  <defs>
    <linearGradient id="bg" x1="16" y1="12" x2="112" y2="116" gradientUnits="userSpaceOnUse">
      <stop offset="0" stop-color="#0f172a"/>
      <stop offset="1" stop-color="#1f2937"/>
    </linearGradient>
    <linearGradient id="accent" x1="28" y1="24" x2="100" y2="104" gradientUnits="userSpaceOnUse">
      <stop offset="0" stop-color="#22d3ee"/>
      <stop offset="1" stop-color="#14b8a6"/>
    </linearGradient>
  </defs>
  <rect x="10" y="10" width="108" height="108" rx="28" fill="url(#bg)"/>
  <circle cx="64" cy="64" r="28" fill="none" stroke="url(#accent)" stroke-width="8"/>
  <circle cx="64" cy="64" r="7" fill="#e5e7eb"/>
  <path d="M64 22v14M64 92v14M22 64h14M92 64h14" stroke="#93c5fd" stroke-width="6" stroke-linecap="round"/>
  <path d="M44 44l-14-14M84 44l14-14M44 84l-14 14M84 84l14 14" stroke="#22d3ee" stroke-width="5" stroke-linecap="round" opacity="0.9"/>
  <circle cx="30" cy="30" r="8" fill="#0f172a" stroke="#22d3ee" stroke-width="4"/>
  <circle cx="98" cy="30" r="8" fill="#0f172a" stroke="#22d3ee" stroke-width="4"/>
  <circle cx="30" cy="98" r="8" fill="#0f172a" stroke="#22d3ee" stroke-width="4"/>
  <circle cx="98" cy="98" r="8" fill="#0f172a" stroke="#22d3ee" stroke-width="4"/>
</svg>
