<?xml version="1.0" encoding="UTF-8" standalone="no"?>
<!-- Created with Inkscape (http://www.inkscape.org/) -->

<svg
   width="920"
   height="920"
   viewBox="0 0 243.41666 243.41667"
   version="1.1"
   id="svg48"
   inkscape:version="1.1 (c4e8f9ed74, 2021-05-24)"
   sodipodi:docname="myfluttercrypto.svg"
   inkscape:export-filename="/home/tglima/logoMyfluttercrypto.png"
   inkscape:export-xdpi="109.23"
   inkscape:export-ydpi="109.23"
   xmlns:inkscape="http://www.inkscape.org/namespaces/inkscape"
   xmlns:sodipodi="http://sodipodi.sourceforge.net/DTD/sodipodi-0.dtd"
   xmlns="http://www.w3.org/2000/svg"
   xmlns:svg="http://www.w3.org/2000/svg">
  <sodipodi:namedview
     id="namedview50"
     pagecolor="#505050"
     bordercolor="#eeeeee"
     borderopacity="1"
     inkscape:pageshadow="0"
     inkscape:pageopacity="0"
     inkscape:pagecheckerboard="0"
     inkscape:document-units="mm"
     showgrid="false"
     units="px"
     fit-margin-top="10"
     fit-margin-left="10"
     fit-margin-right="10"
     fit-margin-bottom="10"
     lock-margins="true"
     inkscape:zoom="0.64"
     inkscape:cx="1030.4688"
     inkscape:cy="352.34375"
     inkscape:window-width="1366"
     inkscape:window-height="714"
     inkscape:window-x="0"
     inkscape:window-y="24"
     inkscape:window-maximized="1"
     inkscape:current-layer="layer1" />
  <defs
     id="defs45" />
  <g
     inkscape:label="Camada 1"
     inkscape:groupmode="layer"
     id="layer1"
     transform="translate(16.708333,-26.791667)">
    <g
       id="g382"
       transform="matrix(0.33761034,0,0,0.33761034,28.784602,156.72301)" />
    <g
       id="g384"
       transform="matrix(0.33761034,0,0,0.33761034,28.784602,156.72301)" />
    <g
       id="g386"
       transform="matrix(0.33761034,0,0,0.33761034,28.784602,156.72301)" />
    <g
       id="g388"
       transform="matrix(0.33761034,0,0,0.33761034,28.784602,156.72301)" />
    <g
       id="g390"
       transform="matrix(0.33761034,0,0,0.33761034,28.784602,156.72301)" />
    <g
       id="g392"
       transform="matrix(0.33761034,0,0,0.33761034,28.784602,156.72301)" />
    <g
       id="g394"
       transform="matrix(0.33761034,0,0,0.33761034,28.784602,156.72301)" />
    <g
       id="g396"
       transform="matrix(0.33761034,0,0,0.33761034,28.784602,156.72301)" />
    <g
       id="g398"
       transform="matrix(0.33761034,0,0,0.33761034,28.784602,156.72301)" />
    <g
       id="g400"
       transform="matrix(0.33761034,0,0,0.33761034,28.784602,156.72301)" />
    <g
       id="g402"
       transform="matrix(0.33761034,0,0,0.33761034,28.784602,156.72301)" />
    <g
       id="g404"
       transform="matrix(0.33761034,0,0,0.33761034,28.784602,156.72301)" />
    <g
       id="g406"
       transform="matrix(0.33761034,0,0,0.33761034,28.784602,156.72301)" />
    <g
       id="g408"
       transform="matrix(0.33761034,0,0,0.33761034,28.784602,156.72301)" />
    <g
       id="g410"
       transform="matrix(0.33761034,0,0,0.33761034,28.784602,156.72301)" />
    <rect
       style="fill:#f2f2f2;stroke-width:0.264583"
       id="rect20846"
       width="238.125"
       height="238.125"
       x="-14.0625"
       y="29.4375"
       ry="13.772891" />
    <text
       xml:space="preserve"
       style="font-style:normal;font-weight:normal;font-size:10.5833px;line-height:1.25;font-family:sans-serif;fill:#000000;fill-opacity:1;stroke:none;stroke-width:0.264583"
       x="5.7273331"
       y="53.128708"
       id="text3415"><tspan
         sodipodi:role="line"
         id="tspan3413"
         style="stroke-width:0.264583"
         x="5.7273331"
         y="53.128708" /></text>
    <g
       id="g29926"
       transform="translate(-7.5340285e-8,12.271205)">
      <g
         id="g14286"
         transform="matrix(0.77421562,0,0,0.77421562,60.53215,72.714363)"
         style="fill:#ffffff">
        <g
           id="g14232"
           style="fill:#ffffff">
          <g
             id="g20746">
            <circle
               style="fill:#0000ff;fill-opacity:1;stroke-width:0.197454"
               id="path14382"
               cx="73.003654"
               cy="185.52341"
               r="135.26042"
               transform="matrix(0.62752643,0,0,0.62752643,11.624279,-58.984844)" />
            <path
               d="m 97.856,49.821 c 0.426,-2.44 0.661,-4.95 0.661,-7.516 C 98.517,18.979 80.088,0 57.436,0 34.783,0 16.353,18.979 16.353,42.305 c 0,2.566 0.236,5.074 0.663,7.516 -3.567,2.278 -5.939,6.261 -5.939,10.81 v 41.415 c 0,7.084 5.743,12.826 12.825,12.826 h 67.067 c 7.08,0 12.822,-5.742 12.822,-12.826 h 0.004 V 60.631 c 0,-4.548 -2.37,-8.532 -5.939,-10.81 z M 63.095,85.983 v 9 c 0,3.128 -2.534,5.662 -5.661,5.662 -3.127,0 -5.661,-2.534 -5.661,-5.662 v -9.004 c -3.631,-2.001 -6.094,-5.862 -6.094,-10.302 0,-6.492 5.263,-11.756 11.757,-11.756 6.494,0 11.758,5.264 11.758,11.756 0,4.442 -2.465,8.306 -6.099,10.306 z M 82.886,47.804 H 31.985 c -0.349,-1.775 -0.535,-3.616 -0.535,-5.499 0,-15.003 11.657,-27.208 25.986,-27.208 14.328,0 25.984,12.204 25.984,27.208 0,1.883 -0.184,3.724 -0.534,5.499 z"
               id="path14230"
               style="fill:#ffffff" />
          </g>
        </g>
        <g
           id="g14234"
           style="fill:#ffffff" />
        <g
           id="g14236"
           style="fill:#ffffff" />
        <g
           id="g14238"
           style="fill:#ffffff" />
        <g
           id="g14240"
           style="fill:#ffffff" />
        <g
           id="g14242"
           style="fill:#ffffff" />
        <g
           id="g14244"
           style="fill:#ffffff" />
        <g
           id="g14246"
           style="fill:#ffffff" />
        <g
           id="g14248"
           style="fill:#ffffff" />
        <g
           id="g14250"
           style="fill:#ffffff" />
        <g
           id="g14252"
           style="fill:#ffffff" />
        <g
           id="g14254"
           style="fill:#ffffff" />
        <g
           id="g14256"
           style="fill:#ffffff" />
        <g
           id="g14258"
           style="fill:#ffffff" />
        <g
           id="g14260"
           style="fill:#ffffff" />
        <g
           id="g14262"
           style="fill:#ffffff" />
      </g>
      <text
         xml:space="preserve"
         style="font-style:normal;font-weight:normal;font-size:28.2823px;line-height:1.25;font-family:sans-serif;fill:#000000;fill-opacity:1;stroke:none;stroke-width:0.79525"
         x="-7.0683918"
         y="215.13597"
         id="text5765"><tspan
           sodipodi:role="line"
           id="tspan5763"
           style="font-style:normal;font-variant:normal;font-weight:normal;font-stretch:normal;font-size:28.2823px;font-family:HelveticaRounded;-inkscape-font-specification:HelveticaRounded;stroke-width:0.79525"
           x="-7.0683918"
           y="215.13597">MyFlutter<tspan
   style="font-size:28.2823px;fill:#800000;stroke-width:0.79525"
   id="tspan23136">Crypto</tspan></tspan></text>
    </g>
  </g>
</svg>
