<svg xmlns="http://www.w3.org/2000/svg" width="16" height="16" viewBox="0 0 16 16"><path fill="#33d17a" d="M5 5v8h4v-3h1V9c0-.465.512-1 1-1V5zm0 0"/><path fill="#2e3434" d="M7 0C6 0 6 1 6 1v1H5s-.707-.016-1.45.355C2.814 2.727 2 3.668 2 5v8s-.016.707.355 1.45C2.727 15.187 3.668 16 5 16c0 0 5.86.047 6 0v-1c-.676 0-1.422-.465-1.7-1H5c-.555 0-1-.445-1-1V5c0-.555.445-1 1-1h6c.555 0 1 .445 1 1v3h2V5c0-1.332-.812-2.273-1.55-2.645C11.706 1.985 11 2 11 2h-1V1c0-1-1-1-1-1zm4.5 9c-.277 0-.5.223-.5.5V11h-1v1.5c0 .832.668 1.5 1.5 1.5h.5v1c0 .555.445 1 1 1s1-.445 1-1v-1h.5c.832 0 1.5-.668 1.5-1.5V11h-1V9.5a.499.499 0 1 0-1 0V11h-2V9.5c0-.277-.223-.5-.5-.5m0 0"/></svg>