<svg xmlns="http://www.w3.org/2000/svg" width="16" height="16.021" viewBox="0 0 16 16.021"><title>Gnome Symbolic Icon Theme</title><g style="display:inline" transform="translate(-682 -180)"><title>battery-level-70-plugged-in</title><path d="M687 188v5h4v-3h1v-1c0-.509.5-1 1-1z" class="success" style="fill:#33d17a;fill-opacity:1"/><path d="M689 180c-1 0-1 1-1 1v1h-1s-.709-.014-1.447.355c-.739.37-1.553 1.311-1.553 2.645v8s-.014.709.355 1.447c.37.739 1.312 1.553 2.645 1.553 0 0 5.86.047 6 0v-1c-.678 0-1.423-.466-1.7-1H687c-.554 0-1-.446-1-1v-8c0-.554.446-1 1-1h6c.554 0 1 .446 1 1v3h2v-3c0-1.334-.814-2.275-1.553-2.645C693.71 181.986 693 182 693 182h-1v-1c0-1-1-1-1-1zm4.5 9c-.277 0-.5.223-.5.5v1.5h-1v1.5c0 .831.669 1.5 1.5 1.5h.5v1c0 .554.446 1 1 1s1-.446 1-1v-1h.5c.831 0 1.5-.669 1.5-1.5V191h-1v-1.5a.499.499 0 1 0-1 0v1.5h-2v-1.5c0-.277-.223-.5-.5-.5" style="fill:#2e3434;fill-opacity:1"/></g></svg>