<svg version="1.1" id="Layer_1" xmlns="http://www.w3.org/2000/svg" x="0" y="0" viewBox="0 0 1024 1024" xml:space="preserve"><style></style><path d="M512.01 330.65c-3.09 3.23-6.22 6.45-9.39 9.62-48.07 48.07-103.07 87.12-163.83 116.36 8.71 16.24 16.7 32.9 23.94 50 20.75 49.06 34.72 100.12 41.78 152.52 35.28-6.4 71.24-9.63 107.67-9.63 36.42 0 72.37 3.23 107.65 9.63 7.06-52.41 21.03-103.47 41.78-152.55a600.38 600.38 0 0123.86-49.86c-60.85-29.26-115.93-68.35-164.06-116.48-3.19-3.17-6.31-6.38-9.4-9.61z" fill="none"/><linearGradient id="SVGID_1_" gradientUnits="userSpaceOnUse" x1="236.562" y1="844.79" x2="462.065" y2="831.328"><stop offset="0" stop-opacity=".8"/><stop offset="1" stop-color="#007eff"/></linearGradient><path d="M351.39 998.64c46.4-29.89 101.6-47.24 160.77-47.24 59.18 0 114.37 17.36 160.77 47.25l252.8-183.67c-52.64-50.2-113.18-89.95-180.14-118.27-40.68-17.21-82.73-29.74-125.79-37.55-35.28-6.4-71.22-9.63-107.65-9.63-36.43 0-72.39 3.23-107.67 9.63 3.59 26.65 5.4 53.65 5.4 80.92 0 80.88-15.87 159.42-47.18 233.44-3.57 8.47-7.36 16.85-11.31 25.12z" fill="url(#SVGID_1_)"/><linearGradient id="SVGID_2_" gradientUnits="userSpaceOnUse" x1="83.835" y1="271.969" x2="202.047" y2="584.529"><stop offset="0" stop-opacity=".8"/><stop offset="1" stop-color="#00a4ee"/></linearGradient><path d="M404.5 659.15c-7.06-52.4-21.02-103.45-41.78-152.52a600.677 600.677 0 00-23.94-50 599.88 599.88 0 01-26.71 12.07c-74.02 31.31-152.56 47.18-233.44 47.18-26.49 0-52.72-1.71-78.63-5.1 65.94 54.65 108.02 137.15 108.02 229.29 0 25.84-3.21 50.99-9.43 74.9l252.8 183.67c3.95-8.28 7.74-16.65 11.33-25.13 31.31-74.02 47.18-152.56 47.18-233.44 0-27.26-1.81-54.26-5.4-80.92z" fill="url(#SVGID_2_)"/><linearGradient id="SVGID_3_" gradientUnits="userSpaceOnUse" x1="570.163" y1="53.032" x2="366.149" y2="223.043"><stop offset="0" stop-opacity=".8"/><stop offset="1" stop-color="#ffd800"/></linearGradient><path d="M392.96 149.73c-17.02-40.24-29.47-81.81-37.29-124.37-41.51 105.07-141.15 181.03-259.06 188.09L0 510.79c25.91 3.39 52.15 5.1 78.63 5.1 80.88 0 159.42-15.87 233.44-47.18a606.22 606.22 0 0026.71-12.07c60.76-29.25 115.76-68.3 163.83-116.36 3.17-3.17 6.3-6.39 9.39-9.62-50.55-52.83-90.58-113.63-119.04-180.93z" fill="url(#SVGID_3_)"/><linearGradient id="SVGID_4_" gradientUnits="userSpaceOnUse" x1="925.254" y1="407.637" x2="739.276" y2="285.283"><stop offset="0" stop-opacity=".8"/><stop offset="1" stop-color="#ff3500"/></linearGradient><path d="M668.34 25.36H355.66c7.83 42.56 20.27 84.13 37.29 124.37 28.47 67.3 68.49 128.1 119.05 180.93 3.09 3.23 6.22 6.44 9.39 9.61 48.13 48.13 103.21 87.22 164.06 116.48 27.67-51.64 62.69-98.8 104.58-140.68 41.05-41.06 86.92-75.2 137.36-102.61-117.9-7.07-217.54-83.04-259.05-188.1z" fill="url(#SVGID_4_)"/><linearGradient id="SVGID_5_" gradientUnits="userSpaceOnUse" x1="740.877" y1="846.704" x2="793.499" y2="668.716"><stop offset="0" stop-opacity=".8"/><stop offset="1" stop-color="#00c900"/></linearGradient><path d="M1024 510.78l-96.61-297.33c-50.44 27.41-96.31 61.56-137.36 102.61-41.88 41.88-76.9 89.05-104.58 140.68a600.38 600.38 0 00-23.86 49.86c-20.76 49.07-34.72 100.14-41.78 152.55 43.05 7.81 85.1 20.34 125.79 37.55 66.96 28.32 127.49 68.08 180.14 118.27-6.22-23.93-9.45-49.09-9.45-74.94 0-92.15 41.75-174.6 107.71-229.25z" fill="url(#SVGID_5_)"/></svg>
