<?xml version="1.0" encoding="UTF-8" standalone="no"?>
<!-- Created with Inkscape (http://www.inkscape.org/) -->

<svg
   xmlns:dc="http://purl.org/dc/elements/1.1/"
   xmlns:cc="http://creativecommons.org/ns#"
   xmlns:rdf="http://www.w3.org/1999/02/22-rdf-syntax-ns#"
   xmlns:svg="http://www.w3.org/2000/svg"
   xmlns="http://www.w3.org/2000/svg"
   xmlns:sodipodi="http://sodipodi.sourceforge.net/DTD/sodipodi-0.dtd"
   xmlns:inkscape="http://www.inkscape.org/namespaces/inkscape"
   version="1.1"
   id="svg2"
   xml:space="preserve"
   width="16"
   height="16"
   viewBox="0 0 16 16"
   sodipodi:docname="headset-symbolic.svg"
   inkscape:version="0.92.5 (2060ec1f9f, 2020-04-08)"><metadata
     id="metadata8"><rdf:RDF><cc:Work
         rdf:about=""><dc:format>image/svg+xml</dc:format><dc:type
           rdf:resource="http://purl.org/dc/dcmitype/StillImage" /><dc:title></dc:title></cc:Work></rdf:RDF></metadata><defs
     id="defs6"><clipPath
       clipPathUnits="userSpaceOnUse"
       id="clipPath18"><path
         d="M 0,22 H 22 V 0 H 0 Z"
         id="path16"
         inkscape:connector-curvature="0" /></clipPath></defs><sodipodi:namedview
     pagecolor="#ffffff"
     bordercolor="#666666"
     borderopacity="1"
     objecttolerance="10"
     gridtolerance="10"
     guidetolerance="10"
     inkscape:pageopacity="0"
     inkscape:pageshadow="2"
     inkscape:window-width="1920"
     inkscape:window-height="1016"
     id="namedview4"
     showgrid="false"
     inkscape:pagecheckerboard="false"
     fit-margin-top="0"
     fit-margin-left="0"
     fit-margin-right="0"
     fit-margin-bottom="0"
     inkscape:zoom="32.18182"
     inkscape:cx="4.368896"
     inkscape:cy="7.467064"
     inkscape:window-x="0"
     inkscape:window-y="1107"
     inkscape:window-maximized="1"
     inkscape:current-layer="g10" /><g
     id="g10"
     inkscape:groupmode="layer"
     inkscape:label="headset-menubar-icon"
     transform="matrix(1.3333333,0,0,-1.3333333,-2.1096793e-4,16.006302)"><g
       id="g867"
       transform="matrix(0.5454506,0,0,0.54557414,7.1922849e-5,0.0021476)"><g
         style="fill:#bebebe;fill-opacity:1"
         transform="translate(21.9229,9.8652)"
         id="g28"><path
           inkscape:connector-curvature="0"
           id="path30"
           style="fill:#bebebe;fill-opacity:1;fill-rule:nonzero;stroke:none"
           d="m 0,0 c -0.478,-5.254 -5.11,-10.162 -11.482,-9.846 -6.151,0.306 -10.051,5.322 -10.37,9.924 0.014,0.004 0.029,0.013 0.044,0.013 0.436,-0.004 0.873,-0.01 1.309,-0.013 0.167,-0.001 0.333,0.001 0.499,0.008 0.191,0.009 0.325,-0.069 0.415,-0.238 0.047,-0.091 0.107,-0.177 0.166,-0.262 0.223,-0.323 0.734,-0.35 0.879,0.079 0.103,0.304 0.17,0.619 0.25,0.93 0.041,0.158 0.077,0.318 0.115,0.477 0.016,0 0.031,10e-4 0.046,10e-4 0.038,-0.183 0.079,-0.366 0.114,-0.551 0.08,-0.412 0.137,-0.832 0.315,-1.217 0.057,-0.124 0.143,-0.243 0.24,-0.34 0.282,-0.284 0.696,-0.204 0.83,0.172 0.095,0.27 0.169,0.554 0.208,0.839 0.081,0.586 0.139,1.177 0.194,1.768 0.04,0.413 0.057,0.828 0.086,1.242 0.039,0.533 0.081,1.067 0.121,1.6 0.043,0.605 0.076,1.211 0.131,1.816 0.04,0.431 0.109,0.859 0.164,1.289 0.012,0 0.024,0 0.037,0 0.023,-0.166 0.056,-0.331 0.068,-0.498 0.06,-0.804 0.119,-1.608 0.171,-2.412 0.026,-0.389 0.038,-0.78 0.055,-1.17 0.032,-0.693 0.063,-1.386 0.094,-2.079 0.019,-0.428 0.036,-0.856 0.056,-1.283 0.04,-0.84 0.08,-1.679 0.123,-2.518 0.022,-0.421 0.045,-0.844 0.079,-1.266 0.032,-0.388 0.074,-0.776 0.122,-1.161 0.052,-0.415 0.103,-0.831 0.181,-1.241 0.043,-0.229 0.12,-0.456 0.219,-0.667 0.152,-0.328 0.499,-0.404 0.727,-0.159 0.105,0.113 0.17,0.274 0.219,0.424 0.146,0.457 0.175,0.935 0.202,1.409 0.126,2.153 0.091,4.308 0.105,6.462 0.005,0.77 0.017,1.539 0.052,2.307 0.034,0.742 0.061,1.487 0.218,2.217 0.016,0.068 0.035,0.135 0.054,0.203 0.004,0.014 0.018,0.026 0.049,0.07 0.062,-0.232 0.137,-0.434 0.166,-0.642 0.072,-0.514 0.134,-1.029 0.178,-1.546 0.061,-0.706 0.109,-1.415 0.148,-2.123 0.045,-0.831 0.071,-1.662 0.111,-2.493 0.026,-0.564 0.042,-1.129 0.098,-1.692 0.071,-0.717 0.168,-1.431 0.275,-2.144 0.033,-0.215 0.122,-0.427 0.209,-0.631 0.111,-0.265 0.329,-0.399 0.571,-0.374 0.216,0.021 0.345,0.163 0.444,0.338 0.143,0.254 0.207,0.534 0.242,0.818 0.056,0.451 0.102,0.905 0.146,1.358 0.018,0.194 0.027,0.39 0.03,0.585 0.019,1.363 0.027,2.728 0.055,4.092 0.014,0.711 0.056,1.421 0.101,2.131 0.014,0.223 0.075,0.443 0.114,0.665 0.014,0 0.028,10e-4 0.042,0.002 0.037,-0.166 0.094,-0.331 0.109,-0.5 0.06,-0.682 0.119,-1.365 0.156,-2.048 0.044,-0.801 0.054,-1.604 0.1,-2.404 0.048,-0.795 0.081,-1.594 0.25,-2.375 0.05,-0.233 0.126,-0.463 0.223,-0.679 0.115,-0.259 0.304,-0.453 0.619,-0.44 0.32,0.012 0.503,0.215 0.623,0.483 0.226,0.505 0.273,1.049 0.302,1.59 0.04,0.743 0.049,1.487 0.081,2.231 0.03,0.687 0.041,1.378 0.172,2.056 0.038,0.198 0.072,0.401 0.245,0.584 0.056,-0.082 0.131,-0.147 0.148,-0.224 0.07,-0.315 0.153,-0.631 0.173,-0.95 0.046,-0.713 0.041,-1.43 0.088,-2.143 0.029,-0.441 0.097,-0.881 0.176,-1.318 0.046,-0.254 0.173,-0.484 0.407,-0.626 0.306,-0.184 0.743,-0.067 0.956,0.247 0.163,0.242 0.251,0.517 0.274,0.802 0.052,0.649 0.084,1.3 0.127,1.95 0.009,0.137 0.032,0.273 0.055,0.408 0.009,0.054 0.038,0.105 0.059,0.157 0.014,0.003 0.028,0.005 0.042,0.007 0.031,-0.088 0.079,-0.174 0.092,-0.265 0.048,-0.357 0.085,-0.715 0.127,-1.072 0.037,-0.31 0.08,-0.612 0.259,-0.885 0.248,-0.375 0.898,-0.318 1.126,0.001 0.137,0.19 0.191,0.401 0.214,0.627 0.017,0.162 0.038,0.324 0.058,0.486 0.012,0.002 0.024,0.005 0.036,0.008 0.033,-0.054 0.072,-0.105 0.099,-0.162 0.056,-0.119 0.101,-0.244 0.159,-0.363 0.246,-0.505 0.823,-0.579 1.156,-0.127 0.157,0.213 0.344,0.276 0.584,0.272 C -0.45,-0.003 -0.23,0 0,0" /></g><g
         style="fill:#bebebe;fill-opacity:1"
         transform="translate(22,10.4336)"
         id="g24"><path
           inkscape:connector-curvature="0"
           id="path26"
           style="fill:#bebebe;fill-opacity:1;fill-rule:nonzero;stroke:none"
           d="M 0,0 C -0.275,0 -0.513,0.006 -0.749,-0.002 -0.906,-0.008 -1.066,-0.016 -1.218,-0.054 -1.445,-0.111 -1.618,-0.257 -1.75,-0.453 -1.852,-0.604 -1.906,-0.597 -1.987,-0.434 -2.08,-0.246 -2.162,-0.05 -2.271,0.129 -2.396,0.338 -2.681,0.44 -2.925,0.385 -3.177,0.327 -3.29,0.138 -3.337,-0.092 -3.375,-0.279 -3.386,-0.471 -3.411,-0.659 -3.42,-0.725 -3.434,-0.79 -3.453,-0.854 -3.48,-0.943 -3.531,-1.004 -3.64,-0.998 c -0.106,0.006 -0.131,0.091 -0.144,0.161 -0.044,0.232 -0.075,0.466 -0.109,0.701 -0.049,0.347 -0.078,0.698 -0.153,1.04 C -4.08,1.061 -4.175,1.229 -4.292,1.337 -4.616,1.632 -5.067,1.518 -5.231,1.111 -5.298,0.948 -5.344,0.769 -5.358,0.594 -5.396,0.13 -5.411,-0.335 -5.437,-0.8 -5.457,-1.163 -5.471,-1.528 -5.589,-1.877 -5.617,-1.962 -5.663,-2.044 -5.718,-2.114 -5.786,-2.201 -5.9,-2.191 -5.937,-2.09 c -0.071,0.197 -0.148,0.4 -0.17,0.605 -0.05,0.47 -0.076,0.944 -0.099,1.417 -0.019,0.39 -0.006,0.782 -0.032,1.172 -0.033,0.503 -0.056,1.011 -0.243,1.49 -0.081,0.207 -0.206,0.38 -0.405,0.483 C -7.205,3.242 -7.557,3.115 -7.749,2.779 -7.903,2.511 -7.961,2.213 -8.006,1.915 -8.129,1.108 -8.133,0.294 -8.161,-0.519 c -0.027,-0.777 -0.065,-1.553 -0.13,-2.328 -0.023,-0.277 -0.139,-0.548 -0.218,-0.82 -0.012,-0.037 -0.057,-0.063 -0.088,-0.096 -0.029,0.033 -0.067,0.061 -0.086,0.098 -0.166,0.33 -0.234,0.687 -0.269,1.05 -0.051,0.516 -0.098,1.033 -0.126,1.552 -0.043,0.779 -0.062,1.561 -0.105,2.34 -0.041,0.731 -0.085,1.461 -0.158,2.189 -0.031,0.316 -0.123,0.631 -0.222,0.935 -0.042,0.131 -0.152,0.263 -0.267,0.345 -0.249,0.178 -0.556,0.053 -0.699,-0.252 -0.169,-0.36 -0.212,-0.746 -0.247,-1.134 -0.104,-1.14 -0.095,-2.284 -0.106,-3.428 -0.01,-0.919 -0.017,-1.838 -0.052,-2.757 -0.027,-0.712 -0.058,-1.427 -0.219,-2.126 -0.01,-0.045 -0.019,-0.089 -0.035,-0.132 -0.02,-0.058 -0.046,-0.113 -0.103,-0.179 -0.053,0.174 -0.127,0.344 -0.156,0.521 -0.071,0.425 -0.13,0.852 -0.178,1.28 -0.051,0.466 -0.09,0.933 -0.122,1.399 -0.033,0.499 -0.053,0.997 -0.075,1.495 -0.037,0.826 -0.066,1.653 -0.109,2.48 -0.031,0.596 -0.061,1.194 -0.125,1.787 -0.069,0.63 -0.165,1.256 -0.277,1.879 -0.036,0.205 -0.132,0.411 -0.244,0.589 -0.213,0.341 -0.612,0.331 -0.836,10e-4 -0.183,-0.27 -0.245,-0.581 -0.281,-0.891 -0.066,-0.585 -0.138,-1.172 -0.15,-1.758 -0.04,-2.009 -0.052,-4.017 -0.084,-6.026 -0.014,-0.923 -0.037,-1.847 -0.079,-2.768 -0.019,-0.429 -0.092,-0.856 -0.142,-1.283 -0.004,-0.035 -0.019,-0.069 -0.06,-0.106 -0.055,0.295 -0.118,0.588 -0.161,0.885 -0.049,0.341 -0.084,0.684 -0.118,1.027 -0.033,0.33 -0.059,0.66 -0.083,0.991 -0.034,0.463 -0.066,0.927 -0.094,1.391 -0.022,0.374 -0.037,0.748 -0.053,1.122 -0.029,0.706 -0.055,1.413 -0.084,2.119 -0.031,0.751 -0.055,1.503 -0.097,2.253 -0.061,1.096 -0.122,2.191 -0.209,3.285 -0.037,0.459 -0.136,0.913 -0.218,1.367 -0.017,0.098 -0.07,0.2 -0.134,0.277 -0.191,0.229 -0.534,0.185 -0.661,-0.107 -0.113,-0.258 -0.204,-0.536 -0.242,-0.814 -0.097,-0.697 -0.165,-1.399 -0.231,-2.1 -0.059,-0.619 -0.103,-1.24 -0.148,-1.861 -0.054,-0.745 -0.087,-1.493 -0.158,-2.237 -0.06,-0.629 -0.16,-1.254 -0.245,-1.88 -0.007,-0.057 -0.029,-0.111 -0.055,-0.204 -0.041,0.083 -0.076,0.131 -0.09,0.186 -0.087,0.36 -0.168,0.722 -0.253,1.083 -0.049,0.209 -0.094,0.42 -0.152,0.627 -0.024,0.085 -0.069,0.169 -0.121,0.241 -0.216,0.301 -0.571,0.303 -0.802,0.012 -0.163,-0.206 -0.213,-0.455 -0.272,-0.699 -0.064,-0.259 -0.117,-0.522 -0.175,-0.783 -0.004,-0.019 -0.014,-0.038 -0.03,-0.08 -0.033,0.056 -0.056,0.096 -0.079,0.136 -0.195,0.328 -0.47,0.514 -0.864,0.511 -0.599,-0.005 -1.198,-0.002 -1.797,-0.002 h -0.164 c -0.041,3.877 1.415,7.03 4.527,9.345 3.647,2.713 8.522,2.802 12.174,0.508 C -1.665,7.654 0.027,4.289 0,0" /></g></g></g></svg>