<?xml version="1.0" standalone="no"?>
<!DOCTYPE svg PUBLIC "-//W3C//DTD SVG 20010904//EN"
 "http://www.w3.org/TR/2001/REC-SVG-20010904/DTD/svg10.dtd">
<svg version="1.0" xmlns="http://www.w3.org/2000/svg"
 width="256.000000pt" height="256.000000pt" viewBox="0 0 256.000000 256.000000"
 preserveAspectRatio="xMidYMid meet">

<g transform="translate(0.000000,256.000000) scale(0.100000,-0.100000)"
fill="#000000" stroke="none">
<path d="M1175 2394 c-539 -58 -953 -474 -1008 -1012 -37 -369 121 -741 416
-977 106 -85 290 -177 422 -212 90 -24 118 -27 275 -27 157 0 185 3 275 27
132 35 316 127 422 212 352 281 503 752 378 1179 -116 399 -435 699 -836 787
-86 18 -269 31 -344 23z m658 -613 c52 -32 89 -91 94 -149 5 -54 -118 -780
-144 -852 -23 -63 -95 -132 -162 -153 -45 -14 -96 -17 -342 -17 -263 0 -293 2
-341 20 -58 21 -124 82 -152 138 -18 36 -166 790 -166 847 0 74 45 144 115
176 38 18 70 19 550 16 l510 -2 38 -24z"/>
<path d="M1186 1551 c-95 -39 -146 -115 -146 -217 0 -35 8 -75 19 -99 18 -41
75 -105 92 -105 5 0 9 -57 9 -130 0 -164 4 -170 115 -170 111 0 115 6 115 165
l0 124 30 22 c42 32 78 91 91 149 38 177 -152 330 -325 261z"/>
</g>
</svg>
