<?xml version="1.0" encoding="UTF-8" standalone="no"?>
<svg
   width="256"
   height="256"
   version="1.1"
   id="svg486"
   sodipodi:docname="io.enpass.Enpass.svg"
   inkscape:version="1.2.2 (b0a8486541, 2022-12-01)"
   xmlns:inkscape="http://www.inkscape.org/namespaces/inkscape"
   xmlns:sodipodi="http://sodipodi.sourceforge.net/DTD/sodipodi-0.dtd"
   xmlns="http://www.w3.org/2000/svg"
   xmlns:svg="http://www.w3.org/2000/svg">
  <defs
     id="defs490" />
  <sodipodi:namedview
     id="namedview488"
     pagecolor="#ffffff"
     bordercolor="#000000"
     borderopacity="0.25"
     inkscape:showpageshadow="2"
     inkscape:pageopacity="0.0"
     inkscape:pagecheckerboard="0"
     inkscape:deskcolor="#d1d1d1"
     showgrid="false"
     inkscape:zoom="2.5585938"
     inkscape:cx="128.19542"
     inkscape:cy="128.19542"
     inkscape:window-width="1536"
     inkscape:window-height="791"
     inkscape:window-x="0"
     inkscape:window-y="0"
     inkscape:window-maximized="1"
     inkscape:current-layer="svg486" />
  <path
     style="fill:#114aa1; stroke:none;"
     d="M113 16.4282C96.9664 18.7242 81.8451 24.1825 68 32.615C55.5986 40.1681 44.2194 51.0154 36.0285 63C-4.68479 122.57 19.8745 208.125 89 233.305C107.261 239.957 126.842 241.432 146 238.715C160.741 236.624 175.468 230.92 188 222.946C269.101 171.345 250.29 41.1962 155 18.6543C141.783 15.5278 126.499 14.4953 113 16.4282z"
     id="path272" />
  <path
     style="fill:#899cbd; stroke:none;"
     d="M77.6667 75.3333L78.3333 75.6667L77.6667 75.3333z"
     id="path274" />
  <path
     style="fill:#e4e5ed;stroke:none"
     d="M 79,75.4676 C 69.5168,77.2567 62.8495,84.1885 62.213,94 c -1.2087,18.629 7.1277,41.701 10.787,60 1.8613,9.308 2.3692,19.764 7.4684,27.999 C 91.6553,200.066 118.954,195 137,195 c 7.701,0 15.429,0.396 23,-1.29 8.357,-1.862 15.579,-8.712 18.451,-16.71 7.169,-19.962 8.169,-44.108 11.799,-65 1.777,-10.226 5.37,-21.2264 -2.464,-29.956 -7.666,-8.5436 -19.427,-8.998198 -29.786,-8.998198 -25.096,0 -54.358,-2.227102 -79,2.421798 z"
     id="path276"
     sodipodi:nodetypes="scccsccccss" />
  <path
     style="fill:#899cbd; stroke:none;"
     d="M176 75L177 76L176 75z"
     id="path278" />
  <path
     style="fill:#526e9d; stroke:none;"
     d="M177 75L178 76L177 75M73 76L74 77L73 76z"
     id="path280" />
  <path
     style="fill:#899cbd; stroke:none;"
     d="M74 76L75 77L74 76M179 76L180 77L179 76z"
     id="path282" />
  <path
     style="fill:#526e9d; stroke:none;"
     d="M180 76L181 77L180 76z"
     id="path284" />
  <path
     style="fill:#899cbd; stroke:none;"
     d="M72 77L73 78L72 77M182 77L183 78L182 77M70 78L71 79L70 78z"
     id="path286" />
  <path
     style="fill:#526e9d; stroke:none;"
     d="M184 78L185 79L184 78z"
     id="path288" />
  <path
     style="fill:#899cbd; stroke:none;"
     d="M185 79L186 80L185 79M186 80L187 81L186 80M187 81L188 82L187 81M188 82L189 83L188 82M65 83L66 84L65 83z"
     id="path290" />
  <path
     style="fill:#526e9d; stroke:none;"
     d="M189 83L190 84L189 83z"
     id="path292" />
  <path
     style="fill:#899cbd; stroke:none;"
     d="M64 85L65 86L64 85M190 85L191 86L190 85z"
     id="path294" />
  <path
     style="fill:#526e9d; stroke:none;"
     d="M63 86L64 87L63 86z"
     id="path296" />
  <path
     style="fill:#899cbd; stroke:none;"
     d="M63 87L64 88L63 87M191 87L192 88L191 87z"
     id="path298" />
  <path
     style="fill:#526e9d; stroke:none;"
     d="M62 89L63 90L62 89z"
     id="path300" />
  <path
     style="fill:#899cbd; stroke:none;"
     d="M62.3333 90.6667L62.6667 91.3333L62.3333 90.6667M192.333 90.6667L192.667 91.3333L192.333 90.6667M62.3333 98.6667L62.6667 99.3333L62.3333 98.6667M122 99L123 100L122 99z"
     id="path302" />
  <path
     style="fill:#526e9d; stroke:none;"
     d="M123.667 99.3333L124.333 99.6667L123.667 99.3333z"
     id="path304" />
  <path
     style="fill:#114aa1; stroke:none;"
     d="M125 99.4429C109.563 101.694 99.5121 116.998 105.613 132C107.756 137.269 113.351 140.144 115.397 145.17C120.24 157.069 109.743 176.884 131.996 172.772C143.688 170.611 137.196 153.975 139.318 146.09C140.885 140.267 147.797 137.022 149.891 131C155.501 114.867 142.451 96.8979 125 99.4429z"
     id="path306" />
  <path
     style="fill:#526e9d; stroke:none;"
     d="M131 99L132 100L131 99z"
     id="path308" />
  <path
     style="fill:#899cbd; stroke:none;"
     d="M132 99L133 100L132 99M192.333 99.6667L192.667 100.333L192.333 99.6667z"
     id="path310" />
  <path
     style="fill:#526e9d; stroke:none;"
     d="M62.3333 100.667L62.6667 101.333L62.3333 100.667z"
     id="path312" />
  <path
     style="fill:#899cbd; stroke:none;"
     d="M118 100L119 101L118 100z"
     id="path314" />
  <path
     style="fill:#526e9d; stroke:none;"
     d="M119 100L120 101L119 100M135 100L136 101L135 100z"
     id="path316" />
  <path
     style="fill:#899cbd; stroke:none;"
     d="M136 100L137 101L136 100M116 101L117 102L116 101M138 101L139 102L138 101z"
     id="path318" />
  <path
     style="fill:#526e9d; stroke:none;"
     d="M192 101L193 102L192 101M115 102L116 103L115 102z"
     id="path320" />
  <path
     style="fill:#899cbd; stroke:none;"
     d="M140 102L141 103L140 102z"
     id="path322" />
  <path
     style="fill:#526e9d; stroke:none;"
     d="M113 103L114 104L113 103M141 103L142 104L141 103z"
     id="path324" />
  <path
     style="fill:#899cbd; stroke:none;"
     d="M63.3333 104.667L63.6667 105.333L63.3333 104.667z"
     id="path326" />
  <path
     style="fill:#526e9d; stroke:none;"
     d="M112 104L113 105L112 104z"
     id="path328" />
  <path
     style="fill:#899cbd; stroke:none;"
     d="M144 105L145 106L144 105M191.333 105.667L191.667 106.333L191.333 105.667z"
     id="path330" />
  <path
     style="fill:#526e9d; stroke:none;"
     d="M63 106L64 107L63 106z"
     id="path332" />
  <path
     style="fill:#899cbd; stroke:none;"
     d="M145 106L146 107L145 106z"
     id="path334" />
  <path
     style="fill:#526e9d; stroke:none;"
     d="M191 107L192 108L191 107M108 108L109 109L108 108z"
     id="path336" />
  <path
     style="fill:#899cbd; stroke:none;"
     d="M64.3333 109.667L64.6667 110.333L64.3333 109.667M107 109L108 110L107 109z"
     id="path338" />
  <path
     style="fill:#526e9d; stroke:none;"
     d="M147 109L148 110L147 109z"
     id="path340" />
  <path
     style="fill:#899cbd; stroke:none;"
     d="M190.333 110.667L190.667 111.333L190.333 110.667z"
     id="path342" />
  <path
     style="fill:#526e9d; stroke:none;"
     d="M64 111L65 112L64 111M106 111L107 112L106 111M148 111L149 112L148 111z"
     id="path344" />
  <path
     style="fill:#899cbd; stroke:none;"
     d="M149 112L150 113L149 112z"
     id="path346" />
  <path
     style="fill:#526e9d; stroke:none;"
     d="M190.333 112.667L190.667 113.333L190.333 112.667M105 113L106 114L105 113z"
     id="path348" />
  <path
     style="fill:#899cbd; stroke:none;"
     d="M65.3333 114.667L65.6667 115.333L65.3333 114.667M104 115L105 116L104 115M150 115L151 116L150 115z"
     id="path350" />
  <path
     style="fill:#526e9d; stroke:none;"
     d="M65 116L66 117L65 116M104 116L105 117L104 116M150 116L151 117L150 116z"
     id="path352" />
  <path
     style="fill:#899cbd; stroke:none;"
     d="M189.333 116.667L189.667 117.333L189.333 116.667M151.333 118.667L151.667 119.333L151.333 118.667z"
     id="path354" />
  <path
     style="fill:#526e9d; stroke:none;"
     d="M189.333 118.667L189.667 119.333L189.333 118.667z"
     id="path356" />
  <path
     style="fill:#899cbd; stroke:none;"
     d="M188.333 122.667L188.667 123.333L188.333 122.667z"
     id="path362" />
  <path
     style="fill:#526e9d; stroke:none;"
     d="M188 124L189 125L188 124z"
     id="path364" />
  <path
     style="fill:#899cbd; stroke:none;"
     d="M67.3333 125.667L67.6667 126.333L67.3333 125.667M151.333 125.667L151.667 126.333L151.333 125.667z"
     id="path366" />
  <path
     style="fill:#526e9d; stroke:none;"
     d="M67 127L68 128L67 127M104.333 128.667L104.667 129.333L104.333 128.667z"
     id="path368" />
  <path
     style="fill:#899cbd; stroke:none;"
     d="M187.333 128.667L187.667 129.333L187.333 128.667z"
     id="path370" />
  <path
     style="fill:#526e9d; stroke:none;"
     d="M150 129L151 130L150 129z"
     id="path372" />
  <path
     style="fill:#899cbd; stroke:none;"
     d="M68.3333 130.667L68.6667 131.333L68.3333 130.667M104 130L105 131L104 130M150 130L151 131L150 130z"
     id="path374" />
  <path
     style="fill:#526e9d; stroke:none;"
     d="M187 130L188 131L187 130M68 132L69 133L68 132z"
     id="path376" />
  <path
     style="fill:#899cbd; stroke:none;"
     d="M105 132L106 133L105 132z"
     id="path378" />
  <path
     style="fill:#526e9d; stroke:none;"
     d="M149 132L150 133L149 132z"
     id="path380" />
  <path
     style="fill:#899cbd; stroke:none;"
     d="M186.333 133.667L186.667 134.333L186.333 133.667M106 134L107 135L106 134M148 134L149 135L148 134M69.3333 135.667L69.6667 136.333L69.3333 135.667z"
     id="path382" />
  <path
     style="fill:#526e9d; stroke:none;"
     d="M107 135L108 136L107 135M186.333 135.667L186.667 136.333L186.333 135.667z"
     id="path384" />
  <path
     style="fill:#899cbd; stroke:none;"
     d="M147 136L148 137L147 136z"
     id="path386" />
  <path
     style="fill:#526e9d; stroke:none;"
     d="M69 137L70 138L69 137z"
     id="path388" />
  <path
     style="fill:#899cbd; stroke:none;"
     d="M108 137L109 138L108 137M146 137L147 138L146 137z"
     id="path390" />
  <path
     style="fill:#526e9d; stroke:none;"
     d="M109 138L110 139L109 138M145 138L146 139L145 138M110 139L111 140L110 139M144 139L145 140L144 139z"
     id="path392" />
  <path
     style="fill:#899cbd; stroke:none;"
     d="M185.333 139.667L185.667 140.333L185.333 139.667M70.3333 140.667L70.6667 141.333L70.3333 140.667z"
     id="path394" />
  <path
     style="fill:#526e9d; stroke:none;"
     d="M111 140L112 141L111 140M143 140L144 141L143 140z"
     id="path396" />
  <path
     style="fill:#899cbd; stroke:none;"
     d="M112 141L113 142L112 141M142 141L143 142L142 141z"
     id="path398" />
  <path
     style="fill:#526e9d; stroke:none;"
     d="M185.333 141.667L185.667 142.333L185.333 141.667M70.3333 142.667L70.6667 143.333L70.3333 142.667z"
     id="path400" />
  <path
     style="fill:#899cbd; stroke:none;"
     d="M113 142L114 143L113 142M141 142L142 143L141 142M115 143L116 144L115 143z"
     id="path402" />
  <path
     style="fill:#526e9d; stroke:none;"
     d="M139 143L140 144L139 143z"
     id="path404" />
  <path
     style="fill:#899cbd; stroke:none;"
     d="M184.333 145.667L184.667 146.333L184.333 145.667M71.3333 146.667L71.6667 147.333L71.3333 146.667z"
     id="path406" />
  <path
     style="fill:#526e9d; stroke:none;"
     d="M184 147L185 148L184 147M71 148L72 149L71 148z"
     id="path408" />
  <path
     style="fill:#899cbd; stroke:none;"
     d="M183.333 150.667L183.667 151.333L183.333 150.667M72.3333 151.667L72.6667 152.333L72.3333 151.667z"
     id="path410" />
  <path
     style="fill:#526e9d; stroke:none;"
     d="M183.333 152.667L183.667 153.333L183.333 152.667M72 153L73 154L72 153z"
     id="path412" />
  <path
     style="fill:#899cbd; stroke:none;"
     d="M73.3333 156.667L73.6667 157.333L73.3333 156.667M182.333 156.667L182.667 157.333L182.333 156.667z"
     id="path414" />
  <path
     style="fill:#526e9d; stroke:none;"
     d="M73 158L74 159L73 158M182.333 158.667L182.667 159.333L182.333 158.667z"
     id="path416" />
  <path
     style="fill:#899cbd; stroke:none;"
     d="M74.3333 161.667L74.6667 162.333L74.3333 161.667M181.333 162.667L181.667 163.333L181.333 162.667z"
     id="path418" />
  <path
     style="fill:#526e9d; stroke:none;"
     d="M74.3333 163.667L74.6667 164.333L74.3333 163.667M181 164L182 165L181 164z"
     id="path420" />
  <path
     style="fill:#899cbd; stroke:none;"
     d="M75 167L76 168L75 167z"
     id="path422" />
  <path
     style="fill:#526e9d; stroke:none;"
     d="M75.3333 168.667L75.6667 169.333L75.3333 168.667M116 168L117 169L116 168M138 168L139 169L138 168z"
     id="path424" />
  <path
     style="fill:#899cbd; stroke:none;"
     d="M180.333 168.667L180.667 169.333L180.333 168.667M116 169L117 170L116 169M138 169L139 170L138 169z"
     id="path426" />
  <path
     style="fill:#526e9d; stroke:none;"
     d="M117 170L118 171L117 170M137 170L138 171L137 170M180 170L181 171L180 170M118 171L119 172L118 171M136 171L137 172L136 171z"
     id="path428" />
  <path
     style="fill:#899cbd; stroke:none;"
     d="M76.3333 172.667L76.6667 173.333L76.3333 172.667M119 172L120 173L119 172z"
     id="path430" />
  <path
     style="fill:#526e9d; stroke:none;"
     d="M120 172L121 173L120 172M134 172L135 173L134 172z"
     id="path432" />
  <path
     style="fill:#899cbd; stroke:none;"
     d="M135 172L136 173L135 172M179.333 173.667L179.667 174.333L179.333 173.667z"
     id="path434" />
  <path
     style="fill:#526e9d; stroke:none;"
     d="M76 174L77 175L76 174M179 175L180 176L179 175z"
     id="path436" />
  <path
     style="fill:#899cbd; stroke:none;"
     d="M77 176L78 177L77 176z"
     id="path438" />
  <path
     style="fill:#526e9d; stroke:none;"
     d="M77 177L78 178L77 177z"
     id="path440" />
  <path
     style="fill:#899cbd; stroke:none;"
     d="M178 177L179 178L178 177M78 178L79 179L78 178z"
     id="path442" />
  <path
     style="fill:#526e9d; stroke:none;"
     d="M178 178L179 179L178 178M78 179L79 180L78 179z"
     id="path444" />
  <path
     style="fill:#899cbd; stroke:none;"
     d="M177 179L178 180L177 179M79 180L80 181L79 180z"
     id="path446" />
  <path
     style="fill:#526e9d; stroke:none;"
     d="M177 180L178 181L177 180M79 181L80 182L79 181z"
     id="path448" />
  <path
     style="fill:#899cbd; stroke:none;"
     d="M176 181L177 182L176 181M80 182L81 183L80 182M81 183L82 184L81 183z"
     id="path450" />
  <path
     style="fill:#526e9d; stroke:none;"
     d="M175 183L176 184L175 183M81 184L82 185L81 184z"
     id="path452" />
  <path
     style="fill:#899cbd; stroke:none;"
     d="M174 184L175 185L174 184z"
     id="path454" />
  <path
     style="fill:#526e9d; stroke:none;"
     d="M82 185L83 186L82 185z"
     id="path456" />
  <path
     style="fill:#899cbd; stroke:none;"
     d="M173 185L174 186L173 185z"
     id="path458" />
  <path
     style="fill:#526e9d; stroke:none;"
     d="M83 186L84 187L83 186z"
     id="path460" />
  <path
     style="fill:#899cbd; stroke:none;"
     d="M172 186L173 187L172 186z"
     id="path462" />
  <path
     style="fill:#526e9d; stroke:none;"
     d="M84 187L85 188L84 187z"
     id="path464" />
  <path
     style="fill:#899cbd; stroke:none;"
     d="M171 187L172 188L171 187z"
     id="path466" />
  <path
     style="fill:#526e9d; stroke:none;"
     d="M85 188L86 189L85 188z"
     id="path468" />
  <path
     style="fill:#899cbd; stroke:none;"
     d="M170 188L171 189L170 188M87 189L88 190L87 189M169 189L170 190L169 189M88 190L89 191L88 190M167 190L168 191L167 190z"
     id="path470" />
  <path
     style="fill:#526e9d; stroke:none;"
     d="M168 190L169 191L168 190M89 191L90 192L89 191z"
     id="path472" />
  <path
     style="fill:#899cbd; stroke:none;"
     d="M90 191L91 192L90 191M166 191L167 192L166 191M92 192L93 193L92 192z"
     id="path474" />
  <path
     style="fill:#526e9d; stroke:none;"
     d="M164 192L165 193L164 192M94 193L95 194L94 193z"
     id="path476" />
  <path
     style="fill:#899cbd; stroke:none;"
     d="M95 193L96 194L95 193M161 193L162 194L161 193z"
     id="path478" />
  <path
     style="fill:#526e9d; stroke:none;"
     d="M162 193L163 194L162 193M97 194L98 195L97 194z"
     id="path480" />
  <path
     style="fill:#526e9d; stroke:none;"
     d="M158.667 194.333L159.333 194.667L158.667 194.333z"
     id="path484" />
  <path
     style="fill:none;stroke-width:0.39084"
     d="M 0,128 V 0 H 128 256 V 128 256 H 128 0 Z m 140.11603,111.54105 c 36.30139,-3.11433 70.08318,-26.08031 86.73915,-58.96813 5.81665,-11.48519 9.37093,-22.98923 11.41277,-36.93933 0.86159,-5.88647 0.99078,-22.91813 0.22086,-29.11756 C 236.75218,100.5325 232.93415,87.72617 226.83644,75.432061 221.40144,64.474077 214.90088,55.400538 206.38223,46.88189 197.79613,38.295794 189.67032,32.479547 178.80916,27.145798 163.45423,19.605226 148.95111,16.025403 131.12672,15.376274 105.40596,14.439576 77.715776,23.618554 57.453435,39.79812 24.899503,65.792567 9.821322,108.98779 18.624568,151.03313 c 5.020134,23.97676 16.903284,44.87418 34.72505,61.06667 7.637477,6.93924 14.590359,11.61491 24.622901,16.5584 19.169608,9.44572 38.807821,12.88485 62.143511,10.88285 z"
     id="path1224" />
  <path
     style="fill:none;stroke-width:0.39084"
     d="M 0,128 V 0 H 128 256 V 128 256 H 128 0 Z m 140.11603,111.54105 c 36.30139,-3.11433 70.08318,-26.08031 86.73915,-58.96813 5.81665,-11.48519 9.37093,-22.98923 11.41277,-36.93933 0.86159,-5.88647 0.99078,-22.91813 0.22086,-29.11756 C 236.75218,100.5325 232.93415,87.72617 226.83644,75.432061 221.40144,64.474077 214.90088,55.400538 206.38223,46.88189 197.79613,38.295794 189.67032,32.479547 178.80916,27.145798 163.45423,19.605226 148.95111,16.025403 131.12672,15.376274 105.40596,14.439576 77.715776,23.618554 57.453435,39.79812 24.899503,65.792567 9.821322,108.98779 18.624568,151.03313 c 5.020134,23.97676 16.903284,44.87418 34.72505,61.06667 7.637477,6.93924 14.590359,11.61491 24.622901,16.5584 19.169608,9.44572 38.807821,12.88485 62.143511,10.88285 z"
     id="path1226" />
  <path
     style="fill:none;stroke-width:0.39084"
     d="M 0,128 V 0 H 128 256 V 128 256 H 128 0 Z m 140.11603,111.54105 c 36.30139,-3.11433 70.08318,-26.08031 86.73915,-58.96813 5.81665,-11.48519 9.37093,-22.98923 11.41277,-36.93933 0.86159,-5.88647 0.99078,-22.91813 0.22086,-29.11756 C 236.75218,100.5325 232.93415,87.72617 226.83644,75.432061 221.40144,64.474077 214.90088,55.400538 206.38223,46.88189 197.79613,38.295794 189.67032,32.479547 178.80916,27.145798 163.45423,19.605226 148.95111,16.025403 131.12672,15.376274 105.40596,14.439576 77.715776,23.618554 57.453435,39.79812 24.899503,65.792567 9.821322,108.98779 18.624568,151.03313 c 5.020134,23.97676 16.903284,44.87418 34.72505,61.06667 7.637477,6.93924 14.590359,11.61491 24.622901,16.5584 19.169608,9.44572 38.807821,12.88485 62.143511,10.88285 z"
     id="path1228" />
  <path
     style="fill:none;stroke-width:0.39084"
     d="M 0,128 V 0 H 128 256 V 128 256 H 128 0 Z m 140.11603,111.54105 c 36.30139,-3.11433 70.08318,-26.08031 86.73915,-58.96813 5.81665,-11.48519 9.37093,-22.98923 11.41277,-36.93933 0.86159,-5.88647 0.99078,-22.91813 0.22086,-29.11756 C 236.75218,100.5325 232.93415,87.72617 226.83644,75.432061 221.40144,64.474077 214.90088,55.400538 206.38223,46.88189 197.79613,38.295794 189.67032,32.479547 178.80916,27.145798 163.45423,19.605226 148.95111,16.025403 131.12672,15.376274 105.40596,14.439576 77.715776,23.618554 57.453435,39.79812 24.899503,65.792567 9.821322,108.98779 18.624568,151.03313 c 5.020134,23.97676 16.903284,44.87418 34.72505,61.06667 7.637477,6.93924 14.590359,11.61491 24.622901,16.5584 19.169608,9.44572 38.807821,12.88485 62.143511,10.88285 z"
     id="path1230" />
  <path
     style="fill:none;stroke-width:0.39084"
     d="M 0,128 V 0 H 128 256 V 128 256 H 128 0 Z m 140.11603,111.54105 c 36.30139,-3.11433 70.08318,-26.08031 86.73915,-58.96813 5.81665,-11.48519 9.37093,-22.98923 11.41277,-36.93933 0.86159,-5.88647 0.99078,-22.91813 0.22086,-29.11756 C 236.75218,100.5325 232.93415,87.72617 226.83644,75.432061 221.40144,64.474077 214.90088,55.400538 206.38223,46.88189 197.79613,38.295794 189.67032,32.479547 178.80916,27.145798 163.45423,19.605226 148.95111,16.025403 131.12672,15.376274 105.40596,14.439576 77.715776,23.618554 57.453435,39.79812 24.899503,65.792567 9.821322,108.98779 18.624568,151.03313 c 5.020134,23.97676 16.903284,44.87418 34.72505,61.06667 7.637477,6.93924 14.590359,11.61491 24.622901,16.5584 19.169608,9.44572 38.807821,12.88485 62.143511,10.88285 z"
     id="path1232" />
  <path
     style="fill:none;stroke-width:0.39084"
     d="M 0,128 V 0 H 128 256 V 128 256 H 128 0 Z m 140.11603,111.54105 c 36.30139,-3.11433 70.08318,-26.08031 86.73915,-58.96813 5.81665,-11.48519 9.37093,-22.98923 11.41277,-36.93933 0.86159,-5.88647 0.99078,-22.91813 0.22086,-29.11756 C 236.75218,100.5325 232.93415,87.72617 226.83644,75.432061 221.40144,64.474077 214.90088,55.400538 206.38223,46.88189 197.79613,38.295794 189.67032,32.479547 178.80916,27.145798 163.45423,19.605226 148.95111,16.025403 131.12672,15.376274 105.40596,14.439576 77.715776,23.618554 57.453435,39.79812 24.899503,65.792567 9.821322,108.98779 18.624568,151.03313 c 5.020134,23.97676 16.903284,44.87418 34.72505,61.06667 7.637477,6.93924 14.590359,11.61491 24.622901,16.5584 19.169608,9.44572 38.807821,12.88485 62.143511,10.88285 z"
     id="path1234" />
</svg>
