<svg xmlns="http://www.w3.org/2000/svg" width="88" height="88" fill="none"><path fill="#F47421" d="M83.82 74.722c-5.98 6.398-16.344 7.197-22.722 1.2L5.69 27.537C-1.087 21.54-1.486 11.943 4.493 5.146c5.98-6.398 15.945-6.798 22.722-1.2l55.41 48.783c6.377 5.598 7.174 15.595 1.195 21.993Z"/><path fill="url(#a)" d="M83.82 74.722c-5.98 6.398-16.344 7.197-22.722 1.2L5.69 27.537C-1.087 21.54-1.486 11.943 4.493 5.146c5.98-6.398 15.945-6.798 22.722-1.2l55.41 48.783c6.377 5.598 7.174 15.595 1.195 21.993Z"/><path fill="url(#b)" d="M83.82 74.722c-5.98 6.398-16.344 7.197-22.722 1.2L5.69 27.537C-1.087 21.54-1.486 11.943 4.493 5.146c5.98-6.398 15.945-6.798 22.722-1.2l55.41 48.783c6.377 5.598 7.174 15.595 1.195 21.993Z"/><path fill="url(#c)" d="M83.82 74.722c-5.98 6.398-16.344 7.197-22.722 1.2L5.69 27.537C-1.087 21.54-1.486 11.943 4.493 5.146c5.98-6.398 15.945-6.798 22.722-1.2l55.41 48.783c6.377 5.598 7.174 15.595 1.195 21.993Z"/><path fill="#F47421" d="M16.453 79.972C7.285 79.972.11 72.775.11 64.379V15.995C.11 7.198 7.285 0 16.453 0c8.77 0 16.344 7.198 16.344 15.995v48.383c0 8.397-7.574 15.594-16.344 15.594Z"/><path fill="url(#d)" d="M16.453 79.972C7.285 79.972.11 72.775.11 64.379V15.995C.11 7.198 7.285 0 16.453 0c8.77 0 16.344 7.198 16.344 15.995v48.383c0 8.397-7.574 15.594-16.344 15.594Z"/><path fill="#F47421" d="M44.838 2.877c3.19-3.2 8.372-3.6 11.56-.8l28.303 24.791c3.19 2.8 3.588 7.998.797 11.197-3.189 3.198-8.37 3.598-11.56.4L45.636 14.072c-3.588-2.8-3.588-7.997-.798-11.196Z"/><path fill="url(#e)" d="M44.838 2.877c3.19-3.2 8.372-3.6 11.56-.8l28.303 24.791c3.19 2.8 3.588 7.998.797 11.197-3.189 3.198-8.37 3.598-11.56.4L45.636 14.072c-3.588-2.8-3.588-7.997-.798-11.196Z"/><path fill="url(#f)" d="M44.838 2.877c3.19-3.2 8.372-3.6 11.56-.8l28.303 24.791c3.19 2.8 3.588 7.998.797 11.197-3.189 3.198-8.37 3.598-11.56.4L45.636 14.072c-3.588-2.8-3.588-7.997-.798-11.196Z"/><path fill="url(#g)" d="M44.838 2.877c3.19-3.2 8.372-3.6 11.56-.8l28.303 24.791c3.19 2.8 3.588 7.998.797 11.197-3.189 3.198-8.37 3.598-11.56.4L45.636 14.072c-3.588-2.8-3.588-7.997-.798-11.196Z"/><path fill="#F47421" d="M79.504.078c4.783 0 8.371 3.598 8.371 7.997v24.791c0 4.399-3.588 7.998-8.371 7.998-4.385 0-8.371-3.6-8.371-7.998V8.075c0-4.399 3.986-7.997 8.371-7.997Z"/><path fill="url(#h)" d="M79.504.078c4.783 0 8.371 3.598 8.371 7.997v24.791c0 4.399-3.588 7.998-8.371 7.998-4.385 0-8.371-3.6-8.371-7.998V8.075c0-4.399 3.986-7.997 8.371-7.997Z"/><defs><linearGradient id="a" x1="55.878" x2="35.084" y1="30.409" y2="50.475" gradientUnits="userSpaceOnUse"><stop stop-color="#F04C1C"/><stop offset=".355" stop-color="#F47421" stop-opacity="0"/></linearGradient><linearGradient id="c" x1="55.878" x2="35.084" y1="30.409" y2="50.475" gradientUnits="userSpaceOnUse"><stop offset=".5" stop-color="#F47421" stop-opacity="0"/><stop offset=".98" stop-color="#FFB000"/></linearGradient><linearGradient id="d" x1="16.416" x2="16.416" y1="76.347" y2="1.236" gradientUnits="userSpaceOnUse"><stop offset=".534" stop-color="#ED3118"/><stop offset="1" stop-color="#F47421"/></linearGradient><linearGradient id="e" x1="59.418" x2="70.036" y1="25.294" y2="15.085" gradientUnits="userSpaceOnUse"><stop stop-color="#F04C1C"/><stop offset=".355" stop-color="#F47421" stop-opacity="0"/></linearGradient><linearGradient id="g" x1="59.418" x2="70.036" y1="25.294" y2="15.085" gradientUnits="userSpaceOnUse"><stop offset=".5" stop-color="#F47421" stop-opacity="0"/><stop offset=".98" stop-color="#FFB000"/></linearGradient><linearGradient id="h" x1="79.474" x2="79.474" y1="2.063" y2="40.412" gradientUnits="userSpaceOnUse"><stop offset=".534" stop-color="#ED3118"/><stop offset="1" stop-color="#F47421"/></linearGradient><radialGradient id="b" cx="0" cy="0" r="1" gradientTransform="matrix(60.1775 0 0 60.3641 44.154 40.458)" gradientUnits="userSpaceOnUse"><stop offset=".328" stop-color="#F47421" stop-opacity="0"/><stop offset="1" stop-color="#FFB000"/></radialGradient><radialGradient id="f" cx="0" cy="0" r="1" gradientTransform="matrix(-30.8437 0 0 -30.9393 65.31 20.355)" gradientUnits="userSpaceOnUse"><stop offset=".328" stop-color="#F47421" stop-opacity="0"/><stop offset="1" stop-color="#FFB000"/></radialGradient></defs></svg>
