<?xml version="1.0" encoding="UTF-8"?>
<svg id="Layer_2" data-name="Layer 2" xmlns="http://www.w3.org/2000/svg" viewBox="0 0 239.08 239.08">
  <defs>
    <style>
      .cls-1 {
        fill: #1c1e21;
      }

      .cls-1, .cls-2 {
        stroke-width: 0px;
      }

      .cls-2 {
        fill: #fff;
      }
    </style>
  </defs>
  <g id="Layer_1-2" data-name="Layer 1">
    <rect class="cls-1" y="0" width="239.08" height="239.08" rx="30.31" ry="30.31"/>
    <path class="cls-2" d="M144.12,194.1v-79.24h-13.5v-21.21h13.5v-11.57c0-24.87,14.84-35.67,37.02-35.67,10.41,0,18.9,2.12,22.18,3.66l-1.16,20.63c-3.85-1.35-8.87-2.5-13.5-2.5-9.07,0-15.42,2.7-15.42,16.58v8.87h26.61v21.21h-26.61v79.24h-29.12Z"/>
    <path class="cls-2" d="M53.87,142.14l46.28-47.63h15.04l-34.7,35.67,37.21,62.86h-14.08l-32.39-53.6-17.36,17.73v35.86h-12.92V47.46h12.92v94.68Z"/>
  </g>
</svg>