<?xml version="1.0" encoding="utf-8"?>
<svg width="1024px" height="1024px" viewBox="0 0 1024 1024" xmlns="http://www.w3.org/2000/svg">
  <g>
    <g transform="matrix(1, 0, 0, 1, -0.009985, -0.086926)">
      <path d="M 132.446 732.109 L 132.446 291.613 L 335.279 409.478 L 335.279 614.581 L 132.446 732.109 Z" style="fill: rgb(222, 101, 71);"/>
      <path d="M 512.985 952.772 L 512.985 722.474 L 335.246 614.587 L 132.436 732.113 L 512.985 952.772 Z" style="fill: rgb(253, 188, 77);"/>
      <path d="M 688.748 291.613 L 688.748 732.109 L 891.581 614.244 L 891.581 409.141 L 688.748 291.613 Z" transform="matrix(-1, 0, 0, -1, 1580.328821, 1023.722101)" style="fill: rgb(105, 179, 86);"/>
      <path d="M 891.584 614.587 L 891.584 844.918 L 715.811 952.805 L 512.985 835.296 L 891.584 614.587 Z" style="fill: rgb(209, 233, 147);" transform="matrix(-1, 0, 0, -1, 1404.568879, 1567.391977)"/>
      <path d="M 512.985 71.402 L 512.985 301.7 L 335.246 409.587 L 132.436 292.061 L 512.985 71.402 Z" style="fill: rgb(128, 183, 250);"/>
      <path d="M 891.584 409.587 L 891.584 179.256 L 715.811 71.369 L 512.985 188.878 L 891.584 409.587 Z" transform="matrix(-1, 0, 0, -1, 1404.568879, 480.95587)" style="fill: rgb(69, 129, 225);"/>
    </g>
    <g transform="matrix(3.215432, 0, 0, 3.215432, -1124.264648, -1130.190796)">
      <path d="M 568.619 536.571 C 572.385 540.338 575.637 547.648 575.637 553.522 C 575.637 559.391 572.384 566.699 568.619 570.465 C 564.855 574.231 557.545 577.488 551.672 577.488 C 545.798 577.488 538.489 574.231 534.724 570.465 C 533.941 569.681 533.179 568.743 532.465 567.698 C 532.707 568.903 532.841 570.096 532.841 571.245 C 532.841 577.117 529.586 584.426 525.821 588.191 C 522.055 591.955 514.748 595.208 508.88 595.208 C 503.01 595.208 495.7 591.957 491.934 588.192 C 488.166 584.428 484.91 577.118 484.91 571.245 C 484.91 570.031 484.984 568.939 485.12 567.938 C 484.454 568.887 483.749 569.742 483.026 570.466 C 479.261 574.232 471.951 577.488 466.078 577.488 C 460.204 577.488 452.894 574.232 449.129 570.465 C 445.364 566.699 442.112 559.39 442.112 553.522 C 442.112 547.648 445.364 540.338 449.13 536.571 C 449.914 535.787 450.851 535.025 451.898 534.31 C 450.693 534.552 449.501 534.686 448.354 534.686 C 442.484 534.686 435.175 531.434 431.409 527.668 C 427.644 523.903 424.391 516.593 424.391 510.721 C 424.391 504.85 427.644 497.542 431.409 493.776 C 435.174 490.011 442.483 486.757 448.354 486.757 C 449.567 486.757 450.658 486.831 451.659 486.968 C 450.709 486.301 449.854 485.596 449.131 484.872 C 445.365 481.107 442.112 473.797 442.112 467.927 C 442.112 462.054 445.369 454.744 449.136 450.979 C 452.904 447.214 460.213 443.963 466.084 443.963 C 471.956 443.963 479.265 447.216 483.031 450.982 C 483.814 451.765 484.575 452.702 485.289 453.747 C 485.048 452.545 484.915 451.355 484.915 450.208 C 484.915 444.334 488.169 437.023 491.935 433.256 C 495.702 429.489 503.012 426.235 508.884 426.235 C 514.751 426.235 522.06 429.487 525.827 433.254 C 529.593 437.02 532.849 444.331 532.849 450.208 C 532.849 451.419 532.775 452.508 532.639 453.508 C 533.305 452.558 534.01 451.704 534.733 450.981 C 538.499 447.216 545.808 443.963 551.679 443.963 C 557.55 443.963 564.858 447.216 568.624 450.981 C 572.389 454.747 575.643 462.056 575.643 467.927 C 575.643 473.798 572.39 481.107 568.625 484.872 C 567.84 485.657 566.902 486.419 565.855 487.135 C 567.062 486.892 568.257 486.757 569.407 486.757 C 575.275 486.757 582.583 490.011 586.348 493.777 C 590.112 497.542 593.366 504.85 593.366 510.721 C 593.366 516.594 590.112 523.903 586.348 527.668 C 582.583 531.433 575.275 534.686 569.407 534.686 C 568.188 534.686 567.093 534.612 566.088 534.474 C 567.039 535.141 567.895 535.847 568.619 536.571 Z" style="fill: rgb(47, 47, 47);"/>
      <path d="M 531.594 520.131 L 559.629 520.131 C 562.094 522.697 565.559 524.29 569.407 524.29 C 576.895 524.29 582.97 518.219 582.97 510.721 C 582.97 503.227 576.895 497.153 569.407 497.153 C 565.567 497.153 562.094 498.754 559.629 501.317 L 531.594 501.317 L 551.414 481.489 C 551.504 481.489 551.588 481.496 551.679 481.496 C 559.173 481.496 565.247 475.421 565.247 467.927 C 565.247 460.432 559.173 454.359 551.679 454.359 C 544.184 454.359 538.11 460.432 538.11 467.927 C 538.11 468.011 538.115 468.101 538.115 468.186 L 518.294 488.01 L 518.294 459.981 C 520.854 457.51 522.453 454.047 522.453 450.208 C 522.453 442.703 516.372 436.631 508.884 436.631 C 501.388 436.631 495.311 442.707 495.311 450.208 C 495.311 454.047 496.909 457.51 499.471 459.981 L 499.471 488.01 L 479.648 468.186 C 479.648 468.101 479.652 468.011 479.652 467.927 C 479.652 460.432 473.581 454.359 466.084 454.359 C 458.587 454.359 452.508 460.432 452.508 467.927 C 452.508 475.421 458.581 481.496 466.078 481.496 C 466.164 481.496 466.252 481.489 466.336 481.489 L 486.164 501.317 L 458.128 501.317 C 455.66 498.749 452.194 497.153 448.354 497.153 C 440.86 497.153 434.787 503.227 434.787 510.721 C 434.787 518.219 440.86 524.29 448.354 524.29 C 452.194 524.29 455.665 522.697 458.128 520.131 L 486.164 520.131 L 466.336 539.954 C 466.252 539.954 466.164 539.947 466.078 539.947 C 458.581 539.947 452.508 546.02 452.508 553.522 C 452.508 561.012 458.581 567.092 466.078 567.092 C 473.574 567.092 479.648 561.012 479.648 553.522 C 479.648 553.431 479.641 553.347 479.641 553.258 L 499.463 533.432 L 499.463 561.47 C 496.903 563.935 495.306 567.398 495.306 571.245 C 495.306 578.74 501.384 584.812 508.88 584.812 C 516.368 584.812 522.445 578.74 522.445 571.245 C 522.445 567.404 520.847 563.935 518.288 561.47 L 518.288 533.432 L 538.11 553.258 C 538.11 553.347 538.104 553.426 538.104 553.522 C 538.104 561.012 544.176 567.092 551.672 567.092 C 559.167 567.092 565.241 561.012 565.241 553.522 C 565.241 546.02 559.167 539.947 551.672 539.947 C 551.581 539.947 551.5 539.954 551.409 539.954 Z" style="fill: rgb(255, 255, 255); paint-order: stroke; stroke-width: 20.7915;"/>
    </g>
  </g>
  <path d="M 510.649 521.464" style="stroke: rgb(0, 0, 0); fill: rgb(255, 255, 255);"/>
</svg>