<?xml version="1.0" encoding="utf-8"?>
<!-- Generator: Adobe Illustrator 18.0.0, SVG Export Plug-In . SVG Version: 6.00 Build 0)  -->
<!DOCTYPE svg PUBLIC "-//W3C//DTD SVG 1.1//EN" "http://www.w3.org/Graphics/SVG/1.1/DTD/svg11.dtd">
<svg version="1.1" id="Layer_1" xmlns="http://www.w3.org/2000/svg" xmlns:xlink="http://www.w3.org/1999/xlink" x="0px" y="0px"
	 viewBox="0 0 1024 1024" enable-background="new 0 0 1024 1024" xml:space="preserve">
<g>
	<path d="M1019.4,228.7v566.5c0,122.7-99.5,222.2-222.2,222.2H226.8C104.1,1017.5,4.6,918,4.6,795.3V228.7
		C4.6,106,104.1,6.5,226.8,6.5h570.4C919.9,6.5,1019.4,106,1019.4,228.7z"/>
	<g>
		<path fill="#4D9EAB" d="M684.6,577.5l-178,178c-41.6,41.6-109,41.6-150.6,0L186.6,586.1c-41.6-41.6-41.6-109,0-150.6l169.7-169.7
			c41.6-41.6,109-41.6,150.6,0l0,0l-49.3,49.3l0,0c-14.3-14.3-37.6-14.3-51.9,0L235.9,484.8c-14.3,14.3-14.3,37.6,0,51.9
			l169.4,169.4c14.3,14.3,37.6,14.3,51.9,0L576,587.4C605.1,558.3,650.8,554.2,684.6,577.5L684.6,577.5z"/>
		<path fill="#4D9EAB" d="M685.3,444.3L685.3,444.3c-31.1,25-76,22.6-104.3-5.6l-41.3-41.3L589,348L685.3,444.3z"/>
		<path fill="#6C7579" d="M868.5,577.1L687.1,758.4c-41.2,41.2-108.1,41.2-149.3,0l0,0l49.4-49.3l0,0c13.9,13.9,36.5,13.9,50.5,0
			l121.6-121.6C788.5,558.3,834.3,553.9,868.5,577.1L868.5,577.1z"/>
		<path fill="#6C7579" d="M868.6,445.3l-5.1,3.3c-31.7,20.9-73.7,16.6-100.6-10.3L640.4,315.8c-14.2-14.2-37.1-14.2-51.3,0
			L417.2,487.7c-14.2,14.2-14.2,37.1,0,51.3l86.6,86.6l-49.3,49.4l-82.7-82.7c-43.7-43.7-43.7-114.5,0-158.1l163.8-163.8
			c43.7-43.7,114.5-43.7,158.1,0L868.6,445.3z"/>
	</g>
</g>
</svg>
