<?xml version="1.0" encoding="UTF-8" standalone="no"?>
<svg
   xmlns:dc="http://purl.org/dc/elements/1.1/"
   xmlns:cc="http://creativecommons.org/ns#"
   xmlns:rdf="http://www.w3.org/1999/02/22-rdf-syntax-ns#"
   xmlns:svg="http://www.w3.org/2000/svg"
   xmlns="http://www.w3.org/2000/svg"
   xmlns:sodipodi="http://sodipodi.sourceforge.net/DTD/sodipodi-0.dtd"
   xmlns:inkscape="http://www.inkscape.org/namespaces/inkscape"
   version="1.1"
   id="Capa_1"
   x="0px"
   y="0px"
   viewBox="0 0 128 128"
   xml:space="preserve"
   width="128"
   height="128"
   class=""
   sodipodi:docname="track-default-cover.svg"
   inkscape:version="0.92.3 (2405546, 2018-03-11)"><metadata
   id="metadata15"><rdf:RDF><cc:Work
       rdf:about=""><dc:format>image/svg+xml</dc:format><dc:type
         rdf:resource="http://purl.org/dc/dcmitype/StillImage" /><dc:title></dc:title></cc:Work></rdf:RDF></metadata><defs
   id="defs13" /><sodipodi:namedview
   pagecolor="#ffffff"
   bordercolor="#666666"
   borderopacity="1"
   objecttolerance="10"
   gridtolerance="10"
   guidetolerance="10"
   inkscape:pageopacity="0"
   inkscape:pageshadow="2"
   inkscape:window-width="1366"
   inkscape:window-height="705"
   id="namedview11"
   showgrid="false"
   inkscape:zoom="0.75130096"
   inkscape:cx="-135.97895"
   inkscape:cy="121.64292"
   inkscape:window-x="0"
   inkscape:window-y="30"
   inkscape:window-maximized="1"
   inkscape:current-layer="Capa_1" /> <rect
   style="opacity:1;fill:#fe2851;fill-opacity:1;fill-rule:evenodd;stroke:none;stroke-width:0.7497772;stroke-miterlimit:4;stroke-dasharray:none;stroke-opacity:1"
   id="rect817"
   width="128"
   height="128"
   x="0"
   y="0"
   ry="0" /><g
   id="g818"
   transform="matrix(3.9980411,0,0,3.9980411,-4178.438,1340.2359)"
   style="color:#bebebe;fill:#ffffff;fill-opacity:1"><path
     id="path816"
     style="overflow:visible;fill:#ffffff;fill-opacity:1;marker:none"
     overflow="visible"
     d="m 1066.37,-327 -7.376,1.906 c -0.554,0.149 -1,0.74 -1,1.313 v 9.094 a 2.84,2.84 0 0 0 -2.03,-0.22 c -1.35,0.351 -2.196,1.485 -1.907,2.532 0.29,1.047 1.619,1.632 2.969,1.281 1.076,-0.28 1.819,-1.071 1.937,-1.906 l 0.031,-8.594 7,-1.875 v 6.781 a 2.84,2.84 0 0 0 -2.031,-0.218 c -1.35,0.35 -2.196,1.484 -1.906,2.531 0.289,1.047 1.619,1.632 2.968,1.281 1.077,-0.28 1.82,-1.071 1.938,-1.906 l 0.03,-11.188 c 0,-0.43 -0.265,-0.751 -0.624,-0.812 z"
     inkscape:connector-curvature="0" /></g></svg>