<?xml version="1.0" encoding="UTF-8" standalone="no"?>
<!-- Created with Inkscape (http://www.inkscape.org/) -->

<svg
   width="500"
   height="500"
   viewBox="0 0 132.29166 132.29167"
   version="1.1"
   id="svg5"
   xml:space="preserve"
   xmlns:xlink="http://www.w3.org/1999/xlink"
   xmlns="http://www.w3.org/2000/svg"
   xmlns:svg="http://www.w3.org/2000/svg"><defs
     id="defs2"><linearGradient
       id="linearGradient8144"><stop
         style="stop-color:#0060d1;stop-opacity:1;"
         offset="0"
         id="stop8140" /><stop
         style="stop-color:#298eff;stop-opacity:1;"
         offset="1"
         id="stop8142" /></linearGradient><linearGradient
       id="linearGradient8080"><stop
         style="stop-color:#8a5400;stop-opacity:1;"
         offset="0"
         id="stop8076" /><stop
         style="stop-color:#db8300;stop-opacity:1;"
         offset="1"
         id="stop8078" /></linearGradient><linearGradient
       id="linearGradient3298"><stop
         style="stop-color:#1d1d1b;stop-opacity:1;"
         offset="0"
         id="stop3294" /><stop
         style="stop-color:#62625d;stop-opacity:0.98431373;"
         offset="1"
         id="stop3296" /></linearGradient><linearGradient
       xlink:href="#linearGradient3298"
       id="linearGradient3300"
       x1="-74.249985"
       y1="91.738029"
       x2="-74.991005"
       y2="114.31552"
       gradientUnits="userSpaceOnUse" /><linearGradient
       xlink:href="#linearGradient8080"
       id="linearGradient8082"
       x1="-69.831665"
       y1="58.562454"
       x2="-69.831665"
       y2="82.402473"
       gradientUnits="userSpaceOnUse" /><linearGradient
       xlink:href="#linearGradient8144"
       id="linearGradient8146"
       x1="-78.211456"
       y1="62.781059"
       x2="-59.653866"
       y2="54.333454"
       gradientUnits="userSpaceOnUse" /></defs><g
     id="layer1"><g
       id="g1910"
       transform="matrix(0.11272408,0,0,0.11272408,9.45823,9.5386324)"><path
         d="m 0,0 c 0,0 -0.325,1.994 -0.515,1.976 l -36.182,-3.491 c -2.879,-0.278 -5.115,-2.574 -5.317,-5.459 l -0.994,-14.247 -27.992,-1.997 -1.904,12.912 c -0.424,2.872 -2.932,5.037 -5.835,5.037 h -38.188 c -2.902,0 -5.41,-2.165 -5.834,-5.037 l -1.905,-12.912 -27.992,1.997 -0.994,14.247 c -0.202,2.886 -2.438,5.182 -5.317,5.46 l -36.2,3.49 c -0.187,0.018 -0.324,-1.978 -0.511,-1.978 l -0.049,-7.83 30.658,-4.944 1.004,-14.374 c 0.203,-2.91 2.551,-5.263 5.463,-5.472 l 38.551,-2.75 c 0.146,-0.01 0.29,-0.016 0.434,-0.016 2.897,0 5.401,2.166 5.825,5.038 l 1.959,13.286 h 28.005 l 1.959,-13.286 c 0.423,-2.871 2.93,-5.037 5.831,-5.037 0.142,0 0.284,0.005 0.423,0.015 l 38.556,2.75 c 2.911,0.209 5.26,2.562 5.463,5.472 l 1.003,14.374 30.645,4.966 z"
         fill="#ffffff"
         transform="matrix(4.162611,0,0,-4.162611,919.24059,673.15214)"
         id="path1880" /><path
         d="m 0,0 v -47.514 -6.035 -5.492 c 0.108,-0.001 0.216,-0.005 0.323,-0.015 l 36.196,-3.49 c 1.896,-0.183 3.382,-1.709 3.514,-3.609 l 1.116,-15.978 31.574,-2.253 2.175,14.747 c 0.282,1.912 1.922,3.329 3.856,3.329 h 38.188 c 1.933,0 3.573,-1.417 3.855,-3.329 l 2.175,-14.747 31.575,2.253 1.115,15.978 c 0.133,1.9 1.618,3.425 3.514,3.609 l 36.182,3.49 c 0.107,0.01 0.214,0.014 0.322,0.015 v 4.711 l 0.015,0.005 V 0 c 5.09692,6.4164715 19.71447,20.75868 23.41224,26.713472 -5.651,9.62 -12.575,18.217 -19.976,26.182 C 192.26724,49.440472 175.809,38.262 169.512,34.097 c -3.151,3.132 -6.7,5.694 -10.186,8.372 -3.425,2.751 -4.84458,3.595341 -10.946,7.118 -14.71807,7.427055 -29.90724,10.714941 -45.71108,10.714941 -11.54981,0 -37.167742,0.02435 -55.35092,-10.714941 -3.48625,-2.612047 -7.523,-4.367 -10.949,-7.118 -3.481,-2.678 -7.036,-5.24 -10.188,-8.372 -6.297,4.165 -26.2275572,17.870244 -33.0935572,21.325244 -7.4009998,-7.965 -14.3209998,-16.562 -19.9739998,-26.182 C -22.443899,22.266552 -4.4130298,5.4661124 0,0 Z"
         fill="#478cbf"
         transform="matrix(4.162611,0,0,-4.162611,104.69892,427.38725)"
         id="path1882"
         style="fill:#8a5400;fill-opacity:1" /><path
         d="m 0,0 -1.121,-16.063 c -0.135,-1.936 -1.675,-3.477 -3.611,-3.616 l -38.555,-2.751 c -0.094,-0.007 -0.188,-0.01 -0.281,-0.01 -1.916,0 -3.569,1.406 -3.852,3.33 l -2.211,14.994 H -81.09 l -2.211,-14.994 c -0.297,-2.018 -2.101,-3.469 -4.133,-3.32 l -38.555,2.751 c -1.936,0.139 -3.476,1.68 -3.611,3.616 L -130.721,0 -163.268,3.138 c 0.015,-3.498 0.06,-7.33 0.06,-8.093 0,-34.374 43.605,-50.896 97.781,-51.086 h 0.066 0.067 c 54.176,0.19 97.766,16.712 97.766,51.086 0,0.777 0.047,4.593 0.063,8.093 z"
         fill="#478cbf"
         id="path1884"
         style="fill:#8a5400;fill-opacity:1"
         transform="matrix(4.162611,0,0,-4.162611,784.07144,718.72312)" /><path
         d="m 0,0 c 0,-12.052 -9.765,-21.815 -21.813,-21.815 -12.042,0 -21.81,9.763 -21.81,21.815 0,12.044 9.768,21.802 21.81,21.802 C -9.765,21.802 0,12.044 0,0"
         fill="#ffffff"
         transform="matrix(4.162611,0,0,-4.162611,389.21484,527.15132)"
         id="path1886" /><path
         d="m 0,0 c 0,-7.994 -6.479,-14.473 -14.479,-14.473 -7.996,0 -14.479,6.479 -14.479,14.473 0,7.994 6.483,14.479 14.479,14.479 C -6.479,14.479 0,7.994 0,0"
         fill="#414042"
         transform="matrix(4.162611,0,0,-4.162611,367.36686,532.53707)"
         id="path1888" /><path
         d="m 0,0 c -3.878,0 -7.021,2.858 -7.021,6.381 v 20.081 c 0,3.52 3.143,6.381 7.021,6.381 3.878,0 7.028,-2.861 7.028,-6.381 V 6.381 C 7.028,2.858 3.878,0 0,0"
         fill="#ffffff"
         transform="matrix(4.162611,0,0,-4.162611,511.99336,626.21982)"
         id="path1890" /><path
         d="m 0,0 c 0,-12.052 9.765,-21.815 21.815,-21.815 12.041,0 21.808,9.763 21.808,21.815 0,12.044 -9.767,21.802 -21.808,21.802 C 9.765,21.802 0,12.044 0,0"
         fill="#ffffff"
         transform="matrix(4.162611,0,0,-4.162611,634.78706,527.15132)"
         id="path1892" /><path
         d="m 0,0 c 0,-7.994 6.477,-14.473 14.471,-14.473 8.002,0 14.479,6.479 14.479,14.473 0,7.994 -6.477,14.479 -14.479,14.479 C 6.477,14.479 0,7.994 0,0"
         fill="#414042"
         transform="matrix(4.162611,0,0,-4.162611,656.64056,532.53707)"
         id="path1894" /></g></g><g
     id="layer2"><g
       id="g8166"
       transform="translate(141.08983,-23.267964)"><g
         id="g8150"><path
           style="fill:url(#linearGradient8082);fill-opacity:1;stroke:#000000;stroke-width:3.56424;stroke-linecap:round;stroke-dasharray:none;stroke-opacity:1"
           d="m -122.34506,81.597763 c 0,0 -2.10865,-33.963191 11.17787,-36.481814 9.34095,-1.770688 23.633225,21.121051 23.633225,21.121051 h 27.146263 c 0,0 12.498763,-22.813627 22.196061,-21.121051 13.596245,2.3731 12.934395,36.481814 12.934395,36.481814 z"
           id="path8056" /><path
           style="fill:url(#linearGradient8146);fill-opacity:1;stroke:#000000;stroke-width:1.5875;stroke-linecap:round;stroke-linejoin:round;stroke-dasharray:none;stroke-opacity:1"
           d="m -88.23662,66.887854 16.377401,-32.519517 -6.145182,26.721332 14.130198,-19.550533 -4.772308,21.046188 12.200465,-16.576196 -4.423499,20.788827 c -9.834388,0 -16.795699,0.0899 -27.367075,0.0899 z"
           id="path8138" /></g><g
         id="g8065"
         transform="translate(0,-7.8547904)"><path
           style="fill:url(#linearGradient3300);fill-opacity:1;stroke-width:1.60549;stroke-linecap:round"
           d="m -24.305389,82.845806 c 4.577228,0 1.513932,10.948732 0,16.598805 -1.833588,6.843039 -2.12631,11.115269 -11.030262,11.115269 l -33.33328,0.1482 c -0.836613,-0.11952 2.360117,-15.35694 -5.353492,-15.264964 -6.63491,0.07911 -4.194235,15.754534 -5.063455,15.561374 l -36.364712,0.29641 c -4.95642,0 -7.60767,-6.46953 -8.89221,-11.26348 -1.5179,-5.664891 -5.74436,-16.878185 0,-16.895205 33.345804,-0.0988 65.730313,-0.296409 100.037411,-0.296409 z"
           id="path2136" /><rect
           style="fill:#ffffff;fill-opacity:1;stroke-width:0.802745;stroke-linecap:round"
           id="rect4872"
           width="6.5209579"
           height="19.562874"
           x="-104.87856"
           y="88.181137"
           rx="3.260479"
           ry="2.6262045" /><rect
           style="fill:#ffffff;fill-opacity:1;stroke-width:0.802745;stroke-linecap:round"
           id="rect5808"
           width="6.5209579"
           height="19.562874"
           x="94.702095"
           y="91.836647"
           rx="3.260479"
           ry="2.6262045"
           transform="rotate(90)" /><circle
           style="fill:#ffffff;fill-opacity:1;stroke-width:1.49348;stroke-linecap:round"
           id="circle5864"
           cx="-44.016453"
           cy="104.55763"
           r="2.9640715" /><circle
           style="fill:#ffffff;fill-opacity:1;stroke-width:1.49348;stroke-linecap:round"
           id="circle5872"
           cx="-43.794147"
           cy="91.367516"
           r="2.9640715" /><circle
           style="fill:#ffffff;fill-opacity:1;stroke-width:1.49348;stroke-linecap:round"
           id="circle5874"
           cx="97.851425"
           cy="50.500359"
           r="2.9640715"
           transform="rotate(90)" /><circle
           style="fill:#ffffff;fill-opacity:1;stroke-width:1.49348;stroke-linecap:round"
           id="circle5876"
           cx="98.07373"
           cy="37.310242"
           r="2.9640715"
           transform="rotate(90)" /></g></g></g></svg>
