<?xml version="1.0" encoding="UTF-8"?>
<svg height="128px" viewBox="0 0 128 128" width="128px" xmlns="http://www.w3.org/2000/svg" xmlns:xlink="http://www.w3.org/1999/xlink">
    <filter id="a" height="100%" width="100%" x="0%" y="0%">
        <feColorMatrix in="SourceGraphic" type="matrix" values="0 0 0 0 1 0 0 0 0 1 0 0 0 0 1 0 0 0 1 0"/>
    </filter>
    <mask id="b">
        <g filter="url(#a)">
            <rect fill-opacity="0.3" height="128" width="128"/>
        </g>
    </mask>
    <clipPath id="c">
        <rect height="128" width="128"/>
    </clipPath>
    <clipPath id="d">
        <path d="m 88 80 h 28 v 28 h -28 z m 0 0"/>
    </clipPath>
    <clipPath id="e">
        <path d="m 116 80 l -28 28 h -8 v -36 h 36 z m 0 0"/>
    </clipPath>
    <linearGradient id="f" gradientTransform="matrix(0 0.25 0.25 0 83.000003 8.000003)" gradientUnits="userSpaceOnUse" x1="344" x2="340" y1="76" y2="72">
        <stop offset="0" stop-color="#d5d3cf"/>
        <stop offset="1" stop-color="#ffffff"/>
    </linearGradient>
    <linearGradient id="g" gradientUnits="userSpaceOnUse" x1="7.99975" x2="63.99975" y1="113.999918" y2="113.999918">
        <stop offset="0" stop-color="#2ec27e"/>
        <stop offset="0.0357143" stop-color="#57e389"/>
        <stop offset="0.0714286" stop-color="#2ec27e"/>
        <stop offset="0.928571" stop-color="#2ec27e"/>
        <stop offset="0.964286" stop-color="#57e389"/>
        <stop offset="1" stop-color="#2ec27e"/>
    </linearGradient>
    <mask id="h">
        <g filter="url(#a)">
            <rect fill-opacity="0.1" height="128" width="128"/>
        </g>
    </mask>
    <clipPath id="i">
        <rect height="128" width="128"/>
    </clipPath>
    <mask id="j">
        <g filter="url(#a)">
            <rect fill-opacity="0.104" height="128" width="128"/>
        </g>
    </mask>
    <radialGradient id="k" cx="448.010223" cy="51.543747" gradientTransform="matrix(0.0936395 0 0 0.052856 19.04442 100.149544)" gradientUnits="userSpaceOnUse" r="224">
        <stop offset="0"/>
        <stop offset="1" stop-opacity="0"/>
    </radialGradient>
    <clipPath id="l">
        <rect height="128" width="128"/>
    </clipPath>
    <linearGradient id="m" gradientUnits="userSpaceOnUse">
        <stop offset="0" stop-color="#f9f06b"/>
        <stop offset="0.186734" stop-color="#e5a50a" stop-opacity="0.984314"/>
        <stop offset="0.392857" stop-color="#f5c211" stop-opacity="0.968627"/>
        <stop offset="0.617036" stop-color="#f5c211" stop-opacity="0.956863"/>
        <stop offset="0.855136" stop-color="#e5a50a"/>
        <stop offset="1" stop-color="#f9f06b"/>
    </linearGradient>
    <linearGradient id="n" gradientTransform="matrix(0.228374 0 0 0.22838 44.3843 89.33654)" x1="8" x2="120" xlink:href="#m" y1="236" y2="236"/>
    <linearGradient id="o" gradientTransform="matrix(0.228374 0 0 0.22838 44.3843 87.01458)" x1="8" x2="120" xlink:href="#m" y1="236" y2="236"/>
    <linearGradient id="p" gradientTransform="matrix(0.228374 0 0 0.22838 44.3843 84.692619)" x1="8" x2="120" xlink:href="#m" y1="236" y2="236"/>
    <linearGradient id="q" gradientTransform="matrix(0.149387 0.149387 -0.149387 0.149387 84.545354 54.202232)" gradientUnits="userSpaceOnUse" x1="139.477295" x2="25.039328" y1="259.588104" y2="189.370285">
        <stop offset="0" stop-color="#f5c211"/>
        <stop offset="1" stop-color="#f6d32d"/>
    </linearGradient>
    <path d="m 108 116 h -88 c -4.417969 0 -8 -4.234375 -8 -9.453125 v -77.09375 c 0 -5.21875 3.582031 -9.453125 8 -9.453125 h 88 c 4.417969 0 8 4.234375 8 9.453125 v 77.09375 c 0 5.21875 -3.582031 9.453125 -8 9.453125 z m 0 0" fill="#e01b24"/>
    <path d="m 108 114 h -88 c -4.417969 0 -8 -4.234375 -8 -9.453125 v -77.09375 c 0 -5.21875 3.582031 -9.453125 8 -9.453125 h 88 c 4.417969 0 8 4.234375 8 9.453125 v 77.09375 c 0 5.21875 -3.582031 9.453125 -8 9.453125 z m 0 0" fill="#d5d3cf"/>
    <path d="m 108 108 h -88 c -4.417969 0 -8 -3.582031 -8 -8 v -80 c 0 -4.417969 3.582031 -8 8 -8 h 88 c 4.417969 0 8 3.582031 8 8 v 80 c 0 4.417969 -3.582031 8 -8 8 z m 0 0" fill="#f6f5f4"/>
    <g clip-path="url(#c)" fill="none" mask="url(#b)" stroke-width="2">
        <g stroke="#d5d3cf">
            <path d="m 27.999997 201.999997 h 72" transform="matrix(1 0 0 1 0.000003 -172.999997)"/>
            <path d="m 27.999997 211.999997 h 72" transform="matrix(1 0 0 1 0.000003 -172.999997)"/>
            <path d="m 27.999997 221.999997 h 72" transform="matrix(1 0 0 1 0.000003 -172.999997)"/>
            <path d="m 27.999997 231.999997 h 72" transform="matrix(1 0 0 1 0.000003 -172.999997)"/>
            <path d="m 27.999997 241.999997 h 72" transform="matrix(1 0 0 1 0.000003 -172.999997)"/>
            <path d="m 27.999997 251.999997 h 72" transform="matrix(1 0 0 1 0.000003 -172.999997)"/>
            <path d="m 27.999997 261.999997 h 72" transform="matrix(1 0 0 1 0.000003 -172.999997)"/>
        </g>
        <path d="m 27.999997 271.999997 h 66" stroke="#5e5c64" transform="matrix(1 0 0 1 0.000003 -172.999997)"/>
        <path d="m 93.999997 195.999997 v 72" stroke="#d5d3cf" transform="matrix(1 0 0 1 0.000003 -172.999997)"/>
        <path d="m 83.999997 195.999997 v 72" stroke="#d5d3cf" transform="matrix(1 0 0 1 0.000003 -172.999997)"/>
        <path d="m 73.999997 195.999997 v 72" stroke="#d5d3cf" transform="matrix(1 0 0 1 0.000003 -172.999997)"/>
        <path d="m 63.999997 195.999997 v 72" stroke="#d5d3cf" transform="matrix(1 0 0 1 0.000003 -172.999997)"/>
        <path d="m 53.999997 195.999997 v 72" stroke="#d5d3cf" transform="matrix(1 0 0 1 0.000003 -172.999997)"/>
        <path d="m 43.999997 195.999997 v 72" stroke="#d5d3cf" transform="matrix(1 0 0 1 0.000003 -172.999997)"/>
        <path d="m 33.999997 195.999997 v 72" stroke="#d5d3cf" transform="matrix(1 0 0 1 0.000003 -172.999997)"/>
        <path d="m 23.999997 195.999997 v 66" stroke="#5e5c64" transform="matrix(1 0 0 1 0.000003 -172.999997)"/>
    </g>
    <g clip-path="url(#d)">
        <g clip-path="url(#e)">
            <path d="m 88 88 v 20 c 0 4.417969 3.582031 8 8 8 h 20 c 4.417969 0 8 -3.582031 8 -8 v -20 c 0 -4.417969 -3.582031 -8 -8 -8 h -20 c -4.417969 0 -8 3.582031 -8 8 z m 0 0" fill="url(#f)"/>
        </g>
    </g>
    <path d="m 12 88 h 48 c 2.210938 0 4 1.789062 4 4 v 22 c 0 2.210938 -1.789062 4 -4 4 h -48 c -2.210938 0 -4 -1.789062 -4 -4 v -22 c 0 -2.210938 1.789062 -4 4 -4 z m 0 0" fill="url(#g)"/>
    <path d="m 12 73 h 48 c 2.210938 0 4 1.789062 4 4 v 22 c 0 2.210938 -1.789062 4 -4 4 h -48 c -2.210938 0 -4 -1.789062 -4 -4 v -22 c 0 -2.210938 1.789062 -4 4 -4 z m 0 0" fill="#57e389"/>
    <path d="m 12 77 h 48 v 22 h -48 z m 0 0" fill="#2ec27e"/>
    <g fill="#57e389">
        <path d="m 43 88 c 0 3.867188 -3.132812 7 -7 7 s -7 -3.132812 -7 -7 s 3.132812 -7 7 -7 s 7 3.132812 7 7 z m 0 0"/>
        <path d="m 16 77 c 0 2.210938 -1.792969 4 -4 4 c -2.210938 0 -4 -1.789062 -4 -4 s 1.789062 -4 4 -4 c 2.207031 0 4 1.789062 4 4 z m 0 0"/>
        <path d="m 16 99 c 0 2.210938 -1.792969 4 -4 4 c -2.210938 0 -4 -1.789062 -4 -4 s 1.789062 -4 4 -4 c 2.207031 0 4 1.789062 4 4 z m 0 0"/>
        <path d="m 64 77 c 0 2.210938 -1.789062 4 -4 4 s -4 -1.789062 -4 -4 s 1.789062 -4 4 -4 s 4 1.789062 4 4 z m 0 0"/>
        <path d="m 64 99 c 0 2.210938 -1.789062 4 -4 4 s -4 -1.789062 -4 -4 s 1.789062 -4 4 -4 s 4 1.789062 4 4 z m 0 0"/>
        <path d="m 27 83 h 18 c 1.65625 0 3 1.34375 3 3 v 4 c 0 1.65625 -1.34375 3 -3 3 h -18 c -1.65625 0 -3 -1.34375 -3 -3 v -4 c 0 -1.65625 1.34375 -3 3 -3 z m 0 0"/>
    </g>
    <g clip-path="url(#i)" mask="url(#h)">
        <path d="m 59 96 c -2.210938 0 -4.699219 1.902344 -4 4 l 1 3 l 7 -7 z m 0 0"/>
    </g>
    <path d="m 60 95 c -2.210938 0 -4 1.789062 -4 4 v 4 l 8 -8 z m 0 0" fill="#8ff0a4"/>
    <g clip-path="url(#l)" mask="url(#j)">
        <path d="m 8 99 v 1 c 0 2.214844 1.785156 4 4 4 h 48 c 2.214844 0 4 -1.785156 4 -4 v -1 c 0 2.214844 -1.785156 4 -4 4 h -48 c -2.214844 0 -4 -1.785156 -4 -4 z m 0 2 v 1 c 0 2.214844 1.785156 4 4 4 h 48 c 2.214844 0 4 -1.785156 4 -4 v -1 c 0 2.214844 -1.785156 4 -4 4 h -48 c -2.214844 0 -4 -1.785156 -4 -4 z m 0 2 v 1 c 0 2.214844 1.785156 4 4 4 h 48 c 2.214844 0 4 -1.785156 4 -4 v -1 c 0 2.214844 -1.785156 4 -4 4 h -48 c -2.214844 0 -4 -1.785156 -4 -4 z m 0 2 v 1 c 0 2.214844 1.785156 4 4 4 h 48 c 2.214844 0 4 -1.785156 4 -4 v -1 c 0 2.214844 -1.785156 4 -4 4 h -48 c -2.214844 0 -4 -1.785156 -4 -4 z m 0 2 v 1 c 0 2.214844 1.785156 4 4 4 h 48 c 2.214844 0 4 -1.785156 4 -4 v -1 c 0 2.214844 -1.785156 4 -4 4 h -48 c -2.214844 0 -4 -1.785156 -4 -4 z m 0 2 v 1 c 0 2.214844 1.785156 4 4 4 h 48 c 2.214844 0 4 -1.785156 4 -4 v -1 c 0 2.214844 -1.785156 4 -4 4 h -48 c -2.214844 0 -4 -1.785156 -4 -4 z m 0 2 v 1 c 0 2.214844 1.785156 4 4 4 h 48 c 2.214844 0 4 -1.785156 4 -4 v -1 c 0 2.214844 -1.785156 4 -4 4 h -48 c -2.214844 0 -4 -1.785156 -4 -4 z m 0 2 v 1 c 0 2.214844 1.785156 4 4 4 h 48 c 2.214844 0 4 -1.785156 4 -4 v -1 c 0 2.214844 -1.785156 4 -4 4 h -48 c -2.214844 0 -4 -1.785156 -4 -4 z m 0 0" fill="url(#k)"/>
    </g>
    <path d="m 59 90.835938 c 7 0 12.675781 5.675781 12.675781 12.675781 v 1.8125 c 0 7 -5.675781 12.675781 -12.675781 12.675781 s -12.675781 -5.675781 -12.675781 -12.675781 v -1.8125 c 0 -7 5.675781 -12.675781 12.675781 -12.675781 z m 0 0" fill="url(#n)"/>
    <path d="m 46.328125 103.226562 c -0.058594 3.320313 1.175781 6.65625 3.707031 9.191407 c 4.953125 4.949219 12.976563 4.949219 17.925782 0 c 2.535156 -2.535157 3.769531 -5.871094 3.710937 -9.191407 c -0.058594 3.167969 -1.289063 6.320313 -3.710937 8.738282 c -4.949219 4.949218 -12.972657 4.949218 -17.925782 0 c -2.414062 -2.417969 -3.648437 -5.570313 -3.707031 -8.738282 z m 0 0" fill="#ffffff" fill-opacity="0.2"/>
    <path d="m 59 88.515625 c 7 0 12.675781 5.675781 12.675781 12.675781 v 1.808594 c 0 7.003906 -5.675781 12.679688 -12.675781 12.679688 s -12.675781 -5.675782 -12.675781 -12.679688 v -1.808594 c 0 -7 5.675781 -12.675781 12.675781 -12.675781 z m 0 0" fill="url(#o)"/>
    <path d="m 46.328125 100.90625 c -0.058594 3.320312 1.175781 6.65625 3.707031 9.1875 c 4.953125 4.953125 12.976563 4.953125 17.925782 0 c 2.535156 -2.53125 3.769531 -5.867188 3.710937 -9.1875 c -0.058594 3.167969 -1.289063 6.320312 -3.710937 8.734375 c -4.949219 4.953125 -12.972657 4.953125 -17.925782 0 c -2.414062 -2.414063 -3.648437 -5.566406 -3.707031 -8.734375 z m 0 0" fill="#ffffff" fill-opacity="0.2"/>
    <path d="m 59 86.191406 c 7 0 12.675781 5.675782 12.675781 12.675782 v 1.8125 c 0 7 -5.675781 12.675781 -12.675781 12.675781 s -12.675781 -5.675781 -12.675781 -12.675781 v -1.8125 c 0 -7 5.675781 -12.675782 12.675781 -12.675782 z m 0 0" fill="url(#p)"/>
    <path d="m 67.960938 107.832031 c -4.949219 4.949219 -12.972657 4.949219 -17.925782 0 c -4.949218 -4.949219 -4.949218 -12.976562 0 -17.925781 c 4.953125 -4.953125 12.976563 -4.953125 17.925782 0 c 4.953124 4.949219 4.953124 12.976562 0 17.925781 z m 0 0" fill="url(#q)"/>
    <path d="m 59 88.566406 c -5.6875 0 -10.300781 4.613282 -10.300781 10.300782 c 0 5.691406 4.613281 10.304687 10.300781 10.304687 s 10.300781 -4.613281 10.300781 -10.304687 c 0 -5.6875 -4.613281 -10.300782 -10.300781 -10.300782 z m 0 2.574219 c 4.265625 0 7.726562 3.460937 7.726562 7.726563 c 0 4.265624 -3.460937 7.726562 -7.726562 7.726562 s -7.726562 -3.460938 -7.726562 -7.726562 c 0 -4.265626 3.460937 -7.726563 7.726562 -7.726563 z m 0 0" fill="#e5a50a"/>
    <path d="m 57.710938 92.429688 v 1.199218 c -1.886719 0.335938 -2.988282 1.457032 -2.988282 3.132813 c 0 1.527343 0.9375 2.554687 2.632813 2.851562 l 2.289062 0.402344 c 1.035157 0.175781 1.4375 0.457031 1.4375 1.042969 c 0 0.636718 -0.699219 1.007812 -1.871093 1.007812 c -1.203126 0 -2.199219 -0.414062 -3.460938 -1.441406 l -1.429688 1.855469 c 0.957032 0.816406 2.15625 1.375 3.390626 1.613281 v 1.214844 h 2.578124 v -1.1875 c 2.066407 -0.34375 3.292969 -1.546875 3.292969 -3.316406 c 0 -1.609376 -1.054687 -2.628907 -3.0625 -2.957032 l -2.152343 -0.355468 c -0.882813 -0.152344 -1.234376 -0.410157 -1.234376 -0.925782 c 0 -0.566406 0.632813 -0.90625 1.675782 -0.90625 c 1.101562 0 2.097656 0.386719 3.199218 1.230469 l 1.347657 -1.886719 c -0.828125 -0.667968 -1.929688 -1.144531 -3.066407 -1.355468 v -1.21875 z m 0 0" fill="#e5a50a"/>
    <path d="m 46.328125 98.585938 c -0.058594 3.316406 1.175781 6.65625 3.707031 9.1875 c 4.953125 4.949218 12.976563 4.949218 17.925782 0 c 2.535156 -2.53125 3.769531 -5.871094 3.710937 -9.1875 c -0.058594 3.167968 -1.289063 6.316406 -3.710937 8.734374 c -4.949219 4.953126 -12.972657 4.953126 -17.925782 0 c -2.414062 -2.417968 -3.648437 -5.566406 -3.707031 -8.734374 z m 0 0" fill="#ffffff" fill-opacity="0.2"/>
    <path d="m 28 69 l 16 -20 l 10 10 l 10 -20 l 10 10 l 10 -26" fill="none" stroke="#e01b24" stroke-width="3"/>
</svg>
