<?xml version="1.0" encoding="UTF-8" standalone="no"?>
<svg
   xmlns:dc="http://purl.org/dc/elements/1.1/"
   xmlns:cc="http://creativecommons.org/ns#"
   xmlns:rdf="http://www.w3.org/1999/02/22-rdf-syntax-ns#"
   xmlns:svg="http://www.w3.org/2000/svg"
   xmlns="http://www.w3.org/2000/svg"
   width="16"
   height="16"
   viewBox="0 0 4.2333332 4.2333335"
   version="1.1"
   id="svg1328">
  <defs
     id="defs1322" />
  <metadata
     id="metadata1325">
    <rdf:RDF>
      <cc:Work
         rdf:about="">
        <dc:format>image/svg+xml</dc:format>
        <dc:type
           rdf:resource="http://purl.org/dc/dcmitype/StillImage" />
        <dc:title></dc:title>
      </cc:Work>
    </rdf:RDF>
  </metadata>
  <path
     id="rect1181-5"
     transform="scale(0.26458333)"
     d="M 1 0 L 1 16 L 3 16 L 3 14 L 13.5 14 C 13.777002 14 14 13.777039 14 13.5 L 14 9.5 C 14 9.2229606 13.777 9 13.5 9 L 3 9 L 3 8 L 10.5 8 C 10.777002 8 11 7.7770016 11 7.5 L 11 3.5 C 11 3.2229606 10.777 3 10.5 3 L 3 3 L 3 0 L 1 0 z M 3 4 L 10 4 L 10 7 L 3 7 L 3 4 z M 3 10 L 13 10 L 13 13 L 3 13 L 3 10 z "
     style="opacity:1;vector-effect:none;fill:#555761;fill-opacity:1;stroke:none;stroke-width:0.99999994;stroke-linecap:butt;stroke-linejoin:round;stroke-miterlimit:3;stroke-dasharray:none;stroke-dashoffset:0;stroke-opacity:1;marker:none;paint-order:normal" />
  <path
     id="path41-2-3-6-5-4"
     d="M 0.52916666,1.05833 V 1.85208 H 2.6458333 V 1.05833 Z m 0,1.5875 V 3.43958 H 3.4395833 V 2.64583 Z"
     style="opacity:0.1;fill:#555761;fill-opacity:0.93140791;stroke:none;stroke-width:0.26458329;stroke-linejoin:round;stroke-miterlimit:3" />
</svg>
