<?xml version="1.0" encoding="UTF-8" standalone="no"?>
<svg
   xmlns:dc="http://purl.org/dc/elements/1.1/"
   xmlns:cc="http://creativecommons.org/ns#"
   xmlns:rdf="http://www.w3.org/1999/02/22-rdf-syntax-ns#"
   xmlns:svg="http://www.w3.org/2000/svg"
   xmlns="http://www.w3.org/2000/svg"
   id="svg1328"
   version="1.1"
   viewBox="0 0 4.2333332 4.2333335"
   height="16"
   width="16">
  <defs
     id="defs1322" />
  <metadata
     id="metadata1325">
    <rdf:RDF>
      <cc:Work
         rdf:about="">
        <dc:format>image/svg+xml</dc:format>
        <dc:type
           rdf:resource="http://purl.org/dc/dcmitype/StillImage" />
        <dc:title></dc:title>
      </cc:Work>
    </rdf:RDF>
  </metadata>
  <path
     id="rect941"
     transform="scale(0.26458333)"
     d="M 5 0 L 5 1 L 0.5 1 C 0.22300002 1 0 1.223 0 1.5 L 0 5.5 C 3.7007433e-17 5.777 0.22300002 6 0.5 6 L 5 6 L 5 16 L 7 16 L 7 14 L 15.5 14 C 15.777002 14 16 13.777038 16 13.5 L 16 9.5 C 16 9.2229606 15.777 9 15.5 9 L 7 9 L 7 8 L 12.5 8 C 12.777002 8 13 7.7770001 13 7.5 L 13 3.5 C 13 3.2229606 12.777 3 12.5 3 L 7 3 L 7 0 L 5 0 z M 1 2 L 5 2 L 5 5 L 1 5 L 1 2 z M 7 4 L 12 4 L 12 7 L 7 7 L 7 4 z M 7 10 L 15 10 L 15 13 L 7 13 L 7 10 z "
     style="opacity:1;vector-effect:none;fill:#555761;fill-opacity:1;stroke:none;stroke-width:0.99999982;stroke-linecap:butt;stroke-linejoin:round;stroke-miterlimit:3;stroke-dasharray:none;stroke-dashoffset:0;stroke-opacity:1;marker:none;paint-order:normal" />
  <rect
     ry="0"
     rx="0"
     y="0.5291667"
     x="0.26458335"
     height="0.79374999"
     width="1.3229166"
     id="rect941-3"
     style="opacity:0.3;vector-effect:none;fill:#555761;fill-opacity:0.93140791;stroke:none;stroke-width:0.26458329;stroke-linecap:butt;stroke-linejoin:round;stroke-miterlimit:3;stroke-dasharray:none;stroke-dashoffset:0;stroke-opacity:1;marker:none;paint-order:normal;font-variant-east_asian:normal" />
  <path
     style="opacity:0.1;fill:#555761;fill-opacity:0.93140791;stroke:none;stroke-width:0.26458329;stroke-linejoin:round;stroke-miterlimit:3"
     d="M 1.5875,1.05833 V 1.85208 H 3.1749999 V 1.05833 Z m 0,1.5875 V 3.4395799 H 3.9687499 V 2.64583 Z"
     id="path41-2-3-6-5-4" />
</svg>
