<?xml version="1.0" encoding="UTF-8" standalone="no"?>
<svg
   version="1.1"
   id="Layer_1"
   x="0px"
   y="0px"
   width="100%"
   viewBox="0 0 128 128"
   enable-background="new 0 0 128 128"
   xml:space="preserve"
   sodipodi:docname="icon128.svg"
   inkscape:version="1.4 (e7c3feb100, 2024-10-09)"
   xmlns:inkscape="http://www.inkscape.org/namespaces/inkscape"
   xmlns:sodipodi="http://sodipodi.sourceforge.net/DTD/sodipodi-0.dtd"
   xmlns="http://www.w3.org/2000/svg"
   xmlns:svg="http://www.w3.org/2000/svg"><defs
   id="defs128" /><sodipodi:namedview
   id="namedview128"
   pagecolor="#ffffff"
   bordercolor="#000000"
   borderopacity="0.25"
   inkscape:showpageshadow="2"
   inkscape:pageopacity="0.0"
   inkscape:pagecheckerboard="0"
   inkscape:deskcolor="#d1d1d1"
   inkscape:zoom="9.2578125"
   inkscape:cx="63.945992"
   inkscape:cy="64"
   inkscape:window-width="5120"
   inkscape:window-height="1403"
   inkscape:window-x="0"
   inkscape:window-y="0"
   inkscape:window-maximized="1"
   inkscape:current-layer="Layer_1" />
<path
   fill="#232145"
   opacity="1.000000"
   stroke="none"
   d=" M48.000000,129.000000   C39.979099,129.000000 31.958199,129.000000 23.180822,128.811432   C19.610270,126.756355 16.796190,124.889847 14.220946,122.838425   C15.690106,118.547081 12.869461,115.886673 11.118881,112.743179   C8.947119,108.843376 6.357403,108.587517 2.822849,110.728004   C2.091416,109.310814 1.545709,108.155411 1.000001,107.000000   C1.000000,99.979050 1.000000,92.958107 1.388457,85.452141   C5.783328,84.789917 6.261254,82.323692 5.670024,79.073433   C5.321679,77.158424 4.802722,75.189507 4.957853,73.293716   C5.090946,71.667259 6.072902,70.110260 6.679467,68.522545   C8.224834,69.204163 9.729444,70.013794 11.329617,70.523293   C12.432207,70.874367 14.080441,71.332840 14.745366,70.807457   C15.724795,70.033569 16.517696,68.426964 16.520296,67.173248   C16.523170,65.787270 15.545284,64.399269 15.390180,63.024307   C17.161655,64.268967 19.156136,65.261002 19.752911,66.796326   C20.459980,68.615395 19.962337,70.902733 19.707401,73.175949   C17.959240,75.905479 16.490519,78.446175 15.015065,81.438126   C15.006213,84.592285 15.004095,87.295197 14.965552,90.365585   C13.563983,92.782196 12.198839,94.831314 11.048155,96.558525   C12.271683,98.071091 14.322297,99.507507 14.319265,100.939575   C14.316702,102.150482 11.935314,103.356346 10.478098,104.681404   C12.280527,105.780739 15.007993,106.651611 15.034103,107.597084   C15.148529,111.740410 18.521313,111.890388 20.909948,113.304001   C22.613731,114.312317 25.187145,114.984413 25.816177,116.466904   C27.850531,121.261383 31.962784,121.373413 36.264099,122.245697   C39.119255,123.320625 41.849018,123.874908 44.231880,125.102539   C45.753391,125.886398 46.761635,127.666534 48.000000,129.000000  z"
   id="path1" />
<path
   fill="#272453"
   opacity="1.000000"
   stroke="none"
   d=" M48.468658,129.000000   C46.761635,127.666534 45.753391,125.886398 44.231880,125.102539   C41.849018,123.874908 39.119255,123.320625 36.169968,121.920486   C32.595562,118.280785 29.755678,114.633110 26.090397,112.260597   C21.032862,108.986893 19.002359,104.680214 19.337799,99.101395   C20.684656,100.437309 22.207180,101.520393 22.615084,102.926773   C23.790884,106.980713 25.719738,109.449585 29.565630,108.146317   C31.088243,110.726685 31.858095,113.679085 33.734531,114.834801   C36.736645,116.683830 40.511841,117.239914 43.884361,118.539459   C45.910900,119.320335 48.316483,120.026794 49.627934,121.557945   C52.081005,124.421936 53.863415,123.547134 55.645237,121.284561   C56.654545,120.002922 57.241669,118.388802 58.353226,117.062637   C62.841202,120.910500 66.618347,120.649658 70.448822,116.509430   C71.414070,115.466125 73.433319,115.397995 75.027405,115.216843   C74.364883,116.725441 73.847641,118.132980 72.856895,118.998482   C72.062279,119.692642 70.440636,119.439003 69.644051,120.132278   C68.684059,120.967773 68.208191,122.359558 67.522758,123.510529   C68.665588,123.867493 69.787193,124.397102 70.956245,124.540855   C72.703392,124.755707 74.502151,124.886475 76.246330,124.717110   C79.463577,124.404686 82.954781,124.510460 85.789772,123.236092   C89.889671,121.393143 93.535027,118.114357 96.706894,125.361694   C97.023430,123.635849 97.227776,123.008865 97.239723,122.378227   C97.323105,117.974915 97.888664,114.135910 103.867027,114.575981   C104.685883,114.636261 106.483315,112.856071 106.380714,112.133423   C105.682289,107.214081 110.178894,105.376183 111.999863,102.469597   C112.000214,108.289551 112.000412,113.642052 111.697510,119.148407   C108.596268,122.534843 105.798141,125.767426 103.000000,129.000000   C84.979103,129.000000 66.958214,129.000000 48.468658,129.000000  z"
   id="path2" />
<path
   fill="#1D1A36"
   opacity="1.000000"
   stroke="none"
   d=" M1.000000,49.000000   C1.000000,45.637897 1.000000,42.275799 1.366322,38.421516   C3.730212,36.483696 5.727779,35.038055 7.725348,33.592415   C10.455787,32.955360 14.655109,32.129910 15.080779,30.384260   C16.664442,23.889748 9.457409,28.697878 7.531152,25.176296   C8.772609,24.380108 9.924767,23.581926 11.133113,22.880547   C12.818903,21.902037 14.565791,21.028708 16.250427,20.048325   C17.590979,19.268181 18.905724,18.435726 20.178637,17.549923   C21.134638,16.884655 22.695719,16.184462 22.800457,15.350706   C23.375452,10.773624 26.570349,9.158007 30.278927,7.660339   C32.341877,6.827241 34.102070,5.244447 36.172646,4.289392   C35.222160,6.762746 34.097740,8.946238 32.865273,11.339540   C37.431126,15.272565 37.358669,16.831259 31.277479,21.756094   C32.226738,22.857328 33.168705,23.950106 33.971088,25.347637   C32.502110,26.767128 31.172714,27.881863 29.549732,29.151722   C27.616655,30.365400 25.881294,31.304056 24.364937,32.516590   C22.880608,33.703514 20.649149,35.044193 20.456215,36.538277   C20.013659,39.965427 18.658699,41.893150 15.412745,42.993130   C14.384953,43.341423 13.787324,44.959103 12.687215,46.138626   C9.920595,47.522125 7.459597,48.762867 4.680685,49.866539   C3.241848,49.486309 2.120924,49.243156 1.000000,49.000000  M30.205961,17.691385   C30.400200,17.358501 30.594439,17.025618 30.788679,16.692736   C30.253048,16.695078 29.717417,16.697422 29.181786,16.699766   C29.380974,17.030451 29.580162,17.361135 30.205961,17.691385  z"
   id="path3" />
<path
   fill="#201B3C"
   opacity="1.000000"
   stroke="none"
   d=" M42.000000,1.000000   C60.354229,1.000000 78.708458,1.000000 97.592361,1.342054   C99.534775,4.704992 101.184441,4.505341 103.352921,2.044484   C104.800598,2.370770 105.895927,2.695591 106.850021,3.317245   C104.808121,5.406546 102.907463,7.199013 100.935425,8.631603   C99.404182,7.645027 97.976929,6.604036 96.477043,6.486003   C94.057350,6.295588 91.441254,7.309853 89.174446,6.745525   C84.898857,5.681109 81.549385,6.247807 78.946304,9.650060   C76.074455,5.664214 75.448555,5.578008 73.308777,8.889795   C75.285881,9.276855 77.140953,9.640028 78.893127,10.295612   C77.746742,12.381145 77.074562,13.957917 79.694374,15.200745   C80.681328,15.668945 81.241699,17.036346 81.824844,18.196585   C81.433662,18.879173 81.214172,19.359007 80.646393,19.792267   C77.543159,18.466028 74.788223,17.186365 71.882721,15.599513   C70.147438,14.469666 68.562729,13.647009 66.822189,12.677166   C66.451622,12.339844 66.218506,12.175819 65.982590,12.019878   C65.998169,12.001850 65.961632,12.032484 65.861961,11.692318   C62.842400,7.532664 59.526703,6.905255 55.853291,10.251459   C53.833511,12.091326 51.946854,14.077336 49.998985,15.578363   C50.051411,10.436014 49.235481,6.268626 44.153111,4.154405   C43.168407,3.744778 42.704269,2.083769 42.000000,1.000000  z"
   id="path4" />
<path
   fill="#1A1730"
   opacity="1.000000"
   stroke="none"
   d=" M35.998707,3.999528   C34.102070,5.244447 32.341877,6.827241 30.278927,7.660339   C26.570349,9.158007 23.375452,10.773624 22.800457,15.350706   C22.695719,16.184462 21.134638,16.884655 20.178637,17.549923   C18.905724,18.435726 17.590979,19.268181 16.250427,20.048325   C14.565791,21.028708 12.818903,21.902037 11.133113,22.880547   C9.924767,23.581926 8.772609,24.380108 7.531152,25.176296   C9.457409,28.697878 16.664442,23.889748 15.080779,30.384260   C14.655109,32.129910 10.455787,32.955360 7.725348,33.592415   C5.727779,35.038055 3.730212,36.483696 1.366322,37.964668   C1.000000,33.310745 1.000000,28.621489 1.208686,23.200748   C7.118794,11.400895 15.625303,3.805708 28.000000,1.000000   C30.370558,1.000000 32.741116,1.000000 35.555450,1.374948   C35.999054,2.499774 35.998882,3.249651 35.998707,3.999528  z"
   id="path5" />
<path
   fill="#322752"
   opacity="1.000000"
   stroke="none"
   d=" M129.000000,37.000000   C129.000000,41.689255 129.000000,46.378513 128.644196,51.455925   C126.860580,51.561935 125.432785,51.279797 123.980362,50.668793   C123.870461,49.025970 124.158104,47.523289 123.611343,46.442867   C122.817451,44.874104 121.628990,42.846657 120.215141,42.462093   C119.120064,42.164238 117.421875,44.083702 115.827408,44.832329   C114.916138,44.362286 114.144287,44.128792 113.428078,43.780769   C112.281815,43.223778 111.172455,42.590824 110.226639,41.653130   C110.808823,38.583797 111.598106,35.838440 111.507614,33.122395   C111.414894,30.339603 110.294167,27.943686 106.931946,30.651667   C106.227219,28.225172 104.572296,25.725441 105.197540,24.106102   C106.592003,20.494518 106.508080,17.973454 102.841835,15.828539   C102.476097,15.411839 102.246384,15.194402 102.273483,14.812988   C103.693558,13.751546 104.840996,12.870801 106.212311,11.812778   C106.960373,11.415133 107.484543,11.194764 107.939285,11.309599   C108.069359,12.923300 107.833702,14.591895 108.558037,15.399922   C110.115768,17.137625 112.167847,18.432178 113.885178,20.209194   C112.646645,21.428818 111.540489,22.347368 109.807449,23.786493   C111.495148,24.949566 112.569405,25.689886 113.643661,26.430206   C114.427559,24.956381 115.211464,23.482555 116.410698,22.007883   C118.813004,22.137474 120.799965,22.267912 121.870308,22.338177   C120.890602,24.905418 118.858261,27.811745 119.561310,28.830658   C121.913460,32.239586 123.617119,36.936501 129.000000,37.000000  z"
   id="path6" />
<path
   fill="#292752"
   opacity="1.000000"
   stroke="none"
   d=" M112.000610,118.994545   C112.000412,113.642052 112.000214,108.289551 112.124969,102.144394   C113.166710,98.901657 114.083511,96.451591 115.300842,93.844177   C116.065987,92.457306 116.530602,91.227783 117.273254,89.797470   C119.601692,86.380562 122.034721,83.336021 123.578690,79.892815   C124.765892,77.245224 126.116234,75.816170 129.000000,76.000000   C129.000000,83.687576 129.000000,91.375153 128.822266,99.683655   C128.417709,100.519630 128.208038,100.750244 127.612091,101.000320   C122.813370,101.018456 120.112373,102.613098 118.578880,107.291237   C117.446159,110.746735 113.635216,113.232483 114.357864,117.669212   C114.407654,117.974899 112.824417,118.546570 112.000610,118.994545  z"
   id="path7" />
<path
   fill="#2E2A5B"
   opacity="1.000000"
   stroke="none"
   d=" M129.000000,75.531364   C126.116234,75.816170 124.765892,77.245224 123.578690,79.892815   C122.034721,83.336021 119.601692,86.380562 117.095245,89.499763   C116.588234,88.308144 116.044617,86.715317 116.566162,86.199493   C119.982231,82.820984 117.659462,80.920708 115.081078,78.657898   C116.142738,73.420227 119.189194,74.433792 122.241333,76.194466   C123.196831,73.022102 117.904442,63.055744 115.018990,61.589783   C115.012840,60.129978 115.011574,59.068192 115.184975,57.783844   C115.578278,57.043152 115.796913,56.525017 116.364433,55.905525   C119.143875,54.202000 121.574432,52.599827 124.004990,50.997654   C125.432785,51.279797 126.860580,51.561935 128.644196,51.922039   C129.000000,59.687576 129.000000,67.375153 129.000000,75.531364  z"
   id="path8" />
<path
   fill="#1F1D42"
   opacity="1.000000"
   stroke="none"
   d=" M4.998599,50.003613   C7.459597,48.762867 9.920595,47.522125 13.069157,46.104164   C17.212639,45.573135 20.696012,42.754047 24.076900,46.272522   C24.042425,46.502789 24.109377,46.963623 23.721384,47.001472   C15.366858,47.095016 12.038115,53.316650 7.680943,59.771740   C9.995874,60.797409 12.495209,61.904778 14.994543,63.012146   C15.545284,64.399269 16.523170,65.787270 16.520296,67.173248   C16.517696,68.426964 15.724795,70.033569 14.745366,70.807457   C14.080441,71.332840 12.432207,70.874367 11.329617,70.523293   C9.729444,70.013794 8.224834,69.204163 6.679467,68.522545   C6.072902,70.110260 5.090946,71.667259 4.957853,73.293716   C4.802722,75.189507 5.321679,77.158424 5.670024,79.073433   C6.261254,82.323692 5.783328,84.789917 1.388457,84.983566   C1.000000,77.645752 1.000000,70.291496 1.059576,62.348465   C1.198077,61.491756 1.158360,61.238529 1.000000,61.000000   C1.000000,60.555553 1.000000,60.111111 1.321028,59.199718   C2.760904,55.823051 3.879751,52.913334 4.998599,50.003613  z"
   id="path9" />
<path
   fill="#201B39"
   opacity="1.000000"
   stroke="none"
   d=" M36.172646,4.289392   C35.998882,3.249651 35.999054,2.499774 35.999611,1.374948   C37.714359,1.000000 39.428715,1.000000 41.571537,1.000000   C42.704269,2.083769 43.168407,3.744778 44.153111,4.154405   C49.235481,6.268626 50.051411,10.436014 49.879795,15.771870   C49.875801,16.934263 49.989803,17.484058 49.930916,18.355652   C44.542236,20.799261 39.326454,22.921070 34.110672,25.042881   C33.168705,23.950106 32.226738,22.857328 31.277479,21.756094   C37.358669,16.831259 37.431126,15.272565 32.865273,11.339540   C34.097740,8.946238 35.222160,6.762746 36.172646,4.289392  z"
   id="path10" />
<path
   fill="#26244A"
   opacity="1.000000"
   stroke="none"
   d=" M111.697510,119.148407   C112.824417,118.546570 114.407654,117.974899 114.357864,117.669212   C113.635216,113.232483 117.446159,110.746735 118.578880,107.291237   C120.112373,102.613098 122.813370,101.018456 127.611603,101.420227   C127.160568,104.991020 126.746002,108.353760 125.369713,111.261261   C121.359253,119.733635 114.581749,125.405464 106.000000,129.000000   C105.250000,129.000000 104.500000,129.000000 103.375000,129.000000   C105.798141,125.767426 108.596268,122.534843 111.697510,119.148407  z"
   id="path11" />
<path
   fill="#2C2346"
   opacity="1.000000"
   stroke="none"
   d=" M114.017570,19.908121   C112.167847,18.432178 110.115768,17.137625 108.558037,15.399922   C107.833702,14.591895 108.069359,12.923300 108.158203,11.103939   C109.300369,10.034111 110.154182,9.505146 111.311859,9.134124   C113.651741,11.087669 117.281708,12.765761 117.424385,14.700953   C117.849342,20.465269 121.366524,17.902361 124.196999,18.273891   C125.935234,22.033993 127.467613,25.516996 129.000000,29.000000   C129.000000,31.370558 129.000000,33.741116 129.000000,36.555836   C123.617119,36.936501 121.913460,32.239586 119.561310,28.830658   C118.858261,27.811745 120.890602,24.905418 121.870308,22.338177   C120.799965,22.267912 118.813004,22.137474 116.297104,21.730156   C115.184631,20.938227 114.601105,20.423174 114.017570,19.908121  z"
   id="path12" />








<path
   fill="#26244B"
   opacity="1.000000"
   stroke="none"
   d=" M4.680685,49.866539   C3.879751,52.913334 2.760904,55.823051 1.321028,58.866386   C1.000000,55.969406 1.000000,52.938812 1.000000,49.454109   C2.120924,49.243156 3.241848,49.486309 4.680685,49.866539  z"
   id="path21" />
<path
   fill="#241F40"
   opacity="1.000000"
   stroke="none"
   d=" M101.600006,1.000000   C102.195541,1.256164 102.409904,1.495476 102.821823,1.880478   C101.184441,4.505341 99.534775,4.704992 98.061020,1.342054   C99.066673,1.000000 100.133339,1.000000 101.600006,1.000000  z"
   id="path22" />
<path
   fill="#26244B"
   opacity="1.000000"
   stroke="none"
   d=" M1.000000,61.250000   C1.158360,61.238529 1.198077,61.491756 1.059576,61.879841   C1.000000,62.000000 1.000000,61.500000 1.000000,61.250000  z"
   id="path23" />
<path
   fill="#292452"
   opacity="1.000000"
   stroke="none"
   d=" M15.390181,63.024307   C12.495209,61.904778 9.995874,60.797409 7.680943,59.771740   C12.038115,53.316650 15.366858,47.095016 23.983540,47.090908   C25.084856,47.416294 25.536020,47.690102 25.966064,48.218662   C25.958246,48.643322 25.971552,48.813221 25.862400,49.280693   C25.501520,51.721455 25.263100,53.864651 24.688637,56.187538   C22.431530,60.450737 22.682673,64.106995 25.950102,67.571007   C27.335121,69.039345 28.041475,71.147842 28.625397,72.964493   C26.472355,72.987000 24.750200,73.010406 22.648060,73.027306   C21.507666,73.009575 20.747253,72.998344 19.986841,72.987114   C19.962337,70.902733 20.459980,68.615395 19.752911,66.796326   C19.156136,65.261002 17.161655,64.268967 15.390181,63.024307  M16.502308,50.526489   C16.502308,50.526489 16.487438,50.486897 16.502308,50.526489  z"
   id="path24" />
<path
   fill="#27254E"
   opacity="1.000000"
   stroke="none"
   d=" M19.004368,98.996223   C19.002359,104.680214 21.032862,108.986893 26.090397,112.260597   C29.755678,114.633110 32.595562,118.280785 35.897648,121.685043   C31.962784,121.373413 27.850531,121.261383 25.816177,116.466904   C25.187145,114.984413 22.613731,114.312317 20.909948,113.304001   C18.521313,111.890388 15.148529,111.740410 15.034103,107.597084   C15.007993,106.651611 12.280527,105.780739 10.478098,104.681404   C11.935314,103.356346 14.316702,102.150482 14.319265,100.939575   C14.322297,99.507507 12.271683,98.071091 11.048155,96.558525   C12.198839,94.831314 13.563983,92.782196 15.311128,90.340866   C16.795460,89.631035 17.897789,89.313408 19.066105,89.332039   C19.089518,92.777603 19.046944,95.886909 19.004368,98.996223  z"
   id="path25" />
<path
   fill="#1E1D3C"
   opacity="1.000000"
   stroke="none"
   d=" M14.220947,122.838425   C8.144292,121.336433 6.298966,115.949081 3.187387,111.279709   C6.357403,108.587517 8.947119,108.843376 11.118881,112.743179   C12.869461,115.886673 15.690106,118.547081 14.220947,122.838425  z"
   id="path26" />
<path
   fill="#2F295D"
   opacity="1.000000"
   stroke="none"
   d=" M19.707401,73.175949   C20.747253,72.998344 21.507666,73.009575 22.641109,73.481758   C23.006721,76.055138 23.380424,78.264282 22.876379,80.250687   C22.439993,81.970444 21.007666,83.437477 19.970062,84.650391   C18.290312,83.185333 16.656057,82.086105 15.021800,80.986877   C16.490519,78.446175 17.959240,75.905479 19.707401,73.175949  z"
   id="path27" />
<path
   fill="#2B2854"
   opacity="1.000000"
   stroke="none"
   d=" M15.015066,81.438126   C16.656057,82.086105 18.290312,83.185333 19.966478,85.022659   C20.007595,86.506020 20.006802,87.251274 19.826664,88.151062   C19.415535,88.520599 19.199802,88.750671 19.000120,88.995789   C17.897789,89.313408 16.795460,89.631035 15.347553,89.973381   C15.004095,87.295197 15.006213,84.592285 15.015066,81.438126  z"
   id="path28" />
<path
   fill="#2C295C"
   opacity="1.000000"
   stroke="none"
   d=" M115.000305,94.001526   C114.083511,96.451591 113.166710,98.901657 112.124817,101.676926   C110.178894,105.376183 105.682289,107.214081 106.380714,112.133423   C106.483315,112.856071 104.685883,114.636261 103.867027,114.575981   C97.888664,114.135910 97.323105,117.974915 97.239723,122.378227   C97.227776,123.008865 97.023430,123.635849 96.706894,125.361694   C93.535027,118.114357 89.889671,121.393143 85.789772,123.236092   C82.954781,124.510460 79.463577,124.404686 76.246330,124.717110   C74.502151,124.886475 72.703392,124.755707 70.956245,124.540855   C69.787193,124.397102 68.665588,123.867493 67.522758,123.510529   C68.208191,122.359558 68.684059,120.967773 69.644051,120.132278   C70.440636,119.439003 72.062279,119.692642 72.856895,118.998482   C73.847641,118.132980 74.364883,116.725441 75.173363,114.895912   C80.462242,111.142052 85.664345,108.044220 91.195633,105.070290   C95.054420,106.647133 97.954590,110.448280 103.198280,108.057213   C100.268471,97.998253 107.228905,93.568001 114.642288,88.404518   C114.793335,90.765869 114.896820,92.383698 115.000305,94.001526  z"
   id="path29" />
<path
   fill="#BCBDD3"
   opacity="1.000000"
   stroke="none"
   d=" M90.866455,104.946396   C85.664345,108.044220 80.462242,111.142052 75.114182,114.560806   C73.433319,115.397995 71.414070,115.466125 70.448822,116.509430   C66.618347,120.649658 62.841202,120.910500 58.165417,116.760086   C54.425571,114.494972 51.207817,112.670624 48.069992,110.514389   C48.427750,108.848297 48.705578,107.514076 49.324120,106.234604   C51.090988,106.902870 52.517143,107.516396 54.117584,108.427032   C55.674431,109.518394 57.286781,110.075226 58.397552,111.150291   C62.099888,114.733643 65.605553,114.778709 69.521286,111.038879   C73.586250,108.936333 77.293442,106.853447 81.341492,104.688675   C85.542923,102.327881 85.281334,98.699165 84.890884,94.568649   C85.357124,90.735641 85.758354,87.340950 86.437218,84.103714   C88.096054,85.822914 89.477249,87.384674 90.922089,89.384705   C91.048119,91.884239 91.110512,93.945496 91.108704,96.450562   C90.985146,99.578384 90.925797,102.262383 90.866455,104.946396  z"
   id="path30" />
<path
   fill="#2B275A"
   opacity="1.000000"
   stroke="none"
   d=" M47.990059,110.846268   C51.207817,112.670624 54.425571,114.494972 57.831139,116.621872   C57.241669,118.388802 56.654545,120.002922 55.645237,121.284561   C53.863415,123.547134 52.081005,124.421936 49.627934,121.557945   C48.316483,120.026794 45.910900,119.320335 43.884361,118.539459   C40.511841,117.239914 36.736645,116.683830 33.734531,114.834801   C31.858095,113.679085 31.088243,110.726685 29.565630,108.146317   C25.719738,109.449585 23.790884,106.980713 22.615084,102.926773   C22.207180,101.520393 20.684656,100.437309 19.337799,99.101395   C19.046944,95.886909 19.089518,92.777603 19.066105,89.332039   C19.199802,88.750671 19.415535,88.520599 20.158861,88.262459   C22.362637,91.361008 24.571112,94.342918 25.606245,97.687927   C26.707087,101.245270 28.522625,102.546509 32.031399,102.389091   C34.964790,109.588333 37.816433,110.999802 43.346199,108.205460   C45.113556,109.112717 46.551807,109.979492 47.990059,110.846268  z"
   id="path31" />
<path
   fill="#BBB8CC"
   opacity="1.000000"
   stroke="none"
   d=" M33.971088,25.347637   C39.326454,22.921070 44.542236,20.799261 50.262222,18.212997   C55.831493,15.843192 60.896561,13.937839 65.961632,12.032484   C65.961632,12.032484 65.998169,12.001850 66.059364,12.257448   C66.406380,12.616816 66.692192,12.720583 66.978012,12.824352   C68.562729,13.647009 70.147438,14.469666 71.877434,16.010275   C72.017372,18.097075 72.012024,19.465921 71.649918,20.781422   C68.814728,19.571770 66.336304,18.415468 63.734837,17.201756   C55.282551,21.471750 46.629692,25.843073 37.725334,30.194279   C37.277485,30.437996 37.081139,30.701826 36.609497,31.081688   C35.890255,31.799147 35.446304,32.400574 34.669895,32.962551   C32.943745,32.283680 31.550049,31.644260 30.086117,30.672649   C29.958357,29.892506 29.900837,29.444551 29.843315,28.996597   C31.172714,27.881863 32.502110,26.767128 33.971088,25.347637  z"
   id="path32" />
<path
   fill="#1F1D40"
   opacity="1.000000"
   stroke="none"
   d=" M29.549730,29.151722   C29.900837,29.444551 29.958357,29.892506 30.019394,31.081015   C28.998121,36.185913 28.065977,40.576591 26.841427,44.884151   C26.671846,45.480679 25.057095,45.666370 24.111374,46.042255   C20.696012,42.754047 17.212639,45.573135 13.374779,45.961407   C13.787324,44.959103 14.384953,43.341423 15.412745,42.993130   C18.658699,41.893150 20.013659,39.965427 20.456215,36.538277   C20.649149,35.044193 22.880608,33.703514 24.364937,32.516590   C25.881294,31.304056 27.616655,30.365400 29.549730,29.151722  z"
   id="path33" />
<path
   fill="#201B39"
   opacity="1.000000"
   stroke="none"
   d=" M29.992655,17.691605   C29.580162,17.361135 29.380974,17.030451 29.181786,16.699766   C29.717417,16.697422 30.253048,16.695078 30.788679,16.692736   C30.594439,17.025618 30.400200,17.358501 29.992655,17.691605  z"
   id="path34" />
<path
   fill="#241F40"
   opacity="1.000000"
   stroke="none"
   d=" M81.996529,17.993832   C81.241699,17.036346 80.681328,15.668945 79.694374,15.200745   C77.074562,13.957917 77.746742,12.381145 78.895111,10.294009   C79.000000,9.999992 79.003433,9.996042 79.003433,9.996042   C81.549385,6.247807 84.898857,5.681109 89.174446,6.745525   C91.441254,7.309853 94.057350,6.295588 96.477043,6.486003   C97.976929,6.604036 99.404182,7.645027 100.931992,8.635873   C100.999939,9.000019 100.994972,9.005419 100.631638,9.056602   C98.164719,9.750902 96.061134,10.394019 93.592850,11.035440   C91.822884,11.361491 90.417641,11.689238 88.643394,12.058847   C87.195908,13.291343 86.178627,14.546130 85.019432,15.652184   C84.102142,16.527422 83.010658,17.220091 81.996529,17.993832  z"
   id="path35" />
<path
   fill="#BFBBCF"
   opacity="1.000000"
   stroke="none"
   d=" M72.006683,20.834770   C72.012024,19.465921 72.017372,18.097075 72.028000,16.317463   C74.788223,17.186365 77.543159,18.466028 80.973663,19.959763   C84.087349,21.150322 86.525475,22.126814 89.090271,23.370941   C89.817818,24.069914 90.418678,24.501247 90.834412,25.203634   C89.746490,26.680302 88.843697,27.885914 87.722946,29.054426   C87.504982,29.017326 87.067398,28.953712 86.882797,28.652420   C83.821388,27.222075 80.944580,26.093023 77.911346,24.659122   C75.838837,23.181107 73.922768,22.007938 72.006683,20.834770  z"
   id="path36" />
<path
   fill="#231D42"
   opacity="1.000000"
   stroke="none"
   d=" M65.861961,11.692318   C60.896561,13.937839 55.831493,15.843192 50.435116,17.891201   C49.989803,17.484058 49.875801,16.934263 49.880981,16.190960   C51.946854,14.077336 53.833511,12.091326 55.853291,10.251459   C59.526703,6.905255 62.842400,7.532664 65.861961,11.692318  z"
   id="path37" />
<path
   fill="#241F40"
   opacity="1.000000"
   stroke="none"
   d=" M106.850021,3.317246   C107.871140,3.508990 108.751007,3.997566 109.887321,5.070203   C110.431839,6.761569 110.719917,7.868875 111.007996,8.976181   C110.154182,9.505146 109.300369,10.034111 108.227631,10.768736   C107.484543,11.194764 106.960373,11.415133 105.879845,11.835373   C102.837509,12.515563 100.968956,12.113820 100.994972,9.005419   C100.994972,9.005419 100.999939,9.000019 101.003372,8.995750   C102.907463,7.199013 104.808121,5.406546 106.850021,3.317246  z"
   id="path38" />
<path
   fill="#2C254B"
   opacity="1.000000"
   stroke="none"
   d=" M88.963600,23.103302   C86.525475,22.126814 84.087349,21.150322 81.321953,20.006336   C81.214172,19.359007 81.433662,18.879173 81.824844,18.196587   C83.010658,17.220091 84.102142,16.527422 85.019432,15.652184   C86.178627,14.546130 87.195908,13.291343 88.507217,12.381856   C86.628189,16.189919 88.602554,19.629337 88.963600,23.103302  z"
   id="path39" />
<path
   fill="#241E40"
   opacity="1.000000"
   stroke="none"
   d=" M78.998016,10.001596   C77.140953,9.640028 75.285881,9.276855 73.308777,8.889795   C75.448555,5.578008 76.074455,5.664214 78.946304,9.650060   C79.003433,9.996042 79.000000,9.999992 78.998016,10.001596  z"
   id="path40" />
<path
   fill="#231D42"
   opacity="1.000000"
   stroke="none"
   d=" M66.822189,12.677166   C66.692192,12.720583 66.406380,12.616816 66.043785,12.275476   C66.218506,12.175819 66.451622,12.339844 66.822189,12.677166  z"
   id="path41" />
<path
   fill="#493867"
   opacity="1.000000"
   stroke="none"
   d=" M102.993675,16.011082   C106.508080,17.973454 106.592003,20.494518 105.197540,24.106102   C104.572296,25.725441 106.227219,28.225172 106.920670,30.908607   C106.988487,31.662998 106.983055,31.834179 106.679688,31.845205   C104.207947,30.476860 102.034149,29.268669 99.507126,28.053377   C98.449844,28.006458 97.745766,27.966639 96.903374,27.626297   C95.497238,26.604856 94.229416,25.883942 93.228729,24.940525   C95.004677,24.148724 96.513496,23.579422 98.201797,22.714224   C99.918739,20.282579 101.456207,18.146830 102.993675,16.011082  z"
   id="path42" />
<path
   fill="#3D3166"
   opacity="1.000000"
   stroke="none"
   d=" M116.015549,56.006882   C115.796913,56.525017 115.578278,57.043152 114.990402,57.537819   C113.748367,56.675575 112.875557,55.836800 111.830215,54.774483   C111.438965,54.033829 111.220245,53.516716 111.324272,52.948746   C111.948502,51.780479 112.249985,50.663078 112.551468,49.545673   C107.551674,48.286057 106.980469,43.977341 106.037766,39.702927   C106.390518,38.940578 106.668243,38.451355 107.088821,38.266205   C108.170280,39.710178 109.108887,40.850079 110.047501,41.989979   C111.172455,42.590824 112.281815,43.223778 113.428078,43.780769   C114.144287,44.128792 114.916138,44.362286 115.830956,44.823120   C115.998886,44.999073 115.985710,45.004807 116.209229,45.180485   C116.954742,45.572327 117.476746,45.788494 117.896599,46.296154   C117.201485,49.727390 116.608513,52.867138 116.015549,56.006882  z"
   id="path43" />
<path
   fill="#362E5D"
   opacity="1.000000"
   stroke="none"
   d=" M116.364433,55.905525   C116.608513,52.867138 117.201485,49.727390 117.849579,46.103439   C117.265045,45.414425 116.625374,45.209618 115.985710,45.004807   C115.985710,45.004807 115.998886,44.999073 115.995338,45.008282   C117.421875,44.083702 119.120064,42.164238 120.215141,42.462093   C121.628990,42.846657 122.817451,44.874104 123.611343,46.442867   C124.158104,47.523289 123.870461,49.025970 123.980362,50.668793   C121.574432,52.599827 119.143875,54.202000 116.364433,55.905525  z"
   id="path44" />
<path
   fill="#412E63"
   opacity="1.000000"
   stroke="none"
   d=" M102.841835,15.828539   C101.456207,18.146830 99.918739,20.282579 97.875565,22.525803   C95.082260,21.609694 90.871689,22.155947 92.570618,17.723879   C93.057686,16.453230 95.464668,15.918525 97.408768,15.043017   C99.217735,15.024333 100.609291,15.009009 102.000839,14.993685   C102.246384,15.194402 102.476097,15.411839 102.841835,15.828539  z"
   id="path45" />
<path
   fill="#392D5D"
   opacity="1.000000"
   stroke="none"
   d=" M110.226639,41.653130   C109.108887,40.850079 108.170280,39.710178 107.205521,37.957291   C107.112122,35.564651 107.044868,33.785004 106.977623,32.005360   C106.983055,31.834179 106.988487,31.662998 107.005188,31.234879   C110.294167,27.943686 111.414894,30.339603 111.507614,33.122395   C111.598106,35.838440 110.808823,38.583797 110.226639,41.653130  z"
   id="path46" />
<path
   fill="#29204C"
   opacity="1.000000"
   stroke="none"
   d=" M102.273483,14.812988   C100.609291,15.009009 99.217735,15.024333 97.157608,14.827610   C95.645210,13.422753 94.801384,12.229945 93.957558,11.037137   C96.061134,10.394019 98.164719,9.750902 100.631638,9.056602   C100.968956,12.113820 102.837509,12.515563 105.655960,12.012650   C104.840996,12.870801 103.693558,13.751546 102.273483,14.812988  z"
   id="path47" />
<path
   fill="#3B3058"
   opacity="1.000000"
   stroke="none"
   d=" M113.885178,20.209194   C114.601105,20.423174 115.184631,20.938227 115.881760,21.731003   C115.211464,23.482555 114.427559,24.956381 113.643661,26.430206   C112.569405,25.689886 111.495148,24.949566 109.807449,23.786493   C111.540489,22.347368 112.646645,21.428818 113.885178,20.209194  z"
   id="path48" />
<path
   fill="#2F2C61"
   opacity="1.000000"
   stroke="none"
   d=" M91.195633,105.070282   C90.925797,102.262383 90.985146,99.578384 91.411118,96.579681   C95.732719,98.124382 98.472282,97.163963 100.290466,93.112236   C101.022469,91.481010 101.441498,89.709343 102.261200,87.830132   C102.949692,86.278442 103.289352,84.861282 103.832985,83.527237   C104.524818,81.829483 105.381813,80.199028 106.167610,78.539551   C106.597534,78.752312 107.027466,78.965065 107.457397,79.177826   C107.634903,80.830811 107.812408,82.483803 108.096947,85.133507   C110.521713,82.613335 112.260277,80.806366 114.249329,78.999268   C114.666809,78.999016 114.833801,78.998894 115.000793,78.998779   C117.659462,80.920708 119.982231,82.820984 116.566162,86.199493   C116.044617,86.715317 116.588234,88.308144 116.817200,89.700546   C116.530602,91.227783 116.065987,92.457306 115.300842,93.844177   C114.896820,92.383698 114.793335,90.765869 114.642288,88.404518   C107.228905,93.568001 100.268471,97.998253 103.198280,108.057213   C97.954590,110.448280 95.054420,106.647133 91.195633,105.070282  z"
   id="path49" />
<path
   fill="#322D62"
   opacity="1.000000"
   stroke="none"
   d=" M115.081078,78.657898   C114.833801,78.998894 114.666809,78.999016 114.249176,78.586571   C113.564415,75.713661 113.130295,73.253304 112.532898,69.867592   C112.677696,69.587395 113.342651,68.300713 114.271103,66.878021   C114.697701,65.157272 114.860794,63.572533 115.023880,61.987793   C117.904442,63.055744 123.196831,73.022102 122.241333,76.194466   C119.189194,74.433792 116.142738,73.420227 115.081078,78.657898  z"
   id="path50" />
<path
   fill="#3C356D"
   opacity="1.000000"
   stroke="none"
   d=" M115.018990,61.589783   C114.860794,63.572533 114.697701,65.157272 113.878815,66.888367   C110.144264,66.679008 107.065491,66.323280 104.008171,65.696381   C104.426102,64.652367 104.822586,63.879539 105.585632,62.993088   C107.969040,60.252319 109.985893,57.625175 112.002747,54.998028   C112.875557,55.836800 113.748367,56.675575 114.815735,57.760376   C115.011574,59.068192 115.012840,60.129978 115.018990,61.589783  z"
   id="path51" />
<path
   fill="#BDBCCF"
   opacity="1.000000"
   stroke="none"
   d=" M24.076900,46.272522   C25.057095,45.666370 26.671846,45.480679 26.841427,44.884151   C28.065977,40.576591 28.998121,36.185913 30.089634,31.413204   C31.550049,31.644260 32.943745,32.283680 34.664806,33.367775   C33.715977,40.203896 32.439781,46.595337 30.995995,53.305683   C30.252768,55.097198 29.677126,56.569809 28.846066,57.826542   C27.401989,57.076389 26.213333,56.542118 25.024677,56.007847   C25.263100,53.864651 25.501520,51.721455 26.114012,49.190853   C26.499102,48.337391 26.510122,47.871334 26.521145,47.405277   C26.343159,47.591488 26.165174,47.777699 25.987186,47.963905   C25.536020,47.690102 25.084856,47.416294 24.371532,47.053055   C24.109377,46.963623 24.042425,46.502789 24.076900,46.272522  z"
   id="path52" />
<path
   fill="#241D3B"
   opacity="1.000000"
   stroke="none"
   d=" M111.311859,9.134124   C110.719917,7.868875 110.431839,6.761569 110.074631,5.316581   C116.752510,6.695391 120.332397,11.992931 123.954758,17.640194   C121.366524,17.902361 117.849342,20.465269 117.424385,14.700953   C117.281708,12.765761 113.651741,11.087669 111.311859,9.134124  z"
   id="path53" />
<path
   fill="#C1BFDB"
   opacity="1.000000"
   stroke="none"
   d=" M24.688637,56.187538   C26.213333,56.542118 27.401989,57.076389 28.799240,58.227245   C28.318871,65.123520 33.421631,67.630844 37.165192,71.435219   C39.189079,74.838676 41.055462,77.932953 42.954994,81.485489   C43.052853,85.631111 43.117565,89.318481 43.113586,93.451187   C42.005005,99.450722 43.276928,103.887260 48.983406,106.179863   C48.705578,107.514076 48.427750,108.848297 48.069992,110.514389   C46.551807,109.979492 45.113556,109.112717 42.964485,108.125870   C38.709873,107.200066 37.709263,104.927887 37.935513,101.446701   C38.181881,97.656097 37.890018,93.830521 37.902115,89.589096   C38.744724,84.547165 37.216614,80.756950 33.636509,77.340889   C31.962654,75.696487 30.509466,74.330940 29.056278,72.965385   C28.041475,71.147842 27.335121,69.039345 25.950102,67.571007   C22.682673,64.106995 22.431530,60.450737 24.688637,56.187538  z"
   id="path54" />
<path
   fill="#352D6A"
   opacity="1.000000"
   stroke="none"
   d=" M28.625395,72.964493   C30.509466,74.330940 31.962654,75.696487 33.253082,77.504410   C30.197483,79.437607 25.959774,79.498543 25.849436,84.078987   C25.742023,88.538116 29.959282,88.358017 32.568630,89.874283   C32.707344,89.954887 32.871964,89.990921 33.022949,90.411873   C33.019520,91.504402 33.017666,92.232758 32.922318,93.193710   C33.549377,93.947456 34.269936,94.468613 34.973969,95.357635   C33.969467,97.827675 32.981487,99.929855 31.993504,102.032028   C28.522625,102.546509 26.707087,101.245270 25.606245,97.687927   C24.571112,94.342918 22.362637,91.361008 20.338207,88.107941   C20.006802,87.251274 20.007595,86.506020 20.011971,85.388489   C21.007666,83.437477 22.439993,81.970444 22.876379,80.250687   C23.380424,78.264282 23.006721,76.055138 23.021091,73.488258   C24.750200,73.010406 26.472355,72.987000 28.625395,72.964493  z"
   id="path55" />
<path
   fill="#494464"
   opacity="1.000000"
   stroke="none"
   d=" M25.966064,48.218662   C26.165174,47.777699 26.343159,47.591488 26.521145,47.405277   C26.510122,47.871334 26.499102,48.337391 26.236469,48.893288   C25.971552,48.813221 25.958246,48.643322 25.966064,48.218662  z"
   id="path56" />
<path
   fill="#1F1D42"
   opacity="1.000000"
   stroke="none"
   d=" M16.494873,50.506691   C16.487438,50.486897 16.502308,50.526489 16.494873,50.506691  z"
   id="path57" />
<path
   fill="#322E6D"
   opacity="1.000000"
   stroke="none"
   d=" M84.825867,95.006958   C85.281334,98.699165 85.542923,102.327881 81.242874,104.389297   C80.043205,103.293747 79.283020,102.415680 79.407906,102.559929   C76.403854,103.871780 74.217178,105.718224 72.289841,105.478607   C68.535164,105.011826 69.779663,101.665428 69.957069,99.152138   C70.003082,98.500168 70.002792,97.844925 70.402420,97.142685   C73.337334,94.759033 75.893608,92.423874 78.141685,90.370262   C80.246529,91.830353 82.536201,93.418655 84.825867,95.006958  z"
   id="path58" />
<path
   fill="#302C67"
   opacity="1.000000"
   stroke="none"
   d=" M49.324120,106.234604   C43.276928,103.887260 42.005005,99.450722 43.450562,93.380394   C45.561871,91.246864 47.267521,89.629456 49.014229,88.379066   C49.709209,90.825302 50.363129,92.904510 51.123787,95.260468   C51.817505,96.026993 52.404480,96.516777 52.995728,97.003281   C53.000000,97.000000 52.992252,97.007454 53.027424,97.375114   C53.482018,100.646858 54.631153,102.865646 57.950455,103.337708   C56.581810,105.160271 55.262550,106.645096 53.943295,108.129913   C52.517143,107.516396 51.090988,106.902870 49.324120,106.234604  z"
   id="path59" />
<path
   fill="#383172"
   opacity="1.000000"
   stroke="none"
   d=" M84.890884,94.568649   C82.536201,93.418655 80.246529,91.830353 78.141685,90.370262   C75.893608,92.423874 73.337334,94.759033 70.364380,97.079582   C69.947708,97.064980 69.908577,96.925095 69.848854,96.640930   C70.125946,93.901237 70.462761,91.445717 70.873474,88.616066   C71.364998,86.834076 71.782616,85.426201 72.542801,83.987923   C75.249138,83.254227 77.612915,82.550926 78.957756,82.150795   C81.624207,82.887787 83.739044,83.472321 85.932388,84.034950   C86.010887,84.013046 86.159584,83.946259 86.159584,83.946259   C85.758354,87.340950 85.357124,90.735641 84.890884,94.568649  z"
   id="path60" />
<path
   fill="#2C295A"
   opacity="1.000000"
   stroke="none"
   d=" M54.117577,108.427032   C55.262550,106.645096 56.581810,105.160271 58.088192,103.000603   C58.904442,100.531265 59.533573,98.736771 60.462753,97.141617   C63.067249,98.924942 60.230457,103.813156 65.131699,104.163094   C66.600121,106.671494 67.881813,108.865021 69.163506,111.058540   C65.605553,114.778709 62.099888,114.733643 58.397552,111.150291   C57.286781,110.075226 55.674431,109.518394 54.117577,108.427032  z"
   id="path61" />
<path
   fill="#302C65"
   opacity="1.000000"
   stroke="none"
   d=" M69.521286,111.038879   C67.881813,108.865021 66.600121,106.671494 65.163651,103.804230   C66.642105,101.062027 68.275345,98.993561 69.908585,96.925095   C69.908577,96.925095 69.947708,97.064980 69.985741,97.128082   C70.002792,97.844925 70.003082,98.500168 69.957069,99.152138   C69.779663,101.665428 68.535164,105.011826 72.289841,105.478607   C74.217178,105.718224 76.403854,103.871780 79.407906,102.559929   C79.283020,102.415680 80.043205,103.293747 80.902016,104.471191   C77.293442,106.853447 73.586250,108.936333 69.521286,111.038879  z"
   id="path62" />
<path
   fill="#C0BEDF"
   opacity="1.000000"
   stroke="none"
   d=" M90.858452,88.946426   C89.477249,87.384674 88.096054,85.822914 86.437218,84.103714   C86.159584,83.946259 86.010887,84.013046 85.993408,83.695740   C85.676384,82.304344 85.376839,81.230255 85.360626,79.994110   C86.119270,78.902977 86.594582,77.973892 87.039841,77.022842   C87.009789,77.000870 87.052322,77.061722 87.349060,76.931534   C89.077362,75.489899 90.508934,74.178467 92.070549,73.136627   C93.752739,73.602455 95.304886,73.798683 96.843170,74.303322   C96.181190,75.396797 95.533073,76.181870 94.571426,77.132401   C90.806732,80.581650 90.536179,84.701141 91.090508,89.030014   C91.013092,89.002319 90.858452,88.946426 90.858452,88.946426  z"
   id="path63" />
<path
   fill="#322D68"
   opacity="1.000000"
   stroke="none"
   d=" M102.002968,88.001587   C101.441498,89.709343 101.022469,91.481010 100.290466,93.112236   C98.472282,97.163963 95.732719,98.124382 91.475311,96.135864   C91.110512,93.945496 91.048119,91.884239 90.922089,89.384705   C90.858452,88.946426 91.013092,89.002319 91.379868,89.137337   C94.829979,88.848076 97.913315,88.423805 101.248222,87.999931   C101.667526,88.000755 101.835251,88.001175 102.002968,88.001587  z"
   id="path64" />
<path
   fill="#312C64"
   opacity="1.000000"
   stroke="none"
   d=" M33.015812,92.961113   C33.017666,92.232758 33.019520,91.504402 33.422760,90.398804   C35.160370,90.021103 36.496586,90.020645 37.832806,90.020187   C37.890018,93.830521 38.181881,97.656097 37.935513,101.446701   C37.709263,104.927887 38.709873,107.200066 42.635376,108.085388   C37.816433,110.999802 34.964790,109.588333 32.031399,102.389091   C32.981487,99.929855 33.969467,97.827675 35.018112,95.116974   C34.391121,93.992668 33.703465,93.476891 33.015812,92.961113  z"
   id="path65" />
<path
   fill="#29244F"
   opacity="1.000000"
   stroke="none"
   d=" M31.163582,52.986782   C32.439781,46.595337 33.715977,40.203896 34.997265,33.407227   C35.446304,32.400574 35.890255,31.799147 36.803352,30.974331   C37.521088,30.590227 37.755867,30.411377 37.976833,30.214394   C46.629692,25.843073 55.282551,21.471750 63.734837,17.201756   C66.336304,18.415468 68.814728,19.571770 71.649918,20.781422   C73.922768,22.007938 75.838837,23.181107 77.662216,24.874992   C76.701530,28.623634 75.833542,31.851559 74.649506,34.942375   C71.888084,33.260033 69.442726,31.714802 66.667908,29.992025   C62.953053,27.395832 61.143696,30.465368 58.656277,31.990334   C58.431618,32.024624 58.005901,32.183868 57.734024,32.175888   C57.019814,32.468765 56.577480,32.769619 55.919357,32.823681   C53.814854,32.086941 51.866089,31.032595 50.050068,31.225821   C46.393700,31.614866 42.809624,32.683334 39.891838,33.319672   C39.891838,35.528797 40.864883,38.724983 39.709911,40.013084   C36.205204,43.921753 35.803719,48.283119 35.594856,53.014465   C33.849125,53.004620 32.506355,52.995701 31.163582,52.986782  z"
   id="path66" />
<path
   fill="#2B255A"
   opacity="1.000000"
   stroke="none"
   d=" M37.725334,30.194279   C37.755867,30.411377 37.521088,30.590227 37.078644,30.858299   C37.081139,30.701826 37.277485,30.437996 37.725334,30.194279  z"
   id="path67" />
<path
   fill="#36295A"
   opacity="1.000000"
   stroke="none"
   d=" M93.592850,11.035440   C94.801384,12.229945 95.645210,13.422753 96.740189,14.830969   C95.464668,15.918525 93.057686,16.453230 92.570618,17.723879   C90.871689,22.155947 95.082260,21.609694 97.696091,22.821697   C96.513496,23.579422 95.004677,24.148724 92.902946,24.919151   C91.879875,25.057709 91.449715,24.995144 91.019547,24.932579   C90.418678,24.501247 89.817818,24.069914 89.090271,23.370941   C88.602554,19.629337 86.628189,16.189919 88.876221,12.339993   C90.417641,11.689238 91.822884,11.361491 93.592850,11.035440  z"
   id="path68" />
<path
   fill="#41326B"
   opacity="1.000000"
   stroke="none"
   d=" M74.965561,35.079483   C75.833542,31.851559 76.701530,28.623634 77.818649,25.179840   C80.944580,26.093023 83.821388,27.222075 86.476685,28.662994   C84.816467,29.054140 83.359169,29.044359 81.964722,29.335550   C81.806427,29.368605 82.001434,31.093603 81.951599,32.380829   C81.134132,35.672688 79.336586,37.221832 76.086960,36.763103   C75.628616,36.025627 75.297089,35.552555 74.965561,35.079483  z"
   id="path69" />
<path
   fill="#DAC8E1"
   opacity="1.000000"
   stroke="none"
   d=" M90.834412,25.203634   C91.449715,24.995144 91.879875,25.057709 92.635818,25.141651   C94.229416,25.883942 95.497238,26.604856 96.836418,27.983746   C95.584351,29.440884 94.260918,30.240047 92.572632,31.026917   C91.482643,31.080065 90.757523,31.145508 89.770905,31.148920   C89.332474,31.058680 89.155540,31.030470 88.908394,30.734968   C88.539078,30.008961 88.239990,29.550245 87.940903,29.091528   C88.843697,27.885914 89.746490,26.680302 90.834412,25.203634  z"
   id="path70" />
<path
   fill="#543B77"
   opacity="1.000000"
   stroke="none"
   d=" M87.722946,29.054428   C88.239990,29.550245 88.539078,30.008961 88.679657,30.908356   C88.021645,31.931635 87.522163,32.514236 86.796341,33.011971   C85.057533,32.629425 83.545082,32.331741 82.032623,32.034058   C82.001434,31.093603 81.806427,29.368605 81.964722,29.335550   C83.359169,29.044359 84.816467,29.054140 86.661285,28.964287   C87.067398,28.953712 87.504982,29.017326 87.722946,29.054428  z"
   id="path71" />
<path
   fill="#CAC2E0"
   opacity="1.000000"
   stroke="none"
   d=" M92.937485,31.039215   C94.260918,30.240047 95.584351,29.440884 96.974739,28.284269   C97.745766,27.966639 98.449844,28.006458 99.553879,28.442671   C99.936592,29.883068 99.919350,30.927069 99.604225,32.183937   C99.713821,34.145012 100.121300,35.893227 100.571930,37.635323   C100.615082,37.629204 100.532120,37.619152 100.531776,38.054173   C100.738434,39.329609 100.945427,40.170021 101.089310,41.436790   C102.075569,47.238583 103.124939,52.614014 104.214279,58.323467   C104.575859,60.140560 104.897469,61.623638 105.219078,63.106712   C104.822586,63.879539 104.426102,64.652367 103.684311,65.830345   C101.178345,68.821960 99.017685,71.408432 96.857025,73.994911   C95.304886,73.798683 93.752739,73.602455 92.090988,72.785080   C92.285339,71.544037 92.589310,70.924126 93.156776,70.139542   C95.572388,66.916161 99.263496,63.968540 99.494301,60.771133   C99.795349,56.600521 97.354340,52.231976 96.024445,47.594410   C95.333366,44.137848 94.711044,41.035477 94.053101,37.582474   C93.042999,35.507080 92.068527,33.782314 91.378403,32.024055   C92.087662,31.673445 92.512573,31.356331 92.937485,31.039215  z"
   id="path72" />
<path
   fill="#4E3A70"
   opacity="1.000000"
   stroke="none"
   d=" M101.152420,41.010433   C100.945427,40.170021 100.738434,39.329609 100.766113,38.080475   C101.323921,37.625576 101.596924,37.483284 101.962746,36.923344   C103.181656,34.196686 102.478653,32.638107 99.902107,31.971071   C99.919350,30.927069 99.936592,29.883068 99.907089,28.449772   C102.034149,29.268669 104.207947,30.476860 106.679688,31.845205   C107.044868,33.785004 107.112122,35.564651 107.062668,37.653214   C106.668243,38.451355 106.390518,38.940578 105.688416,39.739021   C103.893494,40.368965 102.522964,40.689701 101.152420,41.010433  z"
   id="path73" />
<path
   fill="#43356E"
   opacity="1.000000"
   stroke="none"
   d=" M101.089310,41.436790   C102.522964,40.689701 103.893494,40.368965 105.613388,40.012142   C106.980469,43.977341 107.551674,48.286057 112.551468,49.545673   C112.249985,50.663078 111.948502,51.780479 111.031219,52.842899   C108.335052,54.521763 106.254684,56.255604 104.174316,57.989449   C103.124939,52.614014 102.075569,47.238583 101.089310,41.436790  z"
   id="path74" />
<path
   fill="#433975"
   opacity="1.000000"
   stroke="none"
   d=" M104.214279,58.323463   C106.254684,56.255604 108.335052,54.521763 110.708473,52.893761   C111.220245,53.516716 111.438965,54.033829 111.830215,54.774487   C109.985893,57.625175 107.969040,60.252319 105.585632,62.993088   C104.897469,61.623638 104.575859,60.140560 104.214279,58.323463  z"
   id="path75" />
<path
   fill="#322752"
   opacity="1.000000"
   stroke="none"
   d=" M116.209229,45.180485   C116.625374,45.209618 117.265045,45.414425 117.951721,45.811951   C117.476746,45.788494 116.954742,45.572327 116.209229,45.180485  z"
   id="path76" />
<path
   fill="#363168"
   opacity="1.000000"
   stroke="none"
   d=" M96.843163,74.303322   C99.017685,71.408432 101.178345,68.821960 103.662865,66.101517   C107.065491,66.323280 110.144264,66.679008 113.615311,67.024384   C113.342651,68.300713 112.677696,69.587395 112.532898,69.867592   C113.130295,73.253304 113.564415,75.713661 113.998688,78.586700   C112.260277,80.806366 110.521713,82.613335 108.096947,85.133507   C107.812408,82.483803 107.634903,80.830811 107.457397,79.177826   C107.027466,78.965065 106.597534,78.752312 106.167610,78.539551   C105.381813,80.199028 104.524818,81.829483 103.832985,83.527237   C103.289352,84.861282 102.949692,86.278442 102.261200,87.830132   C101.835251,88.001175 101.667526,88.000755 101.207512,87.624741   C98.905136,83.821739 96.895050,80.394341 94.884964,76.966934   C95.533073,76.181870 96.181190,75.396797 96.843163,74.303322  z"
   id="path77" />
<path
   fill="#332D62"
   opacity="1.000000"
   stroke="none"
   d=" M30.995996,53.305683   C32.506355,52.995701 33.849125,53.004620 35.809849,53.274624   C38.407169,53.752422 40.386539,53.969139 42.311226,54.583031   C41.445385,57.654808 40.634220,60.329399 39.501968,63.029819   C34.187462,64.596222 38.270416,68.580872 37.007694,71.126045   C33.421631,67.630844 28.318871,65.123520 29.054661,58.443127   C29.677126,56.569809 30.252768,55.097198 30.995996,53.305683  z"
   id="path78" />
<path
   fill="#393271"
   opacity="1.000000"
   stroke="none"
   d=" M37.902115,89.589096   C36.496586,90.020645 35.160370,90.021103 33.424335,90.034630   C32.871964,89.990921 32.707344,89.954887 32.568630,89.874283   C29.959282,88.358017 25.742023,88.538116 25.849436,84.078987   C25.959774,79.498543 30.197483,79.437607 33.473751,77.783264   C37.216614,80.756950 38.744724,84.547165 37.902115,89.589096  z"
   id="path79" />
<path
   fill="#403676"
   opacity="1.000000"
   stroke="none"
   d=" M37.165192,71.435219   C38.270416,68.580872 34.187462,64.596222 39.860382,63.047157   C41.016750,63.007236 41.493610,62.975800 42.157875,63.177124   C42.645382,64.140503 43.412708,65.249763 43.174286,65.543945   C40.378841,68.993256 42.654152,70.853218 44.867447,73.398178   C46.570271,75.356171 47.037121,78.389061 48.037308,80.958405   C48.021027,80.972855 47.987396,81.000610 47.665844,80.935989   C45.870144,80.923325 44.395992,80.975281 42.921844,81.027237   C41.055462,77.932953 39.189079,74.838676 37.165192,71.435219  z"
   id="path80" />
<path
   fill="#372F6C"
   opacity="1.000000"
   stroke="none"
   d=" M42.954994,81.485489   C44.395992,80.975281 45.870144,80.923325 47.672939,81.335175   C48.325447,83.870003 48.649307,85.941025 48.973167,88.012047   C47.267521,89.629456 45.561871,91.246864 43.519249,92.935059   C43.117565,89.318481 43.052853,85.631111 42.954994,81.485489  z"
   id="path81" />
<path
   fill="#393271"
   opacity="1.000000"
   stroke="none"
   d=" M32.922318,93.193710   C33.703465,93.476891 34.391121,93.992668 35.034637,94.749115   C34.269936,94.468613 33.549377,93.947456 32.922318,93.193710  z"
   id="path82" />
<path
   fill="#3E357C"
   opacity="1.000000"
   stroke="none"
   d=" M49.014229,88.379066   C48.649307,85.941025 48.325447,83.870003 47.994492,81.399796   C47.987396,81.000610 48.021027,80.972855 48.394455,80.938751   C50.176456,80.604424 51.585026,80.304199 52.908287,80.366730   C50.361767,87.499336 50.361767,87.499336 56.974510,93.376244   C56.999310,96.489868 56.434319,98.505783 52.992252,97.007454   C52.992252,97.007454 53.000000,97.000000 52.886131,96.728554   C52.187195,95.965981 51.602119,95.474854 51.017048,94.983727   C50.363129,92.904510 49.709209,90.825302 49.014229,88.379066  z"
   id="path83" />
<path
   fill="#353072"
   opacity="1.000000"
   stroke="none"
   d=" M53.027424,97.375114   C56.434319,98.505783 56.999310,96.489868 57.258026,93.364670   C57.733463,92.971375 57.922283,92.963181 58.419212,93.109222   C59.205784,94.489738 59.684242,95.716003 60.162697,96.942268   C59.533573,98.736771 58.904442,100.531265 58.137573,102.662872   C54.631153,102.865646 53.482018,100.646858 53.027424,97.375114  z"
   id="path84" />
<path
   fill="#353072"
   opacity="1.000000"
   stroke="none"
   d=" M51.123787,95.260468   C51.602119,95.474854 52.187195,95.965981 52.881859,96.731834   C52.404480,96.516777 51.817505,96.026993 51.123787,95.260468  z"
   id="path85" />
<path
   fill="#C7C3DC"
   opacity="1.000000"
   stroke="none"
   d=" M72.200233,84.018326   C71.782616,85.426201 71.364998,86.834076 70.532608,88.551224   C65.380943,86.251450 60.644043,83.642395 55.662357,80.935272   C54.997978,80.531113 54.578384,80.225014 54.115780,79.493851   C52.775318,72.379539 51.477871,65.690277 50.528919,59.040543   C52.880310,59.918976 54.883202,60.757885 56.985020,61.638229   C57.419922,59.036072 57.759674,57.003220 58.371735,55.157074   C59.752605,56.792274 60.861164,58.240772 62.255554,59.880901   C63.348579,60.355286 64.155777,60.638039 64.977303,61.132637   C64.991631,61.344482 65.002068,61.769016 64.724976,61.834293   C63.934090,62.280960 63.420303,62.662350 62.947266,63.384300   C63.257702,64.391724 63.527390,65.058578 63.797077,65.725441   C64.240158,65.215790 64.683243,64.706131 65.379089,64.084053   C66.073288,63.645111 66.514709,63.318596 67.308556,62.965599   C70.525932,62.321651 73.119225,62.152977 73.953270,65.951965   C74.052986,66.406166 75.220612,66.625908 75.811066,67.322533   C75.551903,69.133011 75.374908,70.575287 75.129333,72.411957   C74.107239,76.543678 73.153732,80.280998 72.200233,84.018326  z"
   id="path86" />
<path
   fill="#C0BFD8"
   opacity="1.000000"
   stroke="none"
   d=" M55.907143,81.033340   C60.644043,83.642395 65.380943,86.251450 70.458710,88.925354   C70.462761,91.445717 70.125946,93.901237 69.848862,96.640930   C68.275345,98.993561 66.642105,101.062027 64.976913,103.489349   C60.230457,103.813156 63.067249,98.924942 60.462749,97.141617   C59.684242,95.716003 59.205784,94.489738 58.366745,92.705658   C57.306488,88.443001 56.606815,84.738174 55.907143,81.033340  z"
   id="path87" />
<path
   fill="#42397B"
   opacity="1.000000"
   stroke="none"
   d=" M72.542801,83.987923   C73.153732,80.280998 74.107239,76.543678 75.501236,72.422806   C83.000305,72.822929 83.799362,72.370789 85.382401,66.877121   C86.466072,66.830086 87.189301,66.807182 88.136261,66.997467   C88.909065,67.470512 89.458160,67.730385 90.017456,68.323311   C90.053383,69.099792 90.079109,69.543221 89.731995,70.006569   C83.742752,70.782089 85.415146,73.927681 87.052322,77.061722   C87.052322,77.061722 87.009789,77.000870 86.735703,77.156349   C86.000168,78.259941 85.538727,79.208061 85.077286,80.156174   C85.376839,81.230255 85.676384,82.304344 85.914909,83.717636   C83.739044,83.472321 81.624207,82.887787 78.957756,82.150795   C77.612915,82.550926 75.249138,83.254227 72.542801,83.987923  z"
   id="path88" />
<path
   fill="#373170"
   opacity="1.000000"
   stroke="none"
   d=" M94.571426,77.132401   C96.895050,80.394341 98.905136,83.821739 100.955933,87.624344   C97.913315,88.423805 94.829979,88.848076 91.457291,89.165039   C90.536179,84.701141 90.806732,80.581650 94.571426,77.132401  z"
   id="path89" />
<path
   fill="#4C4181"
   opacity="1.000000"
   stroke="none"
   d=" M87.349060,76.931534   C85.415146,73.927681 83.742752,70.782089 90.196045,70.052490   C91.653046,70.153732 92.273163,70.228973 92.893280,70.304214   C92.589310,70.924126 92.285339,71.544037 91.960938,72.515488   C90.508934,74.178467 89.077362,75.489899 87.349060,76.931534  z"
   id="path90" />
<path
   fill="#4C4181"
   opacity="1.000000"
   stroke="none"
   d=" M85.360626,79.994110   C85.538727,79.208061 86.000168,78.259941 86.765747,77.178314   C86.594582,77.973892 86.119270,78.902977 85.360626,79.994110  z"
   id="path91" />
<path
   fill="#BFBDD0"
   opacity="1.000000"
   stroke="none"
   d=" M58.099430,54.970367   C57.759674,57.003220 57.419922,59.036072 56.985020,61.638229   C54.883202,60.757885 52.880310,59.918976 50.402988,58.777863   C49.612671,57.996853 49.296783,57.518044 48.822670,56.764198   C48.087616,56.239777 47.510784,55.990395 46.671810,55.607403   C45.317219,55.062347 44.224773,54.650902 43.070904,53.841076   C44.395657,50.742855 45.855652,48.077805 47.148743,45.334099   C48.660954,42.125473 50.027653,38.848274 51.327393,35.896278   C54.053944,38.752159 54.455502,34.209946 56.135147,33.070473   C56.577480,32.769619 57.019814,32.468765 57.751160,32.585320   C58.102371,36.997471 58.177013,40.992085 58.219860,44.987034   C58.234417,46.344044 58.168770,47.701912 58.089298,49.415535   C58.059029,51.504581 58.079227,53.237473 58.099430,54.970367  z"
   id="path92" />
<path
   fill="#2B255A"
   opacity="1.000000"
   stroke="none"
   d=" M55.919357,32.823685   C54.455502,34.209946 54.053944,38.752159 51.327393,35.896278   C50.027653,38.848274 48.660954,42.125473 47.148743,45.334099   C45.855652,48.077805 44.395657,50.742855 42.879608,53.823181   C42.749737,54.203663 42.365906,54.185848 42.365906,54.185852   C40.386539,53.969139 38.407169,53.752422 36.212811,53.275551   C35.803719,48.283119 36.205204,43.921753 39.709911,40.013084   C40.864883,38.724983 39.891838,35.528797 39.891838,33.319672   C42.809624,32.683334 46.393700,31.614866 50.050068,31.225821   C51.866089,31.032595 53.814854,32.086941 55.919357,32.823685  z"
   id="path93" />
<path
   fill="#C3C0D4"
   opacity="1.000000"
   stroke="none"
   d=" M74.649506,34.942375   C75.297089,35.552555 75.628616,36.025627 75.981194,36.717983   C76.002235,36.937267 75.772774,36.953423 75.431015,37.031235   C74.062393,39.736477 73.035530,42.363911 71.717453,44.872276   C70.272705,44.863197 69.119171,44.973183 67.679405,44.885101   C66.572044,42.799942 65.750900,40.912853 65.170929,38.778427   C67.931023,36.121300 68.257690,33.295876 66.997360,30.169571   C69.442726,31.714802 71.888084,33.260033 74.649506,34.942375  z"
   id="path94" />
<path
   fill="#C2BED8"
   opacity="1.000000"
   stroke="none"
   d=" M58.139771,49.059387   C58.168770,47.701912 58.234417,46.344044 58.219860,44.987034   C58.177013,40.992085 58.102371,36.997471 58.023037,32.593300   C58.005901,32.183868 58.431618,32.024624 58.994064,32.098930   C61.058548,34.456772 62.560593,36.740303 63.915222,39.338593   C62.148052,42.751957 60.528301,45.850559 58.716228,48.975868   C58.523911,49.002579 58.139767,49.059387 58.139771,49.059387  z"
   id="path95" />
<path
   fill="#BDBEC7"
   opacity="1.000000"
   stroke="none"
   d=" M64.062637,39.023830   C62.560593,36.740303 61.058548,34.456772 59.218719,32.064644   C61.143696,30.465368 62.953053,27.395832 66.667908,29.992023   C68.257690,33.295876 67.931023,36.121300 64.954178,38.758217   C64.496254,38.985340 64.062637,39.023830 64.062637,39.023830  z"
   id="path96" />
<path
   fill="#6B538F"
   opacity="1.000000"
   stroke="none"
   d=" M81.951599,32.380829   C83.545082,32.331741 85.057533,32.629425 86.722130,33.310135   C86.580162,34.464733 86.286049,35.236305 85.810265,36.171234   C85.393951,36.563671 85.184227,36.813663 85.006096,37.301826   C85.012764,37.519093 85.018822,37.953781 84.837753,38.226479   C84.437538,39.331795 84.218384,40.164417 83.781235,41.218117   C82.683289,42.302948 81.803352,43.166695 80.617050,43.884270   C78.798050,41.476543 77.285416,39.214985 75.772774,36.953423   C75.772774,36.953423 76.002235,36.937267 76.108002,36.982388   C79.336586,37.221832 81.134132,35.672688 81.951599,32.380829  z"
   id="path97" />
<path
   fill="#745997"
   opacity="1.000000"
   stroke="none"
   d=" M85.018822,37.953781   C85.018822,37.953781 85.012764,37.519093 85.184898,37.133759   C85.588921,36.518940 85.800552,36.272091 85.991943,36.007881   C86.286049,35.236305 86.580162,34.464733 86.948471,33.394997   C87.522163,32.514236 88.021645,31.931635 88.749878,31.175648   C89.155540,31.030470 89.332474,31.058680 89.932915,31.308039   C90.583435,31.731651 90.829315,31.907772 91.094063,32.057549   C92.068527,33.782314 93.042999,35.507080 93.800446,37.803513   C90.728561,38.234715 87.873688,38.094246 85.018822,37.953781  z"
   id="path98" />
<path
   fill="#806694"
   opacity="1.000000"
   stroke="none"
   d=" M91.378403,32.024055   C90.829315,31.907772 90.583435,31.731651 90.194405,31.370070   C90.757523,31.145508 91.482643,31.080065 92.572632,31.026920   C92.512573,31.356331 92.087662,31.673445 91.378403,32.024055  z"
   id="path99" />
<path
   fill="#554886"
   opacity="1.000000"
   stroke="none"
   d=" M93.156776,70.139542   C92.273163,70.228973 91.653046,70.153732 90.568878,70.032578   C90.079109,69.543221 90.053383,69.099792 89.931152,68.037735   C89.523308,66.910736 89.211967,66.402382 88.911331,65.532227   C88.609772,63.780239 88.297516,62.390049 88.331863,60.913109   C93.769386,58.108978 94.080917,56.220352 89.995422,52.591080   C90.664612,51.162468 91.318062,50.080894 92.220078,49.068684   C93.676834,48.741566 94.885010,48.345085 96.093201,47.948601   C97.354340,52.231976 99.795349,56.600521 99.494301,60.771133   C99.263496,63.968540 95.572388,66.916161 93.156776,70.139542  z"
   id="path100" />
<path
   fill="#624B88"
   opacity="1.000000"
   stroke="none"
   d=" M96.024445,47.594410   C94.885010,48.345085 93.676834,48.741566 92.259079,48.692551   C92.219498,46.431057 92.389496,44.615059 92.559486,42.799061   C92.198669,42.690342 91.837852,42.581623 91.477036,42.472904   C90.458664,43.579960 89.440285,44.687012 88.229263,46.003487   C86.714188,44.210312 85.356712,42.603676 83.999237,40.997036   C84.218384,40.164417 84.437538,39.331795 84.837753,38.226479   C87.873688,38.094246 90.728561,38.234715 93.836075,38.154144   C94.711044,41.035477 95.333366,44.137848 96.024445,47.594410  z"
   id="path101" />
<path
   fill="#574376"
   opacity="1.000000"
   stroke="none"
   d=" M99.604225,32.183937   C102.478653,32.638107 103.181656,34.196686 101.632988,36.998886   C100.949799,37.477791 100.739296,37.559616 100.528786,37.641438   C100.121300,35.893227 99.713821,34.145012 99.604225,32.183937  z"
   id="path102" />
<path
   fill="#8777A5"
   opacity="1.000000"
   stroke="none"
   d=" M100.571930,37.635323   C100.739296,37.559616 100.949799,37.477791 101.490051,37.320427   C101.596924,37.483284 101.323921,37.625576 100.766457,37.645454   C100.532120,37.619152 100.615082,37.629204 100.571930,37.635323  z"
   id="path103" />
<path
   fill="#C0BDDF"
   opacity="1.000000"
   stroke="none"
   d=" M42.311226,54.583031   C42.365906,54.185848 42.749737,54.203663 42.941032,54.221558   C44.224773,54.650902 45.317219,55.062347 46.657852,55.911186   C46.919518,56.549652 46.932995,56.750732 46.736031,57.216911   C45.007217,59.302795 43.488846,61.123581 41.970474,62.944366   C41.493610,62.975800 41.016750,63.007236 40.181473,63.021332   C40.634220,60.329399 41.445385,57.654808 42.311226,54.583031  z"
   id="path104" />
<path
   fill="#483E81"
   opacity="1.000000"
   stroke="none"
   d=" M42.157875,63.177124   C43.488846,61.123581 45.007217,59.302795 47.076920,57.226646   C48.079132,56.993931 48.530014,57.016582 48.980896,57.039234   C49.296783,57.518044 49.612671,57.996853 50.054489,58.738342   C51.477871,65.690277 52.775318,72.379539 53.824646,79.516640   C53.382214,79.977638 53.187901,79.990799 52.993591,80.003967   C51.585026,80.304199 50.176456,80.604424 48.410736,80.924301   C47.037121,78.389061 46.570271,75.356171 44.867447,73.398178   C42.654152,70.853218 40.378841,68.993256 43.174286,65.543945   C43.412708,65.249763 42.645382,64.140503 42.157875,63.177124  z"
   id="path105" />
<path
   fill="#3C3372"
   opacity="1.000000"
   stroke="none"
   d=" M52.908287,80.366730   C53.187901,79.990799 53.382214,79.977638 53.867657,79.941696   C54.578384,80.225014 54.997978,80.531113 55.662357,80.935272   C56.606815,84.738174 57.306488,88.443001 58.058632,92.551407   C57.922283,92.963181 57.733463,92.971375 57.261131,92.991150   C50.361767,87.499336 50.361767,87.499336 52.908287,80.366730  z"
   id="path106" />
<path
   fill="#CFC8E3"
   opacity="1.000000"
   stroke="none"
   d=" M75.893242,66.954330   C75.220612,66.625908 74.052986,66.406166 73.953270,65.951965   C73.119225,62.152977 70.525932,62.321651 67.192871,62.678055   C66.150536,62.201000 65.576302,61.985008 65.002068,61.769016   C65.002068,61.769016 64.991631,61.344482 65.101654,60.836876   C66.445206,59.537880 67.678719,58.746490 69.226089,57.803802   C70.082199,56.149086 70.624443,54.645672 71.568665,53.115692   C73.313362,53.058704 74.656075,53.028286 76.165482,53.264221   C76.911530,54.403557 77.490883,55.276531 78.041840,56.542999   C77.736046,58.969780 77.458649,61.003067 77.116547,63.384232   C76.776939,64.848854 76.502052,65.965607 76.140625,67.058311   C76.054085,67.034271 75.893242,66.954330 75.893242,66.954330  z"
   id="path107" />
<path
   fill="#453877"
   opacity="1.000000"
   stroke="none"
   d=" M68.912231,57.955101   C67.678719,58.746490 66.445206,59.537880 65.087326,60.625031   C64.155777,60.638039 63.348579,60.355286 62.257706,59.460846   C62.008862,56.876644 62.043701,54.904137 62.421936,52.942764   C64.350845,52.297195 65.936363,51.640480 67.776115,50.878471   C68.212982,51.287403 69.136955,52.152287 70.010910,53.383659   C69.611336,55.151791 69.261780,56.553444 68.912231,57.955101  z"
   id="path108" />
<path
   fill="#4C4281"
   opacity="1.000000"
   stroke="none"
   d=" M85.021973,66.901260   C83.799362,72.370789 83.000305,72.822929 75.569824,72.028412   C75.374908,70.575287 75.551903,69.133011 75.811066,67.322533   C75.893242,66.954330 76.054085,67.034271 76.534203,67.048981   C78.322449,67.058784 79.630585,67.053864 81.260483,66.994095   C82.396011,66.634041 83.209763,66.328835 84.252724,66.029213   C84.481934,66.034798 84.940277,66.048882 84.965660,66.261497   C84.991043,66.474113 85.021973,66.901260 85.021973,66.901260  z"
   id="path109" />
<path
   fill="#3A3168"
   opacity="1.000000"
   stroke="none"
   d=" M62.078545,52.931625   C62.043701,54.904137 62.008862,56.876644 61.971870,59.269211   C60.861164,58.240772 59.752605,56.792274 58.371735,55.157074   C58.079227,53.237473 58.059029,51.504581 58.089294,49.415535   C58.139767,49.059387 58.523911,49.002579 59.002136,49.107231   C60.272167,49.482628 61.063976,49.753376 61.887325,50.387650   C61.972092,51.477993 62.025318,52.204807 62.078545,52.931625  z"
   id="path110" />
<path
   fill="#554C80"
   opacity="1.000000"
   stroke="none"
   d=" M65.126328,64.196480   C64.683243,64.706131 64.240158,65.215790 63.797077,65.725441   C63.527390,65.058578 63.257702,64.391724 63.254093,63.464100   C64.055557,63.534386 64.590942,63.865433 65.126328,64.196480  z"
   id="path111" />
<path
   fill="#5E5296"
   opacity="1.000000"
   stroke="none"
   d=" M65.379089,64.084053   C64.590942,63.865433 64.055557,63.534386 63.213345,63.123539   C63.420303,62.662350 63.934090,62.280960 64.724976,61.834293   C65.576302,61.985008 66.150536,62.201000 66.840454,62.704536   C66.514709,63.318596 66.073288,63.645111 65.379089,64.084053  z"
   id="path112" />
<path
   fill="#6F649D"
   opacity="1.000000"
   stroke="none"
   d=" M84.023514,66.023628   C83.209763,66.328835 82.396011,66.634041 81.242203,66.637871   C79.661850,65.236450 78.421555,64.136406 77.181259,63.036358   C77.458649,61.003067 77.736046,58.969780 78.381142,56.534813   C80.472702,57.148727 82.196556,58.164322 84.058800,59.462547   C85.106071,60.156422 86.014954,60.567665 87.189240,60.982170   C87.631500,60.990231 87.808380,60.995041 87.985260,60.999855   C88.297516,62.390049 88.609772,63.780239 88.736694,65.670181   C88.319771,66.355324 88.106827,66.560104 87.912537,66.784286   C87.189301,66.807182 86.466072,66.830086 85.382401,66.877121   C85.021973,66.901260 84.991043,66.474113 84.936707,66.097374   C84.596085,65.821632 84.309799,65.922630 84.023514,66.023628  z"
   id="path113" />
<path
   fill="#4C4181"
   opacity="1.000000"
   stroke="none"
   d=" M88.136261,66.997467   C88.106827,66.560104 88.319771,66.355324 88.725998,66.031975   C89.211967,66.402382 89.523308,66.910736 89.920944,67.704681   C89.458160,67.730385 88.909065,67.470512 88.136261,66.997467  z"
   id="path114" />
<path
   fill="#9C9AB7"
   opacity="1.000000"
   stroke="none"
   d=" M48.822670,56.764198   C48.530014,57.016582 48.079132,56.993931 47.287361,56.961544   C46.932995,56.750732 46.919518,56.549652 46.919994,56.044792   C47.510784,55.990395 48.087616,56.239777 48.822670,56.764198  z"
   id="path115" />
<path
   fill="#D1C9E2"
   opacity="1.000000"
   stroke="none"
   d=" M83.920418,59.179916   C82.196556,58.164322 80.472702,57.148727 78.409538,56.141319   C77.490883,55.276531 76.911530,54.403557 76.204056,52.869705   C76.751518,48.658283 78.349121,44.588146 72.008667,44.991344   C73.035530,42.363911 74.062393,39.736477 75.431015,37.031235   C77.285416,39.214985 78.798050,41.476543 80.746574,44.180458   C81.721397,45.760513 82.260330,46.898212 82.653549,48.339417   C83.056580,50.075314 83.605324,51.507713 84.402893,53.034561   C85.075760,53.439747 85.499794,53.750488 85.948746,54.419109   C86.051025,55.489414 86.128387,56.201836 85.933746,57.093086   C85.081314,57.907913 84.500862,58.543915 83.920418,59.179916  z"
   id="path116" />
<path
   fill="#C9C3DB"
   opacity="1.000000"
   stroke="none"
   d=" M71.717453,44.872276   C78.349121,44.588146 76.751518,48.658283 76.037361,52.603348   C74.656075,53.028286 73.313362,53.058704 71.504364,53.059055   C71.038078,53.028988 70.913574,52.915154 70.929581,52.569672   C69.998322,50.477268 69.051064,48.730347 68.060516,46.668507   C68.000031,45.930119 67.982826,45.506641 67.965630,45.083168   C69.119171,44.973183 70.272705,44.863197 71.717453,44.872276  z"
   id="path117" />
<path
   fill="#463D73"
   opacity="1.000000"
   stroke="none"
   d=" M67.679405,44.885101   C67.982826,45.506641 68.000031,45.930119 67.691269,46.686668   C65.528801,48.021206 63.692291,49.022663 61.855782,50.024124   C61.063976,49.753376 60.272167,49.482628 59.194454,49.080521   C60.528301,45.850559 62.148052,42.751957 63.915222,39.338593   C64.062637,39.023830 64.496254,38.985340 64.713013,39.005554   C65.750900,40.912853 66.572044,42.799942 67.679405,44.885101  M62.650951,45.333374   C62.582581,45.463482 62.514210,45.593586 62.445835,45.723690   C62.530464,45.649895 62.615093,45.576103 62.650951,45.333374  z"
   id="path118" />
<path
   fill="#55407F"
   opacity="1.000000"
   stroke="none"
   d=" M82.799271,48.035912   C82.260330,46.898212 81.721397,45.760513 81.052933,44.326630   C81.803352,43.166695 82.683289,42.302948 83.781235,41.218117   C85.356712,42.603676 86.714188,44.210312 88.229263,46.003487   C89.440285,44.687012 90.458664,43.579960 91.477036,42.472904   C91.837852,42.581623 92.198669,42.690342 92.559486,42.799061   C92.389496,44.615059 92.219498,46.431057 92.010506,48.623184   C91.318062,50.080894 90.664612,51.162468 89.643997,52.627655   C88.159164,53.361252 87.041496,53.711239 85.923836,54.061226   C85.499794,53.750488 85.075760,53.439747 84.349304,52.668549   C83.631020,50.817364 83.215141,49.426640 82.799271,48.035912  z"
   id="path119" />
<path
   fill="#624B88"
   opacity="1.000000"
   stroke="none"
   d=" M85.810272,36.171234   C85.800552,36.272091 85.588921,36.518940 85.178230,36.916492   C85.184227,36.813663 85.393951,36.563671 85.810272,36.171234  z"
   id="path120" />
<path
   fill="#625695"
   opacity="1.000000"
   stroke="none"
   d=" M85.948746,54.419106   C87.041496,53.711239 88.159164,53.361252 89.628250,52.974686   C94.080917,56.220352 93.769386,58.108978 88.331863,60.913109   C87.808380,60.995041 87.631500,60.990231 87.215652,60.619949   C86.719711,59.141068 86.462730,58.027664 86.205750,56.914261   C86.128387,56.201836 86.051025,55.489414 85.948746,54.419106  z"
   id="path121" />
<path
   fill="#594D91"
   opacity="1.000000"
   stroke="none"
   d=" M77.116547,63.384232   C78.421555,64.136406 79.661850,65.236450 80.920425,66.692726   C79.630585,67.053864 78.322449,67.058784 76.620743,67.073029   C76.502052,65.965607 76.776939,64.848854 77.116547,63.384232  z"
   id="path122" />
<path
   fill="#C9C3DB"
   opacity="1.000000"
   stroke="none"
   d=" M69.226089,57.803799   C69.261780,56.553444 69.611336,55.151791 70.225044,53.366333   C70.489204,52.982529 70.913574,52.915154 70.913574,52.915154   C70.913574,52.915154 71.038078,53.028988 71.102379,53.085625   C70.624443,54.645672 70.082199,56.149086 69.226089,57.803799  z"
   id="path123" />
<path
   fill="#514581"
   opacity="1.000000"
   stroke="none"
   d=" M70.929581,52.569672   C70.913574,52.915154 70.489204,52.982529 70.275070,52.999851   C69.136955,52.152287 68.212982,51.287403 67.776115,50.878471   C65.936363,51.640480 64.350845,52.297195 62.421932,52.942764   C62.025318,52.204807 61.972092,51.477993 61.887325,50.387650   C63.692291,49.022663 65.528801,48.021206 67.734558,47.001583   C69.051064,48.730347 69.998322,50.477268 70.929581,52.569672  z"
   id="path124" />
<path
   fill="#594D91"
   opacity="1.000000"
   stroke="none"
   d=" M84.252724,66.029213   C84.309799,65.922630 84.596085,65.821632 84.911324,65.884758   C84.940277,66.048882 84.481934,66.034798 84.252724,66.029213  z"
   id="path125" />
<path
   fill="#CFC8E3"
   opacity="1.000000"
   stroke="none"
   d=" M85.933754,57.093086   C86.462730,58.027664 86.719711,59.141068 86.950264,60.616692   C86.014954,60.567665 85.106071,60.156422 84.058800,59.462547   C84.500862,58.543915 85.081314,57.907913 85.933754,57.093086  z"
   id="path126" />
<path
   fill="#CFC8E3"
   opacity="1.000000"
   stroke="none"
   d=" M82.653549,48.339417   C83.215141,49.426640 83.631020,50.817364 84.100479,52.574100   C83.605324,51.507713 83.056580,50.075314 82.653549,48.339417  z"
   id="path127" />
<path
   fill="#514581"
   opacity="1.000000"
   stroke="none"
   d=" M62.675335,45.417839   C62.615093,45.576103 62.530464,45.649895 62.445839,45.723694   C62.514210,45.593586 62.582581,45.463482 62.675335,45.417839  z"
   id="path128" />
</svg>
