<?xml version="1.0" encoding="UTF-8" standalone="no"?>
<svg
   version="1.0"
   width="256.000000pt"
   height="256.000000pt"
   viewBox="0 0 256.000000 256.000000"
   preserveAspectRatio="xMidYMid meet"
   id="svg6"
   sodipodi:docname="org.astian.midori.svg"
   inkscape:version="1.4.3 (unknown)"
   xmlns:inkscape="http://www.inkscape.org/namespaces/inkscape"
   xmlns:sodipodi="http://sodipodi.sourceforge.net/DTD/sodipodi-0.dtd"
   xmlns="http://www.w3.org/2000/svg"
   xmlns:svg="http://www.w3.org/2000/svg">
  <defs
     id="defs6" />
  <sodipodi:namedview
     id="namedview6"
     pagecolor="#ffffff"
     bordercolor="#000000"
     borderopacity="0.25"
     inkscape:showpageshadow="2"
     inkscape:pageopacity="0.0"
     inkscape:pagecheckerboard="0"
     inkscape:deskcolor="#d1d1d1"
     inkscape:document-units="pt"
     inkscape:zoom="2.6982422"
     inkscape:cx="170.66667"
     inkscape:cy="170.66667"
     inkscape:window-width="1920"
     inkscape:window-height="1172"
     inkscape:window-x="0"
     inkscape:window-y="0"
     inkscape:window-maximized="1"
     inkscape:current-layer="g6" />
  <metadata
     id="metadata1">
Created by potrace 1.16, written by Peter Selinger 2001-2019
</metadata>
  <g
     transform="translate(0.000000,256.000000) scale(0.100000,-0.100000)"
     fill="#000000"
     stroke="none"
     id="g6">
    <path
       d="M0 2343 l1 -218 22 65 c57 168 197 300 372 351 l60 18 -227 0 -228 1 0 -217z"
       id="path1" />
    <path
       d="M2165 2541 c89 -26 156 -64 223 -126 73 -67 120 -138 149 -225 l22 -65 1 218 0 217 -227 -1 -228 0 60 -18z"
       id="path2" />
    <path
       d="M418 2534 c-139 -33 -293 -154 -352 -275 -57 -118 -56 -95 -56 -979 0 -884 -1 -861 56 -979 37 -76 151 -189 231 -230 123 -62 110 -61 983 -61 873 0 860 -1 983 61 80 41 194 154 231 230 57 118 56 95 56 979 0 884 1 861 -56 979 -37 76 -151 189 -231 230 -123 62 -109 61 -988 60 -646 -1 -811 -3 -857 -15z m1107 -313 c305 -76 568 -295 686 -571 98 -232 98 -508 0 -740 -119 -278 -380 -495 -691 -573 -122 -31 -358 -31 -480 0 -376 95 -666 384 -746 745 -22 99 -22 299 0 397 81 360 377 656 741 741 118 28 128 29 275 25 91 -3 161 -10 215 -24z"
       id="path3"
       style="fill:#03a569;fill-opacity:1" />
    <path
       d="M1018 1657 c-34 -31 -442 -713 -434 -726 10 -16 99 -30 136 -22 47 10 90 34 117 63 12 12 71 105 131 206 l110 183 19 -33 c11 -18 37 -65 58 -104 l38 -70 -67 -112 c-37 -62 -65 -116 -62 -121 12 -20 94 -31 145 -20 77 16 116 60 240 267 l109 184 25 -44 c14 -23 66 -119 117 -213 51 -93 100 -178 110 -188 25 -27 93 -34 126 -13 36 25 58 80 45 117 -22 64 -324 606 -352 632 -33 30 -74 35 -117 13 -18 -9 -54 -61 -107 -150 -44 -74 -82 -136 -85 -136 -3 0 -38 61 -78 135 -40 74 -85 144 -99 155 -36 28 -93 26 -125 -3z"
       id="path4"
       style="fill:#03a66a;fill-opacity:1" />
    <path
       d="M0 218 l0 -218 228 1 227 0 -60 18 c-89 26 -156 64 -223 126 -73 67 -120 138 -149 225 l-22 65 -1 -217z"
       id="path5" />
    <path
       d="M2538 372 c-22 -76 -81 -165 -153 -230 -66 -60 -133 -98 -220 -123 l-60 -18 228 0 227 -1 0 215 c0 118 -1 215 -2 215 -2 0 -11 -26 -20 -58z"
       id="path6" />
  </g>
</svg>
