<?xml version="1.0" encoding="UTF-8"?>
<svg height="16px" viewBox="0 0 16 16" width="16px" xmlns="http://www.w3.org/2000/svg">
    <path d="m 11.46875 7.902344 c 0.035156 -1.722656 -1.445312 -3.46875 -3.46875 -3.472656 l 1.140625 -2.304688 c 0.222656 -0.410156 0.011719 -0.492188 -0.300781 -0.644531 l -2.378906 -0.832031 c 4.453124 -0.9375 7.554687 1.878906 8.546874 4.078124 c 0.871094 1.335938 -1.226562 3.019532 -3.539062 3.175782 z m 0 0"/>
    <path d="m 4.515625 7.894531 c -0.035156 1.722657 1.445313 3.46875 3.46875 3.472657 l -1.140625 2.304687 c -0.222656 0.410156 -0.011719 0.492187 0.300781 0.644531 l 2.378907 0.832032 c -4.453126 0.9375 -7.554688 -1.878907 -8.546876 -4.078126 c -0.871093 -1.335937 1.226563 -3.019531 3.539063 -3.175781 z m 0 0"/>
    <path d="m 15.109375 4.929688 c 1.828125 4.625 -0.882813 8.335937 -3.550781 9.605468 c 0.007812 0.109375 0.273437 0.964844 0.324218 1.261719 c -0.039062 0.191406 -0.195312 0.089844 -0.449218 0.003906 c -1.542969 -0.535156 -2.988282 -1.015625 -4.269532 -1.476562 c -0.53125 -0.234375 -0.511718 -0.351563 -0.164062 -0.964844 l 1.574219 -3.195313 c 0.226562 -0.445312 0.425781 -0.347656 0.609375 -0.261718 l 0.300781 1.128906 c 2.082031 -1.03125 1.984375 -3.128906 1.984375 -3.128906 c 2.019531 -0.085938 4.253906 -1.734375 3.640625 -2.972656 z m 0 0"/>
    <path d="m 0.878906 10.867188 c -1.824218 -4.621094 0.882813 -8.332032 3.554688 -9.601563 c -0.011719 -0.113281 -0.277344 -0.964844 -0.328125 -1.26171875 c 0.039062 -0.19531225 0.195312 -0.09375005 0.453125 -0.00390625 c 1.542968 0.53125 2.984375 1.011719 4.265625 1.472656 c 0.53125 0.238282 0.511719 0.355469 0.160156 0.96875 l -1.578125 3.191406 c -0.226562 0.445313 -0.417969 0.351563 -0.601562 0.265626 l -0.300782 -1.128907 c -2.082031 1.03125 -1.984375 3.128907 -1.984375 3.128907 c -2.015625 0.082031 -4.253906 1.734374 -3.640625 2.96875 z m 0 0"/>
</svg>
