<?xml version="1.0" standalone="no"?><!DOCTYPE svg PUBLIC "-//W3C//DTD SVG 1.1//EN" "http://www.w3.org/Graphics/SVG/1.1/DTD/svg11.dtd"><svg t="1677247811298" class="icon" viewBox="0 0 1024 1024" version="1.1" xmlns="http://www.w3.org/2000/svg" p-id="3814" xmlns:xlink="http://www.w3.org/1999/xlink" width="200" height="200"><path d="M582.239997 663.142968c-56.713997 0-113.426994-21.589999-156.609992-64.772997-11.728999-11.726999-11.728999-30.792998 0-42.520998 11.728999-11.726999 30.791998-11.726999 42.520998 0 62.910997 62.909997 165.212992 62.909997 228.121989 0L914.94998 337.169984c62.910997-62.909997 62.910997-165.211992 0-228.121989-62.907997-62.909997-165.210992-62.909997-228.119989 0L502.313 293.565986c-11.728999 11.727999-30.792998 11.727999-42.521998 0-11.726999-11.727999-11.726999-30.792998 0-42.520998L644.308994 66.527997c86.364996-86.364996 226.858989-86.364996 313.163985 0 86.304996 86.363996 86.363996 226.857989 0 313.163985L738.794989 598.368971c-43.183998 43.183998-99.898995 64.772997-156.612992 64.772997L582.239997 663.141968zM221.386014 1023.99995c-56.714997 0-113.429994-21.591999-156.611992-64.772997-86.363996-86.364996-86.363996-226.856989 0-313.163985l218.678989-218.678989c86.364996-86.364996 226.858989-86.364996 313.162985 0 11.727999 11.727999 11.727999 30.791998 0 42.520998-11.727999 11.726999-30.792998 11.726999-42.518998 0-62.910997-62.909997-165.213992-62.909997-228.122989 0L107.29402 688.583966c-62.909997 62.907997-62.909997 165.212992 0 228.120989 62.908997 62.907997 165.211992 62.907997 228.121989 0l184.516991-184.517991c11.728999-11.728999 30.793998-11.728999 42.520998 0 11.728999 11.726999 11.728999 30.790998 0 42.520998L377.938007 959.226953C334.755009 1002.407951 278.040011 1023.99995 221.325014 1023.99995L221.386014 1023.99995z" fill="#272636" p-id="3815"></path></svg>