<svg fill="none" height="30" viewBox="0 0 30 30" width="30" xmlns="http://www.w3.org/2000/svg" xmlns:xlink="http://www.w3.org/1999/xlink"><linearGradient id="a" gradientUnits="userSpaceOnUse" x1="15" x2="13" y1="-26.5" y2="56"><stop offset="0" stop-color="#62c"/><stop offset="1" stop-color="#030026"/></linearGradient><clipPath id="b"><path d="m0 0h30v30h-30z"/></clipPath><g clip-path="url(#b)"><path d="m23.226 2.675-7.831-2.611a1.25 1.25 0 0 0 -.79 0l-7.831 2.611a6.241 6.241 0 0 0 -4.274 5.929v6.396c0 9.454 11.5 14.675 11.992 14.892a1.25 1.25 0 0 0 1.015 0c.493-.217 11.993-5.438 11.993-14.892v-6.396a6.241 6.241 0 0 0 -4.274-5.929zm-2.328 9.471-5.34 5.34a2.342 2.342 0 0 1 -1.67.691h-.04a2.34 2.34 0 0 1 -1.682-.75l-2.882-3a1.25 1.25 0 1 1 1.801-1.727l2.805 2.925 5.235-5.25a1.25 1.25 0 0 1 1.767 1.768z" fill="url(#a)"/></g></svg>