<svg fill="none" height="30" viewBox="0 0 30 30" width="30" xmlns="http://www.w3.org/2000/svg" xmlns:xlink="http://www.w3.org/1999/xlink"><linearGradient id="a" gradientUnits="userSpaceOnUse" x1="15" x2="15" y1="-11.5" y2="58.5"><stop offset="0" stop-color="#62c"/><stop offset="1" stop-color="#030026"/></linearGradient><clipPath id="b"><path d="m0 0h30v30h-30z"/></clipPath><g clip-path="url(#b)"><path d="m29.189.811a2.735 2.735 0 0 0 -2.889-.643l-.27.096a40.9 40.9 0 0 0 -16.076 9.781 28.385 28.385 0 0 0 -3.089 3.77c-1.75 2.5-2.082 5.236.068 7.388l.048.047-2.866 2.866a1.25 1.25 0 0 0 1.768 1.768l2.866-2.867.047.05c2.152 2.15 4.894 1.814 7.388.067a28.383 28.383 0 0 0 3.77-3.089 40.899 40.899 0 0 0 9.781-16.077l.096-.27a2.733 2.733 0 0 0 -.641-2.888zm-15.439 16.689a1.25 1.25 0 1 1 0-2.501 1.25 1.25 0 0 1 0 2.501zm3.75-3.75a1.25 1.25 0 1 1 0-2.501 1.25 1.25 0 0 1 0 2.501zm3.75-3.75a1.25 1.25 0 1 1 0-2.5 1.25 1.25 0 0 1 0 2.5zm-18.296 6.297a2.952 2.952 0 0 1 -2.954-2.952c.003-.77.3-1.51.831-2.068a12.22 12.22 0 0 1 8.075-3.68c-.239.228-.482.444-.719.68a31.004 31.004 0 0 0 -3.368 4.098 10.25 10.25 0 0 0 -1.725 3.916zm10.796 10.61a10.231 10.231 0 0 0 3.916-1.726 30.921 30.921 0 0 0 4.104-3.369c.238-.236.453-.48.681-.718a12.228 12.228 0 0 1 -3.681 8.075 3.013 3.013 0 0 1 -2.066.831 2.954 2.954 0 0 1 -2.954-2.954v-.14z" fill="url(#a)"/></g></svg>