<svg fill="none" height="30" viewBox="0 0 30 30" width="30" xmlns="http://www.w3.org/2000/svg" xmlns:xlink="http://www.w3.org/1999/xlink"><linearGradient id="a" gradientUnits="userSpaceOnUse" x1="15" x2="15" y1="-14" y2="57"><stop offset="0" stop-color="#62c"/><stop offset="1" stop-color="#030026"/></linearGradient><clipPath id="b"><path d="m0 0h30v30h-30z"/></clipPath><g clip-path="url(#b)"><path d="m5.054 10.089c.571-9.382 5.829-10.056 6.071-10.082.041-.004.083-.007.125-.007a5.64 5.64 0 0 1 3.019 1.021 1.269 1.269 0 0 0 1.463 0 5.634 5.634 0 0 1 3.018-1.021c.044 0 .088.003.131.007.236.026 5.5.7 6.065 10.082a.918.918 0 0 1 -.571.911 25.391 25.391 0 0 1 -9.375 1.5 25.395 25.395 0 0 1 -9.375-1.5.918.918 0 0 1 -.571-.911zm23.312 2.397a1.178 1.178 0 0 0 -1.285-.043c-1.376.807-5.159 2.557-12.081 2.557s-10.704-1.75-12.081-2.557a1.178 1.178 0 0 0 -1.285.043 3.291 3.291 0 0 0 -1.634 2.514c0 4.613 7.742 5 15 5s15-.387 15-5a3.29 3.29 0 0 0 -1.634-2.514zm-7.741 8.764a4.374 4.374 0 0 0 -4.044 2.718 5.857 5.857 0 0 0 -3.162 0 4.367 4.367 0 1 0 .241 2.54c.43-.155.883-.242 1.34-.258.457.016.91.103 1.34.259a4.375 4.375 0 1 0 4.285-5.259z" fill="url(#a)"/></g></svg>