<svg fill="none" height="20" viewBox="0 0 89 20" width="89" xmlns="http://www.w3.org/2000/svg" xmlns:xlink="http://www.w3.org/1999/xlink"><linearGradient id="a" gradientUnits="userSpaceOnUse" x1="-15.5" x2="59.992" y1="10" y2="75.024"><stop offset="0" stop-color="#62c"/><stop offset="1" stop-color="#301060"/></linearGradient><g fill="url(#a)"><path d="m86.067 3.737a1.153 1.153 0 0 0 -.784-.093 1.303 1.303 0 0 0 -.694.444l-1.754 2.087-3.11-3.702c-.254-.303-.6-.473-.959-.473-.36 0-.705.17-.959.473l-3.11 3.702-1.754-2.087a1.306 1.306 0 0 0 -.694-.442 1.156 1.156 0 0 0 -.784.092c-.248.122-.46.329-.609.594a1.84 1.84 0 0 0 -.228.897v8.547c0 1.07.358 2.096.994 2.853s1.498 1.182 2.397 1.184h9.494c.9-.002 1.761-.427 2.397-1.184s.993-1.783.994-2.853v-8.547c0-.32-.079-.631-.228-.897a1.439 1.439 0 0 0 -.609-.595z"/><path d="m10.993 8.568h-5.28l.72 1.536h3.024v3.376h-3.6c-1.92-.256-3.392-1.856-3.392-3.776s1.472-3.52 3.392-3.776h5.104v-1.52h-4.56a5.49 5.49 0 0 0 -3.824 1.52 5.258 5.258 0 0 0 -1.616 3.776c0 1.472.624 2.816 1.616 3.776a5.49 5.49 0 0 0 3.824 1.52h4.592z"/><path d="m17.516 5.896c2.08 0 3.776 1.712 3.776 3.792a3.786 3.786 0 0 1 -3.776 3.792 3.79 3.79 0 0 1 -3.792-3.792 3.8 3.8 0 0 1 3.792-3.792zm-5.328 3.792a5.313 5.313 0 0 0 5.328 5.312 5.31 5.31 0 0 0 5.312-5.312 5.31 5.31 0 0 0 -5.312-5.312 5.313 5.313 0 0 0 -5.328 5.312z"/><path d="m39.233 7.208a2.827 2.827 0 0 0 -2.688-2.816v-.016h-5.856v10.624h1.536v-4.944h4.416l-.016-.016a2.842 2.842 0 0 0 2.608-2.832zm-2.833 1.312h-4.176v-2.608h4.176c.704 0 1.296.592 1.296 1.296 0 .72-.592 1.312-1.296 1.312z"/><path d="m46.975 9.512-.192-.288c.016-.016.032-.016.032-.032h.016c.032-.016.064-.032.08-.064h.016c.016-.016.048-.032.08-.048a1.7 1.7 0 0 0 .176-.144c.016 0 .032-.016.048-.032a.22.22 0 0 0 .064-.048.424.424 0 0 1 .096-.08l.016-.016c.016-.016.048-.032.064-.064a.783.783 0 0 0 .208-.192 5.207 5.207 0 0 0 1.456-2.624c.08-.368.128-.752.128-1.152 0-.128 0-.256-.016-.384h-8.816v10.656h1.536v-4.96h2.256c.032 0 .08 0 .128-.016h.128c.032-.016.08-.016.112-.016.016 0 .032 0 .048-.016h.096c.016-.016.032-.016.048-.016s.048 0 .08-.016c.08-.016.176-.032.272-.048.032-.016.08-.016.112-.032h.032c.032-.016.048-.016.08-.032h.016l.096.144 3.056 5.008h1.792zm-1.535-1.312a3.664 3.664 0 0 1 -1.504.304h-1.968v-2.624h5.584a3.924 3.924 0 0 1 -.944 1.536 3.75 3.75 0 0 1 -1.168.784z"/><path d="m54.924 5.896c2.08 0 3.776 1.712 3.776 3.792a3.786 3.786 0 0 1 -3.776 3.792 3.79 3.79 0 0 1 -3.792-3.792 3.8 3.8 0 0 1 3.792-3.792zm-5.328 3.792a5.313 5.313 0 0 0 5.328 5.312 5.31 5.31 0 0 0 5.312-5.312 5.31 5.31 0 0 0 -5.312-5.312 5.313 5.313 0 0 0 -5.328 5.312z"/></g></svg>