<svg fill="none" height="20" viewBox="0 0 20 20" width="20" xmlns="http://www.w3.org/2000/svg" xmlns:xlink="http://www.w3.org/1999/xlink"><clipPath id="a"><path d="m0 0h20v20h-20z"/></clipPath><g clip-path="url(#a)" fill="#ae77ff"><path d="m10 5a.833.833 0 0 0 -.833.833v4.167c0 .221.088.433.244.59l2.5 2.5a.833.833 0 0 0 1.178-1.18l-2.256-2.255v-3.822a.833.833 0 0 0 -.833-.833z"/><path d="m19.844 8.443a10 10 0 0 0 -16.862-5.597v-2.013a.833.833 0 0 0 -1.667 0v3.334a1.667 1.667 0 0 0 1.667 1.666h3.333a.833.833 0 1 0 0-1.666h-2.292a8.325 8.325 0 1 1 -2.363 6.565.818.818 0 0 0 -.826-.732.839.839 0 0 0 -.834.917 10 10 0 1 0 19.84-2.474z"/></g></svg>