<svg xmlns="http://www.w3.org/2000/svg" width="22" height="22" fill="none" viewBox="0 0 22 22">
  <path fill="#B5AEBE" d="M21.484 9.6l-7.79-8.422a3.667 3.667 0 00-5.385 0L.533 9.597A1.833 1.833 0 000 10.889v8.347a2.75 2.75 0 002.75 2.75h3.667v-5.5a4.57 4.57 0 012.409-4.01l.139-.075a4.55 4.55 0 01.528-.223c.124-.045.25-.084.379-.117.129-.034.285-.065.431-.092.081-.013.156-.04.239-.049a4.53 4.53 0 01.417-.017c.014 0 .027-.005.041-.005h.017c.283.002.566.031.845.086.03.006.062.009.091.015.262.057.517.137.765.239.035.013.07.026.104.042.237.102.465.225.68.366l.102.068c.21.146.407.309.59.487l.085.086c.179.184.343.382.49.592l.062.092c.144.219.27.45.375.69l.034.092c.104.253.186.515.243.784 0 .02.007.04.01.061.06.292.09.59.09.888v5.5h3.667a2.75 2.75 0 002.75-2.75v-8.36c0-.477-.185-.934-.516-1.277z"/>
  <path fill="#B5AEBE" d="M11 13.736a2.75 2.75 0 00-2.75 2.75v5.5h5.5v-5.5a2.75 2.75 0 00-2.75-2.75z"/>
</svg>
