<svg xmlns="http://www.w3.org/2000/svg" width="17" height="15" fill="none" viewBox="0 0 17 15">
  <path fill="#AE77FF" d="M3.727 15H.309V.781h3.418V15zm1.982 0V.781h4.58c1.257 0 2.386.287 3.39.86a5.934 5.934 0 012.343 2.412c.566 1.035.853 2.197.86 3.486v.654c0 1.302-.277 2.471-.83 3.506a6.03 6.03 0 01-2.325 2.422c-.996.58-2.11.872-3.34.879H5.71zM9.137 3.428v8.935h1.191c.984 0 1.739-.348 2.266-1.045.527-.703.791-1.744.791-3.125v-.615c0-1.374-.264-2.409-.79-3.105-.528-.697-1.296-1.045-2.306-1.045H9.138z"/>
</svg>
