<svg fill="none" height="186" viewBox="0 0 223 186" width="223" xmlns="http://www.w3.org/2000/svg"><g clip-rule="evenodd" fill-rule="evenodd"><path d="m64.3333 160.524c-39.7711-16.078-39.526 4.106-57.2525-25.658s-1.3411-73.617 50.6778-87.1642c52.0194-13.547 124.3024-77.4727 162.8904 28.8282 10.844 29.872-10.052 109.435-85.125 109.277-53.741-.115-44.311-14.717-71.1907-25.283z" fill="#c7b4e3"/><g fill="#fff"><path d="m129.899 99.019c-.188-.147-.14-.599-.084-.903.354-1.929 2.059-3.221 3.563-4.426s3.059-2.823 2.903-4.78c-.211-2.643 1.008-5.15 1.751-7.689.744-2.539.876-5.667-1.02-7.462-.656-.621-1.494-1.011-2.155-1.628-.662-.616-1.137-1.616-.761-2.45-.321.192-.641.384-.962.577-.089-1.289-1.553-1.863-2.655-2.48-1.889-1.059-3.271-3.198-3.12-5.409.152-2.211 2.08-4.247 4.228-4.123.922.054 2.106.346 2.564-.481 1.692-3.052 6.08-3.404 8.073-6.257.434-.621 2.529-2.478 2.323-1.165-.46 2.919 2.097 2.072 3.105 3.294 4.396 5.326 4.735 13.396 3.942 21.044-1.697 16.366-11.812 32.113-21.695 24.338z"/><path d="m141.831 55.1138c1.024-1.101 2.515-1.752 4.019-1.752 2.484 1.287 4.941 3.03 7.371 5.226 1.524-.603 2.598-.725 3.222-.367.935.537 1.508 1.555 1.78 2.6.869 3.348-.981 6.812-3.257 9.417-.992 1.136-2.099 2.221-2.707 3.602s-.58 3.182.526 4.207c2.766 2.564 3.689 6.608 3.535 10.377s-1.229 7.432-1.831 11.156c-.668 4.1332-.751 8.3602-.247 12.5152.156 1.284.38 2.597 1.05 3.703s1.883 1.969 3.173 1.874c-.457.653-1.558.699-2.066.085.501.521 1.002 1.042 1.503 1.563-.606-.127-1.212-.254-1.819-.381 5.067 2.881 10.314 5.444 15.701 7.67-.315-1.058-1.425-1.634-2.429-2.093-2.804-1.283-5.608-2.565-8.412-3.847 4.212.381 8.28 2.211 11.361 5.11 3.712 3.492 9.719 3.296 13.743 6.422.863.67 1.64 1.526 1.929 2.579.407 1.481-.244 3.1-1.316 4.199-1.073 1.098-2.508 1.762-3.944 2.305-4.289 1.625-8.901 2.392-13.485 2.242-.389-.684 0-1.594.633-2.061s1.439-.61 2.208-.776c3.271-.703 6.403-2.047 9.167-3.933.62-.424 1.295-1.184.896-1.822-.148-.236-.411-.371-.663-.492-4.34-2.072-9.189-3.068-13.994-2.875 1.418-.256 2.837-.513 4.255-.769-3.749-2.237-7.69-4.151-11.766-5.715-1.267-.486-2.81-.904-3.887-.078-2.629 2.016-5.258 4.032-7.887 6.048 3.39.06 6.764.894 9.791 2.42-.692 1.514-2.249 2.595-3.91 2.713.786-.806 1.572-1.612 2.357-2.417-5.596-3.47-13.577.156-19.181-3.3-2.5-1.542-4.157-4.32-6.867-5.452-2.585-1.08-5.53-.422-8.249.251-1.784.441-3.658.93-4.974 2.213.037-1.29 1.262-2.224 2.468-2.684 1.206-.459 2.544-.672 3.559-1.469 1.029-.808 1.555-2.086 2.367-3.113.812-1.026 2.251-1.836 3.398-1.205-.354-2.727 1.963-4.951 3.533-7.207 1.788-2.57 2.744-5.71 2.691-8.841-1.992 1.059-2.888 3.789-1.911 5.823.434.904-.43 2.044-1.43 2.115-.999.071-1.917-.665-2.368-1.559-.452-.895-.535-1.925-.602-2.925-.095-1.413-.175-2.855.189-4.224.689-2.5932 2.852-4.5222 5.097-5.9922 2.244-1.469 4.708-2.672 6.59-4.584 2.076-2.11 3.306-5.03 3.366-7.989.865 3.943-1.086-28.782-2.276-28.513zm-9.129 54.2622c.021-.815-.232-1.635-.709-2.297-.166.819.11 1.714.709 2.297z"/><path d="m104.602 108.09c-1.635 1.149-3.327 2.36-4.278 4.114-.9519 1.754-.9079 4.216.644 5.474 3.8 3.079 2.584 9.208 4.852 13.533 1.245 2.373 3.64 4.621 2.968 7.214-.526 2.031-2.711 3.092-4.658 3.892-.914.376-1.881.759-2.862.632-.98-.128-1.9409-.971-1.8199-1.949.216-1.749 3.2889-2.065 3.3439-3.827.015-.495-.238-.953-.484-1.383-1.664-2.906-3.3269-5.813-4.9899-8.719-1.946 4.062-2.727 8.67-2.228 13.143.156 1.404-.894 2.718-2.171 3.332-1.277.613-2.74.678-4.156.733-1.161.044-2.396.071-3.393-.524-.996-.594-1.555-2.059-.805-2.942.675-.795 1.913-.689 2.898-1.038 2.615-.927 2.727-4.52 2.355-7.261-.719-5.295-1.437-10.589-2.155-15.884-.364-2.681-.771-5.476-2.323-7.696-5.34-7.635 1.646-19.2781-3.402-27.1071-1.55-2.404-3.109-4.898-3.628-7.708-.519-2.809.233-6.04 2.563-7.706 1.748-1.25 1.958-3.7 2.197-5.831.439-3.902 1.509-7.734 3.158-11.3-3.76-2.7332-8.319-4.3626-12.965-4.6349.144.8463.45 1.6648.898 2.3982-2.675-1.0013-4.7355-3.4801-5.2253-6.2847-.4281.9911-.8562 1.9823-1.2843 2.9734-3.6821-7.5024-1.032-16.415 1.6634-24.3227.7852-2.3025 1.5692-4.605 2.3542-6.9075.945-2.7703 2.295-5.9331 5.14-6.6558 1.752-.4448 4.112 1.2367 3.188 2.7842-2.296-.5752-1.051 1.736-.186.758 1.963-2.2181 3.563-4.854 5.912-6.6726 4.478-3.4671 11.142-3.246302 16.0039-.3365 4.861 2.9097 8.047 8.0701 9.623 13.4981.229.7856.422 1.6535.084 2.3987-.338.7453-1.445 1.1622-2.004.5635-.779-.8341-1.861.7427-1.81 1.8809.263 5.8337 3.984 10.8906 5.716 16.4695 1.689 5.4411 1.448 11.2646 1.192 16.9542-.357 7.912-1.343 29.802-1.664 32.82-.603 5.686-1.859 11.327-1.782 17.0451.099 7.346 2.389 14.471 4.804 21.413 1.005 2.888 2.077 5.84 4.076 8.16 1.999 2.319 5.154 3.901 8.141 3.2-2.119 2.118-5.738 2.044-8.368.603-2.63-1.44-4.482-3.942-6.164-6.418-1.073-1.581-3.992 1.564-5.259.133 1.559-.326 3.033-1.046 4.247-2.075-2.652-6.979-5.304-13.958-7.957-20.937zm-13.6199-83.0143c-.272-.2746-.695-.5468-1.011-.3245.348.3511.244 1.0293-.193 1.2617-.52-.1897-.335-.958-.48-1.4903-.188-.6849-.981-.9825-1.675-1.1443-3.561-.8302-7.701-.9717-10.067-3.7498-.22-.2585-.428-.5428-.726-.7056-.61-.3327-1.415-.0245-1.848.5177-.434.5423-.579 1.2537-.68 1.9394-.512 3.4725-.214 7.061.863 10.4026.194.6031.424 1.216.858 1.6795 1.184 1.2673 3.232.9114 4.946.6205 1.594-.2706 3.213-.3966 4.83-.3759.749.0096 1.488-.1608 2.218-.3303 1.929-.4479 3.858-.8959 5.787-1.3438.025-2.5669-1.014-5.1279-2.822-6.9569z"/></g><path d="m161.985 175.639 4.591.679c.84.124 1.768.297 2.279.964-.235.206-.592.174-.904.129-1.776-.254-3.552-.509-5.328-.764l2.113 2.428c.364.418.756.855 1.29 1.022.468.145 1.139.191 1.195.67-.644.27-1.408.104-2.001-.261-.593-.364-1.05-.903-1.496-1.433-.717-.851-1.434-1.702-2.15-2.553-.188-.223-.378-.553-.186-.772.138-.158.388-.141.597-.109zm24.584-18.888c.142.612-.491 1.086-1.012 1.416-4.178 2.651-6.244 7.655-8.059 12.343-.141.363-.177.932.198.99.728-1.37 2.155-2.319 3.669-2.441-1.149.801-1.609 2.324-1.681 3.75-.072 1.425.161 2.857.031 4.278-.714-.07-.898-1.044-.89-1.782.018-1.459.035-2.918.052-4.378-2.639 1.626-3.273 5.2-3.644 8.338-.147.223-.52.127-.649-.107-.13-.234-.091-.524-.046-.79 1.08-6.388 3.536-12.526 7.141-17.846-3.483 1.867-6.456 4.726-8.498 8.175-.524-.975.222-2.139.96-2.953 3.479-3.837 7.741-6.921 12.428-8.993zm-32.399-3.396c1.839 1.279 3.679 2.558 5.518 3.837 2.917 2.028 5.864 4.081 8.229 6.732-.163-2.422.446-4.89 1.716-6.959.15-.244.414-.518.675-.4.186.084.239.317.269.518.521 3.476 1.042 6.953 1.563 10.429-1.497-2.784-2.231-5.974-2.1-9.132-.911 1.465-1.659 3.156-1.428 4.866.563 4.172 6.425 6.196 6.657 10.399-5.11-6.295-10.426-12.731-17.552-16.603 3.318 4.711 7.106 9.091 11.289 13.055 1.181 1.118 2.492 2.432 2.408 4.055-2.783-3.27-7.533-4.719-11.669-3.559 2.376.882 4.692 1.927 6.926 3.125 1.31.703 2.705 1.598 3.096 3.032-3.772-2.822-8.145-4.836-12.742-5.868 3.48-2.027 8.018-2.102 11.563-.19-5.354-4.826-9.739-10.611-14.088-16.358-.217-.287-.446-.639-.33-.979zm-22.275-19.241c8.6 1.649 17.053 4.059 25.227 7.193.969.371 1.965.772 2.695 1.509.871.879 1.252 2.117 1.603 3.303 1.472 4.979 2.944 9.958 4.416 14.937-2.648-5.197-4.54-10.778-5.601-16.512-6.518 2.599-13.782 2.232-20.798 2.027-10.809-.315-21.633-.149-32.428.498.721.161 1.442.323 2.163.484-1.646.551-3.425.506-5.16.445-13.097-.463-26.174-1.507-39.178-3.129-2.7723-.346-5.6864-.776-7.8887-2.493l-5.9572 17.68c-.3399 1.008-1.4657 2.229-2.1937 1.452-.8546-.913-2.3328.038-3.1774.96-3.2091 3.503-6.4183 7.006-9.6275 10.509 1.8804-3.254 4.2571-6.22 7.0229-8.766-3.0599-.055-6.1162 1.313-8.1111 3.63.7661-4.634 5.5384-8.227 10.2115-7.688-3.1163.43-6.0509 2.061-8.0582 4.48 3.3872-.44 6.6505-1.796 9.3502-3.886.9726-.753 2.4901-.684 3.39.155 1.8769-5.611 3.7539-11.221 5.6309-16.831.2718-.813.4991-1.831-.1184-2.426 10.5628-3.496 21.6607-5.375 32.7877-5.551-8.844 1.374-17.689 2.747-26.5332 4.12-1.36.211-2.9996.665-3.32 2.002 1.5256.387 3.0515.774 4.5859 1.124 23.4833 5.365 47.9533 2.052 72.0413 2.342 8.326.1 16.864.606 24.774-1.993-11.958-5.541-24.929-8.893-38.077-9.84 3.352-.918 6.916-.389 10.329.265zm-99.3764 5.177c3.7936.906 7.2041 2.936 10.5474 4.938 2.4701 1.48 5.2222 3.402 5.4626 6.238l.0067.099-.0691-.079c-2.6506-2.982-5.7841-5.537-9.2436-7.535 2.3773 2.683 4.7546 5.366 7.1319 8.048.6148.694 1.2537 1.565 1.4195 2.429.0329-.04.0841-.066.1426-.062l-.0181-.012c.1741.046.2645.241.1735.375-.0933.011-.1963-.011-.2654-.062.0324.365-.0296.726-.223 1.068-.8291-1.346-1.8719-2.561-3.0776-3.586.9537 2.058 1.9074 4.117 2.8612 6.175-.9701-.321-1.8243-.979-2.3807-1.833-.1272.709.1873 1.478.7757 1.897-.9712.487-2.0696.721-3.1559.67.4376.317.8752.634 1.3128.951l-9.0628.383c.2788-.488.6653-.915 1.124-1.241-7.0651-.757-12.229-6.669-9.0634-4.533 5.1803 3.494 11.8199 4.765 17.9316 3.432-3.383-.985-6.5621-2.659-9.2838-4.89 1.9296-.474 4.0678-.008 5.6268 1.218l.1125.09-4.2134-5.861c-1.4046-1.954-2.8093-3.908-4.2139-5.862 4.1735 4.338 8.347 8.676 12.5205 13.014-2.2072-6.488-6.886-12.108-12.8786-15.469zm9.3892 18.823-.0429.048c-.1377-.101-.2755.184-.1527.303.1522.048.3293.007.4449-.103-.0831-.083-.1662-.166-.2493-.248zm151.9902-19.462c3.199.695 6.398 1.39 9.597 2.085.981.213 2.222.784 2.057 1.787-.067.41-.372.731-.673 1.013-1.091 1.02-2.325 1.884-3.653 2.556l3.337.836c.885.222 1.815.469 2.464 1.118.648.649.861 1.841.196 2.472.953 1.653 1.841 3.344 2.66 5.068.407.856.767 1.971.136 2.674-1.085-2.464-2.171-4.928-3.256-7.391-1.426.874-3.169 1.201-4.809.9.458-.63 1.303-.797 2.07-.881s1.602-.161 2.163-.697c.562-.536.532-1.711-.213-1.915-2.088-.572-4.177-1.143-6.265-1.715 1.558-1.435 3.224-2.751 4.977-3.932.091-.464-.47-.756-.921-.878-4.898-1.324-9.883-2.316-14.912-2.969 1.509-.84 3.362-.497 5.045-.131zm-161.9582 13.575c.2142.035.3839.205.5438.362 1.3504 1.325 3.0312 2.257 4.8187 2.674.8936.208 1.8923.334 2.5043 1.064-3.0265.321-6.1654-1.017-8.1635-3.479-.0584-.072-.1181-.149-.1339-.243-.0386-.229.2165-.412.4306-.378zm6.176.858c1.5342 1.212 3.3319 2.091 5.2329 2.559-1.5161-1.238-3.3223-2.122-5.2329-2.559zm3.4842-.905c.5675 1.443 1.7634 2.629 3.2153 3.188-.8798-1.234-1.9723-2.317-3.2153-3.188zm29.288-80.8021c-2.1257 1.034-4.0723 2.434-5.7282 4.117-3.7239 3.786-8.5283 6.506-13.6995 7.755l13.0919-7.409c-.2079-1.439-2.3733-1.225-3.675-.569-2.2569 1.138-4.455 2.406-6.477 3.92-1.2.899-2.3358 1.882-3.3959 2.941-4.1465 4.141-7.0645 9.361-9.2643 14.784-3.1611 7.7921-4.9414 16.2561-4.183 24.6271.7583 8.37 4.1994 16.637 10.312 22.431.2143-.66.4286-1.319.6429-1.978.9417.468 2.0577.577 3.073.301-1.2178-.706-2.4988-1.477-3.143-2.725s-.3027-3.104 1.0262-3.571c-1.2956-1.158-2.1859-2.757-2.4855-4.465 1.4618-.269 2.9237-.537 4.3855-.806-1.4335-3.277-1.1468-7.247.7428-10.286.2964-.477.7745-.99 1.3203-.853.8715.219 1.1265 1.905 1.9583 1.566l3.2499-4.597 3.1467-4.451-.0518.076c-1.2431 1.883-1.2922 4.493-.094 6.409 1.6699-1.762 3.9411-2.947 6.3457-3.312.1972 1.092.3945 2.185.5918 3.278.8854-.733 1.8372-1.496 2.9792-1.643 1.142-.148 2.48.619 2.485 1.766.005.944-.824 1.993-.218 2.718.876-.563 1.817-1.147 2.859-1.144 1.042.004 2.148.878 1.977 1.902-.26 1.562-.52 3.125-.78 4.688 1.767-.577 4.177-.923 5.066.704.639 1.17-.027 2.632-.893 3.648-.866 1.015-1.971 1.907-2.385 3.174-.574-1.179.506-2.448 1.416-3.395.91-.948 1.728-2.529.781-3.44-1.263-1.216-3.438.758-5.056.078.353-2.102.706-4.205 1.059-6.307-1.832-.007-3.662.526-5.202 1.514-.144-1.662-.043-3.344.3-4.976-1.791.375-3.5508.893-5.2587 1.546-.3967-1.054-.5618-2.194-.4804-3.317l-5.955 3.47c-.1553-.588-.5598-1.107-1.0934-1.402.5414 3.129 1.0828 6.257 1.6242 9.385-1.6927-3.087-2.4816-6.658-2.2461-10.168-1.8528 1.184-3.1867 3.146-3.6029 5.299-1.1785-.269-2.2186-1.086-2.7553-2.165-2.1666 3.037-2.4501 7.3-.7048 10.596-1.4139.615-2.9134 1.035-4.4422 1.244l2.7175 4.295c-.7096.093-1.3859.423-1.8942.924.5151 2.326 2.4467 4.281 4.7738 4.831-1.0901.681-2.3916 1.02-3.6767.959 1.5972.461 3.1012 1.24 4.3976 2.278-1.8414-.293-3.6243-.946-5.2175-1.911.7978 1.683 2.2511 3.047 3.9851 3.741-1.0346.041-2.0793-.203-2.988-.697.9901 1.311 1.4903 2.981 1.3834 4.618-.701-1.373-1.402-2.747-2.103-4.12-.0768 1.361-.1537 2.722-.2306 4.083-.1599-.191-.3218-.381-.4855-.569l-.1637-.186.0379-.09c.6093-1.531.1437-3.33-.7616-4.718-.9284-1.424-2.2647-2.525-3.5038-3.692-5.2674-4.957-8.9573-11.311-12.5717-17.567-1.3599-2.354-2.7199-4.708-4.0798-7.062-1.826-3.161-3.7179-6.751-2.7906-10.279.1326-.504.3424-1.022.7639-1.331-.6546.741-.1583 1.921.5141 2.646s1.5503 1.393 1.6913 2.37c1.5149 10.498 8.0415 19.503 14.3671 28.035-7.8112-13.315-6.5406-30.457-.2189-44.5341 3.4393-7.659 8.6253-15.004 16.2498-18.57 1.6979-.794 3.483-1.385 5.2632-1.973 2.4592-.813 4.9185-1.626 7.3775-2.439zm98.307 74.3441c.213.05.463.146.503.366.033.185-.107.352-.242.481-.69.662-1.513 1.177-2.404 1.505-.28.103-.272.554-.05.757.223.203.547.226.845.238 11.027.451 22.054.902 33.081 1.352-.107.57-.846.685-1.413.669-10.448-.298-20.893-.693-31.333-1.187-1.081-.051-2.546-.564-2.336-1.647.199-1.029 1.659-1.041 2.446-1.714l-4.72-.67c1.822-.531 3.776-.584 5.623-.15zm-64.017 1.477.062.043c.298.206.745.158.993-.107-.316-.206-.767-.179-1.055.064zm-3.451-144.818c4.861 2.9097 8.047 8.0701 9.623 13.4981.229.7856.422 1.6535.084 2.3987-.329.7251-1.385 1.1394-1.957.6098l-.047-.0463c-.779-.8341-1.861.7427-1.81 1.8809.263 5.8337 3.984 10.8906 5.716 16.4695 1.689 5.4411 1.448 11.2646 1.192 16.9542-.357 7.912-.713 15.824-1.07 23.736-.137 3.032-.273 6.066-.594 9.084-.603 5.686-1.859 11.327-1.782 17.0451.099 7.346 2.389 14.471 4.804 21.413 1.005 2.888 2.077 5.84 4.076 8.16 1.999 2.319 5.154 3.901 8.141 3.2-2.119 2.118-5.738 2.044-8.368.603-2.63-1.44-4.482-3.942-6.164-6.418-1.073-1.581-3.992 1.564-5.259.133 1.559-.326 3.033-1.046 4.247-2.075-2.652-6.979-5.304-13.958-7.957-20.937-1.635 1.149-3.327 2.36-4.278 4.114-.952 1.754-.908 4.216.644 5.474 3.8 3.079 2.584 9.208 4.852 13.533 1.245 2.373 3.64 4.621 2.968 7.214-.526 2.031-2.711 3.092-4.658 3.892-.914.376-1.881.759-2.862.632-.98-.128-1.941-.971-1.82-1.949.216-1.749 3.289-2.065 3.344-3.827.015-.495-.238-.953-.484-1.383-1.664-2.906-3.327-5.813-4.99-8.719-1.946 4.062-2.727 8.67-2.228 13.143.156 1.404-.894 2.718-2.171 3.332-1.277.613-2.74.678-4.157.733-1.16.044-2.395.071-3.392-.524-.996-.594-1.555-2.059-.805-2.942.675-.795 1.913-.689 2.898-1.038 2.615-.927 2.727-4.52 2.355-7.261l-2.155-15.884c-.364-2.681-.771-5.476-2.323-7.696-5.34-7.635 1.646-19.2781-3.402-27.1071-1.55-2.404-3.109-4.898-3.628-7.708-.519-2.809.233-6.04 2.563-7.706 1.748-1.25 1.958-3.7 2.197-5.831.439-3.902 1.509-7.734 3.158-11.3-3.76-2.7332-8.319-4.3626-12.965-4.6349.144.8463.45 1.6648.898 2.3982-2.675-1.0013-4.7356-3.4801-5.2254-6.2847-.4281.9911-.8562 1.9823-1.2842 2.9734-3.6821-7.5024-1.0321-16.415 1.6634-24.3227.7852-2.3025 1.5692-4.605 2.3542-6.9075.945-2.7703 2.295-5.9331 5.14-6.6558 1.752-.4448 4.112 1.2367 3.188 2.7842-2.296-.5752-4.741.6687-6.256 2.4823-1.515 1.8135-2.291 4.1112-3.035 6.3509-2.4969 7.5133-5.0198 15.5178-3.1314 23.2052.2876-.5348.8357-.9225 1.4372-1.0168.6209 1.7407 1.5742 3.3629 2.7942 4.7543 2.578-.9455 5.424-1.157 8.115-.603-.205.2518-.41.5036-.615.7555 2.138 1.4536 4.614 2.4103 7.176 2.7728 1.378-2.3307 2.756-4.6614 4.134-6.9921l.254-.4301c1.226-2.0837 2.42-4.2366 2.803-6.614-4.189 1.0468-8.478 1.6991-12.79 1.9454-1.879.1073-3.97.0648-5.355-1.2059-.841-.7721-1.278-1.8825-1.599-2.9764-1.161-3.9519-1.143-8.2393.049-12.1819-1.695-.1009-2.172-2.6109-1.189-3.9898.984-1.3789 2.694-1.9954 4.12-2.914 3.599-2.3194 5.429-6.6366 8.814-9.257 4.478-3.4671 11.142-3.246302 16.004-.3365zm44.123 50.9809c3.726 1.931 7.07 4.599 9.782 7.803.14 1.728.414 3.445.82 5.131.555-1.619 1.119-3.341.748-5.013-.37-1.672-2.068-3.173-3.707-2.676.682-.837 2.014-.923 2.95-.386.935.537 1.508 1.556 1.779 2.6.87 3.348-.98 6.812-3.256 9.417-.993 1.136-2.099 2.221-2.707 3.602s-.58 3.182.526 4.207c2.766 2.564 3.689 6.608 3.535 10.377-.155 3.769-1.229 7.432-1.831 11.156-.668 4.1331-.751 8.3601-.247 12.5151.156 1.284.38 2.597 1.05 3.703s1.883 1.969 3.173 1.874c-.414.592-1.357.685-1.909.241l-.048-.043.642.669c.251.26.501.52.752.781-.606-.127-1.213-.254-1.819-.381 5.067 2.881 10.314 5.444 15.7 7.67-.314-1.058-1.424-1.634-2.428-2.093-2.804-1.283-5.608-2.565-8.412-3.847 4.212.382 8.28 2.211 11.361 5.11 3.711 3.492 9.718 3.296 13.743 6.422.863.67 1.64 1.526 1.929 2.579.407 1.481-.244 3.1-1.317 4.199-1.072 1.098-2.507 1.762-3.943 2.305-4.289 1.625-8.901 2.392-13.485 2.242-.389-.684 0-1.594.633-2.061s1.439-.61 2.208-.776c3.271-.703 6.403-2.047 9.166-3.933.621-.424 1.296-1.184.897-1.822-.148-.236-.411-.371-.663-.492-4.34-2.072-9.189-3.068-13.994-2.875l4.255-.769c-3.749-2.237-7.69-4.151-11.766-5.715-1.267-.486-2.81-.904-3.887-.078-2.629 2.016-5.258 4.032-7.887 6.048 3.39.06 6.764.894 9.791 2.42-.692 1.514-2.249 2.595-3.91 2.713.786-.806 1.572-1.612 2.357-2.417-5.596-3.47-13.577.156-19.181-3.3-2.5-1.542-4.157-4.32-6.867-5.452-2.585-1.08-5.53-.422-8.249.251-1.784.441-3.658.93-4.974 2.213.037-1.29 1.262-2.224 2.468-2.684 1.206-.459 2.544-.672 3.559-1.469 1.029-.808 1.555-2.086 2.367-3.113.812-1.026 2.251-1.836 3.398-1.205-.354-2.727 1.963-4.951 3.533-7.207 1.788-2.57 2.744-5.71 2.691-8.841-1.992 1.059-2.888 3.789-1.911 5.823.434.904-.43 2.044-1.43 2.115-.999.071-1.917-.665-2.368-1.559-.452-.895-.535-1.925-.602-2.925-.095-1.413-.175-2.855.189-4.224.689-2.5931 2.852-4.5221 5.097-5.9911 2.244-1.47 4.708-2.673 6.59-4.585 2.076-2.11 3.306-5.03 3.365-7.989.866 3.943-1.176 8.343-4.746 10.227-3.157 1.665-6.366 3.554-8.344 6.5261-1.977 2.972-2.328 7.323.127 9.915-.403-2.106.16-4.377 1.5-6.051 1.084-1.355 2.6-2.285 4.099-3.16 3.474-2.0311 7.031-3.9211 10.658-5.6651-.247-.936.528-1.998 1.494-2.048-1.091-1.738-.055-4.4 1.923-4.943-.583.745-1.184 1.525-1.377 2.452-.194.926.155 2.039 1.025 2.409-1.713.011-2.009 2.742-3.583 3.421-3.24 1.397-6.379 3.027-9.385 4.8741-.222.136-.451.287-.666.454.042 0 .085.011.13.037.23 1.572.259 3.173.088 4.752-.024.221-.122.504-.345.493-.227-.01-.293-.31-.293-.536l-.007-4.005c0-.15.04-.327.11-.47-.417.395-.718.866-.693 1.426.132 2.951-.73 5.938-2.415 8.364 1.861-1.621 3.721-3.241 5.582-4.862.599-.521 1.88-.769 1.864.024-2.849 1.896-5.745 3.833-7.905 6.489-2.159 2.656-3.508 6.191-2.757 9.531-.833-.311-.906-1.425-1.104-2.292-.197-.868-1.253-1.775-1.845-1.112-1.404 1.573-2.808 3.145-4.212 4.717 3.108-1.923 7.506-1.421 10.101 1.153 3.438 3.411 8.124 6.658 12.768 5.287 4.197-1.238 6.649-5.826 10.751-7.349-3.749-9.075-4.541-19.345-2.226-28.8881.649-2.677 1.543-5.383 1.252-8.122-.452-4.246-3.641-7.712-4.703-11.848-.453 1.197-1.628 2.087-2.902 2.2 1.459-1.871 2.919-3.742 4.379-5.612 2.233-2.863 2.736-6.982 1.239-10.29-1.497-3.309-4.933-5.653-8.559-5.822.457.442.914.885 1.371 1.328-.833.29-1.666.579-2.499.869-.157-.561-.313-1.122-.469-1.683.622-.504 1.245-1.007 1.868-1.511-1.19.27-2.38.539-3.569.808 1.023-1.101 2.515-1.752 4.019-1.752zm-61.654-47.2266c-3.496 2.5081-6.367 5.7671-9.205 8.996-.713.8376.631 1.8798 1.704 2.1305 4.818 1.1255 9.822 1.4565 14.748.9753-1.316 1.859-3.998 2.0842-6.255 1.7459-2.258-.3383-4.578-1.0554-6.773-.4311 4.489 1.9545 9.293 3.1884 14.171 3.6398l-1.645.9629c3.307 1.779 4.323 6.2027 3.506 9.858s-3.017 6.8214-4.789 10.1238c-3.185 5.9345-5.066 12.5595-5.474 19.2765 4.52-1.638 6.063-7.179 6.487-11.953.425-4.7735.618-10.1458 4.153-13.3962-2.686 6.0553-3.649 12.8592-2.746 19.4182-3.767 3.42-7.533 6.841-11.3 10.261-2.759 2.505-1.385 7.006.182 10.382.19.41.402.846.793 1.076.968.572 2.154-.581 2.255-1.698.101-1.116-.384-2.213-.365-3.334s.969-2.402 2.038-2.053c-1.16-1.023.25-2.841 1.607-3.585 3.603-1.978 7.673-3.108 11.784-3.271 1.24-.049 1.796-1.523 2.19-2.695s1.464-2.524 2.591-2.007c-2.039-7.143 2.086-14.5767 1.988-22.0017 2.503 7.0068-4.055 15.1897-.777 21.8717-1.276.815-2.552 1.63-3.828 2.444 1.07.435 1.981 1.247 2.534 2.258-6.248.589-12.383 2.342-17.994 5.142 1.175.769.794 2.942-.574 3.267-2.027 8.477-1.084 17.629 2.629 25.518.616-3.314 2.934-6.267 6.014-7.661-3.2 2.529-5.08 6.44-5.839 10.4381-.759 3.999-.495 8.117-.054 12.163.48 4.396 1.167 8.769 2.058 13.101.606 2.95 1.31 5.993.681 8.939-.628 2.945-3.038 5.765-6.06 5.762 2.008 1.176 4.424 1.646 6.729 1.31 2.178-.318 3.113-3.004 2.96-5.192-.153-2.189-.918-4.426-.271-6.523.322-1.043.972-1.956 1.367-2.974.708-1.826.552-3.852.588-5.809.081-4.396 1.198-8.771 3.237-12.67.353.693.225 1.599-.305 2.169 8.621-6.95 13.771-17.9821 13.552-29.0301l-.732 1.175c.657-11.36 1.314-22.719 1.972-34.078.162-2.8099.323-5.6472-.139-8.4234-1.315-7.8855-7.558-14.8654-6.637-22.8061-1.842-.6242-3.684-1.2484-5.525-1.8727 2.53.2008 5.061.4016 7.591.6024.414.0329.889.0442 1.176-.2551.294-.3067.251-.7951.16-1.2095-1.137-5.2215-6.217-8.4794-10.857-11.1589 2.56.3843 4.97 1.6915 6.683 3.6247-1.564-3.8772-5.772-6.2839-9.959-6.5276-4.301-.2504-8.529 1.4765-12.025 3.9846zm93.731 133.4997c-1.89 1.528-4.478 1.737-6.871 2.157-.411.073-.907.236-.974.648.437.27.985.26 1.497.23 4.204-.242 8.366-1.192 12.259-2.799-.219-.503-.943-.438-1.471-.289-.395.112-.789.224-1.184.335-.45.128-.942.253-1.373.072-.431-.182-.677-.821-.325-1.129-.593-.081-1.093.398-1.558.775zm-79.683-23.927c-.781 2.642-1.133 5.451-.651 8.163.705 3.967 3.102 7.389 5.248 10.803.659 1.048 1.325 2.241 1.075 3.452-.27 1.313-1.508 2.166-2.646 2.88 1.887.911 4.033-.465 5.671-1.769.248-.198.514-.424.568-.736.05-.286-.093-.567-.231-.823-1.579-2.923-3.157-5.847-4.735-8.77l-.036-2.055c-.021-1.196-.044-2.403-.336-3.563-.699-2.767-2.838-4.943-3.927-7.582zm-43.1721 23.823c.1348.123.2062.306.3456.423.2142.18.5223.158.7979.195.2756.036.5939.219.57.5-.7822.428-1.8202.306-2.486-.292-.2024-.208-.2059-.582-.0076-.794.1984-.212.5655-.227.7801-.032zm113.0311-1.642c.179.03.41.134.37.312-.02.088-.104.144-.182.19-.928.54-1.982.861-3.052.931-.388.025-.718.273-1.016.529l-.068.059c-.316.275-.658.567-1.074.612-.417.045-.895-.299-.815-.711.07-.365.488-.529.844-.629.646-.182 1.291-.365 1.936-.547.086-.114.118-.268.084-.407l-4.645.068c-.177.003-.365.003-.515-.091-.15-.095-.232-.32-.117-.454 2.736-.366 5.527-.319 8.25.138zm-11.222-17.034c-.488.672-.191 1.676.424 2.234.615.557 1.454.78 2.259.985l2.292.582c.208.053.447.1.62-.025.106-.077.126-.241.077-.352l-.007-.014.417.243c6.228 3.596 12.792 6.61 19.577 8.991 1.064.373 1.306 1.89.744 2.868-.563.978-1.63 1.531-2.644 2.025-.401.194-.739.893-.296.927 1.276-.617 2.749-.82 4.144-.57 1.275.227 2.521-.909 2.704-2.191.182-1.282-.496-2.568-1.459-3.433-.964-.865-2.183-1.382-3.387-1.858-7.477-2.953-15.432-4.959-22.182-9.324-.815-.527-2.037-1.031-2.614-.25zm-40.699 12.253c1.468 1.962 3.561 3.452 5.9 4.199.713.228 1.476.389 2.208.232-.014-.357-.469-.485-.823-.547-1.332-.231-2.58-.918-3.485-1.919-.455-.502-.832-1.086-1.377-1.49-.682-.506-1.597-.676-2.423-.475zm-48.6009-2.767c.6637.037.2722 1.304.8339 1.66.2241.143.5139.075.7749.028 1.5481-.279 3.2291.433 4.1101 1.74.22.328.006.807-.341.997-.346.19-.766.168-1.158.122-.612-.071-1.038.588-1.25 1.168s-.462 1.271-1.0587 1.423c-.4578.117-.9239-.151-1.2833-.458s-.6921-.676-1.1406-.825c-.4484-.149-1.0579.049-1.1338.517-.0822.506-.7756.574-1.2838.512l-1.8154-.22c-.1101-.501.6008-.753 1.1082-.687.5074.067 1.1544.169 1.4141-.273.1344-.229.1017-.537.2674-.744.2739-.342.8178-.157 1.2013.054.4104.226.8207.453 1.231.679.3759.207.782.421 1.2088.378.4269-.043.8388-.471.6959-.877-.1822-.518.3679-1.016.8999-1.148.531-.132 1.12-.086 1.592-.365-.929-1.186-2.7725-1.526-4.0618-.749-.3873.234-.7472-.369-.7443-.822s-.019-1.065-.462-1.155c-.3374-.068-.6072.257-.8496.501-.2424.245-.7035.413-.8858.121.2302-.932 1.1748-1.631 2.1306-1.577zm15.4089 2.801c.632.235 1.318.515 1.621 1.096s-.132 1.488-.799 1.373c-.106-.145-.111-.35-.012-.499.082-.122.23-.219.234-.364.004-.148-.144-.252-.276-.33-.689-.405-1.378-.809-2.067-1.214.287-.353.864-.224 1.299-.062zm23.676 1.439.004.131c.01.248.174.483.404.579.164-.285-.077-.707-.408-.71zm-47.238-1.904c-.5451.569-1.2781.919-2.0303.968.2023.235.3679.508.4876.803-.5067.191-.9825-.336-1.3039-.805-.1246-.182-.2491-.445-.1127-.616.0539-.068.136-.099.2145-.126.8843-.297 1.8298-.375 2.7448-.224zm50.744-33.0081c-1.375 2.5031-3.002 4.8701-4.847 7.0521-.34.402-.111 1.009.122 1.48 3.62 7.319 5.288 15.49 9.067 22.729.325.623.728 1.292 1.401 1.504.673.211 1.57-.42 1.307-1.072-4.085-10.127-7.727-20.8-7.05-31.6931zm-50.897 25.0611c.1763.122.1752.392.1626.616-.0802 1.43.1877 2.881.7705 4.173.196.434.8302.294 1.1637-.032.3336-.325.6079-.788 1.0537-.869.4718-.085.9187.337 1.0673.822s.0746 1.011-.0008 1.514c-.0459.307-.1109.647-.3499.824-.2391.178-.6763-.01-.6088-.312l.2665-1.192c.0345-.154.0678-.323.0033-.466-.1096-.243-.4411-.267-.6683-.147s-.3966.335-.6102.48c-.6841.466-1.6484.064-2.1271-.635-.4786-.698-.5969-1.596-.7005-2.454-.4206 1.436-.5575 2.965-.3993 4.46-.2127.221-.5121-.162-.5765-.471-.4139-1.987-.106-4.135.8458-5.9.1509-.28.4546-.588.708-.411zm12.605 3.331c-1.006.404-1.85 1.186-2.3212 2.15-.1045.214-.4736.137-.5712-.081-.0975-.217-.0078-.469.1034-.68.2893-.549.7288-1.019 1.26-1.35-.6226-.046-1.2448-.092-1.867-.138.8888-.897 2.563-.848 3.396.099zm-7.8019-1.489c.4529.068.7983.421 1.0856.769-.2884.028-.5655.155-.7718.353l1.0734 1.125c-.9791.096-1.9795-.568-2.2457-1.492-.1239-.43.4056-.823.8585-.755zm106.2709-36.2181c3.023 9.36 4.667 19.1521 4.864 28.9731 1.899-1.677 4.358-2.726 6.897-2.942-1.334.469-2.19 1.768-2.664 3.084s-.668 2.723-1.211 4.013c4.164-1.276 8.721-1.27 12.882.015-3.567 1.018-6.936 2.709-9.87 4.954-.51-.284-.066-1.047.403-1.393 1.894-1.396 3.997-2.517 6.219-3.313-3.535-.696-7.257-.443-10.662.724.624-2.114 1.158-4.255 1.6-6.414-2.436 1.132-4.661 2.703-6.534 4.611-.487-.436.221-1.119.723-1.538 1.349-1.125 1.405-3.124 1.316-4.864-.345-6.736-1.244-13.482-3.305-19.9131.193 7.2491-1.296 14.5371-4.321 21.1471-.14.307-.622.614-.728.293.094-.366.188-.732.282-1.098-.886-1.127-1.306-2.601-1.145-4.018-1.583 1.872-2.959 3.914-4.097 6.078-.501.13-.545-.71-.299-1.16 1.339-2.455 3.034-4.72 5.016-6.708.216 1.737.432 3.473.648 5.21 3.487-7.927 4.679-16.8211 3.398-25.3681.045-.255.335-.439.588-.373zm-100.5308 34.0301c.2048.123.2498.467.0268.558-.3615.146-.3024.635-.2147.995.0876.36.0205.881-.3727.903-.3415.019-.5133-.383-.5323-.704-.019-.32-.0285-.71-.328-.865-.9417.557-1.8834 1.114-2.825 1.671-.2717-.302.0238-.753.3339-1.02.8985-.773 2.0144-1.322 3.2033-1.575.2372-.051.5037-.085.7087.037zm84.6768-1.5c.082.138-.097.395-.153.232l-.001-.016c-.097-.004-.187-.116-.202-.253.119-.061.273-.101.356.037zm-128.5784-13.142c-.0656 1.028-.064 2.06.0047 3.088.0642.96.2436 2.021 1.006 2.612.2424.188.6743.267.7947-.014.0294-.069.0311-.146.0316-.221.012-1.609-.2933-3.22-.8935-4.715-.1658-.413-.5219-.896-.9435-.75zm58.6904-16.7661-.53 4.405c-.167 1.394-.335 2.7981-.229 4.1981.139 1.848.749 3.624 1.371 5.37.391 1.097.823 2.242 1.706 3.005-.518-2.868-.393-5.849.364-8.663.067-.249.139-.501.135-.759-.007-.397-.194-.7661-.367-1.1231-1.033-2.133-1.719-4.433-2.021-6.782-.132-.203-.4.108-.429.349zm47.386 14.1031c-.166.819.11 1.714.709 2.297.021-.815-.232-1.635-.709-2.297zm11.958-56.6361c-.619 2.72-3.62 3.894-5.978 5.273-1.676.98-3.187 2.259-4.446 3.763-.299.357-.849.088-1.275-.083-1.334-.536-2.949.314-3.554 1.65-.606 1.337-.322 2.975.462 4.209s2.001 2.113 3.28 2.774c.402-.195.279-.86-.071-1.141s-.82-.353-1.192-.603c-.346-.231-.583-.599-.79-.967-.618-1.1-1.061-2.454-.585-3.627.477-1.172 2.241-1.727 2.971-.702 1.111 1.559-1.405 3.996-.255 5.525-.109-.75.314-1.549.985-1.86-.044 1.402-.089 2.804-.133 4.206.336-.356.803-.579 1.285-.611.047 1.287.194 2.57.438 3.833.293-.191.43-.603.312-.939l8.334 7.64c-1.816-.847-3.51-1.968-5.013-3.316 1.5 2.843.037 6.28-.856 9.382-.756 2.627-1.084 5.383-.966 8.12-.538-.573-1.472-.15-2.089.332-1.981 1.55-3.662 3.505-4.917 5.718-.153-.266-.139-.599-.083-.903.354-1.929 2.059-3.221 3.563-4.426s3.059-2.823 2.903-4.78c-.211-2.643 1.008-5.15 1.751-7.689.744-2.539.876-5.667-1.02-7.462-.656-.621-1.494-1.011-2.155-1.628-.662-.616-1.137-1.616-.761-2.45-.321.192-.641.384-.962.577-.089-1.289-1.553-1.863-2.655-2.48-1.89-1.059-3.271-3.198-3.12-5.409.152-2.211 2.08-4.247 4.228-4.123.922.054 2.106.346 2.564-.481 1.692-3.052 6.08-3.404 8.073-6.257.434-.621 1.086-1.454 1.727-1.065zm-61.853 30.236-.05.107c.163.038.326.077.489.115.213-.227.166-.676-.131-.773s-.58.398-.308.551zm54.764-11.092c.031.461.179.915.428 1.313-.002-.285.476-.362.683-.155s.208.526.196.81c.958-.1 1.641.802 2.359 1.411 1.673 1.418 4.168 1.419 6.411 1.299.62-.034 1.444.075 1.54.655-1.054.356-2.201.355-3.319.3-1.747-.086-3.517-.304-5.111-.986s-3.004-1.886-3.562-3.455c-.159-.449-.119-1.114.375-1.192zm1.25-1.886c.634 1.675 2.933 2.55 4.598 1.749.297-.143.58-.332.907-.391.551-.099 1.087.186 1.6.401.724.302 1.533.481 2.307.328.773-.153 1.495-.69 1.678-1.424.047-.189.064-.397.195-.546.131-.148.437-.165.501.02.371 1.061-.455 2.251-1.547 2.655-1.091.404-2.33.189-3.424-.209-.367-.134-.744-.291-1.136-.263-.395.028-.744.239-1.105.394-1.674.72-3.849.118-4.863-1.345-.167-.241-.309-.518-.284-.807.024-.288.271-.575.573-.562zm17.22-1.339c-.098.473-.035.977.178 1.41.331-.153.53-.547.457-.904l.002-.002c-.005-.309-.334-.57-.637-.504zm-11.695-.92c.281.039.507.277.706.512.403.475.776.983 1.117 1.52-.991.279-2.035.301-3.034.064-.308-.073-.435-.55-.321-.894.114-.343.383-.576.639-.79.267-.223.568-.457.893-.412zm-.566 1.436.095.048.66-.148c.073-.121.101-.279.075-.424-.329-.19-.784.097-.83.524zm-12.375-5.303c-.371.381-.445.989-.324 1.515.212.923.93 1.675 1.054 2.614.257-.072.371-.393.354-.668s-.124-.538-.135-.813c-.038-.919.954-1.87.435-2.619-.305-.44-1.012-.411-1.384-.029zm19.196-3.303c1.055.073 1.875.993 2.445 1.935.461.762.846 1.689.585 2.55-.351 1.159-1.644 1.608-2.762 1.891l-1.175.298c-.313.079-.639.159-.952.082-.433-.106-.75-.486-1.038-.845-.582-.727-1.198-1.554-1.156-2.507.049-1.109.964-1.933 1.838-2.545.669-.468 1.416-.915 2.215-.859zm-8.509 1.515c1.005.71 1.649 1.958 1.37 3.122-.279 1.165-1.637 2.06-2.823 1.687-1.088-.341-2.213-.716-3.022-1.49-.81-.774-1.197-2.068-.571-2.985.35-.514.955-.826 1.575-.979 1.18-.29 2.49-.047 3.471.645zm8.598-.215c-.66.088-1.337.131-1.958.385s-1.193.771-1.326 1.462c-.172.895.413 1.737.964 2.44.258.33.73.329 1.13.269 1.217-.18 2.396-.647 3.426-1.356-.521-.128-1.043-.256-1.565-.383.07-.333.502-.348.823-.336.321.013.76-.202.643-.519-.493-.156-1.011-.226-1.526-.206-.152.006-.33.037-.397.181-.053.112-.015.244.009.367.155.819-.576 1.683-1.362 1.61-.785-.074-1.361-1.061-1.073-1.838.288-.778 1.344-1.086 1.967-.573.139-.133.125-.402-.027-.518.459-.334 1.061-.437 1.596-.272.063-.303-.177-.6-.454-.699s-.579-.052-.87-.014zm-11.645.454c-.77.097-1.679.602-1.539 1.333.097.514.721.814 1.261.742.541-.071.997-.416 1.379-.788l-1.6.126c-.209.016-.516-.081-.44-.268.021-.052.07-.088.119-.12.693-.445 1.695-.386 2.327.136.617.195 1.213.633 1.32 1.247.107.613-.525 1.304-1.14 1.102-.054.456.678.597 1.093.369 1.002-.548 1.096-2.034.367-2.89s-2.003-1.133-3.147-.989zm-.4 2.344c-.081.611.598 1.193 1.223 1.05-.184-.471-.596-.855-1.094-1.018zm1.547.304.665.529.019-.096c.281-.145.302-.593.036-.762s-.689.024-.72.329zm9.467-.931c-.351.035-.555.561-.323.841l-.067.006c.213.298.725.251.879-.084.155-.336-.139-.797-.489-.763zm-73.968-42.3023c-.434.5423-.579 1.2537-.68 1.9394-.512 3.4725-.214 7.061.863 10.4026.194.6031.424 1.216.858 1.6795 1.184 1.2673 3.232.9114 4.946.6205 1.594-.2706 3.213-.3966 4.83-.3759.749.0096 1.488-.1608 2.218-.3303 1.929-.4479 3.858-.8959 5.787-1.3438.025-2.5669-1.015-5.1279-2.822-6.9569-.272-.2746-.695-.5468-1.011-.3245.348.3511.244 1.0293-.193 1.2617-.52-.1897-.335-.958-.48-1.4903-.188-.6849-.981-.9825-1.675-1.1443-3.561-.8302-7.701-.9717-10.067-3.7498-.22-.2585-.428-.5428-.726-.7056-.61-.3327-1.415-.0245-1.848.5177zm25.592-10.5761c2.063.9631 3.896 2.4628 5.288 4.3271.188.2518.377.5413.353.8602-.044.5796-.709.8302-1.252.9456-.962.2043-1.924.4087-2.886.613-.351.0747-.905-.0862-.761-.431 1.158-.7423 2.548-1.0802 3.9-.9484.108-.2346-.022-.5105-.165-.7235-.472-.7036-1.12-1.2537-1.758-1.7941-1.038-.878-2.075-1.756-3.113-2.6339.022-.181.241-.3002.394-.215zm-7.578-2.8498c.906.4181 1.234 1.5017 1.398 2.4687.102.6007.18 1.2158.079 1.8167-.177 1.0518-.9 1.9703-1.819 2.5433s-2.015.827-3.103.8852c-2.52.135-5.08-.7781-6.92-2.4675-.801-.7353-.693-2.088-.02-2.937.674-.8491 1.751-1.2879 2.81-1.573 1.199-.3228 2.434-.4945 3.665-.6654.846-.1174 1.693-.2349 2.546-.2634.464-.0155.944-.0011 1.364.1924zm-10.051 3.4195c-.277.4835.18 1.0442.599 1.4171.822.7303 1.852 1.5154 2.925 1.2355.719-.1877 1.492-.8275 2.092-.3963-.051.2325-.324.3446-.565.3749s-.504.0227-.701.1621-.225.5066.008.5734c.761.2181 1.47-.4229 2.011-.9897.542-.5668 1.319-1.1644 2.045-.8532.096.0414.197.1153.198.2183.002.1502-.19.2145-.339.2474-.8.1753-1.514.6914-1.921 1.3869 1.064-.152 2.019-.7029 2.942-1.2426.653-.3817 1.37-.8507 1.502-1.5837-.912.2638-1.861.4067-2.812.4236-1.991.0354-3.927 1.2347-5.868.7998-.491-.11-.829-.5373-1.124-.9363.306-.2874.797-.0504 1.197.0879s1.043-.0733.894-.4621c-.47-.1956-.94-.3912-1.409-.5868-.567-.236-1.372-.4016-1.674.1238zm4.47.1874c-.14.019-.294.0557-.368.1728-.106.1694.039.4033.231.4679s.403.0125.599-.0398c.484-.1293.968-.2585 1.453-.3878-.607-.2267-1.272-.3007-1.915-.2131zm4.433-.8328c-.743.2732-1.518.5676-2.039 1.1532 1.162-.1975 2.345-.278 3.524-.2397.417-.1818.261-.8704-.157-1.049-.419-.1786-.9-.0217-1.328.1355zm.595-1.6359c-.413.0327-.781.2542-1.167.4017-1.095.4189-2.319.2369-3.493.175-1.032-.0545-2.073-.0103-3.086.189-.544.1071-1.181.3665-1.25.9059.929-.4266 2.01-.2743 3.033-.2004 2.316.1672 4.665-.1215 6.866-.8438-.009-.405-.491-.6602-.903-.6274zm-16.33.1316c-.274.1211-.556.2889-.666.5671-.109.2782.069.6705.369.6622.909-.6335 2.057-.9165 3.158-.7781.348.0438.704-.2386.74-.5868-1.16-.4107-2.476-.3611-3.601.1356zm11.994-4.7545.002.0408c-.342-.1218-.764.0663-.902.4018.565-.0392 1.124-.1605 1.654-.3587-.002-.3105-.492-.2514-.754-.0839zm7.225-1.2441c-.23.1046.04.5339.235.3729l.005.0179c.174-.139-.037-.4824-.24-.3908z" fill="#00160a"/></g></svg>