<svg fill="none" height="56" viewBox="0 0 56 56" width="56" xmlns="http://www.w3.org/2000/svg" xmlns:xlink="http://www.w3.org/1999/xlink"><linearGradient id="a" gradientUnits="userSpaceOnUse" x1="-4.2" x2="36.4" y1="-22.4" y2="99.4"><stop offset="0" stop-color="#62c"/><stop offset="1" stop-color="#0b0415"/></linearGradient><path clip-rule="evenodd" d="m50.423 5.823a3.865 3.865 0 0 1 2.698.329c.852.433 1.58 1.166 2.093 2.107a6.67 6.67 0 0 1 .786 3.177v30.268c-.004 3.79-1.234 7.424-3.421 10.104s-5.153 4.188-8.246 4.192h-32.666c-3.093-.005-6.059-1.512-8.246-4.192s-3.417-6.314-3.421-10.104v-30.268c0-1.131.274-2.236.787-3.177.513-.939 1.241-1.673 2.093-2.105a3.876 3.876 0 0 1 2.696-.326c.905.22 1.736.765 2.389 1.565l6.035 7.394 10.7-13.113c.877-1.072 2.064-1.674 3.3-1.674 1.237 0 2.424.602 3.3 1.674l10.7 13.113 6.034-7.394c.652-.802 1.483-1.349 2.39-1.57zm-22.42 15.18c5.95.07 10.86 4.515 11.684 10.285.072.538.107 1.111.107 1.685 0 .573-.035 1.183-.107 1.756-.789 5.268-5.018 9.426-10.358 10.071h-10.967v-18.637h3.44v15.232h7.276c3.548-.537 6.38-3.225 7.097-6.666a7.363 7.363 0 0 0 .215-1.756c0-.574-.072-1.147-.18-1.685a8.589 8.589 0 0 0 -3.225-5.125c-1.326-1.003-2.975-1.613-4.767-1.72h-9.856v-3.44h9.64z" fill="url(#a)" fill-rule="evenodd"/></svg>