<svg xmlns="http://www.w3.org/2000/svg" width="21" height="21" fill="none" viewBox="0 0 21 21">
  <path fill="#AE77FF" d="M18.406 10.58v-1.1l1.38-1.207a1.438 1.438 0 00.273-1.833l-1.696-2.875a1.438 1.438 0 00-1.243-.718 1.438 1.438 0 00-.46.071l-1.747.59c-.301-.2-.616-.38-.941-.54l-.367-1.81A1.437 1.437 0 0012.167 0H8.805a1.437 1.437 0 00-1.438 1.157L7 2.97a8.252 8.252 0 00-.949.539l-1.71-.618a1.438 1.438 0 00-.46-.043 1.438 1.438 0 00-1.244.718L.94 6.44a1.438 1.438 0 00.294 1.804l1.359 1.244v1.1l-1.359 1.207a1.437 1.437 0 00-.294 1.833l1.696 2.875a1.438 1.438 0 001.243.718c.157.002.312-.023.46-.071l1.747-.59c.301.2.616.38.941.54l.367 1.81a1.438 1.438 0 001.438 1.158h3.392a1.438 1.438 0 001.438-1.157l.366-1.812c.328-.158.645-.338.949-.539l1.74.59c.148.048.303.073.46.072a1.437 1.437 0 001.243-.72l1.638-2.874a1.437 1.437 0 00-.294-1.804l-1.359-1.244zm-1.286 5.204l-2.466-.834a6.369 6.369 0 01-1.947 1.129l-.51 2.58H8.803l-.51-2.551a6.73 6.73 0 01-1.941-1.129l-2.473.805-1.696-2.875 1.955-1.725a6.397 6.397 0 010-2.25L2.184 7.16 3.88 4.284l2.466.834a6.368 6.368 0 011.947-1.129l.51-2.58h3.393l.51 2.552a6.727 6.727 0 011.941 1.128l2.473-.805 1.696 2.875-1.955 1.725a6.397 6.397 0 010 2.25l1.955 1.775-1.696 2.875z"/>
  <path fill="#AE77FF" d="M10.5 14.347a4.312 4.312 0 114.313-4.313 4.268 4.268 0 01-4.313 4.313zm0-7.188a2.81 2.81 0 00-2.875 2.875 2.81 2.81 0 002.875 2.875 2.808 2.808 0 002.875-2.875A2.809 2.809 0 0010.5 7.159z"/>
</svg>
