<svg fill="none" height="18" viewBox="0 0 135 18" width="135" xmlns="http://www.w3.org/2000/svg"><path d="m14.408 8.952c-.552-3.864-3.84-6.84-7.824-6.888h-6.456v2.304h6.6c1.2.072 2.304.48 3.192 1.152a5.799 5.799 0 0 1 2.28 4.56c0 .384-.048.792-.144 1.176-.48 2.304-2.376 4.104-4.752 4.464h-4.872v-10.2h-2.304v12.48h7.344a7.995 7.995 0 0 0 6.936-6.744c.048-.384.072-.792.072-1.176s-.024-.768-.072-1.128zm11.72.816-.288-.432c.024-.024.048-.024.048-.048h.024c.048-.024.096-.048.12-.096h.024c.024-.024.072-.048.12-.072.096-.072.192-.144.264-.216.024 0 .048-.024.072-.048.048-.024.072-.048.096-.072a.636.636 0 0 1 .144-.12l.024-.024c.024-.024.072-.048.096-.096.12-.072.216-.168.312-.288a7.81 7.81 0 0 0 2.184-3.936 8.11 8.11 0 0 0 .192-1.728c0-.192 0-.384-.024-.576h-13.224v15.984h2.304v-7.44h3.384c.048 0 .12 0 .192-.024h.192c.048-.024.12-.024.168-.024.024 0 .048 0 .072-.024h.144c.024-.024.048-.024.072-.024s.072 0 .12-.024c.12-.024.264-.048.408-.072.048-.024.12-.024.168-.048h.048c.048-.024.072-.024.12-.048h.024l.144.216 4.584 7.512h2.688zm-2.304-1.968c-.696.312-1.464.456-2.256.456h-2.952v-3.936h8.376a5.886 5.886 0 0 1 -1.416 2.304c-.528.504-1.104.912-1.752 1.176zm10.396 2.808h10.248v-2.304h-10.248v-2.784h-2.304v12.48h14.112v-2.28h-11.808zm-2.304-8.544v2.304h14.112v-2.304zm15.933 15.936h3.048l5.064-9.12-1.512-2.76zm10.391-13.248-1.536-2.736-1.512 2.736 1.512 2.736 5.833 10.512h3.024zm9.155 13.248h2.305v-8.808l-2.305-2.304zm7.177-8.832-7.177-7.152v3.24l7.177 7.176.864-.888.743-.744 3.144-3.12v10.32h2.305v-15.888zm21.673 4.602 3.867-12.832h3.914l-5.941 17.062h-3.668l-5.918-17.063h3.901l3.844 12.833zm12.434-1.782v6.012h-3.516v-17.063h6.657c1.281 0 2.406.235 3.375.704.976.468 1.726 1.136 2.25 2.004.523.859.785 1.84.785 2.94 0 1.673-.574 2.993-1.723 3.962-1.14.96-2.722 1.441-4.746 1.441zm0-2.847h3.141c.929 0 1.636-.22 2.121-.657.492-.437.738-1.062.738-1.875 0-.836-.246-1.511-.738-2.027s-1.172-.781-2.039-.797h-3.223zm25.372 8.859h-3.516l-6.844-11.227v11.227h-3.515v-17.063h3.515l6.856 11.25v-11.249h3.504z" fill="#000"/></svg>