<?xml version="1.0" encoding="UTF-8" standalone="no"?>
<svg
   xmlns:dc="http://purl.org/dc/elements/1.1/"
   xmlns:cc="http://creativecommons.org/ns#"
   xmlns:rdf="http://www.w3.org/1999/02/22-rdf-syntax-ns#"
   xmlns:svg="http://www.w3.org/2000/svg"
   xmlns="http://www.w3.org/2000/svg"
   xmlns:xlink="http://www.w3.org/1999/xlink"
   version="1.1"
   width="32"
   height="32"
   id="svg2437">
  <defs
     id="defs2439">
    <linearGradient
       id="linearGradient6019">
      <stop
         id="stop6021"
         style="stop-color:#000000;stop-opacity:1"
         offset="0" />
      <stop
         id="stop6023"
         style="stop-color:#000000;stop-opacity:0"
         offset="1" />
    </linearGradient>
    <linearGradient
       id="linearGradient5958">
      <stop
         id="stop5960"
         style="stop-color:#c17d11;stop-opacity:1"
         offset="0" />
      <stop
         id="stop5962"
         style="stop-color:#e9b96e;stop-opacity:1"
         offset="1" />
    </linearGradient>
    <linearGradient
       x1="27.354809"
       y1="36.218422"
       x2="23.489431"
       y2="34.728424"
       id="linearGradient6005"
       xlink:href="#linearGradient5999-1"
       gradientUnits="userSpaceOnUse"
       gradientTransform="matrix(0.66666667,0,0,0.66666667,-0.17128648,0)" />
    <linearGradient
       id="linearGradient1169">
      <stop
         id="stop1165"
         style="stop-color:#555761;stop-opacity:1"
         offset="0" />
      <stop
         id="stop1167"
         style="stop-color:#abacae;stop-opacity:1"
         offset="1" />
    </linearGradient>
    <linearGradient
       id="linearGradient1139">
      <stop
         id="stop1131"
         style="stop-color:#ffffff;stop-opacity:1"
         offset="0" />
      <stop
         id="stop1133"
         style="stop-color:#ffffff;stop-opacity:0.23529412"
         offset="0.22480772" />
      <stop
         id="stop1135"
         style="stop-color:#ffffff;stop-opacity:0.15686275"
         offset="0.74681246" />
      <stop
         id="stop1137"
         style="stop-color:#ffffff;stop-opacity:0.39215687"
         offset="1" />
    </linearGradient>
    <linearGradient
       id="linearGradient1090">
      <stop
         offset="0"
         style="stop-color:#ffffff;stop-opacity:1"
         id="stop1082" />
      <stop
         offset="0.11456396"
         style="stop-color:#ffffff;stop-opacity:0.23529412"
         id="stop1084" />
      <stop
         offset="0.74681246"
         style="stop-color:#ffffff;stop-opacity:0.15686275"
         id="stop1086" />
      <stop
         offset="1"
         style="stop-color:#ffffff;stop-opacity:0.39215687"
         id="stop1088" />
    </linearGradient>
    <linearGradient
       id="linearGradient5999-1">
      <stop
         offset="0"
         style="stop-color:#d48e15;stop-opacity:1"
         id="stop6001-2" />
      <stop
         offset="1"
         style="stop-color:#d48e15;stop-opacity:0.20116618"
         id="stop6003-7" />
    </linearGradient>
    <linearGradient
       id="linearGradient840">
      <stop
         style="stop-color:#ffe16b;stop-opacity:1"
         offset="0"
         id="stop836" />
      <stop
         style="stop-color:#f9c440;stop-opacity:1"
         offset="1"
         id="stop838" />
    </linearGradient>
    <linearGradient
       gradientTransform="matrix(0.66666667,0,0,0.66666667,-0.171286,-5e-7)"
       gradientUnits="userSpaceOnUse"
       xlink:href="#linearGradient5958"
       id="linearGradient5964-7"
       y2="7.390625"
       x2="30.546875"
       y1="12.34375"
       x1="35.359375" />
    <radialGradient
       xlink:href="#linearGradient6019"
       id="radialGradient3300-5"
       gradientUnits="userSpaceOnUse"
       gradientTransform="matrix(0.19416394,5.2619139e-8,0,0.07766548,-4.571505,11.544929)"
       cx="99.189415"
       cy="185.29727"
       fx="99.189415"
       fy="185.29727"
       r="62.769119" />
    <radialGradient
       xlink:href="#linearGradient6019"
       id="radialGradient4192-2"
       gradientUnits="userSpaceOnUse"
       gradientTransform="matrix(0.12944263,3.7584367e-8,0,0.05547427,1.848163,17.050063)"
       cx="99.189415"
       cy="185.29727"
       fx="99.189415"
       fy="185.29727"
       r="62.769119" />
    <linearGradient
       gradientTransform="matrix(0.66666667,0,0,0.66666667,-0.2481099,0.5319011)"
       gradientUnits="userSpaceOnUse"
       xlink:href="#linearGradient1139"
       id="linearGradient5994-5"
       y2="18.373388"
       x2="33.118984"
       y1="4.3389168"
       x1="32.180283" />
    <linearGradient
       gradientTransform="matrix(0.66666667,0,0,0.66666667,-0.171287,9.2999999e-7)"
       gradientUnits="userSpaceOnUse"
       xlink:href="#linearGradient840"
       id="linearGradient5972-6"
       y2="44.242676"
       x2="25.051865"
       y1="24.170034"
       x1="19.339958" />
    <linearGradient
       x1="71.710518"
       y1="15.092997"
       x2="71.204407"
       y2="40.495617"
       id="linearGradient3264-5-9"
       xlink:href="#linearGradient1090"
       gradientUnits="userSpaceOnUse"
       gradientTransform="matrix(0.7035672,0,0,0.7035672,-32.482918,1.2090163)" />
    <linearGradient
       gradientTransform="matrix(0.65121285,0,0,0.66666665,0.315509,0.333334)"
       gradientUnits="userSpaceOnUse"
       xlink:href="#linearGradient1169"
       id="linearGradient5980-761-9-0-9"
       y2="20.618719"
       x2="21.59099"
       y1="24.794006"
       x1="31.237032" />
  </defs>
  <metadata
     id="metadata2442">
    <rdf:RDF>
      <cc:Work
         rdf:about="">
        <dc:format>image/svg+xml</dc:format>
        <dc:type
           rdf:resource="http://purl.org/dc/dcmitype/StillImage" />
        <dc:title></dc:title>
      </cc:Work>
    </rdf:RDF>
  </metadata>
  <path
     d="m 26.875,25.937201 a 12.1875,4.8739992 0 1 1 -24.375,0 12.1875,4.8739992 0 1 1 24.375,0 z"
     id="path3818-0-0"
     style="opacity:0.2;fill:url(#radialGradient3300-5);fill-opacity:1;stroke:none;stroke-width:0.99999982" />
  <path
     style="opacity:0.4;fill:url(#radialGradient4192-2);fill-opacity:1;stroke:none;stroke-width:0.99999982"
     id="path4190-6"
     d="m 22.8125,27.330057 a 8.125,3.4813602 0 1 1 -16.25,0 8.125,3.4813602 0 1 1 16.25,0 z" />
  <path
     style="fill:url(#linearGradient5964-7);fill-opacity:1;fill-rule:evenodd;stroke:none;stroke-width:1px;stroke-linecap:butt;stroke-linejoin:miter;stroke-opacity:1;font-variant-east_asian:normal;opacity:1;vector-effect:none;stroke-miterlimit:4;stroke-dasharray:none;stroke-dashoffset:0"
     id="path5371"
     d="M 24.224547,1.6458333 C 18.755736,1.7162669 17.960014,12.477517 16.391214,14.416667 L 19.05788,15.375 C 20.812462,12.459969 29.561878,2.7696689 24.766214,1.6666667 24.579887,1.6460206 24.40096,1.6435613 24.224547,1.6458333 Z m -0.6875,1.375 c 0.129042,-0.012493 0.245324,0.00381 0.354167,0.0625 0.43537,0.2347484 0.482436,0.9965848 0.104166,1.6875001 -0.37827,0.6909152 -1.043797,1.0680816 -1.479166,0.8333333 -0.435369,-0.2347485 -0.482437,-0.9965847 -0.104167,-1.6875 0.283703,-0.5181865 0.737875,-0.8583561 1.125,-0.8958334 z" />
  <path
     style="opacity:0.5;fill:none;stroke:url(#linearGradient5994-5);stroke-width:1px;stroke-linecap:butt;stroke-linejoin:miter;stroke-opacity:1;font-variant-east_asian:normal;vector-effect:none;fill-opacity:1;stroke-miterlimit:4;stroke-dasharray:none;stroke-dashoffset:0"
     id="path5992"
     d="m 24.230406,2.6933594 c -1.027117,0.013228 -1.757601,0.4809927 -2.503906,1.3828125 -0.739332,0.8933949 -1.376682,2.204974 -1.894531,3.6171875 -0.518915,1.4151179 -0.940782,2.9279666 -1.326172,4.2265626 -0.222828,0.750831 -0.446308,1.327645 -0.689453,1.890625 l 0.830078,0.296875 c 1.149806,-1.716612 3.261428,-4.2787061 4.837891,-6.8300782 0.870495,-1.4088216 1.486758,-2.7546278 1.613281,-3.5644532 0.06439,-0.4121483 0.0077,-0.6545656 -0.03711,-0.7324218 -0.05416,-0.094216 -0.14078,-0.1780001 -0.498047,-0.2695313 -0.112723,-0.01013 -0.218666,-0.019038 -0.332032,-0.017578 z" />
  <path
     style="fill:none;fill-opacity:1;fill-rule:evenodd;stroke:#522d00;stroke-width:1px;stroke-linecap:butt;stroke-linejoin:miter;stroke-opacity:1;font-variant-east_asian:normal;opacity:0.5;vector-effect:none;stroke-miterlimit:4;stroke-dasharray:none;stroke-dashoffset:0"
     id="path5371-8"
     d="m 24.224547,1.645833 c -5.468811,0.070434 -6.264533,10.831684 -7.833333,12.770834 L 19.05788,15.375 C 20.812462,12.459969 29.561878,2.7696686 24.766214,1.6666664 24.579887,1.6460203 24.40096,1.643561 24.224547,1.645833 Z m -0.6875,1.375 c 0.129042,-0.012493 0.245324,0.00381 0.354167,0.0625 0.43537,0.2347484 0.482436,0.9965848 0.104166,1.6875001 -0.37827,0.6909152 -1.043797,1.0680816 -1.479166,0.8333333 -0.435369,-0.2347485 -0.482437,-0.9965847 -0.104167,-1.6875 0.283703,-0.5181865 0.737875,-0.8583561 1.125,-0.8958334 z" />
  <path
     style="fill:url(#linearGradient5972-6);fill-opacity:1;fill-rule:evenodd;stroke:none;stroke-width:0.99999982;stroke-linecap:butt;stroke-linejoin:miter;stroke-miterlimit:20;stroke-dasharray:none;stroke-opacity:1;font-variant-east_asian:normal;opacity:1;vector-effect:none;stroke-dashoffset:0"
     id="path5367"
     d="m 14.828714,11 c 0.473004,1.335338 -0.360926,2.491887 -0.666667,3.333333 -3.461045,1.03045 -5.8578675,6.469151 -9.4217218,9.30239 C 5.1855172,24.100655 5.7084762,24.598509 6.1620468,25 L 8.8703802,22.645833 6.8253428,25.662266 C 8.2981675,26.856255 9.8287135,27.666667 10.828714,28 l 1.833333,-2.4375 -1.166667,2.770833 c 0.967996,0.392588 3.323524,0.988017 4.666667,1 L 17.497974,27.065002 17.155861,29.375 c 0.553042,0.105573 1.625443,0.249477 2.339519,0.270833 2.241458,-3.666666 2.666667,-9.645833 1.333334,-12.3125 -0.333334,-1.333333 1,-3 2,-3.666666 -1.666667,-1.333334 -5.470393,-2.869151 -8,-2.666667 z" />
  <path
     style="opacity:0.5;fill:none;fill-opacity:1;fill-rule:evenodd;stroke:#ad5f00;stroke-width:0.99999982;stroke-linecap:butt;stroke-linejoin:miter;stroke-miterlimit:20;stroke-dasharray:none;stroke-opacity:1;font-variant-east_asian:normal;vector-effect:none;stroke-dashoffset:0"
     id="path5367-6"
     d="m 14.828714,11 c 0.473004,1.335338 -0.360926,2.491887 -0.666667,3.333333 -3.461045,1.03045 -5.8578675,6.469151 -9.4217218,9.30239 C 5.1855172,24.100655 5.7084762,24.598509 6.1620468,25 L 8.8703802,22.645833 6.8253428,25.662266 C 8.2981675,26.856255 9.8287135,27.666667 10.828714,28 l 1.833333,-2.4375 -1.166667,2.770833 c 0.967996,0.392588 3.323524,0.988017 4.666667,1 L 17.497974,27.065002 17.155861,29.375 c 0.553042,0.105573 1.625443,0.249477 2.339519,0.270833 2.241458,-3.666666 2.666667,-9.645833 1.333334,-12.3125 -0.333334,-1.333333 1,-3 2,-3.666666 -1.666667,-1.333334 -5.470393,-2.869151 -8,-2.666667 z" />
  <path
     style="opacity:0.26666667;fill:#d48e15;fill-rule:evenodd;stroke:none;stroke-width:1;font-variant-east_asian:normal;vector-effect:none;fill-opacity:1;stroke-linecap:butt;stroke-linejoin:miter;stroke-miterlimit:4;stroke-dasharray:none;stroke-dashoffset:0;stroke-opacity:1"
     id="path5975"
     d="M 7.1620468,25.666667 C 10.373044,22.32607 10.138729,20.864049 13.906125,17.981515 11.91783,21.200469 11.595566,22.874887 9.1620468,27 Z" />
  <path
     style="opacity:0.26666667;fill:#d48e15;fill-rule:evenodd;stroke:none;stroke-width:1;font-variant-east_asian:normal;vector-effect:none;fill-opacity:1;stroke-linecap:butt;stroke-linejoin:miter;stroke-miterlimit:4;stroke-dasharray:none;stroke-dashoffset:0;stroke-opacity:1"
     id="path5979"
     d="m 11.928586,28.134968 2.897351,-6.560098 c 1.109675,-1.989151 1.906448,-3.980035 3.019315,-5.564902 -1.067969,3.612025 -3.26046,8.081195 -5.020833,12.416667 z" />
  <path
     style="opacity:0.7;fill:none;stroke:url(#linearGradient3264-5-9);stroke-width:1;stroke-linecap:square;stroke-linejoin:miter;stroke-opacity:1;font-variant-east_asian:normal;vector-effect:none;fill-opacity:1;stroke-miterlimit:4;stroke-dasharray:none;stroke-dashoffset:0;marker:none"
     id="path6014"
     d="m 15.906188,12.064453 c -0.07368,1.221756 -0.658472,2.229434 -0.800782,2.621094 a 0.36070911,0.36070911 0 0 1 -0.002,0 c -0.107665,0.294459 -0.346981,0.524175 -0.648437,0.617187 l 0.03125,-0.0098 c -1.722697,0.705911 -2.951377,2.07257 -4.207032,3.679687 -0.9193594,1.176692 -1.8528135,2.474667 -3.003906,3.691406 l 4.654297,-3.939453 a 0.36070911,0.36070911 0 0 1 0.53125,0.476563 l -4.1875001,6.246094 c 0.682761,0.517878 1.4324839,0.958901 2.2128911,1.296875 l 4.482422,-5.960938 a 0.36070911,0.36070911 0 0 1 0.623047,0.353516 l -2.6875,6.546875 c 0.834376,0.250913 1.661267,0.433071 2.625,0.576172 l 2.947265,-4.904297 a 0.36070911,0.36070911 0 0 1 0.664063,0.248047 L 18.290953,28.5 l 0.615235,0.07422 c 0.844784,-1.589356 1.292647,-3.540698 1.544921,-5.515625 0.27504,-2.153139 -0.02875,-4.274308 -0.527343,-5.271485 a 0.36070911,0.36070911 0 0 1 -0.0059,-0.01367 c -0.02502,-0.05545 -0.04803,-0.119652 -0.06445,-0.191407 -3.52e-4,-0.0015 -0.0016,-0.0024 -0.002,-0.0039 -0.260157,-1.056848 0.13292,-2.059938 0.628906,-2.853516 0.214569,-0.343309 0.478554,-0.620447 0.736329,-0.904297 -0.687301,-0.41814 -1.479837,-0.803102 -2.490235,-1.167968 -1.011619,-0.365307 -1.986291,-0.53937 -2.820312,-0.587891 z" />
  <path
     style="opacity:0.24705882;fill:url(#linearGradient6005);fill-opacity:1.0;fill-rule:evenodd;stroke:none;stroke-width:1"
     id="path5977"
     d="m 13.80788,28.666667 c 1.451711,-3.834581 4.263944,-6.712629 5.344609,-10.623608 0.03436,2.441382 0.16648,6.802484 -1.261275,11.144441 -0.213178,0.0012 -0.115952,-0.07387 -0.313254,-0.07904 l 0.533862,-3.816345 -2.187658,3.702923 c -1.460538,-0.104216 -0.863074,0.02173 -2.116284,-0.328376 z" />
  <path
     style="opacity:0.26666667;fill:#d48e15;fill-rule:evenodd;stroke:none;stroke-width:1;font-variant-east_asian:normal;vector-effect:none;fill-opacity:1;stroke-linecap:butt;stroke-linejoin:miter;stroke-miterlimit:4;stroke-dasharray:none;stroke-dashoffset:0;stroke-opacity:1"
     id="path5995"
     d="m 15.164092,15.073631 c -0.834664,0.41092 -1.374806,1.018186 -1.988738,1.576259 0.817658,-0.472429 1.585991,-0.965996 2.666382,-1.325825 z" />
  <path
     style="opacity:0.26666667;fill:#d48e15;fill-rule:evenodd;stroke:none;stroke-width:1;font-variant-east_asian:normal;vector-effect:none;fill-opacity:1;stroke-linecap:butt;stroke-linejoin:miter;stroke-miterlimit:4;stroke-dasharray:none;stroke-dashoffset:0;stroke-opacity:1"
     id="path5997"
     d="m 16.501179,15.374033 -0.677643,1.325825 1.987142,-1.058833 z" />
  <path
     style="opacity:0.26666667;fill:#d48e15;fill-rule:evenodd;stroke:none;stroke-width:1;font-variant-east_asian:normal;vector-effect:none;fill-opacity:1;stroke-linecap:butt;stroke-linejoin:miter;stroke-miterlimit:4;stroke-dasharray:none;stroke-dashoffset:0;stroke-opacity:1"
     id="path6007"
     d="m 16.45525,11.974266 -0.596795,1.138015 1.043818,0.334722 z" />
  <path
     style="opacity:0.26666667;fill:#d48e15;fill-rule:evenodd;stroke:none;stroke-width:1;font-variant-east_asian:normal;vector-effect:none;fill-opacity:1;stroke-linecap:butt;stroke-linejoin:miter;stroke-miterlimit:4;stroke-dasharray:none;stroke-dashoffset:0;stroke-opacity:1"
     id="path6009"
     d="m 21.110883,13.256913 -1.640165,1.223632 1.043818,0.334722 z" />
  <path
     style="opacity:0.26666667;fill:#d48e15;fill-rule:evenodd;stroke:none;stroke-width:1;font-variant-east_asian:normal;vector-effect:none;fill-opacity:1;stroke-linecap:butt;stroke-linejoin:miter;stroke-miterlimit:4;stroke-dasharray:none;stroke-dashoffset:0;stroke-opacity:1"
     id="path6011"
     d="m 18.503997,11.959044 -1.009274,1.683076 1.043818,0.334723 -0.03455,-2.017799 z" />
  <path
     style="opacity:0.3;fill:#ad5f00;fill-opacity:1;fill-rule:evenodd;stroke:none;stroke-width:1;font-variant-east_asian:normal;vector-effect:none;stroke-linecap:butt;stroke-linejoin:miter;stroke-miterlimit:4;stroke-dasharray:none;stroke-dashoffset:0;stroke-opacity:1"
     id="path6013"
     d="m 13.807198,14.683133 c -0.377854,-1.97699 6.22189,1.435268 7.357881,1.996246 -0.0043,0.719378 0,1.333333 -0.651213,1.333333 -1.711692,-0.928653 -4.356836,-2.403429 -6.706668,-3.329579 z" />
  <path
     style="fill:url(#linearGradient5980-761-9-0-9);fill-opacity:1;fill-rule:evenodd;stroke:none;stroke-width:1px;stroke-linecap:butt;stroke-linejoin:round;stroke-opacity:1;font-variant-east_asian:normal;opacity:1;vector-effect:none;stroke-miterlimit:4;stroke-dasharray:none;stroke-dashoffset:0"
     id="path5373"
     d="M 13.595469,14.333333 C 13.269862,13.666667 13.595469,13 14.246682,13 c 2.66096,0.650278 4.88325,1.470821 7.163342,2.666667 C 21.73563,16.333333 21.410024,17 20.758811,17 18.402849,15.757053 16.181004,14.950125 13.595469,14.333333 Z" />
  <path
     style="fill:none;fill-opacity:1;fill-rule:evenodd;stroke:#333333;stroke-width:1px;stroke-linecap:butt;stroke-linejoin:round;stroke-opacity:1;font-variant-east_asian:normal;opacity:0.5;vector-effect:none;stroke-miterlimit:4;stroke-dasharray:none;stroke-dashoffset:0"
     id="path5373-4"
     d="M 13.595469,14.333333 C 13.269862,13.666667 13.595469,13 14.246682,13 c 2.66096,0.650278 4.88325,1.470821 7.163342,2.666667 C 21.73563,16.333333 21.410024,17 20.758811,17 18.402849,15.757053 16.181004,14.950125 13.595469,14.333333 Z" />
</svg>
