<?xml version="1.0" encoding="UTF-8" standalone="no"?>
<svg
   xmlns:dc="http://purl.org/dc/elements/1.1/"
   xmlns:cc="http://creativecommons.org/ns#"
   xmlns:rdf="http://www.w3.org/1999/02/22-rdf-syntax-ns#"
   xmlns:svg="http://www.w3.org/2000/svg"
   xmlns="http://www.w3.org/2000/svg"
   xmlns:xlink="http://www.w3.org/1999/xlink"
   version="1.1"
   width="24"
   height="24"
   id="svg7435">
  <defs
     id="defs7437">
    <linearGradient
       id="linearGradient939">
      <stop
         id="stop931"
         style="stop-color:#ffffff;stop-opacity:1"
         offset="0" />
      <stop
         id="stop933"
         style="stop-color:#ffffff;stop-opacity:0.23529412"
         offset="0" />
      <stop
         id="stop935"
         style="stop-color:#ffffff;stop-opacity:0.15686275"
         offset="1" />
      <stop
         id="stop937"
         style="stop-color:#ffffff;stop-opacity:0.39215687"
         offset="1" />
    </linearGradient>
    <linearGradient
       id="linearGradient1847">
      <stop
         id="stop1839"
         style="stop-color:#ffffff;stop-opacity:1"
         offset="0" />
      <stop
         id="stop1841"
         style="stop-color:#ffffff;stop-opacity:0.23529412"
         offset="0.49999997" />
      <stop
         id="stop1843"
         style="stop-color:#ffffff;stop-opacity:0.15686275"
         offset="0.74999994" />
      <stop
         id="stop1845"
         style="stop-color:#ffffff;stop-opacity:0.39215687"
         offset="1" />
    </linearGradient>
    <linearGradient
       xlink:href="#linearGradient1847"
       id="linearGradient1697-2"
       gradientUnits="userSpaceOnUse"
       gradientTransform="matrix(0.31231236,0,0,0.31231203,-0.43993651,34.002483)"
       x1="51.798126"
       y1="-99.267654"
       x2="51.798126"
       y2="-60.844543" />
    <linearGradient
       xlink:href="#linearGradient939"
       id="linearGradient1693-4"
       gradientUnits="userSpaceOnUse"
       gradientTransform="matrix(0.32432433,0,0,0.32432433,0.7162159,7.7162204)"
       x1="23.99999"
       y1="7.0416536"
       x2="23.99999"
       y2="40.958321" />
    <linearGradient
       gradientTransform="matrix(0.02485212,0,0,0.0082353,-0.48225013,18.980547)"
       gradientUnits="userSpaceOnUse"
       xlink:href="#linearGradient5048"
       id="linearGradient3027"
       y2="609.50507"
       x2="302.85715"
       y1="366.64789"
       x1="302.85715" />
    <linearGradient
       id="linearGradient5048">
      <stop
         offset="0"
         style="stop-color:#000000;stop-opacity:0"
         id="stop5050" />
      <stop
         offset="0.5"
         style="stop-color:#000000;stop-opacity:1"
         id="stop5056" />
      <stop
         offset="1"
         style="stop-color:#000000;stop-opacity:0"
         id="stop5052" />
    </linearGradient>
    <radialGradient
       gradientTransform="matrix(-0.01204859,0,0,0.0082353,9.761206,18.980564)"
       gradientUnits="userSpaceOnUse"
       xlink:href="#linearGradient5060"
       id="radialGradient3024"
       fy="486.64789"
       fx="605.71429"
       r="117.14286"
       cy="486.64789"
       cx="605.71429" />
    <linearGradient
       id="linearGradient5060">
      <stop
         offset="0"
         style="stop-color:#000000;stop-opacity:1"
         id="stop5062" />
      <stop
         offset="1"
         style="stop-color:#000000;stop-opacity:0"
         id="stop5064" />
    </linearGradient>
    <radialGradient
       gradientTransform="matrix(0.01204859,0,0,0.0082353,7.238793,18.980564)"
       gradientUnits="userSpaceOnUse"
       xlink:href="#linearGradient5060"
       id="radialGradient3021"
       fy="486.64789"
       fx="605.71429"
       r="117.14286"
       cy="486.64789"
       cx="605.71429" />
    <linearGradient
       id="linearGradient870">
      <stop
         style="stop-color:#43d6b5;stop-opacity:1"
         offset="0"
         id="stop866" />
      <stop
         style="stop-color:#22cc93;stop-opacity:1"
         offset="1"
         id="stop868" />
    </linearGradient>
    <linearGradient
       y2="21.282824"
       x2="14.600296"
       y1="-6.9363832"
       x1="14.600296"
       gradientTransform="matrix(0.73684202,0,0,0.73684202,-0.3421032,6.6578757)"
       gradientUnits="userSpaceOnUse"
       id="linearGradient1021"
       xlink:href="#linearGradient870" />
  </defs>
  <metadata
     id="metadata7440">
    <rdf:RDF>
      <cc:Work
         rdf:about="">
        <dc:format>image/svg+xml</dc:format>
        <dc:type
           rdf:resource="http://purl.org/dc/dcmitype/StillImage" />
        <dc:title></dc:title>
      </cc:Work>
    </rdf:RDF>
  </metadata>
  <path
     id="path8335-9-5-5-3"
     d="M 15.232422 2.0039062 A 8.0000001 7.9991057 0 0 0 7.1464844 8.5 L 14 8.5 C 14.831 8.5 15.5 9.169 15.5 10 L 15.5 17.982422 A 8.0000001 7.9991057 0 0 0 23 10 A 8.0000001 7.9991057 0 0 0 15.232422 2.0039062 z "
     style="opacity:0.05;vector-effect:none;fill:#000000;fill-opacity:1;stroke:none;stroke-width:1;stroke-linecap:butt;stroke-linejoin:miter;stroke-miterlimit:4;stroke-dasharray:none;stroke-dashoffset:0;stroke-opacity:1;marker:none" />
  <path
     id="path8335-9-5-5"
     d="M 15.216797 2.5039062 A 7.5000002 7.4982683 0 0 0 7.6523438 8.5 L 14 8.5 C 14.831 8.5 15.5 9.169 15.5 10 L 15.5 17.482422 A 7.5000002 7.4982683 0 0 0 22.5 10 A 7.5000002 7.4982683 0 0 0 15.216797 2.5039062 z "
     style="opacity:0.07;vector-effect:none;fill:#000000;fill-opacity:1;stroke:none;stroke-width:0.99999988;stroke-linecap:butt;stroke-linejoin:miter;stroke-miterlimit:4;stroke-dasharray:none;stroke-dashoffset:0;stroke-opacity:1;marker:none" />
  <path
     id="path8335-9-5"
     d="M 15.216797 1.5039062 A 7.5000002 7.4982683 0 0 0 7.5253906 8.5 L 14 8.5 C 14.831 8.5 15.5 9.169 15.5 10 L 15.5 16.480469 A 7.5000002 7.4982683 0 0 0 22.5 9 A 7.5000002 7.4982683 0 0 0 15.216797 1.5039062 z M 7.5253906 8.5 L 3 8.5 C 2.169 8.5 1.5 9.169 1.5 10 L 1.5 21 C 1.5 21.831 2.169 22.5 3 22.5 L 14 22.5 C 14.831 22.5 15.5 21.831 15.5 21 L 15.5 16.482422 A 7.5000002 7.4982683 0 0 1 7.5 9 A 7.5000002 7.4982683 0 0 1 7.5253906 8.5 z "
     style="opacity:1;vector-effect:none;fill:url(#linearGradient1021);fill-opacity:1;stroke:none;stroke-width:0.99999994;stroke-linecap:butt;stroke-linejoin:miter;stroke-miterlimit:4;stroke-dasharray:none;stroke-dashoffset:0;stroke-opacity:1;marker:none;font-variant-east_asian:normal" />
  <path
     d="m 21.499999,8.997998 a 6.4999998,6.4999935 0 1 1 -12.9999991,0 6.4999998,6.4999935 0 1 1 12.9999991,0 z"
     id="path8339-9"
     style="opacity:0.5;vector-effect:none;fill:none;fill-opacity:1;stroke:url(#linearGradient1697-2);stroke-width:0.99999988;stroke-linecap:round;stroke-linejoin:round;stroke-miterlimit:4;stroke-dasharray:none;stroke-dashoffset:0;stroke-opacity:1" />
  <rect
     style="display:inline;overflow:visible;visibility:visible;opacity:0.15;fill:url(#linearGradient3027);fill-opacity:1;fill-rule:nonzero;stroke:none;stroke-width:1.00000012;marker:none"
     id="rect2879"
     y="22"
     x="2.499999"
     height="2"
     width="12" />
  <path
     style="display:inline;overflow:visible;visibility:visible;opacity:0.15;fill:url(#radialGradient3024);fill-opacity:1;fill-rule:nonzero;stroke:none;stroke-width:1;marker:none"
     id="path2881"
     d="m 2.5,22.000085 c 0,0 0,1.999891 0,1.999891 C 1.879527,24.003776 1,23.551901 1,22.999901 1,22.447902 1.6924,22.000085 2.5,22.000085 Z" />
  <path
     style="display:inline;overflow:visible;visibility:visible;opacity:0.15;fill:url(#radialGradient3021);fill-opacity:1;fill-rule:nonzero;stroke:none;stroke-width:1;marker:none"
     id="path2883"
     d="m 14.5,22.000085 c 0,0 0,1.999891 0,1.999891 0.620472,0.0038 1.5,-0.448075 1.5,-1.000075 0,-0.551999 -0.692402,-0.999816 -1.5,-0.999816 z" />
  <rect
     ry="0.75"
     rx="0.75"
     style="opacity:0.5;fill:none;stroke:url(#linearGradient1693-4);stroke-width:0.99999988;stroke-linecap:round;stroke-linejoin:round;stroke-miterlimit:4;stroke-dasharray:none;stroke-dashoffset:0;stroke-opacity:1"
     id="rect6741-9-5-1"
     y="9.5"
     x="2.5"
     height="12"
     width="12" />
  <path
     d="m 3,8.5 h 11 c 0.831,0 1.5,0.669 1.5,1.5 v 11 c 0,0.831 -0.669,1.5 -1.5,1.5 H 3 C 2.169,22.5 1.5,21.831 1.5,21 V 10 C 1.5,9.169 2.169,8.5 3,8.5 Z m 19.5,0.500001 a 7.5000002,7.5000021 0 1 1 -15,0 7.5000002,7.5000021 0 1 1 15,0 z"
     style="color:#000000;display:inline;overflow:visible;visibility:visible;opacity:0.5;vector-effect:none;fill:none;fill-opacity:1;stroke:#105845;stroke-width:1;stroke-linecap:round;stroke-linejoin:round;stroke-miterlimit:4;stroke-dasharray:none;stroke-dashoffset:0;stroke-opacity:1;marker:none;enable-background:accumulate"
     id="rect5505-21-8-1-25-1" />
</svg>
