<?xml version="1.0" encoding="UTF-8" standalone="no"?>
<svg
   xmlns:dc="http://purl.org/dc/elements/1.1/"
   xmlns:cc="http://creativecommons.org/ns#"
   xmlns:rdf="http://www.w3.org/1999/02/22-rdf-syntax-ns#"
   xmlns:svg="http://www.w3.org/2000/svg"
   xmlns="http://www.w3.org/2000/svg"
   id="svg8"
   version="1.1"
   width="16"
   height="16.001">
  <metadata
     id="metadata14">
    <rdf:RDF>
      <cc:Work
         rdf:about="">
        <dc:format>image/svg+xml</dc:format>
        <dc:type
           rdf:resource="http://purl.org/dc/dcmitype/StillImage" />
        <dc:title></dc:title>
      </cc:Work>
    </rdf:RDF>
  </metadata>
  <defs
     id="defs12" />
  <path
     d="m 12.265518,10.771987 c 0.13388,-0.240682 0.048,-0.544294 -0.19221,-0.679086 l -0.68675,-0.396502 0.2003,-0.05294 c 0.13111,-0.03378 0.24292,-0.119121 0.3099,-0.236772 0.22083,-0.387893 -0.13871,-0.84877 -0.56869,-0.729016 l -1.16608,0.311725 -1.6701296,-0.96425 1.6682696,-0.9637897 1.16579,0.312795 c 0.23423,0.06688 0.48258,-0.04483 0.58799,-0.264424 0.13568,-0.284526 -0.0226,-0.622086 -0.32806,-0.699781 l -0.20417,-0.05437 0.69054,-0.398061 c 0.0882,-0.04861 0.15916,-0.123412 0.20411,-0.213568 0.2234,-0.447168 -0.2752,-0.909199 -0.7041,-0.652464 l -0.68697,0.397779 0.0524,-0.200713 c 0.21277,-0.665609 -0.81541,-0.941708 -0.9647096,-0.259062 l -0.3128,1.165786 -1.66914,0.963286 -9.8e-4,-1.976237 0.85406,-0.853291 c 0.0362,-0.03497 0.0669,-0.07533 0.091,-0.119498 0.28154,-0.511325 -0.3919,-1.008366 -0.79754,-0.588634 l -0.14762,0.145733 5.6e-4,-0.792955 c 0.0289,-0.694772 -1.02879,-0.694201 -0.99912,5.06e-4 l -10e-4,0.793829 -0.14571,-0.147634 c -0.47196,-0.471983 -1.17976,0.235964 -0.7078,0.707947 l 0.85479,0.851471 -10e-4,1.978341 -1.84333,-1.064245 -0.31309,-1.165724 c -0.16416,-0.658191 -1.15271,-0.393308 -0.96578,0.25878 l 0.0543,0.199944 -0.51096,-0.295005 c -0.57735,-0.333333 -1.07732,0.532736 -0.5,0.866026 l 0.51096,0.295004 -0.2008,0.05381 c -0.65819,0.164158 -0.39331,1.152708 0.25878,0.96578 l 1.16658,-0.312582 1.8442,1.0647487 -1.84519,1.065543 -1.16578,-0.312795 c -0.66019,-0.200395 -0.9297,0.811025 -0.25734,0.965709 l 0.19971,0.0541 -0.51235,0.2954 c -0.61651,0.321646 -0.0881,1.237968 0.49912,0.86552 l 0.51421,-0.296637 -0.0551,0.201438 c -0.16242,0.568828 0.62333,0.898612 0.91553,0.384242 0.0225,-0.03884 0.0396,-0.0807 0.0509,-0.124191 l 0.31294,-1.168013 1.84519,-1.065552 -0.001,2.07983 -0.85407,0.853282 c -0.50493,0.470143 0.23418,1.211305 0.70572,0.707671 l 0.14862,-0.147464 -5.3e-4,0.590907 c -0.007,0.532195 0.71247,0.704788 0.94824,0.227608 0.0347,-0.07096 0.0522,-0.149128 0.0509,-0.228122 l -4.8e-4,-0.589175 0.1467,0.145904 c 0.23899,0.246397 0.64951,0.184173 0.80479,-0.121943 0.0998,-0.195451 0.0604,-0.433124 -0.097,-0.586005 l -0.85378,-0.853203 2.1e-4,-2.078098 1.67013,0.96425 0.31259,1.166589 c 0.1641496,0.658191 1.1527096,0.393308 0.9657796,-0.25878 l -0.0538,-0.200811 0.68676,0.396501 c 0.24241,0.143419 0.55531,0.05922 0.69221,-0.18694 z"
     font-weight="400"
     overflow="visible"
     style="color:#000000;font-weight:400;line-height:normal;font-family:sans-serif;text-indent:0;text-align:start;text-decoration:none;text-decoration-line:none;text-decoration-style:solid;text-decoration-color:#000000;text-transform:none;white-space:normal;overflow:visible;isolation:auto;mix-blend-mode:normal;fill:#555761;fill-rule:evenodd;opacity:0.6"
     id="path2-3" />
</svg>
