<?xml version="1.0" encoding="UTF-8" standalone="no"?>
<svg
   xmlns:dc="http://purl.org/dc/elements/1.1/"
   xmlns:cc="http://creativecommons.org/ns#"
   xmlns:rdf="http://www.w3.org/1999/02/22-rdf-syntax-ns#"
   xmlns:svg="http://www.w3.org/2000/svg"
   xmlns="http://www.w3.org/2000/svg"
   height="16"
   width="16"
   version="1.1"
   id="svg8">
  <metadata
     id="metadata14">
    <rdf:RDF>
      <cc:Work
         rdf:about="">
        <dc:format>image/svg+xml</dc:format>
        <dc:type
           rdf:resource="http://purl.org/dc/dcmitype/StillImage" />
        <dc:title></dc:title>
      </cc:Work>
    </rdf:RDF>
  </metadata>
  <defs
     id="defs12" />
  <path
     id="path859-9-2"
     d="m 9.000001,2.9999988 a 2.5,2.5 0 0 0 -2.164063,1.253906 1.5,1.5 0 0 0 -0.835937,-0.253906 1.5,1.5 0 0 0 -1.5,1.5 1.5,1.5 0 0 0 0.101562,0.542969 2,2 0 0 0 -1.601562,1.957031 2,2 0 0 0 2,2.0000002 h 6 a 2,2 0 0 0 2,-2.0000002 2,2 0 0 0 -1.56445,-1.951172 2.5,2.5 0 0 0 0.0644,-0.548828 2.5,2.5 0 0 0 -2.5,-2.5 z"
     style="opacity:1;vector-effect:none;fill:#555761;fill-opacity:1;stroke:none;stroke-width:1.00000012;stroke-linecap:butt;stroke-linejoin:miter;stroke-miterlimit:4;stroke-dasharray:none;stroke-dashoffset:0;stroke-opacity:1;marker:none;paint-order:normal" />
  <path
     style="opacity:1;vector-effect:none;fill:#64baff;fill-opacity:1;stroke:none;stroke-width:1.00000012;stroke-linecap:butt;stroke-linejoin:miter;stroke-miterlimit:4;stroke-dasharray:none;stroke-dashoffset:0;stroke-opacity:1;marker:none;paint-order:normal"
     d="m 11.046877,11.011719 c 0.04834,0.0061 0.09565,0.02091 0.140625,0.04687 0.179917,0.103875 0.240594,0.333755 0.136719,0.513672 l -0.625,1.082031 c -0.103875,0.179917 -0.331802,0.240594 -0.511719,0.136719 -0.179917,-0.103875 -0.2405938,-0.331802 -0.136719,-0.511719 l 0.625,-1.082031 c 0.07791,-0.134938 0.226066,-0.203718 0.371094,-0.185547 z m -2.9082031,0 c 0.048343,0.0061 0.095646,0.02091 0.140625,0.04687 0.1799168,0.103875 0.2405937,0.333755 0.1367187,0.513672 l -0.625,1.082031 C 7.6871426,12.834214 7.4592157,12.894891 7.2792989,12.791016 7.0993821,12.687141 7.0387051,12.459214 7.1425801,12.279297 l 0.625,-1.082031 c 0.077906,-0.134938 0.2260657,-0.203718 0.3710938,-0.185547 z m -3.0917969,0 c 0.048343,0.0061 0.095646,0.02091 0.140625,0.04687 0.179917,0.103875 0.240594,0.333755 0.136719,0.513672 l -0.625,1.082031 C 4.595346,12.834214 4.367419,12.894891 4.187502,12.791016 4.007585,12.687141 3.946908,12.459214 4.050783,12.279297 l 0.625,-1.082031 C 4.75369,11.062328 4.901849,10.993548 5.046877,11.011719 Z m 4.0800781,0.865234 c 0.048343,0.0061 0.095646,0.02286 0.140625,0.04883 0.1799168,0.103875 0.2425469,0.331802 0.1386719,0.511719 l -0.625,1.082031 C 8.677377,13.699448 8.4474969,13.762078 8.2675801,13.658203 8.0876633,13.554328 8.0269864,13.324448 8.1308614,13.144531 l 0.625,-1.082031 c 0.077906,-0.134938 0.2260656,-0.203718 0.3710937,-0.185547 z m -3.0273437,0 c 0.048343,0.0061 0.097599,0.02286 0.1425781,0.04883 0.1799168,0.103875 0.2405938,0.331802 0.1367187,0.511719 L 5.753908,13.519531 C 5.650033,13.699448 5.422106,13.762078 5.24219,13.658203 5.062273,13.554328 4.999643,13.324448 5.103518,13.144531 l 0.625,-1.082031 c 0.077906,-0.134938 0.226065,-0.203718 0.3710934,-0.185547 z"
     class="info"
     id="rect1023-12-8" />
</svg>
