<?xml version="1.0" encoding="utf-8"?>
<!-- Generator: Adobe Illustrator 24.0.0, SVG Export Plug-In . SVG Version: 6.00 Build 0)  -->
<svg version="1.1" id="Layer_1" xmlns="http://www.w3.org/2000/svg" xmlns:xlink="http://www.w3.org/1999/xlink" x="0px" y="0px"
	 viewBox="0 0 256 255.8" style="enable-background:new 0 0 256 255.8;" xml:space="preserve">
<style type="text/css">
	.st0{fill-rule:evenodd;clip-rule:evenodd;fill:#48A9A6;}
	.st1{fill-rule:evenodd;clip-rule:evenodd;fill:#FFFFFF;}
</style>
<title>Group 6</title>
<desc>Created with Sketch.</desc>
<g id="Page-1">
	<g id="Artboard">
		<g id="Group-6">
			<path id="Fill-1" class="st0" d="M128,0c70.6,0,128,57.3,128,127.9s-57.4,127.9-128,127.9S0,198.5,0,127.9S57.4,0,128,0z"/>
			<polygon id="Fill-2" class="st1" points="62.3,88.6 114.9,88.6 114.9,62.3 62.3,62.3 			"/>
			<polygon id="Fill-3" class="st1" points="141.1,88.6 193.7,88.6 193.7,62.3 141.1,62.3 			"/>
			<polygon id="Fill-4" class="st1" points="193.7,141.1 167.4,141.1 167.4,167.4 141.1,167.4 141.1,193.7 193.7,193.7 			"/>
			<polygon id="Fill-5" class="st1" points="114.9,193.7 114.9,167.4 88.6,167.4 88.6,141.1 62.3,141.1 62.3,193.7 			"/>
		</g>
	</g>
</g>
</svg>
