<?xml version="1.0" encoding="UTF-8" standalone="no"?>
<svg
   xmlns:dc="http://purl.org/dc/elements/1.1/"
   xmlns:cc="http://creativecommons.org/ns#"
   xmlns:rdf="http://www.w3.org/1999/02/22-rdf-syntax-ns#"
   xmlns:svg="http://www.w3.org/2000/svg"
   xmlns="http://www.w3.org/2000/svg"
   xmlns:sodipodi="http://sodipodi.sourceforge.net/DTD/sodipodi-0.dtd"
   xmlns:inkscape="http://www.inkscape.org/namespaces/inkscape"
   viewBox="0 0 16 16"
   version="1.1"
   id="svg4"
   sodipodi:docname="planner-artist-symbolic.svg"
   width="16"
   height="16"
   inkscape:version="0.92.3 (2405546, 2018-03-11)">
  <metadata
     id="metadata10">
    <rdf:RDF>
      <cc:Work
         rdf:about="">
        <dc:format>image/svg+xml</dc:format>
        <dc:type
           rdf:resource="http://purl.org/dc/dcmitype/StillImage" />
        <dc:title />
      </cc:Work>
    </rdf:RDF>
  </metadata>
  <defs
     id="defs8" />
  <sodipodi:namedview
     pagecolor="#ffffff"
     bordercolor="#666666"
     borderopacity="1"
     objecttolerance="10"
     gridtolerance="10"
     guidetolerance="10"
     inkscape:pageopacity="0"
     inkscape:pageshadow="2"
     inkscape:window-width="1366"
     inkscape:window-height="705"
     id="namedview6"
     showgrid="false"
     inkscape:zoom="32.625"
     inkscape:cx="3.2950192"
     inkscape:cy="8"
     inkscape:window-x="0"
     inkscape:window-y="30"
     inkscape:window-maximized="1"
     inkscape:current-layer="svg4" />
  <g
     id="g813">
    <path
       style="stroke-width:0.03645923;fill:#666666;fill-opacity:1"
       inkscape:connector-curvature="0"
       id="path2"
       d="M 14.993051,14.646354 C 14.730538,13.486979 13.232027,12.921875 12.714293,12.739583 12.145515,12.539062 11.336101,12.491667 10.814721,12.375 10.515748,12.30938 10.081872,12.145312 9.9360319,11.970312 c -0.145841,-0.175 -0.05834,-1.797395 -0.05834,-1.797395 0,0 0.2698051,-0.419271 0.4156451,-0.791146 C 10.439182,9.013542 10.599606,8 10.599606,8 c 0,0 0.298973,0 0.404707,-0.525 0.113027,-0.572396 0.291682,-0.794792 0.269806,-1.221354 -0.02188,-0.419271 -0.251575,-0.408334 -0.251575,-0.408334 0,0 0.222406,-0.608854 0.247928,-1.870312 C 11.303292,2.476562 10.12927,1 8.0036449,1 c -2.154793,0 -3.303287,1.476562 -3.270473,2.975 0.02917,1.261458 0.244282,1.870312 0.244282,1.870312 0,0 -0.229698,-0.01094 -0.251574,0.408334 C 4.7039999,6.680208 4.8826579,6.902604 4.9956849,7.475 5.0977729,8 5.4003919,8 5.4003919,8 c 0,0 0.160425,1.013542 0.306265,1.381771 0.145841,0.371875 0.415646,0.791146 0.415646,0.791146 0,0 0.0875,1.622395 -0.05834,1.797395 -0.14584,0.175 -0.579716,0.339063 -0.878688,0.404688 -0.52138,0.116667 -1.330795,0.164062 -1.899573,0.364583 -0.517734,0.182292 -2.016245,0.747396 -2.278758,1.906771 C 0.96684088,14.828646 1.1053889,15 1.2949819,15 H 14.708662 c 0.185947,0 0.324496,-0.171354 0.284389,-0.353646 z" />
  </g>
</svg>
