<svg width="26" height="27" viewBox="0 0 26 27" fill="none" xmlns="http://www.w3.org/2000/svg">
<path fill-rule="evenodd" clip-rule="evenodd" d="M23 14.0263L23 18.2368L11.4211 18.2368L11.4211 14.0263L23 14.0263ZM23 7.71052L11.4211 7.71053L11.4211 3.5L21.9474 3.5C22.2265 3.5 22.4943 3.6109 22.6917 3.80831C22.8891 4.00571 23 4.27346 23 4.55263L23 7.71052ZM23 19.2895L23 22.4474C23 22.7265 22.8891 22.9943 22.6917 23.1917C22.4943 23.3891 22.2265 23.5 21.9474 23.5L11.4211 23.5L11.4211 19.2895L23 19.2895ZM10.3684 3.5L10.3684 7.71053L3 7.71053L3 4.55263C3 4.27346 3.1109 4.00571 3.30831 3.80831C3.50571 3.6109 3.77346 3.5 4.05263 3.5L10.3684 3.5ZM3 14.0263L3 18.2368L10.3684 18.2368L10.3684 14.0263L3 14.0263ZM3 22.4474L3 19.2895L10.3684 19.2895L10.3684 23.5L4.05263 23.5C3.77346 23.5 3.50572 23.3891 3.30831 23.1917C3.1109 22.9943 3 22.7265 3 22.4474Z" fill="white"/>
<path d="M3 8.76316L3 12.9737L10.3684 12.9737L10.3684 8.76316L3 8.76316Z" fill="white"/>
<path d="M11.4211 8.76316L11.4211 12.9737L23 12.9737L23 8.76316L11.4211 8.76316Z" fill="white"/>
</svg>
