<svg width="26" height="27" viewBox="0 0 26 27" fill="none" xmlns="http://www.w3.org/2000/svg">
<path d="M24.626 1.64732C24.9207 1.86161 25.0412 2.14732 24.9876 2.50446L21.5591 23.0759C21.5145 23.3348 21.3716 23.5357 21.1306 23.6786C21.0056 23.75 20.8672 23.7857 20.7154 23.7857C20.6172 23.7857 20.51 23.7634 20.394 23.7188L14.3271 21.2411L11.0861 25.192C10.9254 25.3973 10.7067 25.5 10.4299 25.5C10.3138 25.5 10.2156 25.4821 10.1352 25.4464C9.9656 25.3839 9.82944 25.279 9.72677 25.1317C9.62409 24.9844 9.57275 24.8214 9.57275 24.6429V19.9688L21.144 5.78571L6.82727 18.1741L1.53719 16.0045C1.20684 15.8795 1.02827 15.6339 1.00149 15.2679C0.983631 14.9107 1.12649 14.6473 1.43005 14.4777L23.7153 1.62054C23.8493 1.54018 23.9921 1.5 24.1439 1.5C24.3225 1.5 24.4832 1.54911 24.626 1.64732Z" fill="white"/>
</svg>
