<?xml version="1.0" encoding="UTF-8" standalone="no"?>
<svg
   height="128px"
   viewBox="0 0 128 128"
   width="128px"
   version="1.1"
   id="svg28"
   sodipodi:docname="handyfox.svg"
   inkscape:version="1.4.2 (ebf0e940d0, 2025-05-08)"
   xmlns:inkscape="http://www.inkscape.org/namespaces/inkscape"
   xmlns:sodipodi="http://sodipodi.sourceforge.net/DTD/sodipodi-0.dtd"
   xmlns="http://www.w3.org/2000/svg"
   xmlns:svg="http://www.w3.org/2000/svg">
  <defs
     id="defs28" />
  <sodipodi:namedview
     id="namedview28"
     pagecolor="#505050"
     bordercolor="#eeeeee"
     borderopacity="1"
     inkscape:showpageshadow="0"
     inkscape:pageopacity="0"
     inkscape:pagecheckerboard="0"
     inkscape:deskcolor="#505050"
     inkscape:zoom="2.5636263"
     inkscape:cx="19.893695"
     inkscape:cy="95.177679"
     inkscape:window-width="1280"
     inkscape:window-height="766"
     inkscape:window-x="0"
     inkscape:window-y="0"
     inkscape:window-maximized="0"
     inkscape:current-layer="svg28" />
  <linearGradient
     id="a"
     gradientUnits="userSpaceOnUse"
     x1="98"
     x2="108"
     y1="112"
     y2="112">
    <stop
       offset="0"
       stop-color="#16529c"
       id="stop1" />
    <stop
       offset="1"
       stop-color="#236ac0"
       id="stop2" />
  </linearGradient>
  <linearGradient
     id="b"
     gradientTransform="matrix(0 -1 1 0 -157 121)"
     gradientUnits="userSpaceOnUse"
     x1="0.999999"
     x2="0.999999"
     y1="215"
     y2="171">
    <stop
       offset="0"
       stop-color="#2166bb"
       id="stop3"
       style="stop-color:#6621bb;stop-opacity:1;" />
    <stop
       offset="1"
       stop-color="#89eda9"
       id="stop4"
       style="stop-color:#ed89a9;stop-opacity:1;" />
  </linearGradient>
  <filter
     id="c"
     height="1"
     width="1"
     x="0"
     y="0">
    <feColorMatrix
       in="SourceGraphic"
       type="matrix"
       values="0 0 0 0 1 0 0 0 0 1 0 0 0 0 1 0 0 0 1 0"
       id="feColorMatrix4" />
  </filter>
  <mask
     id="d">
    <g
       filter="url(#c)"
       id="g4">
      <rect
         fill-opacity="0.5"
         height="128"
         width="128"
         id="rect4" />
    </g>
  </mask>
  <clipPath
     id="e">
    <rect
       height="152"
       width="192"
       id="rect5" />
  </clipPath>
  <mask
     id="f">
    <g
       filter="url(#c)"
       id="g6">
      <rect
         fill-opacity="0.5"
         height="128"
         width="128"
         id="rect6" />
    </g>
  </mask>
  <clipPath
     id="g">
    <rect
       height="152"
       width="192"
       id="rect7" />
  </clipPath>
  <mask
     id="h">
    <g
       filter="url(#c)"
       id="g8">
      <rect
         fill-opacity="0.5"
         height="128"
         width="128"
         id="rect8" />
    </g>
  </mask>
  <clipPath
     id="i">
    <rect
       height="152"
       width="192"
       id="rect9" />
  </clipPath>
  <path
     d="m 64 5 c 33.136719 0 60 26.863281 60 60 s -26.863281 60 -60 60 s -60 -26.863281 -60 -60 s 26.863281 -60 60 -60 z m 0 0"
     fill="url(#a)"
     id="path9"
     style="fill:#6e26c6;fill-opacity:1" />
  <path
     d="m 64 5 c -33.136719 0 -60 26.863281 -60 60 s 26.863281 60 60 60 z m 0 0"
     fill="url(#b)"
     id="path10" />
  <path
     d="m 124 63 c 0 33.136719 -26.863281 60 -60 60 s -60 -26.863281 -60 -60 s 26.863281 -60 60 -60 s 60 26.863281 60 60 z m 0 0"
     fill="#40a1c8"
     id="path11"
     style="fill:#a140c8;fill-opacity:1" />
  <path
     d="m 28.003906 64 c 0.125 13.914062 2.882813 27.367188 7.835938 38.25 c -3.941406 2.015625 -7.28125 4.441406 -9.863282 7.160156 c -13.640624 -11.171875 -21.675781 -27.78125 -21.96875 -45.410156 z m 0 0"
     fill="#49bbb0"
     id="path12"
     style="fill:#bb49b0;fill-opacity:1" />
  <path
     d="m 64 96 v 27 c -4.5 0 -8.988281 -0.507812 -13.375 -1.511719 c -5.800781 -4.058593 -10.894531 -10.691406 -14.78125 -19.238281 c 7.902344 -4.039062 17.867188 -6.25 28.15625 -6.25 z m 0 0"
     fill="#378bde"
     id="path13"
     style="fill:#8b37de;fill-opacity:1" />
  <path
     d="m 99.996094 64 c -0.125 13.914062 -2.882813 27.367188 -7.839844 38.25 c 3.945312 2.015625 7.28125 4.441406 9.863281 7.160156 c 13.640625 -11.171875 21.675781 -27.78125 21.972657 -45.410156 z m 0 0"
     fill="#266ec6"
     id="path14"
     style="fill:#6e26c6;fill-opacity:1" />
  <path
     d="m 64 64 v 59 c 4.5 0 8.988281 -0.507812 13.375 -1.511719 c 13.472656 -9.433593 22.390625 -32.097656 22.621094 -57.488281 z m 0 0"
     fill="#378bde"
     id="path15"
     style="fill:#8b37de;fill-opacity:1" />
  <path
     d="m 64 96 v 27 c 4.5 0 8.988281 -0.507812 13.375 -1.511719 c 5.800781 -4.058593 10.894531 -10.691406 14.78125 -19.238281 c -7.902344 -4.039062 -17.867188 -6.25 -28.15625 -6.25 z m 0 0"
     fill="#266ec6"
     id="path16"
     style="fill:#6e26c6;fill-opacity:1" />
  <path
     d="m 92.160156 102.25 c -3.890625 8.546875 -8.984375 15.175781 -14.78125 19.238281 c 9.035156 -2.066406 17.472656 -6.203125 24.644532 -12.078125 c -2.582032 -2.71875 -5.921876 -5.144531 -9.863282 -7.160156 z m 0 0"
     fill="#1e62b5"
     id="path17"
     style="fill:#621eb5;fill-opacity:1" />
  <path
     d="m 64 3 c -33.136719 0 -60 26.863281 -60 60 c 0 0.332031 0.003906 0.667969 0.007812 1 h 59.992188 z m 0 0"
     fill="#53d795"
     id="path18"
     style="fill:#d75395;fill-opacity:1" />
  <path
     d="m 50.625 4.507812 c -9.039062 2.070313 -17.476562 6.203126 -24.648438 12.078126 c 2.582032 2.722656 5.921876 5.144531 9.867188 7.164062 c 3.890625 -8.550781 8.984375 -15.179688 14.78125 -19.242188 z m 0 0"
     fill="#72e99a"
     id="path19"
     style="fill:#e9729a;fill-opacity:1" />
  <path
     d="m 64 3 c -4.5 0 -8.984375 0.507812 -13.375 1.507812 c -13.664062 9.570313 -22.625 32.734376 -22.625 58.492188 c 0 0.332031 0 0.667969 0.003906 1 h 35.996094 z m 0 0"
     fill="#49bbb0"
     id="path20"
     style="fill:#bb49b0;fill-opacity:1" />
  <path
     d="m 64 3 c -4.5 0 -8.984375 0.507812 -13.375 1.507812 c -5.796875 4.0625 -10.890625 10.691407 -14.78125 19.242188 c 7.90625 4.039062 17.867188 6.25 28.15625 6.25 z m 0 0"
     fill="#53d795"
     id="path21"
     style="fill:#d75395;fill-opacity:1" />
  <path
     d="m 64 3 c 33.136719 0 60 26.863281 60 60 c 0 0.332031 -0.003906 0.667969 -0.007812 1 h -59.992188 z m 0 0"
     fill="#378bde"
     id="path22"
     style="fill:#8b37de;fill-opacity:1" />
  <path
     d="m 77.375 4.507812 c 9.039062 2.070313 17.476562 6.203126 24.648438 12.078126 c -2.582032 2.722656 -5.921876 5.144531 -9.863282 7.160156 c -3.894531 -8.546875 -8.988281 -15.175782 -14.785156 -19.238282 z m 0 0"
     fill="#40a1c8"
     id="path23"
     style="fill:#a140c8;fill-opacity:1" />
  <path
     d="m 64 3 c 4.5 0 8.988281 0.507812 13.375 1.507812 c 13.664062 9.570313 22.625 32.734376 22.625 58.492188 c 0 0.332031 0 0.667969 -0.003906 1 h -35.996094 z m 0 0"
     fill="#40a1c8"
     id="path24"
     style="fill:#a140c8;fill-opacity:1" />
  <path
     d="m 64 3 c 4.5 0 8.988281 0.507812 13.375 1.507812 c 5.796875 4.0625 10.890625 10.691407 14.78125 19.238282 c -7.90625 4.042968 -17.867188 6.253906 -28.15625 6.253906 z m 0 0"
     fill="#49bbb0"
     id="path25"
     style="fill:#bb49b0;fill-opacity:1" />
  <g
     clip-path="url(#e)"
     mask="url(#d)"
     transform="matrix(1 0 0 1 -8 -16)"
     id="g26">
    <path
       d="m 169.5 24 v 1 h 13 v -1 z m 0 0"
       fill="#2e3436"
       id="path26" />
  </g>
  <g
     clip-path="url(#g)"
     mask="url(#f)"
     transform="matrix(1 0 0 1 -8 -16)"
     id="g27">
    <path
       d="m 169.5 21 v 1 h 13 v -1 z m 0 0"
       fill="#2e3436"
       id="path27" />
  </g>
  <g
     clip-path="url(#i)"
     mask="url(#h)"
     transform="matrix(1 0 0 1 -8 -16)"
     id="g28">
    <path
       d="m 169.5 27 v 1 h 13 v -1 z m 0 0"
       fill="#2e3436"
       id="path28" />
  </g>
</svg>
