<svg enable-background="new 0 0 128 128" viewBox="0 0 128 128" xmlns="http://www.w3.org/2000/svg" xmlns:xlink="http://www.w3.org/1999/xlink"><linearGradient id="a" gradientTransform="matrix(1 0 0 -1 0 128)" gradientUnits="userSpaceOnUse" x1="31.55" x2="31.55" y1="92.279" y2="28.125"><stop offset="0" stop-color="#8bc34a"/><stop offset=".3346" stop-color="#87bf48"/><stop offset=".664" stop-color="#7cb342"/><stop offset=".9904" stop-color="#69a038"/><stop offset=".998" stop-color="#689f38"/></linearGradient><linearGradient id="b" gradientTransform="matrix(1 0 0 -1 0 128)" gradientUnits="userSpaceOnUse" x1="93.56" x2="93.56" y1="93.192" y2="35.85"><stop offset="0" stop-color="#03a9f4"/><stop offset=".998" stop-color="#0288d1"/></linearGradient><path d="m39.74 30.96c1.53.75 3.38.21 4.29-1.23v-.01c.73-1.17 1.57-2.26 2.52-3.28 1.17-1.26 2.49-2.38 3.91-3.35 1.4-.95 2.91-1.76 4.49-2.38 1.57-.63 3.22-1.08 4.89-1.36 1.68-.28 3.4-.37 5.1-.27 1.74.1 3.46.4 5.13.89.85.25 1.67.57 2.48.91l-1.02 2.09-3.51 7.18c-.86 1.77.76 3.72 2.66 3.21l18.36-6.3c1.34-.36 2.05-1.82 1.51-3.09l-6.3-18.35c-.76-1.81-3.3-1.89-4.16-.12l-3.51 7.19-.59 1.2c-14.09-6.11-30.45-.96-38.53 11.86-1.05 1.67-.4 3.89 1.37 4.76z" fill="#b0bec5"/><path d="m89.3 101.46c-1.48-.97-3.45-.67-4.57.7v.01c-.91 1.11-1.91 2.12-3.02 3.04-1.37 1.14-2.87 2.12-4.46 2.93-1.57.8-3.23 1.42-4.93 1.86s-3.45.69-5.21.75c-1.77.06-3.54-.07-5.28-.4-1.77-.33-3.51-.87-5.16-1.59-.84-.37-1.65-.8-2.44-1.27l1.33-2.01 4.55-6.93c1.12-1.7-.29-3.93-2.31-3.65l-19.71 4.06c-1.42.2-2.35 1.6-1.96 2.98l4.06 19.71c.54 1.96 3.15 2.37 4.27.67l4.56-6.93.76-1.16c13.67 8.15 31.18 5.01 41.18-7.12 1.3-1.58.92-3.95-.79-5.08 0 0-.87-.57-.87-.57z" fill="#b0bec5"/><path d="m38.68 75.69c0-1.9-.53-3.42-1.59-4.55s-2.85-2.17-5.38-3.12-4.72-1.9-6.55-2.84c-1.84-.94-3.41-2.02-4.72-3.24s-2.34-2.65-3.07-4.3-1.1-3.61-1.1-5.89c0-3.93 1.25-7.14 3.76-9.65s5.84-3.97 10-4.39v-7.46h5.58v7.56c4.11.58 7.33 2.29 9.65 5.14s3.49 6.53 3.49 11.06h-10.07c0-2.79-.58-4.87-1.73-6.26-1.15-1.38-2.69-2.07-4.62-2.07-1.91 0-3.38.54-4.43 1.62s-1.57 2.57-1.57 4.48c0 1.77.51 3.18 1.53 4.25s2.92 2.16 5.7 3.28c2.78 1.11 5.06 2.17 6.85 3.15 1.79.99 3.3 2.1 4.53 3.35 1.23 1.24 2.17 2.66 2.82 4.25s.98 3.44.98 5.56c0 3.95-1.23 7.16-3.69 9.62s-5.85 3.91-10.18 4.36v6.93h-5.54v-6.9c-4.76-.51-8.45-2.2-11.06-5.07s-3.92-6.69-3.92-11.45h10.07c0 2.76.66 4.88 1.97 6.36s3.2 2.21 5.66 2.21c2.04 0 3.66-.54 4.84-1.62 1.2-1.07 1.79-2.53 1.79-4.37z" fill="url(#a)"/><path d="m93.62 58.1 8.96-22.57h12.53l-12.89 28.57h8.72v7h-11.52v4.6h11.53v6.96h-11.53v11.12h-12v-11.11h-12.25v-6.97h12.25v-4.6h-12.25v-7h9.76l-12.92-28.57h12.6z" fill="url(#b)"/></svg>