<?xml version="1.0" encoding="UTF-8" standalone="no"?>
<svg
   xmlns:dc="http://purl.org/dc/elements/1.1/"
   xmlns:cc="http://creativecommons.org/ns#"
   xmlns:rdf="http://www.w3.org/1999/02/22-rdf-syntax-ns#"
   xmlns:svg="http://www.w3.org/2000/svg"
   xmlns="http://www.w3.org/2000/svg"
   xmlns:sodipodi="http://sodipodi.sourceforge.net/DTD/sodipodi-0.dtd"
   xmlns:inkscape="http://www.inkscape.org/namespaces/inkscape"
   inkscape:version="1.0beta2 (2b71d25d45, 2019-12-03)"
   sodipodi:docname="org.firestormviewer.FirestormViewer-symbolic.svg"
   id="svg148"
   height="16px"
   width="16px"
   viewBox="0 0 210 210"
   version="1.1">
  <style
     id="style839" />
  <metadata
     id="metadata154">
    <rdf:RDF>
      <cc:Work
         rdf:about="">
        <dc:format>image/svg+xml</dc:format>
        <dc:type
           rdf:resource="http://purl.org/dc/dcmitype/StillImage" />
        <dc:title />
      </cc:Work>
    </rdf:RDF>
  </metadata>
  <defs
     id="defs152" />
  <sodipodi:namedview
     inkscape:document-rotation="0"
     inkscape:current-layer="svg148"
     inkscape:window-maximized="0"
     inkscape:window-y="159"
     inkscape:window-x="0"
     inkscape:cy="12.533512"
     inkscape:cx="-26.172542"
     inkscape:zoom="14.75"
     showgrid="false"
     id="namedview150"
     inkscape:window-height="1166"
     inkscape:window-width="1916"
     inkscape:pageshadow="2"
     inkscape:pageopacity="0"
     guidetolerance="10"
     gridtolerance="10"
     objecttolerance="10"
     borderopacity="1"
     bordercolor="#666666"
     pagecolor="#ffffff" />
  <g
     transform="matrix(1.0875092,0,0,1.0829035,-9.1884663,-8.7048628)"
     style="fill:#ffffff;stroke:#ffffff;stroke-width:6.14400663;stroke-linecap:round;stroke-miterlimit:4;stroke-dasharray:none;stroke-opacity:1;fill-opacity:1"
     id="g144">
    <path
       style="stroke-opacity:1;stroke-dasharray:none;stroke-miterlimit:4;stroke-linecap:round;stroke-width:6.14400663;stroke:#ffffff;fill-opacity:1;fill:#ffffff"
       id="path142"
       d="M 105,8.4 C 83.48666,8.4 63.63044,15.51243 47.56992,27.42305 46.22286,23.80666 45.33038,20.14243 45.39609,16.8 c 0.03142,-1.53286 -0.77482,-2.96107 -2.10346,-3.72615 -1.32864,-0.76508 -2.96859,-0.74547 -4.27857,0.05115 -3.84018,2.33379 -6.54561,5.85638 -8.57227,9.67148 -0.63749,-1.02729 -0.97889,-1.34313 -1.54219,-2.3707 -1.97086,-3.59527 -3.51914,-6.825 -3.51914,-6.825 -0.68495,-1.42427 -2.11139,-2.34353 -3.69141,-2.37891 -1.67512,-0.03852 -3.2129,0.92219 -3.91289,2.44453 0,0 -2.76032,5.93436 -3.64219,13.51875 -0.66998,5.76211 -0.17508,12.93805 3.675,19.06406 -0.02125,0.0023 -0.02801,0.0057 -0.04922,0.0082 -2.20191,0.23021 -4.04414,0.20508 -4.04414,0.20508 -1.6749,-0.02494 -3.2045,0.94764 -3.89242,2.47495 -0.68791,1.52731 -0.40261,3.31734 0.72601,4.55513 0,0 2.17932,2.38219 5.34844,4.93828 1.02203,0.82433 2.31145,1.64347 3.53555,2.46914 -1.26192,1.28112 -2.68949,2.54308 -2.92031,4.25742 -0.05592,0.41536 -0.05193,0.80329 -0.05742,1.19766 -5.17294,11.83783 -8.05547,24.91734 -8.05547,38.64492 0,53.29996 43.30004,96.6 96.6,96.6 53.29996,0 96.6,-43.30004 96.6,-96.6 0,-30.04499 -13.74035,-56.93515 -35.28164,-74.64844 l -0.49219,0.59883 c -1.03014,-11.15046 -6.47227,-17.67773 -6.47227,-17.67773 -0.95352,-1.08502 -2.39766,-1.60398 -3.82371,-1.37408 -1.42605,0.2299 -2.63393,1.17641 -3.19817,2.50611 0,0 -1.40306,2.95377 -2.41992,5.10234 C 136.48806,12.4425 121.20803,8.39999 104.99998,8.39999 Z m 0,8.4 c 14.8954,0 28.87124,3.72386 41.16328,10.2293 -1.97502,3.83891 -4.14383,7.90589 -6.44766,11.68125 -0.83775,-1.08217 -1.17176,-2.1702 -2.83008,-2.94492 -1.2386,-0.57668 -2.68028,-0.51492 -3.86503,0.16557 -1.18474,0.68049 -1.9645,1.89468 -2.09044,3.25513 -0.30769,3.3486 -1.63069,7.01812 -2.8875,10.04062 -1.05302,-0.58621 -2.30712,-0.69187 -3.44338,-0.2901 -1.13626,0.40177 -2.0452,1.27226 -2.49568,2.3901 l -5.10234,12.64922 c -0.0566,0.13675 -0.10584,0.2764 -0.14766,0.41836 0,0 -0.0983,0.20315 -0.36914,0.41836 -0.25613,0.20354 -0.58152,0.70495 -3.02695,-0.17227 -0.78606,-0.60454 -1.5859,-1.0673 -2.27227,-1.29609 -0.26119,-0.08706 -0.49886,-0.11508 -0.75469,-0.16406 -2.71299,-1.41802 -6.9466,-3.3009 -12.88711,-2.92852 -5.01372,0.31429 -9.25552,2.85815 -12.54258,5.11055 -1.54627,1.05956 -1.66892,1.28368 -2.64961,2.1 C 80.57866,66.00453 77.57068,63.55544 72.33514,59.02148 65.75704,53.32486 58.30979,46.29905 56.80663,44.22304 55.11688,41.88936 53.05987,38.74355 51.15468,35.23241 66.05651,23.70825 84.68253,16.79999 104.99999,16.79999 Z m -66.79805,9.35977 c 2.45585,9.54146 8.1367,17.93944 11.79609,22.99336 3.15883,4.3626 10.14523,10.42615 16.83281,16.21758 6.68759,5.79143 12.78047,10.7625 12.78047,10.7625 1.63691,1.33614 4.01157,1.24832 5.54531,-0.20508 0,0 1.87815,-1.77878 4.58555,-3.63398 2.7074,-1.8552 6.2377,-3.52768 8.32617,-3.65859 5.02499,-0.315 7.03793,1.3986 10.45078,3.01055 0.23622,0.33342 0.68086,1.1628 0.68086,3.95391 v 4.2 h 4.2 c 2.1,0 4.84054,0.19408 5.96367,0.67266 0.56157,0.23927 0.58004,0.33917 0.59883,0.37734 0.0189,0.03822 0.22193,0.38762 -0.13125,1.73906 -0.5867,2.24484 0.7575,4.54026 3.00234,5.12695 2.24484,0.5867 4.54026,-0.7575 5.12695,-3.00234 0.69891,-2.67424 0.63628,-5.3452 -0.45938,-7.57148 -1.09566,-2.22629 -3.03943,-3.62973 -4.83984,-4.39688 -0.82193,-0.35022 -1.54864,-0.51118 -2.24766,-0.61523 0.44553,-0.23738 0.92928,-0.44682 1.29609,-0.73828 2.47912,-1.96986 3.22383,-4.68398 3.22383,-4.68399 l -0.14766,0.41016 2.40351,-5.95547 c 1.94414,0.86422 4.22742,0.13837 5.31562,-1.68984 0,0 2.5353,-5.22483 4.57734,-11.51719 0.89203,0.81198 1.93969,1.79647 3.53555,1.81289 1.38461,0.01105 2.68572,-0.66098 3.47813,-1.79648 4.8836,-6.97694 8.95863,-15.07462 11.97656,-21.525 0.82957,2.78821 1.78513,5.59885 1.48477,10.18828 -0.50543,7.67821 -4.65117,14.175 -4.65117,14.175 -0.68937,1.0478 -0.87443,2.34885 -0.50457,3.54732 0.36986,1.19847 1.25594,2.16896 2.4159,2.64604 0,0 1.60499,0.50022 3.08437,0.90234 -1.07115,1.29709 -2.17687,2.62516 -3.43711,3.88008 -3.41617,3.40174 -6.75938,6.07031 -6.75938,6.07031 -1.18834,0.95297 -1.76763,2.4746 -1.5139,3.97657 0.25373,1.50197 1.30072,2.74887 2.73616,3.25859 -6.08562,5.90877 -15.37878,13.62811 -21.37734,15.27422 -0.15364,0.04217 -2.73359,0.39719 -5.60274,0.74648 -2.86915,0.34931 -6.34982,0.81597 -9.77813,1.62422 -3.4283,0.80825 -6.817,1.8853 -9.69609,3.95391 -2.8791,2.06861 -5.22144,5.94731 -4.60196,10.10625 0.64242,4.31462 3.71478,7.31464 6.98906,9.35977 3.27428,2.04512 7.05792,3.39221 10.71328,4.41328 0.67715,0.18917 0.65497,0.0807 1.3207,0.24609 l -2.91211,1.40273 c -1.15965,0.56023 -1.99819,1.62149 -2.27503,2.87927 -0.27684,1.25778 0.0386,2.57304 0.85589,3.56839 0,0 4.89205,5.1443 8.19492,8.81016 -1.47752,-0.39165 -2.9698,-0.73415 -4.39687,-1.40273 -4.18574,-1.96103 -7.29258,-4.42969 -7.29258,-4.42969 -1.10921,-0.88764 -2.59194,-1.15446 -3.94101,-0.70918 -1.34907,0.44528 -2.38165,1.5423 -2.74454,2.91582 l -4.50351,16.96406 c -2.10681,-3.15961 -4.42049,-7.13844 -5.58633,-12.12422 -0.42844,-1.83822 -2.0304,-3.16493 -3.91627,-3.24335 -1.88586,-0.0784 -3.59244,1.11071 -4.17201,2.90702 -1.14392,3.52786 -4.78681,8.10051 -8.24414,11.56641 0.1966,-5.86195 0.53197,-11.0287 0.15586,-15.4875 -0.12903,-1.52279 -1.07493,-2.85534 -2.46991,-3.4795 -1.39497,-0.62416 -3.01888,-0.44142 -4.24025,0.47716 -1.24871,0.93672 -3.83855,1.37618 -6.02109,2.05898 l 5.49609,-5.60273 c 0.8815,-0.89647 1.31508,-2.14067 1.18164,-3.39083 -0.13344,-1.25016 -0.81985,-2.37481 -1.87071,-3.06503 0,0 -4.12366,-1.91988 -5.55352,-2.73984 2.17858,-0.70222 4.06498,-0.89713 6.11953,-1.78828 2.85088,-1.23656 5.37384,-2.50995 7.40742,-4.4625 1.01679,-0.97628 2.04729,-2.21154 2.41172,-4.11797 0.36443,-1.90643 -0.46564,-4.19451 -1.70625,-5.49609 C 71.206,96.88235 59.5671,90.62663 48.56243,89.34848 44.8668,88.91924 45.12597,88.54105 42.91048,87.89652 c 1.86095,-0.70969 2.96766,-2.62871 2.6499,-4.59487 -0.31776,-1.96616 -1.97264,-3.43887 -3.9624,-3.52622 0.62777,0.0273 -0.33712,-0.08522 -1.38633,-0.55781 -1.0492,-0.4726 -2.43153,-1.20547 -3.89648,-2.1 -2.92992,-1.78906 -6.24029,-4.26229 -8.53125,-6.58711 -2.20136,-2.23389 -2.81721,-4.22376 -2.8957,-4.15899 0.04789,-0.0257 0.02742,-0.0033 0.18047,-0.09844 0.57425,-0.35671 2.08004,-0.94273 4.56914,-1.27969 2.02915,-0.27554 3.56388,-1.97415 3.63284,-4.02076 0.06896,-2.04661 -1.34794,-3.84468 -3.35393,-4.25619 -1.8889,-0.38892 -4.26097,-2.06127 -6.47227,-3.56836 1.42694,-0.3827 2.78192,-0.27035 4.1918,-1.27149 1.06186,-0.75274 1.71477,-1.95523 1.76775,-3.25576 0.05298,-1.30053 -0.49994,-2.55214 -1.49705,-3.38877 -5.40215,-4.52218 -6.1383,-10.98304 -5.43047,-17.0707 0.1073,-0.92278 0.27904,-0.81035 0.44297,-1.66523 1.70953,3.09424 3.35615,6.31091 5.7832,8.48203 1.16,1.03301 2.7954,1.34154 4.25204,0.80217 1.45664,-0.53937 2.49672,-1.83858 2.70421,-3.37795 0.23321,-1.74559 1.25016,-4.06646 2.54297,-6.24258 z m 127.2961,14.7 C 182.54454,56.94048 193.2,79.6911 193.2,105 c 0,48.76004 -39.43996,88.2 -88.2,88.2 -48.76004,0 -88.2,-39.43996 -88.2,-88.2 0,-10.08617 1.71159,-19.75298 4.82344,-28.76836 0.05956,0.06078 0.11262,0.12815 0.17227,0.18867 3.00314,3.04752 6.72573,5.77755 10.14727,7.8668 0.14019,0.0856 0.25472,0.12996 0.39375,0.21328 -1.16914,1.04341 -2.39531,2.20664 -2.39531,2.20664 -0.89909,0.96214 -1.29493,2.29022 -1.0693,3.58759 0.22563,1.29736 1.04661,2.41383 2.21774,3.01593 0,0 6.32739,3.19841 16.50469,4.38047 7.24452,0.84142 16.77189,6.06056 21.15586,9.60586 -0.92942,0.60761 -1.71327,1.20167 -3.33047,1.90313 -4.78983,2.07757 -11.55093,3.88775 -14.83125,4.35586 -1.88924,0.27137 -3.35802,1.78236 -3.57577,3.67853 -0.21775,1.89617 0.87028,3.70077 2.64882,4.39334 5.7521,2.24563 6.96228,3.22125 9.17109,4.49531 l -10.90195,11.09883 c -1.19718,1.2173 -1.53841,3.03814 -0.86325,4.60633 0.67517,1.56819 2.23238,2.57167 3.93942,2.53859 0,0 3.82592,-0.0658 8.53125,-0.82031 2.5441,-0.40799 5.3482,-1.05819 8.1293,-2.01797 -0.03192,7.44132 -0.19687,17.62851 -0.19687,17.62851 -0.06631,1.61727 0.80254,3.12874 2.23345,3.88535 1.4309,0.75661 3.16923,0.62372 4.4685,-0.3416 0,0 3.57754,-2.65281 7.53867,-6.57891 1.87733,-1.86073 3.86405,-4.0363 5.66836,-6.41484 4.05318,8.40804 9.49922,13.47774 9.49922,13.47774 1.07824,1.01053 2.60818,1.38012 4.02882,0.97326 1.42064,-0.40686 2.52298,-1.53031 2.90282,-2.95842 l 5.2582,-19.79414 c 1.50124,0.9601 1.57158,1.26811 3.73242,2.28047 5.19809,2.43531 12.29089,4.68598 19.11328,1.63242 1.28956,-0.57657 2.20296,-1.76272 2.4309,-3.1568 0.22794,-1.39408 -0.2601,-2.80937 -1.29887,-3.76664 -4.75682,-4.38796 -7.80736,-8.17131 -10.29492,-11.08242 l 9.28594,-4.47891 c 1.69884,-0.81982 2.64282,-2.67159 2.30825,-4.52799 -0.33457,-1.8564 -1.86563,-3.2621 -3.7438,-3.43725 0,0 -6.3742,-0.5999 -12.77226,-2.38711 -3.19904,-0.8936 -6.36516,-2.1057 -8.52305,-3.45352 -2.15789,-1.34782 -2.99901,-2.56604 -3.13359,-3.46992 -0.1575,-1.05746 -0.0961,-1.11304 1.19766,-2.04258 1.29374,-0.92954 3.84174,-1.92027 6.72656,-2.60039 2.88482,-0.68012 6.09284,-1.12236 8.86758,-1.46016 2.77473,-0.33781 4.79713,-0.44045 6.80859,-0.99258 11.95215,-3.27987 24.85739,-15.67407 30.36797,-22.43555 1.36321,-1.67131 1.23912,-4.10345 -0.28711,-5.62734 -0.5631,-0.5631 -1.02283,-0.41656 -1.575,-0.76289 0.97537,-0.88684 1.03654,-0.82781 2.11641,-1.90313 1.89972,-1.8917 3.85229,-4.0048 5.48789,-6.22617 1.63559,-2.22137 3.07367,-4.45817 3.47813,-7.38281 0.22863,-1.65147 -0.54111,-3.28183 -1.96156,-4.15472 -1.42045,-0.87289 -3.22269,-0.82306 -4.59274,0.12698 0.016,-0.01092 -0.12308,2.6e-4 -0.11484,-0.0082 1.06135,-2.4584 2.17608,-5.62755 2.80547,-9.22851 z"
       inkscape:connector-curvature="0" />
  </g>
</svg>
