<?xml version="1.0" encoding="UTF-8"?>
<svg version="1.1" xmlns="http://www.w3.org/2000/svg" width="64" height="64">
<path d="M0 0 C2.97 0 5.94 0 9 0 C9 15.18 9 30.36 9 46 C0.42 46 -8.16 46 -17 46 C-17 42.7 -17 39.4 -17 36 C-11.39 36 -5.78 36 0 36 C0 24.12 0 12.24 0 0 Z " fill="#2e3436" transform="translate(52,17)"/>
<path d="M0 0 C8.58 0 17.16 0 26 0 C26 3.3 26 6.6 26 10 C20.39 10 14.78 10 9 10 C9 21.88 9 33.76 9 46 C6.03 46 3.06 46 0 46 C0 30.82 0 15.64 0 0 Z " fill="#2e3436" transform="translate(3,1)"/>
</svg>
