<?xml version="1.0" encoding="UTF-8" standalone="no"?>
<svg
   xmlns:dc="http://purl.org/dc/elements/1.1/"
   xmlns:cc="http://creativecommons.org/ns#"
   xmlns:rdf="http://www.w3.org/1999/02/22-rdf-syntax-ns#"
   xmlns:svg="http://www.w3.org/2000/svg"
   xmlns="http://www.w3.org/2000/svg"
   xmlns:sodipodi="http://sodipodi.sourceforge.net/DTD/sodipodi-0.dtd"
   xmlns:inkscape="http://www.inkscape.org/namespaces/inkscape"
   viewBox="0 0 16 16"
   version="1.1"
   id="svg6"
   sodipodi:docname="byte-album-symbolic.svg"
   width="16"
   height="16"
   inkscape:version="0.92.3 (2405546, 2018-03-11)">
  <metadata
     id="metadata12">
    <rdf:RDF>
      <cc:Work
         rdf:about="">
        <dc:format>image/svg+xml</dc:format>
        <dc:type
           rdf:resource="http://purl.org/dc/dcmitype/StillImage" />
        <dc:title />
      </cc:Work>
    </rdf:RDF>
  </metadata>
  <defs
     id="defs10" />
  <sodipodi:namedview
     pagecolor="#ffffff"
     bordercolor="#666666"
     borderopacity="1"
     objecttolerance="10"
     gridtolerance="10"
     guidetolerance="10"
     inkscape:pageopacity="0"
     inkscape:pageshadow="2"
     inkscape:window-width="1366"
     inkscape:window-height="705"
     id="namedview8"
     showgrid="false"
     inkscape:zoom="11.53468"
     inkscape:cx="-14.020049"
     inkscape:cy="3.7464256"
     inkscape:window-x="0"
     inkscape:window-y="30"
     inkscape:window-maximized="1"
     inkscape:current-layer="svg6" />
  <g
     id="g818">
    <path
       style="fill:#666666;fill-opacity:1;stroke-width:0.03365385"
       inkscape:connector-curvature="0"
       id="path2"
       d="m 8,4.964423 c -1.679327,0 -3.038942,1.359615 -3.038942,3.038942 0,1.679327 1.359615,3.035577 3.038942,3.035577 1.679327,0 3.038942,-1.359615 3.038942,-3.035577 C 11.038942,6.324038 9.679327,4.964423 8,4.964423 Z M 8,9.359615 C 7.249519,9.359615 6.640385,8.750481 6.640385,8 6.640385,7.249519 7.249519,6.640385 8,6.640385 8.750481,6.640385 9.359615,7.249519 9.359615,8 9.359615,8.750481 8.750481,9.359615 8,9.359615 Z" />
    <path
       style="fill:#666666;fill-opacity:1;stroke-width:0.03365385"
       inkscape:connector-curvature="0"
       id="path4"
       d="M 8,1 C 4.133173,1 1,4.133173 1,8 c 0,3.866827 3.133173,7 7,7 3.866827,0 7,-3.133173 7,-7 C 15,4.133173 11.866827,1 8,1 Z M 8,11.836538 C 5.879808,11.836538 4.163462,10.116827 4.163462,8 4.163462,5.879808 5.883173,4.163462 8,4.163462 c 2.116827,0 3.836538,1.716346 3.836538,3.836538 0,2.120192 -1.716346,3.836538 -3.836538,3.836538 z" />
  </g>
</svg>
