<?xml version="1.0" encoding="UTF-8" standalone="no"?>
<svg
   xmlns:dc="http://purl.org/dc/elements/1.1/"
   xmlns:cc="http://creativecommons.org/ns#"
   xmlns:rdf="http://www.w3.org/1999/02/22-rdf-syntax-ns#"
   xmlns:svg="http://www.w3.org/2000/svg"
   xmlns="http://www.w3.org/2000/svg"
   xmlns:sodipodi="http://sodipodi.sourceforge.net/DTD/sodipodi-0.dtd"
   xmlns:inkscape="http://www.inkscape.org/namespaces/inkscape"
   version="1.1"
   id="Capa_1"
   x="0px"
   y="0px"
   viewBox="0 0 128 128"
   xml:space="preserve"
   width="128"
   height="128"
   class=""
   sodipodi:docname="playlist-default-cover.svg"
   inkscape:version="0.92.3 (2405546, 2018-03-11)"><metadata
   id="metadata15"><rdf:RDF><cc:Work
       rdf:about=""><dc:format>image/svg+xml</dc:format><dc:type
         rdf:resource="http://purl.org/dc/dcmitype/StillImage" /><dc:title /></cc:Work></rdf:RDF></metadata><defs
   id="defs13" /><sodipodi:namedview
   pagecolor="#ffffff"
   bordercolor="#666666"
   borderopacity="1"
   objecttolerance="10"
   gridtolerance="10"
   guidetolerance="10"
   inkscape:pageopacity="0"
   inkscape:pageshadow="2"
   inkscape:window-width="1366"
   inkscape:window-height="705"
   id="namedview11"
   showgrid="false"
   inkscape:zoom="4.078125"
   inkscape:cx="-11.279694"
   inkscape:cy="64"
   inkscape:window-x="0"
   inkscape:window-y="30"
   inkscape:window-maximized="1"
   inkscape:current-layer="Capa_1" /> <rect
   style="opacity:1;fill:#fe2851;fill-opacity:1;fill-rule:evenodd;stroke:none;stroke-width:0.7497772;stroke-miterlimit:4;stroke-dasharray:none;stroke-opacity:1"
   id="rect817"
   width="128"
   height="128"
   x="0"
   y="0"
   ry="0" /><path
   style="opacity:1;vector-effect:none;fill:#ffffff;fill-opacity:1;stroke:none;stroke-width:4.26703644;stroke-linecap:butt;stroke-linejoin:round;stroke-miterlimit:4;stroke-dasharray:none;stroke-dashoffset:0;stroke-opacity:1;marker:none;paint-order:normal"
   d="m 80.72923,34.15306 c -1.93178,-0.2253 -2.20141,1.402668 -2.00018,2.700232 -0.0171,12.911967 0.0388,25.832149 -0.0252,38.736696 -0.4718,0.444156 -1.37403,-0.281112 -1.97517,-0.0917 -6.54866,-0.359711 -13.70488,3.918185 -14.35957,10.092545 -0.77157,4.909012 4.98391,8.947544 10.11754,8.184044 6.46878,-0.618593 11.5193,-6.502776 10.67592,-12.309403 0.0171,-10.223696 -0.0388,-20.461353 0.0252,-30.677663 0.44092,-0.454994 1.10229,0.519226 1.5668,0.566718 5.20195,2.773232 8.14843,7.347756 8.45907,13.042799 0.34137,4.450093 -1.15095,8.800665 -2.83358,12.926121 5.63808,-6.25309 7.44313,-15.374453 3.52531,-22.760309 -2.00371,-4.287348 -4.87199,-6.927026 -7.40064,-10.909281 -1.86738,-2.66118 -3.28899,-5.634024 -3.73365,-8.775758 -0.36611,-0.655118 -1.32874,-0.732104 -2.04185,-0.725064 z m -46.59571,4.242036 c -1.18197,0 -2.13352,0.951549 -2.13352,2.133518 0,1.181969 0.95155,2.133519 2.13352,2.133519 h 29.86926 c 1.18196,0 2.13351,-0.95155 2.13351,-2.133519 0,-1.181969 -0.95155,-2.133518 -2.13351,-2.133518 z m 0,12.80111 c -1.18197,0 -2.13352,0.951549 -2.13352,2.133518 0,1.181969 0.95155,2.133518 2.13352,2.133518 h 29.86926 c 1.18196,0 2.13351,-0.951549 2.13351,-2.133518 0,-1.181969 -0.95155,-2.133518 -2.13351,-2.133518 z m 0,12.80111 c -1.18197,0 -2.13352,0.951549 -2.13352,2.133518 0,1.181969 0.95155,2.133518 2.13352,2.133518 h 29.86926 c 1.18196,0 2.13351,-0.951549 2.13351,-2.133518 0,-1.181969 -0.95155,-2.133518 -2.13351,-2.133518 z m 0,12.80111 c -1.18197,0 -2.13352,0.951549 -2.13352,2.133518 0,1.181969 0.95155,2.133518 2.13352,2.133518 h 17.06814 c 1.18197,0 2.13352,-0.951549 2.13352,-2.133518 0,-1.181969 -0.95155,-2.133518 -2.13352,-2.133518 z"
   id="rect831"
   inkscape:connector-curvature="0" /></svg>