<svg xmlns="http://www.w3.org/2000/svg" viewBox="0 0 512 512" width="512" height="512">
  <!-- Palette (rahatça değiştir) -->
  <defs>
    <style>
      :root {
        --folder:#1f7bd9;      /* klasör gövdesi */
        --folder-dark:#0f4f9c; /* kenar/gölge */
        --zip:#0c2e57;         /* fermuar rengi */
        --bolt:#ffc72c;        /* şimşek */
      }
    </style>
  </defs>

  <!-- KLASÖR GÖVDESİ (arka plan yok!) -->
  <path d="M64 144c0-17.7 14.3-32 32-32h105c12.8 0 24.7 6.8 31.2 17.9l8.5 14.1c5.7 9.5 16 15.3 27 15.3H416c17.7 0 32 14.3 32 32v232c0 17.7-14.3 32-32 32H96c-17.7 0-32-14.3-32-32V144z" fill="var(--folder)"/>
  <!-- Üst sekme çizgisi -->
  <path d="M64 176h384v-14c0-11-9-20-20-20H267c-12.8 0-24.7-6.8-31.2-17.9l-8.5-14.1C220.6 100.4 209.6 96 198 96H96c-17.7 0-32 14.3-32 32v48z" fill="var(--folder-dark)" opacity="0.35"/>

  <!-- FERMUAR GÖVDESİ -->
  <rect x="128" y="128" width="40" height="288" rx="12" fill="var(--zip)"/>
  <!-- Fermuar dişleri -->
  <g fill="#e6edf7">
    <rect x="140" y="148" width="16" height="14" rx="2"/>
    <rect x="140" y="172" width="16" height="14" rx="2"/>
    <rect x="140" y="196" width="16" height="14" rx="2"/>
    <rect x="140" y="220" width="16" height="14" rx="2"/>
    <rect x="140" y="244" width="16" height="14" rx="2"/>
    <rect x="140" y="268" width="16" height="14" rx="2"/>
    <rect x="140" y="292" width="16" height="14" rx="2"/>
    <rect x="140" y="316" width="16" height="14" rx="2"/>
  </g>
  <!-- Slider / çekme ucu -->
  <path d="M132 340h32c10 0 18 8 18 18v14c0 17.1-13.9 31-31 31s-31-13.9-31-31v-14c0-10 8-18 18-18z" fill="#d4dde8"/>
  <rect x="144" y="352" width="8" height="40" rx="4" fill="var(--zip)"/>

  <!-- ŞİMŞEK (Zippy) -->
  <path d="M356 196l-48 84h46l-40 88 100-118h-52l26-54z" fill="var(--bolt)"/>

  <!-- İnce kontur (opsiyonel) -->
  <path d="M96 112h102c7.8 0 15 4 19.1 10.7l8.5 14.1c9.5 15.8 26.7 25.2 45.3 25.2H416c13.3 0 24 10.7 24 24v232c0 13.3-10.7 24-24 24H96c-13.3 0-24-10.7-24-24V136c0-13.3 10.7-24 24-24z"
        fill="none" stroke="var(--folder-dark)" stroke-width="8" opacity="0.35"/>
</svg>
