<?xml version="1.0" encoding="UTF-8"?>
<svg height="128px" viewBox="0 0 128 128" width="128px" xmlns="http://www.w3.org/2000/svg" xmlns:xlink="http://www.w3.org/1999/xlink">
    <linearGradient id="a" gradientTransform="matrix(0.145238 0 0 0.203826 -82.015808 -41.991486)" gradientUnits="userSpaceOnUse" x1="1275.329956" x2="1304.290039" y1="576.093018" y2="613">
        <stop offset="0" stop-color="#315374"/>
        <stop offset="1" stop-color="#567ea9"/>
    </linearGradient>
    <linearGradient id="b" gradientTransform="matrix(0.145238 0 0 0.203826 -82.015808 -41.991486)" gradientUnits="userSpaceOnUse" x1="1068.959961" x2="1152.51001" y1="478.649994" y2="379.355988">
        <stop offset="0" stop-color="#546e85"/>
        <stop offset="1" stop-color="#728aa0"/>
    </linearGradient>
    <linearGradient id="c" gradientTransform="matrix(0.145238 0 0 0.203826 -82.015808 -41.991486)" gradientUnits="userSpaceOnUse" x1="1309.73999" x2="1287.339966" y1="427.352997" y2="474.208008">
        <stop offset="0" stop-color="#46403e"/>
        <stop offset="1" stop-color="#605d56"/>
    </linearGradient>
    <linearGradient id="d" gradientTransform="matrix(0.145238 0 0 0.203826 -82.015808 -41.991486)" gradientUnits="userSpaceOnUse" x1="1326.959961" x2="1342.780029" y1="498.567993" y2="456.058014">
        <stop offset="0" stop-color="#4c4b42"/>
        <stop offset="1" stop-color="#6a6966"/>
    </linearGradient>
    <linearGradient id="e" gradientTransform="matrix(0.145238 0 0 0.203826 -82.015808 -41.991486)" gradientUnits="userSpaceOnUse" x1="1266.900024" x2="1348.699951" y1="376.848999" y2="322.091003">
        <stop offset="0" stop-color="#8e8c8f"/>
        <stop offset="1" stop-color="#a8aaa9"/>
    </linearGradient>
    <path d="m 44.886719 33.125 c 0.558593 -0.4375 2.210937 -3.21875 2.738281 -4.066406 c 6.082031 -9.847656 15.042969 -14.191406 23.429688 -18.8125 c 4.066406 -2.242188 8.078124 -7.769532 12.355468 -2.890625 c 2.414063 2.75 4.664063 5.683593 7.035156 8.496093 l 14.433594 17.425782 c 2.855469 3.410156 14.699219 17.160156 16.472656 21.117187 c 0.128907 0.285157 0.25 0.574219 0.367188 0.871094 c 2.730469 4.382813 3.113281 2.324219 3.257812 8.792969 c -0.035156 1.585937 -0.390624 3.195312 -1.300781 4.148437 c -2.351562 2.464844 -5.570312 4.890625 -8.109375 6.980469 l -9.847656 8.074219 c -1.773438 1.449219 -3.558594 2.90625 -5.328125 4.363281 c -1.238281 1.019531 -3.164063 2.289062 -4.296875 3.367188 c -2.023438 1.921874 -3.417969 5.328124 -5.660156 7.171874 c -2.078125 1.714844 -4.679688 1.195313 -6.652344 2.59375 c -1.164062 0.824219 -2.640625 2.222657 -3.84375 3.152344 c -5.394531 4.179688 -10.714844 8.546875 -15.960938 13.089844 c -2.191406 1.878906 -11.15625 9.644531 -13.164062 9.996094 c -2.027344 0.894531 -5.152344 -0.515625 -6.699219 -2.535156 c -2.375 -3.101563 -4.582031 -6.40625 -6.859375 -9.625 l -12.035156 -16.929688 c -6.042969 -8.433594 -12.265625 -16.6875 -18.429688 -24.949219 c -1.96875 -2.636719 -2.210937 -3.074219 -2.253906 -6.808593 c 0.011719 -3.4375 0.382813 -4.445313 2.378906 -6.53125 c 0.382813 -0.398438 0.902344 -0.84375 1.210938 -1.320313 l 0.109375 -1.742187 c 0.230469 -0.746094 0.726563 -2.277344 1.179687 -2.785157 c 1.804688 -2.054687 4.652344 -3.589843 6.558594 -5.382812 c 3.03125 -2.84375 6.371094 -5.265625 9.394532 -7.824219 c 7.171874 -6.066406 11.214843 -7.457031 19.519531 -7.4375 z m 0 0" fill="#f4f3e2"/>
    <path d="m 121.628906 55.625 l 0.089844 -0.359375 c 2.730469 4.382813 3.113281 2.324219 3.257812 8.792969 c -0.035156 1.585937 -0.390624 3.195312 -1.300781 4.148437 c -2.351562 2.464844 -5.570312 4.890625 -8.109375 6.980469 l -9.847656 8.074219 c -1.773438 1.449219 -3.558594 2.90625 -5.328125 4.363281 c -1.238281 1.019531 -3.164063 2.289062 -4.296875 3.367188 c -2.023438 1.921874 -3.417969 5.328124 -5.660156 7.171874 c -2.078125 1.714844 -4.679688 1.195313 -6.652344 2.59375 c -1.164062 0.824219 -2.640625 2.222657 -3.84375 3.152344 c -5.394531 4.179688 -10.714844 8.546875 -15.960938 13.089844 c -2.191406 1.878906 -11.15625 9.644531 -13.164062 9.996094 c -2.027344 0.894531 -5.152344 -0.515625 -6.699219 -2.535156 c -2.375 -3.101563 -4.582031 -6.40625 -6.859375 -9.625 l -12.035156 -16.929688 c -6.042969 -8.433594 -12.265625 -16.6875 -18.429688 -24.949219 c -1.96875 -2.636719 -2.210937 -3.074219 -2.253906 -6.808593 c 0.011719 -3.4375 0.382813 -4.445313 2.378906 -6.53125 c 0.382813 -0.398438 0.902344 -0.84375 1.210938 -1.320313 l 0.109375 -1.742187 c 0.027344 0.292968 0.0625 0.652343 0.101563 1.074218 c 1.441406 1.921875 3.257812 4.347656 4.648437 6.226563 l 12.113281 16.53125 c 1.394532 1.902343 2.691406 3.886719 4.085938 5.828125 c 2.601562 3.578125 5.386718 6.871094 7.902344 10.582031 c 3.25 4.789063 6.738281 9.703125 10.300781 14.023437 c 3.210937 3.894532 5.78125 -0.292968 8.527343 -2.136718 c 9.097657 -6.117188 20.582032 -23.347656 31.441407 -18.761719 l 0.558593 -0.324219 l 0.296876 -0.246094 c 1.210937 -3.898437 2.074218 -4.558593 3.957031 -7.679687 c 3.738281 -6.308594 8.585937 -9.863281 13.601562 -13.660156 c 4.433594 -3.355469 12.777344 -6.984375 15.859375 -12.386719 z m 0 0" fill="#3b5b7d"/>
    <path d="m 8.125 58.296875 l 0.109375 -1.742187 c 0.027344 0.292968 0.0625 0.652343 0.101563 1.074218 c 1.441406 1.921875 3.257812 4.347656 4.648437 6.226563 l 12.113281 16.53125 c 1.394532 1.902343 2.691406 3.886719 4.085938 5.828125 c 2.601562 3.578125 5.386718 6.871094 7.902344 10.582031 c 3.25 4.789063 6.738281 9.703125 10.300781 14.023437 c 3.210937 3.894532 5.78125 -0.292968 8.527343 -2.136718 c 9.097657 -6.117188 20.582032 -23.347656 31.441407 -18.761719 c -2.628907 1.671875 -3.738281 2.925781 -6.113281 4.945313 c -1.011719 0.332031 -8.625 7.035156 -9.960938 8.148437 c -2.597656 2.046875 -5.148438 3.867187 -7.730469 6.003906 c -4.035156 3.316407 -7.976562 7.042969 -12.222656 9.808594 c -1.609375 1.050781 -3.273437 0.820313 -4.601563 -0.902344 c -1.59375 -2.058593 -3.125 -4.246093 -4.667968 -6.378906 l -10.003906 -13.859375 l -14.894532 -20.5 c -2.0625 -2.816406 -7.507812 -9.894531 -8.964844 -12.769531 c -0.078124 -2.027344 0.0625 -4.070313 -0.070312 -6.121094 z m 0 0" fill="#c7c0a8"/>
    <path d="m 121.628906 55.625 l 0.089844 -0.359375 c 2.730469 4.382813 3.113281 2.324219 3.257812 8.792969 c -1.414062 2.316406 -10.964843 9.640625 -13.335937 11.441406 c -2.796875 2.125 -5.738281 4.953125 -8.535156 7.226562 c -2.339844 1.898438 -4.824219 3.90625 -7.1875 5.722657 c -1.980469 1.523437 -2.601563 4.65625 -4.960938 6.574219 c -1.628906 1.324218 -3.453125 2.101562 -5.332031 2.269531 c -0.105469 0.011719 -0.210938 0.019531 -0.316406 0.027343 l -0.027344 -0.339843 c -1.425781 -1.816407 -1.554688 -0.507813 -3.085938 -1.070313 c 0.113282 -0.285156 1.121094 0.09375 1.757813 -0.328125 c -0.007813 -0.625 -0.222656 -0.792969 -0.546875 -1.386719 l -0.257812 0.011719 l -0.121094 -0.210937 c -0.480469 0.308594 -1.300782 0.941406 -1.785156 0.871094 c 2.375 -2.019532 3.484374 -3.273438 6.113281 -4.945313 l 0.558593 -0.324219 l 0.296876 -0.246094 c 1.210937 -3.898437 2.074218 -4.558593 3.957031 -7.679687 c 3.738281 -6.308594 8.585937 -9.863281 13.601562 -13.660156 c 4.433594 -3.355469 12.777344 -6.984375 15.859375 -12.386719 z m 0 0" fill="url(#a)"/>
    <path d="m 88.210938 89.351562 c 1.210937 -3.898437 2.074218 -4.558593 3.957031 -7.679687 c 3.738281 -6.308594 8.585937 -9.863281 13.601562 -13.660156 c 4.433594 -3.355469 12.777344 -6.984375 15.859375 -12.386719 c 0.101563 8.859375 -0.285156 5.5 -4.515625 10.332031 c -9.101562 6.921875 -18.078125 14.980469 -27.167969 21.996094 c -0.574218 0.441406 -1.160156 0.988281 -1.734374 1.398437 z m 0 0" fill="#c7c0a8"/>
    <path d="m 117.113281 65.957031 c 0.855469 -0.203125 2.761719 -2.273437 3.101563 -2.175781 c -0.28125 0.898438 -0.496094 0.671875 -1.019532 1.113281 c -0.574218 0.484375 -1.230468 1.433594 -1.808593 1.859375 c -2.527344 1.824219 -4.820313 4.066406 -7.230469 6.152344 c -1.222656 1.058594 -2.761719 1.84375 -4.042969 2.847656 c -4.59375 3.59375 -8.886719 6.929688 -13.140625 11.257813 c -1.175781 4.761719 -4.929687 8.335937 -8.492187 8.417969 c -0.351563 -0.429688 -0.6875 -0.941407 -1.074219 -1.234376 l -0.257812 0.011719 l -0.121094 -0.210937 c -0.480469 0.308594 -1.300782 0.941406 -1.785156 0.871094 c 2.375 -2.019532 3.484374 -3.273438 6.113281 -4.945313 l 0.558593 -0.324219 l 0.296876 -0.246094 c 0.574218 -0.410156 1.160156 -0.957031 1.734374 -1.398437 c 9.089844 -7.015625 18.066407 -15.074219 27.167969 -21.996094 z m 0 0" fill="#203e64"/>
    <path d="m 85.308594 97.320312 c 0.105468 -0.007812 0.210937 -0.015624 0.316406 -0.027343 c 1.878906 -0.167969 3.703125 -0.945313 5.332031 -2.269531 c 2.359375 -1.917969 2.980469 -5.050782 4.960938 -6.574219 c 2.363281 -1.816407 4.847656 -3.824219 7.1875 -5.722657 c 2.796875 -2.273437 5.738281 -5.101562 8.535156 -7.226562 c 2.371094 -1.800781 11.921875 -9.125 13.335937 -11.441406 c -0.035156 1.585937 -0.390624 3.195312 -1.300781 4.148437 c -2.351562 2.464844 -5.570312 4.890625 -8.109375 6.980469 l -9.847656 8.074219 c -1.773438 1.449219 -3.558594 2.90625 -5.328125 4.363281 c -1.238281 1.019531 -3.164063 2.289062 -4.296875 3.367188 c -2.023438 1.921874 -3.417969 5.328124 -5.660156 7.171874 c -2.078125 1.714844 -4.679688 1.195313 -6.652344 2.59375 c -1.164062 0.824219 -2.640625 2.222657 -3.84375 3.152344 c -5.394531 4.179688 -10.714844 8.546875 -15.960938 13.089844 c -2.191406 1.878906 -11.15625 9.644531 -13.164062 9.996094 c -2.027344 0.894531 -5.152344 -0.515625 -6.699219 -2.535156 c -2.375 -3.101563 -4.582031 -6.40625 -6.859375 -9.625 l -12.035156 -16.929688 c -6.042969 -8.433594 -12.265625 -16.6875 -18.429688 -24.949219 c -1.96875 -2.636719 -2.210937 -3.074219 -2.253906 -6.808593 l 0.191406 0.113281 c 1.332032 3.203125 5.878907 8.367187 8.003907 11.242187 l 12.03125 16.566406 c 1.734375 2.386719 3.308593 4.976563 5.027343 7.378907 c 2.003907 2.796875 4.355469 5.480469 6.304688 8.324219 c 2.433594 3.546874 4.699219 7.113281 7.339844 10.40625 c 1.210937 1.507812 2.617187 2.972656 4.058594 4.015624 c 2.964843 1.675782 6.386718 -2.007812 8.96875 -3.859374 c 2.332031 -1.671876 4.582031 -3.710938 6.773437 -5.726563 c 0.4375 -0.261719 1.03125 -0.734375 1.457031 -1.074219 c 5.207032 -4.21875 10.394532 -8.496094 15.582032 -12.761718 c 1.445312 -1.1875 3.429687 -3.195313 5.035156 -3.453126 z m 0 0" fill="#203e64"/>
    <path d="m 4.726562 66.261719 l 0.226563 -0.476563 c 1.308594 0.195313 3.652344 5.007813 4.691406 6.40625 l 27.191407 37.0625 c 2.921874 4.019532 6.816406 11.238282 11 13.734375 c 2.296874 1.371094 8.046874 -3.910156 8.753906 -3.800781 c -0.667969 0.691406 -2.957032 2.066406 -3.265625 2.800781 c 0.972656 0.386719 9.304687 -7.457031 9.863281 -7.425781 l 0.046875 0.046875 c -2.191406 2.015625 -4.441406 4.054687 -6.773437 5.726563 c -2.582032 1.851562 -6.003907 5.535156 -8.96875 3.859374 c -1.441407 -1.042968 -2.847657 -2.507812 -4.058594 -4.015624 c -2.640625 -3.292969 -4.90625 -6.859376 -7.339844 -10.40625 c -1.949219 -2.84375 -4.300781 -5.527344 -6.304688 -8.324219 c -1.71875 -2.402344 -3.292968 -4.992188 -5.027343 -7.378907 l -12.03125 -16.566406 c -2.125 -2.875 -6.671875 -8.039062 -8.003907 -11.242187 z m 0 0" fill="#50779a"/>
    <path d="m 74.066406 21.414062 c 2.191406 3.441407 6.109375 6.824219 8.339844 10.171876 c -1.058594 0.707031 -2.125 1.3125 -3.1875 2.03125 c -1.578125 1.070312 -3.128906 2.367187 -4.777344 3.1875 c 2.609375 3.699218 5.328125 6.8125 8.144532 10.171874 l 1.53125 -1.429687 c 0.21875 1.453125 0.234374 3.726563 0.855468 4.847656 c 0.5 0.144531 6.710938 -4.769531 7.792969 -5.578125 c 1.3125 1.398438 2.375 2.996094 3.566406 4.574219 c 1.648438 2.175781 3.316407 4.289063 4.902344 6.546875 c -0.632813 0.472656 -1.382813 1.0625 -2.023437 1.433594 c -4.464844 2.597656 -8.324219 6.363281 -12.109376 10.527344 c -0.566406 0.625 -1.625 1.960937 -2.355468 1.996093 c -2.367188 -3.933593 -5.914063 -7.5 -7.84375 -10.8125 c 0.839844 -1 7.230468 -7.449219 7.289062 -7.722656 c -0.617187 -0.878906 -3.382812 -1.378906 -4.402344 -1.652344 c 0.449219 -0.515625 1.164063 -1.179687 1.652344 -1.660156 c -1.632812 -2.679687 -6.105468 -8.078125 -8.132812 -10.292969 c -2.238282 2.097656 -4.941406 5.007813 -7.171875 7.246094 c -2.777344 -2.753906 -4.75 -5.769531 -7.179688 -9.050781 c -0.410156 -0.554688 -0.527343 -0.746094 -0.519531 -1.410157 c 1.355469 -3.871093 12.59375 -10.960937 15.628906 -13.125 z m 0 0" fill="url(#b)"/>
    <path d="m 92.320312 46.84375 c 0.042969 -0.007812 0.089844 -0.019531 0.136719 -0.019531 c 0.679688 -0.046875 6.242188 7.785156 7.121094 9.027343 c -5.25 2.488282 -9.785156 7.023438 -14.03125 11.875 l -0.417969 0.292969 c -0.484375 -0.019531 -1.527344 -2.007812 -1.925781 -2.613281 c -1.496094 -2.261719 -3.160156 -4.261719 -4.796875 -6.308594 c 0.96875 -0.925781 2.050781 -1.921875 2.976562 -2.914062 c 3.457032 -3.699219 7.078126 -6.53125 10.9375 -9.339844 z m 0 0" fill="#f4f2e2"/>
    <path d="m 73.226562 23.191406 c 0.03125 0.003906 0.066407 0.003906 0.101563 0.003906 c 1.035156 0.089844 6.320313 6.820313 7.230469 8.171876 c -1.925782 1.351562 -4.007813 2.339843 -5.988282 3.90625 c -2.800781 2.214843 -5.394531 4.859374 -7.957031 7.566406 l -0.421875 0.265625 c -0.882812 -0.1875 -5.527344 -7.070313 -6.617187 -8.472657 c 5.511719 -6.359374 8.152343 -6.792968 13.652343 -11.441406 z m 0 0" fill="#f4f2e2"/>
    <path d="m 29.820312 48.011719 c 0.523438 0.082031 2.296876 4 2.683594 4.78125 l 2.492188 -1.871094 c 0.726562 1.300781 0.761718 1.339844 1.671875 2.363281 c -0.957031 0.824219 -1.835938 1.496094 -2.828125 2.238282 c 0.691406 1.246093 1.375 2.5 2.054687 3.757812 c 1.027344 -0.632812 1.675781 -1.117188 2.652344 -1.902344 c 0.414063 0.796875 1.085937 1.453125 1.648437 2.066406 c -1.121093 0.832032 -1.808593 1.398438 -2.863281 2.390626 c 0.753907 1.859374 1.378907 3.234374 2.292969 4.933593 c -0.855469 0.945313 -1.363281 1.441407 -2.292969 2.238281 c -0.742187 -1.355468 -1.582031 -3.304687 -2.378906 -4.8125 c -1.292969 0.746094 -1.851563 1.1875 -2.910156 2.371094 c 0.851562 1.550782 1.757812 3.457032 2.480469 5.125 c -0.824219 0.675782 -1.453126 1.242188 -2.238282 2.003906 c -0.828125 -1.089843 -2 -3.746093 -2.535156 -5.15625 c -1.078125 0.570313 -1.746094 1.28125 -2.65625 2.226563 c -0.660156 -1.15625 -0.800781 -1.503906 -1.265625 -2.820313 c 0.636719 -0.472656 1.757813 -1.585937 2.394531 -2.1875 c -0.671875 -1.464843 -1.148437 -2.492187 -1.675781 -4.058593 c -0.832031 0.398437 -2.292969 1.660156 -3.085937 2.320312 l -1.367188 -2.445312 c 0.746094 -0.757813 2.085938 -1.957031 2.902344 -2.507813 c -0.433594 -0.785156 -2.121094 -4.175781 -2.136719 -5.003906 c 0.949219 -0.699219 1.183594 -0.949219 1.996094 -1.917969 c 0.898437 1.355469 1.648437 3.175781 2.347656 4.769531 c 0.984375 -0.625 1.964844 -1.273437 2.933594 -1.9375 c -0.574219 -1.449218 -1.671875 -3.625 -2.355469 -5.136718 c 0.679688 -0.480469 1.402344 -1.214844 2.039062 -1.828125 z m 0 0" fill="#646560"/>
    <path d="m 31.417969 57.855469 c 0.664062 0.304687 1.640625 2.476562 2.105469 3.367187 c -0.886719 0.96875 -1.792969 1.375 -2.722657 2.371094 c -0.457031 -0.277344 -1.730469 -3.304688 -2.078125 -4.085938 c 0.90625 -0.523437 1.804688 -1.074218 2.695313 -1.652343 z m 0 0" fill="#f4f2e2"/>
    <g fill="#c7c0a8">
        <path d="m 61.507812 66.667969 c 0.835938 0.027343 1.164063 0.785156 1.792969 1.679687 c -3.726562 2.339844 -7.640625 5.085938 -11.242187 7.792969 c -1.257813 0.945313 -2.8125 2.539063 -4.066406 3.625 l -8.878907 7.496094 l -0.285156 0.152343 c -0.417969 -0.292968 -1.046875 -1.347656 -1.394531 -1.871093 c 1.328125 -1.777344 4.652344 -4.386719 6.269531 -5.804688 c 5.878906 -5.164062 11.324219 -9.511719 17.804687 -13.070312 z m 0 0"/>
        <path d="m 58.960938 83.15625 c 0.695312 -0.183594 1.4375 0.929688 1.992187 1.535156 c -3.050781 2.65625 -6.042969 5.058594 -9.140625 7.59375 c -1.789062 1.464844 -3.359375 3.179688 -5.242188 4.636719 c -0.1875 0.117187 -0.273437 0.121094 -0.472656 0.175781 c -0.515625 -0.464844 -0.929687 -1.484375 -1.28125 -2.226562 c 1.476563 -1 2.878906 -2.53125 4.296875 -3.710938 c 3.167969 -2.636718 6.542969 -5.8125 9.847657 -8.003906 z m 0 0"/>
        <path d="m 65.265625 71.347656 c 0.515625 0.203125 1.3125 1.195313 1.769531 1.695313 c -5.523437 3.261719 -9.054687 6.175781 -14.210937 10.394531 l -0.417969 0.109375 c -0.46875 -0.347656 -0.996094 -1.34375 -1.355469 -1.949219 c 3.511719 -3.550781 10.148438 -8.21875 14.214844 -10.25 z m 0 0"/>
        <path d="m 46.59375 69.875 c 0.671875 0.257812 1.160156 1.035156 1.671875 1.714844 c -2.621094 2.316406 -5.363281 4.34375 -7.972656 6.683594 c -1.578125 1.414062 -3.136719 2.859374 -4.792969 4.09375 c -0.46875 -0.027344 -1.265625 -1.429688 -1.597656 -1.9375 c 4.492187 -4.160157 7.890625 -6.960938 12.691406 -10.554688 z m 0 0"/>
        <path d="m 58.625 62.015625 c 0.394531 0.042969 1.089844 0.898437 1.179688 1.496094 c -0.261719 0.328125 -2.738282 1.808593 -3.210938 2.117187 c -2.03125 1.308594 -4.039062 2.683594 -6.023438 4.121094 c -0.207031 0.011719 -0.339843 -0.046875 -0.542968 -0.105469 c -0.335938 -0.429687 -0.5 -0.59375 -0.683594 -1.195312 c 0.21875 -2.710938 7.464844 -6 9.28125 -6.433594 z m 0 0"/>
        <path d="m 48.707031 83.746094 c 0.574219 0.214844 1.144531 1.113281 1.597657 1.710937 c -2.351563 2.613281 -5.007813 4.535157 -7.640626 6.53125 c -0.597656 -0.003906 -1.222656 -1.0625 -1.667968 -1.671875 c 2.535156 -2.210937 5.089844 -4.59375 7.710937 -6.570312 z m 0 0"/>
    </g>
    <path d="m 108.414062 51.664062 c -0.867187 -0.105468 -6.042968 -1.449218 -6.464843 -2.082031 c 0.226562 -1.007812 4.992187 -4.070312 5.941406 -4.699219 c 0 0 0.503906 0.132813 0.558594 0.144532 l -0.402344 0.582031 c -1.089844 0.5 -3.492187 2.246094 -4.484375 3.1875 c 1.59375 0.527344 4.058594 1.3125 5.660156 1.652344 c -0.027344 1.535156 -0.152344 5.34375 -0.078125 6.699219 l -0.636719 0.09375 c -0.183593 0.40625 -0.199218 0.875 -0.253906 1.363281 c -0.042968 -2.003907 0.101563 -4.878907 0.160156 -6.941407 z m 0 0" fill="url(#c)"/>
    <path d="m 113.761719 53.746094 c -0.148438 -0.78125 -0.351563 -1.574219 -0.25 -2.363282 l 0.1875 -0.097656 c 0.726562 0.855469 1.082031 2.066406 1.746093 3.082032 c -0.945312 0.65625 -6.582031 4.746093 -7.15625 4.621093 l -0.035156 -0.382812 c 0.054688 -0.488281 0.070313 -0.957031 0.253906 -1.363281 l 0.636719 -0.09375 c 1.765625 -1.066407 3.066407 -1.835938 4.617188 -3.402344 z m 0 0" fill="url(#d)"/>
    <path d="m 108.449219 45.027344 l 1.820312 2.320312 c -0.929687 -0.609375 -1.359375 -0.957031 -2.222656 -1.738281 z m 0 0" fill="#464344"/>
    <path d="m 89.472656 5.472656 c 2.132813 -3 4.148438 -0.882812 5.953125 1.5625 c 1.148438 1.316406 2.269531 2.679688 3.363281 4.089844 c 8.519532 10.09375 16.953126 20.34375 25.289063 30.738281 c 1.128906 1.476563 6.894531 10.152344 5.636719 12.015625 c -0.410156 0.179688 -1.671875 -0.308594 -2.039063 -0.605468 c -0.875 -0.511719 -1.78125 -1.40625 -2.660156 -1.980469 c -3.035156 -1.976563 -5.460937 -5.308594 -8.019531 -8.324219 c -3.355469 -3.945312 -6.695313 -7.914062 -10.019532 -11.90625 c -5.285156 -6.265625 -10.753906 -12.226562 -15.796874 -18.851562 c -1.535157 -2.015626 -2.539063 -3.773438 -1.707032 -6.738282 z m 0 0" fill="#f4f2e2"/>
    <path d="m 127.675781 53.273438 c -0.875 -0.511719 -1.78125 -1.40625 -2.660156 -1.980469 c -3.035156 -1.976563 -5.460937 -5.308594 -8.019531 -8.324219 c -3.355469 -3.945312 -6.695313 -7.914062 -10.019532 -11.90625 c -5.285156 -6.265625 -10.753906 -12.226562 -15.796874 -18.851562 c -1.535157 -2.015626 -2.539063 -3.773438 -1.707032 -6.738282 c 2.375 1.761719 1.851563 3.296875 5.273438 4.613282 c 1.675781 2.609374 5.242187 5.871093 7.488281 9.246093 c -0.320313 0.726563 -0.347656 0.542969 -0.296875 1.253907 c 0.847656 1.164062 1.832031 2.101562 2.703125 3.21875 c 4.945313 6.351562 10.289063 12.023437 15.210937 18.433593 c 2.070313 2.699219 4.773438 4.839844 6.667969 8.007813 c 0.21875 0.363281 0.992188 0.078125 1.09375 0.429687 c -0.386719 0.660157 -0.34375 0.40625 -0.421875 1.1875 c 0.1875 0.457031 0.261719 0.605469 0.5 1.003907 c 0.007813 0.210937 0.042969 0.300781 -0.015625 0.40625 z m 0 0" fill="url(#e)"/>
    <path d="m 89.472656 5.472656 c 2.132813 -3 4.148438 -0.882812 5.953125 1.5625 c 1.148438 1.316406 2.269531 2.679688 3.363281 4.089844 c 8.519532 10.09375 16.953126 20.34375 25.289063 30.738281 l 0.15625 1.269531 c -1.648437 -0.738281 -8.039063 -10.257812 -9.933594 -12.179687 c -5.054687 -5.125 -9.40625 -11.367187 -14.1875 -16.972656 c -1.472656 -1.726563 -3.058593 -2.402344 -4.574219 -3.964844 c -0.800781 -0.828125 -0.785156 -1.464844 -0.886718 -2.765625 c -1.113282 -1.144531 -2.09375 -2.230469 -3.378906 -2.960938 l -0.238282 0.183594 c 0.167969 1.242188 2.925782 4.632813 3.710938 5.613282 c -3.421875 -1.316407 -2.898438 -2.851563 -5.273438 -4.613282 z m 0 0" fill="#bebdbf"/>
    <path d="m 95.425781 7.035156 c 1.148438 1.316406 2.269531 2.679688 3.363281 4.089844 c -0.710937 0.027344 -2.082031 -0.421875 -2.625 -1.136719 c -0.757812 -1.003906 -0.679687 -1.582031 -0.738281 -2.953125 z m 0 0" fill="#a8a7aa"/>
    <path d="m 102.234375 19.332031 c 1.976563 1.871094 3.296875 4.316407 5.058594 6.367188 c 4.457031 5.179687 9.039062 10.167969 13.140625 15.910156 c 0.890625 1.25 2.355468 2.300781 3.285156 3.550781 c 1.148438 1.300782 2.320312 3.90625 3.65625 4.65625 l 0.226562 -0.085937 c 0.078126 -1.46875 -2.503906 -5.707031 -3.367187 -6.597657 l -0.15625 -1.269531 c 1.128906 1.476563 6.894531 10.152344 5.636719 12.015625 c -0.410156 0.179688 -1.671875 -0.308594 -2.039063 -0.605468 c 0.058594 -0.105469 0.023438 -0.195313 0.015625 -0.40625 c -0.238281 -0.398438 -0.3125 -0.546876 -0.5 -1.003907 c 0.078125 -0.78125 0.035156 -0.527343 0.421875 -1.1875 c -0.101562 -0.351562 -0.875 -0.066406 -1.09375 -0.429687 c -1.894531 -3.167969 -4.597656 -5.308594 -6.667969 -8.007813 c -4.921874 -6.410156 -10.265624 -12.082031 -15.210937 -18.433593 c -0.871094 -1.117188 -1.855469 -2.054688 -2.703125 -3.21875 c -0.050781 -0.710938 -0.023438 -0.527344 0.296875 -1.253907 z m 0 0" fill="#a8a7aa"/>
    <path d="m 45.019531 32.996094 c 41.933594 55.964844 41.933594 55.964844 41.933594 55.964844" fill="none" stroke="#c7c0a8" stroke-linecap="square" stroke-linejoin="round" stroke-width="0.583536"/>
    <path d="m 45.019531 32.996094 c 41.933594 55.964844 41.933594 55.964844 41.933594 55.964844" fill="#080808"/>
</svg>