<svg width="3399" height="1058" viewBox="0 0 3399 1058" fill="none" xmlns="http://www.w3.org/2000/svg">
<rect width="3399" height="1058" rx="150" fill="white"/>
<path d="M455.546 139.572C475.141 98.2788 524.501 80.6888 565.795 100.284C607.088 119.88 624.678 169.24 605.083 210.533L425.555 588.852H764.756C810.463 588.852 847.516 625.904 847.516 671.611C847.515 717.318 810.463 754.371 764.756 754.371H347.009L269.141 918.462C249.545 959.755 200.186 977.344 158.893 957.749C117.599 938.154 100.009 888.793 119.604 847.5L455.546 139.572Z" fill="black"/>
<path d="M790.106 407.742C790.106 453.449 753.053 490.502 707.346 490.502C661.639 490.502 624.586 453.449 624.586 407.742C624.586 362.035 661.639 324.982 707.346 324.982C753.053 324.982 790.106 362.035 790.106 407.742Z" fill="#A5A5A5"/>
<path d="M1301.42 693L1268.22 590.126H1110.37L1077.16 693H1036.34L1163.17 306.543H1215.42L1342.24 693H1301.42ZM1189.29 344.1L1122.34 552.025H1256.24L1189.29 344.1ZM1646.84 693H1384.48V654.899H1493.35V344.644H1384.48V306.543H1646.84V344.644H1534.17V654.899H1646.84V693ZM2256.58 432.278C2253.68 402.159 2243.52 378.391 2226.1 360.973C2209.05 343.193 2187.09 334.303 2160.24 334.303C2126.13 334.303 2099.82 348.636 2081.32 377.303C2063.17 405.607 2054.1 446.248 2054.1 499.227C2054.1 551.843 2063.72 592.485 2082.95 621.152C2102.18 649.818 2129.4 664.152 2164.59 664.152C2192.9 664.152 2215.21 652.359 2231.54 628.772C2248.24 605.185 2256.58 573.071 2256.58 532.43V525.898H2145.54V487.797H2292.51V700.076H2254.4V688.646L2254.95 655.443C2245.88 669.958 2232.63 681.57 2215.21 690.278C2197.8 698.624 2179.47 702.616 2160.24 702.253C2113.07 701.89 2076.78 684.11 2051.38 648.911C2025.98 613.713 2013.28 563.818 2013.28 499.227C2013.28 434.273 2025.98 384.379 2051.38 349.543C2076.78 314.345 2113.07 296.564 2160.24 296.201C2198.7 295.838 2229.55 307.45 2252.77 331.037C2276 354.623 2289.24 388.37 2292.51 432.278H2256.58ZM2482.26 507.392C2499.31 507.392 2514.91 509.932 2529.07 515.012C2543.58 519.729 2553.56 525.898 2559 533.518L2561.72 537.329V458.949H2401.15V420.847H2602.55V693H2561.72V667.418L2559 670.139C2550.29 678.848 2539.23 686.105 2525.8 691.911C2512.37 697.717 2498.77 700.62 2484.98 700.62C2462.84 700.62 2443.25 696.447 2426.19 688.101C2409.5 679.755 2396.26 668.143 2386.46 653.266C2377.02 638.388 2372.31 621.333 2372.31 602.101C2372.31 583.595 2376.84 567.265 2385.91 553.113C2395.35 538.599 2408.41 527.35 2425.1 519.366C2441.8 511.383 2460.85 507.392 2482.26 507.392ZM2413.13 602.101C2413.13 619.882 2419.84 634.396 2433.27 645.645C2446.69 656.894 2463.93 662.519 2484.98 662.519C2507.48 662.519 2525.8 656.894 2539.95 645.645C2554.47 634.396 2561.72 619.882 2561.72 602.101C2561.72 585.409 2554.29 571.801 2539.41 561.278C2524.89 550.755 2505.84 545.493 2482.26 545.493C2461.94 545.493 2445.24 550.755 2432.18 561.278C2419.48 571.801 2413.13 585.409 2413.13 602.101ZM2884.83 654.899H2929.46V693H2877.21C2843.1 693 2816.97 686.468 2798.83 673.405C2780.69 659.979 2771.61 635.304 2771.61 599.379V469.29H2682.89V431.189H2771.61V346.277H2812.44V431.189H2928.37V469.29H2812.44V593.936C2812.44 610.266 2814.43 622.785 2818.42 631.493C2822.42 640.202 2829.67 646.371 2840.2 650C2850.72 653.266 2865.6 654.899 2884.83 654.899ZM3016.88 554.202C3016.88 524.084 3021.96 498.139 3032.12 476.366C3042.65 454.594 3057.34 437.902 3076.21 426.29C3095.44 414.315 3117.94 408.328 3143.71 408.328C3168.38 408.328 3189.79 414.315 3207.93 426.29C3226.08 438.265 3240.05 455.501 3249.85 477.999C3259.64 500.134 3264.54 526.442 3264.54 556.924V561.278H3057.16C3058.98 592.122 3068.05 616.616 3084.38 634.759C3100.71 652.903 3121.75 661.975 3147.52 661.975C3170.74 661.975 3189.07 656.169 3202.49 644.557C3216.28 632.945 3224.26 616.616 3226.44 595.569H3264.54C3260.91 628.953 3248.94 654.717 3228.62 672.861C3208.66 691.004 3181.63 700.076 3147.52 700.076C3121.03 700.076 3097.98 694.27 3078.39 682.658C3058.79 670.683 3043.55 653.81 3032.67 632.038C3022.14 609.903 3016.88 583.957 3016.88 554.202ZM3143.71 446.43C3120.48 445.704 3101.43 452.235 3086.55 466.024C3072.04 479.814 3063.87 498.864 3062.06 523.177H3222.09C3220.63 500.316 3212.83 481.991 3198.68 468.202C3184.53 454.413 3166.2 447.155 3143.71 446.43Z" fill="black"/>
<path d="M2753.44 899.625V805.213L2729.55 812.994L2729.63 899.625H2753.35H2753.44Z" fill="black"/>
<path d="M2793.24 809.771C2793.25 810.986 2793.25 813.001 2793.25 813.001C2819.99 800.107 2851.44 818.713 2851.44 845.106C2851.44 871.5 2851.66 899.625 2851.66 899.625H2827.34V845.973C2827.34 827.799 2793.24 826.934 2793.24 845.973V899.625H2769.28V805.213H2793.24C2793.24 805.213 2793.22 808.556 2793.24 809.771Z" fill="black"/>
<path d="M2863.17 834.693C2863.17 813.644 2863.21 808.166 2863.38 808.097L2886.86 808.121V863.409C2886.86 881.279 2921.58 881.798 2921.58 863.409V808.158L2944.95 808.182L2944.95 835.933C2944.95 853.861 2944.83 863.409 2944.83 863.409C2944.83 911.913 2863.38 911.74 2863.34 863.409C2863.34 863.409 2863.18 849.345 2863.17 834.693Z" fill="black"/>
<path d="M2982.41 763.764L2958.78 771.482L2958.78 897.463H2982.49L2982.41 763.764Z" fill="black"/>
<path d="M3118.64 828.895H3117.57V853.156C3117.57 862.675 3129.69 872.281 3143.79 874.241V897.463C3105.98 890.54 3095 870.723 3093.91 853.156L3094.08 779.2L3117.57 771.482V805.906H3143.79V828.895H3131.26H3118.64Z" fill="black"/>
<path d="M2997.63 832.359C2997.63 811.31 2997.67 805.832 2997.84 805.762L3021.32 805.787V861.075C3021.32 878.944 3056.04 879.464 3056.04 861.075V805.823L3079.41 805.848L3079.41 833.599C3079.41 851.527 3079.29 861.075 3079.29 861.075C3079.29 909.578 2997.84 909.405 2997.8 861.075C2997.8 861.075 2997.64 847.01 2997.63 832.359Z" fill="black"/>
<path d="M3189.39 806.342C3214.58 806.342 3235 826.761 3235 851.947C3235 856.111 3234.44 860.145 3233.39 863.978H3207.83V863.976H3171.14C3171.14 867.762 3173.07 871.395 3176.51 874.072C3179.95 876.75 3184.62 878.254 3189.48 878.254C3194.35 878.254 3199.02 876.75 3202.46 874.072C3204.13 872.768 3205.45 871.237 3206.36 869.573L3210.63 873.379L3221.92 883.908C3213.65 892.327 3202.13 897.552 3189.39 897.552C3164.21 897.551 3143.79 877.134 3143.79 851.947C3143.79 826.761 3164.21 806.342 3189.39 806.342ZM3189.49 829.36C3184.62 829.36 3179.96 830.864 3176.52 833.542C3173.08 836.22 3171.14 839.852 3171.14 843.639H3207.83C3207.83 839.852 3205.9 836.22 3202.46 833.542C3199.02 830.865 3194.35 829.36 3189.49 829.36Z" fill="black"/>
<path d="M2528.71 902.634C2523.05 902.634 2517.93 901.545 2513.35 899.366C2508.78 897.188 2504.59 894.138 2500.77 890.217V894.465C2500.77 896.534 2500.07 898.277 2498.65 899.693C2497.23 901.109 2495.44 901.817 2493.26 901.817C2491.19 901.817 2489.45 901.109 2488.03 899.693C2486.61 898.277 2485.91 896.534 2485.91 894.465V788.433C2485.91 786.255 2486.61 784.458 2488.03 783.042C2489.45 781.626 2491.19 780.918 2493.26 780.918C2495.44 780.918 2497.23 781.626 2498.65 783.042C2500.07 784.458 2500.77 786.255 2500.77 788.433V828.461C2504.59 824.54 2508.78 821.49 2513.35 819.312C2517.93 817.133 2523.05 816.044 2528.71 816.044C2535.36 816.044 2541.67 817.732 2547.66 821.109C2553.65 824.485 2558.56 829.386 2562.37 835.813C2566.29 842.239 2568.25 850.081 2568.25 859.339C2568.25 868.597 2566.29 876.439 2562.37 882.865C2558.56 889.291 2553.65 894.193 2547.66 897.569C2541.67 900.946 2535.36 902.634 2528.71 902.634ZM2526.59 888.747C2534.32 888.747 2540.69 886.242 2545.7 881.231C2550.82 876.221 2553.38 868.924 2553.38 859.339C2553.38 849.645 2550.82 842.348 2545.7 837.446C2540.69 832.436 2534.32 829.931 2526.59 829.931C2521.25 829.931 2516.4 831.129 2512.05 833.525C2507.69 835.813 2503.93 838.699 2500.77 842.184V876.493C2503.93 879.979 2507.69 882.92 2512.05 885.316C2516.4 887.603 2521.25 888.747 2526.59 888.747ZM2606.48 939.394C2604.52 939.394 2602.83 938.686 2601.42 937.27C2600.11 935.854 2599.46 934.166 2599.46 932.205C2599.46 931.225 2599.62 930.353 2599.95 929.591L2610.57 902.307L2579.85 827.48C2579.74 827.045 2579.58 826.555 2579.36 826.01C2579.25 825.465 2579.2 824.921 2579.2 824.376C2579.2 822.307 2579.91 820.564 2581.32 819.148C2582.74 817.623 2584.48 816.861 2586.55 816.861C2588.08 816.861 2589.44 817.297 2590.64 818.168C2591.94 819.039 2592.87 820.128 2593.41 821.435L2618.57 883.845L2644.22 821.762C2644.88 820.237 2645.75 819.039 2646.84 818.168C2648.03 817.297 2649.45 816.861 2651.08 816.861C2653.15 816.861 2654.9 817.623 2656.31 819.148C2657.73 820.564 2658.44 822.307 2658.44 824.376C2658.44 825.356 2658.27 826.282 2657.95 827.154L2613.34 934.329C2612.69 935.745 2611.82 936.943 2610.73 937.923C2609.64 938.903 2608.23 939.394 2606.48 939.394Z" fill="black"/>
</svg>
