<?xml version='1.0' encoding='utf-8'?>
<svg xmlns="http://www.w3.org/2000/svg" version="1.1" viewBox="0 0 640 640"> <defs> <filter id="b" x="-.026897" y="-.027037" width="1.0771" height="1.0775" color-interpolation-filters="sRGB"> <feFlood flood-color="rgb(0,0,0)" flood-opacity=".49804" in="SourceGraphic" result="flood"/> <feGaussianBlur in="SourceGraphic" result="blur" stdDeviation="3.000000"/> <feOffset dx="6.000000" dy="6.000000" in="blur" result="offset"/> <feComposite in="flood" in2="offset" operator="in" result="comp1"/> <feComposite in="SourceGraphic" in2="comp1" result="fbSourceGraphic"/> <feColorMatrix in="fbSourceGraphic" result="fbSourceGraphicAlpha" values="0 0 0 -1 0 0 0 0 -1 0 0 0 0 -1 0 0 0 0 1 0"/> <feFlood flood-color="rgb(0,0,0)" flood-opacity=".49804" in="fbSourceGraphic" result="flood"/> <feGaussianBlur in="fbSourceGraphic" result="blur" stdDeviation="3.500000"/> <feOffset dx="7.500000" dy="7.500000" in="blur" result="offset"/> <feComposite in="flood" in2="offset" operator="in" result="comp1"/> <feComposite in="fbSourceGraphic" in2="comp1" result="comp2"/> </filter> <clipPath id="d"> <path transform="translate(-630.44 -118.47)" d="m0 720h1280v-720h-1280z"/> </clipPath> <clipPath id="c"> <path transform="translate(-649.56 -59.842)" d="m0 720h1280v-720h-1280z"/> </clipPath> <linearGradient id="a" x1="318.65" x2="318.65" y1="1.2008" y2="637.87" gradientUnits="userSpaceOnUse"> <stop stop-color="#1e3f5c" offset="0"/> <stop stop-color="#214768" offset=".25"/> <stop stop-color="#244e71" offset=".5"/> <stop stop-color="#28567c" offset=".75"/> <stop stop-color="#2a5981" offset="1"/> </linearGradient> </defs> <g> <circle cx="320" cy="320" r="319.23" fill="url(#a)" style="mix-blend-mode:normal"/> <g transform="matrix(.8861 0 0 .89039 -525.6 -318.14)" filter="url(#b)"> <path transform="matrix(8.3245 0 0 -8.3245 867.98 465.94)" d="m0 0c1.679 0 3.037-1.357 3.037-3.036 0-1.68-1.358-3.037-3.037-3.037-1.68 0-3.037 1.357-3.037 3.037 0 1.679 1.357 3.036 3.037 3.036m9.307 5.344c-17.688 0-16.583-7.671-16.583-7.671l0.02-7.946h16.879v-2.386h-23.584s-11.318 1.283-11.318-16.564c0-17.846 9.879-17.214 9.879-17.214h5.896v8.282s-0.318 9.879 9.721 9.879h16.741s9.406-0.152 9.406 9.09v15.282s1.428 9.248-17.057 9.248" clip-path="url(#d)" fill="#4584b6"/> <path transform="matrix(8.3245 0 0 -8.3245 1027.1 953.96)" d="m0 0c-1.68 0-3.037 1.357-3.037 3.036 0 1.68 1.357 3.037 3.037 3.037 1.679 0 3.036-1.357 3.036-3.037 0-1.679-1.357-3.036-3.036-3.036m-9.308-5.344c17.688 0 16.583 7.67 16.583 7.67l-0.019 7.947h-16.879v2.386h23.583s11.318-1.284 11.318 16.564c0 17.846-9.879 17.214-9.879 17.214h-5.895v-8.282s0.318-9.879-9.721-9.879h-16.741s-9.406 0.152-9.406-9.09v-15.282s-1.428-9.248 17.056-9.248" clip-path="url(#c)" fill="#ffde57"/> </g> <circle cx="243.15" cy="119.77" r="22.514" fill="#fff"/> <circle cx="384.54" cy="508.82" r="22.514" fill="#fff"/> </g> </svg>