<?xml version="1.0" encoding="UTF-8" standalone="no"?>
<svg
   xmlns:dc="http://purl.org/dc/elements/1.1/"
   xmlns:cc="http://creativecommons.org/ns#"
   xmlns:rdf="http://www.w3.org/1999/02/22-rdf-syntax-ns#"
   xmlns:svg="http://www.w3.org/2000/svg"
   xmlns="http://www.w3.org/2000/svg"
   xmlns:sodipodi="http://sodipodi.sourceforge.net/DTD/sodipodi-0.dtd"
   xmlns:inkscape="http://www.inkscape.org/namespaces/inkscape"
   aria-hidden="true"
   focusable="false"
   data-prefix="fas"
   data-icon="sort-amount-down"
   class="svg-inline--fa fa-sort-amount-down fa-w-16"
   role="img"
   viewBox="0 0 16 16"
   version="1.1"
   id="svg4"
   sodipodi:docname="planner-sort-symbolic.svg"
   width="16"
   height="16"
   inkscape:version="0.92.3 (2405546, 2018-03-11)">
  <metadata
     id="metadata10">
    <rdf:RDF>
      <cc:Work
         rdf:about="">
        <dc:format>image/svg+xml</dc:format>
        <dc:type
           rdf:resource="http://purl.org/dc/dcmitype/StillImage" />
        <dc:title />
      </cc:Work>
    </rdf:RDF>
  </metadata>
  <defs
     id="defs8" />
  <sodipodi:namedview
     pagecolor="#ffffff"
     bordercolor="#666666"
     borderopacity="1"
     objecttolerance="10"
     gridtolerance="10"
     guidetolerance="10"
     inkscape:pageopacity="0"
     inkscape:pageshadow="2"
     inkscape:window-width="1366"
     inkscape:window-height="705"
     id="namedview6"
     showgrid="false"
     inkscape:zoom="32.625"
     inkscape:cx="3.2950192"
     inkscape:cy="8"
     inkscape:window-x="0"
     inkscape:window-y="30"
     inkscape:window-maximized="1"
     inkscape:current-layer="svg4" />
  <g
     id="g813">
    <path
       sodipodi:nodetypes="ssssssssssssssssssssssssssssssssssss"
       style="fill:#666666;stroke-width:0.03608439;fill-opacity:1"
       inkscape:connector-curvature="0"
       id="path2"
       d="M 13.333334,3 H 2.6666667 C 2.2984534,3 2,2.776156 2,2.5 v -1 C 2,1.223844 2.2984534,1 2.6666667,1 H 13.333334 C 13.701547,1 14,1.223844 14,1.5 v 1 C 14,2.776156 13.701547,3 13.333334,3 Z M 14,6.5 v -1 C 14,5.223844 13.701547,5 13.333334,5 H 5.3333333 C 4.96512,5 4.6666667,5.223844 4.6666667,5.5 v 1 c 0,0.276156 0.2984533,0.5 0.6666666,0.5 H 13.333334 C 13.701547,7 14,6.776156 14,6.5 Z m 0,8 v -1 C 14,13.223844 13.701547,13 13.333334,13 H 10.666667 C 10.298453,13 10,13.223844 10,13.5 v 1 c 0,0.276156 0.298453,0.5 0.666667,0.5 h 2.666667 C 13.701547,15 14,14.776156 14,14.5 Z m 0,-4 v -1 C 14,9.223844 13.701547,9 13.333334,9 H 8 C 7.6317867,9 7.3333333,9.223844 7.3333333,9.5 v 1 C 7.3333333,10.776156 7.6317867,11 8,11 h 5.333334 C 13.701547,11 14,10.776156 14,10.5 Z" />
  </g>
</svg>
