<?xml version="1.0" encoding="UTF-8" standalone="no"?>
<svg
   xmlns:dc="http://purl.org/dc/elements/1.1/"
   xmlns:cc="http://creativecommons.org/ns#"
   xmlns:rdf="http://www.w3.org/1999/02/22-rdf-syntax-ns#"
   xmlns:svg="http://www.w3.org/2000/svg"
   xmlns="http://www.w3.org/2000/svg"
   xmlns:sodipodi="http://sodipodi.sourceforge.net/DTD/sodipodi-0.dtd"
   xmlns:inkscape="http://www.inkscape.org/namespaces/inkscape"
   version="1.1"
   id="Layer_1"
   x="0px"
   y="0px"
   viewBox="0 0 16 16"
   xml:space="preserve"
   sodipodi:docname="byte-play-next.svg"
   width="16"
   height="16"
   inkscape:version="0.92.3 (2405546, 2018-03-11)"><defs
     id="defs21" /><sodipodi:namedview
     pagecolor="#ffffff"
     bordercolor="#666666"
     borderopacity="1"
     objecttolerance="10"
     gridtolerance="10"
     guidetolerance="10"
     inkscape:pageopacity="0"
     inkscape:pageshadow="2"
     inkscape:window-width="1366"
     inkscape:window-height="705"
     id="namedview19"
     showgrid="false"
     inkscape:zoom="8.137931"
     inkscape:cx="-23.224576"
     inkscape:cy="14.5"
     inkscape:window-x="0"
     inkscape:window-y="30"
     inkscape:window-maximized="1"
     inkscape:current-layer="Layer_1" /><style
     type="text/css"
     id="style2">.st0{fill:none;stroke:#000000;stroke-width:2;stroke-miterlimit:10;} .st1{fill:none;stroke:#000000;stroke-width:2;stroke-linecap:round;stroke-linejoin:round;stroke-miterlimit:10;} .st2{fill:none;stroke:#000000;stroke-miterlimit:10;} .st3{fill:none;stroke:#000000;stroke-width:2;stroke-miterlimit:10;stroke-dasharray:1.7411,1.7411;} .st4{fill:none;stroke:#000000;stroke-width:2;stroke-linecap:round;stroke-linejoin:round;stroke-dasharray:2.0261,4.0522;} .st5{fill:#606060;} .st6{stroke:#000000;stroke-miterlimit:10;}</style><g
     id="g829"><g
       style="fill-rule:nonzero;fill:#666666;fill-opacity:1"
       transform="matrix(0.55997834,0,0,0.55997834,-0.11995667,6.8801354)"
       id="g837"><path
         style="fill-rule:nonzero;fill:#666666;fill-opacity:1"
         d="M 26,9.943 H 9 a 1,1 0 0 1 0,-2 h 17 a 1,1 0 0 1 0,2 z"
         id="path4"
         inkscape:connector-curvature="0" /><path
         style="fill-rule:nonzero;fill:#666666;fill-opacity:1"
         d="M 26,5.943 H 9 a 1,1 0 0 1 0,-2 h 17 a 1,1 0 0 1 0,2 z"
         id="path6"
         inkscape:connector-curvature="0" /><path
         style="fill-rule:nonzero;fill:#666666;fill-opacity:1"
         d="M 26,1.943 H 9 a 1,1 0 0 1 0,-2 h 17 a 1,1 0 0 1 0,2 z"
         id="path8"
         inkscape:connector-curvature="0" /><path
         style="fill-rule:nonzero;fill:#666666;fill-opacity:1"
         d="M 26,-2.057 H 13 a 1,1 0 0 1 0,-2 h 13 a 1,1 0 0 1 0,2 z"
         id="path10"
         inkscape:connector-curvature="0" /><path
         style="fill-rule:nonzero;fill:#666666;fill-opacity:1"
         d="m 6,-0.645 v -4.823 c 0,-0.368 0.401,-0.596 0.717,-0.408 l 4.052,2.412 a 0.474,0.474 0 0 1 0,0.815 L 6.717,-0.237 A 0.475,0.475 0 0 1 6,-0.645 Z"
         id="path12"
         inkscape:connector-curvature="0" /><path
         style="fill-rule:nonzero;fill:#666666;fill-opacity:1"
         d="m 3,6.943 a 1,1 0 0 1 -1,-1 v -7 c 0,-1.654 1.346,-3 3,-3 h 3 a 1,1 0 0 1 0,2 H 5 c -0.551,0 -1,0.449 -1,1 v 7 a 1,1 0 0 1 -1,1 z"
         id="path14"
         inkscape:connector-curvature="0" /></g></g><metadata
     id="metadata16"><rdf:RDF><rdf:Description
         about="https://iconscout.com/legal#licenses"
         dc:title="play,next,playlist,ios,x,iphone,ui"
         dc:description="play,next,playlist,ios,x,iphone,ui"
         dc:publisher="Iconscout"
         dc:date="2017-10-03"
         dc:format="image/svg+xml"
         dc:language="en"><dc:creator><rdf:Bag><rdf:li>Jemis Mali</rdf:li></rdf:Bag></dc:creator></rdf:Description><cc:Work
         rdf:about=""><dc:format>image/svg+xml</dc:format><dc:type
           rdf:resource="http://purl.org/dc/dcmitype/StillImage" /><dc:title /></cc:Work></rdf:RDF></metadata></svg>