<?xml version="1.0" encoding="UTF-8" standalone="no"?>
<svg
   xmlns:dc="http://purl.org/dc/elements/1.1/"
   xmlns:cc="http://creativecommons.org/ns#"
   xmlns:rdf="http://www.w3.org/1999/02/22-rdf-syntax-ns#"
   xmlns:svg="http://www.w3.org/2000/svg"
   xmlns="http://www.w3.org/2000/svg"
   xmlns:sodipodi="http://sodipodi.sourceforge.net/DTD/sodipodi-0.dtd"
   xmlns:inkscape="http://www.inkscape.org/namespaces/inkscape"
   id="svg2"
   version="1.1"
   viewBox="0 0 48 48"
   height="48"
   width="48"
   sodipodi:docname="byte-drag-music.svg"
   inkscape:version="0.92.3 (2405546, 2018-03-11)">
  <sodipodi:namedview
     pagecolor="#ffffff"
     bordercolor="#666666"
     borderopacity="1"
     objecttolerance="10"
     gridtolerance="10"
     guidetolerance="10"
     inkscape:pageopacity="0"
     inkscape:pageshadow="2"
     inkscape:window-width="1366"
     inkscape:window-height="705"
     id="namedview14"
     showgrid="false"
     inkscape:zoom="4.9166667"
     inkscape:cx="24"
     inkscape:cy="24"
     inkscape:window-x="0"
     inkscape:window-y="30"
     inkscape:window-maximized="1"
     inkscape:current-layer="svg2" />
  <metadata
     id="metadata27">
    <rdf:RDF>
      <cc:Work
         rdf:about="">
        <dc:format>image/svg+xml</dc:format>
        <dc:type
           rdf:resource="http://purl.org/dc/dcmitype/StillImage" />
        <dc:title>dragdrop</dc:title>
      </cc:Work>
    </rdf:RDF>
  </metadata>
  <!-- Generator: Sketch 41 (35326) - http://www.bohemiancoding.com/sketch -->
  <title
     id="title4">dragdrop</title>
  <desc
     id="desc6">Created with Sketch.</desc>
  <defs
     id="defs8" />
  <path
     inkscape:connector-curvature="0"
     d="m 41,46 c 4,0 4,0 4,-4 M 45,8 C 45,4 45,4.0000002 41,4.0000002 M 3,42 c 0,4 0,4 4,4 M 7,4 C 2.9999998,4 3,4 3,8"
     id="path2387"
     style="opacity:0.3;fill:none;fill-rule:evenodd;stroke:#ffffff;stroke-width:2" />
  <path
     inkscape:connector-curvature="0"
     d="m 44,28 h 2 v 8 h -2 z m 0,-14 h 2 v 8 H 44 Z M 21,45 v 2 h -8 v -2 z m 14,0 v 2 H 27 V 45 Z M 4.0000005,22 h -2 v -8 h 2 z m 0,14 h -2 v -8 h 2 z M 27,5.0000005 v -2 h 8 v 2 z m -14,0 v -2 h 8 v 2 z"
     id="path2385"
     style="opacity:0.3;fill:#ffffff;fill-rule:evenodd;stroke:none;stroke-width:1" />
  <path
     inkscape:connector-curvature="0"
     d="m 44,27 h 2 v 8 h -2 z m 0,-14 h 2 v 8 H 44 Z M 21,44 v 2 h -8 v -2 z m 14,0 v 2 H 27 V 44 Z M 4.0000005,21 h -2 v -8 h 2 z m 0,14 h -2 v -8 h 2 z M 27,4.0000005 v -2 h 8 v 2 z m -14,0 v -2 h 8 v 2 z"
     id="path3318"
     style="opacity:0.5;fill:#000000;fill-rule:evenodd;stroke:none;stroke-width:1" />
  <path
     inkscape:connector-curvature="0"
     d="m 41,45 c 4,0 4,0 4,-4 M 45,7 C 45,3 45,3.0000002 41,3.0000002 M 3,41 c 0,4 0,4 4,4 M 7,3 C 2.9999998,3 3,3 3,7"
     id="path6300"
     style="opacity:0.5;fill:none;fill-rule:evenodd;stroke:#000000;stroke-width:2" />
  <path
     inkscape:connector-curvature="0"
     d="m 29.37,17 -7.376,1.906 c -0.554,0.149 -1,0.74 -1,1.313 v 9.094 c -0.625993,-0.322462 -1.349459,-0.400867 -2.03,-0.22 -1.35,0.351 -2.196,1.485 -1.907,2.532 0.29,1.047 1.619,1.632 2.969,1.281 1.076,-0.28 1.819,-1.071 1.937,-1.906 l 0.031,-8.594 7,-1.875 v 6.781 c -0.626533,-0.322043 -1.350393,-0.39974 -2.031,-0.218 -1.35,0.35 -2.196,1.484 -1.906,2.531 0.289,1.047 1.619,1.632 2.968,1.281 1.077,-0.28 1.82,-1.071 1.938,-1.906 l 0.03,-11.188 c 0,-0.43 -0.265,-0.751 -0.624,-0.812 z"
     id="Shape"
     style="fill:#ffffff;fill-opacity:0.3;fill-rule:evenodd;stroke:none;stroke-width:1" />
  <path
     inkscape:connector-curvature="0"
     d="m 29.37,16 -7.376,1.906 c -0.554,0.149 -1,0.74 -1,1.313 v 9.094 c -0.625993,-0.322462 -1.349459,-0.400867 -2.03,-0.22 -1.35,0.351 -2.196,1.485 -1.907,2.532 0.29,1.047 1.619,1.632 2.969,1.281 1.076,-0.28 1.819,-1.071 1.937,-1.906 l 0.031,-8.594 7,-1.875 v 6.781 c -0.626533,-0.322043 -1.350393,-0.39974 -2.031,-0.218 -1.35,0.35 -2.196,1.484 -1.906,2.531 0.289,1.047 1.619,1.632 2.968,1.281 1.077,-0.28 1.82,-1.071 1.938,-1.906 l 0.03,-11.188 c 0,-0.43 -0.265,-0.751 -0.624,-0.812 z"
     id="path23"
     style="fill:#fe2851;fill-rule:evenodd;stroke:none;stroke-width:1;fill-opacity:1" />
</svg>
