<?xml version="1.0" encoding="UTF-8" standalone="no"?>
<svg
   xmlns:dc="http://purl.org/dc/elements/1.1/"
   xmlns:cc="http://creativecommons.org/ns#"
   xmlns:rdf="http://www.w3.org/1999/02/22-rdf-syntax-ns#"
   xmlns:svg="http://www.w3.org/2000/svg"
   xmlns="http://www.w3.org/2000/svg"
   xmlns:sodipodi="http://sodipodi.sourceforge.net/DTD/sodipodi-0.dtd"
   xmlns:inkscape="http://www.inkscape.org/namespaces/inkscape"
   version="1.1"
   id="Capa_1"
   x="0px"
   y="0px"
   viewBox="0 0 128 128"
   xml:space="preserve"
   width="128"
   height="128"
   class=""
   sodipodi:docname="radio-default-cover.svg"
   inkscape:version="0.92.3 (2405546, 2018-03-11)"><metadata
   id="metadata15"><rdf:RDF><cc:Work
       rdf:about=""><dc:format>image/svg+xml</dc:format><dc:type
         rdf:resource="http://purl.org/dc/dcmitype/StillImage" /><dc:title /></cc:Work></rdf:RDF></metadata><defs
   id="defs13" /><sodipodi:namedview
   pagecolor="#ffffff"
   bordercolor="#666666"
   borderopacity="1"
   objecttolerance="10"
   gridtolerance="10"
   guidetolerance="10"
   inkscape:pageopacity="0"
   inkscape:pageshadow="2"
   inkscape:window-width="1366"
   inkscape:window-height="705"
   id="namedview11"
   showgrid="false"
   inkscape:zoom="2.8836698"
   inkscape:cx="22.015804"
   inkscape:cy="67.666626"
   inkscape:window-x="0"
   inkscape:window-y="30"
   inkscape:window-maximized="1"
   inkscape:current-layer="Capa_1" /> <rect
   style="opacity:1;fill:#fe2851;fill-opacity:1;fill-rule:evenodd;stroke:none;stroke-width:0.7497772;stroke-miterlimit:4;stroke-dasharray:none;stroke-opacity:1"
   id="rect817"
   width="128"
   height="128"
   x="0"
   y="0"
   ry="0" /><g
   id="g852"
   transform="matrix(0.14285714,0,0,0.14285714,27.428572,27.42843)"
   style="fill:#ffffff;fill-opacity:1"><path
     id="path835"
     d="m 60,256 c 0,-51 18.6,-97.9 54,-135.6 5.3,-5.7 5.2,-14.8 -0.4,-20.3 -2.6,-2.6 -6.1,-4.1 -9.7,-4.1 -3.8,0 -7.4,1.6 -10.1,4.4 C 53.3,143.7 32,197.4 32,256 c 0,58.5 21.3,112.3 61.7,155.5 2.7,2.9 6.3,4.5 10.2,4.5 3.6,0 7.1,-1.4 9.7,-3.9 2.7,-2.6 4.3,-6.2 4.4,-10 0.1,-3.9 -1.3,-7.6 -4,-10.3 C 78.6,353.9 60,307 60,256 Z M 418.2,100.4 c -2.6,-2.8 -6.2,-4.4 -10,-4.4 -3.6,0 -7.1,1.4 -9.7,3.9 -2.7,2.6 -4.3,6.2 -4.4,10 -0.1,3.9 1.3,7.6 4,10.3 35.3,37.8 54,84.7 54,135.7 0,51 -18.6,97.9 -54,135.7 -5.3,5.6 -5.2,14.7 0.3,20.2 2.5,2.6 6,4 9.7,4 3.9,0 7.6,-1.6 10.2,-4.6 40.4,-43 61.7,-96.7 61.7,-155.2 0,-58.5 -21.3,-112.4 -61.8,-155.6 z"
     inkscape:connector-curvature="0"
     style="fill:#ffffff;fill-opacity:1" /><path
     id="path837"
     d="m 159.2,347.7 c -24.1,-24.3 -37.3,-56.6 -37.3,-90.9 0,-35 13.8,-67.9 38.8,-92.4 5.5,-5.3 5.6,-14.2 0.2,-19.8 -2.6,-2.7 -6.2,-4.2 -10,-4.2 -3.7,0 -7.2,1.4 -9.8,4 -30.4,29.8 -47.1,69.7 -47.1,112.4 0,41.6 16.1,80.9 45.3,110.6 2.7,2.7 6.2,4.2 9.9,4.2 3.7,0 7.2,-1.5 9.8,-4.2 2.6,-2.6 4.1,-6.1 4.1,-9.8 0.2,-3.7 -1.2,-7.2 -3.9,-9.9 z M 371,144.5 c -2.6,-2.6 -6,-4 -9.8,-4 -3.8,0 -7.3,1.5 -10,4.1 -5.4,5.4 -5.4,14.3 0.1,19.8 25,24.5 38.7,56.5 38.7,91.5 0,34.2 -13.1,67.4 -37.1,91.8 -5.4,5.4 -5.3,14.3 0.1,19.7 2.6,2.6 6.2,4.1 9.8,4.1 3.8,0 7.4,-1.5 9.9,-4.1 C 402,337.7 418,297.6 418,256 418,213.5 401.3,174.5 371,144.5 Z"
     inkscape:connector-curvature="0"
     style="fill:#ffffff;fill-opacity:1" /><path
     id="path839"
     d="m 207.1,183.4 c -2.6,-2.7 -6.2,-4.2 -10,-4.2 -3.7,0 -7.2,1.4 -9.8,4.1 -19.8,19.5 -30.8,45.6 -30.8,73.3 0,27.1 10.5,52.7 29.5,72.1 2.7,2.7 6.2,4.2 10,4.2 3.7,0 7.2,-1.4 9.8,-4 2.7,-2.6 4.2,-6.1 4.2,-9.9 0,-3.8 -1.4,-7.3 -4.1,-10 -13.8,-14 -21.4,-32.6 -21.4,-52.5 0,-20.3 8,-39.2 22.4,-53.4 5.4,-5.2 5.5,-14.1 0.2,-19.7 z m 118.6,-0.2 c -2.6,-2.6 -6,-4 -9.8,-4 -3.8,0 -7.3,1.5 -10,4.1 -5.4,5.4 -5.4,14.3 0.1,19.8 14.5,14.3 22.4,33.3 22.4,53.5 0,19.8 -7.6,38.5 -21.5,52.5 -2.6,2.6 -4.1,6.2 -4,9.9 0,3.7 1.5,7.2 4.1,9.8 2.6,2.6 6.2,4.1 9.8,4.1 3.7,0 7.3,-1.5 9.9,-4.2 19.1,-19.4 29.6,-45 29.6,-72.1 0.1,-27.8 -10.8,-53.8 -30.6,-73.4 z M 256,218 c -21,0 -38,17 -38,38 0,21 17,38 38,38 21,0 38,-17 38,-38 0,-21 -17.1,-38 -38,-38 z"
     inkscape:connector-curvature="0"
     style="fill:#ffffff;fill-opacity:1" /></g></svg>