<svg width="380" height="380" xmlns="http://www.w3.org/2000/svg" xmlns:xlink="http://www.w3.org/1999/xlink" overflow="hidden"><defs><clipPath id="clip0"><rect x="-1" y="-1" width="380" height="380"/></clipPath><linearGradient x1="224.363" y1="57.0381" x2="187.508" y2="194.582" gradientUnits="userSpaceOnUse" spreadMethod="reflect" id="fill1"><stop offset="0" stop-color="#903BE5"/><stop offset="0.68" stop-color="#B67EEE"/><stop offset="0.97345" stop-color="#C99FF3"/><stop offset="1" stop-color="#C99FF3"/></linearGradient><linearGradient x1="153.616" y1="320.956" x2="190.468" y2="183.423" gradientUnits="userSpaceOnUse" spreadMethod="reflect" id="fill2"><stop offset="0" stop-color="#0079BC"/><stop offset="0.49" stop-color="#00A1FF"/><stop offset="0.97345" stop-color="#79CFFF"/><stop offset="1" stop-color="#79CFFF"/></linearGradient></defs><g clip-path="url(#clip0)" transform="translate(1 1)"><path d="M98.0325 23.1881 350.667 90.9548C353.787 91.7724 355.654 94.9638 354.835 98.0833 354.834 98.0928 354.831 98.1021 354.828 98.1116L329.225 193.493C328.408 196.612 325.217 198.479 322.096 197.661 322.088 197.659 322.078 197.656 322.068 197.654L195.758 163.812 190.903 163.021C190.655 162.98 190.405 162.952 190.155 162.938 177.924 162.422 166.973 170.462 163.802 182.286 162.921 185.339 159.755 187.123 156.687 186.295L61.1809 160.733C58.062 159.913 56.1974 156.721 57.017 153.602 57.018 153.598 57.0189 153.594 57.0201 153.59L90.9451 27.3211C91.7851 24.2411 94.9382 22.4022 98.0325 23.1881Z" fill="url(#fill1)" fill-rule="evenodd"/><path d="M316.77 217.266C319.889 218.083 321.756 221.274 320.938 224.395 320.937 224.403 320.934 224.413 320.931 224.422L287.103 350.636C286.283 353.755 283.09 355.619 279.973 354.799 279.968 354.799 279.964 354.798 279.96 354.797L27.3113 287.113C24.1922 286.293 22.3279 283.1 23.1474 279.983 23.1484 279.978 23.1493 279.974 23.1504 279.97L48.7259 184.519C49.5528 181.395 52.7563 179.532 55.8813 180.359 55.8816 180.359 55.8822 180.359 55.8827 180.359L182.207 214.2C196.129 217.938 210.447 209.682 214.185 195.759 214.188 195.753 214.189 195.747 214.19 195.74 215.06 192.668 218.236 190.863 221.319 191.69L316.77 217.266Z" fill="url(#fill2)" fill-rule="evenodd"/></g></svg>