<?xml version="1.0" encoding="UTF-8" standalone="no"?>
<!-- Created with Inkscape (http://www.inkscape.org/) -->

<svg
   width="256"
   height="256"
   viewBox="0 0 67.733334 67.733334"
   version="1.1"
   id="svg1"
   xml:space="preserve"
   inkscape:version="1.3.2 (091e20ef0f, 2023-11-25)"
   sodipodi:docname="io.github.plrigaux.sysd-manager.svg"
   xmlns:inkscape="http://www.inkscape.org/namespaces/inkscape"
   xmlns:sodipodi="http://sodipodi.sourceforge.net/DTD/sodipodi-0.dtd"
   xmlns="http://www.w3.org/2000/svg"
   xmlns:svg="http://www.w3.org/2000/svg"
   xmlns:rdf="http://www.w3.org/1999/02/22-rdf-syntax-ns#"
   xmlns:cc="http://creativecommons.org/ns#"
   xmlns:dc="http://purl.org/dc/elements/1.1/"><title
     id="title5">Cogs</title><sodipodi:namedview
     id="namedview1"
     pagecolor="#ffffff"
     bordercolor="#000000"
     borderopacity="0.25"
     inkscape:showpageshadow="2"
     inkscape:pageopacity="0.0"
     inkscape:pagecheckerboard="0"
     inkscape:deskcolor="#d1d1d1"
     inkscape:document-units="mm"
     inkscape:zoom="1.5301741"
     inkscape:cx="86.591454"
     inkscape:cy="220.8899"
     inkscape:window-width="1920"
     inkscape:window-height="1014"
     inkscape:window-x="0"
     inkscape:window-y="0"
     inkscape:window-maximized="1"
     inkscape:current-layer="svg1" /><defs
     id="defs1" /><circle
     style="display:inline;fill:#ffff00;fill-opacity:1;stroke-width:0.230617"
     id="path2-6"
     cx="33.520191"
     cy="34.418514"
     r="13.249998" /><circle
     style="display:inline;fill:#999999;fill-opacity:1;stroke-width:0.32287"
     id="path2"
     cx="33.520191"
     cy="34.418514"
     r="17.5" /><g
     inkscape:label="Layer 1"
     inkscape:groupmode="layer"
     id="layer1"
     style="display:inline"
     transform="translate(-81.645675,-107.83806)" /><circle
     style="display:inline;fill:#f9f9f9;fill-opacity:1;stroke-width:0.0761327"
     id="path2-6-2"
     cx="33.520191"
     cy="34.418514"
     r="4.1265001" /><path
     style="display:inline;fill:#000000;stroke-width:2.33951"
     d="m 18.482856,59.587637 0.06632,-0.484977 c 0.857881,-1.799036 1.747323,-3.847261 2.598992,-5.716806 L 21.008166,53.178525 C 18.868674,51.19672 16.769888,49.194485 14.84531,47.024702 l -0.677143,0.155819 -0.677133,0.155808 -2.427309,0.807894 -2.4273075,0.807914 H 8.4398995 8.2433912 L 7.5263382,47.435229 6.809285,45.91834 5.9739756,43.867446 5.1386872,41.816581 l 0.5131976,-0.399567 0.5132081,-0.399567 2.6028456,-1.25871 2.6028235,-1.258711 0.0578,-3.98755 0.0578,-3.987549 -0.300677,-0.247918 C 9.2662845,29.174897 7.1615042,28.302223 5.14338,27.338521 5.590454,25.819982 5.6259634,25.365506 8.1744022,20.010006 l 0.3783393,-0.228408 c 2.0100095,0.809684 4.0777365,1.467779 6.1412005,2.140444 l 0.902054,-0.996093 c 0.250086,-0.276148 3.187404,-3.465573 4.795315,-4.737004 l 0.685945,-0.542386 c -1.716593,-4.635145 -0.08085,0.211329 -2.665442,-6.2231528 2.359542,-1.3678597 4.878923,-2.388542 7.42298,-3.3863944 l 0.142522,0.136169 0.142533,0.1361589 1.50343,2.8526784 1.50342,2.8526789 8.820097,0.014 1.503336,-2.8701588 1.503357,-2.8701483 0.244619,-0.091499 0.244618,-0.091599 c 3.964449,1.6371676 6.241918,2.6817397 6.892522,3.1571161 l 0.365632,0.267148 c -0.182895,1.37419 -2.414528,5.061492 -2.562819,6.101014 1.412578,1.231661 3.147552,3.020678 6.188249,6.329532 2.189901,-0.741114 4.188948,-1.428469 6.243602,-2.221723 1.594789,2.197974 3.331784,6.847648 3.331784,7.620823 -2.085089,1.154971 -4.557013,1.718977 -6.353679,3.293075 0.658089,3.8971 -0.144396,7.041086 0.07411,7.633532 1.766431,1.28198 4.235576,2.236093 6.279418,3.255485 0,0.688425 -1.042029,3.529544 -3.09822,7.412084 h -0.0074 -0.0074 c -2.102776,-0.674835 -4.179274,-1.412829 -6.335761,-1.922075 l -6.286902,6.240862 c 0.443978,2.137774 2.156486,4.115919 2.405674,6.348542 -1.813741,0.906544 -5.53155,2.67648 -7.625156,3.060237 l -1.499472,-2.993187 -1.499472,-2.993167 -8.778777,0.049 -1.524096,3.000707 -1.524075,3.000718 -0.208109,0.055 z m 19.674063,-9.3447 1.613159,-0.462376 1.220429,-0.601546 1.220428,-0.601545 0.874851,-0.582336 0.874851,-0.582305 1.310461,-1.33452 1.31046,-1.33451 0.609736,-0.782934 0.609703,-0.782924 0.725549,-1.467979 0.725549,-1.467969 0.296309,-0.880783 0.296309,-0.880784 0.239618,-1.21532 0.239628,-1.215321 -0.100854,-2.405682 -0.100854,-2.405672 -0.389499,-1.370119 -0.389467,-1.37011 -0.63338,-1.29372 -0.63338,-1.29371 L 46.863181,24.316094 45.649806,22.721406 44.20394,21.553035 42.758074,20.384693 40.953966,19.51265 39.149847,18.640577 38.297914,18.431358 37.445961,18.22238 36.670995,18.026571 35.89603,17.830763 h -2.302199 -2.30221 l -0.581153,0.171308 -0.581174,0.171299 -1.10252,0.249998 -1.102499,0.249988 -0.300688,0.145879 -0.300678,0.145639 -0.900043,0.362627 -0.900043,0.362598 -1.505445,1.094001 -1.505444,1.093972 -0.911835,0.961193 -0.911834,0.961163 -0.805222,1.174381 -0.805221,1.174381 -0.411933,0.880783 -0.411965,0.880783 -0.402753,1.174382 -0.402732,1.174371 -0.224447,0.932553 -0.224448,0.932523 v 2.245253 2.245283 l 0.230838,0.932522 0.230848,0.932523 0.396426,1.174382 0.396458,1.174381 0.686955,1.30643 0.686965,1.30642 c 0.0074,0.004 0.0021,0.135449 0.578616,0.918313 l 1.753987,1.677047 1.754016,1.677078 1.102497,0.682334 1.10252,0.682345 0.902064,0.393047 0.902055,0.393047 1.202742,0.343118 1.202742,0.343107 0.200529,0.0654 0.20054,0.0654 3.006851,0.0116 3.00685,0.0116 z m -6.524373,-1.402499 -0.501154,-0.0855 -1.102499,-0.236049 -1.10252,-0.236078 -1.584188,-0.753524 -1.584177,-0.753524 -1.187919,-0.892524 -1.187928,-0.892533 -0.896136,-1.102132 -0.896138,-1.102121 -0.695513,-1.199851 -0.695504,-1.199831 -0.536379,-1.442519 -0.536379,-1.442499 -0.0798,-2.66806 -0.0798,-2.66806 0.429598,-1.529058 0.42963,-1.529049 0.788672,-1.479068 0.788672,-1.479049 1.010446,-1.218391 1.010465,-1.218401 1.224933,-0.967772 1.224945,-0.967783 1.225619,-0.592136 1.225629,-0.592155 1.002276,-0.333988 1.002298,-0.333977 2.587959,-0.0925 2.58798,-0.0925 1.120491,0.236148 1.120459,0.236139 2.205303,1.025252 2.205303,1.025242 1.60339,1.552638 1.603379,1.552649 0.854112,1.407159 0.854133,1.407149 0.611167,1.821627 0.611178,1.821626 v 2.544481 2.54449 l -0.598671,1.784247 -0.59865,1.784226 -0.653572,1.053842 -0.653562,1.053842 -0.978474,1.174381 -0.978473,1.174382 -1.239158,0.935732 -1.239178,0.935733 -1.29948,0.612906 -1.29948,0.612915 -1.206227,0.362067 -1.206217,0.362098 -2.104796,0.0825 -2.104797,0.0825 z m -0.13709,-2.852658 0.437841,-0.224009 0.753353,-0.657765 0.753363,-0.657745 1.108678,0.881734 1.108658,0.881723 h 0.169757 0.169515 l 1.075411,-0.327708 1.075433,-0.327717 0.228237,-0.167379 0.228238,-0.167369 0.13969,-1.091781 0.13969,-1.091782 0.634349,0.131539 0.634349,0.131549 0.61821,0.105639 0.618178,0.105649 0.967147,-1.105351 0.967114,-1.105342 -0.215215,-0.917983 -0.215215,-0.918003 0.09138,-0.144259 0.09138,-0.144249 0.973883,-0.126229 0.973884,-0.126219 0.348483,-1.102832 0.348515,-1.102851 0.08285,-0.144489 0.08285,-0.144479 -0.946607,-0.988153 -0.946585,-0.988112 0.446095,-0.305108 0.446105,-0.305087 0.524831,-0.440787 0.524799,-0.440787 -0.262147,-0.959663 -0.262137,-0.959662 -0.269831,-0.427837 -0.269843,-0.427837 -0.921783,-0.135009 -0.921804,-0.135009 -0.197497,-0.502486 0.193202,-0.653925 0.193191,-0.653905 0.132595,-0.315288 0.132584,-0.315277 -1.033133,-1.103752 -1.033143,-1.103782 h -0.451106 -0.451117 l -0.646476,0.220079 -0.646477,0.220088 -0.381182,-0.372197 -0.121214,-0.999493 -0.121225,-0.999492 -0.524925,-0.186099 -0.524915,-0.186098 -0.844953,-0.247498 -0.844952,-0.247498 -1.077918,0.811983 -1.077896,0.811984 h -0.33904 l -1.114974,-0.854293 -1.114995,-0.854314 -1.051577,0.322238 -1.051588,0.322267 -0.323796,0.316158 -0.323796,0.316158 -0.104644,0.905453 -0.104434,0.905443 -0.27938,0.168799 -0.914645,-0.268758 -0.914656,-0.268798 -0.38772,0.265188 -0.387719,0.265158 -0.762059,0.908043 -0.762067,0.908063 0.334119,1.010102 0.334092,1.010083 -0.693561,0.495186 h -0.64022 -0.640222 l -0.305025,0.454536 -0.305015,0.454567 -0.253451,0.825944 -0.25343,0.825923 0.978884,0.970413 0.978914,0.970413 -0.939583,0.931413 -0.939564,0.931433 0.29453,0.955622 0.29455,0.955613 0.207646,0.244238 0.207635,0.244239 0.92076,0.226328 0.920746,0.226318 -0.117204,0.627205 -0.117193,0.627236 -0.118856,0.393387 -0.118861,0.393377 1.063187,1.115241 1.063189,1.115242 c 0.667353,-0.124829 1.317987,-0.483657 1.999963,-0.305848 l 0.305299,0.114439 c 0.247703,0.290308 0.179874,-0.004 0.309869,0.874444 0.05853,0.701574 -0.0053,0.964912 0.15466,1.486608 0.757827,0.079 1.511505,0.292108 2.241802,0.555416 l 0.06327,0.0139 0.06317,0.0139 z m 0.226111,-7.582933 -0.813012,-0.360567 -0.716843,-0.817694 -0.716811,-0.817694 -0.250324,-0.872993 -0.250325,-0.872974 0.117193,-0.705434 0.117193,-0.705435 0.429419,-0.811084 0.42943,-0.811084 0.32647,-0.357727 0.326471,-0.357697 0.882799,-0.392677 0.88281,-0.392677 0.675311,-0.10704 0.675312,-0.107039 0.951891,0.260238 0.951903,0.260238 0.917813,0.896184 0.917825,0.896183 0.235586,0.913103 0.235575,0.913103 -0.0011,0.451576 -0.0011,0.451587 -0.212604,0.747854 -0.212614,0.747835 -0.738361,0.799664 -0.738383,0.799644 -0.801831,0.356567 -0.801811,0.356567 h -1.002214 -1.002277 z m 4.733171,-2.808619 0.04369,-2.260583 -1.479606,-1.571448 -2.450638,-0.0876 c 0,0 -0.112697,0.0306 -1.938598,1.735927 v 2.281362 l 1.751365,1.710068 h 2.198482 c 0.454264,-0.298138 1.420821,-1.509399 1.874969,-1.807697 z"
     id="path1"
     sodipodi:nodetypes="cccccccccccccccccccccccccccccccccccccccccccccccccccccccccccccccccccccccccccccccccccccccccccccccccccccccccccccccccccccccccccccccccccccccccccccccccccccccccccccccccccccccccccccccccccccccccccccccccccccccccccccccccccccccccccccccccccccccccccccccccccccccccccccccccccccccccccccccccccccccccccccccccccccccccccccccccccccccccccccccccccccccccccccccccccccccccccccc" /><metadata
     id="metadata5"><rdf:RDF><cc:Work
         rdf:about=""><dc:title>Cogs</dc:title></cc:Work></rdf:RDF></metadata></svg>
