<svg xmlns="http://www.w3.org/2000/svg" width="512" height="512" fill="none" viewBox="0 0 512 512"><rect width="512" height="512" fill="url(#a)" rx="40"/><path fill="#d7d7ff" d="M144.755 158.63c53.988 0 97.755 43.767 97.755 97.755 0 53.989-43.767 97.755-97.755 97.755C90.766 354.14 47 310.374 47 256.385s43.766-97.755 97.755-97.755m-8.453 23.756c-4.146 0-7.719 2.919-8.537 6.955l-3.955 19.066c-3.819 1.664-7.42 3.736-10.72 6.219l-18.492-6.137a8.715 8.715 0 0 0-10.31 3.928l-8.156 14.127c-2.046 3.574-1.336 8.128 1.773 10.883l14.565 12.956a58 58 0 0 0-.355 6.192c0 2.1.11 4.173.355 6.191l-14.565 12.956a8.7 8.7 0 0 0-1.773 10.883l8.155 14.129a8.72 8.72 0 0 0 10.31 3.928l18.575-6.137c3.3 2.482 6.874 4.582 10.72 6.219l3.926 19.065c.819 4.037 4.393 6.955 8.538 6.955h16.311a8.724 8.724 0 0 0 8.537-6.955l3.928-19.065c3.818-1.664 7.418-3.737 10.719-6.219l18.493 6.137c3.927 1.309 8.236-.355 10.309-3.928l8.156-14.129c2.045-3.573 1.337-8.128-1.773-10.883l-14.565-12.956c.218-2.018.354-4.091.354-6.191s-.109-4.173-.354-6.192l14.538-12.928a8.7 8.7 0 0 0 1.772-10.883l-8.155-14.128a8.716 8.716 0 0 0-10.31-3.928l-18.493 6.137a50.5 50.5 0 0 0-10.719-6.219l-3.955-19.093c-.818-4.036-4.391-6.955-8.537-6.955zm7.991 52.368a21.83 21.83 0 0 1 20.21 13.395 21.82 21.82 0 0 1-4.641 23.798 21.82 21.82 0 0 1-30.858.115 21.82 21.82 0 0 1 15.289-37.308"/><path fill="#6b69e0" d="m279.94 257.05 169.575-97.904v195.808z"/><defs><linearGradient id="a" x1="17" x2="500" y1="0" y2="509.5" gradientUnits="userSpaceOnUse"><stop stop-color="#4648d8"/><stop offset="1" stop-color="#302282"/></linearGradient></defs></svg>