<?xml version="1.0" encoding="UTF-8"?>
<svg width="128" height="128" viewBox="0 0 128 128" xmlns="http://www.w3.org/2000/svg">
  <!-- Background circle -->
  <circle cx="64" cy="64" r="60" fill="#2d3748" stroke="#4a5568" stroke-width="2"/>

  <!-- Lock icon -->
  <g transform="translate(64, 64)">
    <!-- Lock body -->
    <rect x="-16" y="-8" width="32" height="24" rx="4" fill="#68d391" stroke="#38a169" stroke-width="2"/>

    <!-- Lock shackle -->
    <path d="M -12 -8 L -12 -20 Q -12 -28 0 -28 Q 12 -28 12 -20 L 12 -8"
          fill="none" stroke="#68d391" stroke-width="3" stroke-linecap="round"/>

    <!-- Keyhole -->
    <circle cx="0" cy="0" r="3" fill="#2d3748"/>
    <rect x="-1" y="0" width="2" height="6" fill="#2d3748"/>

    <!-- Quantum particles effect -->
    <g opacity="0.7">
      <circle cx="-25" cy="-25" r="2" fill="#9f7aea">
        <animate attributeName="opacity" values="0.3;1;0.3" dur="2s" repeatCount="indefinite"/>
      </circle>
      <circle cx="25" cy="-25" r="2" fill="#9f7aea">
        <animate attributeName="opacity" values="1;0.3;1" dur="2s" repeatCount="indefinite"/>
      </circle>
      <circle cx="-25" cy="25" r="2" fill="#9f7aea">
        <animate attributeName="opacity" values="0.3;1;0.3" dur="2.5s" repeatCount="indefinite"/>
      </circle>
      <circle cx="25" cy="25" r="2" fill="#9f7aea">
        <animate attributeName="opacity" values="1;0.3;1" dur="1.5s" repeatCount="indefinite"/>
      </circle>
    </g>

    <!-- Circuit pattern -->
    <g stroke="#4fd1c7" stroke-width="1" fill="none" opacity="0.6">
      <path d="M -30 -10 L -20 -10 L -20 -5 L -15 -5"/>
      <path d="M 30 -10 L 20 -10 L 20 -5 L 15 -5"/>
      <path d="M -30 10 L -20 10 L -20 15 L -15 15"/>
      <path d="M 30 10 L 20 10 L 20 15 L 15 15"/>
      <circle cx="-20" cy="-10" r="1" fill="#4fd1c7"/>
      <circle cx="20" cy="-10" r="1" fill="#4fd1c7"/>
      <circle cx="-20" cy="10" r="1" fill="#4fd1c7"/>
      <circle cx="20" cy="10" r="1" fill="#4fd1c7"/>
    </g>
  </g>

  <!-- Text -->
  <text x="64" y="110" text-anchor="middle" font-family="Arial, sans-serif" font-size="12" font-weight="bold" fill="#e2e8f0">
    OpenSSL Encrypt
  </text>
</svg>
