<?xml version="1.0" encoding="UTF-8" standalone="no"?>
<svg
   width="1200"
   height="1200"
   viewBox="0 0 1200 1200"
   version="1.1"
   id="svg23"
   sodipodi:docname="fontrapak.svg"
   inkscape:export-filename="fontrapak.png"
   inkscape:export-xdpi="96"
   inkscape:export-ydpi="96"
   inkscape:version="1.2.2 (b0a8486541, 2022-12-01)"
   xmlns:inkscape="http://www.inkscape.org/namespaces/inkscape"
   xmlns:sodipodi="http://sodipodi.sourceforge.net/DTD/sodipodi-0.dtd"
   xmlns="http://www.w3.org/2000/svg"
   xmlns:svg="http://www.w3.org/2000/svg">
  <defs
     id="defs27">
    <rect
       x="404.54354"
       y="1055.997"
       width="715.45291"
       height="83.385301"
       id="rect187" />
  </defs>
  <sodipodi:namedview
     id="namedview25"
     pagecolor="#ffffff"
     bordercolor="#111111"
     borderopacity="1"
     inkscape:showpageshadow="0"
     inkscape:pageopacity="0"
     inkscape:pagecheckerboard="1"
     inkscape:deskcolor="#d1d1d1"
     showgrid="false"
     inkscape:zoom="0.46"
     inkscape:cx="454.34783"
     inkscape:cy="601.08696"
     inkscape:window-width="1366"
     inkscape:window-height="699"
     inkscape:window-x="0"
     inkscape:window-y="32"
     inkscape:window-maximized="1"
     inkscape:current-layer="svg23" />
  <path
     d="M0,2.75 l0.0,4.5 c0.0,1.52,1.23,2.75,2.75,2.75 l4.5,0 c1.52,0,2.75,-1.23,2.75,-2.75 l0,-4.5 c0,-1.52,-1.23,-2.75,-2.75,-2.75 l-4.5,0.0 c-1.52,0.0,-2.75,1.23,-2.75,2.75 Z M0,2.75"
     fill="rgb(242,24,89)"
     transform="matrix(120.0,0.0,0.0,-120.0,0.0,1200.0)"
     id="path2" />
  <clipPath
     id="clip5">
    <path
       clip-rule="evenodd"
       d="M0,2.75 l0.0,4.5 c0.0,1.52,1.23,2.75,2.75,2.75 l4.5,0 c1.52,0,2.75,-1.23,2.75,-2.75 l0,-4.5 c0,-1.52,-1.23,-2.75,-2.75,-2.75 l-4.5,0.0 c-1.52,0.0,-2.75,1.23,-2.75,2.75 Z M0,2.75"
       transform="matrix(120.0,0.0,0.0,-120.0,0.0,1200.0)"
       id="path4" />
  </clipPath>
  <g
     clip-path="url(#clip5)"
     id="g9">
    <path
       d="M0.96,5.29 l-0.71,-0.71 l0,-1.0 l1.25,0 l0,-3.29 l-0.54,0 l-0.71,-0.71 l0,-1 l4.4,0 l0.71,0.71 l0,1 l-1.4,0 l0,0.69 l1.54,0 l0.71,0.71 l0,0.89 l0.54,0 l0.71,0.71 l0,2.0 Z M3.96,2.69 l0,0.89 l1.79,0 l0,-0.89 Z M3.96,2.69"
       fill="rgb(196,19,83)"
       transform="matrix(120.0,0.0,0.0,-120.0,137.57359312880715,912.7735931288072)"
       id="path7" />
  </g>
  <g
     clip-path="url(#clip5)"
     id="g13">
    <path
       d="M1.5,5 l-1.25,0 l0.71,-0.71 l0.54,0 Z M5.75,5 l-2.5,0 l0.71,-0.71 l1.79,0 Z M5.75,4 l0.71,-0.71 l1,0 l-0.71,0.71 Z M3.25,2.4 l0.71,-0.71 l2.25,0 l-0.71,0.71 Z M0.25,0 l0.71,-0.71 l4.4,0 l-0.71,0.71 Z M0.25,0"
       fill="rgb(4,35,45)"
       transform="matrix(120.0,0.0,0.0,-120.0,137.57359312880715,912.7735931288072)"
       id="path11" />
  </g>
  <g
     clip-path="url(#clip5)"
     id="g17">
    <path
       d="M6.75,4 l0.71,-0.71 l0,2.0 l-0.71,0.71 Z M3.96,4.29 l-0.71,0.71 l0,-1.6 l0.71,0 Z M5.5,2.4 l0.71,-0.71 l0,1 l-0.71,0.71 Z M3.96,1.69 l-0.71,0.71 l0,-1.4 l0.71,0 Z M4.65,0 l0.71,-0.71 l0,1 l-0.71,0.71 Z M4.65,0"
       fill="rgb(9,74,94)"
       transform="matrix(120.0,0.0,0.0,-120.0,137.57359312880715,912.7735931288072)"
       id="path15" />
  </g>
  <g
     clip-path="url(#clip5)"
     id="g21">
    <path
       d="M0.25,6 l0,-1 l1.25,0 l0,-4 l-1.25,0 l0,-1 l4.4,0 l0,1 l-1.4,0 l0,1.4 l2.25,0 l0,1 l-2.25,0 l0,1.6 l2.5,0 l0,-1 l1,0 l0,2 Z M0.25,6"
       fill="rgb(255,255,255)"
       transform="matrix(120.0,0.0,0.0,-120.0,137.57359312880715,912.7735931288072)"
       id="path19" />
  </g>
  <text
     xml:space="preserve"
     id="text185"
     style="font-stretch:extra-expanded;font-size:64px;line-height:1.25;font-family:Samaano;-inkscape-font-specification:'Samaano weight=175 Extra-Expanded';white-space:pre;shape-inside:url(#rect187)"><tspan
       x="404.54297"
       y="1115.1836"
       id="tspan257">FONTRA FLATPAK</tspan></text>
</svg>
