<?xml version="1.0" encoding="UTF-8"?>
<svg height="128px" viewBox="0 0 128 128" width="128px" xmlns="http://www.w3.org/2000/svg" xmlns:xlink="http://www.w3.org/1999/xlink">
    <filter id="a" height="100%" width="100%" x="0%" y="0%">
        <feColorMatrix color-interpolation-filters="sRGB" values="0 0 0 0 1 0 0 0 0 1 0 0 0 0 1 0 0 0 1 0"/>
    </filter>
    <linearGradient id="b" gradientTransform="matrix(0.103704 0 0 0.102888 68.403058 14.400212)" gradientUnits="userSpaceOnUse" x1="363.596527" x2="267.569244" y1="297.688202" y2="153.438431">
        <stop offset="0" stop-color="#fc6801"/>
        <stop offset="1" stop-color="#f44125"/>
    </linearGradient>
    <linearGradient id="c" gradientTransform="matrix(-0.103704 0 0 -0.102888 59.714474 114.98746)" gradientUnits="userSpaceOnUse" x1="363.596527" x2="267.569244" y1="297.688202" y2="153.438431">
        <stop offset="0" stop-color="#1fa227"/>
        <stop offset="1" stop-color="#61b933"/>
    </linearGradient>
    <linearGradient id="d" gradientTransform="matrix(0.103704 0 0 0.102888 111.003489 42.83389)" gradientUnits="userSpaceOnUse" x1="-375.724731" x2="-18.996889" y1="538.284607" y2="163.242615">
        <stop offset="0" stop-color="#fcb801"/>
        <stop offset="1" stop-color="#fca301"/>
    </linearGradient>
    <linearGradient id="e" gradientTransform="matrix(-0.103704 0 0 -0.102888 17.150583 86.561743)" gradientUnits="userSpaceOnUse" x1="-375.724731" x2="-18.996889" y1="538.284607" y2="163.242615">
        <stop offset="0" stop-color="#6e379d"/>
        <stop offset="1" stop-color="#0b79ec"/>
    </linearGradient>
    <clipPath id="f">
        <rect height="128" width="128"/>
    </clipPath>
    <clipPath id="g">
        <rect height="128" width="128"/>
    </clipPath>
    <mask id="h">
        <g filter="url(#a)">
            <g clip-path="url(#g)" filter="url(#a)">
                <g clip-path="url(#f)">
                    <path d="m 87.289062 64.714844 c 0.214844 -11.503906 -9.667968 -23.171875 -23.183593 -23.1875 l 7.628906 -15.394532 c 1.488281 -2.734374 0.074219 -3.289062 -2.007813 -4.3125 l -15.90625 -5.558593 c 29.761719 -6.25 50.472657 12.558593 57.097657 27.25 c 5.820312 8.917969 -8.199219 20.175781 -23.628907 21.203125 z m 0 0" fill="url(#b)"/>
                    <path d="m 40.828125 64.675781 c -0.214844 11.5 9.667969 23.167969 23.183594 23.183594 l -7.628907 15.394531 c -1.488281 2.734375 -0.074218 3.289063 2.007813 4.316406 l 15.90625 5.554688 c -29.761719 6.253906 -50.46875 -12.558594 -57.097656 -27.25 c -5.820313 -8.917969 8.199219 -20.175781 23.628906 -21.199219 z m 0 0" fill="url(#c)"/>
                    <path d="m 111.59375 44.875 c 12.203125 30.878906 -5.882812 55.664062 -23.71875 64.136719 c 0.0625 0.742187 1.828125 6.449219 2.164062 8.425781 c -0.246093 1.292969 -1.289062 0.613281 -3 0.023438 c -10.308593 -3.558594 -19.949218 -6.769532 -28.511718 -9.839844 c -3.550782 -1.578125 -3.425782 -2.371094 -1.085938 -6.457032 l 10.507813 -21.332031 c 1.511719 -2.976562 2.839843 -2.335937 4.066406 -1.757812 l 2.007813 7.535156 c 13.90625 -6.890625 13.265624 -20.894531 13.265624 -20.894531 c 13.46875 -0.570313 28.414063 -11.589844 24.304688 -19.839844 z m 0 0" fill="url(#d)"/>
                    <path d="m 16.558594 84.519531 c -12.203125 -30.875 5.882812 -55.660156 23.71875 -64.136719 c -0.0625 -0.738281 -1.828125 -6.445312 -2.164063 -8.425781 c 0.246094 -1.292969 1.289063 -0.613281 3.003907 -0.023437 c 10.308593 3.558594 19.945312 6.769531 28.511718 9.839844 c 3.550782 1.582031 3.40625 2.375 1.070313 6.460937 l -10.550781 21.328125 c -1.511719 2.976562 -2.78125 2.335938 -4.011719 1.761719 l -2.003907 -7.539063 c -13.90625 6.890625 -13.269531 20.898438 -13.269531 20.898438 c -13.46875 0.566406 -28.410156 11.589844 -24.304687 19.835937 z m 0 0" fill="url(#e)"/>
                </g>
            </g>
        </g>
    </mask>
    <mask id="i">
        <g filter="url(#a)">
            <rect fill-opacity="0.8" height="184.32" width="184.32" x="-28.16" y="-28.16"/>
        </g>
    </mask>
    <linearGradient id="j" gradientTransform="matrix(0 0.37 -0.98462 0 295.38501 -30.360001)" gradientUnits="userSpaceOnUse" x1="300" x2="428" y1="235" y2="235">
        <stop offset="0" stop-color="#f9f06b"/>
        <stop offset="1" stop-color="#f5c211"/>
    </linearGradient>
    <clipPath id="k">
        <rect height="128" width="128"/>
    </clipPath>
    <clipPath id="l">
        <rect height="128" width="128"/>
    </clipPath>
    <path d="m 87.289062 64.714844 c 0.214844 -11.503906 -9.667968 -23.171875 -23.183593 -23.1875 l 7.628906 -15.394532 c 1.488281 -2.734374 0.074219 -3.289062 -2.007813 -4.3125 l -15.90625 -5.558593 c 29.761719 -6.25 50.472657 12.558593 57.097657 27.25 c 5.820312 8.917969 -8.199219 20.175781 -23.628907 21.203125 z m 0 0" fill="url(#b)"/>
    <path d="m 40.828125 64.675781 c -0.214844 11.5 9.667969 23.167969 23.183594 23.183594 l -7.628907 15.394531 c -1.488281 2.734375 -0.074218 3.289063 2.007813 4.316406 l 15.90625 5.554688 c -29.761719 6.253906 -50.46875 -12.558594 -57.097656 -27.25 c -5.820313 -8.917969 8.199219 -20.175781 23.628906 -21.199219 z m 0 0" fill="url(#c)"/>
    <path d="m 111.59375 44.875 c 12.203125 30.878906 -5.882812 55.664062 -23.71875 64.136719 c 0.0625 0.742187 1.828125 6.449219 2.164062 8.425781 c -0.246093 1.292969 -1.289062 0.613281 -3 0.023438 c -10.308593 -3.558594 -19.949218 -6.769532 -28.511718 -9.839844 c -3.550782 -1.578125 -3.425782 -2.371094 -1.085938 -6.457032 l 10.507813 -21.332031 c 1.511719 -2.976562 2.839843 -2.335937 4.066406 -1.757812 l 2.007813 7.535156 c 13.90625 -6.890625 13.265624 -20.894531 13.265624 -20.894531 c 13.46875 -0.570313 28.414063 -11.589844 24.304688 -19.839844 z m 0 0" fill="url(#d)"/>
    <path d="m 16.558594 84.519531 c -12.203125 -30.875 5.882812 -55.660156 23.71875 -64.136719 c -0.0625 -0.738281 -1.828125 -6.445312 -2.164063 -8.425781 c 0.246094 -1.292969 1.289063 -0.613281 3.003907 -0.023437 c 10.308593 3.558594 19.945312 6.769531 28.511718 9.839844 c 3.550782 1.582031 3.40625 2.375 1.070313 6.460937 l -10.550781 21.328125 c -1.511719 2.976562 -2.78125 2.335938 -4.011719 1.761719 l -2.003907 -7.539063 c -13.90625 6.890625 -13.269531 20.898438 -13.269531 20.898438 c -13.46875 0.566406 -28.410156 11.589844 -24.304687 19.835937 z m 0 0" fill="url(#e)"/>
    <g mask="url(#h)">
        <g clip-path="url(#l)">
            <g mask="url(#i)">
                <g clip-path="url(#k)">
                    <path d="m 128 80.640625 v 47.359375 h -128 v -47.359375 z m 0 0" fill="url(#j)"/>
                    <path d="m 13.308594 80.640625 l 47.355468 47.359375 h 21.214844 l -47.359375 -47.359375 z m 42.421875 0 l 47.363281 47.359375 h 21.214844 l -47.363282 -47.359375 z m 42.429687 0 l 29.839844 29.839844 v -21.210938 l -8.628906 -8.628906 z m -98.160156 7.90625 v 21.214844 l 18.238281 18.238281 h 21.214844 z m 0 0"/>
                </g>
            </g>
        </g>
    </g>
</svg>
