<svg xmlns="http://www.w3.org/2000/svg" version="1.1" xmlns:xlink="http://www.w3.org/1999/xlink" xmlns:svgjs="http://svgjs.dev/svgjs" width="512" height="512"><svg id="SvgjsSvg1001" xmlns="http://www.w3.org/2000/svg" width="512" height="512" viewBox="0 0 512 512"><rect x=".02" y="0" width="512" height="512" fill="#20434f"></rect><polygon points="255.98 342.75 271.89 333.57 271.89 267.12 329.08 234.1 329.08 215.78 313.18 206.6 255.6 239.84 198.83 207.06 182.93 216.24 182.93 234.56 240.12 267.58 240.12 333.59 255.98 342.75" fill="#e2baff"></polygon><polygon points="401.95 150.82 256 66.56 256 66.56 256 66.56 110.05 150.82 110.05 187.5 256 103.24 401.95 187.5 401.95 150.82" fill="#e2baff"></polygon><polygon points="401.95 324.5 256 408.76 110.06 324.5 110.06 361.17 256 445.43 256 445.43 256 445.43 401.95 361.17 401.95 324.5" fill="#e2baff"></polygon></svg><style>@media (prefers-color-scheme: light) { :root { filter: none; } }
@media (prefers-color-scheme: dark) { :root { filter: none; } }
</style></svg>