<svg xmlns="http://www.w3.org/2000/svg" width="512" height="512" viewBox="0 0 1024 1024">
  <path d="M981.322 170.224c-11.782 0-21.342-9.56-21.342-21.31V127.57c0-11.78 9.56-21.342 21.342-21.342s21.31 9.562 21.31 21.342v21.344c0 11.75-9.528 21.31-21.31 21.31z" fill="#AAB2BC" />
  <path d="M575.996 981.3c-11.782 0-21.344-9.56-21.344-21.31v-85.308c0-11.812 9.562-21.374 21.344-21.374s21.344 9.56 21.344 21.374v85.308c0 11.75-9.562 21.31-21.344 21.31z" fill="#F6BB42" />
  <path d="M661.334 981.3h-127.992c-11.782 0-21.342-9.56-21.342-21.31 0-11.812 9.562-21.312 21.342-21.312h127.992c11.782 0 21.312 9.5 21.312 21.312 0 11.75-9.53 21.31-21.312 21.31z" fill="#FFCE54" />
  <path d="M1002.632 170.224h-91.62c-11.782 0-21.312-9.56-21.312-21.31 0-11.812 9.532-21.344 21.312-21.344h91.62c11.782 0 21.344 9.532 21.344 21.344 0 11.75-9.562 21.31-21.344 21.31z" fill="#CCD1D9" />
  <path d="M575.996 640.566c-47.044 0-85.324 38.31-85.324 85.372 0 22.124 8.39 61.998 19.968 94.684 17.92 50.748 39.294 75.374 65.356 75.374s47.436-24.624 65.374-75.374c11.56-32.686 19.964-72.56 19.964-94.684 0-47.062-38.278-85.372-85.338-85.372z" fill="#434A54" />
  <path d="M956.542 117.822a21.268 21.268 0 0 0 1.906-19.5c-0.906-2.282-23-55.624-94.308-55.624-7.876 0-16.154 0.688-24.624 2.032-51.468 8.188-83.216 74.28-119.964 150.838-27.906 58.092-56.75 118.182-93.714 150.9-23.78 21.06-94.09 64.84-294.128 153.9-120.808 53.764-232.49 98.7-233.6 99.2-8.172 3.25-13.5 11.25-13.376 20.062s5.656 16.624 13.938 19.686c192.836 71.372 355.782 107.558 484.324 107.558h0.032c134.526 0 234.584-39.312 297.362-116.932 80.374-99.326 98.308-259.726 53.31-476.842l22.842-35.278z" fill="#656D78" />
  <path d="M495.578 699.188l-298.66-70.494c-5.25-1.188-10.764-0.438-15.452 2.25l-170.664 97.18c-8.61 4.876-12.704 15.062-9.906 24.56a21.356 21.356 0 0 0 20.452 15.312c0.406 0 0.812 0 1.218-0.062l469.326-26.686c10.578-0.624 19.108-8.876 20.03-19.438s-6.032-20.186-16.344-22.622z" fill="#656D78" />
  <path d="M944.418 477.088c-45.342-120.34-130.65-145.62-194.242-145.62-83.31 0-161.086 41.936-180.804 53.404-1.532 0.438-3.032 1.094-4.468 1.906-148.946 84.684-463.638 211.478-466.794 212.79-8.172 3.25-13.5 11.25-13.376 20.062s5.656 16.624 13.938 19.686c192.852 71.372 355.796 107.558 484.292 107.558 0.032 0 0 0 0 0 101.306 0 183.552-22.438 244.458-66.686 59.528-43.308 99.182-107.558 117.87-190.946 0.908-4.03 0.594-8.28-0.874-12.154z" fill="#AAB2BC" />
  <path d="M874.64 127.57c0 11.782-9.532 21.344-21.312 21.344-11.78 0-21.342-9.562-21.342-21.344 0-11.78 9.562-21.342 21.342-21.342 11.782 0 21.312 9.564 21.312 21.342z" fill="#434A54" />
</svg>
