<?xml version="1.0" encoding="UTF-8" standalone="no"?>
<svg
   xmlns:dc="http://purl.org/dc/elements/1.1/"
   xmlns:cc="http://creativecommons.org/ns#"
   xmlns:rdf="http://www.w3.org/1999/02/22-rdf-syntax-ns#"
   xmlns:svg="http://www.w3.org/2000/svg"
   xmlns="http://www.w3.org/2000/svg"
   xmlns:sodipodi="http://sodipodi.sourceforge.net/DTD/sodipodi-0.dtd"
   xmlns:inkscape="http://www.inkscape.org/namespaces/inkscape"
   version="1.1"
   id="Capa_1"
   x="0px"
   y="0px"
   viewBox="0 0 128 128"
   xml:space="preserve"
   width="128"
   height="128"
   class=""
   sodipodi:docname="artist-default-cover.svg"
   inkscape:version="0.92.3 (2405546, 2018-03-11)"><metadata
   id="metadata15"><rdf:RDF><cc:Work
       rdf:about=""><dc:format>image/svg+xml</dc:format><dc:type
         rdf:resource="http://purl.org/dc/dcmitype/StillImage" /><dc:title /></cc:Work></rdf:RDF></metadata><defs
   id="defs13" /><sodipodi:namedview
   pagecolor="#ffffff"
   bordercolor="#666666"
   borderopacity="1"
   objecttolerance="10"
   gridtolerance="10"
   guidetolerance="10"
   inkscape:pageopacity="0"
   inkscape:pageshadow="2"
   inkscape:window-width="1366"
   inkscape:window-height="705"
   id="namedview11"
   showgrid="false"
   inkscape:zoom="2.0390625"
   inkscape:cx="-31.908386"
   inkscape:cy="71.381562"
   inkscape:window-x="0"
   inkscape:window-y="30"
   inkscape:window-maximized="1"
   inkscape:current-layer="Capa_1" /> <rect
   style="opacity:1;fill:#fe2851;fill-opacity:1;fill-rule:evenodd;stroke:none;stroke-width:0.7497772;stroke-miterlimit:4;stroke-dasharray:none;stroke-opacity:1"
   id="rect817"
   width="128"
   height="128"
   x="0"
   y="0"
   ry="0" /><path
   id="path814"
   d="m 95.969803,94.383282 c -1.19999,-5.300199 -8.05032,-7.883642 -10.41701,-8.717009 -2.60012,-0.91671 -6.30024,-1.133364 -8.68374,-1.666718 -1.36638,-0.300013 -3.35005,-1.050053 -4.01676,-1.850079 -0.6672,-0.800023 -0.2672,-8.216989 -0.2672,-8.216989 0,0 1.23359,-1.916739 1.90014,-3.616798 0.6672,-1.683403 1.39998,-6.31691 1.39998,-6.31691 0,0 1.36639,0 1.85007,-2.400093 0.51679,-2.616751 1.33279,-3.633459 1.23359,-5.583537 -0.096,-1.91674 -1.15039,-1.866742 -1.15039,-1.866742 0,0 1.01759,-2.783428 1.13279,-8.550323 0.144,-6.850263 -5.21691,-13.600508 -14.93392,-13.600508 -9.85046,0 -15.10064,6.750245 -14.95056,13.600508 0.128,5.766895 1.11679,8.550323 1.11679,8.550323 0,0 -1.04959,-0.04992 -1.15039,1.866742 -0.096,1.950078 0.7168,2.966786 1.23359,5.583537 0.4672,2.400093 1.85006,2.400093 1.85006,2.400093 0,0 0.73279,4.633507 1.39999,6.31691 0.66718,1.700059 1.89997,3.616798 1.89997,3.616798 0,0 0.4,7.416958 -0.2672,8.216989 -0.66719,0.800023 -2.65021,1.550063 -4.01692,1.850079 -2.38333,0.533354 -6.08361,0.750008 -8.68357,1.666718 -2.36685,0.833431 -9.21703,3.41681 -10.41717,8.717009 -0.184,0.83327 0.4496,1.616718 1.31678,1.616718 h 61.31901 c 0.84959,0 1.48319,-0.783352 1.30079,-1.616718 z"
   inkscape:connector-curvature="0"
   style="fill:#ffffff;fill-opacity:1;stroke-width:0.16667305" /></svg>