<svg viewBox="0 0 900 600" xmlns="http://www.w3.org/2000/svg" xmlns:xlink="http://www.w3.org/1999/xlink"><path d="m0 0h900v600h-900z"/><path d="m0 0h900v400h-900z" fill="#fff"/><path d="m0 0h900v200h-900z" fill="#ce1126"/><g fill="#fff" stroke="#c09300"><path d="m450.81 302.4 68.488 63.579-4.8759-115.47c-.71638-17.5-15.924-13.485-26.971-7.1723-11.191 7.1723-23.958 7.1723-37.446 2.437-13.485 4.7353-26.253 4.7353-37.444-2.437-11.046-6.3123-26.252-10.328-26.97 7.1723l-4.8789 115.47 70.098-63.579z" stroke-linejoin="round" stroke-width="1.2703"/><g id="a" fill="#c09300" stroke="none"><path d="m393.47 246.49-4.7342 112.32-8.0347 7.168 4.8784-115.47c2.2949-1.5782 6.3132-4.0171 7.8905-4.0171z"/><path d="m403.09 254.53-4.0171 93.955-8.0323 8.2204 4.8772-108.49c1.5791 1.577 6.3138 5.4498 7.1721 6.3104z"/><path d="m411.84 261.7-3.1545 78.362-6.4556 6.3092 4.0177-89.405c1.5748 1.5782 4.7311 3.8734 5.5924 4.7334z"/><path d="m421.31 265.72-3.1563 66.787-6.3132 5.1193 3.1563-74.344c1.5791.71638 4.7348 2.4376 6.3132 2.4376z"/><path d="m430.06 265.72-2.2974 55.657-6.4544 6.3129 2.4392-61.252c1.576-.00061 5.5937-.00061 6.3126-.7182z"/></g><use transform="matrix(-1 0 0 1 900 0)" xlink:href="#a"/><path d="m453.16 315.06 9.6126 43.755-3.1575 3.1552-3.2993-2.4388-5.4518-39.018 2.2955 39.018-3.1569 4.0158-3.1563-4.0158 2.2962-39.018-5.4506 39.018-3.3024 2.4388-3.1545-3.1552 9.6113-43.755h6.3138z" fill="#c09300" stroke-width="1.0739"/><g id="b" fill="none" stroke-linejoin="round" stroke-width="1.2705"><path d="m428.48 295.84-19.08 67.705 26.255 4.0177 11.188-50.924-18.363-20.799z" fill="#fff" stroke-width="1.1888"/><path d="m422.17 318.94 2.2955 5.5928 12.405-11.848"/><path d="m430.76 304.92 2.5957 24.346 7.8905-10.328"/><path d="m438.09 322.95 4.31 14.875"/><path d="m444.09 332.36-8.7177 13.241m2.7189 13.216-2.7902-13.198-2.4356-13.423-5.8406 7.9091-2.5613-9.1191-8.1747 8.3847 4.1575 15.251 5.7375-9.4349 3.1557 9.6123 5.8903-9.1621"/><path d="m414.99 361.97 5.2997-7.4437 3.4528 11.457 4.7342-8.0323 3.1575 9.6136"/></g><use transform="matrix(-1 0 0 1 900 0)" xlink:href="#b"/><g stroke-linecap="round" stroke-linejoin="round" stroke-width="1.2705"><path d="m450 393.81c19.943 0 39.024-1.5776 50.213-4.734 4.7354-.8588 4.7354-3.2976 4.7354-6.4553 4.7354-1.5776 2.2949-7.1704 5.5943-7.1704-3.2994.86244-4.0158-5.5941-8.0329-4.7316 0-5.5965-5.5955-6.3129-10.33-4.7377-9.4695 3.1576-26.255 3.8752-42.18 3.8752-15.924-.71758-32.567-.71758-42.179-3.8752-4.7342-1.5752-10.327-.85881-10.327 4.7377-4.0183-.86245-4.7354 5.5941-8.0341 4.7316 3.2988 0 .85954 5.5928 5.5943 7.1704 0 3.1576 0 5.5965 4.8778 6.4553 11.045 3.1564 30.128 4.734 50.068 4.734z" stroke-linejoin="round" stroke-width="2.3777"/><path d="m422.89 363.54c6.4544.86123 13.628 1.5776 19.225.86123 3.1533 0 5.4494 5.4504-.86257 6.3129-5.5931.71515-14.345 0-19.08-.86245-4.0171-.71759-12.768-2.2946-18.364-3.8752-5.5949-2.4364-1.576-7.168 1.5772-6.4522 4.879 1.577 11.192 3.1564 17.505 4.0158z"/><path d="m477.12 363.54c-6.4569.86123-13.628 1.5776-19.081.86123-3.3006 0-5.5961 5.4504.71711 6.3129 5.5955.71515 14.347 0 19.078-.86245 4.0189-.71759 12.769-2.2946 18.364-3.8752 5.5967-2.4364 1.5803-7.168-1.5772-6.4522-4.8778 1.577-11.19 3.1564-17.501 4.0158z"/><path d="m403.09 360.39c-4.8771-.86123-7.1723 4.7316-5.5928 7.8868.71637-1.5776 4.0164-1.5776 4.7346-3.1552.8582-2.437-.7182-2.437.8582-4.7316z"/><path d="m422.17 375.06c0-3.1528 3.1545-2.7651 3.1545-5.9215 0-1.577-.85893-4.0171-2.4368-4.0171-1.5785 0-3.1575 1.5776-3.1575 3.1552-.7177 3.157 2.4398 3.6312 2.4398 6.7834z"/><path d="m444.88 365.98c4.7305 0 4.2618 6.3141 1.9656 9.4699 0-2.2952-4.0164-3.1558-4.0164-4.7316 0-2.4419 3.6262-2.4419 2.0508-4.7383z"/><path d="m496.91 360.39c4.8777-.86123 7.1741 4.7316 5.5953 7.8868-.71819-1.5776-4.017-1.5776-4.734-3.1552-.86124-2.437.71759-2.437-.86124-4.7316z"/><path d="m477.83 375.06c0-3.1528-3.1532-2.7651-3.1532-5.9215 0-1.577.85953-4.0171 2.438-4.0171 1.5772 0 3.1563 1.5776 3.1563 3.1552.71771 3.157-2.441 3.6312-2.441 6.7834z"/><path d="m455.12 365.98c-4.7323 0-4.263 6.3141-1.9674 9.4699 0-2.2952 4.0158-3.1558 4.0158-4.7316.00061-2.4419-3.6262-2.4419-2.0484-4.7383z"/><g stroke-width=".8915"><path d="m404.67 361.97c1.58 0 4.0177.71758 4.7353 1.577l-4.74-1.58z"/><path d="m412.55 364.41c.86184 0 4.0183.71639 5.5959 1.5752l-5.6-1.58z"/><path d="m441.25 367.56c-1.5776 0-4.734 0-5.5928.71516l5.59-.72z"/><path d="m432.5 367.56c-.8588-.86245-4.0165-.86245-5.5935 0h5.59z"/><path d="m495.34 361.97c-1.5776 0-3.8746.71758-4.7353 1.577z"/><path d="m487.45 364.41c-.86002 0-4.0171.71639-5.5953 1.5752l5.6-1.58z"/><path d="m458.75 367.56c1.5794 0 4.7352 0 5.5953.71516l-5.6-.72z"/><path d="m467.5 367.56c.86002-.86245 4.0183-.86245 5.5953 0h-5.6z"/></g><g fill="#c09300" stroke="none"><path d="m403.34 374.58c-.53406-.10208-.81452-.52459-.68011-1.0246.16371-.609.65161-.95739 1.1126-.79442.29312.10362.82973.64469.83184.83874.003.22275-.28059.75257-.40266.75379-.0527.00053-.1342.0465-.18122.10201-.10001.11816-.41341.17549-.68041.12446z"/><path d="m458.27 378.5c-.19869-.0736-.51521-.5185-.51485-.72377.002-.38717.57418-1.0178.92881-1.0214.17516-.001.65475.2481.83411.43462.32504.33789.25419.89278-.15423 1.2079-.20096.15505-.80025.21125-1.0938.1026z"/><path d="m458.63 380.98c-.42018-.14209-.57388-.34776-.60803-.8136-.0355-.4854.0116-.56097.52453-.84064l.36556-.19931.34646.1545c.47988.21397.69338.44463.71031.76742.0182.34768-.2397.70345-.64012.8829-.35162.15758-.37253.15904-.69871.0488z"/><path d="m407.75 370.09c-.34619-.0109-.82136.30729-1.0938.46875-.64912.15215-1.4047.5511-2.0312.125-.61719-.19079-1.438-.0404-1.5312.71875.15839.65179 1.0715 1.0243 1.625.59375.4106-.53758 1.5312-.8528 1.6562.0625-.45705.69215-.40489 1.6089-.78125 2.3438-.0612.45773-.25176.8924-.5 1.2812-.4621.0464-.95375-.008-1.3438.28125-.62601.0342-1.2647.34537-1.625.875-.40338.57818-.78869 1.1654-.90625 1.875.10725.72494.93754.93275 1.5625.96875.66694.18359 1.3344.42433 2 .625 1.0853.24303 2.102.63539 3.1875.875 1.5844.47758 3.2479.69739 4.8438 1.125.16722.0555.32405.1038.5.125.66233.13773 1.0079-.58289 1.0625-1.125.32864-1.1596.57948-2.3391.90625-3.5.22487-.46559.49645-1.5172-.40625-1.2812-.51485.30872-.95182.7734-1.5938.8125-.87392.0509-.37513.94518-.0312 1.3125.0759.5872-.10989 1.2888-.5 1.75-.51994.32957-1.1716-.0561-1.7188-.1875-.57469.01-1.7234-.28325-1.1875-1.0625.19033-.57691.20718-1.2083.4375-1.7812.29353-.61455.33553-1.2851.46875-1.9375-.36122-.77733-.97856.25585-1.4688.34375-.33769.23455-1.6054.33418-.9375.9375.57518.43696.1343 1.1967.0312 1.75-.0369.77025-.83781.95394-1.4688.78125-.62768-.0303-1.5013-.49748-.96875-1.1875.12115-.57512.322-1.1402.4375-1.7188.2374-.69777.43732-1.3628.6875-2.0625.10851-.61996.33113-1.2079.625-1.75.0173-.68543.47775-1.2752.46875-1.9688-.0469-.33876-.19853-.4622-.40625-.46875zm-3.5938 7.25c.0817-.0141.1399-.002.21875.0312.24971.10625.25708.30938 0 .53125-.11238.097-.23995.1905-.28125.1875-.46771-.0402-.6056-.10974-.625-.28125-.0172-.15117.0307-.19455.34375-.34375.15556-.0742.26207-.11086.34375-.125z"/><path d="m403.12 382.36c-.49596-.46627-.41621-.80642.31729-1.3532.31384-.23393.50421-.20747.8631.11997.55237.50393.57448.82295.0869 1.2548-.24101.21344-.34645.25721-.62697.26001-.29347.003-.3766-.0334-.64036-.28155z"/><path d="m406.17 383.28c-.48488-.11955-.76441-.60787-.62254-1.0876.12852-.43459.20285-.47736.84026-.48378.71478-.007.85352.11244.86039.74185.004.35432-.0235.43652-.19971.60041-.2071.19261-.6052.29644-.8784.22908z"/><path d="m495.28 383.36c-.22701-.18894-.27272-.27435-.27532-.51479-.003-.41064.23349-.71172.74605-.94382.68183-.30882.95981-.26636 1.2166.18575.34158.60129.32512.84675-.0839 1.252-.22578.22366-.26805.2367-.78493.2419-.50756.003-.56562-.0105-.8185-.22102z"/><path d="m410.22 384.51c-.36389-.0971-.5525-.37016-.55726-.80675-.004-.33383.0201-.38706.25362-.56985.15122-.11834.39018-.21971.57856-.24541.2669-.0365.36442-.0132.57916.13775.55052.38698.66746.76972.3487 1.1412-.33953.39572-.66141.48753-1.2028.34303z"/><path d="m432.14 385.49c-.0807-.10062-.25916-.16012-.2775-.287.032-.55487.0585-1.1167.23525-1.6482.0962-.52301.012-1.0692.19432-1.5787.18698-.92682.18682-1.8826.40217-2.8036.01-.47427.0549-.949.19241-1.4054.15774-.72168.0136-1.4762.22606-2.1894-.0228-.26786.28574-.98321.55658-.55944.39321.57645.91139 1.0451 1.4208 1.5153.43771.25252.0359.62445-.26658.74975-.41521.16364-.51613.62086-.48666 1.0222-.0582.41455-.22464.80685-.24153 1.23-.0878.62242-.0706 1.2546-.15153 1.8765-.18211.60901-.11244 1.2597-.17323 1.8875.008.39859-.18142.7606-.15525 1.1604-.0484.40592-.0665.89432-.40713 1.1724-.32888.16605-.80429.13737-1.0682-.14228z"/><path d="m461.84 375.69c-.48222.36463-.91353.79527-1.3438 1.2188-.59251.4489.48677.70998.625 1.0938.15716.58638.1478 1.2106.1875 1.8125.17923.55142.25835 1.1384.21875 1.7188-.0519.6223-.86338.49115-1.2188.84375-.49176.20722-.68789.69047-1.0625 1.0312-.24625.48275-.31215 1.0763-.34375 1.625.0353.44788-.30248.94931 0 1.3438.039.0557.0852.132.125.1875.10115.1452.3425.0292.5.0625.50368-.0282 1.0285.0473 1.5-.15625 1.21-.20943 2.4311-.22605 3.6562-.28125.74925.0239 1.4701-.23695 2.2188-.21875.58681.12974.85075-.50626.84375-.96875-.33224-.65359-.045-1.4285-.3125-2.0938-.23494-.67246-.14236-1.428-.25-2.125-.0148-.54835-.71068-.75172-1.0625-.34375-.34144.34514-.89289.41403-1.1562.84375-.29659.60239.62745.60317.78125 1.0625.17589.4642.11825.98059.15625 1.4688.11422.59237-.52919.6262-.9375.6875-.53675.20112-1.29.33589-1.5938-.3125-.1909-.47948-.16475-.99286-.21875-1.5-.0131-.89182-.22755-1.7684-.28125-2.6562-.0514-1.0968-.2407-2.1866-.3125-3.2812-.01-.45549-.0706-1.198-.71875-1.0625zm-.625 8.25.3125.0312.0312.375.0312.375-.40625.125c-.21512.0636-.40325.0943-.40625.0937-.003-.00085-.088-.0531-.1875-.125-.21959-.1586-.16345-.38503.125-.6875.1626-.17028.23879-.2033.5-.1875z"/><path d="m431.25 374.66c-.38018.13504-.86245.69313-1.25.6875-.88.0623-.75718.91919-.125 1.2188.0833.25988.005.58789.0312.875.12288.7896-.37535 1.4249-.28125 2.2188-.0442.87031-.30695 1.7177-.34375 2.5938-.24704.90327-.24984 1.8321-.40625 2.75-.10431.82323-.69963.53271-1.2188.3125-.004-.35689-.0272-.70562-.0312-1.0625.21637-.81711-.44101-1.0556-1.0938-1.1562-.68611.0649-1.0228-.52316-.875-1.125.29488-.35103 1.036-.2534 1.5-.3125.9813.20342.9416-1.1118.4375-1.5625-.34472-.63567-1.1982-.90926-1.4375-1.5625.0956-.86642-.47971-1.7322-1.1875-2.1562-1.0885-.0764-1.9104.86306-2.3125 1.7812-.4525.13085-.90391.26657-1.3438.4375-.70889.17748-1.7197 1.407-.75 1.875.54424.14988 2.2002.52782 1.4688 1.2812-.41224.7071-1.201.71914-1.9062.53125-.72365.00063-1.5294-.35207-1.5-1.1875-.14765-.74985-.12337-1.5579-.46875-2.25-.14847-.83929-1.1008-.64297-1.1562.125-.73341.53403-.6357 1.3978-.125 2.0312.31876.72891.003 1.5776-.3125 2.25-.19091.87497-1.1559.90473-1.8438 1.1875-.33751.13104-1.6285-.0779-1.1562.65625.75312.26578 1.6525.50493 2.4375.3125.82295-.10214 1.5375-.66484 1.9375-1.375.55266-.56003 1.502-.26685 2.2188-.28125.7728-.002 1.5626.54243 2.3125.1875.21739-.56438 1.2219-1.4958 1.5312-.53125-.0526.86265.70932 1.3257 1.5 1.2188.86375-.0494.54445.61096.53125 1.125.0571.93448.65972 1.4247 1.4375 1.8125.26491.0715.545.0474.8125 0 .74793-.23513 1.5536-.5689 1.7812-1.4062.30361-.68071.31071-1.4507.53125-2.1562.17722-1.1299.406-2.26.4375-3.4062.27617-1.0383.19684-2.136.40625-3.1875.13231-.7818.2308-1.5634.3125-2.3438-.0917-.41735-.27189-.48727-.5-.40625zm-6.7812 4.1562c.15144.0185.2356.20409.25.53125.016.36409.20628.66075.4375.71875.18245.0457.16681.23882-.0312.375-.11507.0791-.3209.127-.6875.125-.57804-.003-.93643-.15276-1.25-.46875l-.1875-.1875.28125-.1875c.14178-.10831.39834-.33259.5625-.5.28494-.29065.47356-.42473.625-.40625z"/><path d="m490.5 370.94c-.56713.026-1.1373.11796-1.6562.25-1.0402-.0647-1.5624 1.0271-.5625 1.5625.60166 1.5343 1.5404-.31684 2.5-.1875 1.4375.27956 1.559 1.8323 1.7812 3 .0809 1.1567.41439 2.2816.75 3.375.96222 1.0695-.72072 1.7402-1.4375.90625-.61128-.66434-1.9204-1.4795-2.6562-.5625-.9036.38266-.94069 1.5903-1.6875 1.9375-1.2091.36803-1.3613-1.1188-2-1.75-.58724-.82427-1.7103-.89646-2.625-1.1875-.42913-.86865-.20548-2.3456-1.0938-2.9375-.7458.30425-2.1131 1.7022-.96875 2.3438 1.1177.96067-.48782 1.4011-1 2.0625-.73158.81456-.84849 1.936-.96875 2.9688-1.2593.69566-1.5044-.78769-1.6562-1.7188-.0981-1.1115-1.0358-.78521-1.6875-.375-.95249.38586-1.4281 1.2903-2.0938 2-.0799.64767.0372 1.3567.0312 2.0312.21646.81142 1.2024.4303 1.8125.375.9788-.40937 1.3795.62745.59375 1.2188-.53181.67603-2.2198.32293-2.0625 1.4062.54395.0636 1.1105.0432 1.6562 0 1.0905-.29799 2.2614-1.0673 2.375-2.2812.1436-1.0582 1.6676-.86544 2.5-1.0938 1.0408-.30002 2.2948-.37704 2.5312.9375.70943.74499 2.2486 1.584 3.0312.5625.79451-.48523 1.1764-1.3376 1.125-2.25-.16203-.78461 1.2688-.81314 1.625-.375.52141.85796 2.151.60478 2.9375.125.8361-.61721 1.0176-1.705 2.2188-1.7188 1.7823-.53352 3.6342-.84122 5.375-1.5 1.4104-.3073-.2099-1.1977-.5625-1.7188-1.0737-.53098-2.0081 1.6419-3.2188.5625-.93564-.71605-.87212-2.0766-1.2188-3.125-.23714-1.3573-.17721-2.9227-1.1562-4-.67242-.71491-1.586-.887-2.5312-.84375zm-6.8125 9.4688c.12573-.003.26757.0593.5.1875.43841.24193.75063.64294.75.96875-.00043.21261-.0545.22697-.375.375-.19719.091-.4214.1885-.5.1875-.18098-.002-.62438-.35688-.625-.5-.00065-.0594-.0581-.28649-.125-.46875-.11761-.32068-.0994-.31643.0625-.53125.10347-.13744.18677-.21532.3125-.21875zm6.5312.34375c.37229-.0244.59356.0918.75.375.18178.32896.0582.58095-.40625.78125-.20349.0878-.407.15925-.4375.15625-.0306-.003-.19844-.10253-.375-.21875-.27012-.17777-.3095-.26387-.3125-.46875-.003-.31541.34928-.5967.78125-.625zm-8.9375.0937c.10904-.017.20831.04.34375.15625.17999.15456.23685.27887.28125.59375.0314.21884.0265.50184 0 .625-.0486.2261-.0532.21575-.5625.21875-.64029.006-.6997-.0639-.6875-.65625.008-.37682.0118-.4782.21875-.6875.16044-.16228.29721-.23305.40625-.25zm-5.5 1.4375c.19951.0469.3879.19761.4375.4375.0656.3175.008.46223-.25.59375-.2221.1131-.73401.1508-.875.0625-.0457-.0286-.1399-.103-.1875-.1875-.068-.12114-.0555-.1794.0312-.25.0605-.0492.12539-.11985.125-.15625-.0004-.0364.0673-.16316.15625-.28125.14608-.1939.36299-.26563.5625-.21875zm9.25 1.1875c.17794-.001.32863.0609.4375.15625.18526.16231.179.40039-.0312.5625-.13509.1044-.87165.0948-1.125 0-.11272-.0421-.15563-.0987-.15625-.21875-.002-.14091.0375-.22767.28125-.34375.20425-.0976.41581-.15507.59375-.15625z"/><path d="m467.86 388.29c-.0958-.0625-.23767-.11699-.0948-.22157.17277-.30247.51785-.40716.82434-.51974.54779-.23732 1.0207-.64036 1.3737-1.1184.05-.33298.42384-.51355.42219-.86174.003-.47487.0311-.9616-.0846-1.426-.12837-.4257-.45147-.75199-.82649-.97395-.25667-.20149-.674-.25712-.76877-.61402-.0525-.34279.25343-.60401.36053-.90935.22325-.42151.41109-.86364.6509-1.275.25912-.2878.65892-.0156.79298.26239.18915.27771.35679.57593.45076.89748.30225.33175.57024.72087.679 1.1618.14839.31056.38316.60234.36929.96609.0003.4164.23509.78738.22034 1.2063.0133.56042.0131 1.1449-.19184 1.6741-.14001.29344-.42058.46964-.60639.73256-.31897.29554-.67037.57899-1.0797.73615-.28928.092-.45706.42565-.81934.34466-.51458.009-1.0366.079-1.5472-.004.0323.0542-.15633-.0915-.12493-.0573z"/><path d="m461.01 388.74c-.24268-.24958-.2952-.35543-.29788-.60032-.003-.24747.0446-.34567.2822-.58569.43829-.44275.65248-.45344 1.4091-.0705.72304.36598.9675.39912 1.0322.14002.0625-.25022.47885-.47916.87435-.4808.25006-.002.39157.0477.59183.20368.25136.19583.26349.22634.26989.67935.004.46299-.002.48055-.29042.73591-.27723.24409-.32183.25915-.66541.22476-.43718-.0439-.69954-.24407-.77073-.58844-.0516-.25001-.13942-.3097-.20523-.1397-.0209.0546-.12864.12185-.23894.1496-.20352.0514-.5488.26862-.79415.50006-.0927.0874-.25526.12855-.51863.13122-.35563.003-.40513-.0183-.67826-.29915z"/><path d="m441.19 379.84c-.66466.007-1.3805.5662-1.4688 1.2188.15206.75226.77698 1.4895.375 2.2812.27756 1.0131-.76147 1.3974-1.4688.8125-.4271-.97134-.64349-2.0358-1.2812-2.9062-.80411-.22762-1.1545 1.0569-1.7188 1.5.27975.75505 1.0958 1.4324 1.1875 2.375.1952.91482-.36128 1.9306-1.1562 2.4062-.68584.65472-1.6254.42074-2.4688.5625-1.0242.59857.75182.81755 1.2188.84375 1.0477.10646 2.1354-.0317 2.9062-.8125.76911-.36708.70971-1.6972 1.625-1.8438 1.5884-.0709 3.1626.24355 4.75.28125.84936.20336 2.1635-.10098 2.75.53125.002 1.1075.94078 1.7905 1.8438 2.2188.4987.13872 1.0241-.47928 1.5312-.59375.96531-.30764.67182-1.502 1.25-1.9688 1.6504-.0893 3.3163-.0704 4.9688-.0937.31463.008.40734-.43988.625-.625-.0363-.63881-.0593-1.2726-.15625-1.9062-.31819-.80653.0513-1.8446-.53125-2.5312-.83011-.22606-1.5362.53355-2.375.59375-.92616.41246-1.7065 1.2677-1.75 2.3125-.54833.89658-1.4277-.15958-1.125-.90625-.0346-.32541.0704-.70429-.0312-1-.50698-.60814-1.3947-.4094-2.0938-.5-1.0184.0406-2.0127-.17955-3.0312-.15625-.89293-.0674-1.822.0777-2.6875-.15625-1.0317-.0293-.88959-1.0382-1.0625-1.75-.18299-.13571-.40345-.18973-.625-.1875zm2 3.6875c.34308.007.66656.052 1 .0937.43082.0709.8899-.14816 1.3125 0 .97651.16608 1.9536.12685 2.9375.21875.25985-.004.44579.18471.625.34375.002.68357.00066 1.3789 0 2.0625-.0299.25767.0763.5982-.15625.78125-.0747.0513-.1583.1072-.25.125-.27065-.07-.55731-.2479-.6875-.5-.0414-.35742.0179-.70404.0312-1.0625-.007-.0927.0404-.237 0-.3125-.21278-.15067-.45387-.249-.71875-.25-.84945-.0291-1.682-.0916-2.5312-.125-.7069-.0446-1.4333.0604-2.125-.125-.26845-.0976-.61789-.0641-.78125-.34375-.23417-.27227.10362-.59695.34375-.71875.31827-.1447.65692-.19411 1-.1875zm11.281.25c.15866-.002.20935.05.28125.34375.0459.18765.0996.4172.125.5.0363.11811-.0218.15625-.1875.21875-.494.18646-.98566.16797-1.1562-.0625-.0774-.10454.0129-.43451.15625-.5625.28946-.25851.60992-.43691.78125-.4375z"/></g></g><path d="m449.98 327.23c32.642-25.106 29.843-61.883 29.843-61.883-.8613.17223-1.6795.25835-2.5408.25835-6.8471 0-23.178-3.9171-26.988-8.8926-4.0812 4.5034-20.77 8.8926-27.574 8.8926-.86129 0-1.7225-.0861-2.5407-.25835 0 0-2.8422 36.776 29.8 61.883z" stroke-width="1.1502"/><path d="m477.22 268.04c-.28097.0176-.5633.0264-.8477.0264-6.2055 0-20.619-3.1838-26.175-7.9572-5.8195 4.4095-20.471 7.9572-26.576 7.9572-.28635 0-.56925-.035-.84965-.0865-.0142 1.3908.0581 2.8324.14448 4.1436.323 4.9008 1.1826 9.819 2.4876 14.552 4.1081 14.895 12.516 27.553 24.572 37.155 12.066-9.61 20.484-22.28 24.601-37.186 1.3071-4.7319 2.1694-9.6497 2.4955-14.55.0853-1.2845.15716-2.6918.14745-4.0545z" stroke-width=".9157"/><path d="m439.38 265.03c-5.8724 1.8448-12.229 3.0312-15.75 3.0312-.28633 0-.56336-.0423-.84375-.0937-.0142 1.3907.0699 2.8451.15625 4.1562.32298 4.9006 1.1638 9.7995 2.4688 14.531 2.765 10.025 7.5063 19.032 13.969 26.781v-48.406z" fill="#c09300" stroke="none"/><path d="m460 264.94v49.25c6.794-7.9213 11.733-17.206 14.594-27.562 1.307-4.7317 2.1427-9.6313 2.4688-14.531.0853-1.2844.16596-2.6999.15625-4.0625-.28095.0176-.55937.0312-.84375.0312-3.7302 0-10.42-1.1704-16.375-3.125z" fill="#c09300" stroke="none"/><g stroke-width="1.2704"><path d="m462.31 253.09c.66655.0392-.90178-3.568-.90178-3.568 1.7643 1.8036 8.4297 2.2349 8.4297 2.2349-3.999-1.7656-7.9979-15.096-7.528-25.721.4319-10.664-1.5284-14.859-3.0971-16.428-1.9995-1.9995-8.4298-3.7639-12.664-3.9991-2.3922-.11761-1.9995 1.8036-1.9995 1.8036-4.4308-1.137-8.8606-1.5684-10.861-.2353-1.882 1.2547-2.274 7.5278-.90178 6.43 3.3326-2.6661 6.2341-.23524 8.2335 2.6661 1.7644 2.5485 1.6467 9.7627-.90178 18.192-2.6661 8.8609-9.9588 17.722-9.9588 17.722 3.96 0 9.5276-3.5287 9.5276-3.5287l-1.3331 5.5283c4.1951-1.9996 7.5278-5.0969 7.5278-5.0969l3.9992 4.1951c1.333-1.7643 3.9991-4.1951 3.9991-4.1951s3.3328 3.5286 8.4297 3.9992z" stroke-width="1.2179"/><g fill="none"><path d="m446.12 227.57s-2.2349 16.428-6.43 21.094"/><path d="m449.65 227.14s-.86252 16.623-3.7639 21.956"/><path d="m452.78 227.81s0 18.192 1.0978 21.289"/><path d="m456.74 228.71s.90178 15.291 4.6657 20.819"/></g><path d="m442.08 219.61c-.19598-1.4508-.54888-2.5878-1.0586-3.3328-1.9996-2.9013-4.9009-5.3321-8.2335-2.6661 0 0 1.137-3.5287 3.5678-3.6463 1.882-.11767 6.1556 1.4115 9.9196 7.8415 0 0-2.7837-.62739-3.4502-.0393-1.2546 1.0979-.74495 1.8428-.74495 1.8428z" fill="#c09300" stroke-width=".3542"/><path d="m432.44 209.26c.27439-.90178.7057-1.7251 1.2546-2.078 1.9996-1.333 6.43-.90177 10.86.23524 0 0-.39205-1.9212 1.9996-1.8036 4.2344.23523 10.665 1.9996 12.664 3.9992.47046.50973 1.0194 1.2547 1.4899 2.3916h-.0784c-.98015-1.3721-3.764-1.2937-4.4308-1.2154-1.0586.11756-1.7251.0784-3.1365.4312-.66655.15693-1.686.3529-2.2349.78422-.43131.3529-.7841 1.6467-1.4506 1.6467-1.0586 0-.98019-.27449-1.2547-.58814-.35279-.43131-.54888-1.0586-.90178-1.0194-1.0978.19608-2.8621-.66644-5.0969-2.4308-2.2344-1.7644-3.0971-2.1956-5.9984-1.9996-2.8622.23524-3.7639 1.8427-3.7639 1.8427l.0784-.19598z" fill="#c09300" stroke-width=".3542"/><circle cx="448.824" cy="210.672" r="1.176" stroke="none"/></g></g></svg>