<svg viewBox="-120 -80 240 160" xmlns="http://www.w3.org/2000/svg" xmlns:xlink="http://www.w3.org/1999/xlink"><defs><path id="a" d="m-1 55.42562584h2v-93.42562584c2-2 2-5 2-8 0-2 0-10-3-18.66323015-3 8.66323015-3 16.66323015-3 18.66323015 0 3 0 6 2 8z" stroke-miterlimit="10" transform="matrix(.8660254 .5 -.5 .8660254 0 0)"/></defs><path d="m-120-80h240v160h-240z" fill="#fff"/><path d="m-120-80h240v48h-240z"/><path d="m-120 32h240v48h-240z" fill="#060"/><g id="b"><use stroke="#000" xlink:href="#a"/><use fill="#fff" xlink:href="#a"/></g><use transform="scale(-1 1)" xlink:href="#b"/><path d="m-120-24v48h101c3 8 13 24 19 24s16-16 19-24h101v-48h-101c-3-8-13-24-19-24s-16 16-19 24z" fill="#b00"/><path id="c" d="m19 24c3-8 5-16 5-24s-2-16-5-24c-3 8-5 16-5 24s2 16 5 24"/><use transform="scale(-1 1)" xlink:href="#c"/><g fill="#fff"><ellipse rx="4" ry="6"/><path id="d" d="m1 5.85s4 8 4 21-4 21-4 21z"/><use transform="scale(-1)" xlink:href="#d"/><use transform="scale(-1 1)" xlink:href="#d"/><use transform="scale(1 -1)" xlink:href="#d"/></g></svg>