<svg viewBox="0 0 660 440" xmlns="http://www.w3.org/2000/svg" xmlns:xlink="http://www.w3.org/1999/xlink"><path d="m0 0h660v440h-660z" fill="#00785e"/><path d="m330 82.958-14.208 43.735 37.203-27.027h-45.99l37.203 27.027z" fill="#fbd116"/><g id="a"><path d="m330 303.99h-93.937c-1.184-1.2-2.35-2.423-3.488-3.667h97.425c.751.269 1.267.958 1.306 1.736.042.844-.488 1.635-1.306 1.931zm0-28.725c.545-1.114 1.607-3.694 1.125-6.921-.218-1.463-.692-2.644-1.125-3.492-5.271 4.988-15.175 12.981-29.785 17.401-6.821 2.064-14.055 3.173-21.548 3.173h-57.872c1.706 2.507 3.494 4.954 5.364 7.333h55.945c18.242.001 34.954-6.58 47.896-17.494zm-100.461-22.637c-2.785 1.072-5.772 1.741-8.887 1.926 13.629 15.415 33.545 25.144 55.723 25.144 21.066 0 40.091-8.775 53.625-22.867 2.297-15.839 3.968-33.969 4.167-53.998.232-23.321-1.581-44.2-4.167-62.032-6.045 5.419-17.371 17.128-22.71 35.079-1.998 6.72-3.072 13.837-3.072 21.203 0 15.291 4.623 29.506 12.547 41.329-9.731-12.57-15.526-28.338-15.526-45.454 0-11.369 2.558-22.144 7.126-31.783-3.154-3.334-5.551-7.392-6.904-11.902-6.121 10.804-9.618 23.284-9.618 36.581 0 16.539 5.409 31.819 14.552 44.172-15.923-16.693-38.377-27.099-63.25-27.099-1.336 0-2.667.034-3.989.093 2.503 2.333 4.604 5.089 6.188 8.157 24.742.038 47.078 10.377 62.964 26.949-15.171-12.672-34.698-20.303-55.995-20.303-11.902 0-23.25 2.382-33.594 6.696 10.629 28.085 37.78 48.075 69.574 48.075 2.059 0 4.1-.093 6.116-.258-4.29.771-8.709 1.174-13.22 1.174-20.061 0-38.269-7.956-51.65-20.882zm100.461 81.382h-48.684c15.067 5.988 31.492 9.281 48.684 9.281.414-.788 1.125-2.395 1.146-4.542.022-2.257-.729-3.945-1.146-4.739zm0-22.458h-85.83c2.322 1.99 4.711 3.902 7.169 5.729h78.661c.197-.201 1.167-1.236 1.167-2.865s-.97-2.663-1.167-2.864zm0 11.458h-70.304c4.257 2.686 8.675 5.139 13.242 7.333h57.062c.33-.523 1.112-1.917 1.063-3.844-.045-1.719-.728-2.959-1.063-3.489z" fill="#fff"/><path d="m237.639 150.67-13.442 28.839 27.822-15.433-31.575-3.874 23.268 21.699z" fill="#fbd116"/><path d="m260.663 112.27 9.303 30.429 10.362-30.092-26.068 18.254 31.819.552z" fill="#fbd116"/></g><use transform="matrix(-1 0 0 1 660 0)" xlink:href="#a"/></svg>