<svg viewBox="0 0 920 460" xmlns="http://www.w3.org/2000/svg"><path d="m0 0h920v460h-920z" fill="#007934"/><path d="m280 0h360v460h-360z" fill="#fff"/><path d="m463.32 30.575c-.80416 8.7038-1.61 17.412-2.4141 26.116-2.9476.44414-5.8944.88632-8.842 1.3304-.00002 0 6.141 3.4483 7.2132 6.9121.1716.55476.103 1.0139-.1454 1.3593-.0816.10798-.20658.22795-.31994.31813-1.7789 1.3671-7.0388.72303-7.0388.72303 0-.00002 6.968 5.8794 7.5041 8.0111.012.0499.028.0964.029.14472-.00068.03992.008.1058 0 .14452-.008.03074-.0458.08562-.0582.11576-.0476.1046-.1334.2225-.23268.31813-1.6382 1.5132-9.3656 1.9377-9.3656 1.9377s8.5677 6.1091 9.1038 9.5728c.48584 3.1391.0784 4.9777 0 5.2925-.59872-.51141-14.415-12.122-23.327-8.7341-.44388.2306-.70656.45033-.8144.66518-.0474.10718-.0574.24076-.029.34705.62434 1.9313 13.227 3.9097 22.018 11.511-.21806 1.9022-25.055-6.0507-25.973-1.0701.77684 1.4044 26.729 5.145 28.649 8.5317-9.5578.3554-29.303-2.1035-28.649 1.0412-1.9974 3.6306 18.649 1.58 27.311 4.5406 2.5391 2.869 2.294 5.2791-2.1233 5.5817-8.3488-3.9693-27.034-6.9188-27.079-1.8509.00044.006-.00092.0238 0 .0289.002.006.027.024.029.0289.008.016.016.0433.0292.0579.0298.0285.0962.0603.1454.0868 2.11 1.0525 19.51.53911 26.061 4.8587-9.2879 2.1008-40.782-4.2618-40.982-1.1568.89722 1.4502 5.8807 7.8149 14.456 7.5483 8.5749-.26653 28.414 3.4668 29.755 6.1312.0418.0832.0414.16866.029.23138-.58064 1.8582-26.126-5.6683-35.95-1.0412-10.182 4.7967 29.198 1.8889 35.63 7.7508 6.4314 5.8619-12.856-.54949-12.856-.54949.00002 0-26.783-3.7157-30.802-1.8509-4.0199 1.8657-8.5803 6.1312-8.5803 6.1312s2.6722 5.3166 5.3518 4.2514c.40822-.16248.68724-.19562.8435-.14452.004.002.0254-.002.0292 0 .004.002.0256.0269.0292.0289.006.004.0238.024.0292.0289.004.006.0244.0234.029.0289.002.002.0274.0257.0292.0289.012.0267.0246.083.029.11578.0632.79931-1.8324 3.1235-1.8324 3.1235s37.532 9.0411 45.839 17.034c8.3068 7.9942-47.7-12.523-47.7-12.523 0-.00002-22.51 8.2588 1.3379 8.7919-2.6581 3.8668 1.101 6.2468 1.3379 6.3915 0 0 39.668 8.2679 43.687 14.663 4.0199 6.395-27.063-6.1386-34.03-9.6017-6.7217-3.3423-25.432 1.7676-26.497 3.3259-.008.012-.0238.0459-.029.0579-.002.006.002.0232 0 .0289-.002.012-.00088.0473 0 .0579.00092.006-.00094.0238 0 .0289.002.006-.002.0238 0 .0289.002.006.0266.0236.029.0289.002.006-.002.0236 0 .0289.012.0214.0414.0653.0582.0868.004.006.0242.0236.029.0289 1.1986 1.3133 9.5504 3.1219 9.8019 5.3793.00092.01-.00068.02 0 .0289.004.12056-.0334.2632-.0874.37598-1.052 2.0283-11.016 2.8911-11.431 4.8009-.006.0327-.029.0824-.029.11578-.00002 2.1323 50.125 12.524 63.523 23.715s-39.382-13.333-39.382-13.333 2.9477 3.995 0 5.0612c-2.9477 1.0652-13.419-14.92-30.569-5.0612-3.1236 4.0563 14.974 7.2758 19.575 7.7218-1.5711 4.0166-2.9411 5.3453 3.4903 9.3415.70332.43718 1.0982.7013 1.2507.83872.004.004.025.0248.0292.029l.029.029c.002.002-.00092.0264 0 .029-.00058.002.00092.0276 0 .029-.002.0004-.0256-.00012-.029 0-.004-.0002-.0246.00048-.0292 0-.99616-.155-12.55-6.0591-13.758-6.3048-.012-.002-.0492.00072-.0582 0-.004.00022-.0262-.00054-.029 0 0 .53304 1.3379 6.941 1.3379 6.941-5.9372-4.7958-13.114-6.2418-19.836-1.3303-.01.28412-.0592 4.8825 6.6897 7.7219-3.8039 7.7286 4.2986 5.329 17.161 12.523-19.116-4.9679-20.647 4.2602-6.9805 6.3915s51.19 3.4668 60.033 14.923c1.8653 2.4168 2.3715 3.632 2.0069 4.02-1.4749 1.3291-15.044-8.4295-17.015-8.7919-.004.002-.025-.004-.0292 0-.004.004-.025.0244-.0292.029-.025.0312-.0624.093-.0874.1446-.48156 1.06-.93074 5.6685-.93074 5.6685-5.7166-3.2901-10.962-6.2414-17.8-7.6351-.5361 1.0652-.42372 2.5788-.95982 3.644-6.2053-4.4496-11.611-7.578-20.622-8.0111-.3574 1.4215-.71878 2.8588-1.0762 4.2803.00002-.00002-7.5122-9.3259-22.251 0-8.2296 5.8665 31.089 2.1242 37.52 9.0522 6.4314 6.9271 1.338 7.9822 1.338 7.9822-5.3592-1.9537-10.696-3.8883-16.055-5.842 0 0-19.044-3.4819-24.403.78086-5.3592 4.2636 78.243 14.658 80.654 26.116 1.626 6.2136-19.642-6.5065-38.044-11.973-.7118 2.0339-1.4405 4.0684-2.1523 6.1023-.43642-.4293-7.5548-7.3139-15.532-8.5027-.002.004-.027.0222-.0292.029-.00094.01.00024.0448 0 .058.012.87446 1.6288 7.1145 1.6288 7.1145-.00002.00002-20.613-9.6029-31.063-4.5406-10.451 5.0623 36.433 7.726 40.72 12.523.46888.52454.66404.90692.63988 1.1569-.008.0432-.0374.109-.0582.1444-1.0356 1.5081-15.017-4.0618-16.404-1.3014-1.6083 3.1975-24.38-5.8533-24.112-1.5907.26804 4.2636 3.2285 6.6518 3.2285 6.6518-.00002 0 47.43 4.5269 49.038 10.122 1.6074 5.5954-26.264-3.1813-26.264-3.1813s-2.6961 3.9772-.55262 5.842c.0838.0728.1506.1426.1744.1734.0007.002-.00016.0274 0 .029-.002-.00064-.0254.00092-.0292 0-.96878-.31776-16.07-10.153-14.601-2.6029-5.9093-2.3396-21.166-9.5864-19.022-3.9911 2.112 5.5131 41.905 13.363 43.076 13.593-1.0523.0824-17.881 1.4824-17.102 5.871-22.555-13.663-22.502-5.4696-21.989-4.8298.00092.00088-.00094.0282 0 .029-1.2671-.1992-29.016-7.073-6.9515 4.8009 11.833 6.3674 14.717 8.8497 14.776 9.8042.00038.021.002.0672 0 .0868-.004.0254-.0202.064-.029.0868-.002.006-.0262.0236-.0292.029-.01.016-.018.0434-.029.0578-.004.004-.025.0244-.0292.029-.004.004-.0244.0248-.0292.029-.004.004-.024.025-.029.029-.006.004-.0236.0252-.0292.029-.45872.2918-1.5672.1696-1.8906.1734-.014.0005-.0482-.00092-.0582 0-.006.002-.028.026-.029.029l.029.029c.3148.46536 2.046 5.1646 1.9487 5.9866-.002.014-.0256.0472-.0292.0578-.002.004.002.0248 0 .029-.00092.002-.0276-.002-.0292 0-.002.00092.002.028 0 .029-.002.00052-.027-.00036-.0292 0-.002-.00024-.026.00048-.0292 0-.96696-.24222-15.581-8.0078-20.593-8.5316-5.0921-.5331-29.215 6.6534-3.4903 17.844s41.526-2.6693 55.728-1.0701c14.202 1.5983 20.914 4.0015 19.575 8.5317-1.3403 4.5293-14.528-14.85-28.388 1.9088-15.766-3.1022-26.462-4.8974-18.324 6.6229-25.747-9.5675-41.47 2.9189-9.0456 7.9822 31.862.93378 51.452-7.7219 51.452-7.7219 0 .00002 5.375 9.878 13.147 2.9499 7.4065-6.6024 7.9891 1.8005 8.2603 2.6029.004.012.025.0222.0292.029.002.002-.002.0278 0 .029.002 0 .026.0004.029 0 .57222-.143 7.475-3.2102 7.475-3.2102.62546.00002 1.2651 0 1.8906 0v63.944c8.6643.0888 17.309.1714 25.973.2603 0 0-8.3071-55.674-3.752-63.134 4.4136-7.2271 8.5863-6.447 8.842-6.3915 0 0 16.885 5.051 18.76 4.2514.0218-.01.0664-.018.0874-.029.014-.008.045-.021.0582-.029.0326-.0206.0866-.0628.1164-.0868.006-.004.0232-.024.0292-.029 1.3722-1.2456-.0258-6.1609 8.5512-5.4082 2.6483-.95788 1.6378-5.1559 3.3448-6.1891.0302-.018.0846-.0424.1164-.0578.0644-.0302.161-.065.23268-.0868.1-.0286.23388-.0462.34902-.0578 2.6796-.26652 54.392 14.376 65.646.52058-2.9477-7.7267-13.143-.52682-15.823-.2603-2.4116.00002-12.602-4.7958-18.498 0-5.3592-3.9962-29.726-6.6518-29.726-6.6518-3.2157-3.1975 58.149 1.5881 61.632-.80978 7.2347-7.1946-13.392-6.389-16.608-3.9911-5.7166-3.464-12.9-3.2077-17.277-.80976-2.0988-4.992-22.024-2.8299-33.099-4.2514-3.5452-2.0675-2.9549-3.2542-.55262-4.5406 23.134.97728 46.151 3.9809 69.398 2.9499 6.2834-8.145-7.9101-11.217-16.608-4.2803-5.1061-8.3496-15.545-.2714-22.512-1.0701-6.9666-.79962-3.7521-9.3139 5.09-7.9822 8.843 1.3327 24.655-.5435 27.602-4.5406 2.9467-3.9962-1.7596-8.0449-16.346-4.2514-4.9367-4.7976-15.792-.008-20.884 1.5907-6.7739-3.7574-22.534-.52288-27.893.80978-5.2466-3.2428 27.602-8.5316 27.602-8.5316 12.679-.22304 19.831-2.4044 23.85-3.4705 19.168-10.215-.26688-11.3-10.325-3.8754-6.2434-4.8467-12.173.41904-17.8 2.2848-5.2756 1.7483-15.032 3.0217-16.23 2.5161-.014-.006-.0468-.0218-.0582-.029-.002-.002-.0262-.0264-.0292-.029l-.029-.029c-.00092-.002.00064-.026 0-.029 0-.002-.00046-.0256 0-.029.004-.012.0208-.044.029-.0578.79028-1.2183 15.241-10.036 15.241-10.036 0-.00002 18.76-1.3468 22.512-1.8798 2.2862-.32486 10.299-4.0965 10.296-5.495-.0672-.86806-3.4056-.78834-13.525 1.7642-9.111.79958-14.462.28294-17.946.54946-5.6028-.57596-7.9633-1.1632-8.4348-1.6774-.018-.0218-.047-.0652-.0582-.0868-.0392-.0928-.014-.20012.0582-.28922.018-.0206.0634-.0664.0874-.0868 1.3734-1.0907 10.238-1.8799 10.238-1.8799 0 .00002 27.063-2.4678 28.853-3.8754.006-.006.0234-.0234.029-.029.01-.012.0228-.0468.029-.0578.002-.006.0276-.0236.0292-.029.55686-11.002-22.959-5.9217-23.588-5.842.0672-7.7363-21.224-.1136-22.221 0-.002-.00028-.0278.00052-.0292 0-.91604-.53664-1.3153-1.1029-1.3961-1.6196-.0262-.197-.00092-.41868.0582-.60734.53332-1.5952 3.752-2.8342 3.752-2.8342 5.8953-1.4206 14.71-1.8641 17.015-3.7308 0 0 16.639-.1456 18.615-4.5406-4.0831-11.201-35.213 1.9828-39.382 3.9911-.8353 0-1.3468-.20866-1.5997-.5495-1.3688-1.9886 5.3863-8.5371 5.6135-8.763.002-.002.0238-.0268.029-.029 1.0295-.29038 25.884-1.5549 37.753-17.555.83768-9.8933-14.194 5.5817-14.194 5.5817-1.1225-12.831-16.345.81374-25.188 1.8799-8.8421 1.0652-9.101-4.0012-2.9377-4.8009 6.1624-.79868 13.124-.2758 16.608-9.6017 3.4829-9.3259 13.947.54304 15.823-2.921 1.8169-3.3558-3.4237-6.2163-3.752-6.3915.00002 0 7.7656-8.0173-4.8282-7.7508-12.467.26386-28.585-1.5536-28.911-1.5906.78186-.29674 13.48-5.0591 25.421-4.8009 12.327.26652 5.6245-8.792-6.1662-8.792-11.79 0-17.946-3.9911-17.946-3.9911 6.6995-2.4867 13.399-4.9749 20.098-7.4616-.44678-1.8648-.89122-3.7169-1.338-5.5817 0 0 11.786-9.3326-4.8282-7.2013-16.614 2.1323-18.498 2.4004-18.498 2.4004-.00002 0-32.705 4.9833-33.478 5.0612-.002 0-.026.00034-.0292 0-.31656-.0493-3.5559-1.0501-4.1592-2.2848-.018-.0405-.0456-.1036-.0582-.14452-.014-.0493-.0244-.12356-.0292-.17346-.004-.0583-.01-.14332 0-.20244.135-.65065 1.1438-1.3542 3.723-1.9955 8.5749-2.1314 38.87-8.251 43.425-6.6518.58728.20602 1.016.15948 1.2798-.0579 1.708-1.5368-3.9744-11.338-17.917-12.725-16.078-1.5983-25.973 3.9911-25.973 3.9911s-10.462-3.7435-.8144-6.941c9.6462-3.1966 24.926 1.0701 24.926 1.0701-.00002 0 17.14-5.07 2.9376-7.2013-14.202-2.1323-18.68 1.9171-25.188 2.1402-2.5977-3.2243 22.297-3.9855 23.85-6.6518-2.6256-4.7976-18.028 0-27.05 0-3.8374-1.6186-4.0913-4.2523.26178-5.8709 9.2004-.35538 17.849.18184 27.05-.17346-.26804-4.8846.006-10.675-.26176-15.559-11.67-2.1203-25.355 1.5527-31.907 1.2436 1.7526-5.3298 26.949-6.7055 29.755-8.1557 5.7892-7.1953-24.167-.11118-24.897 0-5.3173-.78111-4.9953-4.123-1.6288-6.1312 7.7707-.88844 25.197 1.1323 23.879-4.1068-1.0098-4.9093-12.082-2.2808-16.637-1.2147-4.555 1.0652-11.256.26028-11.256.26028-2.917-3.905 26.27-2.3089 26.003-5.3214-.38064-3.4587-18.501-1.0763-24.665-.8098-4.7404-3.2522 22.286-5.4145 23.559-5.842.006-.004.0256-.02594.0292-.02894 1.0099-8.8575-18.76 0-22.512 0-.64484 0-1.1329-.16008-1.4834-.43382-.0782-.06328-.167-.1577-.2327-.23136-1.288-1.4941-.1454-4.9166-.1454-4.9166s7.0453-3.1479 7.475-3.9043c.002-.006.027-.02316.0292-.02894.00086-.002-.00062-.02616 0-.02894-.00008-.002.00032-.02654 0-.02894-.002-.004-.0262-.02456-.0292-.02894-.016-.02236-.0552-.06068-.0874-.08682-.82702-.63325-5.673-2.2317-6.3115-2.2848-.004-.00022-.025 0-.0292 0-.004-.0015-.0252-.02674-.029-.02894-.008-.006-.0222-.02036-.0292-.02894-.004-.004-.0258-.02336-.0292-.02894-.365-.74486.0874-6.0445.0874-6.0445s5.5825-4.1597 5.9335-5.8131c.002-.014-.002-.04452 0-.05788.002-.014-.00068-.04512 0-.05788.0003-.012.0005-.0455 0-.05788-.00088-.012.002-.0461 0-.05788-.00092-.006.00092-.02336 0-.02894-.004-.016-.0228-.04232-.0292-.05788-.002-.006.002-.02376 0-.02894-.002-.004-.0264-.02396-.0292-.02894-.006-.01-.0226-.02-.0292-.02894-.01-.014-.018-.0455-.029-.05788-.004-.004-.0246-.02496-.0292-.02894-.0224-.018-.0604-.04152-.0874-.05788-.012-.006-.0464-.02296-.0582-.02894-1.4099-.67313-7.2423 1.3304-7.2423 1.3304-.00002-1.7763 0-3.5451 0-5.3215-.00002 0 5.1065-.55195 5.6426-2.9499.0314-.14052.016-.27865 0-.4049-.008-.0501-.014-.12556-.0292-.17346-.0332-.103-.0834-.22493-.1456-.31813-.01-.014-.0476-.04392-.0582-.05788-1.1684-1.4997-5.9335-1.7063-5.9335-1.7063-.89348-9.3256-1.7823-18.641-2.6759-27.966zm-4.77 91.332v3.673c.00002 0-6.0093-.30606-7.126-1.2436-.006-.004-.0244-.0244-.0292-.0289-.004-.004-.0246-.0242-.0292-.0289-.004-.004-.025-.0242-.0292-.0289-.004-.004-.0254-.0242-.0292-.0289-.01-.014-.0216-.0431-.0292-.0579-.002-.004.002-.024 0-.0289-.002-.004-.0276-.024-.029-.0289-.00092-.004.00088-.024 0-.0289-.00092-.01.0001-.0475 0-.0579.00022-.006-.0005-.0238 0-.0289.0008-.006-.00092-.0236 0-.0289.006-.0214.018-.0649.029-.0868.002-.006.026-.0234.0292-.0289.014-.0224.0392-.0641.0582-.0868.006-.006.0236-.0232.0292-.0289.012-.012.0454-.0461.0582-.0579.0402-.0353.0928-.079.1454-.11578 2.0161-1.4035 6.0415-1.3704 6.8351-1.5906.006-.002.023.002.0292 0 .006-.002.024-.0267.029-.0289.004-.002.0254.002.0292 0 .004-.002.0262-.0265.0292-.0289zm8.5221 4.8876c.20764 0 11.97.1006 13.001 1.6196.008.012.0226.0447.0292.0579.008.02.0242.0665.0292.0868.002.014-.00072.0439 0 .0579-.00014.021.004.0655 0 .0868-.006.0216-.02.0647-.0292.0868-.89816 1.8972-12.798 3.0367-12.798 3.0367l-.23268-5.0322zm-.66898 7.2591c.004.002.0248-.002.029 0 .004.002.0232-.002.0292 0 .69832.18344 5.5701.34048 6.1662 1.1568.006.008.0246.0212.0292.0289.002.004-.002.025 0 .0289.004.008.0264.0208.0292.0289.00092.004-.00086.025 0 .0289.00044.004-.00026.0248 0 .0289.00002.004.00016.0247 0 .0289-.0004.004.00058.0246 0 .0289-.0008.004.00092.0246 0 .0289-.002.004-.0276.0244-.0292.0289-.002.004.002.0244 0 .0289-.008.014-.02.0439-.0292.0579-.004.004-.0256.0242-.0292.0289-.004.004.004.0242 0 .0289-1.0099 1.2272-5.5056 1.5618-5.7299 1.5618-.002-.0004-.0274.00074-.0292 0-.002-.00092.002-.0275 0-.0289-.004-.006-.0254-.0226-.029-.0289-.20552-.4149-.40722-3.0656-.40722-3.0656zm-35.863 9.6596c3.8405-.1984 11.462.70093 25.77 4.6274 0 .30278.28972 3.9918.1744 4.5984-.00092.004-.0278.0246-.0292.0289-.00092.004.00094.0261 0 .0289-.002.002-.0258.0285-.0292.0289-.2243-.11198-26.031-7.4859-28.388-7.3748-.0644.002-.1424.006-.2036 0-.052-.006-.1256-.018-.1744-.0289-.0642-.016-.1472-.0611-.20358-.0868-.0208-.01-.0678-.018-.0874-.0289-.006-.004-.0228-.025-.0292-.0289-.0784-.0529-.1562-.13314-.20358-.20244-.004-.006-.0258-.0234-.0292-.0289-.006-.012-.0238-.0465-.029-.0579-.002-.006.002-.023 0-.0289-.004-.012-.0264-.0459-.0292-.0579-.00092-.006.00092-.0228 0-.0289-.00092-.012.0003-.0453 0-.0579.00024-.012-.00092-.0451 0-.0579.004-.0321.018-.0828.0292-.11578.0318-.079.097-.18084.1744-.26028.39462-.38378 1.3829-.76932 3.2867-.86764zm13.379 10.903c4.1136-.14672 13.969 2.211 14.514 2.0823-.00002.78143.4361 4.475-.0582 5.2347-.004.006-.0242.023-.0292.0289-.004.006-.024.024-.0292.0289-.006.004-.0238.0251-.0292.0289-.01.006-.0466.0244-.0582.0289-.006.002-.0228-.00092-.0292 0-.012.00092-.045.00092-.0582 0-.006-.00092-.022.002-.0292 0-.83768-.20822-15.382-4.8016-15.939-6.6807-.008-.0309-.00066-.0862 0-.11578.006-.0655.038-.14552.0874-.20244.006-.006.0224-.023.0292-.0289.006-.006.022-.023.0292-.0289.27922-.22006.85536-.34943 1.5997-.37597zm40.487 10.122c3.9283-.0764 6.7017.25803 5.6717 1.446-2.8052 3.2354-22.192 5.8999-22.192 5.8999l-.34902-5.8999c.41636-.0609 10.267-1.3177 16.87-1.446zm-55.495 18.394c3.2967-.17446 10.974 1.6257 28.068 8.8209l.1164 4.2514c.00002 0-28.948-8.73-29.958-10.18-.49704-.71379-1.421-2.7229 1.7742-2.8921zm56.717 6.3337c.88072-.0445 1.5006.0441 1.716.26028.006.006.0244.0228.029.0289.012.02.0222.0657.0292.0868.004.0218.0296.0631.0292.0868-.012.12196-.104.28623-.26178.46274-2.6936 3.0133-17.161 6.0155-17.161 6.0155s-.00002-3.7923 0-3.9043c.002.0002.026-.00004.0292 0 .65948-.0224 11.279-2.8188 15.59-3.0367zm-63.465.52057c4.3217-.22785 14.08 2.0514 35.95 12.349-.00002.1068.1948 3.6583.1162 3.9911-.002-.00042-.0262.00082-.0292 0-1.2966-.41556-39.353-13.708-39.353-13.708-.0406-.14572-.61308-2.4246 3.3158-2.6318zm72.452 16.63c1.1059-.0462 1.8315.049 2.0069.2892.016.0278.027.0836.0292.1158-.004.1156-.1006.26294-.29088.4338-3.451 3.099-25.453 6.8535-26.235 6.9121-.004 0-.0258.00044-.0292 0-.002-.00092-.026.002-.029 0-.002-.002-.0264-.0262-.0292-.029-.008-.01-.023-.0438-.0292-.0578-.002-.006.002-.0236 0-.029-.004-.012-.0262-.0448-.0292-.0578-.1398-.7183.31564-3.2338.34902-3.5862.00032-.006 0-.0254 0-.029.00092.00092.027-.00092.0292 0 .004.00068.0242.0286.029.029.006.00028.0226-.00008.0292 0 1.4083-.0234 18.27-3.7446 24.199-3.9911zm-64.686 9.6885c6.5501-.33646 26.397 8.7127 27.37 8.9944.002.0005.0272-.00006.0292 0-.102.40426-.1188 3.6714-.20358 4.1935-.002.014.002.0502 0 .0578-.0008.002-.0284-.0009-.0292 0-.53504-.28494-27.736-11.51-28.94-10.614-.75036-1.7681.0276-2.5421 1.7742-2.6318zm58.52 2.3715c1.3629-.0596 2.3605.00064 2.6759.1734.0382.024.0732.0576.0874.0868.002.004-.00092.0238 0 .029.00024.006.00048.0236 0 .029-.002.012.006.0462 0 .0578-.004.006-.0248.0228-.0292.029-.02.0254-.0556.0588-.0874.0868-2.0197 1.7852-20.767 5.466-20.767 5.466s-.0874-3.4536-.0874-3.7886c.53248-.1132 12.635-1.9246 18.208-2.1691zm-1.5125 11.944c1.3191-.0436 2.2543.0312 2.4723.26028l.029.029c.006.01-.002.0472 0 .0578.0009.006.0288.0234.0292.029-.00028.006-.0282.0232-.0292.029-.002.012.006.0452 0 .0578-.004.006-.0252.0224-.029.029-.016.0262-.0348.0596-.0582.0868-.018.0206-.064.0658-.0874.0868-2.0235 1.7366-17.917 5.0611-17.917 5.0611s-.43628-3.7923-.43628-3.9043c.44088.01 11.067-1.6583 16.026-1.822zm-67.071.95438c3.8347-.24108 13.337 1.3301 36.793 9.8042l.78532 4.5695c0 .00002-39.055-12.536-40.167-12.928.002 0-.00084-.0258 0-.029.00092-.0242-.006-.0828 0-.1448.014-.1148.0724-.2955.20358-.46276.27524-.33548.90404-.71664 2.385-.80976zm51.452 9.9199c.47064.1 7.0193.31614 8.2312 1.3304.006.004.0238.0242.0292.029.004.004.0242.024.0292.029.004.004.025.024.0292.029.012.016.02.0426.0292.0578.002.006.0264.0238.029.029.01.021.0238.0652.0292.0868.00092.006-.00082.0234 0 .029.00054.006-.00024.0234 0 .029-.00004.012.00092.0466 0 .0578-.0009.006.00092.0232 0 .029-.002.012-.025.046-.0292.0578-.002.006.002.023 0 .029-.006.012-.0218.0458-.029.0578-1.0099 1.5622-7.8531 2.1402-7.8531 2.1402s-.33622-3.0612-.49446-4.02zm15.852 8.9076c1.5249-.0364 2.6194.1372 2.8504.5784.13.29904-.1202.74078-.84346 1.3304-5.6105 4.5746-17.83 5.466-17.83 5.466v-5.0322c.002.00024.0234.00038.0292 0 .69412-.082 10.731-2.2219 15.794-2.3426zm15.561 4.6852c1.9368-.073 2.7713.24986 3.0249.6941.0204.0394.0464.1032.0582.1448.018.0752.0354.18.0292.26032-.0624.57318-.68666 1.26-1.1634 1.7063-1.908 1.7852-32.314 11.366-32.314 11.366s-.22894-6.355-.1164-6.9121c17.777-5.357 26.472-7.1081 30.482-7.2591zm-19.662 17.989c1.9331-.0716 3.4447.042 3.8975.49162.0278.0298.0688.0828.0874.1158.01.0202.0224.0654.029.0868.006.0216-.002.064 0 .0868.00094.0386.01.1026 0 .1448-.022.0852-.0806.19-.1456.28922-2.6014 2.5386-15.241 2.921-15.241 2.921v-3.1524c2.3735-.0796 7.6569-.84556 11.372-.9833zm12.652 5.1768c.60092-.014.96738.083 1.018.2603.002.014.002.043 0 .0578-.0304.1476-.20694.37124-.58172.63624-5.0493 3.5695-24.025 7.2302-24.025 7.2302s.23512-2.4946.34902-3.0945c.5278-.008 18.699-4.9795 23.239-5.0901zm10.645 3.9622c2.236-.021 3.9426.30708 4.9155 1.0122.002 0 .0274-.00048.0292 0 .00072.002-.00054.0258 0 .029.00034.004-.00016.025 0 .029-.00046.01.00092.0464 0 .0578-.0952.69158-1.5167 3.945-6.5152 5.3504-6.2343-.5537-32.693 7.2241-33.216 7.3459-.002-.002-.0278.002-.029 0-.002-.01.00092-.0434 0-.0578-.014-.49822.34904-3.1813.34902-3.1813 9.1205-5.4234 25.695-10.503 34.466-10.585zm-67.74 15.27c.0584-.00092.1124-.0002.1744 0 11.445 1.2272 15.72 5.4873 16.928 7.2013-2.2821 3.982-20.37-4.9484-18.469-6.8542.21758-.1932.6654-.33254 1.367-.34706zm65.588.75196c.45456-.018.8697.0752 1.1634.26028.12.0798.2384.1944.31996.31812.1102.1776.1836.41798.2036.6941-1.1956 1.837-7.3791 1.0351-7.7659.9833.3115-.1104 3.8818-2.1726 6.0789-2.2558zm-24.519 12.378c.84862-.0348 1.5537.0504 1.9487.28918.0478.0308.1076.0794.1454.1158.012.012.0474.0446.0582.0578.016.02.0454.0652.0582.0868.012.022.02.0632.0292.0868.072.21614.044.51458-.1454.86762-1.7954 3.3474-9.6564 2.1112-9.6564 2.1112v-2.3426c.002.00066.0272-.00054.029 0 .44278.0374 4.7752-1.1598 7.5332-1.2725zm-46.304 8.8209c2.4185-.1214 4.5324 1.4562 6.7479 2.7185 4.9367-1.0041 15.066.78088 15.066.78088v4.4538c0 .004-.0228.0258-.0292.029-.004.002-.023-.002-.029 0-.92204.1596-12.793-.3561-15.444-2.0244-2.1624 0-8.284-3.2125-8.7548-4.8587-.004-.014-.0262-.0442-.0292-.0578-.004-.0204.002-.0668 0-.0868-.00066-.014-.00026-.045 0-.058.00068-.012-.002-.0456 0-.0578.00092-.006-.00094-.0228 0-.029.002-.012.0252-.0462.0292-.0578.002-.006-.002-.0232 0-.029.84598-.44826 1.6703-.68424 2.4432-.72302zm51.918 2.198c1.8569-.0994 2.6442.47132 1.1925 2.5161-4.0394 5.6898-14.485 3.3548-14.485 3.3548l-.43628-3.5284c3.6843.143 10.418-2.1652 13.728-2.3426zm-39.033 11.539c4.2236-.1958 8.8129 1.475 8.8129 1.475.1082.21432 2.27 4.4517.34904 5.8709-.0714.0512-.1498.1014-.23268.1446-2.3567 1.2272-13.62-.95902-14.281-5.466 1.3254-1.3911 3.289-1.9289 5.3517-2.0245zm-43.541 2.198c3.8627-.23048 8.1774 2.1356 8.6675 2.3715.006.002.0254-.00092.029 0 0 .1334-.1454 4.2803-.1454 4.2803s-7.6465-2.1195-10.064-6.3915c.48468-.1314 1.0023-.22986 1.5125-.2603zm73.558.57842c4.3081-.0272 9.5129.97916 10.267 2.4294.1426.2966.1002.62358-.1744.9544-2.1323 2.5654-14.252.23136-14.252.23136v-3.1234c1.0783-.31364 2.5636-.4816 4.1592-.49168z" fill="#007934"/></svg>