<svg viewBox="0 0 4320 2880" xmlns="http://www.w3.org/2000/svg" xmlns:xlink="http://www.w3.org/1999/xlink"><path d="m0 0h4320v1440h-4320z" fill="#ed2939"/><path d="m0 1440h4320v1440h-4320z" fill="#fff"/><path d="m1481.678 720a541.5 541.5 0 1 1 -1083.00002 0 541.5 541.5 0 1 1 1083.00002 0z" fill="#fff"/><path d="m1651.835 720a511.73499 511.73499 0 1 1 -1023.47001 0 511.73499 511.73499 0 1 1 1023.47001 0z" fill="#ed2939"/><path id="a" d="m1007.1951 733.06439-73.56044-56.43014-73.54187 56.45692 28.31308-90.9943-73.7944-56.09157 91.05893.1928 27.9345-91.12343 27.96444 91.11331 91.05886-.22552-73.776 56.11834z" fill="#fff"/><use transform="translate(577.18853)" xlink:href="#a"/><use transform="translate(288.88853 -214.21117)" xlink:href="#a"/><use transform="translate(107.99953 342.74883)" xlink:href="#a"/><use transform="translate(469.18853 342.74883)" xlink:href="#a"/></svg>