<?xml version="1.0" encoding="UTF-8"?>
<svg version="1.1" xmlns="http://www.w3.org/2000/svg" width="512" height="512">
<path d="M0 0 C1.01790619 0.00215515 2.03581238 0.0043103 3.08456421 0.00653076 C17.69363523 0.05620146 32.02575853 0.30709809 46.375 3.3125 C47.34985352 3.51117676 48.32470703 3.70985352 49.32910156 3.91455078 C97.7109774 14.03517194 141.69928269 35.9516877 177.375 70.3125 C178.3640332 71.26068604 178.3640332 71.26068604 179.37304688 72.22802734 C188.86130305 81.37247479 197.6012044 90.66984009 205.375 101.3125 C206.23306152 102.46355017 207.09113451 103.61459177 207.94921875 104.765625 C213.98736829 112.95680614 219.34595521 121.47054105 224.375 130.3125 C224.73948242 130.94430176 225.10396484 131.57610352 225.47949219 132.22705078 C247.08534998 169.97532572 256.85198095 212.74189997 256.6875 255.9375 C256.68534485 256.95540619 256.6831897 257.97331238 256.68096924 259.02206421 C256.63129854 273.63113523 256.38040191 287.96325853 253.375 302.3125 C253.07698486 303.77478027 253.07698486 303.77478027 252.77294922 305.26660156 C242.65232806 353.6484774 220.7358123 397.63678269 186.375 433.3125 C185.74287598 433.97185547 185.11075195 434.63121094 184.45947266 435.31054688 C175.31502521 444.79880305 166.01765991 453.5387044 155.375 461.3125 C154.22394983 462.17056152 153.07290823 463.02863451 151.921875 463.88671875 C143.73224019 469.92427396 135.22961724 475.30707302 126.375 480.3125 C125.66778809 480.7146875 124.96057617 481.116875 124.23193359 481.53125 C101.09654164 494.5566741 75.92537591 503.30551461 49.9375 508.625 C49.21860596 508.77235596 48.49971191 508.91971191 47.7590332 509.0715332 C33.08339502 511.86090125 18.55831162 512.66142619 3.64770508 512.62817383 C0.70811513 512.6250221 -2.2304558 512.64854926 -5.16992188 512.67382812 C-18.54306192 512.71848737 -31.43916711 511.51301542 -44.625 509.3125 C-46.33055054 509.03031616 -46.33055054 509.03031616 -48.07055664 508.74243164 C-91.33802759 500.97044532 -132.38793216 480.98345309 -165.625 452.3125 C-166.37007813 451.67828125 -167.11515625 451.0440625 -167.8828125 450.390625 C-181.38779833 438.57948485 -194.05918743 425.82889772 -204.625 411.3125 C-205.48149066 410.16255169 -206.33826433 409.01281411 -207.1953125 407.86328125 C-213.23534209 399.67315742 -218.61867614 391.16870382 -223.625 382.3125 C-224.0271875 381.60528809 -224.429375 380.89807617 -224.84375 380.16943359 C-237.8691741 357.03404164 -246.61801461 331.86287591 -251.9375 305.875 C-252.08485596 305.15610596 -252.23221191 304.43721191 -252.3840332 303.6965332 C-255.35789088 288.05024391 -255.99800362 272.57681954 -255.9375 256.6875 C-255.93534485 255.66959381 -255.9331897 254.65168762 -255.93096924 253.60293579 C-255.88129854 238.99386477 -255.63040191 224.66174147 -252.625 210.3125 C-252.42632324 209.33764648 -252.22764648 208.36279297 -252.02294922 207.35839844 C-241.90232806 158.9765226 -219.9858123 114.98821731 -185.625 79.3125 C-184.99287598 78.65314453 -184.36075195 77.99378906 -183.70947266 77.31445312 C-174.56502521 67.82619695 -165.26765991 59.0862956 -154.625 51.3125 C-153.47394983 50.45443848 -152.32290823 49.59636549 -151.171875 48.73828125 C-142.98224019 42.70072604 -134.47961724 37.31792698 -125.625 32.3125 C-124.91778809 31.9103125 -124.21057617 31.508125 -123.48193359 31.09375 C-100.34654164 18.0683259 -75.17537591 9.31948539 -49.1875 4 C-48.46860596 3.85264404 -47.74971191 3.70528809 -47.0090332 3.5534668 C-31.36274391 0.57960912 -15.88931954 -0.06050362 0 0 Z " fill="#A2D3FE" transform="translate(255.625,-0.3125)"/>
<path d="M0 0 C1.29827225 -0.0049926 1.29827225 -0.0049926 2.62277222 -0.01008606 C4.44642613 -0.01512185 6.27008915 -0.01749543 8.09375 -0.01733398 C10.83870227 -0.01950868 13.58324422 -0.03766793 16.328125 -0.05664062 C26.34334217 -0.08913584 35.86788543 0.35503839 45.7421875 2.16796875 C46.5779834 2.30871826 47.4137793 2.44946777 48.27490234 2.59448242 C82.29995286 8.50983005 112.94703442 23.25944468 137.45776367 47.37084961 C138.83297413 48.71712141 140.20847014 50.06310159 141.58422852 51.40881348 C154.07765367 63.64288511 166.50862331 75.94113636 178.92472363 88.25362301 C188.09532614 97.34628053 197.29426454 106.40814953 206.5323965 115.43220037 C213.03768623 121.79177757 219.50821306 128.18544586 225.9542349 134.60508257 C229.80134002 138.43447089 233.66225811 142.24699902 237.56166649 146.02317619 C241.22701005 149.57395588 244.84739504 153.16507839 248.43805695 156.79131317 C249.76043475 158.11193585 251.09825891 159.41730271 252.45228767 160.70545387 C262.38166036 170.17631136 262.38166036 170.17631136 262.98012948 175.14241338 C262.75583785 179.75393632 261.3366486 183.84893452 259.7421875 188.16796875 C259.1635025 190.27852771 258.59708319 192.39254682 258.05078125 194.51171875 C257.43902962 196.56739505 256.81506176 198.6194706 256.1796875 200.66796875 C255.66523071 202.32783813 255.66523071 202.32783813 255.14038086 204.02124023 C251.49250179 215.44376847 246.90228677 226.35307958 241.7421875 237.16796875 C241.38044434 237.92867676 241.01870117 238.68938477 240.64599609 239.47314453 C229.63876913 262.23098361 214.24054415 282.99999241 196.7421875 301.16796875 C196.11006348 301.82732422 195.47793945 302.48667969 194.82666016 303.16601562 C185.68221271 312.6542718 176.38484741 321.39417315 165.7421875 329.16796875 C164.59113733 330.02603027 163.44009573 330.88410326 162.2890625 331.7421875 C154.09942769 337.77974271 145.59680474 343.16254177 136.7421875 348.16796875 C136.03497559 348.57015625 135.32776367 348.97234375 134.59912109 349.38671875 C108.70810683 363.96358185 80.05854118 373.45958467 50.7421875 378.16796875 C50.01580078 378.29526367 49.28941406 378.42255859 48.54101562 378.55371094 C46.50715042 378.89455612 44.47654799 379.16859717 42.4296875 379.41796875 C41.29917969 379.5675 40.16867187 379.71703125 39.00390625 379.87109375 C35.35564248 379.08464168 35.07383701 378.71206901 32.85757446 375.95036316 C29.66875986 372.16926697 26.30161877 368.61335069 22.80892944 365.11445618 C22.25147828 364.55572134 21.69402712 363.99698651 21.1196835 363.42132032 C19.29312158 361.59447227 17.46372178 359.77049429 15.63427734 357.9465332 C14.31111009 356.62364843 12.9881638 355.3005426 11.66542053 353.97723389 C8.09140217 350.40292979 4.51431857 346.83170787 0.93666029 343.2610476 C-2.81440262 339.51626187 -6.56260907 335.76861924 -10.31112671 332.02128601 C-17.40737512 324.92814046 -24.50616679 317.83754591 -31.60588682 310.74787539 C-39.67130201 302.69363084 -47.73388564 294.63655437 -55.79622579 286.57923186 C-69.57735193 272.80678098 -83.36058559 259.03644225 -97.14619446 245.26847839 C-97.72824973 244.68716272 -98.31030499 244.10584705 -98.9099983 243.50691575 C-99.97720517 242.44107641 -101.04442761 241.37525266 -102.11167014 240.30944902 C-103.49383605 238.9290742 -104.87582822 237.54852542 -106.2578125 236.16796875 C-107.16887945 235.26589282 -108.0799464 234.36381689 -109.01862144 233.43440533 C-112.63454104 229.77448876 -112.63454104 229.77448876 -113.2578125 227.16796875 C-112.11474609 224.36914062 -112.11474609 224.36914062 -110.15625 221.13671875 C-109.80849014 220.55265259 -109.46073029 219.96858643 -109.10243225 219.36682129 C-107.96085498 217.45774292 -106.79721199 215.56319733 -105.6328125 213.66796875 C-104.84106671 212.3537446 -104.0507907 211.03863391 -103.26196289 209.72265625 C-101.68043646 207.08975863 -100.09029141 204.46241403 -98.49169922 201.83984375 C-96.5527826 198.65803187 -94.63607268 195.46362526 -92.73046875 192.26171875 C-87.32317601 183.17909065 -81.83059739 174.14998676 -76.2578125 165.16796875 C-72.39207099 166.56606694 -69.24185947 168.40241255 -65.8203125 170.66796875 C-52.21781117 179.31253014 -36.72782703 185.76145393 -21.2578125 190.16796875 C-20.18104248 190.50634766 -20.18104248 190.50634766 -19.08251953 190.8515625 C-7.41973408 194.48314728 3.8971665 195.66667179 16.0546875 195.73046875 C16.72612793 195.73913971 17.39756836 195.74781067 18.08935547 195.75674438 C25.94113924 195.82733059 32.16624034 195.70945723 38.7421875 191.16796875 C40.80877494 187.73111126 41.32766626 185.18268021 40.7421875 181.16796875 C33.5200885 172.39827711 17.42631641 171.97508259 6.88305664 170.53097534 C2.41561301 169.91689286 -2.04579445 169.26152675 -6.5078125 168.609375 C-7.37112183 168.48389786 -8.23443115 168.35842072 -9.12390137 168.22914124 C-28.76379595 165.35630452 -47.46479945 161.27871308 -65.2578125 152.16796875 C-66.76794922 151.41773438 -66.76794922 151.41773438 -68.30859375 150.65234375 C-84.74324381 141.87014424 -95.05879414 127.71231868 -100.67089844 110.18164062 C-102.21096988 104.89773493 -102.87261445 99.64370723 -103.2578125 94.16796875 C-103.35191406 92.853125 -103.44601563 91.53828125 -103.54296875 90.18359375 C-104.53602872 69.12924029 -96.83003486 49.789256 -83.02197266 34.09570312 C-62.33063503 11.66780542 -30.13173514 0.04131425 0 0 Z " fill="#65B0FB" transform="translate(245.2578125,131.83203125)"/>
<path d="M0 0 C1.29827225 -0.0049926 1.29827225 -0.0049926 2.62277222 -0.01008606 C4.44642613 -0.01512185 6.27008915 -0.01749543 8.09375 -0.01733398 C10.83870227 -0.01950868 13.58324422 -0.03766793 16.328125 -0.05664062 C26.34334217 -0.08913584 35.86788543 0.35503839 45.7421875 2.16796875 C46.5779834 2.30871826 47.4137793 2.44946777 48.27490234 2.59448242 C73.97909893 7.06322695 98.53871918 17.62008977 120.7421875 31.16796875 C120.16480592 34.72490509 119.24532662 37.47208406 117.51171875 40.625 C117.04523926 41.47860107 116.57875977 42.33220215 116.09814453 43.21166992 C115.3341333 44.58222534 115.3341333 44.58222534 114.5546875 45.98046875 C114.0272998 46.93735596 113.49991211 47.89424316 112.95654297 48.88012695 C108.31278582 57.25530509 103.50676529 65.53527114 98.63989258 73.7824707 C94.87180636 80.17417985 91.25502224 86.63244379 87.7421875 93.16796875 C83.77045445 93.16796875 81.64553199 91.27211737 78.4921875 89.10546875 C58.43485624 75.85484145 36.01961255 69.19986291 12.0546875 68.79296875 C11.09208008 68.7667041 10.12947266 68.74043945 9.13769531 68.71337891 C2.43785255 68.69842903 -3.39779702 69.75905555 -9.2578125 73.16796875 C-11.5729562 76.6406843 -11.51235013 78.09536672 -11.2578125 82.16796875 C-10.61124241 85.27098559 -10.61124241 85.27098559 -8.3203125 86.16796875 C-7.3096875 86.49796875 -6.2990625 86.82796875 -5.2578125 87.16796875 C-4.28038086 87.49982178 -4.28038086 87.49982178 -3.28320312 87.83837891 C4.13236034 90.22912894 11.61333245 91.39246664 19.3046875 92.54296875 C22.07003311 92.97146888 24.83403451 93.40818543 27.59765625 93.84765625 C28.63143402 94.01192108 28.63143402 94.01192108 29.68609619 94.17950439 C62.48266274 99.43932196 98.33632132 106.25226849 119.7421875 134.16796875 C131.55473344 151.30640245 135.09758143 172.29377939 132.2421875 192.75 C128.59305361 209.89678256 120.98815437 223.71373714 108.7421875 236.16796875 C108.06671875 236.85632813 107.39125 237.5446875 106.6953125 238.25390625 C96.27709796 248.16295993 83.23135775 254.5557387 69.7421875 259.16796875 C69.07993164 259.39468262 68.41767578 259.62139648 67.73535156 259.85498047 C51.85212833 265.1607496 35.46279319 267.61563643 18.7421875 268.16796875 C18.02047363 268.1952002 17.29875977 268.22243164 16.55517578 268.25048828 C-24.90001355 269.64430835 -70.05250932 258.71909628 -104.9453125 235.79296875 C-105.56317627 235.38844482 -106.18104004 234.9839209 -106.81762695 234.56713867 C-109.91109287 232.43574908 -112.21649604 230.83759838 -113.2578125 227.16796875 C-112.11474609 224.36914062 -112.11474609 224.36914062 -110.15625 221.13671875 C-109.80849014 220.55265259 -109.46073029 219.96858643 -109.10243225 219.36682129 C-107.96085498 217.45774292 -106.79721199 215.56319733 -105.6328125 213.66796875 C-104.84106671 212.3537446 -104.0507907 211.03863391 -103.26196289 209.72265625 C-101.68043646 207.08975863 -100.09029141 204.46241403 -98.49169922 201.83984375 C-96.5527826 198.65803187 -94.63607268 195.46362526 -92.73046875 192.26171875 C-87.32317601 183.17909065 -81.83059739 174.14998676 -76.2578125 165.16796875 C-72.39207099 166.56606694 -69.24185947 168.40241255 -65.8203125 170.66796875 C-52.21781117 179.31253014 -36.72782703 185.76145393 -21.2578125 190.16796875 C-20.18104248 190.50634766 -20.18104248 190.50634766 -19.08251953 190.8515625 C-7.41973408 194.48314728 3.8971665 195.66667179 16.0546875 195.73046875 C16.72612793 195.73913971 17.39756836 195.74781067 18.08935547 195.75674438 C25.94113924 195.82733059 32.16624034 195.70945723 38.7421875 191.16796875 C40.80877494 187.73111126 41.32766626 185.18268021 40.7421875 181.16796875 C33.5200885 172.39827711 17.42631641 171.97508259 6.88305664 170.53097534 C2.41561301 169.91689286 -2.04579445 169.26152675 -6.5078125 168.609375 C-7.37112183 168.48389786 -8.23443115 168.35842072 -9.12390137 168.22914124 C-28.76379595 165.35630452 -47.46479945 161.27871308 -65.2578125 152.16796875 C-66.76794922 151.41773438 -66.76794922 151.41773438 -68.30859375 150.65234375 C-84.74324381 141.87014424 -95.05879414 127.71231868 -100.67089844 110.18164062 C-102.21096988 104.89773493 -102.87261445 99.64370723 -103.2578125 94.16796875 C-103.35191406 92.853125 -103.44601563 91.53828125 -103.54296875 90.18359375 C-104.53602872 69.12924029 -96.83003486 49.789256 -83.02197266 34.09570312 C-62.33063503 11.66780542 -30.13173514 0.04131425 0 0 Z " fill="#333940" transform="translate(245.2578125,131.83203125)"/>
<path d="M0 0 C1.29827225 -0.0049926 1.29827225 -0.0049926 2.62277222 -0.01008606 C4.44642613 -0.01512185 6.27008915 -0.01749543 8.09375 -0.01733398 C10.83870227 -0.01950868 13.58324422 -0.03766793 16.328125 -0.05664062 C26.34334217 -0.08913584 35.86788543 0.35503839 45.7421875 2.16796875 C46.5779834 2.30871826 47.4137793 2.44946777 48.27490234 2.59448242 C73.97909893 7.06322695 98.53871918 17.62008977 120.7421875 31.16796875 C120.16480592 34.72490509 119.24532662 37.47208406 117.51171875 40.625 C117.04523926 41.47860107 116.57875977 42.33220215 116.09814453 43.21166992 C115.3341333 44.58222534 115.3341333 44.58222534 114.5546875 45.98046875 C114.0272998 46.93735596 113.49991211 47.89424316 112.95654297 48.88012695 C108.31278582 57.25530509 103.50676529 65.53527114 98.63989258 73.7824707 C94.87180636 80.17417985 91.25502224 86.63244379 87.7421875 93.16796875 C83.77045445 93.16796875 81.64553199 91.27211737 78.4921875 89.10546875 C58.43485624 75.85484145 36.01961255 69.19986291 12.0546875 68.79296875 C11.09208008 68.7667041 10.12947266 68.74043945 9.13769531 68.71337891 C2.43785255 68.69842903 -3.39779702 69.75905555 -9.2578125 73.16796875 C-11.5729562 76.6406843 -11.51235013 78.09536672 -11.2578125 82.16796875 C-10.61124241 85.27098559 -10.61124241 85.27098559 -8.3203125 86.16796875 C-7.3096875 86.49796875 -6.2990625 86.82796875 -5.2578125 87.16796875 C-4.50757813 87.41675781 -3.75734375 87.66554688 -2.984375 87.921875 C2.27425337 89.59654588 7.24829017 90.65927455 12.7421875 91.16796875 C11.7521875 91.66296875 11.7521875 91.66296875 10.7421875 92.16796875 C10.7421875 117.90796875 10.7421875 143.64796875 10.7421875 170.16796875 C-15.48944014 167.98199978 -41.74456717 164.68621008 -65.2578125 152.16796875 C-66.82208984 151.38679688 -66.82208984 151.38679688 -68.41796875 150.58984375 C-84.80640138 141.8775415 -95.08795349 127.62123284 -100.67089844 110.18164062 C-102.21096988 104.89773493 -102.87261445 99.64370723 -103.2578125 94.16796875 C-103.35191406 92.853125 -103.44601563 91.53828125 -103.54296875 90.18359375 C-104.53602872 69.12924029 -96.83003486 49.789256 -83.02197266 34.09570312 C-62.33063503 11.66780542 -30.13173514 0.04131425 0 0 Z " fill="#555A66" transform="translate(245.2578125,131.83203125)"/>
<path d="M0 0 C3.86574151 1.39809819 7.01595303 3.2344438 10.4375 5.5 C24.02179159 14.13298887 39.52967882 20.64849959 55 25 C55.74443359 25.22026855 56.48886719 25.44053711 57.25585938 25.66748047 C72.11750102 29.99561822 86.56720452 30.90642343 102 31 C102 31.33 102 31.66 102 32 C97.05 32 92.1 32 87 32 C87 55.1 87 78.2 87 102 C89.64 102 92.28 102 95 102 C95 102.33 95 102.66 95 103 C52.5822763 104.27964083 7.12224837 94.1536014 -28.6875 70.625 C-29.30536377 70.22047607 -29.92322754 69.81595215 -30.55981445 69.39916992 C-33.65328037 67.26778033 -35.95868354 65.66962963 -37 62 C-35.85693359 59.20117188 -35.85693359 59.20117188 -33.8984375 55.96875 C-33.55067764 55.38468384 -33.20291779 54.80061768 -32.84461975 54.19885254 C-31.70304248 52.28977417 -30.53939949 50.39522858 -29.375 48.5 C-28.58325421 47.18577585 -27.7929782 45.87066516 -27.00415039 44.5546875 C-25.42262396 41.92178988 -23.83247891 39.29444528 -22.23388672 36.671875 C-20.2949701 33.49006312 -18.37826018 30.29565651 -16.47265625 27.09375 C-11.06536351 18.0111219 -5.57278489 8.98201801 0 0 Z " fill="#555A66" transform="translate(169,297)"/>
<path d="M0 0 C24.57714286 0 24.57714286 0 35 2 C35.69738281 2.12358887 36.39476562 2.24717773 37.11328125 2.37451172 C63.01699849 6.98819193 87.58566276 17.32345524 110 31 C109.42261842 34.55693634 108.50313912 37.30411531 106.76953125 40.45703125 C106.06981201 41.73743286 106.06981201 41.73743286 105.35595703 43.04370117 C104.5919458 44.41425659 104.5919458 44.41425659 103.8125 45.8125 C103.2851123 46.76938721 102.75772461 47.72627441 102.21435547 48.7121582 C97.57059832 57.08733634 92.76457779 65.36730239 87.89770508 73.61450195 C84.12961886 80.0062111 80.51283474 86.46447504 77 93 C73.02826695 93 70.90334449 91.10414862 67.75 88.9375 C46.88277978 75.1518296 24.75877944 69.9045215 0 68 C0 45.56 0 23.12 0 0 Z " fill="#333940" transform="translate(256,132)"/>
<path d="M0 0 C0.99257812 0.51949219 1.98515625 1.03898437 3.0078125 1.57421875 C24.90471202 12.88399452 47.29414449 17.89348227 71.51855469 21.21289062 C108.93257012 26.34976232 108.93257012 26.34976232 115 34 C115.49479862 37.15781591 114.96655411 39.96624925 114 43 C110.38572009 46.9154699 106.19836655 48.78131341 100.91992188 49.30639648 C97.11281853 49.37776621 93.30773657 49.43923616 89.5 49.4375 C88.45856339 49.43860275 88.45856339 49.43860275 87.39608765 49.43972778 C75.03924043 49.40539678 63.76494595 47.85600798 52 44 C51.06897461 43.69513672 50.13794922 43.39027344 49.17871094 43.07617188 C43.41145533 41.1569843 37.69526156 39.1227237 32 37 C32 36.01 32 35.02 32 34 C30.77450057 32.35146042 30.77450057 32.35146042 29.0625 30.75366211 C28.42183594 30.11968002 27.78117187 29.48569794 27.12109375 28.83250427 C26.42113281 28.1543013 25.72117188 27.47609833 25 26.77734375 C24.28972656 26.0760585 23.57945312 25.37477325 22.84765625 24.65223694 C20.57208246 22.40676689 18.28691469 20.17141468 16 17.9375 C13.71396543 15.69917106 11.43018107 13.45872295 9.15234375 11.21205139 C7.73287174 9.81245416 6.30848361 8.41782302 4.87890625 7.02854919 C4.23824219 6.39771927 3.59757813 5.76688934 2.9375 5.11694336 C2.36902344 4.56195663 1.80054688 4.00696991 1.21484375 3.43516541 C0 2 0 2 0 0 Z " fill="#64AFF9" transform="translate(172,279)"/>
</svg>
