<svg xmlns="http://www.w3.org/2000/svg" width="20" height="20" fill="none"><g clip-path="url(#a)"><g clip-path="url(#b)"><g clip-path="url(#c)"><g clip-path="url(#d)"><path fill="#07F" d="M1.5 9.582c0-3.81 0-5.715 1.184-6.898C3.867 1.5 5.772 1.5 9.582 1.5h.836c3.81 0 5.715 0 6.898 1.184C18.5 3.867 18.5 5.772 18.5 9.582v.836c0 3.81 0 5.715-1.184 6.898-1.183 1.184-3.088 1.184-6.898 1.184h-.836c-3.81 0-5.715 0-6.898-1.184C1.5 16.133 1.5 14.228 1.5 10.418v-.836Z"/><mask id="e" width="18" height="18" x="1" y="1" maskUnits="userSpaceOnUse" style="mask-type:alpha"><path fill="#313131" d="M1.5 9.582c0-3.81 0-5.715 1.184-6.898C3.867 1.5 5.772 1.5 9.582 1.5h.836c3.81 0 5.715 0 6.898 1.184C18.5 3.867 18.5 5.772 18.5 9.582v.836c0 3.81 0 5.715-1.184 6.898-1.183 1.184-3.088 1.184-6.898 1.184h-.836c-3.81 0-5.715 0-6.898-1.184C1.5 16.133 1.5 14.228 1.5 10.418v-.836Z"/></mask><g mask="url(#e)"><path fill="#00EAFF" fill-rule="evenodd" d="M20.366 7.793a8.67 8.67 0 1 0-9.206 6.053v2.53a11.357 11.357 0 0 0 9.206-8.583Z" clip-rule="evenodd"/><circle cx="7.277" cy="6.495" r="1.314" fill="#fff"/><circle cx="11.22" cy="6.495" r="1.314" fill="#fff"/><circle cx="15.164" cy="6.495" r="1.314" fill="#fff"/></g></g></g></g></g><defs><clipPath id="a"><path fill="#fff" d="M0 0h20v20H0z"/></clipPath><clipPath id="b"><path fill="#fff" d="M0 0h20v20H0z"/></clipPath><clipPath id="c"><path fill="#fff" d="M1.5 1.5h17v17h-17z"/></clipPath><clipPath id="d"><path fill="#fff" d="M1.5 1.5h17v17h-17z"/></clipPath></defs></svg>