<?xml version="1.0" encoding="UTF-8" standalone="no"?>
<svg
   xmlns:dc="http://purl.org/dc/elements/1.1/"
   xmlns:cc="http://creativecommons.org/ns#"
   xmlns:rdf="http://www.w3.org/1999/02/22-rdf-syntax-ns#"
   xmlns:svg="http://www.w3.org/2000/svg"
   xmlns="http://www.w3.org/2000/svg"
   xmlns:sodipodi="http://sodipodi.sourceforge.net/DTD/sodipodi-0.dtd"
   xmlns:inkscape="http://www.inkscape.org/namespaces/inkscape"
   viewBox="0 0 16 16"
   version="1.1"
   id="svg4"
   sodipodi:docname="planner-no-favorite-symbolic.svg"
   width="16"
   height="16"
   inkscape:version="0.92.3 (2405546, 2018-03-11)">
  <metadata
     id="metadata10">
    <rdf:RDF>
      <cc:Work
         rdf:about="">
        <dc:format>image/svg+xml</dc:format>
        <dc:type
           rdf:resource="http://purl.org/dc/dcmitype/StillImage" />
        <dc:title />
      </cc:Work>
    </rdf:RDF>
  </metadata>
  <defs
     id="defs8" />
  <sodipodi:namedview
     pagecolor="#ffffff"
     bordercolor="#666666"
     borderopacity="1"
     objecttolerance="10"
     gridtolerance="10"
     guidetolerance="10"
     inkscape:pageopacity="0"
     inkscape:pageshadow="2"
     inkscape:window-width="1366"
     inkscape:window-height="705"
     id="namedview6"
     showgrid="false"
     inkscape:zoom="32.625"
     inkscape:cx="3.2950192"
     inkscape:cy="8"
     inkscape:window-x="0"
     inkscape:window-y="30"
     inkscape:window-maximized="1"
     inkscape:current-layer="svg4" />
  <g
     id="g813">
    <path
       style="stroke-width:0.03365385;fill:#666666;fill-opacity:1"
       inkscape:connector-curvature="0"
       id="path2"
       d="m 11.230769,1.238462 h -0.03365 c -1.336057,0 -2.517307,0.70673 -3.197115,1.75 -0.679808,-1.04327 -1.861058,-1.75 -3.197115,-1.75 H 4.769239 C 2.686058,1.258654 1,2.951442 1,5.041346 1,6.286538 1.545192,8.053365 2.608654,9.507212 4.634615,12.276923 8,14.7 8,14.7 8,14.7 11.365385,12.276923 13.391346,9.507212 14.454808,8.053365 15,6.286538 15,5.041346 15,2.951442 13.313942,1.258654 11.230769,1.238462 Z m 1.4,7.713461 C 11.197115,10.913942 9.012981,12.724519 8,13.515385 6.987019,12.724519 4.802885,10.910577 3.369231,8.948558 2.383173,7.602404 1.942308,6.017308 1.942308,5.041346 c 0,-0.760577 0.296154,-1.474038 0.827884,-2.0125 0.535096,-0.538461 1.245193,-0.837981 2.00577,-0.844711 h 0.03029 c 0.48125,0 0.959135,0.124519 1.383173,0.363461 0.410577,0.232212 0.767308,0.562019 1.023077,0.959135 0.175,0.265865 0.471154,0.427404 0.790865,0.427404 0.319712,0 0.615866,-0.161539 0.790866,-0.427404 0.259134,-0.397116 0.6125,-0.726923 1.023077,-0.959135 0.424038,-0.238942 0.901923,-0.363461 1.383173,-0.363461 h 0.03029 c 0.757212,0.0067 1.470673,0.30625 2.005769,0.844711 0.535097,0.538462 0.827885,1.255289 0.827885,2.0125 -0.0067,0.975962 -0.447596,2.561058 -1.433654,3.910577 z" />
  </g>
</svg>
