<?xml version="1.0" encoding="UTF-8" standalone="no"?>
<svg
   xmlns:dc="http://purl.org/dc/elements/1.1/"
   xmlns:cc="http://creativecommons.org/ns#"
   xmlns:rdf="http://www.w3.org/1999/02/22-rdf-syntax-ns#"
   xmlns:svg="http://www.w3.org/2000/svg"
   xmlns="http://www.w3.org/2000/svg"
   xmlns:sodipodi="http://sodipodi.sourceforge.net/DTD/sodipodi-0.dtd"
   xmlns:inkscape="http://www.inkscape.org/namespaces/inkscape"
   version="1.1"
   id="Layer_1"
   x="0px"
   y="0px"
   viewBox="0 0 16 16"
   xml:space="preserve"
   sodipodi:docname="byte-play-later.svg"
   inkscape:version="0.92.3 (2405546, 2018-03-11)"
   width="16"
   height="16"><defs
     id="defs21" /><sodipodi:namedview
     pagecolor="#ffffff"
     bordercolor="#666666"
     borderopacity="1"
     objecttolerance="10"
     gridtolerance="10"
     guidetolerance="10"
     inkscape:pageopacity="0"
     inkscape:pageshadow="2"
     inkscape:window-width="1366"
     inkscape:window-height="705"
     id="namedview19"
     showgrid="false"
     inkscape:zoom="8.137931"
     inkscape:cx="-31.457627"
     inkscape:cy="4.6694915"
     inkscape:window-x="0"
     inkscape:window-y="30"
     inkscape:window-maximized="1"
     inkscape:current-layer="Layer_1" /><style
     type="text/css"
     id="style2">.st0{fill:none;stroke:#000000;stroke-width:2;stroke-miterlimit:10;} .st1{fill:none;stroke:#000000;stroke-width:2;stroke-linecap:round;stroke-linejoin:round;stroke-miterlimit:10;} .st2{fill:none;stroke:#000000;stroke-miterlimit:10;} .st3{fill:none;stroke:#000000;stroke-width:2;stroke-miterlimit:10;stroke-dasharray:1.7411,1.7411;} .st4{fill:none;stroke:#000000;stroke-width:2;stroke-linecap:round;stroke-linejoin:round;stroke-dasharray:2.0261,4.0522;} .st5{fill:#606060;} .st6{stroke:#000000;stroke-miterlimit:10;}</style><g
     id="g828"><g
       id="g829"><g
         id="g837"
         transform="matrix(-0.56,0,0,-0.56,16.12,16.399736)"
         style="fill:#666666;fill-opacity:1"><path
           id="path4"
           d="M 26,22.943 H 9 a 1,1 0 0 1 0,-2 h 17 a 1,1 0 0 1 0,2 z"
           inkscape:connector-curvature="0"
           style="fill:#666666;fill-opacity:1" /><path
           id="path6"
           d="M 26,18.943 H 9 a 1,1 0 0 1 0,-2 h 17 a 1,1 0 0 1 0,2 z"
           inkscape:connector-curvature="0"
           style="fill:#666666;fill-opacity:1" /><path
           id="path8"
           d="M 26,14.943 H 9 a 1,1 0 0 1 0,-2 h 17 a 1,1 0 0 1 0,2 z"
           inkscape:connector-curvature="0"
           style="fill:#666666;fill-opacity:1" /><path
           id="path10"
           d="M 26,10.943 H 13 a 1,1 0 0 1 0,-2 h 13 a 1,1 0 0 1 0,2 z"
           inkscape:connector-curvature="0"
           style="fill:#666666;fill-opacity:1" /><path
           id="path12"
           d="M 6,12.355 V 7.532 C 6,7.164 6.401,6.936 6.717,7.124 l 4.052,2.412 a 0.474,0.474 0 0 1 0,0.815 L 6.717,12.763 A 0.475,0.475 0 0 1 6,12.355 Z"
           inkscape:connector-curvature="0"
           style="fill:#666666;fill-opacity:1" /><path
           id="path14"
           d="m 3,19.943 a 1,1 0 0 1 -1,-1 v -7 c 0,-1.654 1.346,-3 3,-3 h 3 a 1,1 0 0 1 0,2 H 5 c -0.551,0 -1,0.449 -1,1 v 7 a 1,1 0 0 1 -1,1 z"
           inkscape:connector-curvature="0"
           style="fill:#666666;fill-opacity:1" /></g></g></g><metadata
     id="metadata16"><rdf:RDF><rdf:Description
         about="https://iconscout.com/legal#licenses"
         dc:title="play,next,playlist,ios,x,iphone,ui"
         dc:description="play,next,playlist,ios,x,iphone,ui"
         dc:publisher="Iconscout"
         dc:date="2017-10-03"
         dc:format="image/svg+xml"
         dc:language="en"><dc:creator><rdf:Bag><rdf:li>Jemis Mali</rdf:li></rdf:Bag></dc:creator></rdf:Description><cc:Work
         rdf:about=""><dc:format>image/svg+xml</dc:format><dc:type
           rdf:resource="http://purl.org/dc/dcmitype/StillImage" /><dc:title /></cc:Work></rdf:RDF></metadata></svg>