<?xml version="1.0" encoding="UTF-8" standalone="no"?>
<svg
   xmlns:dc="http://purl.org/dc/elements/1.1/"
   xmlns:cc="http://creativecommons.org/ns#"
   xmlns:rdf="http://www.w3.org/1999/02/22-rdf-syntax-ns#"
   xmlns:svg="http://www.w3.org/2000/svg"
   xmlns="http://www.w3.org/2000/svg"
   xmlns:xlink="http://www.w3.org/1999/xlink"
   width="48"
   height="48"
   id="svg4708"
   version="1.1">
  <defs
     id="defs4710">
    <radialGradient
       r="7.228416"
       fy="73.615715"
       fx="6.702713"
       cy="73.615715"
       cx="6.702713"
       gradientTransform="matrix(3.0435441,0,0,0.76088585,4.6002692,-16.513156)"
       gradientUnits="userSpaceOnUse"
       id="radialGradient4643"
       xlink:href="#linearGradient10691-3" />
    <linearGradient
       id="linearGradient10691-3">
      <stop
         offset="0"
         style="stop-color:#000000;stop-opacity:1"
         id="stop10693-1" />
      <stop
         offset="1"
         style="stop-color:#000000;stop-opacity:0"
         id="stop10695-4" />
    </linearGradient>
    <linearGradient
       y2="45.96936"
       x2="24.027456"
       y1="10.082471"
       x1="24.027456"
       gradientTransform="matrix(0.91891894,0,0,0.91891894,-0.0792844,1.7350269)"
       gradientUnits="userSpaceOnUse"
       id="linearGradient4428-9-7"
       xlink:href="#linearGradient4094-3-9-3" />
    <linearGradient
       id="linearGradient4094-3-9-3">
      <stop
         offset="0"
         style="stop-color:#ffffff;stop-opacity:1"
         id="stop4096-1-4-9" />
      <stop
         offset="0"
         style="stop-color:#ffffff;stop-opacity:0.23529412"
         id="stop4098-7-7-6" />
      <stop
         offset="1"
         style="stop-color:#ffffff;stop-opacity:0.15686275"
         id="stop4100-0-5-8" />
      <stop
         offset="1"
         style="stop-color:#ffffff;stop-opacity:0.39215687"
         id="stop4102-4-3-5" />
    </linearGradient>
    <linearGradient
       xlink:href="#linearGradient4190-59"
       id="linearGradient4494"
       gradientUnits="userSpaceOnUse"
       x1="5.8015532"
       y1="19.412504"
       x2="5.8015532"
       y2="1.4826411"
       gradientTransform="matrix(-2,0,0,-2,47.5,48.5)" />
    <linearGradient
       id="linearGradient4190-59">
      <stop
         style="stop-color:#fad4a1;stop-opacity:1"
         offset="0"
         id="stop4192-42" />
      <stop
         style="stop-color:#e6b481;stop-opacity:1"
         offset="1"
         id="stop4194-6" />
    </linearGradient>
    <linearGradient
       y2="38.880306"
       x2="13.145103"
       y1="1.9194348"
       x1="13.145103"
       gradientTransform="matrix(0.91891894,0,0,0.91891894,0.9207156,2.236195)"
       gradientUnits="userSpaceOnUse"
       id="linearGradient4428-9"
       xlink:href="#linearGradient4094-3-9" />
    <linearGradient
       id="linearGradient4094-3-9">
      <stop
         offset="0"
         style="stop-color:#ffffff;stop-opacity:1"
         id="stop4096-1-4" />
      <stop
         offset="0"
         style="stop-color:#ffffff;stop-opacity:0.23529412"
         id="stop4098-7-7" />
      <stop
         offset="0.99149066"
         style="stop-color:#ffffff;stop-opacity:0.15686275"
         id="stop4100-0-5" />
      <stop
         offset="1"
         style="stop-color:#ffffff;stop-opacity:0.39215687"
         id="stop4102-4-3" />
    </linearGradient>
    <linearGradient
       id="linearGradient4190">
      <stop
         style="stop-color:#fad4a1;stop-opacity:1"
         offset="0"
         id="stop4192" />
      <stop
         style="stop-color:#e6b481;stop-opacity:1"
         offset="1"
         id="stop4194" />
    </linearGradient>
    <linearGradient
       gradientTransform="matrix(2,0,0,2,0.49999997,-0.49999997)"
       y2="20"
       x2="10"
       y1="2"
       x1="10"
       gradientUnits="userSpaceOnUse"
       id="linearGradient4706"
       xlink:href="#linearGradient4190" />
  </defs>
  <metadata
     id="metadata4713">
    <rdf:RDF>
      <cc:Work
         rdf:about="">
        <dc:format>image/svg+xml</dc:format>
        <dc:type
           rdf:resource="http://purl.org/dc/dcmitype/StillImage" />
        <dc:title></dc:title>
      </cc:Work>
    </rdf:RDF>
  </metadata>
  <path
     d="m 47.00027,39.499998 c 0,3.037567 -9.849736,5.5 -22,5.5 -12.150266,0 -22,-2.462433 -22,-5.5 0,-3.037565 9.849734,-5.5 22,-5.5 12.150264,0 22,2.462435 22,5.5 z"
     id="path10689"
     style="display:inline;overflow:visible;visibility:visible;opacity:0.2;fill:url(#radialGradient4643);fill-opacity:1;fill-rule:nonzero;stroke:none;stroke-width:0.79999995;marker:none" />
  <path
     id="rect4169"
     d="m 9.5,2.5 v 30 6 h 6 30 v -6 h -30 v -30 z"
     style="color:#000000;display:inline;overflow:visible;visibility:visible;fill:url(#linearGradient4706);fill-opacity:1;fill-rule:nonzero;stroke:none;stroke-width:0.99999994;marker:none;enable-background:accumulate" />
  <path
     id="rect4169-5"
     d="m 9.5,2.5 c 0,12 0,36 0,36 h 6 30 v -6 h -30 v -30 z"
     style="color:#000000;display:inline;overflow:visible;visibility:visible;opacity:0.5;fill:none;stroke:#a1550a;stroke-width:0.99999994;stroke-opacity:1;marker:none;enable-background:accumulate" />
  <path
     id="path4537"
     d="M 45,33.5 H 15"
     style="color:#000000;display:inline;overflow:visible;visibility:visible;opacity:0.5;fill:none;stroke:#ffffff;stroke-width:1;stroke-linecap:butt;stroke-linejoin:round;stroke-miterlimit:4;stroke-dasharray:none;stroke-dashoffset:0;stroke-opacity:1;marker:none;enable-background:accumulate" />
  <path
     id="path4357"
     d="M 15,3.5 H 10.5 V 38"
     style="color:#000000;display:inline;overflow:visible;visibility:visible;opacity:0.5;fill:none;stroke:url(#linearGradient4428-9);stroke-width:1;stroke-linecap:butt;stroke-linejoin:miter;stroke-miterlimit:4;stroke-dasharray:none;stroke-dashoffset:0;stroke-opacity:1;marker:none;enable-background:accumulate" />
  <path
     id="rect4169-9"
     d="M 9,9.5 H 2.5 v 6 H 9 m 7,0 h 16.5 v 30 h 6 v -30 -6 H 16"
     style="color:#000000;display:inline;overflow:visible;visibility:visible;fill:url(#linearGradient4494);fill-opacity:1;fill-rule:nonzero;stroke:none;stroke-width:0.99999994;marker:none;enable-background:accumulate" />
  <path
     id="rect4169-5-8"
     d="m 9.5,9.5 h -7 v 6 h 7 m 6,0 h 17 v 30 h 6 v -30 -6 h -6 -17"
     style="color:#000000;display:inline;overflow:visible;visibility:visible;opacity:0.5;fill:none;stroke:#a1550a;stroke-width:0.99999994;stroke-opacity:1;marker:none;enable-background:accumulate" />
  <path
     d="m 3,10.498832 h 6 m 7,0 H 38 M 33.53506,45 33.46494,15"
     style="color:#000000;display:inline;overflow:visible;visibility:visible;opacity:0.5;fill:none;stroke:url(#linearGradient4428-9-7);stroke-width:1;stroke-linecap:butt;stroke-linejoin:round;stroke-miterlimit:4;stroke-dasharray:none;stroke-dashoffset:0;stroke-opacity:1;marker:none;enable-background:accumulate"
     id="path4357-2" />
  <path
     id="rect879"
     d="M 12 9 L 12 10 L 15.5 10 L 15.5 9 L 12 9 z M 17 12 L 17 15.5 L 18 15.5 L 18 12 L 17 12 z M 21 12 L 21 15.5 L 22 15.5 L 22 12 L 21 12 z M 25 12 L 25 15.5 L 26 15.5 L 26 12 L 25 12 z M 29 12 L 29 15.5 L 30 15.5 L 30 12 L 29 12 z M 12 13 L 12 14 L 15.5 14 L 15.5 13 L 12 13 z M 12 17 L 12 18 L 15.5 18 L 15.5 17 L 12 17 z M 32.5 19 L 32.5 20 L 36 20 L 36 19 L 32.5 19 z M 12 21 L 12 22 L 15.5 22 L 15.5 21 L 12 21 z M 32.5 23 L 32.5 24 L 36 24 L 36 23 L 32.5 23 z M 12 25 L 12 26 L 15.5 26 L 15.5 25 L 12 25 z M 32.5 27 L 32.5 28 L 36 28 L 36 27 L 32.5 27 z M 12 29 L 12 30 L 15.5 30 L 15.5 29 L 12 29 z M 32.5 31 L 32.5 32 L 36 32 L 36 31 L 32.5 31 z M 18 32.5 L 18 36 L 19 36 L 19 32.5 L 18 32.5 z M 22 32.5 L 22 36 L 23 36 L 23 32.5 L 22 32.5 z M 26 32.5 L 26 36 L 27 36 L 27 32.5 L 26 32.5 z M 30 32.5 L 30 36 L 31 36 L 31 32.5 L 30 32.5 z M 32.5 35 L 32.5 36 L 36 36 L 36 35 L 32.5 35 z M 32.5 39 L 32.5 40 L 36 40 L 36 39 L 32.5 39 z "
     style="opacity:0.3;vector-effect:none;fill:#a1550a;fill-opacity:1;stroke:none;stroke-width:1;stroke-linecap:butt;stroke-linejoin:miter;stroke-miterlimit:4;stroke-dasharray:none;stroke-dashoffset:0;stroke-opacity:1;marker:none;paint-order:normal;font-variant-east_asian:normal" />
</svg>
