<?xml version="1.0" encoding="UTF-8" standalone="no"?>
<svg
   xmlns:dc="http://purl.org/dc/elements/1.1/"
   xmlns:cc="http://creativecommons.org/ns#"
   xmlns:rdf="http://www.w3.org/1999/02/22-rdf-syntax-ns#"
   xmlns:svg="http://www.w3.org/2000/svg"
   xmlns="http://www.w3.org/2000/svg"
   xmlns:xlink="http://www.w3.org/1999/xlink"
   width="48"
   height="48"
   id="svg5400"
   version="1.1">
  <defs
     id="defs5402">
    <linearGradient
       id="linearGradient5053">
      <stop
         id="stop5049"
         style="stop-color:#d4d4d4;stop-opacity:1"
         offset="0" />
      <stop
         id="stop5051"
         style="stop-color:#abacae;stop-opacity:1"
         offset="1" />
    </linearGradient>
    <linearGradient
       id="linearGradient5047">
      <stop
         id="stop5039"
         style="stop-color:#ffffff;stop-opacity:1"
         offset="0" />
      <stop
         id="stop5041"
         style="stop-color:#ffffff;stop-opacity:0.23529412"
         offset="0.22222225" />
      <stop
         id="stop5043"
         style="stop-color:#ffffff;stop-opacity:0.15686275"
         offset="0.83333337" />
      <stop
         id="stop5045"
         style="stop-color:#ffffff;stop-opacity:0.39215687"
         offset="1" />
    </linearGradient>
    <linearGradient
       id="linearGradient3703">
      <stop
         id="stop3705"
         style="stop-color:#000000;stop-opacity:0"
         offset="0" />
      <stop
         id="stop3711"
         style="stop-color:#000000;stop-opacity:1"
         offset="0.5" />
      <stop
         id="stop3707"
         style="stop-color:#000000;stop-opacity:0"
         offset="1" />
    </linearGradient>
    <linearGradient
       id="linearGradient3205-2-2-1">
      <stop
         id="stop3207-1-6-3"
         style="stop-color:#000000;stop-opacity:1"
         offset="0" />
      <stop
         id="stop3209-1-4-9"
         style="stop-color:#000000;stop-opacity:0"
         offset="1" />
    </linearGradient>
    <linearGradient
       gradientTransform="matrix(0.80901986,0,0,0.79649034,6.3237157,11.68072)"
       gradientUnits="userSpaceOnUse"
       y2="23"
       x2="12"
       y1="20"
       x1="12"
       id="linearGradient1609-7"
       xlink:href="#linearGradient3703" />
    <radialGradient
       gradientUnits="userSpaceOnUse"
       gradientTransform="matrix(4.8542069e-7,0.79649025,-1.6180396,1.8360368e-6,56.48293,16.658745)"
       r="1.5000002"
       fy="21.999996"
       fx="15.250001"
       cy="21.999996"
       cx="15.250001"
       id="radialGradient1663-5"
       xlink:href="#linearGradient3205-2-2-1" />
    <radialGradient
       gradientUnits="userSpaceOnUse"
       gradientTransform="matrix(1.618039,5.1423805e-7,-1.7663079e-7,0.79649047,1.7664729,-11.879838)"
       r="1.5000002"
       fy="-21.249996"
       fx="-8"
       cy="-21.249996"
       cx="-8"
       id="radialGradient1665-3"
       xlink:href="#linearGradient3205-2-2-1" />
    <linearGradient
       gradientUnits="userSpaceOnUse"
       y2="24.402605"
       x2="10.730027"
       y1="-14.402607"
       x1="11.269974"
       id="linearGradient5008"
       xlink:href="#linearGradient5053" />
    <linearGradient
       gradientUnits="userSpaceOnUse"
       y2="23.366367"
       x2="9.7227859"
       y1="-13.421206"
       x1="10.234658"
       id="linearGradient5037"
       xlink:href="#linearGradient5047" />
  </defs>
  <metadata
     id="metadata5405">
    <rdf:RDF>
      <cc:Work
         rdf:about="">
        <dc:format>image/svg+xml</dc:format>
        <dc:type
           rdf:resource="http://purl.org/dc/dcmitype/StillImage" />
        <dc:title></dc:title>
      </cc:Work>
    </rdf:RDF>
  </metadata>
  <g
     transform="matrix(1.5,0,0,1.5,0.25009523,1.0000029)"
     id="g1181"
     style="stroke-width:0.66666669">
    <rect
       style="opacity:0.2;vector-effect:none;fill:url(#linearGradient1609-7);fill-opacity:1;fill-rule:nonzero;stroke:none;stroke-width:0.53333336;stroke-linecap:butt;stroke-linejoin:round;stroke-miterlimit:4;stroke-dasharray:none;stroke-opacity:1;paint-order:normal"
       id="rect1601-4"
       width="9.7082386"
       height="2.3894711"
       x="11.177835"
       y="27.610527" />
    <rect
       style="opacity:0.2;vector-effect:none;fill:url(#radialGradient1665-3);fill-opacity:1;fill-rule:nonzero;stroke:none;stroke-width:0.53333336;stroke-linecap:butt;stroke-linejoin:round;stroke-miterlimit:4;stroke-dasharray:none;stroke-opacity:1;paint-order:normal"
       id="rect1601-7-3"
       width="2.4270597"
       height="2.3894711"
       x="-11.177835"
       y="-29.999998"
       transform="scale(-1)" />
    <rect
       style="opacity:0.22000002;vector-effect:none;fill:url(#radialGradient1663-5);fill-opacity:1;fill-rule:nonzero;stroke:none;stroke-width:0.53333336;stroke-linecap:butt;stroke-linejoin:round;stroke-miterlimit:4;stroke-dasharray:none;stroke-opacity:1;paint-order:normal"
       id="rect1601-7-9-3"
       width="2.4270599"
       height="2.3894711"
       x="20.886074"
       y="27.610527" />
  </g>
  <path
     transform="matrix(0.97906034,-0.01362293,0.01362291,0.97906033,13.162221,19.254551)"
     d="M 19.000001,24.999999 2.5147197,24.79899 -8.9999993,13.000001 -8.79899,-3.4852803 2.9999991,-14.999999 19.48528,-14.79899 30.999999,-3.0000009 30.79899,13.48528 Z"
     id="path1282-3"
     style="opacity:1;vector-effect:none;fill:url(#linearGradient5008);fill-opacity:1;fill-rule:nonzero;stroke:none;stroke-width:1.02128875;stroke-linecap:square;stroke-linejoin:miter;stroke-miterlimit:4;stroke-dasharray:none;stroke-opacity:1;paint-order:normal" />
  <path
     transform="matrix(0.97904688,-0.01361376,0.01362273,0.97840191,13.162623,19.270665)"
     d="M 19.000001,24.999999 2.5147197,24.79899 -8.9999993,13.000001 -8.79899,-3.4852803 2.9999991,-14.999999 19.48528,-14.79899 30.999999,-3.0000009 30.79899,13.48528 Z"
     id="path1282"
     style="opacity:0.5;vector-effect:none;fill:none;fill-opacity:1;fill-rule:nonzero;stroke:#555761;stroke-width:1.02163926;stroke-linecap:butt;stroke-linejoin:miter;stroke-miterlimit:4;stroke-dasharray:none;stroke-opacity:1;paint-order:normal;font-variant-east_asian:normal;stroke-dashoffset:0;marker:none" />
  <path
     id="path4159-7"
     d="m 23.980162,11.638869 c -1.648637,0 -2.985122,1.336485 -2.985122,2.985121 0,2.985121 0.995041,6.965283 1.990081,14.925606 h 1.990081 c 0.99504,-7.960323 1.990081,-11.940485 1.990081,-14.925605 0,-1.648637 -1.336485,-2.985121 -2.985121,-2.985122 z m 0,20.895848 c -1.648637,0 -2.985122,1.336485 -2.985122,2.985121 0,1.648637 1.336485,2.985122 2.985122,2.985122 1.648636,0 2.985121,-1.336485 2.985121,-2.985122 0,-1.648636 -1.336485,-2.985121 -2.985121,-2.985121 z"
     style="opacity:0.15;fill:#f7f7f7;fill-opacity:1;stroke:none;stroke-width:1;stroke-linecap:butt;stroke-linejoin:miter;stroke-miterlimit:4;stroke-dasharray:none;stroke-dashoffset:0;stroke-opacity:1;marker:none;font-variant-east_asian:normal;vector-effect:none;paint-order:normal" />
  <path
     transform="matrix(0.92887147,-0.01292169,0.01292457,0.92866165,13.71836,19.502096)"
     d="M 19.000001,24.999999 2.5147197,24.79899 -8.9999993,13.000001 -8.79899,-3.4852803 2.9999991,-14.999999 19.48528,-14.79899 30.999999,-3.0000009 30.79899,13.48528 Z"
     id="path1282-7"
     style="opacity:0.50700001;vector-effect:none;fill:none;fill-opacity:1;fill-rule:nonzero;stroke:url(#linearGradient5037);stroke-width:1.07659245;stroke-linecap:square;stroke-linejoin:miter;stroke-miterlimit:4;stroke-dasharray:none;stroke-opacity:1;paint-order:normal" />
  <path
     id="path4159"
     d="m 23.980162,10.643828 c -1.648637,0 -2.985122,1.336486 -2.985122,2.985121 0,2.985122 0.995041,6.965283 1.990081,14.925606 h 1.990081 c 0.99504,-7.960323 1.990081,-11.940484 1.990081,-14.925605 0,-1.648636 -1.336485,-2.985122 -2.985121,-2.985122 z m 0,20.895849 c -1.648637,0 -2.985122,1.336484 -2.985122,2.985121 0,1.648637 1.336485,2.985121 2.985122,2.985121 1.648636,0 2.985121,-1.336484 2.985121,-2.985121 0,-1.648637 -1.336485,-2.985121 -2.985121,-2.985121 z"
     style="opacity:1;fill:#7e8087;fill-opacity:1;stroke:none;stroke-width:1;stroke-linecap:butt;stroke-linejoin:miter;stroke-miterlimit:4;stroke-dasharray:none;stroke-dashoffset:0;stroke-opacity:1;font-variant-east_asian:normal;vector-effect:none;marker:none;paint-order:normal" />
</svg>
