<?xml version="1.0" encoding="UTF-8" standalone="no"?>
<!-- Generator: Adobe Illustrator 15.0.0, SVG Export Plug-In . SVG Version: 6.00 Build 0)  -->

<svg
   version="1.1"
   id="Capa_1"
   x="0px"
   y="0px"
   width="250"
   height="250"
   viewBox="0 0 250 250"
   enable-background="new 0 0 800 600"
   xml:space="preserve"
   inkscape:version="1.1.1 (c3084ef, 2021-09-22)"
   sodipodi:docname="pilas_logo_sin_texto_vectorial.svg"
   xmlns:inkscape="http://www.inkscape.org/namespaces/inkscape"
   xmlns:sodipodi="http://sodipodi.sourceforge.net/DTD/sodipodi-0.dtd"
   xmlns="http://www.w3.org/2000/svg"
   xmlns:svg="http://www.w3.org/2000/svg"
   xmlns:rdf="http://www.w3.org/1999/02/22-rdf-syntax-ns#"
   xmlns:cc="http://creativecommons.org/ns#"
   xmlns:dc="http://purl.org/dc/elements/1.1/"><metadata
   id="metadata58"><rdf:RDF><cc:Work
       rdf:about=""><dc:format>image/svg+xml</dc:format><dc:type
         rdf:resource="http://purl.org/dc/dcmitype/StillImage" /></cc:Work></rdf:RDF></metadata><defs
   id="defs56">
	
		
	
		
	
		
	
		
	
		
	
		
	
		
	
		
	
		
	
		
	
		
	
		
	
		
	
	
</defs><sodipodi:namedview
   pagecolor="#ffffff"
   bordercolor="#666666"
   borderopacity="1"
   objecttolerance="10"
   gridtolerance="10"
   guidetolerance="10"
   inkscape:pageopacity="0"
   inkscape:pageshadow="2"
   inkscape:window-width="1920"
   inkscape:window-height="1052"
   id="namedview54"
   showgrid="false"
   inkscape:zoom="1.5733333"
   inkscape:cx="266.94916"
   inkscape:cy="7.6271187"
   inkscape:window-x="0"
   inkscape:window-y="0"
   inkscape:window-maximized="1"
   inkscape:current-layer="Capa_1"
   inkscape:pagecheckerboard="0"
   height="300px" />
<g
   id="path3087-9_1_"
   connector-curvature="0"
   export-xdpi="86.855568"
   export-ydpi="86.855568"
   export-filename="/home/hugoruscitti/path3089-3-4.png"
   transform="translate(-92.161018,-87.711864)">
	<path
   fill="#030104"
   d="m 205.954,126.486 c -0.65,-0.766 -1.229,-1.56 -1.814,-2.352 -0.574,-0.796 -1.118,-1.605 -1.629,-2.427 -0.513,-0.821 -1.365,-1.505 -1.444,-2.502 -0.067,-0.487 -0.078,-0.997 0.013,-1.548 0.079,-0.546 0.229,-1.122 0.582,-1.778 l 0.371,-0.15 c 0.71,0.227 1.218,0.536 1.655,0.874 0.449,0.333 0.796,0.706 1.086,1.103 0.636,0.771 0.5,1.855 0.702,2.802 0.204,0.946 0.376,1.905 0.517,2.877 0.131,0.976 0.267,1.949 0.332,2.952 z"
   id="path4" />
</g>
<g
   id="path3089-3_1_"
   connector-curvature="0"
   export-xdpi="86.855568"
   export-ydpi="86.855568"
   transform="translate(-92.161018,-87.711864)">
	<path
   fill="#030104"
   d="m 224.378,120.568 c 0.064,-2.284 0.234,-4.55 0.348,-6.826 0.148,-2.27 0.33,-4.534 0.544,-6.792 0.105,-1.13 0.138,-2.271 0.194,-3.41 0.063,-1.137 0.245,-2.253 0.548,-3.35 0.308,-1.095 0.676,-2.18 1.153,-3.247 0.464,-1.069 1.003,-2.125 1.758,-3.145 l 0.395,0.067 c 0.375,1.211 0.537,2.386 0.622,3.548 0.098,1.164 0.088,2.31 0.017,3.445 -0.075,1.135 -0.272,2.249 -0.588,3.343 -0.323,1.093 -0.669,2.182 -0.942,3.283 -0.543,2.203 -1.119,4.4 -1.728,6.592 -0.644,2.186 -1.231,4.381 -1.925,6.559 z"
   id="path7" />
</g>
<path
   style="fill:#b2c64b;stroke:#030104;stroke-width:5"
   inkscape:connector-curvature="0"
   d="m 88.219983,90.217136 c 22.728987,-5.893 47.980987,-15.321 72.730987,-34.346 14.478,57.914994 23.906,117.850994 23.738,176.775994 -39.396,-0.674 -78.792,-1.348 -118.186987,-2.02 16.33,-45.794 27.105995,-93.102 21.718,-140.409994 z"
   nodetypes="ccccc"
   export-filename="/home/hugoruscitti/path3089-3-4.png"
   export-ydpi="86.855568"
   export-xdpi="86.855568"
   connector-curvature="0"
   id="path3069-83_1_" /><path
   style="fill:none;stroke:#030104;stroke-width:5"
   inkscape:connector-curvature="0"
   d="m 65.702983,178.80613 c 45.456987,32.326 103.540987,15.152 125.762987,-37.881"
   nodetypes="cc"
   export-filename="/home/hugoruscitti/path3089-3-4.png"
   export-ydpi="86.855568"
   export-xdpi="86.855568"
   connector-curvature="0"
   id="path3071-6_1_" /><path
   style="fill:#b2c64b;stroke:#030104;stroke-width:4.99653"
   inkscape:connector-curvature="0"
   d="m 108.22389,84.023496 c -2.53666,-7.19574 -4.31282,-13.8905 -6.84947,-21.08624 12.60089,-6.15103 23.17043,-10.41739 36.53281,-13.30504 2.1981,6.0248 5.28628,11.04561 7.48337,17.0704 -10.35858,6.69476 -23.12823,12.38356 -37.16671,17.32088 z"
   nodetypes="ccccc"
   export-filename="/home/hugoruscitti/path3089-3-4.png"
   export-ydpi="86.855568"
   export-xdpi="86.855568"
   connector-curvature="0"
   id="path3073-3_1_" /><path
   style="fill:#ad3937;stroke:#030104;stroke-width:3"
   inkscape:connector-curvature="0"
   d="m 147.14697,188.27713 c 2.441,10.691 17.279,20.771 33.335,12.879 22.023,-10.826 15.32,-27.021 -0.758,-39.396 -10.004,12.007 -16.429,18.405 -32.577,26.517 z"
   nodetypes="cscc"
   export-filename="/home/hugoruscitti/path3089-3-4.png"
   export-ydpi="86.855568"
   export-xdpi="86.855568"
   connector-curvature="0"
   id="path3075-4_1_" /><path
   style="fill:#030104;stroke:#030104;stroke-width:4"
   inkscape:connector-curvature="0"
   d="m 142.13497,103.13414 21.016,1.715 0.959,7.55299 z"
   export-filename="/home/hugoruscitti/path3089-3-4.png"
   export-ydpi="86.855568"
   export-xdpi="86.855568"
   connector-curvature="0"
   id="path3079-8_1_" /><path
   style="fill:#030104;stroke:#030104;stroke-width:4"
   inkscape:connector-curvature="0"
   d="m 98.998978,120.95213 -22.469995,8.71 23.870997,-6.119 z"
   export-filename="/home/hugoruscitti/path3089-3-4.png"
   export-ydpi="86.855568"
   export-xdpi="86.855568"
   connector-curvature="0"
   id="path3081-3_1_" /><g
   export-filename="/home/hugoruscitti/path3089-3-4.png"
   export-ydpi="86.855568"
   export-xdpi="86.855568"
   connector-curvature="0"
   id="path3083-1_1_"
   transform="translate(-92.161018,-87.711864)">
		<path
   style="fill:#030104"
   inkscape:connector-curvature="0"
   id="path18"
   d="m 181.788,146.277 c -0.633,-0.028 -1.224,-0.122 -1.818,-0.209 -0.588,-0.098 -1.158,-0.224 -1.711,-0.377 -0.552,-0.154 -1.301,0.001 -1.603,-0.546 -0.167,-0.249 -0.301,-0.549 -0.376,-0.942 -0.082,-0.382 -0.123,-0.829 -0.046,-1.46 l 0.215,-0.338 c 0.539,-0.336 0.961,-0.488 1.342,-0.576 0.388,-0.099 0.717,-0.104 1.013,-0.059 0.624,0.042 0.801,0.786 1.174,1.221 0.373,0.435 0.729,0.898 1.066,1.39 0.331,0.501 0.666,0.998 0.959,1.559 z" />
	</g><g
   export-filename="/home/hugoruscitti/path3089-3-4.png"
   export-ydpi="86.855568"
   export-xdpi="86.855568"
   connector-curvature="0"
   id="path3085-3_1_"
   transform="translate(-92.161018,-87.711864)">
		<path
   style="fill:#030104"
   inkscape:connector-curvature="0"
   id="path21"
   d="m 191.086,134.619 c -1.72,-1.585 -3.356,-3.24 -5.037,-4.858 -1.653,-1.64 -3.281,-3.302 -4.882,-4.985 -0.803,-0.84 -1.662,-1.633 -2.503,-2.441 -0.835,-0.813 -1.578,-1.703 -2.225,-2.671 -0.644,-0.971 -1.24,-1.98 -1.751,-3.06 -0.522,-1.071 -0.984,-2.192 -1.278,-3.451 l 0.309,-0.254 c 1.179,0.53 2.19,1.198 3.141,1.916 0.962,0.709 1.839,1.488 2.668,2.306 0.826,0.821 1.556,1.72 2.194,2.696 0.632,0.98 1.246,1.976 1.916,2.925 1.345,1.895 2.664,3.811 3.957,5.748 1.265,1.96 2.575,3.883 3.802,5.875 z" />
	</g><path
   style="fill:#ffffff;stroke:#030104;stroke-width:4"
   inkscape:connector-curvature="0"
   d="m 166.00197,150.19513 c 0.008,14.713 -11.236,26.648 -25.113,26.656 -13.879,0.01 -25.135,-11.912 -25.143,-26.627 0,-0.01 0,-0.02 0,-0.029 0,-14.715 11.25,-26.643 25.127,-26.643 13.879,0 25.129,11.928 25.129,26.643 z"
   type="arc"
   cx="207.46008"
   cy="364.57455"
   rx="25.127544"
   ry="26.642773"
   export-filename="/home/hugoruscitti/path3089-3-4.png"
   export-ydpi="86.855568"
   export-xdpi="86.855568"
   id="path3091-1_1_" /><path
   style="fill:#ffffff;stroke:#030104;stroke-width:4"
   inkscape:connector-curvature="0"
   d="m 110.47397,157.89613 c 0,8.508 -7.066,15.406 -15.783992,15.406 -8.716995,0 -15.782995,-6.898 -15.782995,-15.406 0,-8.508 7.066,-15.404 15.782995,-15.404 8.716992,0 15.783992,6.896 15.783992,15.404 z"
   type="arc"
   cx="165.03368"
   cy="372.78204"
   rx="15.783633"
   ry="15.404825"
   export-filename="/home/hugoruscitti/path3089-3-4.png"
   export-ydpi="86.855568"
   export-xdpi="86.855568"
   id="path3861-7_1_" /><path
   style="fill:#030104;stroke:#030104;stroke-width:2"
   inkscape:connector-curvature="0"
   d="m 144.23097,152.86713 c 0,1.783 -1.445,3.23 -3.23,3.23 -1.783,0 -3.23,-1.447 -3.23,-3.23 0,-1.785 1.447,-3.23 3.23,-3.23 1.784,-0.001 3.23,1.444 3.23,3.23 z"
   type="arc"
   cx="210.36427"
   cy="370.50922"
   rx="4.0406103"
   ry="4.0406103"
   export-filename="/home/hugoruscitti/path3089-3-4.png"
   export-ydpi="86.855568"
   export-xdpi="86.855568"
   id="path3863-1_1_" /><path
   style="fill:#030104;stroke:#030104;stroke-width:2"
   inkscape:connector-curvature="0"
   d="m 99.309978,159.07813 c 0,2.455 -1.989,4.445 -4.444,4.445 -2.455,0 -4.444995,-1.99 -4.444995,-4.445 0,-2.455 1.989995,-4.445 4.444995,-4.445 2.455,0 4.444,1.989 4.444,4.445 z"
   type="arc"
   cx="166.42264"
   cy="375.30743"
   rx="3.2829957"
   ry="3.2829957"
   export-filename="/home/hugoruscitti/path3089-3-4.png"
   export-ydpi="86.855568"
   export-xdpi="86.855568"
   id="path3865-3_1_" /><path
   style="fill:none;stroke:#030104;stroke-width:4"
   inkscape:connector-curvature="0"
   d="m 165.76797,176.68913 c 3.916,3.28 7.39,7.803 9.058,12.988"
   nodetypes="cc"
   export-filename="/home/hugoruscitti/path3089-3-4.png"
   export-ydpi="86.855568"
   export-xdpi="86.855568"
   connector-curvature="0"
   id="path3867-5_1_" />
</svg>
